<svg xmlns="http://www.w3.org/2000/svg" viewBox="0 0 130 130">
  <path
    id="Background"
    class="fill-secondary-50"
    d="M25.5,38.6c-7,7.2-13.71,15.63-16.09,25.55C7.65,71.53,9,81.4,16.9,84.75c4,1.7,8.22.23,12.26-.31C41.65,82.77,58.29,86,64,98.62c1.73,3.81,2.61,8,4.19,11.84,4.77,11.76,18,14.23,29.27,10.62,10.44-3.32,17.71-12.39,21.16-22.42C124.32,82.13,121.18,63.71,112,49a71.15,71.15,0,0,0-12-14.6C77.81,13.78,45.73,17.72,25.5,38.6Z"
  />
  <g id="Books">
    <rect
      class="fill-secondary-200"
      x="73.26"
      y="121.5"
      width="22.62"
      height="3.87"
      x="76.03"
      y="119.64"
      width="22.62"
      height="1.89"
    />
    <rect
      class="fill-secondary-500"
      x="74.04"
      y="116.4"
      width="22.62"
      height="3.22"
    />
    <rect
      class="fill-secondary-700"
      x="75.42"
      y="112.27"
      width="22.62"
      height="4.1"
    />
    <rect
      class="fill-tertiary-100"
      x="76.72"
      y="112.86"
      width="21.32"
      height="2.92"
    />
    <rect
      class="fill-tertiary-100"
      x="74.58"
      y="122.25"
      width="21.32"
      height="2.35"
    />
    <rect
      class="fill-secondary-200"
      x="78.66"
      y="108.18"
      width="22.62"
      height="4.1"
    />
    <rect
      class="fill-secondary-700"
      x="71.59"
      y="105.04"
      width="22.62"
      height="3.22"
    />
    <rect
      class="fill-tertiary-100"
      x="78.7"
      y="109.1"
      width="21.32"
      height="2.35"
    />
  </g>
  <g id="Cape">
    <path
      class="fill-primary-500"
      d="M60.57,46.28a1.3,1.3,0,0,1,.6.42,5.65,5.65,0,0,0,1-2.12,2.65,2.65,0,0,0-1.47-1,.58.58,0,0,1,0,.13,3.36,3.36,0,0,0,.19.38l-.34,1.46Z"
    />
    <path
      class="fill-primary-800"
      d="M60.43,46.25l.14,0c0-.27,0-.58,0-.81l-.15.67"
    />
    <path
      class="fill-primary-500"
      d="M56,43.85l-.56-1.76c-10.56-2.93-18.76,3.44-18.76,3.44,8.14-3.34,19.6.25,22.94,1.48l0-.14Z"
    />
    <path
      class="fill-primary-500"
      d="M24.12,67.71c3.28-10.15,7.73-18.79,12.59-22.17a31.86,31.86,0,0,1,11.56-.17l-1.06.88c-4.67,3.91-9.16,7.25-13.36,11.54-.28.19-.76.67-.57,1.05,3,5.54,8,9.45,13.26,12.79-1.06,1.46-2.12,2.92-3.22,4.35a2.21,2.21,0,0,0,.5,3.15,40.81,40.81,0,0,0,3.87,2.51,38.1,38.1,0,0,0-1.85,10.53,25,25,0,0,1-11.42,9c-15,5.7-25.9-12.62-25.9-12.62S20.25,79.65,24.12,67.71Z"
    />
    <path
      class="fill-primary-800"
      d="M55.56,48A21.78,21.78,0,0,0,51,46l3-.7c-1.11-.49-12.36-3.17-17.22.21h0a26.88,26.88,0,0,1,11.21.12l-.71.59C42.54,50.16,38,53.38,33.75,57.67c-.28.19-.84,1-.65,1.42,3.06,5.53,7.73,9.27,13,12.61-.93,1.28-1.84,2.57-2.78,3.84a2.92,2.92,0,0,0,.63,4.1,32,32,0,0,0,3.31,2.17,39,39,0,0,0-1.67,10.73c5.85-8.08,7.79-19.22,6.6-25.48C50.86,60.2,53.89,51.84,55.56,48Z"
    />
  </g>
  <g id="Legs">
    <g id="Leg_L">
      <path
        id="Ankle_L"
        class="fill-skin"
        d="M81.05,100.21c.24.85,1,2.24.84,3.38,0,.26-.07.55.13.6a.48.48,0,0,0,.23,0,5.22,5.22,0,0,0,1.07-.64,1.84,1.84,0,0,0,.38-.31,1,1,0,0,0,.24-.61,1.79,1.79,0,0,0-.34-.81,3.9,3.9,0,0,1-.16-1.91"
      />
      <path
        id="Shoe_L"
        class="fill-secondary-500"
        d="M82.19,103.24a.9.9,0,0,1-.38-.08,6.51,6.51,0,0,0-.08,1.75,1.93,1.93,0,0,0,.5.09,16.19,16.19,0,0,0,2.45.13c1,0,2.07,0,3.14,0a8,8,0,0,0,1.06-.09,1.43,1.43,0,0,0,.44-1.11c-.06-.51-.58-.69-1-.86a6.13,6.13,0,0,0-1.77-.45,6.61,6.61,0,0,1-1.85-.35,3.6,3.6,0,0,1-.54-.31c-.09-.06-.36-.15-.35-.29a1.26,1.26,0,0,1-.23.49,3.09,3.09,0,0,1-.62.78,1.47,1.47,0,0,1-.54.28Z"
      />
      <path
        id="Shadow_L"
        class="fill-secondary-700"
        d="M50.4,96.35c.54-3.38,1.09-6.74,1.64-10v-.05c.14-.79.27-1.56.4-2.33"
      />
      <path
        id="Shadow_L-2"
        class="fill-secondary-700"
        d="M49.61,101.43l.33-2.16"
      />
      <path
        class="fill-secondary-700"
        d="M50.75,82.39s-.18-.36-.42-.73c-1.84,10.21-4,25.13-4.26,38l.82.49,6.37-38.92Z"
      />
    </g>
    <g id="Leg_R">
      <path
        id="Ankle_R"
        class="fill-skin"
        d="M46.06,119.64a16.92,16.92,0,0,1-.66,4.71c-.1.24-.22.52,0,.56a.42.42,0,0,0,.24,0,7.56,7.56,0,0,0,1.31-.59,3.48,3.48,0,0,0,.48-.3,1.25,1.25,0,0,0,.43-.57c.1-.34-.06-.53-.13-.77a3.69,3.69,0,0,1,.36-1.82"
      />
      <path
        id="Shoe_R"
        class="fill-secondary-500"
        d="M45.82,124a.9.9,0,0,1-.37-.09,6.59,6.59,0,0,0-.58,1.66,1.86,1.86,0,0,0,.51.09,15.74,15.74,0,0,0,2.53.13c1.1,0,2.19,0,3.32,0a9.41,9.41,0,0,0,1.15-.08,1.86,1.86,0,0,0,.78-1c.07-.49-.43-.65-.8-.82a6.15,6.15,0,0,0-1.74-.44,6.64,6.64,0,0,1-1.85-.33,3.26,3.26,0,0,1-.48-.3c-.08,0-.34-.14-.29-.28a1.81,1.81,0,0,1-.38.47,4.43,4.43,0,0,1-.87.73,2.44,2.44,0,0,1-.65.27Z"
      />
      <path
        class="fill-secondary-700"
        d="M80,73.44c-.83.29-1.67.54-2.52.78l-.73.19c-.71.19-1.42.35-2.13.5l-1,.19q-.87.16-1.74.3l-1.3.17-1,.11c-1,.1-2,.17-3,.22h-.34c-.63,0-1.27,0-1.9,0A13.31,13.31,0,0,1,60.8,80.4c0,.27-.12.54-.17.82,10.65,0,16.44-3.72,16.44-3.72a52.6,52.6,0,0,0,4.06,23c0-.09-.06-.17-.08-.25l.69-.09C80.11,91.4,80.51,82.25,80,73.44Z"
      />
    </g>
    <path
      id="Legs_Main"
      class="fill-secondary-500"
      d="M65.53,71.62a.88.88,0,0,1,0,.15A22.8,22.8,0,0,1,61,73.12h0l-.2,0a24.19,24.19,0,0,1-2.7.4l-1.39.13a16.87,16.87,0,0,1-1.86,0,23,23,0,0,1-2.42-.2l-.52-.06s-2.22.45-2.69,3.75a6.8,6.8,0,0,0,1.5,5.37l2.15-1c-2.2,12.35-4.46,27.4-6,38.64l1.15.68c3-4.39,10.67-26.11,12.91-40.41A13.92,13.92,0,0,0,64.42,76,48.33,48.33,0,0,0,80,73.44c.48,8.81.08,18,1.71,26.68l1.7-.23V100c2.76-13.22,3.08-30.37,3.08-30.37a85.75,85.75,0,0,0-20.76,2"
    />
  </g>
  <g id="Shirt">
    <path
      id="Shirt_Arm_R_Shadow"
      class="fill-secondary-100"
      d="M50,46.25l.13,0A72.49,72.49,0,0,0,39,57.22c1.6,3.91,6.66,7.06,10.36,9.15a6.36,6.36,0,0,0-.61.66c-2.86-1.58-9-5.44-11-9.33C37.72,57.7,45.73,47.82,50,46.25Z"
    />
    <path
      id="Shirt_Arm_L_Shadow"
      class="fill-secondary-100"
      d="M68.08,47c0,.32,0,.68-.08,1.07a62.33,62.33,0,0,0,10.27-8.19,17.37,17.37,0,0,0,1-3.6A6.8,6.8,0,0,1,77.84,39,82.86,82.86,0,0,1,68.08,47Z"
    />
    <path
      id="Shirt-2"
      class="fill-white"
      d="M76.65,27.26c-.09.44-.18.88-.28,1.33-.88,4-2.11,8.21-2.11,8.21L63.57,44.58H62.19a5.65,5.65,0,0,1-1,2.12,1.3,1.3,0,0,0-.6-.42l-.14,0h0l-.26,0a.75.75,0,0,0-.43.52l0,.06,0,.14a49.25,49.25,0,0,0-5.72-1.69L50,46.25v.06A73.88,73.88,0,0,0,39,57.22c1.6,3.91,5.37,6.34,9.06,8.43l1.3.72a5,5,0,0,1,2.82-1.21l-1.28-1c-3.81-3.05-7.42-6.26-7.42-6.26l1.45-1.1,3.93-3c1.18.91,5.49,4.43,6.16,7.6.39,5.15-3.1,12-3.1,12a26.22,26.22,0,0,0,13.55-1.64A28.34,28.34,0,0,0,67.36,58c.15.09,1.15.54.64-3.76a44.46,44.46,0,0,1,.19-7.38A83,83,0,0,0,77.84,39a6.8,6.8,0,0,0,1.45-2.75c.42-2.16.75-4.69,1-6.6.06-.49.1-.95.15-1.34A8.46,8.46,0,0,1,76.65,27.26Z"
    />
    <path
      id="Button_R"
      class="fill-white"
      d="M48.16,66.31a.22.22,0,0,0,.23.22.22.22,0,0,0,0-.44A.22.22,0,0,0,48.16,66.31Z"
    />
  </g>
  <path
    id="Hand_R"
    class="fill-skin"
    d="M54.75,67.09c-.82-.58-1.68-1.24-2.56-1.93a5,5,0,0,0-2.82,1.21,5.67,5.67,0,0,0-.59.61l.91.45a2.58,2.58,0,0,0-.29,3.34c2.35,3.3,4.68.24,4.68.24-.33,1.52.52,4.53,1.38,4.58a.26.26,0,0,0,.19-.11C56.42,74.63,56.89,68.64,54.75,67.09Z"
  />
  <g id="Trophy">
    <path
      class="fill-tertiary-400"
      d="M80,19.13s0-.08,0-.11l0-.05a.63.63,0,0,0-.86-.21l-1.57,1a.62.62,0,0,0-.29.65A6.83,6.83,0,0,1,80,19.13Z"
    />
    <path
      class="fill-tertiary-700"
      d="M77.39,20.23s0,0,0-.06a.59.59,0,0,1-.1-.28.71.71,0,0,0-.09.5Z"
    />
    <path
      class="fill-tertiary-700"
      d="M80.25,13.84c3.85-2.65,4.14-4.32,4.16-4.5a.32.32,0,0,0,0-.17L82.5,4.4A.36.36,0,0,0,82,4.23L77.64,6.87l.37.61,4-2.43,1.69,4.28c-.1.33-.7,1.77-3.84,3.93Z"
    />
    <path
      class="fill-tertiary-400"
      d="M84.2,9.82a.32.32,0,0,0,0-.17L82.28,4.88a.32.32,0,0,0-.21-.2.35.35,0,0,0-.3,0l-4,2.42-.16-.26L82,4.23a.36.36,0,0,1,.51.17l1.89,4.77a.32.32,0,0,1,0,.17,2.38,2.38,0,0,1-.28.76A2.56,2.56,0,0,0,84.2,9.82Z"
    />
    <path
      class="fill-tertiary-700"
      d="M72.52,18.57c-4.12,2.2-5.74,1.69-5.91,1.63a.71.71,0,0,1-.14-.1l-3.36-3.87a.37.37,0,0,1,.08-.54l4.35-2.64.36.6-4,2.43,3,3.47c.34.06,1.89.19,5.26-1.6Z"
    />
    <path
      class="fill-tertiary-400"
      d="M78,19.38l.41-.24a5.7,5.7,0,0,0,1.9-7.82L77.26,6.24,67.14,12.39l3.09,5.09A5.69,5.69,0,0,0,78,19.38Z"
    />
    <path
      class="fill-tertiary-700"
      d="M67.87,12.32l2.76,4.55a6,6,0,0,0,8.22,1.93h0a6.06,6.06,0,0,0,1.47-1.52,6,6,0,0,1-2,2.3h0a6,6,0,0,1-8.22-1.93l-3-4.88Z"
    />
    <rect
      class="fill-tertiary-400"
      x="64.97"
      y="8.77"
      width="14.44"
      height="1.1"
      rx="0.53"
      transform="translate(5.67 38.87) rotate(-31.31)"
    />
    <path
      class="fill-tertiary-700"
      d="M66.05,12.46a.37.37,0,0,0,0,.11.55.55,0,0,0,.75.19l11.4-6.94a.56.56,0,0,0,.16-.14.55.55,0,0,1-.23.64L66.77,13.26a.55.55,0,0,1-.75-.19A.54.54,0,0,1,66.05,12.46Z"
    />
    <path
      class="fill-tertiary-400"
      d="M88.44,22.12l0,0a.52.52,0,0,0-.72-.18l-2.93,1.78a6.46,6.46,0,0,1-2-.44,2.36,2.36,0,0,1,0,.28,1,1,0,0,1-1,.9c-1.53.12-2.23-1.55-2.32-3a2.13,2.13,0,0,1-.22.18,7.62,7.62,0,0,1,.59,2.32,2,2,0,0,1-.11,2,5.34,5.34,0,0,1-.36,1v0a.61.61,0,0,0-.05.12h0l-3,1.79a.52.52,0,0,0-.18.72l0,0a.51.51,0,0,0,.72.17l3.41-2.07,2.31-1.4,5.06-3.08h0l.66-.4A.53.53,0,0,0,88.44,22.12Z"
    />
    <path
      class="fill-tertiary-700"
      d="M76.19,28.91a.54.54,0,0,0,.75.18l11.44-7,0,0h0a.48.48,0,0,1-.19.75l-11.44,7a.55.55,0,0,1-.61-.91Z"
    />
    <path class="fill-tertiary-100" d="M76.4,7.4s4,6,3.18,8.55L74.91,8.31Z" />
    <path
      class="fill-tertiary-400"
      d="M78,20.79l2.15-1.05s1.2,4.11,4.58,4l-6.37,4.14S82,25.12,78,20.79Z"
    />
  </g>
  <g id="Hand_L">
    <path
      class="fill-skin"
      d="M81.69,19.71c-.35-.74-.83-.92-1.49-.49h0c-.29-.33-1.66.28-2.79,1A6.91,6.91,0,0,0,76,21.34c-.82,1,1,3.86,1,3.87-.09.64-.22,1.33-.36,2.05a10.81,10.81,0,0,0,1.31.57l1.25-.76a6.18,6.18,0,0,0,.42-1.17,2,2,0,0,0,.11-2,7.62,7.62,0,0,0-.59-2.32,2.13,2.13,0,0,0,.22-.18c.09,1.44.79,3.11,2.32,3a1,1,0,0,0,1-.9C83,22.16,81.69,19.71,81.69,19.71Z"
    />
    <path
      class="fill-skin"
      d="M80.41,28.31c0-.26.06-.53.08-.74l-1.07.65A6.51,6.51,0,0,0,80.41,28.31Z"
    />
  </g>
  <g id="Head">
    <path
      class="fill-skin"
      d="M62.74,33.42l-1.88-2.91-2.79-5.39-8.74,8.4L54.54,39l.24.92,1.26,4,3.65,3,0-.06a.78.78,0,0,1,.43-.52l.26,0h0l.5-2.19a13.89,13.89,0,0,1-1-3.56,5.43,5.43,0,0,1,.14-2c1.46-.18,2.65-.42,2.66-.7a23.19,23.19,0,0,0-1-3.9Z"
    />
    <path
      id="Mouth"
      class="fill-white"
      d="M61.7,35.6H60.26s.48,1.12.93,1.12S61.7,35.6,61.7,35.6Z"
    />
    <path
      id="Hair"
      class="fill-secondary-700"
      d="M61.66,26.21a3.82,3.82,0,0,0-3.84-2.72s-5.73,0-11.11,10.15c0,0,3.54,4.38,8.11,5.34l-1.11-3.41s-2.28-1-1.33-2.3,1.77.37,1.77.37a12.91,12.91,0,0,0,4-7.95,1.67,1.67,0,0,1,1.77,1.56c0,.38.05,1.1-.73.79s-.37-1-.37-1c-1.28.06-.67,1.77.06,2.07S62.6,28.89,61.66,26.21Z"
    />
  </g>
  <g id="Fibula">
    <path
      class="fill-tertiary-400"
      d="M59.77,48c.28.74.9,1.18,1.38,1s.65-.92.37-1.66-.9-1.18-1.38-1S59.5,47.22,59.77,48Z"
    />
    <path
      class="fill-tertiary-700"
      d="M60.14,46.29l.18,0a1.4,1.4,0,0,0-.21,1.58c.24.64.75,1.07,1.2,1a.51.51,0,0,1-.16.09c-.48.18-1.1-.26-1.38-1S59.66,46.48,60.14,46.29Z"
    />
  </g>
</svg>
