<svg xmlns="http://www.w3.org/2000/svg" viewBox="0 0 130 130">
  <g id="NoEduContent">
    <path
      id="Background"
      class="fill-secondary-50"
      d="M109.46,98c7.06-8.09,13.78-17.49,15.76-28.22,1.48-8-.56-18.47-9.16-21.61-4.34-1.59-8.81.21-13.1,1C89.7,51.72,71.72,49.17,64.9,36c-2.06-4-3.24-8.36-5.14-12.42C54,11.3,39.76,9.4,27.86,13.89,16.88,18,9.62,28.15,6.5,39.06c-5.16,18-.76,37.52,9.84,52.74A76.56,76.56,0,0,0,30,106.74C54.92,127.53,89,121.5,109.46,98Z"
    />
    <path
      id="Chair"
      class="fill-tertiary-600"
      d="M66,83.25c-.07-.15-.14-.3-.22-.44a6.4,6.4,0,0,0-4.83-2.92,47.07,47.07,0,0,0-8.14-.2c-7.62.1-14.21-5.48-16.33-12.66a67.07,67.07,0,0,1-2-8.75,121.71,121.71,0,0,0-2.34-12.7,4.43,4.43,0,0,0-.79-1.8,3.67,3.67,0,0,0-3.19-1,4.75,4.75,0,0,0-4.41,3.31,16.88,16.88,0,0,0-.35,4.2,96.64,96.64,0,0,0,1.28,14c.71,4.55,1.42,9.12,2.55,13.58,1,4,2.51,7.76,5.89,10.35S41.29,91.55,45.54,92a52,52,0,0,0,7.06.21c4.2-.17,12,.93,13.6-4.4A6.81,6.81,0,0,0,66,83.25Z"
    />
    <g id="Legs-2">
      <g id="FootR">
        <path
          class="fill-skin"
          d="M100.64,116.06a3.07,3.07,0,0,0,1-.69.92.92,0,0,0,.27-.35.72.72,0,0,0-.2-.66,4.83,4.83,0,0,0-1.22-.87,8.2,8.2,0,0,1-2-2.08c-.43-.57-1.06-.31-1.57,0s-1.06.61-.39,1.15a13.45,13.45,0,0,1,3,2.9c.19.28.41.6.74.65A.89.89,0,0,0,100.64,116.06Z"
        />
        <path
          class="fill-secondary-500"
          d="M99.72,115.06a2.75,2.75,0,0,1-.65-.09,10.77,10.77,0,0,0,1.47,1.9,5.7,5.7,0,0,0,.83.09,33.21,33.21,0,0,0,3.73.13c1.54,0,3.08,0,4.61-.07.5,0,1,0,1.49-.1a1.1,1.1,0,0,0-.34-1.21,4.9,4.9,0,0,0-2.24-.93,19.43,19.43,0,0,0-3-.48,17.17,17.17,0,0,1-3-.36c-.37-.1-.73-.21-1.09-.33-.18-.06-.67-.16-.78-.32a.84.84,0,0,1,.11.54,1.31,1.31,0,0,1-.21.85,1.13,1.13,0,0,1-.54.31Z"
        />
      </g>
      <g id="FootL">
        <path
          class="fill-skin"
          d="M83.45,113.45c0,.09,0,.2.09.26a.34.34,0,0,0,.2,0c.59,0,1.21-.15,1.77-.19-.1-1.54-.32-3.07-.37-4.62,0-.44,0-.88,0-1.32a.84.84,0,0,0-.1-.44c-.26-.41-1.9-.13-2.28.06-.56.29-.18.19-.11.73C83,110.54,83.08,111.7,83.45,113.45Z"
        />
        <path
          class="fill-secondary-500"
          d="M83.22,114.47a.25.25,0,0,0,0,.15.26.26,0,0,0,.14.11,1.67,1.67,0,0,0,.67.08c3.5-.09,7,0,10.5.16a3.43,3.43,0,0,0-.09-.91c-.32-1-1.33-1.35-2.26-1.66a29.19,29.19,0,0,0-6.37-1,.49.49,0,0,0-.17,0,.43.43,0,0,0-.18.15,1.81,1.81,0,0,1-1.19.62c-.17,0-1.21.06-1.27-.16A9.17,9.17,0,0,1,83.22,114.47Z"
        />
      </g>
      <path
        id="LegL"
        class="fill-secondary-700"
        d="M57.38,62.28c-.15.17-1.51,1.85-1.62,1.52,3,2.81.89,2.82,3.56,4.69s5.49,3.74,8.31,5.5c4,2.52,6.32,6.77,8.29,11A96.86,96.86,0,0,1,80.79,98.5a84,84,0,0,1,1.69,9.9,11.66,11.66,0,0,0,3,0c.2-5.28.77-10.57,1-15.85.2-5.47-.49-11.32-3.22-16.16C80.79,72.05,76.48,68.79,72,66.7c-2.51-1.16-5-2.35-7.42-3.67C64,62.68,57.38,62.27,57.38,62.28Z"
      />
      <path
        id="LegR"
        class="fill-secondary-600"
        d="M41.79,78.66c3.15,1.56,6.92,1.88,10.36,2.35a27.25,27.25,0,0,1,7.93,1.88c5.3,2.57,7.88,4.76,13.28,10.89,6.51,7.38,15.53,13.76,23.53,19.48l2.25-1.41c-2.25-3.12-17.4-27.62-20.64-30.75-2.8-2.69-8.89-9.1-22.74-17.3C53,69.58,34.89,72.52,35,72.63A20.93,20.93,0,0,0,41.79,78.66Z"
      />
    </g>
    <g id="Belly" >
      <path
        id="ShadowArmL"
        class="fill-primary-700"
        d="M45.8,43.44S53.85,42,67.73,29.31c.58-.24.68-.4.68-.4s-13.62,13.34-23.92,15C44.2,44.07,45.8,43.44,45.8,43.44Z"
      />
      <path
        id="HandL"
        class="fill-skin"
        d="M70.5,28.26a3.73,3.73,0,0,1,2.49.89c.2.17.38.36.58.52a2.55,2.55,0,0,0,.87.44,1,1,0,0,0,1.09-.22.93.93,0,0,0,.12-.7,2.43,2.43,0,0,0-1.34-1.69A5.43,5.43,0,0,0,72.14,27a9.55,9.55,0,0,0-2.67.14,7.24,7.24,0,0,1-2.24.33,5.53,5.53,0,0,1-.18,1.14c.26,0,.52,0,.78,0s.54,0,.81-.08A16.69,16.69,0,0,1,70.5,28.26Z"
      />
      <path
        id="ArmL-Belly"
        class="fill-primary-500"
        d="M67.94,26.64c-3.15,4-24.46,9.17-24.46,9.17s-7.06,4-2.9,7.5l-.3.06a17.46,17.46,0,0,0-9.74,6.17,4.41,4.41,0,0,0-.88,1.83,14.84,14.84,0,0,0-.12,3.5,32.91,32.91,0,0,0,.79,6.63,85.59,85.59,0,0,0,2.92,9.68c.2.6.41,1.2.61,1.79a8.73,8.73,0,0,0,3.34-.07c3-.55,6.2-.08,9.13-.9a20.81,20.81,0,0,0,8.61-5.47,7.43,7.43,0,0,0,2.35-3.9c.56-3.37-4.52-4.25-6.33-6.54-1.3-1.65-2.45-3.48-3.71-5.17-1-1.38.62-3.63-.57-4.85a18.51,18.51,0,0,0-2.2-2.15c9.45-1.54,23.93-15,23.93-15A4,4,0,0,0,67.94,26.64Z"
      />
      <path
        id="ShadowArmR"
        class="fill-primary-700"
        d="M43.44,43.14c-.29-.44-.36-7.46-.42-7.45a4.84,4.84,0,0,1-3.91-.86,3.86,3.86,0,0,1-1.62-3,17,17,0,0,0-6.7,4.77c-6,6.92-4.94,16.47-.57,23.94,4,6.24,8.94,3.49,16.72,2.66,4.33-.46,8.86-2.55,10.26-2.29.08,0,2-.23,2.13-.27a2,2,0,0,0,.5-.41c.22-.39.14-.22.21-.67a4.05,4.05,0,0,1-1.31-.62c-6.1-3.24-13.09,3.21-16.71-1.7a24.9,24.9,0,0,1-2.9-6.68l2.67-4.88"
      />
      <path
        id="HandR"
        class="fill-skin"
        d="M64.54,60.68a3.25,3.25,0,0,0-2.26-1.44c-.89-.19-1.81-.27-2.71-.44a1.45,1.45,0,0,1,.06.94c1,.19,1.82-.17,2.64.73,1,1.08.7,2.57.62,3.89,0,.42,0,1,.47,1.09a.86.86,0,0,0,.86-.44,4.39,4.39,0,0,0,.65-2.73A3.48,3.48,0,0,0,64.54,60.68Z"
      />
      <path
        id="ArmR"
        class="fill-primary-500"
        d="M41,56.47A30.63,30.63,0,0,1,38.82,50l2.79-4.77,3.83-4.39c-.29-.43-2.58-5.31-2.64-5.3a4.7,4.7,0,0,1-3.8-.84,3.75,3.75,0,0,1-1.57-2.92,16.42,16.42,0,0,0-6.5,4.63c-5.8,6.72-4.81,16-.56,23.25,3.89,6.64,8.79,3.71,16.34,2.9,3.87-.41,7.6-1.85,10.71-1.87h0l.12,0a2.32,2.32,0,0,0,.59,0h.07a.64.64,0,0,0,.18,0l.15,0,1.06-.2s0-.08,0-.11l.19-.06a.55.55,0,0,0,.19-.21c.19-.34-.08-.83-.08-1.24,0-.15.07-.3.11-.45"
      />
      <path
        id="ShadowArmLTop"
        class="fill-primary-700"
        d="M43.29,35.93a14.26,14.26,0,0,1,1.76,5.24"
      />
    </g>
    <g id="Head">
      <path
        id="hair"
        class="fill-secondary-700"
        d="M55.74,21.22a22.84,22.84,0,0,0-4.16-3.55c-2-1.16-5.31.67-5.31.67s-1.29.57-2,.21a1.16,1.16,0,0,0-1.66,1c-.06.92,0,1.18-1.1,1.8s-2,2.9-1.13,3.59c1.82,1.48,2,2.41,2,2.82l2.07,3.53a2.81,2.81,0,0,0,.33,1.26,21.92,21.92,0,0,0,1.34,2.12c.62,1.06.25,1.14.86,1.77a3.49,3.49,0,0,0,3.7.65c1.44-.7,1-2.45,1.17-2.79a1.64,1.64,0,0,1,1.53-.44c.6.12,1.76.17,1.86-.87a7.83,7.83,0,0,1,.61-2.69,17.22,17.22,0,0,0,2.2-3.67C58.4,25.49,58.46,23.51,55.74,21.22Z"
      />
      <path
        id="face"
        class="fill-skin"
        d="M37.43,31.82A3.75,3.75,0,0,0,39,34.74a4.73,4.73,0,0,0,3.8.84.31.31,0,0,1,0-.1c-.82-3.7,1.75-4.25,1.75-4.25s2.31,2.23,4.63,1.1a7.41,7.41,0,0,0,4.27-7.92l0,0a10.62,10.62,0,0,1-3.07,1.11c-.91,0-2-1.16-2.37-1.07a4.05,4.05,0,0,0-1.12.79,3,3,0,0,0,.35-1.81c-.21-.79-1.64-.84-2.05.56a3.49,3.49,0,0,0,.14,2.46l-2.54,1.23a28.4,28.4,0,0,0-5,3.88l-1.22.7C36.77,32.09,37.1,32,37.43,31.82Z"
      />
      <path
        id="Colleke"
        class="fill-white"
        d="M38.49,37c1.55,1,3.63.79,5.35.47-.25-.66-.52-1.32-.79-2-1.26.57-3.24-.17-4.19-1a4.18,4.18,0,0,1-1.35-2.84,6,6,0,0,1-2.06.65A7.54,7.54,0,0,0,38.49,37Z"
      />
    </g>
    <g id="desk">
      <g id="desk_legs">
        <path
          class="fill-tertiary-800"
          d="M106.47,77.88c2.67,7.1,13.56,33.63,16,40.8.09.26.12.66-.16.73a.4.4,0,0,1-.26,0,2.94,2.94,0,0,1-1.38-1.66c-1.49-3.16-11.58-25.58-13.13-28.74a107.93,107.93,0,0,1-4.25-10Z"
        />
        <path
          class="fill-tertiary-900"
          d="M71.7,91.93c-1.87,4.69-3.62,9.14-4.32,11.15-.06.17-.08.41.1.46a.3.3,0,0,0,.16,0,1.88,1.88,0,0,0,.86-1c.48-1,2.4-5.26,4.27-9.38"
        />
        <path
          class="fill-tertiary-800"
          d="M67.93,77.88c-2.67,7.1-13.56,33.63-16,40.8-.09.26-.12.66.15.73a.39.39,0,0,0,.26,0,2.9,2.9,0,0,0,1.38-1.66c1.5-3.16,11.58-25.58,13.13-28.74a102.72,102.72,0,0,0,4.25-10Z"
        />
        <path
          class="fill-tertiary-900"
          d="M99.3,77.79c1.66,4.42,8.43,20.91,10,25.37,0,.17.07.42-.1.46a.3.3,0,0,1-.16,0,1.84,1.84,0,0,1-.86-1c-.93-2-7.2-15.91-8.16-17.88a62.6,62.6,0,0,1-2.65-6.19Z"
        />
      </g>
      <path
        id="velve"
        class="fill-secondary-700"
        d="M110,63A58.86,58.86,0,0,1,98.82,56.6,95.19,95.19,0,0,1,89,48.79a95.39,95.39,0,0,1-8.77-9,59.64,59.64,0,0,1-7.45-10.42l0-.06a.2.2,0,0,1,.08-.28.2.2,0,0,1,.23,0q4.73,4.09,9.38,8.29l9.34,8.34L101,54.15q4.63,4.2,9.2,8.49a.22.22,0,0,1,0,.29.22.22,0,0,1-.23,0Z"
      />
      <path
          id="deskfill"
          class="fill-secondary-50"
          d="M117,61.12H58.18V71.89a7.27,7.27,0,0,0,7.27,7.27H109.7A7.27,7.27,0,0,0,117,71.89Z"
        />
        <path
          id="deskborder"
          class="fill-secondary-700"
          d="M116.93,61.16c-5,.11-9.94.19-14.86.25l-14.67.14c-4.87,0-9.72,0-14.58-.11s-9.75-.14-14.64-.16l.16-.16c0,3.69,0,7.4.09,11.07a7,7,0,0,0,7,6.58l22.16-.16c7.38,0,14.77,0,22.15.11a6.94,6.94,0,0,0,6.93-6.53Zm.08-.08c.06,3.64.22,7.35.24,11.13A7.61,7.61,0,0,1,115,77.4a7.69,7.69,0,0,1-5.28,2.21c-7.39.1-14.77.08-22.15.1l-22.16-.16A7.59,7.59,0,0,1,58,72.21L58,61.12V61h.15c4.91,0,9.82-.06,14.76-.16s9.88-.11,14.81-.11l14.72.13C107.35,60.89,112.22,61,117,61.08Z"
        />
    </g>
  </g>
</svg>
