<svg xmlns="http://www.w3.org/2000/svg" viewBox="0 0 130 130">
  <g>
    <path
      id="Background"
      class="fill-secondary-50"
      d="M123.43,44.21c-1.31-10.31-3.74-21-10.08-28-4.72-5.26-13.39-8.61-21-2.47C88.53,16.83,87,21.71,84.9,26,78.37,39,65.33,53.86,51.8,53.49c-4.11-.12-7.93-1.23-12-1.53C27.51,51.05,17.28,62.84,13,75.71a35.23,35.23,0,0,0,4.41,31.53c9.48,13.49,26,19.18,43.39,17.2a74.36,74.36,0,0,0,19.1-4.87C110.15,107.55,127.2,74.09,123.43,44.21Z"
    />
    <g id="Teacher">
      <g id="Arms-2" data-name="Arms">
        <path
          id="ShadowArmR"
          class="fill-primary-700"
          d="M36.46,25.43c-7.83,2.71-15.18,7-19.66,13.9,3.92,4.09,9.32,6.57,14.55,9.2a10.76,10.76,0,0,0-.68,1.07c-4.93-2.47-13.28-7-15.81-10.61A45.35,45.35,0,0,1,36.46,25.43Z"
        />
        <g id="HandR">
          <path
            class="fill-skin-600"
            d="M34.82,55c-1,1,.6,1.4,1.4,1.6a4,4,0,0,0,2.45-.39,3.09,3.09,0,0,1-5,.92c-2.4-2-.46-3.54,1-3.94,0,0-1.33-.66-.8-1.2l.54-.53s-1-.45-2.53-1.2a5.79,5.79,0,0,1,.79-1c.72.37,1.43.75,2.14,1.13C36.62,51.34,36.22,53.54,34.82,55Z"
          />
          <path
            class="fill-skin"
            d="M33.42,48.54a4.22,4.22,0,0,1,1.66-.63c2.44,2.18,4.23,4.24,4.21,5.57a6,6,0,0,1-.62,2.68,4,4,0,0,1-2.45.39c-.8-.2-2.4-.6-1.4-1.6,1.4-1.41,1.8-3.61,0-4.61-.71-.38-1.42-.76-2.14-1.13A9.51,9.51,0,0,1,33.42,48.54Z"
          />
        </g>
        <path
          id="HandL"
          class="fill-skin"
          d="M62.58,48.86a4.27,4.27,0,0,0-1.67-.63c-2.44,2.18-4.23,4.24-4.21,5.57a6,6,0,0,0,.62,2.68,3.88,3.88,0,0,0,2.45.39c.81-.2,2.41-.6,1.41-1.6-1.41-1.4-1.81-3.61,0-4.61.7-.38,1.41-.76,2.13-1.13A9.35,9.35,0,0,0,62.58,48.86Z"
        />
        <path
          id="ArmL"
          class="fill-primary-500"
          d="M51.44,25.34a35.86,35.86,0,0,1,7,1.95C65.89,30.88,72.69,36,76.35,43.37c-4.38,3.6-10,5.45-15.52,7.45a4.71,4.71,0,0,0-2.13-2.08,138.44,138.44,0,0,1,12.75-7.15,78,78,0,0,0-14.09-8.84,19.92,19.92,0,0,0-7-1.94,21.35,21.35,0,0,0-2.53-.5c.51-1.68,1-3.36,1.44-5C50.66,25.29,51.44,25.34,51.44,25.34Z"
        />
        <path
          id="ArmR"
          class="fill-primary-500"
          d="M43.63,24.31a36.8,36.8,0,0,0-7.17,1.12c-7.83,2.71-15.18,7-19.66,13.9,3.92,4.09,9.32,6.57,14.55,9.2a4.69,4.69,0,0,1,2.35-1.82,138.69,138.69,0,0,0-11.83-8.58,78.13,78.13,0,0,1,15-7.15A19.91,19.91,0,0,1,44,29.86a24.5,24.5,0,0,1,2.57-.21c-.31-1.72-.58-3.44-.84-5.17C44.4,24.34,43.63,24.31,43.63,24.31Z"
        />
      </g>
      <g id="Legs-2" data-name="Legs">
        <path
          id="ShadowLegLCoat"
          class="fill-secondary-700"
          d="M52,49.81c3.17.82,6.68,4,6.68,4s1.15.58,2.53,6.54c-2,1.67-4.15,3.16-6.93,3.58A115.9,115.9,0,0,0,52,49.81Z"
        />
        <path
          id="ShadowLegRCoat"
          class="fill-secondary-700"
          d="M45.43,64.56c-2.25-.24-4.72-.34-7.06-.79a46.72,46.72,0,0,1,2-5.8c7-16.51,11-1.56,11-1.56s-.68,4.46-2,11.06C48,66.1,46.59,64.7,45.43,64.56Z"
        />
        <path
          id="LegL"
          class="fill-secondary-500"
          d="M49.17,49.94A4,4,0,0,1,52,49.81,115.9,115.9,0,0,1,54.24,64c2.78-.42,4.89-1.91,6.93-3.58,1.72,7.47,3.81,12.42,4.48,46.27,0,0-12.44-9.77-14.21-40.63,0,0-2,.45-4.56-3.8S45.82,51.64,49.17,49.94Z"
        />
        <path
          id="LegR"
          class="fill-secondary-500"
          d="M38.37,63.77c2.34.45,4.81.55,7.06.79,1.16.14,2.53,1.54,3.88,2.91-2.9,14.59-8.83,28.66-17.1,39.18C32.21,106.65,33.13,82.81,38.37,63.77Z"
        />
        <path
          id="ShadowLegL"
          class="fill-secondary-700"
          d="M65.64,105.92l-.41,0C63,101.94,53,93.47,51.44,66c0,0,9,31.47,14.2,39.9Z"
        />
        <path
          id="FootR"
          class="fill-secondary-700"
          d="M63.48,107.91a.37.37,0,0,0,0,.15.3.3,0,0,0,.14.11,1.67,1.67,0,0,0,.67.08c3.5-.09,7,0,10.51.16a3.43,3.43,0,0,0-.1-.91c-.31-1-1.33-1.35-2.26-1.66a29.1,29.1,0,0,0-6.37-1,.5.5,0,0,0-.17,0c-.07,0-.12.09-.18.15a1.79,1.79,0,0,1-1.18.62c-.17,0-1.21.06-1.28-.16A9.17,9.17,0,0,1,63.48,107.91Z"
        />
        <path
          id="FootL"
          class="fill-secondary-700"
          d="M34.27,107.06a.29.29,0,0,1,0,.16.31.31,0,0,1-.14.11,1.67,1.67,0,0,1-.67.07c-3.5-.08-7,0-10.51.16a3.88,3.88,0,0,1,.1-.9c.32-1,1.33-1.36,2.26-1.66a29.1,29.1,0,0,1,6.37-1h.17a.52.52,0,0,1,.18.15,1.73,1.73,0,0,0,1.19.62c.17,0,1.2.07,1.27-.16A9.2,9.2,0,0,0,34.27,107.06Z"
        />
      </g>
      <g id="Head-2" data-name="Head">
        <path
          class="fill-skin"
          d="M44.67,23.34a9.32,9.32,0,0,0,2.09,5.43c2.69,2.76-3,3.35-3.74,0a37.66,37.66,0,0,1-.7-6.23A13.85,13.85,0,0,0,44.67,23.34Z"
        />
        <path
          class="fill-skin-600"
          d="M42.24,20.38C42.17,19,44.6,20,44.6,20a19.25,19.25,0,0,0,.07,3.35,13.85,13.85,0,0,1-2.35-.8C42.28,21.62,42.26,20.86,42.24,20.38Z"
        />
        <path
          class="fill-skin-600"
          d="M37.29,15.07s.42-2.82,7.31-3.14l.81,1.2c-1,1.63-2.91,2.63-3.83,4.24s0,3.07,1.43,3.94a8.38,8.38,0,0,1-2.41-.6C36.21,18.94,37.29,15.07,37.29,15.07Z"
        />
        <path
          class="fill-skin"
          d="M41.58,17.37c.92-1.61,2.83-2.61,3.83-4.24l1.87,2.79-.85.46s1,3.41.85,3.48A5.5,5.5,0,0,1,43,21.31C41.56,20.44,40.65,19,41.58,17.37Z"
        />
        <path
          class="fill-secondary-700"
          d="M40.47,17.24S47,11.93,48.2,6.29c0,0-9.9,3.14-14.29,10.16A7.84,7.84,0,0,0,41.33,21l-1.26-2.36A1.13,1.13,0,0,1,39,17.37C39,16.12,40.47,17.24,40.47,17.24Z"
        />
      </g>
      <g id="Coat">
        <path
          id="Shirt"
          class="fill-white"
          d="M48.64,24.86s7.07,25.68,7.62,31c0,0-4.56,3.59-12,2.12,0,0-.48-28-4-33.32a28.33,28.33,0,0,1,3.33-.34A41.13,41.13,0,0,1,48.64,24.86Z"
        />
        <path
          id="BellyButton"
          class="fill-secondary-100"
          d="M50.69,54.67a.19.19,0,0,0,.19.19.2.2,0,0,0,.19-.19.19.19,0,0,0-.19-.19A.18.18,0,0,0,50.69,54.67Z"
        />
        <g id="ShirtSleeve">
          <path
            id="ShirtSleeveR"
            class="fill-white"
            d="M33.7,46.71q.72.6,1.38,1.2a4.22,4.22,0,0,0-1.66.63,9.51,9.51,0,0,0-.74.67l-1.33-.68A4.69,4.69,0,0,1,33.7,46.71Z"
          />
          <path
            id="ShadowShirtSleeveR"
            class="fill-secondary-100"
            d="M31.89,50.21l-1.22-.61a10.76,10.76,0,0,1,.68-1.07l1.33.68A5.79,5.79,0,0,0,31.89,50.21Z"
          />
          <path
            id="ShadowShirtSleeveL"
            class="fill-secondary-100"
            d="M60.34,51.41c-.37-.19-1.2-2.45-1.64-2.67.21-.37.58-.37,1-.66.44.23,1,2.41,1.39,2.64C60.83,51.08,60.56,51.05,60.34,51.41Z"
          />
          <path
            id="ShirtSleeveButton"
            class="fill-white"
            d="M31.37,49.41a.19.19,0,0,0,.19.19.18.18,0,0,0,.19-.19.19.19,0,0,0-.19-.19A.2.2,0,0,0,31.37,49.41Z"
          />
        </g>
        <path
          id="PartR"
          class="fill-primary-500"
          d="M53.57,25.78s6.88,25.56,7.88,33.57a51.6,51.6,0,0,1-6.54,2.87s-4.47-30.29-9-37.73c1.15.09,2.43.31,3.86.54S52.41,25.48,53.57,25.78Z"
        />
        <path
          id="PartL"
          class="fill-primary-500"
          d="M41.39,24.49s6.54,18,7,37.26c0,0-7.61,2.81-11.91-.8,0,0,4.8-7.31,2.6-18.12S34.18,26.1,34.18,26.1A42.57,42.57,0,0,1,41.39,24.49Z"
        />
        <path
          id="ReversL"
          class="fill-primary-700"
          d="M47.9,24.73l3.74,4.72L50.3,30.58l4.19,2.52-2,15.15h0c-1.72-9-4.16-19.73-6.61-23.76C46.53,24.54,47.2,24.63,47.9,24.73Z"
        />
        <path
          id="ReversR"
          class="fill-primary-700"
          d="M47.22,48.46l-8.76-15L41,30.78l-1.73-.48.84-5.63a9.5,9.5,0,0,1,1.26-.18A138.72,138.72,0,0,1,47.22,48.46Z"
        />
        <path
          id="PocketR"
          class="fill-primary-700"
          d="M44.48,53.79a.19.19,0,0,0,.19-.17.2.2,0,0,0-.16-.23l-4.45-.79A.2.2,0,0,0,40,53l4.45.8Z"
        />
        <path
          id="PocketL"
          class="fill-primary-700"
          d="M57.24,52.17l.09,0L59.48,51a.2.2,0,0,0-.18-.36l-2.15,1.12a.2.2,0,0,0-.09.27A.21.21,0,0,0,57.24,52.17Z"
        />
        <path
          id="SmallPocketL"
          class="fill-primary-700"
          d="M53.78,50.5h0l1.43-.39A.1.1,0,0,0,55.3,50a.11.11,0,0,0-.12-.07l-1.44.38a.11.11,0,0,0-.07.13A.11.11,0,0,0,53.78,50.5Z"
        />
        <path
          id="ReversHoleL"
          class="fill-secondary-700"
          d="M53.12,33.65h-.07l-1.25-.54a.1.1,0,0,1,0-.13.09.09,0,0,1,.13,0l1.25.53a.11.11,0,0,1,0,.14S53.15,33.64,53.12,33.65Z"
        />
        <g id="ButtonsSleeve">
          <path
            class="fill-primary-900"
            d="M29.53,47.89a.28.28,0,0,0-.15.36.27.27,0,0,0,.35.14.27.27,0,0,0,.15-.35A.28.28,0,0,0,29.53,47.89Z"
          />
          <path
            class="fill-primary-900"
            d="M27.65,47.05a.26.26,0,0,0-.15.35.27.27,0,0,0,.35.15A.28.28,0,0,0,28,47.2.27.27,0,0,0,27.65,47.05Z"
          />
          <path
            class="fill-primary-900"
            d="M28.59,47.45a.28.28,0,0,0-.15.35.27.27,0,0,0,.35.15.26.26,0,0,0,.15-.35A.27.27,0,0,0,28.59,47.45Z"
          />
        </g>
        <path
          id="ButtonL"
          class="fill-primary-700"
          d="M45.77,51.1a.59.59,0,0,0,.58.59.6.6,0,0,0,.59-.59.59.59,0,0,0-.59-.58A.58.58,0,0,0,45.77,51.1Z"
        />
      </g>
    </g>
    <g id="Chairs">
      <g id="desk_legs" data-name="desk legs">
        <path
          class="fill-tertiary-800"
          d="M46.24,90.58c1.93,5.15,9.82,24.35,11.61,29.54.07.19.09.48-.11.53a.31.31,0,0,1-.19,0,2.14,2.14,0,0,1-1-1.2c-1.08-2.29-8.38-18.52-9.5-20.81A76.17,76.17,0,0,1,44,91.41Z"
        />
        <path
          class="fill-tertiary-800"
          d="M18.34,90.58c-1.94,5.15-9.82,24.35-11.62,29.54-.06.19-.08.48.12.53a.28.28,0,0,0,.18,0,2.1,2.1,0,0,0,1-1.2c1.08-2.29,8.39-18.52,9.51-20.81a76.17,76.17,0,0,0,3.08-7.21Z"
        />
        <path
          class="fill-tertiary-800"
          d="M41.05,91.12c1.2,3.2,6.11,15.14,7.22,18.37,0,.12.06.3-.07.34a.2.2,0,0,1-.11,0,1.35,1.35,0,0,1-.63-.75c-.67-1.42-5.21-11.51-5.91-12.94s-1.35-3-1.91-4.48Z"
        />
        <path
          class="fill-tertiary-800"
          d="M25.05,91.12c-1.2,3.2-6.1,15.14-7.22,18.37,0,.12,0,.3.07.34a.25.25,0,0,0,.12,0,1.3,1.3,0,0,0,.62-.75c.67-1.42,5.21-11.51,5.91-12.94a46.42,46.42,0,0,0,1.92-4.48Z"
        />
      </g>
      <rect class="fill-tertiary-500" x="11.57" y="89.49" width="42.49" height="2.06" />
      <rect class="fill-tertiary-700" x="12.59" y="91.54" width="40.44" height="0.76" />
      <g id="ChairL">
        <g id="desk_legs-2" data-name="desk legs">
          <path
            class="fill-tertiary-800"
            d="M104.07,90.58c1.93,5.15,9.82,24.35,11.61,29.54.07.19.09.48-.11.53a.31.31,0,0,1-.19,0,2.14,2.14,0,0,1-1-1.2c-1.08-2.29-8.38-18.52-9.5-20.81a76.17,76.17,0,0,1-3.08-7.21Z"
          />
          <path
            class="fill-tertiary-800"
            d="M76.17,90.58c-1.94,5.15-9.82,24.35-11.62,29.54-.06.19-.08.48.12.53a.28.28,0,0,0,.18,0,2.1,2.1,0,0,0,1-1.2c1.08-2.29,8.39-18.52,9.51-20.81a76.17,76.17,0,0,0,3.08-7.21Z"
          />
          <path
            class="fill-tertiary-800"
            d="M98.88,91.12c1.2,3.2,6.11,15.14,7.22,18.37.05.12.06.3-.07.34a.22.22,0,0,1-.11,0,1.35,1.35,0,0,1-.63-.75c-.67-1.42-5.21-11.51-5.91-12.94s-1.35-3-1.91-4.48Z"
          />
          <path
            class="fill-tertiary-800"
            d="M82.88,91.12c-1.2,3.2-6.1,15.14-7.22,18.37,0,.12,0,.3.07.34a.25.25,0,0,0,.12,0,1.3,1.3,0,0,0,.62-.75c.67-1.42,5.22-11.51,5.91-12.94a46.42,46.42,0,0,0,1.92-4.48Z"
          />
        </g>
        <rect class="fill-tertiary-500" x="69.4" y="89.49" width="42.49" height="2.06" />
        <rect class="fill-tertiary-700" x="70.43" y="91.54" width="40.44" height="0.76" />
      </g>
    </g>
    <path
      id="Cat"
      class="fill-secondary-900"
      d="M99.07,95.48c.81-3.35.45-5.78-1.07-7.23a4.28,4.28,0,0,0-1.08-.75,10.08,10.08,0,0,0,.53-3.71c0-3.49-1.16-7.06-3.32-8.72a4.3,4.3,0,0,0,1-2.75,4.22,4.22,0,0,0-1-2.67.47.47,0,0,0,0-.16V67.14a.6.6,0,0,0-1-.47l-1.78,1.4a4.48,4.48,0,0,0-.64-.07,4.41,4.41,0,0,0-.74.08l-2.22-1.75a.38.38,0,0,0-.62.3V69.8a.24.24,0,0,0,0,.08,4.28,4.28,0,0,0,.44,5.41,9.13,9.13,0,0,0-3.53,7.46,6.52,6.52,0,0,0,2,5.13,1.36,1.36,0,0,0-.64,1c0,.87,1.44.68,2.9.68h2.79c1.8,0,3.24,0,4.29-.45a2.74,2.74,0,0,1,1.12.62c1.19,1.15.93,3.52.5,5.31-2.39,9.88.42,14.14.54,14.31a1,1,0,0,0,.82.44,1,1,0,0,0,.56-.17,1,1,0,0,0,.28-1.39S96.92,104.39,99.07,95.48Z"
    />
  </g>
</svg>
