<svg xmlns="http://www.w3.org/2000/svg" viewBox="0 0 130 130">
  <defs>
    <style>
      .cls-1 {
        fill: #fff;
      }
      .cls-2 {
        fill: #8ec15c;
      }
      .cls-3 {
        fill: #a0a6d4;
      }
      .cls-4 {
        fill: #3db6c3;
      }
      .cls-5 {
        fill: #56929b;
      }
      .cls-6 {
        fill: #c2e0e3;
      }
      .cls-7 {
        fill: #88ced7;
      }
      .cls-8 {
        fill: #87c0c6;
      }
      .cls-9 {
        fill: #c1e3e4;
      }
      .cls-10 {
        fill: #e3f2f6;
      }
      .cls-11 {
        fill: #c2e4ea;
      }
      .cls-12 {
        fill: #5dbfcc;
      }
      .cls-13 {
        fill: #669da6;
      }
    </style>
  </defs>
  <g id="Whiteboard_Drop">
    <g id="stacked_last">
      <path class="cls-1" d="M86,82.16H43.25a1.55,1.55,0,0,0-.31,0v2.35H87.47v-1A1.44,1.44,0,0,0,86,82.16Z" />
      <path class="cls-2" d="M86,82.16a1.44,1.44,0,0,1,1.49,1.39v1H88v-1a2,2,0,0,0-2-2H43.25a2,2,0,0,0-2,2v1h2.86V82.19" />
    </g>
    <g id="stacked_second">
      <path class="cls-1" d="M88.05,84.65H42.38v2.69H89.77v-.8A1.81,1.81,0,0,0,88.05,84.65Z" />
      <path class="cls-3" d="M88.05,84.09H40.8a2.36,2.36,0,0,0-2.27,2.45v.8h3.85V84.65H88.05a1.81,1.81,0,0,1,1.72,1.89v.8h.56v-.8A2.37,2.37,0,0,0,88.05,84.09Z" />
    </g>
    <g id="box">
      <path class="cls-1" d="M95.3,126.11H33.47V89.87a2.57,2.57,0,0,1,2.46-2.66H92.8a2.56,2.56,0,0,1,2.45,2.66c0,17.52,0,26.63,0,31.52C95.31,124.24,95.31,125.6,95.3,126.11Z" />
      <path class="cls-4" d="M95.53,89.87a2.84,2.84,0,0,0-2.73-2.94H35.93a2.85,2.85,0,0,0-2.74,2.94c0,34.41,0,36.53,0,36.53H95.53l0,0C95.64,126.43,95.53,123.09,95.53,89.87Zm-.51,36H37.9V87.49H92.8A2.28,2.28,0,0,1,95,89.87c0,17.52,0,26.63,0,31.52C95,123.82,95,125.18,95,125.83Z" />
      <path id="handvat" class="cls-5" d="M54.45,91.71H74a2.23,2.23,0,0,1,2.24,2.23h0A2.24,2.24,0,0,1,74,96.18H54.45a2.23,2.23,0,0,1-2.23-2.24h0A2.23,2.23,0,0,1,54.45,91.71Z" />
    </g>
    <g id="Clouds">
      <path class="cls-6" d="M55,24.24A5.27,5.27,0,0,0,50.35,19a5.55,5.55,0,0,0,.19-1.43,5.19,5.19,0,0,0-5-5.32,4.74,4.74,0,0,0-2,.42A7.83,7.83,0,0,0,29.41,13c-.24,0-.47,0-.72,0a8.78,8.78,0,0,0-8.77,8.78c0,4.22,3,6.63,7,6.65,3,.22,7-.17,11.88-.17,9.69,0,16.24,1.29,16.24-3.28,0-.13,0-.25,0-.38A1.37,1.37,0,0,0,55,24.24Z" />
      <path class="cls-7" d="M120.47,37.79a3.08,3.08,0,0,0-2.92-3.07,3.46,3.46,0,0,0,.12-.92,3,3,0,0,0-2.79-3.08,2.58,2.58,0,0,0-1.07.24,4.88,4.88,0,0,0-8.61.22h-.14a5.14,5.14,0,0,0-5.14,5.14A3.76,3.76,0,0,0,104,40.2c1.75.13,4.1-.09,6.95-.09,5.67,0,9.51.75,9.51-1.92,0-.07,0-.14,0-.21A1.11,1.11,0,0,0,120.47,37.79Z" />
      <path class="cls-8" d="M23.81,44.16a1.2,1.2,0,0,0,0-.2,3.28,3.28,0,0,0-3.1-3.26,3.81,3.81,0,0,0,.15-1,3.23,3.23,0,0,0-3.08-3.36,2.93,2.93,0,0,0-1.37.35A4.75,4.75,0,0,0,7.85,37l-.38,0A5.46,5.46,0,0,0,2,42.39C2,45,3.88,46.51,6.35,46.52c1.86.15,4.35-.1,7.39-.1,6,0,10.1.81,10.1-2A1.92,1.92,0,0,0,23.81,44.16Z" />
      <path class="cls-9" d="M127.33,24.24c0-2.68-3.11-4.89-7.13-5.22-.88-2.28-3.93-4-7.56-4a10.63,10.63,0,0,0-4.18.82,15,15,0,0,0-9.53-3.06,17,17,0,0,0-6.09,1.09,19.72,19.72,0,0,0-6.21-1c-7.49,0-13.56,3.93-13.56,8.78,0,4.23,4.66,6.64,10.8,6.65,3.3.16,7.43,0,12.26-.1a18.24,18.24,0,0,0,2.8.23,17.6,17.6,0,0,0,3.22-.3h.06c15,0,25.12,1.29,25.12-3.28a2.31,2.31,0,0,0,0-.37A1.53,1.53,0,0,0,127.33,24.24Z" />
      <path class="cls-10" d="M32.62,35.37h0a4.33,4.33,0,0,0-7.5-.46A2.54,2.54,0,0,0,24,34.64a3,3,0,0,0-2.8,3.08,3.49,3.49,0,0,0,.11.86,2.75,2.75,0,0,0-2.47,2.73,1,1,0,0,0,0,.17,1.1,1.1,0,0,0,0,.18c0,2.4,3.44,1.73,8.53,1.73,2.55,0,4.65.2,6.22.08A3.37,3.37,0,0,0,37.23,40,4.6,4.6,0,0,0,32.62,35.37Z" />
      <path class="cls-11" d="M41.15,65.37a2.76,2.76,0,0,0-2.47-2.74,3.43,3.43,0,0,0,.11-.86A2.94,2.94,0,0,0,36,58.7a2.54,2.54,0,0,0-1.13.26A4.26,4.26,0,0,0,31.24,57a4.2,4.2,0,0,0-3.88,2.41h0A4.6,4.6,0,0,0,22.72,64a3.38,3.38,0,0,0,3.68,3.49c1.57.12,3.67-.09,6.22-.09,5.09,0,8.53.68,8.53-1.72,0-.06,0-.12,0-.19A.78.78,0,0,0,41.15,65.37Z" />
    </g>
    <g id="Card">
      <path class="cls-1" d="M68.05,58.22A27.2,27.2,0,0,1,61.3,52.7a47.41,47.41,0,0,1-5-6.73A56.32,56.32,0,0,1,52,37.91l0-.09-.09,0A2.06,2.06,0,0,1,51.21,35L64.68,10.66a2.07,2.07,0,0,1,2.66-1,47.12,47.12,0,0,0,3.55,7.68,40.94,40.94,0,0,0,4.64,6.55,25.6,25.6,0,0,0,6.68,5.51,27.64,27.64,0,0,0,8.44,2.87,48.91,48.91,0,0,0,8.5.74,61.54,61.54,0,0,0,9.12-.66,2.07,2.07,0,0,1,.6,2.77L95.4,59.44c-.46.84-2.23.92-2.87.89h-.08a47.69,47.69,0,0,1-8.44,1,39.47,39.47,0,0,1-7.91-.47A25.1,25.1,0,0,1,68.05,58.22Z" />
      <path class="cls-12" d="M108.32,32.09s-15.79,2.75-26-2.9c-8.26-4.57-12.84-14.66-14.28-18.32l-.39-1-.12-.34a2.33,2.33,0,0,0-3.13,1L51,34.82a2.43,2.43,0,0,0,.19,2.69,2.85,2.85,0,0,0,.94,1.29c1.39,3.13,7,14.79,15.82,19.66,10.18,5.65,24.6,2.14,24.6,2.14s2.48.14,3.13-1l13.46-24.29A2.33,2.33,0,0,0,108.32,32.09Zm.31,2.93L95.16,59.31c-.36.65-1.92.78-2.61.74h-.09l-.08,0a47,47,0,0,1-8.39,1,39.61,39.61,0,0,1-7.85-.47,24.87,24.87,0,0,1-8-2.65,26.86,26.86,0,0,1-6.68-5.47,47.3,47.3,0,0,1-5-6.68,60.83,60.83,0,0,1-3.83-7.15L67.72,11.49a51.36,51.36,0,0,0,2.93,6,41.1,41.1,0,0,0,4.67,6.6,26,26,0,0,0,6.76,5.58,28.07,28.07,0,0,0,8.52,2.89,48.45,48.45,0,0,0,8.55.74,60.09,60.09,0,0,0,9-.64A1.81,1.81,0,0,1,108.63,35Z" />
      <path class="cls-12" d="M75.37,56.34h0c-4.86,0-8.27-4-8.41-4.2a.5.5,0,0,1,.77-.65s3.26,3.84,7.65,3.85h0c2.76,0,5.42-1.48,7.9-4.42a.52.52,0,0,1,.71-.06.51.51,0,0,1,.06.71C81.36,54.74,78.44,56.34,75.37,56.34Z" />
      <path class="cls-12" d="M70.28,46.91a1.93,1.93,0,0,1-1.59-.7c-1-1.17-.44-3.33-.38-3.57a.5.5,0,0,1,.61-.36.49.49,0,0,1,.36.6c-.13.53-.35,2,.19,2.7a1,1,0,0,0,.88.33.51.51,0,0,1,.51.48.5.5,0,0,1-.48.52Z" />
      <path class="cls-12" d="M77.35,50.8a1.92,1.92,0,0,1-1.48-.62c-1-1.11-.61-3.3-.56-3.54a.5.5,0,1,1,1,.19c-.1.53-.25,2.05.32,2.68a1,1,0,0,0,.9.29.5.5,0,0,1,.54.45.49.49,0,0,1-.45.54Z" />
      <path class="cls-13" d="M80.5,21.93a.28.28,0,0,1-.28-.28V6.54a.27.27,0,0,1,.28-.28.28.28,0,0,1,.28.28V21.65A.29.29,0,0,1,80.5,21.93Z" />
      <path class="cls-13" d="M85.53,24.17a.29.29,0,0,1-.28-.28v-9a.29.29,0,0,1,.28-.28.28.28,0,0,1,.28.28v9A.28.28,0,0,1,85.53,24.17Z" />
      <path class="cls-13" d="M88.89,29.77a.29.29,0,0,1-.28-.28V14.37a.29.29,0,0,1,.28-.28.28.28,0,0,1,.28.28V29.49A.28.28,0,0,1,88.89,29.77Z" />
      <path class="cls-13" d="M95.61,30.32a.27.27,0,0,1-.28-.27V23.89a.27.27,0,0,1,.28-.28.28.28,0,0,1,.28.28v6.16A.28.28,0,0,1,95.61,30.32Z" />
    </g>
  </g>
</svg>
