<svg xmlns="http://www.w3.org/2000/svg" viewBox="0 0 130 130">
  <defs>
    <style>
      .cls-1 {
        fill: #fff;
      }
      .cls-2 {
        fill: #0e8ece;
      }
      .cls-3 {
        fill: #d8348a;
      }
      .cls-4 {
        fill: #a4b2c6;
      }
    </style>
  </defs>
  <g id="Card2">
    <path
      class="cls-1"
      d="M96.36,57.34H52.92a2.25,2.25,0,0,0-2.3,2.19v25a2.25,2.25,0,0,0,2.3,2.19H96.36a2.25,2.25,0,0,0,2.3-2.19v-25A2.25,2.25,0,0,0,96.36,57.34Z"
    />
    <path
      class="cls-2"
      d="M96.35,56.84H52.92a2.75,2.75,0,0,0-2.8,2.69v25a2.75,2.75,0,0,0,2.8,2.69H96.35a2.76,2.76,0,0,0,2.81-2.69v-25A2.76,2.76,0,0,0,96.35,56.84Zm1.81,27.7a1.76,1.76,0,0,1-1.81,1.69H56.11V57.84H96.35a1.76,1.76,0,0,1,1.81,1.69Z"
    />
    <path
      class="cls-2"
      d="M86.28,77.5c-7.08,0-11.88-10.11-11.94-10.23a.5.5,0,0,1,.24-.66.5.5,0,0,1,.67.24C75.31,67,81.11,79.2,89,76a.5.5,0,1,1,.38.92A7.91,7.91,0,0,1,86.28,77.5Z"
    />
    <path
      class="cls-2"
      d="M82.41,69h0a.49.49,0,0,1-.47-.52,1,1,0,0,0-.29-.81,3.46,3.46,0,0,0-2.26-.54.5.5,0,0,1-.09-1,4.4,4.4,0,0,1,3,.82,2,2,0,0,1,.59,1.58A.5.5,0,0,1,82.41,69Z"
    />
    <path
      class="cls-2"
      d="M90.91,70h0a.5.5,0,0,1-.48-.52.94.94,0,0,0-.29-.81,3.42,3.42,0,0,0-2.25-.54.5.5,0,0,1-.09-1,4.4,4.4,0,0,1,3,.82,2,2,0,0,1,.59,1.58A.5.5,0,0,1,90.91,70Z"
    />
  </g>
  <g id="Card1">
    <path
      class="cls-1"
      d="M69.87,73.24H31.66v28.93H69.87A2.18,2.18,0,0,0,72.06,100V75.4A2.17,2.17,0,0,0,69.87,73.24Z"
    />
    <path
      class="cls-3"
      d="M69.87,72.74H28.63a2.68,2.68,0,0,0-2.69,2.66V100a2.68,2.68,0,0,0,2.69,2.66H69.87A2.68,2.68,0,0,0,72.56,100V75.4A2.68,2.68,0,0,0,69.87,72.74ZM71.56,100a1.68,1.68,0,0,1-1.69,1.66H31.66V73.74H69.87a1.68,1.68,0,0,1,1.69,1.66Z"
    />
    <ellipse class="cls-3" cx="43.7" cy="84.59" rx="1.06" ry="2.04" />
    <ellipse class="cls-3" cx="46.57" cy="86.63" rx="1" ry="1.8" />
    <path
      class="cls-3"
      d="M46.12,93.35a6.39,6.39,0,0,1-2.75-.58c-3.43-1.62-4-5.94-4.06-6.12a.51.51,0,0,1,.43-.56.49.49,0,0,1,.56.43s.56,4,3.5,5.35c2.33,1.09,5.53.36,9.53-2.16a.5.5,0,0,1,.54.84C50.91,92.42,48.31,93.35,46.12,93.35Z"
    />
  </g>
  <path
    class="cls-4"
    d="M8.91,81.54h1.72v.58H8.91v1.79H8.33V82.12H6.62v-.58H8.33V79.73h.58Z"
  />
  <path
    class="cls-4"
    d="M70.85,43.38h1.72V44H70.85v1.8h-.58V44H68.56v-.58h1.71v-1.8h.58Z"
  />
  <path
    class="cls-4"
    d="M22.15,42.53H23v.29h-.87v.91h-.29v-.91H21v-.29h.87v-.91h.29Z"
  />
  <path
    class="cls-4"
    d="M3.32,54.92h.87v.29H3.32v.91H3v-.91H2.16v-.29H3V54h.29Z"
  />
  <path
    class="cls-4"
    d="M79.14,34.11H80v.29h-.86v.91h-.3V34.4H78v-.29h.86V33.2h.3Z"
  />
  <path class="cls-4" d="M45.3,48.69h3v1h-3v3.09h-1V49.69h-3v-1h3V45.58h1Z" />
  <path class="cls-4" d="M124.58,71.48h3v1h-3v3.1h-1v-3.1h-3v-1h3V68.37h1Z" />
  <path
    class="cls-4"
    d="M89.17,43.39A2.23,2.23,0,0,1,88.74,39a2.2,2.2,0,0,1,1.67.34,2.23,2.23,0,0,1-1.24,4.08Zm0-4a1.73,1.73,0,1,0,1,.29A1.69,1.69,0,0,0,89.17,39.43Z"
  />
  <path
    class="cls-4"
    d="M122.23,53.33a2,2,0,0,1-1.93-1.59,1.94,1.94,0,0,1,.29-1.48,2,2,0,0,1,2.74-.55h0a2,2,0,0,1,.54,2.73,1.94,1.94,0,0,1-1.26.84A2.58,2.58,0,0,1,122.23,53.33Zm0-2.95a1,1,0,0,0-.81.43,1,1,0,0,0-.14.73.92.92,0,0,0,.41.62,1,1,0,0,0,1.35-.27,1,1,0,0,0-.27-1.34h0A1,1,0,0,0,122.23,50.38Z"
  />
  <path
    class="cls-4"
    d="M63.9,36a1.78,1.78,0,0,1-1.73-1.42A1.76,1.76,0,1,1,64.24,36,1.32,1.32,0,0,1,63.9,36Zm0-2.53-.15,0a.76.76,0,1,0,.57.11A.8.8,0,0,0,63.9,33.46Z"
  />
  <path
    class="cls-4"
    d="M17.81,98.92a1.76,1.76,0,0,1-1.46-2.74,1.75,1.75,0,0,1,1.12-.75,1.71,1.71,0,0,1,1.32.26,1.76,1.76,0,0,1-.63,3.19A1.39,1.39,0,0,1,17.81,98.92Zm0-2.53-.15,0a.75.75,0,0,0-.49.32.76.76,0,0,0-.11.57.75.75,0,0,0,.32.49.76.76,0,0,0,.57.11.78.78,0,0,0,.49-.32.76.76,0,0,0,.11-.57.78.78,0,0,0-.32-.49A.8.8,0,0,0,17.82,96.39Z"
  />
  <circle class="cls-4" cx="100.32" cy="95.42" r="1.98" />
  <path
    class="cls-4"
    d="M28.22,62a2.48,2.48,0,0,1-2.06-3.86,2.49,2.49,0,0,1,1.58-1.06,2.45,2.45,0,0,1,1.86.37h0a2.49,2.49,0,0,1,.68,3.45,2.45,2.45,0,0,1-1.58,1A2.61,2.61,0,0,1,28.22,62Zm0-4-.29,0a1.48,1.48,0,1,0,1.52,2.28A1.48,1.48,0,0,0,29,58.26h0A1.49,1.49,0,0,0,28.22,58Z"
  />
</svg>
