<svg xmlns="http://www.w3.org/2000/svg" viewBox="0 0 150 38.51"><defs><style>.a{fill:#1d1d1b;}.b{fill:#e54133;}</style></defs><title>allesimgriffupdate</title><path class="a" d="M35,26.34A1.07,1.07,0,0,1,34.2,26L10.61,2.87,2.83,18.14h4.4a1.08,1.08,0,1,1,0,2.15H1.08a1.08,1.08,0,0,1-1-1.57L9.36,0.59A1.08,1.08,0,0,1,11.07.31L35.72,24.5A1.08,1.08,0,0,1,35,26.34Z" transform="translate(0 0)"/><path class="a" d="M44.2,20.29H35A1.07,1.07,0,0,1,34.2,20L15.73,1.85A1.08,1.08,0,0,1,17.23.31L35.4,18.14h8.8A1.08,1.08,0,0,1,44.2,20.29Z" transform="translate(0 0)"/><path class="a" d="M35,14.25a1.07,1.07,0,0,1-.75-0.31L21.89,1.85A1.08,1.08,0,0,1,23.39.31l12,11.78H38a1.08,1.08,0,0,1,0,2.15H35Z" transform="translate(0 0)"/><path class="a" d="M41.12,8.2H35A1.08,1.08,0,0,1,35,6h6.16A1.08,1.08,0,0,1,41.12,8.2Z" transform="translate(0 0)"/><path class="a" d="M56.52,20.29H47.28a1.08,1.08,0,1,1,0-2.15h8.16V14.25H44.2a1.08,1.08,0,0,1-1.08-1.08v-6A1.08,1.08,0,0,1,44.2,6H56.52a1.08,1.08,0,1,1,0,2.15H45.28v3.89H56.52a1.08,1.08,0,0,1,1.08,1.08v6A1.08,1.08,0,0,1,56.52,20.29Z" transform="translate(0 0)"/><path class="a" d="M65.76,20.29a1.08,1.08,0,0,1-1.08-1.08V4.1a1.08,1.08,0,0,1,2.15,0V19.22A1.08,1.08,0,0,1,65.76,20.29Z" transform="translate(0 0)"/><path class="a" d="M65.76,2.16a1.08,1.08,0,0,1-1-.67,1,1,0,0,1-.08-0.41A1.11,1.11,0,0,1,65,.32,1,1,0,0,1,65.16.18a0.6,0.6,0,0,1,.19-0.1L65.55,0A1.09,1.09,0,0,1,66,0l0.2,0.06a0.64,0.64,0,0,1,.18.1,0.8,0.8,0,0,1,.17.13,1,1,0,0,1,.13.17,0.93,0.93,0,0,1,.1.18,1,1,0,0,1,.06.2,1.07,1.07,0,0,1,0,.21,1,1,0,0,1-.08.41,1,1,0,0,1-.23.35A1,1,0,0,1,65.76,2.16Z" transform="translate(0 0)"/><path class="a" d="M108.88,20.29H90.4a1.08,1.08,0,0,1-1.08-1.08V1.08A1.08,1.08,0,0,1,91.15.31l5.28,5.18A1.08,1.08,0,1,1,94.92,7L91.48,3.64v14.5h14.77l-7.36-7.23a1.08,1.08,0,1,1,1.51-1.54l9.24,9.07A1.08,1.08,0,0,1,108.88,20.29Z" transform="translate(0 0)"/><path class="a" d="M81.16,20.29a1.08,1.08,0,0,1-1-.59l-4.12-8.1v7.61a1.08,1.08,0,0,1-2,.49l-4.12-8.1v7.61a1.08,1.08,0,0,1-2.15,0V7.12a1.08,1.08,0,0,1,2-.49l4.12,8.1V7.12a1.08,1.08,0,0,1,2-.49l6.16,12.09a1.08,1.08,0,0,1-.47,1.45A1.06,1.06,0,0,1,81.16,20.29Z" transform="translate(0 0)"/><path class="a" d="M115,20.29a1.08,1.08,0,0,1-.76-0.32l-6-6a1.08,1.08,0,0,1,.28-1.73l8.08-4H105.35l1.2,1.18A1.08,1.08,0,0,1,105,10.92l-3.08-3A1.08,1.08,0,0,1,102.72,6H121.2a1.08,1.08,0,0,1,.48,2l-10.85,5.38,5,5A1.08,1.08,0,0,1,115,20.29Z" transform="translate(0 0)"/><path class="a" d="M121.2,20.29a1.08,1.08,0,0,1-1.08-1.08v-6a1.08,1.08,0,0,1,2.15,0v6A1.08,1.08,0,0,1,121.2,20.29Z" transform="translate(0 0)"/><path class="a" d="M124.28,20.29a1.08,1.08,0,0,1-1.08-1.08V7.12A1.08,1.08,0,0,1,124.28,6h24.64a1.08,1.08,0,0,1,0,2.15H125.36v11A1.08,1.08,0,0,1,124.28,20.29Z" transform="translate(0 0)"/><path class="a" d="M133.52,15.46h-3.08a1.08,1.08,0,0,1,0-2.15h3.08A1.08,1.08,0,0,1,133.52,15.46Z" transform="translate(0 0)"/><path class="a" d="M121.21,11.22a1.07,1.07,0,0,1-.42-0.08,1.13,1.13,0,0,1-.35-0.23,1.07,1.07,0,0,1-.31-0.76,1.11,1.11,0,0,1,.31-0.77,1.08,1.08,0,0,1,1.84.77,1.07,1.07,0,0,1-.31.76,1.12,1.12,0,0,1-.35.23A1,1,0,0,1,121.21,11.22Z" transform="translate(0 0)"/><path class="a" d="M127.36,20.29a1.08,1.08,0,0,1-1.08-1.08V10.15a1.08,1.08,0,0,1,1.08-1.08h12.32a1.08,1.08,0,0,1,0,2.15H128.44v8A1.08,1.08,0,0,1,127.36,20.29Z" transform="translate(0 0)"/><path class="b" d="M107.58,30.86a0.27,0.27,0,0,1,.32.28V35a3.06,3.06,0,0,0,.21,1.54,1.28,1.28,0,0,0,1.11.57h0c0.85,0,1.28-.57,1.28-1.72V34.3a0.31,0.31,0,0,1,.27,0,0.26,0.26,0,0,0-.27-0.17V34H111a3.2,3.2,0,0,1,.66-0.08h0.07v1.42q0,2.92-2.41,2.92h-0.15a2.18,2.18,0,0,1-2.28-1.42,4.23,4.23,0,0,1-.21-1.36V31.17a0.27,0.27,0,0,1,.31-0.3h0.58Zm-0.74.4v0h0.06s0,0,0,0h0Zm0.74,5.36a0,0,0,0,0,0,0h-0.07s0,0,0,0h0.07Zm0.1-5.41v0.1h0.15a0.12,0.12,0,0,0-.12-0.15Zm3.07-.33v0.06H111l0.24,0a0.14,0.14,0,0,0,.15.06,0.86,0.86,0,0,0,.21,0,0.11,0.11,0,0,0,.1.12l0.07,0v0.19a0.65,0.65,0,0,0-.26,0,0.19,0.19,0,0,0,.16.17l0.07,0,0,0v2.37l0,0c-0.67.08-1.05,0.12-1.16,0.12V31.24a0.36,0.36,0,0,1,.15-0.35h0.08Zm0.08,0.28h0.1a0,0,0,0,0,0,0v0h-0.1a0.05,0.05,0,0,0,0,0v0ZM111,31.29l0,0c0.24,0,.35-0.06.35-0.12l0.1,0V31.12a0,0,0,0,0,0,0,0,0,0,0,0,0,0,1.23,1.23,0,0,0-.3,0A0.69,0.69,0,0,0,111,31.29Zm0.29,2.87a0,0,0,0,0,0,0h-0.07a0.05,0.05,0,0,0,0,0h0.07Z" transform="translate(0 0)"/><path class="b" d="M109.73,35h0l0,0.11a0,0,0,0,1,0,0V35Zm0.15,0.16h0v0h0v0Zm0,0h0v0h0v0Zm0,0s0,0,0,.07v0h0Zm0,0.15h0v0h0v0Zm0-.33h0v0h0v0Zm2.51-2.59h0v0h0v0Zm0.38,0.45L113.21,33h0V32.84h0v0h0l-0.06,0s-0.06,0-.07-0.12l0,0h0.09l0,0a0.46,0.46,0,0,1,.12.23,0.27,0.27,0,0,1-.07.15v0h0a0.27,0.27,0,0,1-.07.24l0,0v0l0.07,0.08-0.07,0a0.42,0.42,0,0,1-.16-0.16h0.07v0H113a0,0,0,0,0-.05,0H113v0H112.9a0.34,0.34,0,0,1,.12.11l0.12,0.1v0h0l0,0v0a0,0,0,0,1,0,0H113a0.62,0.62,0,0,0-.35-0.12h0v0a0.61,0.61,0,0,1,.33.17,0.11,0.11,0,0,1,.1,0,3.24,3.24,0,0,1-.42.57,0.34,0.34,0,0,1-.14.21V34.39a1,1,0,0,1,.21-0.52v0a0.45,0.45,0,0,0-.19.21h0V33.48h0.07v0h-0.07V32.77a0.67,0.67,0,0,1,.33.21l0.1,0a0.16,0.16,0,0,0-.15-0.08v0a0.27,0.27,0,0,0,.12,0v0a0.29,0.29,0,0,1-.07-0.17h0ZM113.21,34l0.12,0v0h-0.12l-0.14,0-0.07,0v0l0.1,0a0.51,0.51,0,0,1,.29.1h0v0.12s0,0,0,0a0.51,0.51,0,0,0,0,.07s0,0,0,0a1.28,1.28,0,0,1-.15.32v0h0a0.15,0.15,0,0,1,.1-0.12v0l0,0h0l0.12,0L113.69,35a0.09,0.09,0,0,1,0,.07,1.64,1.64,0,0,0,0,.36v0c0,0.08,0,.22,0,0.4h0v0.38a1.22,1.22,0,0,0,0,.22l0,0a0.13,0.13,0,0,1,0,.06v0.34a0.22,0.22,0,0,1,0,.07v0l0.06,0.75a0.06,0.06,0,0,0-.06,0l0.06,0.06a0.46,0.46,0,0,1-.41.28,0.18,0.18,0,0,1-.07.07,0.35,0.35,0,0,0-.18,0h-0.15a0.86,0.86,0,0,0-.26.07,0.31,0.31,0,0,1-.12-0.21V35.48a1.52,1.52,0,0,1,.26.45h0a6.45,6.45,0,0,1-.31-1.14,0.9,0.9,0,0,1,.29-0.47A1,1,0,0,1,113,34h0.21Zm-0.36-3.12a1.88,1.88,0,0,1,.33.68c0.07,0,.14.12,0.17,0.38,0,0,0,0,0,0v0a0,0,0,0,1,0,0,1,1,0,0,0,.1.22v0h-0.1a0.23,0.23,0,0,1-.07-0.17,0.35,0.35,0,0,1-.1-0.28,0.45,0.45,0,0,0-.16-0.19,0.2,0.2,0,0,0-.15-0.19,0.42,0.42,0,0,0-.15-0.33,0.13,0.13,0,0,1-.11-0.12h0a0.38,0.38,0,0,1,.21-0.11h0Zm-0.21,1.6a0.13,0.13,0,0,0,.09,0v0h-0.06l0,0v0Zm0-.23h0a0,0,0,0,1,0,0l0,0a0,0,0,0,1,0,0v0Zm0.07,0.12h0.12a0.85,0.85,0,0,1,.22.21v0a0,0,0,0,1,0,0,0.47,0.47,0,0,0-.3-0.28v0h0Zm0,0.21a0.05,0.05,0,0,1,0,0h0v0Zm0,0.19a0,0,0,0,1,.05,0h0a0,0,0,0,1,0,0h0ZM113,32.94s0,0,.05,0h0s0,0,0,0h0Zm0.15,1a0,0,0,0,1,0,0h0v0s0,0,0,0S113.13,34,113.17,34Zm0.11-.16a0.27,0.27,0,0,0,.07.15h-0.1a0.13,0.13,0,0,1-.07-0.15h0.1Zm0.07-1.45h0.07v0h-0.07v0Zm0,1.73h0.07v0h-0.07v0Zm0-3.06h0v0h0v0Zm0.1,1.39a2.82,2.82,0,0,0,.15.45l0,0.21v0h0a0.31,0.31,0,0,0-.17-0.21,0,0,0,0,1,0,0v0a0.21,0.21,0,0,1,0-.1,0.55,0.55,0,0,1-.05-0.27v0a0.2,0.2,0,0,0,.07-0.11h0Zm0.1,1.13h-0.05a0.13,0.13,0,0,1-.07-0.1s0,0,0,0A0.13,0.13,0,0,1,113.6,33.55Zm0.09-2.62h0s0,0.11,0,.19l0,0.12,0,0.15h0a1.24,1.24,0,0,1-.14-0.47h0.14Zm0.15,0h0.25a1.71,1.71,0,0,0-.15.56h0a0.37,0.37,0,0,1-.07-0.3l0,0,0-.15V30.92h0Zm0.76,1.35v0a0.15,0.15,0,0,1-.12.18v0a0,0,0,0,0,0,0l-0.25.45h0a0.05,0.05,0,0,1,.05,0h0a0.28,0.28,0,0,1-.14.19V33.07a0.9,0.9,0,0,1-.15.17h0v0l0-.1s0,0,0-.07h0v0h0a0.65,0.65,0,0,1,0-.21l0,0h0v0a0.74,0.74,0,0,0,.3-0.36s0.06,0,.06-0.08h0.05l0,0.16v0a1.56,1.56,0,0,0,.27-0.35h0Zm-0.51.35v0a0.19,0.19,0,0,0-.15.12h0a0.42,0.42,0,0,0,.07-0.17h0.1Zm0.05-.1H114v0l0.1,0v0.05Zm-0.1.36a0,0,0,0,0,.05,0v0a0,0,0,0,0-.05,0v0Zm2.66-.6h0.38a2.63,2.63,0,0,1,.15.8,2.57,2.57,0,0,1-.1.67h-0.38a0.74,0.74,0,0,0-.47.17h0.81a0.34,0.34,0,0,1-.3.16,0.27,0.27,0,0,0,.17.1,2.41,2.41,0,0,1-2.39,1.14h-0.41a0.31,0.31,0,0,0-.05-0.12,0.44,0.44,0,0,1,0-.07l0-.1,0-.08,0-.17,0.1-.27v0l-0.1-.13v0c0.09,0,.14,0,0.14-0.07h-0.09a1.09,1.09,0,0,1,.26-0.19h0l-0.17,0v0a0.91,0.91,0,0,0,.2-0.16h-0.07l-0.07,0h0a0.48,0.48,0,0,1,.15-0.11l-0.07-.15a1.74,1.74,0,0,1,.48-0.24v0h-0.07l-0.09,0a0.2,0.2,0,0,1,.16-0.11v0a2.79,2.79,0,0,1-.58.26,0.25,0.25,0,0,0,.1-0.13h0.07a0.56,0.56,0,0,1,.3-0.11s0,0-.15,0a3.26,3.26,0,0,1,1-.6,0.56,0.56,0,0,1,.41-0.12l0,0,0.76-.18V32.3h0Zm-0.2-.81a1.91,1.91,0,0,1,.51.67h0l-0.12,0a3,3,0,0,0-1.42.52l-0.07,0a1.05,1.05,0,0,0-.29.24l-0.53.33s0,0.07-.15.07a0,0,0,0,0,0,0,0.59,0.59,0,0,0-.21.19h0v0a2,2,0,0,1,.94-0.84,0.46,0.46,0,0,1,.36-0.18v0a0,0,0,0,1-.05,0,1.9,1.9,0,0,0,.41-0.17,1.32,1.32,0,0,0,.42-0.22v0h-0.05l-0.12,0,0-.07h0a0.82,0.82,0,0,0-.15.13v0l0,0a0,0,0,0,1,0,0l-0.1,0v0a0.85,0.85,0,0,0-.24.11l-0.07,0v0a1,1,0,0,1,.27-0.11v0l0,0a1,1,0,0,1,.38-0.07h0.36a0,0,0,0,0,0,0v0s0,0-.15,0v0a0,0,0,0,0,0,0h0.07Zm-2.23,1.17-0.06.15h0a0.29,0.29,0,0,1,0-.15h0Zm0-.3h0.1a0.1,0.1,0,0,1-.07.07l0,0v0h0ZM115.31,31v0a2,2,0,0,0-.31.34l0,0a1.26,1.26,0,0,1-.31.5c0,0.21-.11.3-0.22,0.3l0,0a0.21,0.21,0,0,1-.15.15V32.2l0.1,0v0h-0.05a2.37,2.37,0,0,0,.12-0.28h0l0.2-.39h-0.05s0-.1.1-0.25h0A0.36,0.36,0,0,1,115,31h0.36Zm-1,.46h0Zm0.1,1.6a0.1,0.1,0,0,1-.07.07v0A0.1,0.1,0,0,1,114.4,33v0Zm-0.05-1.82h0v0h0v0Zm0.15,1.49a0.29,0.29,0,0,1-.15.19v0a0.25,0.25,0,0,1,.12-0.17h0Zm-0.12-.4h0.05v0h-0.05v0Zm0.07,1.07a0,0,0,0,1,0,0h0a0.05,0.05,0,0,1,.05,0h0Zm0.07-2.44h0.12a0.3,0.3,0,0,1-.15.23h0l0.07-.12Zm0,1.94a0,0,0,0,1,0,0h0a0,0,0,0,1,0,0h0Zm1.14-1.81,0.16,0,0,0a0.47,0.47,0,0,1,.37.15,0.46,0.46,0,0,0-.3.15l0,0a0.32,0.32,0,0,0-.11.06l-0.12,0v0.06h0.07l0,0,0,0a1.85,1.85,0,0,0-.32.19,0.89,0.89,0,0,0-.43.4l0,0a0,0,0,0,0-.05,0v0a0.52,0.52,0,0,1,0,.07,0.14,0.14,0,0,0-.09.12h0l-0.05-.15,0.16-.17h0a3.13,3.13,0,0,1,.43-0.57,0.85,0.85,0,0,0,.36-0.33Zm-0.22,1a0.44,0.44,0,0,0,0,.07,0.13,0.13,0,0,0-.1.07,0,0,0,0,1,0,0,0.27,0.27,0,0,0-.15.07h0a0.6,0.6,0,0,1,.2-0.24h0Zm-0.1.6h0v0h0v0ZM115.54,35a1,1,0,0,0,.31,0,0.23,0.23,0,0,1,0-.15,0.49,0.49,0,0,0-.21-0.07,0.25,0.25,0,0,0-.25.23Zm0.12-2.27,0,0v0h0a0,0,0,0,0,0,0Zm0-.95h0v0h0v0ZM115.77,32s0,0,0,0h0a0.11,0.11,0,0,1,.06-0.07v0Zm0.47,2.09v0h0s0,0,0,0h-0.06Zm0.43-1.47a0.18,0.18,0,0,0,.14-0.1,0.48,0.48,0,0,1,0-.06h0a0.17,0.17,0,0,0-.12.16h0Z" transform="translate(0 0)"/><path class="b" d="M117.93,31.21a0,0,0,0,1,.05,0v0a0,0,0,0,1-.05,0v0Zm0.17,0.92v0c-0.06,0-.1,0-0.1,0h-0.07V32a0,0,0,0,1,.05,0l0,0.1h0v0a0.29,0.29,0,0,1,0-.16A0.38,0.38,0,0,1,118.1,32.14Zm-0.17.12H118v0h-0.07v0Zm0,0.47H118v0h-0.05v0Zm0.31,0.62a0.84,0.84,0,0,1,.05.28v0.47a0.23,0.23,0,0,0,0,.1,0,0,0,0,1,0,0l0,0.12v0c0,0.06,0,.15,0,0.26a0,0,0,0,0,0,0l0,0.12v3.34h-0.05l-0.24,0a0.73,0.73,0,0,1-.07-0.3V34.3c0-.35.05-0.55,0.05-0.57h0V34h0V33.88h0v0.07h0a1.85,1.85,0,0,1,0-.19l0-.17V33.51h0a2.84,2.84,0,0,0,0,.34h0v-0.1a0.51,0.51,0,0,1,0-.07l0,0V33.8h0v0l0,0v0a0.61,0.61,0,0,0-.1-0.33,0.52,0.52,0,0,0,0-.07h0ZM118,32.81h0v0h0v0Zm0-.57h0.07v0H118v0Zm0,1.27h0v0.19h0V33.51Zm0.05-.18s0,0,0,.07v0h0Zm0.07-2.16a0.56,0.56,0,0,1,.06.19,0.31,0.31,0,0,1-.11-0.17Zm-0.05.76s0.05,0,.05,0V32h0Zm0,1.33h0v0h0v0Zm0-.1h0v0h0v0Zm0.16-1.82v0h0a0.69,0.69,0,0,0-.12-0.27,0.13,0.13,0,0,1,.07-0.1A1,1,0,0,1,118.29,31.34ZM118.19,33l0,0a0.29,0.29,0,0,0,0,.1h0V33Zm0,0h0v0h0v0Zm0,0.13h0a0.44,0.44,0,0,0,0,.07l-0.05,0v-0.1Zm0,0.12h0a0,0,0,0,1,0,0v0Zm0-2.24h0.07l0,0.12v0.12a0,0,0,0,1,0,0Zm2.46,0.12a0.39,0.39,0,0,1,.17.29h0v0a0.57,0.57,0,0,1,0-.07s0,0,0,.07h0v0h0a0.14,0.14,0,0,0,0,.1l0,0.08v0.07h0l0.05-.28h0v0.1h0v0l0-.12v0h0c0,0.11,0,.17.06,0.17a1.75,1.75,0,0,1,0-.22,0.4,0.4,0,0,1,.11.29h0V31.31a0,0,0,0,1,0,0v0.11h0.05V31.31h0v0h0v0a0,0,0,0,1,0,0v0h0a2.08,2.08,0,0,1,0,.25h0a0.32,0.32,0,0,1,0-.16,0.29,0.29,0,0,1,0-.1v0l0.07,0v0l0-.1h0a0.73,0.73,0,0,1,.1.45h0l0-.33s0.05,0,.05.07h0v0l-0.05-.1h0l0.1,0.1V31.21c0.06,0,.1.11,0.1,0.33h0V31.31h0v0.28h0.05V31.38a0,0,0,0,1,0,0,0.26,0.26,0,0,1,.11.07c0,0.22,0,.33.07,0.33V31.61h0a1,1,0,0,0,0,.17h0V31.59l0-.12h0s0,0.06,0,.17h0V31.56h0s0,0.06,0,.15h0v0l0-.12h0l0.12,0.15,0,0v0a3.16,3.16,0,0,1,1,1.09,3.08,3.08,0,0,1,.43,1,3.83,3.83,0,0,1,.07.64v0.42a3.58,3.58,0,0,1-1.21,2.59,4,4,0,0,1-2.66.83h-1.62c0-.08,0-0.39,0-0.92,0-.85-0.05-1.33-0.06-1.42s0-.34,0-0.5c0-.38,0-0.92,0-1.62,0-.26,0-0.44,0-0.55h0V33.3h0v0c0-.12,0-0.18,0-0.19h0l0,0.1,0,0a0,0,0,0,0,0,0V33h0v0h0l0-.1a0.34,0.34,0,0,0,.2.07,0.13,0.13,0,0,0,.1-0.07V32.93a0,0,0,0,0,0,0h-0.22a0.13,0.13,0,0,1-.1.11l0,0v0l0,0v0l0,0a0,0,0,0,0,0,0,0.69,0.69,0,0,1-.12-0.27v0h0v0a0.14,0.14,0,0,0,.07-0.12h0.05l0,0,0-.12h0v0h0v0h0v0a0.79,0.79,0,0,0-.05.16,0.22,0.22,0,0,0,.1-0.16h0v0.07a0.77,0.77,0,0,0,.21-0.32h0v0a0.59,0.59,0,0,1-.07.24,0.47,0.47,0,0,1,0,.07l0,0.08v0h0a0.23,0.23,0,0,1,.1-0.18v0.07l0,0h0a0,0,0,0,1,0,0l0,0.1v0.12h0V32.51h0v0.1h0l0-.1h0v0.07a0.22,0.22,0,0,1,0,.1c0,0.1,0,.15.07,0.15a0.52,0.52,0,0,0,0,.07v0h0a2,2,0,0,0,.07-0.41h0v0.24a0.28,0.28,0,0,0,.05.15,0,0,0,0,0-.05,0,0.14,0.14,0,0,0,.16.16s0,0.06,0,.15a0.23,0.23,0,0,0,0,.1c0.09,0,.12-0.11.12-0.29h0v0.17a3.19,3.19,0,0,1-.05.47l0.1,0a0,0,0,0,0,0,0l0,0V33.16l0-.12a0,0,0,0,0,0,0s-0.06-.07-0.07-0.23a0.69,0.69,0,0,1,.17-0.52,2.1,2.1,0,0,1-.12.38l0.05,0a0.23,0.23,0,0,0,0-.1h0v0.1a0,0,0,0,0,0,0h0a0.73,0.73,0,0,0,.07-0.22l0,0a0.86,0.86,0,0,0,0-.16l0.05,0v-0.1h0a0.15,0.15,0,0,1,0,.12,0.31,0.31,0,0,0-.05.18,0.33,0.33,0,0,0,.1-0.1l0,0a0.52,0.52,0,0,0,0-.07h0a0.28,0.28,0,0,0,0,.26,0.45,0.45,0,0,0,0-.21h0c0,0.13,0,.21.05,0.21h0l0-.12h0v0l0,0.17v0.07h0a0.49,0.49,0,0,1,0-.19h0v0.07l0,0h0a0.23,0.23,0,0,0,0-.1s0,0,0,.15h0v-0.1l0-.12v0h0a2.37,2.37,0,0,1,.1.34h0a1.34,1.34,0,0,1,.1-0.39h0v0l-0.05.34V32.9h0V32.76l0,0V32.71h0a4,4,0,0,1,0,.4h0c0.06-.3.1-0.46,0.1-0.47h0l0,0.4v0h0l0.05-.33h0v0.35a0.05,0.05,0,0,0,.05,0,0.2,0.2,0,0,1,0-.15l0,0V32.71h0l0,0.57h0a2,2,0,0,0,0-.27h0v0.27h0V33h0a1.59,1.59,0,0,1,.05.28h0V33.16l-0.07-.55v0h0a5,5,0,0,1,.15.62h0v0l-0.1-.43v0h0l0.18,0.67h0v0l0-.1v0h0a0.61,0.61,0,0,1,.05.19l0,0v0s0,0,0-.07a1.63,1.63,0,0,0,0-.36v0h0s0,0.21.15,0.55l0,0,0,0.24,0.05,0c0,0.1,0,.15,0,0.15s0-.18,0-0.32h0c0,0.13,0,.24,0,0.32h0V33.58h0l0,0.12h0s0-.07.05-0.07v0l0,0a0.1,0.1,0,0,0,.07.1v0l0,0a0,0,0,0,1,0,0,0,0,0,0,0,0,0v0a1.78,1.78,0,0,1-.17-0.24h0l-0.25-.33h0c-0.12-.26-0.18-0.39-0.18-0.4a1.33,1.33,0,0,0-.58-0.33v0l0,0a0.27,0.27,0,0,1-.12-0.1h0.05v0a5.1,5.1,0,0,0-.56-0.17v0A5.63,5.63,0,0,0,120,31.9l-0.07-.1,0-.62h0v0.07a3.77,3.77,0,0,1-.05.5v0h0a1.62,1.62,0,0,0,.07-0.42h0v0.13c0,0.08,0,.13,0,0.15v0h0V31.59h0v0.17h0l0-.17,0,0,0-.17h0v0.1l0,0a0.9,0.9,0,0,0,0,.17h0l0-.17V31.33h0c0,0.18,0,.28.07,0.28v0a0.11,0.11,0,0,0,.07-0.07h-0.07v-0.1h0v0.07h0V31.41l0.1,0.13a0,0,0,0,1,0,0,0,0,0,0,0,0,0s0-.07,0-0.07v0h0V31.36h0l0,0.16h0V31.45c0-.19,0-0.32,0-0.35h0Zm-2.14.74h0v0h0v0ZM118.69,33s0,0,0,0l0,0a0.19,0.19,0,0,0,0-.06h0Zm0-.27s0,0,0,0v0a0,0,0,0,1,0,0v0Zm0,0.17h0v0h0v0ZM118.77,31h0v0h0v0Zm0.12,6.65H119a0,0,0,0,0,0,0v0h-0.12a0.05,0.05,0,0,0,0,0Zm0-5.38h0v0h0v0Zm0,5.7a0.14,0.14,0,0,0,.12-0.07H119a0,0,0,0,0,0,0v0h0ZM119,31.81h0a0,0,0,0,1,0,0v0Zm0,0.3h0v0.1h0v-0.1Zm0-.17h0v0.17h0V31.94Zm0.14-.11h0v0.07h0V31.83Zm0,0.1h0V32h0V31.93Zm0-.07h0v0.07h0V31.86Zm0-.22h0v0h0v0Zm0,0a0,0,0,0,1,.05,0h-0.05v0Zm0,0.57h0v0.07h0V32.26Zm0.07,0.8,0,0v0h0a0,0,0,0,0,.05,0Zm0.05-1.33,0,0h0v0.1h-0.05l0,0a0,0,0,0,1,0,0v0a0.52,0.52,0,0,0,0-.07A0,0,0,0,1,119.4,31.74Zm0,0.57v0.12a0.22,0.22,0,0,0,0,.06h0v0a0.87,0.87,0,0,0,0-.16h0Zm0-.69a0.05,0.05,0,0,1,0,0v0a0,0,0,0,1,0,0v0Zm0.05-.25a0.1,0.1,0,0,1,.07.07h0a0.1,0.1,0,0,1-.07-0.07h0Zm0,0.21h0.07v0h-0.07v0Zm0.12,0.07a0.12,0.12,0,0,0,0,.1v0.07h0v0h-0.2a0.57,0.57,0,0,0,.07-0.22h0Zm0,0.27h0.14l0.25,0h0a1.57,1.57,0,0,1-.31.12l-0.07-.12v0h0Zm0,0.52h0v0.18h0V32.43Zm0,0.25h0v0.07h0V32.68Zm0,0s0,0,0,0v0.1h0V32.73ZM119.71,31a0.13,0.13,0,0,1,.1.07h0a0.13,0.13,0,0,1-.1-0.07h0Zm0,0.72h0v0l0,0v0l0,0v0h0l0-.12h0l0,0.12v0h0v0h-0.05l0,0-0.17,0V31.74l0,0V31.69h0Zm0,0.38h0v0h0v0ZM120,32l-0.17.19v0h0a0.1,0.1,0,0,1,.07-0.1h0l-0.05.1h0a0,0,0,0,1,0,0,0.57,0.57,0,0,1,0,.07,1.51,1.51,0,0,1-.07.28,1,1,0,0,1-.22-0.43l0,0a0,0,0,0,1,0,0L120,32v0h0Zm-0.2-.4v0.07h0a0.44,0.44,0,0,0,0-.07h0Zm0-.38h0v0.07h0V31.24Zm0,0.17h0v0.08h0V31.41Zm0,0.63h0.05v0h-0.05v0Zm0-.78h0v0.12h0V31.26Zm0.07,0v0.16a0,0,0,0,1,0,0v0c0-.08,0-0.15,0-0.18h0Zm0,0.25h0v0h0v0Zm0-.4h0v0.07h0V31.17Zm0,0.5a0,0,0,0,1,0,0v0a0.05,0.05,0,0,1,0,0v0Zm0,1.92h0v0h0v0Zm0-1.73H120v0h-0.05v0Zm0,0.78h0v0h0v0Zm0.05-.4v0.07h0V32.24h0Zm0-.07h0v0h0v0Zm0.1-.12v0a0.57,0.57,0,0,0,0,.07h0v0a0.52,0.52,0,0,0,0-.07h0Zm0,0.43h0v0.07h0V32.47Zm0.07-.13v0l0,0.11h0V32.41a0.47,0.47,0,0,0,0-.07h0Zm0,0h0v0h0v0Zm0,5.2v0h0.09a0.11,0.11,0,0,0,.07-0.06h-0.05Zm0.06-6.34h0v0.07h0V31.14Zm0,6.5v0.07l0.07,0a0.24,0.24,0,0,0,.2-0.1h-0.27Zm0.1-5.33h0v0.12h0V32.31Zm0.05-.92h0v0.08h0V31.38Zm0,0.85h0v0h0v0Zm0,0.12h0v0l0,0.16h0V32.44Zm0.07-.95h0v0.08h0V31.41Zm0-.27h0l0,0.17v0.16h0a1.86,1.86,0,0,0,0-.28v0Zm0.1,1.3v0.07a0,0,0,0,1,0,0v0a0.57,0.57,0,0,0,0-.07h0Zm0-1.2h0v0.15h0V31.24ZM120.9,31l0,0.12v0h0a0.32,0.32,0,0,0-.05-0.17h0.05Zm-0.05,1.31h0v0.12h0V32.31Zm0,0.13h0v0.07h0V32.44Zm0.05-.09h0v0h0v0Zm0-1.19h0v0.07h0V31.17ZM121,32.49h0v0.07l0,0.15h0V32.64ZM121,31v0.12h0a0.34,0.34,0,0,0,0-.12H121Zm0,0.22h0v0h0v0Zm0,1.37h0v0.07h0V32.61Zm0-1.45h0v0h0v0Zm0,1.3v0l0,0.12h0V32.54a0.57,0.57,0,0,0,0-.07h0Zm0-1.25h0v0.12h0V31.21Zm0-.1h0v0.07h0V31.12Zm0,2.56a0.12,0.12,0,0,0,.14.07,0.26,0.26,0,0,0,.17-0.12V33.56h-0.1a0.66,0.66,0,0,0-.21,0v0.07Zm0-1.24h0v0.1h0v-0.1Zm0-.06h0v0h0v0Zm0,0.21h0v0h0v0Zm0.17,0.12h0v0.07h0V32.71Zm0.1,5.06a0,0,0,0,0,0,0h-0.07a0.05,0.05,0,0,0,0,0h0.07Zm0-6.67,0,0.12s-0.06,0-.07-0.12h0Zm0,1.42h0v0h0v0Zm0.1,0.12h0v0h0v0Zm0.21-1.4,0,0.12h0s0-.11,0-0.19A0.13,0.13,0,0,1,121.76,31.24Zm-0.06,1.5h0v0.07h0V32.73Zm0.11-.22a0.22,0.22,0,0,1,.15.12h0a0.17,0.17,0,0,1-.12-0.1v0Zm0,0.62h0v0.07h0V33.13Zm0-.23h0V33h0V32.9Zm0,0.33h0V33.3h0V33.23Zm0-.19h0v0h0v0Zm0.15-.3h0.05v0H122v0Zm0.2,0.55h0v0.15h0V33.28Zm0.16-1.74h0v0h0v0Zm0,2h0v0h0v0Zm0,0.15v0h0v0h0Z" transform="translate(0 0)"/><path class="b" d="M127.13,30.64h0s0,0,0,0a0.56,0.56,0,0,1,.06.19h0l0,0v0a0,0,0,0,1,0,0,0.52,0.52,0,0,1,0,.07l0,0a2.52,2.52,0,0,0,.2.5V31.45a1.15,1.15,0,0,0-.07-0.4h0l0,0,0,0a0,0,0,0,1,0,0h0s0,0,.05,0l-0.07-.11v0a1,1,0,0,1,.17.16l0,0v0a0.14,0.14,0,0,0,0-.1h0v0.1l0,0,0.07,0a0.13,0.13,0,0,1,.1-0.07v0.11l0,0.15v0h0V31h0v0h0a0.55,0.55,0,0,0,0-.15h0V31a1.33,1.33,0,0,0,0,.27h0V31.21h0a0.29,0.29,0,0,1-.24.23,5.61,5.61,0,0,0-.9.79l-0.1,0a0.18,0.18,0,0,1-.09,0h0a0.45,0.45,0,0,0-.4-0.3,0.2,0.2,0,0,1,0,.08v0.07s0.06,0.06.19,0.07a0.16,0.16,0,0,0,.12.1l0.1,0h0v0a0.22,0.22,0,0,0-.17.12,0.53,0.53,0,0,0,.17.16,3.79,3.79,0,0,0-.58,2,2.85,2.85,0,0,0,2.15,2.86,4.6,4.6,0,0,0,1.47.23,5.73,5.73,0,0,0,1.57-.23l0.1,0a0.26,0.26,0,0,1,.24-0.12,0.39,0.39,0,0,1,.1.26h0.2v0l-0.15-.16v0a0.2,0.2,0,0,0,.12-0.17c0.26-.12.53-0.27,0.82-0.42l0.1,0a0.59,0.59,0,0,1,.43.47v0a0.3,0.3,0,0,1-.2.27v0h-0.09v0.07h0a5,5,0,0,1-1.42.71,0,0,0,0,0-.05,0h0c0,0.11-.16.17-0.46,0.17a0.11,0.11,0,0,1-.1,0c0-.06,0-0.1-0.06-0.1a0.18,0.18,0,0,1-.1.15l-0.43.07a0.32,0.32,0,0,1-.1-0.19V38.22a0.21,0.21,0,0,1,.24-0.19l0,0s0-.06-0.11-0.07l-0.27.21h0a0.1,0.1,0,0,0-.07-0.07h0a0.92,0.92,0,0,0-.16.36v0.1l-0.17-.19h0c0,0.1,0,.15.1,0.15v0a4.87,4.87,0,0,1-4.06-1.88,3.85,3.85,0,0,1-.61-2.07V34.3a1.84,1.84,0,0,1,.26-1.19l0.51-.67,0.12,0h0a0,0,0,0,0,0-.06l0-.12,0.05,0a0.1,0.1,0,0,0,.07.1,0.34,0.34,0,0,1,.16-0.1V32.19a0.23,0.23,0,0,0-.06-0.07s0-.12,0-0.25a2.65,2.65,0,0,1,.67-0.94Zm-1.89,3.06a0.4,0.4,0,0,0,.2,0l0,0s-0.06-.06-0.17-0.07Zm0.27-1.45a0.13,0.13,0,0,1-.07.1v0a0.52,0.52,0,0,0,0-.07h0Zm0.64-.55v0h0v0h0Zm0.07,0.9v0h0.05v0h-0.05Zm0.25-1.18v0l0.07,0,0,0h-0.1ZM130,29.93h0a2.55,2.55,0,0,1,.12.5h0v0h0v0c0-.1,0-0.15,0-0.16v0h0s0,0.07,0,.07l0,0V30.14h0a0.3,0.3,0,0,0,.15.28l0,0.12v0l0.05,0,0,0.12h0.05a0.22,0.22,0,0,0-.1-0.17,0.18,0.18,0,0,0,0-.08h0l0,0.21h0V30.5h0v0.12h0v-0.1h0v0.07h0V30.5h0l0,0.12h0s0,0,0,0V30.5l-0.26-.33v0h0l0.07,0v0a0.75,0.75,0,0,1-.22-0.19h0l0.17,0.1v0a0.27,0.27,0,0,0-.15-0.1v0h0.07a5.19,5.19,0,0,1,2.1.62,3.18,3.18,0,0,1,1.65,2.66v0.17a3.3,3.3,0,0,1-.83,2.22,2.88,2.88,0,0,1-2.15,1,1.14,1.14,0,0,1-1.05-.47v0a2.06,2.06,0,0,1-1.31.5,1.64,1.64,0,0,1-1.62-.92,2,2,0,0,1-.15-0.73V34.68a2.7,2.7,0,0,1,1.24-2.27,2.52,2.52,0,0,1,.33-0.19l0.1,0.22h0l0.07,0,0,0.11H129V32.44h0v0l0.05,0a0.26,0.26,0,0,0,.15.24v0.17s0.06,0,.06.11,0,0,0,0,0-.28,0-0.36a0.51,0.51,0,0,0,0-.07h0.05c0,0.15,0,.22.07,0.22v0h0v0.1l-0.05,0c0,0.21.06,0.3,0.12,0.3a0.33,0.33,0,0,1-.05-0.16s0.05,0,.05.11l0,0a0.32,0.32,0,0,0,.12.12h0l-0.2-.33V32.71l0.21,0.19v0a0.26,0.26,0,0,1-.14-0.15,0,0,0,0,0,0,0l-0.2-.28h0V32.33a0,0,0,0,1,0,0l-0.07-.17a0,0,0,0,0,0,0,0,0,0,0,1,0,0v0h0.41v0h0v0h0.12v0.07h0v0h0v0h0v0h0v0.07l0,0,0.1,0.07,0.07,0a0.45,0.45,0,0,0,.11.19c0,0.16.07,0.23,0.12,0.23V32.49h0l0.05,0v0a0.17,0.17,0,0,1,0-.08l0.05,0a0.48,0.48,0,0,1-.12-0.24,1.35,1.35,0,0,1,.43.3,0.45,0.45,0,0,1,.27-0.26,0.34,0.34,0,0,1,.16,0h0.3a0.25,0.25,0,0,1,.31.26c-0.36,1.42-.54,2.14-0.58,2.16h-0.05v0s0.05,0,.05,0a4.17,4.17,0,0,0-.16.85,0.15,0.15,0,0,0,.16.12h0.17a1.79,1.79,0,0,0,1.4-1,3,3,0,0,0,.3-1.23V33.18c0-1-.64-1.74-1.93-2.21a7.79,7.79,0,0,0-1.11-.16l-0.05-.07h0.05a1.48,1.48,0,0,0-.22-0.22h0l0.05,0v0a0.3,0.3,0,0,1-.15,0l0,0,0,0h0l0.07,0,0,0h0l0,0A0.43,0.43,0,0,1,129.8,30v0h0l0.1,0.32h0V30.24l0-.12v0h0L130,30.24h0v-0.1l0.05,0v0s0-.08,0-0.19v0h0Zm-2.74.94a0,0,0,0,1,.05,0h0s-0.05,0-.05,0v0Zm0.2,0h0v0h0v0Zm0.1,0.11,0,0.17v0h0a0.51,0.51,0,0,1,0-.07l0-.1v0h0Zm0.11-.5v0a0.47,0.47,0,0,0,0,.07,0,0,0,0,1-.05,0Zm0.12,0.72v0h0v0h0Zm0-.22h0V31h0V30.92Zm0.07-.26H128a0,0,0,0,1-.05,0v0Zm0.1,0.45,0,0.12H128v0c0-.1,0-0.15.07-0.15v0Zm0,3v0a0,0,0,0,0,.05,0h0a0.15,0.15,0,0,0,.16-0.17v0a0.13,0.13,0,0,0-.14-0.06A0.29,0.29,0,0,1,128,34.16Zm0.05-3h0v0h0v0Zm0.16-.95v0.1a0.1,0.1,0,0,1-.07-0.07,0.47,0.47,0,0,0,0-.07A0,0,0,0,1,128.25,30.22Zm0,0.6a0,0,0,0,1,0,0v0a0.05,0.05,0,0,1,0,0v0Zm0,0a0,0,0,0,1,0,0v0a0.05,0.05,0,0,1,0,0v0Zm0-.64h0v0.07h0V30.22Zm0,0.07h0v0.07h0V30.29Zm0.08,0a0.16,0.16,0,0,1,.1.18v0a0.15,0.15,0,0,1-.1-0.08V30.27Zm0,0h0v0h0v0Zm0,0.12v0h0v0h0Zm0.1-.1h0s0,0.06,0,.15l0,0a0,0,0,0,0,0,0v0h0v0l0,0.08v0h0v0h0a0.61,0.61,0,0,0,0,.19h0a0.21,0.21,0,0,1-.1-0.12,0,0,0,0,0,0,0h0a0,0,0,0,1,0,0l0,0V30.24h0Zm0.17,0.07h0v0h0v0Zm0,0h0l0,0.23v0h0l0-.12V30.36Zm0.1-.15a1.32,1.32,0,0,0,.22.64,1.17,1.17,0,0,1-.25-0.19V30.55a0,0,0,0,1,0,0,0.38,0.38,0,0,0-.05-0.21,0.29,0.29,0,0,0,0-.1h0Zm0,2h0v0.07h0V32.19Zm0.07-1.95h0v0.07h0V30.24Zm0.07,0.17h0a2.7,2.7,0,0,0,0,.33s0-.06,0-0.17l-0.05,0,0-.1v0h0v0.07h0V30.41h0Zm-0.05,1.75h0v0.07h0V32.16Zm0.05,0.17h0v0.07h0V32.33ZM129,30h0.1v0H129v0Zm0,2.14h0v0.22h0V32.11Zm0.12-1.69h0v0a1.57,1.57,0,0,0,.09.39l0,0h-0.11s-0.06,0-.07-0.15l0.07,0,0,0h0a0,0,0,0,1,0,0c0-.11,0-0.17,0-0.17s0-.15.07-0.15v0h0l0,0v0h0Zm-0.05.17v0.07h0V30.59h0Zm0,1.69h0v0h0v0Zm0.31-2.36a1,1,0,0,0,.1.22h0a1,1,0,0,0-.33-0.12v0l0.11,0h0.07l0.07,0v0a0,0,0,0,1,0,0Zm-0.29.39h0v0h0v0Zm0,2h0v0.13h0V32.33Zm0,0.16h0v0h0v0Zm0.24,1c-0.11,0-.16,0-0.16.06v0l0.06,0,0.27,0.1h0a0.28,0.28,0,0,1,.19-0.1,0,0,0,0,0,0,0v0a0.3,0.3,0,0,0-.31-0.18c-0.1,0-.15,0-0.15.07Zm-0.15-3h0a0.09,0.09,0,0,0,.07.1v0h0V30.54h0l0,0.1,0.05,0v0l0,0.12a0,0,0,0,1,0,0l0,0h-0.12l-0.1-.34v0h0Zm0-.5v0h0v0h0Zm0,2.43h0v0h0v0Zm0.05-.34a0.11,0.11,0,0,1,.07.07h0a0,0,0,0,1,0,0v0h0Zm0.17,0.72h0v0.07a0,0,0,0,1,0,0v0Zm0.07-2.86a1.43,1.43,0,0,1,0,.22h0s-0.06,0-.07-0.15a0.52,0.52,0,0,0,0-.07h0Zm0,0.69h0v0.1l0,0v0.15h-0.07a0.48,0.48,0,0,1-.07-0.19Zm0,4.36v0a0.13,0.13,0,0,0,.1.07,1,1,0,0,0-.05.24c0,0.12,0,.18.07,0.18l0.16,0v0c0,0.1,0,.17,0,0.22s0.17-.11.17-0.33V35.3a0.14,0.14,0,0,1-.15-0.17V34.95a0.33,0.33,0,0,0-.16.06Zm0,3a0.92,0.92,0,0,0,0,.18,0,0,0,0,0,0,0,0.67,0.67,0,0,0,.07-0.21l0,0h0Zm0.1-7.22h0v0h0v0h0v0h0v0h0v0a0,0,0,0,1,0,0v0l0,0s0,0,0-.07v0h0Zm0,3.06,0,0v0h0a0,0,0,0,0,0,0Zm0.06,4-0.09.19L129.75,38l0,0a1,1,0,0,1,0-.19Zm0-7.81h0V30h0V30Zm0,0.07h0V30.1h0V30Zm0,0.34h0.06v0h-0.06v0Zm0-.27s0.06,0.06.07,0.17a0.13,0.13,0,0,1-.07-0.15v0Zm0,3v0h0v0h0Zm0,0.72v0.12h0.1V33.8h-0.1Zm0.07,4.7h-0.07a0.05,0.05,0,0,1,.05,0Zm-0.05-5a0.21,0.21,0,0,0,.2.22v0.17a2.48,2.48,0,0,0,.15.47,0,0,0,0,0-.05,0l0.05,0.06a2.15,2.15,0,0,0-.15.39h0.07v0L130,35v0a0,0,0,0,0,0,0,0.36,0.36,0,0,0,.19-0.13,0.14,0.14,0,0,1,0-.1,0.15,0.15,0,0,1,.12.16v0.17h0.12a0.36,0.36,0,0,1,.17-0.1v0l-0.07-.08,0-.07V34.8c0-.21-0.06-0.32-0.15-0.32s-0.1,0-.1-0.06a0.38,0.38,0,0,0,.12-0.17V34.18a0.08,0.08,0,0,0,.1-0.07V34a1.34,1.34,0,0,0-.32.15,1.19,1.19,0,0,0-.26-0.33l0-.1a1.75,1.75,0,0,1,0-.22l-0.12,0h-0.05Zm0.05,2.66a0.37,0.37,0,0,0,.15-0.15v0h0a0.15,0.15,0,0,0-.17.17Zm0.05,1.74,0,0v0h0a0,0,0,0,0-.05,0Zm0-7.29H130v0h-0.05v0Zm0,0H130v0h-0.05v0ZM130,30h0v0.1h0V30Zm0,0.62a0,0,0,0,1,.05,0l-0.05,0h0l0,0a0,0,0,0,1,0,0h0Zm0-.4v0h0v0h0Zm0,0.07v0.07a0.32,0.32,0,0,0,.1.21v0a0.68,0.68,0,0,1-.07-0.25h0Zm0.12-.27a0.05,0.05,0,0,1,.05,0v0.12h0Zm0.06,0h0v0.07h0V30.07Zm0.1-.12h0.05v0h-0.05v0ZM131,38.29h0V38.21s0,0,0,0v0Zm0-2.61a0.1,0.1,0,0,0,.07-0.07v0a0.11,0.11,0,0,0-.07.07v0Zm0.17-.64v0h0a0.05,0.05,0,0,0-.05,0h0.07Zm0,3.11,0,0h0v0a0,0,0,0,0-.05,0Zm0.24-2.42v0a0.05,0.05,0,0,0,0,0V35.72h0Zm0,0.57v0h0a0,0,0,0,0,.05,0h-0.07ZM132,37.52v0.07a0,0,0,0,0,0,0v0h0Zm0.3,0.12h0.09a0.11,0.11,0,0,0,.07-0.07,0.43,0.43,0,0,1-.1-0.21,0.24,0.24,0,0,0-.24.16Zm0.33-.4a0,0,0,0,0,.1,0v0l-0.07,0Zm0.36,0.1h0a0,0,0,0,0,0,0v0l-0.07,0v0h0Z" transform="translate(0 0)"/><path class="b" d="M138.09,31.08v0L137.94,31v0a0.11,0.11,0,0,1,.07.07v0L137.87,31l0,0,0.3,0.32v0L137.73,31v0.07L137.65,31v0a2.76,2.76,0,0,1,.33.34h0l-0.36-.29-0.07,0v0a0.45,0.45,0,0,1,.24.19h0l-0.29-.19v0a0,0,0,0,1,0,0,0,0,0,0,0,0,0,0,0,0,0,1,0,0h0l-0.1,0v0a0.42,0.42,0,0,1,.2.15h0l-0.2-.1v0a0.13,0.13,0,0,1,.1.07h0l-0.15-.07v0a0.18,0.18,0,0,1,.15.1h0a0.44,0.44,0,0,0-.17-0.07,0.88,0.88,0,0,0,.35.16v0h0a2.12,2.12,0,0,1-.36-0.11h0l0.16,0v0h0l-0.16,0h0v0l0.53,0.15v0h0l-0.43,0c-0.14,0-.2,0-0.2.07a4,4,0,0,0,.56,0v0H137v0h0.46v0l-0.51,0,0,0-0.17,0h0l0.35,0h0v0l-0.4.06v0h0.1v0h-0.05v0h0l0.1,0,0,0h-0.05v0H137s0,0-.07,0v0h0a0.3,0.3,0,0,1,.15,0l0,0a0,0,0,0,0,0,0h0a0,0,0,0,1,0,0h0.05a0.26,0.26,0,0,1-.1.17l0,0a1.09,1.09,0,0,0-.07.18l0,0v0a0.57,0.57,0,0,0,0,.07v0h0l0.1-.21h0v0l0.07,0,0,0a0.51,0.51,0,0,0,0,.07s0.06,0,.07-0.11h0v0a0,0,0,0,0,0,0l0.05,0,0.07,0h0v0.13a0.77,0.77,0,0,0-.3.15,1.57,1.57,0,0,1-.43.15v0h0.05v0l-0.24,0v0h0.06l0.15,0h0v0l-0.33.12v0h0v0h0v0h0a2.14,2.14,0,0,1,.41-0.12,1,1,0,0,1-.43.22,0.06,0.06,0,0,1-.07.07v0h0l0.21-.07-0.29.21h0l0,0,0,0a0.13,0.13,0,0,0-.1.07,0.18,0.18,0,0,0,.1.1l0,0h0a0,0,0,0,1,0,0,0,0,0,0,0,0,0,0,0,0,0,1,.05,0l0,0s0,0,0,0v0c0,0.1-.09.23-0.14,0.4v0h0a0.47,0.47,0,0,1,.14-0.28l0,0.11v0.19h0a1.79,1.79,0,0,0,.07-0.5h0c0,0.18,0,.32,0,0.4v0h0a2.5,2.5,0,0,0,.25-0.92h0v0c-0.06.32-.1,0.5-0.1,0.55l0.07,0s0,0,0-.07h0v0a0.2,0.2,0,0,1,.12-0.1l0,0a0.1,0.1,0,0,0,.1-0.12l0,0a0.47,0.47,0,0,0,.07-0.13h0v0.66s0,0-.07,0v0h0.07l0,0.12h0l-0.31.07v0h0.06v0h0v0h0v0h0l-0.09,0h0v0h0.1v0h-0.05l0.19,0h0v0l-0.26.08v0l0,0c-0.05,0-.07,0-0.07,0h0l0.14,0h0v0a0.49,0.49,0,0,0-.21.12v0h0v0h0l0,0H137l0,0h0v0s0.07,0,.07,0H137v0l0.07,0,0.07,0a0.33,0.33,0,0,0-.12.12l0,0h0l-0.07.1a0,0,0,0,1,0,0,0,0,0,0,0-.05,0l0.07,0v0l0.07,0a0,0,0,0,1,0,0l0,0-0.05.07h0l0.16-.15v0a0.11,0.11,0,0,1-.06.07,0.29,0.29,0,0,1,0,.11l0.07,0h0v0.12l0,0.12h0a0.51,0.51,0,0,1,.05-0.17h0v0h0l0-.13h0a0.65,0.65,0,0,1,0,.21v2l0,0.15a0.23,0.23,0,0,1,0,.1,0.27,0.27,0,0,1-.32.28h-0.53a0.32,0.32,0,0,1-.38-0.33V32.07h-1.16a0.22,0.22,0,0,1-.24-0.23V31.17a0.16,0.16,0,0,1,.17-0.17h0a0.18,0.18,0,0,1,.15.07,0.4,0.4,0,0,1-.19.17v0.12h0a0.2,0.2,0,0,1,.11,0v0l0,0h0.07v0l0,0c0.06,0,.1-0.08.12-0.27l0.05,0h0.2a0.74,0.74,0,0,0,.24-0.1,0.21,0.21,0,0,0,.1.12,0.46,0.46,0,0,1,.19-0.07h0.47s0,0.07,0,.07a0.11,0.11,0,0,1,.14-0.1,0.34,0.34,0,0,0,.17.19c0-.15,0-0.22.07-0.22l0.24,0,0.41-.06A0.32,0.32,0,0,1,138.09,31.08Zm-1.52,2.42h0v0h0v0Zm0.1,4.52h0a0,0,0,0,0,0,0s0,0,0,0a0,0,0,0,0,0,0v0Zm0.09-4.73h0v0h0v0Zm0-2h0.07l0,0h0l-0.07,0v0Zm0.12,0.7H137v0h-0.07v0Zm0,1h0Zm0-.07H137v0h-0.05v0Zm0,0.47h0v0h0v0ZM137,32h0v0h0v0Zm0,0.07h0v0h0v0Zm0-.12h0.07v0H137v0ZM137,33h0.05v0H137v0Zm0,1.91h0v0h0v0Zm0,0.06h0v0h0v0Zm0-2.89h0.05v0H137.1v0Zm0,0.38h0v0h0v0Zm0.07,2.59a0,0,0,0,1,0,0h0a0,0,0,0,1,0,0h0Zm-0.07,1.52v0.1l0.11,0,0.1,0v0a0.12,0.12,0,0,0-.14-0.07h-0.07Zm0-4.17h0v0h0v0Zm0,2.15h0.05v0h-0.05v0Zm0,0.42h0.05v0h-0.05v0Zm0.14,2h0V36.83h0a0.13,0.13,0,0,0-.14.1A0.23,0.23,0,0,0,137.31,37Zm-0.09-5.1h0.06v0h-0.06v0Zm0,1.15h0v0.15h0V33Zm0,0.27h0v0h0v0Zm0,3.71v0.08a0.05,0.05,0,0,0,0,0h0a0,0,0,0,0,.05,0l-0.1-.08h0Zm0-2.38h0.05v0h-0.05v0Zm0-.28h0v0h0v0Zm0,2.84,0,0v0l0.12,0.08h0V37.21Zm0-2.59h0v0h0v0Zm0-3.09h0v0h0v0Zm0.07,0h0.05v0h-0.05v0Zm0-.16h0v0h0v0Zm0,2.1h0v0h0v0Zm0-2.08h0.05v0h-0.05v0Zm0,0.16h0.05v0h-0.05v0Zm0,0.34h0.05v0h-0.05v0Zm0-.62h0v0h0v0Zm0,2.11h0v0h0v0Zm0,1.57h0a0,0,0,0,1,0,0v0Zm0-3.54h0Zm0,1.92h0v0h0v0Zm0-2h0.05v0h-0.05v0Zm0,0.16h0.07v0h-0.07v0Zm0,0h0.05v0h-0.05v0Zm0,1.71h0v0h0v0Zm0-2h0v0h0v0Zm0,0.16h0v0h0v0Zm0-.09s0.05,0,.05,0h0s0,0,0,0h0Zm0,0.11h0.05v0h-0.05v0Zm0,0h0.05v0h-0.05v0Zm0.05-.12h0v0h0v0Zm0.09-.09h0v0h0v0Zm0,0.28h0.05v0h-0.05v0ZM138,31.7h0v0h0v0Zm0.07-.77h0.07a0.89,0.89,0,0,0,.18.29v0A1.15,1.15,0,0,1,138,31v0Zm0.1,1a0.05,0.05,0,0,1,.05,0l-0.05,0a0,0,0,0,1,0,0Zm0.58-1a0.23,0.23,0,0,1,.29.23v0l0,0.12h0a0.32,0.32,0,0,0-.15-0.27l0.07,0.27v0h0a1.84,1.84,0,0,1-.07-0.22h0v0a0.41,0.41,0,0,1,0,.15l-0.14-.22v0h0v0h0v0a1.23,1.23,0,0,1,.1.24,0.77,0.77,0,0,0-.15-0.19l0.26,0.52a3.89,3.89,0,0,1-.41-0.62h0v0l0.17,0.27v0A1.65,1.65,0,0,1,138.3,31h0v0a0.11,0.11,0,0,1,.07.07v0a0.86,0.86,0,0,1-.14-0.15,0,0,0,0,1,0,0,0.2,0.2,0,0,1-.05-0.11h0.58Zm-0.58.23a0.05,0.05,0,0,1,.05,0v0a0,0,0,0,1-.05,0v0Zm0.05,0.4a0.14,0.14,0,0,1,.07.12h0a0,0,0,0,1,0,0,0,0,0,0,0,0,0,0,0,0,0,1,0,0h0Zm0,0.47v0h-0.07v0a0,0,0,0,1,0,0Zm0.09-.75h0v0h0v0Zm0.25,0.1h0v0h0v0Zm0.1-.24h0v0h0v0Zm0.05,0.12h0v0h0v0Zm0,0.1h0v0h0v0Zm0,0h0v0h0v0Zm0,0.1h0v0h0v0Zm0.06-.1h0v0h0v0Zm0.07,0h0v0h0v0Zm0,0.07h0v0h0v0Z" transform="translate(0 0)"/><path class="b" d="M143.35,31a0.19,0.19,0,0,0,.12.15h0V31h0.07v0.17a0.05,0.05,0,0,0,.05,0,0.27,0.27,0,0,0,.17-0.22,0.17,0.17,0,0,1,.1.17v0.15l-0.07.08v0h0.07v0.41a0.24,0.24,0,0,1-.25.23h-1.93l-0.07,0s0,0,0,0a1.78,1.78,0,0,0-.31.32h0a0.22,0.22,0,0,1,.11-0.1v0l0.25-.17a0.11,0.11,0,0,1,.07.07,0.11,0.11,0,0,0-.07.07h0a0,0,0,0,1,0,0l0.07,0,0,0,0.05,0,0,0v0l0,0.06h0v0h0a0,0,0,0,1,0,0,0.44,0.44,0,0,0,0,.07,0.15,0.15,0,0,1-.11,0v0h0.16v0h0v0h0v0H142v0l0.12,0v0h0v0a0.36,0.36,0,0,1,.2.28v0h0v0h-0.05v0.07a0.67,0.67,0,0,1-.21,0,0,0,0,0,1,0,0,0.11,0.11,0,0,0-.07-0.07l0,0v0h0l-0.07,0h0l0,0,0,0a0.1,0.1,0,0,0-.07-0.07h0v0h0l-0.07,0a0.88,0.88,0,0,0-.31.12v0l0.15,0v0h0l-0.17,0-0.12,0v0l0.22,0.07v0h0l-0.3,0a0.22,0.22,0,0,0,.17.1v0h0l-0.12,0,0,0h0a0.45,0.45,0,0,0,.3.12l0,0a0.38,0.38,0,0,0-.17.12,0.45,0.45,0,0,1,.2-0.07h0l-0.07.12h0a0.2,0.2,0,0,1,.12,0v0s0,0.06-.12.07v0l0.12,0h0.05a0.23,0.23,0,0,1-.2.13v0h0l0.17,0h0v0h0v0h0.43a0,0,0,0,0,0,0l0,0h1.63a0.3,0.3,0,0,1,.37.29v0.6c0,0.18-.12.28-0.37,0.28h-0.31a0.84,0.84,0,0,0,.1.15,0,0,0,0,1,0,0h0l0-.1h-0.05l0,0.12h0l0-.1h0l0,0v0l0,0a0.13,0.13,0,0,1-.1-0.12h0v0h0l-0.05,0v0h0V35.21h0s0,0,0,.07h0v-0.1h0a0.15,0.15,0,0,1-.12.1,0.19,0.19,0,0,1,0-.1,0,0,0,0,0,0,0l-0.05,0,0,0a0,0,0,0,0,0,0l0,0v0.07h0l0-.12h-0.1a0,0,0,0,0,0,0l0,0H142v0h0v0H142v0h-0.05a0,0,0,0,0,0,0l-0.05,0h0a0,0,0,0,0,0,0l0,0h0l0,0a0,0,0,0,0,0,0,0,0,0,0,1,0,0,0,0,0,0,0,0,0,0,0,0,0,1,0,0,0,0,0,0,0,0,0v0a0.23,0.23,0,0,1,0,.15l-0.07,0a0,0,0,0,1,0,0,0.18,0.18,0,0,0-.06-0.1c0,0.11.06,0.18,0.06,0.19h0a0.34,0.34,0,0,0-.15-0.19v0s0.06,0,.07.12h0l-0.15-.17,0.07,0.12v0h0l-0.1-.1v0a0.13,0.13,0,0,0,.12.1v0a0,0,0,0,0,0,.06l-0.07,0h0l0.3,0.56a0.24,0.24,0,0,0,.14.22h-0.05v0a0.23,0.23,0,0,1,.17,0h0.05l0.24,0v0l-0.16,0v0h0.12v0l0.09,0v0l0,0h0.05a0.36,0.36,0,0,0,.25.21v0h-0.05a0.38,0.38,0,0,0,.31.07s0,0,.12,0v0h0a0.89,0.89,0,0,0-.24,0h0v0A2.22,2.22,0,0,1,143,37h0l-0.1,0v0a0.51,0.51,0,0,0-.3-0.12s0,0,.07,0v0h-0.05a0.11,0.11,0,0,0,.1.06h0a0,0,0,0,1,0,0h0a0.71,0.71,0,0,0,.25.13v0h0l-0.07,0a0.43,0.43,0,0,0,.17.15h0V37.16l0,0h0.69a0.25,0.25,0,0,1,.3.24v0.71a0,0,0,0,1,0,0h-0.12a0.13,0.13,0,0,1-.07.15h0v0l0-.07H143.6l-0.14.1h-0.17l-0.17-.15h0v0.07h0.07v0s0,0,0,0l-0.11,0h-0.07l-0.15,0a0.42,0.42,0,0,1-.2-0.1,0.16,0.16,0,0,1-.11.1,0.43,0.43,0,0,1-.22-0.1v0.07h-0.05c0-.08,0-0.12,0-0.12h-0.05a0.25,0.25,0,0,0-.26.15,2.48,2.48,0,0,1-.43-0.1,1.27,1.27,0,0,1-.3.07h0l-0.16,0v0h0l-0.07,0h-0.05v0h-0.25l0,0a0,0,0,0,0,0,0l-0.06,0h0s0-.07,0-0.07h0a0.1,0.1,0,0,0-.07.1l-0.17,0h-0.21a0.27,0.27,0,0,1-.12-0.3V31.42h0.05v0l0,0h0.07v0l0,0a0.29,0.29,0,0,0,.12-0.27l0,0h0.2a0.69,0.69,0,0,0,.25-0.1,0.16,0.16,0,0,0,.09.12,0.45,0.45,0,0,1,.2-0.07h0.46s0,0.07.05,0.07,0-.1.15-0.1a0.3,0.3,0,0,0,.16.19c0-.15,0-0.22.07-0.22l0.25,0a1.92,1.92,0,0,0,.43-0.1,0.47,0.47,0,0,0,.22.07,0.11,0.11,0,0,0,.14-0.1h0.74Zm-3.63.15h0s0,0,0,0a0.13,0.13,0,0,1-.07.1h0v0Zm0.19,6.45h0a0,0,0,0,0,.05,0h0s0,0,0,0v0h0Zm0.1,0.55,0,0v0h0s0,0,0,0Zm0.32,0.12h0a0,0,0,0,1,0,0v0Zm0.58-4.58s0,0,0,0v0h0ZM141,36.72a0.44,0.44,0,0,1-.1.33V36.94s0,0,0,0V37.1h0.46V36.91h0V37h0V36.91l0-.1v0h0v0.07l-0.05,0,0,0.21h0v0l0-.16v0h0a0.84,0.84,0,0,1-.07.26h0V37a1.27,1.27,0,0,0,.05-0.19v0h0a1.46,1.46,0,0,0,0,.26h0l0-.11,0-.17v0h0Zm-0.1-4.61s0,0,0,.1v0h0c0-.06,0-0.08,0-0.1v0h0Zm0,1.45a0.13,0.13,0,0,0,.1.07l0.07,0s-0.06-.06-0.17-0.07v0h0Zm0,3.18v0.07h0V36.74h0Zm0,0.1v0.07h0V36.84h0ZM141,32.26a0.27,0.27,0,0,0,.07-0.15,0.21,0.21,0,0,0-.1.15h0Zm0.07,0a0.53,0.53,0,0,0,.1-0.19,0.37,0.37,0,0,0-.12.19h0Zm0.2,1.2v0H141.2c-0.1,0-.15,0-0.15-0.07Zm-0.2,1.67v0l0,0v0Zm0,0.15v0l0,0v0Zm0-1.9h0v0h0v0Zm0.2,4.69,0,0v0h0s0,0,0,0Zm0-6.73h0.07l0,0h0l-0.07,0v0Zm0.19,0.73-0.14.19h0a1.06,1.06,0,0,0,.14-0.19h0Zm-0.14,3.28h0v0h0v0Zm0.1,1.63v0h0v0h0Zm0-1.85v0l0,0v0Zm0,2.94h0a0,0,0,0,0,0,0v0h0a0.05,0.05,0,0,0,0,0v0h0Zm0-1.15v0.11h0V37h0Zm0-4.83,0,0h0l0,0h0Zm0.15,0a0.36,0.36,0,0,1-.15.15h0a0.36,0.36,0,0,1,.15-0.15h0Zm-0.08,3h0v0h0v0ZM141.75,37v0h0v0h0Zm0.1,0v0h0v0h0Zm0-1.82a0.05,0.05,0,0,1,0,0h0v0Zm0,1.3v0l0.07,0v0h-0.07ZM142,36.79v0l0.05,0v0ZM142,37v0.08h0V37h0Zm0-.37a0,0,0,0,0,0,0v0h0Zm0-.16v0h0.05v0h-0.05Zm0,0.06v0h0.05v0h-0.05Zm0.05,0.2v0l0.3,0s-0.09-.07-0.25-0.07h0Zm0.1,1.37,0,0v0h0a0.05,0.05,0,0,0-.05,0Zm0-5h0v0h0v0Zm0,3.76v0h0.07v0h-0.07Zm0.17,0.1a0.11,0.11,0,0,0,.06.07h0a0.52,0.52,0,0,1,0-.07h-0.06Zm0-.07v0h0v0h0Zm0.21,0.35v0l0.12,0h0v0l-0.12,0h0Zm0.15-.17h0v0h0v0Zm0,0h0.05v0h-0.05v0Zm0.33,0.84a0,0,0,0,0,0,0h-0.07a0,0,0,0,0,0,0h0.07Zm0,0.18h0a0,0,0,0,0,0,0h0s-0.05,0-.05,0v0h0Zm0.2,0,0.1,0v0h-0.1v0Zm0.14-.18v0a0.05,0.05,0,0,0,0,0h0.05v0a0,0,0,0,0-.05,0h0Zm0.1-6.91,0.17,0v0h-0.17v0Z" transform="translate(0 0)"/></svg>