<svg xmlns="http://www.w3.org/2000/svg" width="482" height="255" viewBox="0 0 482 255"><defs><style>.a{fill:#049b78;}</style></defs><title>beautemps</title><path class="a" d="M282,167l32-2c18,0,29,3,38,9a24,24,0,0,1,11,21c0,11-9,21-23,26h0c13,3,28,12,28,30s-5,18-12,24-25,11-47,11H282V167Zm18,48h16c19,0,30-8,30-20s-12-19-30-19H300v38Zm0,57h15c18,0,35-6,35-23s-16-23-35-23H300v45Z" transform="translate(-269 -165)"/><path class="a" d="M467,229H414v43h59v13H396V166h74v13H414v37h53v13Z" transform="translate(-269 -165)"/><path class="a" d="M522,247l-14,37H490l46-118h21l47,118H585l-15-37H522Zm45-12-13-34c-3-8-5-15-7-22h0l-7,21-13,34h41Z" transform="translate(-269 -165)"/><path class="a" d="M640,166v70c0,26,14,38,32,38s33-12,33-38V166h18v69c0,36-22,51-52,51s-49-14-49-50V166h18Z" transform="translate(-269 -165)"/><path class="a" d="M325,331v88H297V331H269V307h83v25H325Z" transform="translate(-269 -165)"/><path class="a" d="M365,419V307h76v25H392v19h42v25H392v20h49v25H365Z" transform="translate(-269 -165)"/><path class="a" d="M534,419V365l-16,28H500l-16-28v54H457V307h27l25,50,25-50h27V419H534Z" transform="translate(-269 -165)"/><path class="a" d="M625,379H608v40H581V307h45c25,0,38,18,38,36S650,379,625,379Zm-1-48H608v23h16c8,0,12-6,12-11S631,332,624,332Z" transform="translate(-269 -165)"/><path class="a" d="M708,420c-17,0-31-3-43-15l18-18c6,6,16,8,25,8s16-4,16-10a9,9,0,0,0-2-7l-7-3-14-2c-10-1-18-5-23-10s-8-13-8-23c0-21,15-36,41-36s28,4,38,13l-17,17c-7-7-16-7-21-7s-14,6-14,10a7,7,0,0,0,2,5c1,1,4,3,8,3l14,2c10,1,17,5,22,9s8,14,8,25C751,408,732,420,708,420Z" transform="translate(-269 -165)"/></svg>