<?xml version="1.0" encoding="iso-8859-1"?>
<!-- Generator: Adobe Illustrator 19.2.1, SVG Export Plug-In . SVG Version: 6.00 Build 0)  -->
<svg version="1.1" xmlns="http://www.w3.org/2000/svg" xmlns:xlink="http://www.w3.org/1999/xlink" x="0px" y="0px"
	 viewBox="0 0 150 19.86" style="enable-background:new 0 0 150 19.86;" xml:space="preserve">
<g id="chipsandcookies">
	<g>
		<g>
			<path style="fill:#1D1D1B;" d="M0,6.716l1.727-1.775h7.052L10.962,7.1H2.303v8.011h8.659L8.779,17.27H1.727L0,15.495V6.716z"/>
			<path style="fill:#1D1D1B;" d="M11.991,0l2.303,1.055v3.885h6.668l1.726,1.775V17.27h-2.303V7.1h-6.092v10.17h-2.303V0z"/>
			<path style="fill:#1D1D1B;" d="M24.868,1.2h2.303v2.543h-2.303V1.2z M24.868,4.941h2.303V17.27h-2.303V4.941z"/>
			<path style="fill:#1D1D1B;" d="M29.617,4.941h9.018l1.679,1.775v8.779l-1.823,1.775h-6.571v2.59h-2.303V4.941z M31.919,15.111
				h6.092V7.1h-6.092V15.111z"/>
			<path style="fill:#1D1D1B;" d="M50.552,12.041h-6.668l-1.727-1.775v-3.55l1.727-1.775h10.313L52.039,7.1h-7.58v2.783h6.668
				l1.727,1.775v3.837l-1.727,1.775H40.862l2.159-2.159h7.531V12.041z"/>
		</g>
		<g>
			<g>
				<path style="fill:#FFEA00;" d="M65.565,15.255c-0.648,0.648-2.446,2.159-5.253,2.159c-3.142,0-5.301-1.968-5.301-4.869
					c0-2.711,1.918-3.934,3.91-5.301c-0.887-1.079-1.895-2.303-1.895-3.79c0-1.919,1.559-3.406,3.478-3.406
					c1.918,0,3.478,1.512,3.478,3.429c0,1.416-0.887,2.327-1.967,3.07c0,0-0.887,0.624-1.271,0.864l4.893,5.924
					c0.768-1.151,1.007-2.087,1.007-4.244h1.271c0,2.134-0.408,3.862-1.486,5.204l2.446,2.974H67.22L65.565,15.255z M56.307,12.473
					c0,2.23,1.607,3.79,3.982,3.79c1.366,0,2.83-0.361,4.557-1.896l-5.181-6.259C58.057,9.21,56.307,10.266,56.307,12.473z
					 M60.504,1.2c-1.247,0-2.183,0.936-2.183,2.206c0,0.864,0.336,1.56,1.679,3.142l0.384-0.263c0.36-0.216,0.575-0.384,0.6-0.408
					c0.887-0.599,1.726-1.272,1.726-2.399C62.71,2.159,61.751,1.2,60.504,1.2z"/>
			</g>
		</g>
		<g>
			<path style="fill:#1D1D1B;" d="M71.078,6.716l1.727-1.775h7.052L82.039,7.1H73.38v8.011h8.659l-2.183,2.159h-7.052l-1.727-1.775
				V6.716z"/>
			<path style="fill:#1D1D1B;" d="M82.781,6.716l1.726-1.775h7.531l1.728,1.775v8.779l-1.728,1.775h-7.531l-1.726-1.775V6.716z
				 M85.083,15.111h6.38V7.1h-6.38V15.111z"/>
			<path style="fill:#1D1D1B;" d="M95.37,6.716l1.726-1.775h7.531l1.728,1.775v8.779l-1.728,1.775h-7.531l-1.726-1.775V6.716z
				 M97.672,15.111h6.38V7.1h-6.38V15.111z"/>
			<path style="fill:#1D1D1B;" d="M108.248,0l2.302,1.055v8.924l6.189-5.181L118.8,5.9l-5.947,4.894l7.82,6.476h-3.599l-6.524-5.612
				v5.612h-2.302V0z"/>
			<path style="fill:#1D1D1B;" d="M120.669,1.2h2.303v2.543h-2.303V1.2z M120.669,4.941h2.303V17.27h-2.303V4.941z"/>
			<path style="fill:#1D1D1B;" d="M125.129,6.716l1.728-1.775h7.533l1.725,1.775v5.374h-8.682v3.021h8.635l-2.157,2.159h-7.053
				l-1.728-1.775V6.716z M127.432,9.93h6.38V7.1h-6.38V9.93z"/>
			<path style="fill:#1D1D1B;" d="M146.354,12.041h-6.667l-1.728-1.775v-3.55l1.728-1.775H150L147.841,7.1h-7.58v2.783h6.669
				l1.726,1.775v3.837l-1.726,1.775h-10.266l2.159-2.159h7.531V12.041z"/>
		</g>
	</g>
</g>
<g id="Laag_1">
</g>
</svg>
