<?xml version="1.0" encoding="utf-8"?>
<!-- Generator: Adobe Illustrator 22.1.0, SVG Export Plug-In . SVG Version: 6.00 Build 0)  -->
<svg version="1.1" id="Layer_1" xmlns="http://www.w3.org/2000/svg" xmlns:xlink="http://www.w3.org/1999/xlink" x="0px" y="0px"
	 viewBox="0 0 116.79 33.26" style="enable-background:new 0 0 116.79 33.26;" xml:space="preserve">
<style type="text/css">
	.cyborg-st0{fill:#C5D77D;}
	.cyborg-st1{fill:#1A171A;}
	.cyborg-st2{fill:#FEFEFE;}
	.cyborg-st3{fill:url(#SVGID_1_);}
</style>
<path class="cyborg-st0" d="M111.54,14.92c0-0.33,0.01-0.64-0.06-0.94c-0.24-1.03-1.09-1.79-2.15-1.93c-0.57-0.07-1.14-0.03-1.72-0.01
	c-0.69,0.03-1.38-0.01-2.07,0.04c-0.16,0.01-0.21,0.05-0.2,0.21c0.01,1.05,0,2.09,0,3.14c0,2.6,0,5.2,0,7.79
	c0,0.2,0.05,0.25,0.25,0.25c1.81-0.01,3.62-0.01,5.43,0c0.18,0,0.25-0.04,0.24-0.24c-0.01-0.73-0.01-1.46,0-2.19
	c0-0.19-0.05-0.19-0.21-0.14c-1.36,0.45-2.72,0.9-4.08,1.35c-0.23,0.08-0.23,0.08-0.23-0.17c0-1.66,0-3.32,0-4.98
	c0-0.16,0.05-0.24,0.21-0.29c1.96-0.69,3.91-1.39,5.87-2.07c0.66-0.23,1.34-0.34,2.05-0.3c0.89,0.06,1.64,0.73,1.84,1.64
	c0.11,0.51,0.12,1.01,0.05,1.53c-0.01,0.08-0.01,0.16-0.01,0.25c0,2.97,0,5.93,0,8.9c0,1.29-0.84,2.35-2.1,2.64
	c-0.19,0.04-0.39,0.07-0.59,0.07c-3.75,0-7.49,0-11.24,0c-1.37,0-2.49-1.01-2.66-2.38c-0.02-0.15-0.03-0.3-0.03-0.45
	c0-5.82,0-11.64,0-17.45c0-1.44,0.91-2.52,2.33-2.76c0.09-0.02,0.19-0.01,0.29-0.01c2.97,0,5.95,0,8.92,0c0.98,0,1.82,0.4,2.55,1.03
	c1.4,1.22,2.18,2.79,2.47,4.61c0.04,0.24,0.05,0.49,0.06,0.73c0.01,0.17-0.06,0.24-0.21,0.29c-1.34,0.5-2.69,1-4.03,1.5
	C112.2,14.67,111.88,14.79,111.54,14.92z"/>
<path class="cyborg-st0" d="M15.26,18.84c0,0.08,0,0.15,0,0.21c0,1.47-0.02,2.94,0.01,4.41c0.02,1.04,0.01,2.08,0.03,3.12
	c0.02,1.28-0.62,2.27-1.76,2.71c-0.28,0.11-0.56,0.16-0.86,0.16c-3.35,0-6.7,0-10.05,0c-1.29,0-2.41-1-2.59-2.3
	C0.01,27,0,26.85,0,26.7c0-5.88,0-11.76,0-17.64C0,7.61,1.16,6.41,2.61,6.4c2.63-0.02,5.26-0.03,7.9,0.01
	c1.13,0.02,2.12,0.46,2.98,1.19c0.99,0.84,1.57,1.92,1.75,3.19c0.08,0.54,0.06,1.09,0.03,1.63c-0.03,0.48-0.02,0.96-0.01,1.44
	c0,0.13-0.04,0.19-0.16,0.24c-1.74,0.73-3.47,1.47-5.2,2.21c-0.13,0.06-0.15,0.01-0.15-0.11c0-0.51,0-1.01,0-1.52
	c0-0.73-0.2-1.39-0.69-1.94c-0.5-0.56-1.13-0.86-1.87-0.9c-0.49-0.02-0.98,0-1.48-0.01c-0.15,0-0.18,0.05-0.18,0.19
	c0,4.09,0,8.18,0,12.26c0,0.14,0.03,0.19,0.18,0.19c1.29-0.01,2.57-0.01,3.86,0c0.17,0,0.19-0.06,0.19-0.2c0-0.98,0-1.97,0-2.95
	c0-0.12,0.02-0.19,0.15-0.25c1.76-0.74,3.52-1.49,5.28-2.23C15.19,18.85,15.21,18.85,15.26,18.84z"/>
<path class="cyborg-st0" d="M93.06,19.04c-0.67,0.21-1.33,0.42-2,0.63c-0.79,0.25-1.59,0.51-2.38,0.75c-0.18,0.05-0.24,0.13-0.24,0.32
	c0.01,2.79,0.01,5.58,0,8.37c0,0.29,0.03,0.26-0.27,0.26c-1.59,0-3.17,0-4.76,0.01c-0.19,0-0.23-0.06-0.23-0.24
	c0-7.54,0-15.08,0-22.62c0-0.2,0.06-0.23,0.24-0.23c2.38,0.01,4.76,0,7.14,0.01c1.12,0,2.14,0.33,2.99,1.08
	c0.78,0.69,1.22,1.57,1.28,2.61c0.06,0.95-0.02,1.9,0,2.85c0,0.23,0,0.23,0.22,0.15c1.2-0.48,2.73-0.12,3.62,0.83
	c0.71,0.75,1.02,1.63,0.96,2.65c-0.03,0.51-0.21,1-0.34,1.49c-0.91,3.52-1.83,7.03-2.74,10.55c-0.06,0.23-0.14,0.46-0.18,0.69
	c-0.03,0.15-0.1,0.18-0.24,0.18c-1.68,0-3.36,0-5.05,0c-0.15,0-0.18-0.03-0.15-0.18c0.22-1.01,0.43-2.01,0.64-3.02
	c0.5-2.36,0.99-4.72,1.49-7.08C93.07,19.08,93.07,19.08,93.06,19.04z"/>
<path class="cyborg-st0" d="M31.58,11.19c0,1.92,0,3.84,0,5.76c0,1.47-0.92,2.61-2.35,2.91c-0.2,0.04-0.4,0.06-0.61,0.06
	c-0.77,0-1.53,0-2.3-0.01c-0.19,0-0.24,0.05-0.24,0.24c0.01,2.98,0,5.96,0,8.94c0,0.26,0,0.26-0.27,0.26c-1.42,0-2.84,0-4.27,0
	c-0.27,0-0.27,0-0.27-0.26c0-2.97,0-5.95,0-8.92c0-0.21-0.05-0.26-0.26-0.26c-0.76,0.01-1.52,0.01-2.28,0.01
	c-1.7,0-2.96-1.27-2.96-2.97c0-3.13,0-6.26,0-9.39c0-0.17,0.05-0.25,0.21-0.31c1.71-0.71,3.41-1.44,5.11-2.16
	c0.2-0.09,0.21-0.08,0.21,0.17c0,3.08,0,6.15,0,9.23c0,0.27,0,0.27,0.26,0.27c1.4,0,2.8,0,4.2,0c0.27,0,0.27,0,0.27-0.26
	c0-2.3,0-4.61,0-6.91c0-0.18,0.05-0.27,0.21-0.34c1.7-0.71,3.4-1.43,5.09-2.15c0.22-0.09,0.22-0.09,0.22,0.15
	C31.58,7.23,31.58,9.21,31.58,11.19z"/>
<path class="cyborg-st0" d="M32.24,17.81c0-3.76,0-7.52,0-11.28c0-0.21,0.05-0.26,0.26-0.26c2.37,0.01,4.74,0,7.12,0.01
	c1.24,0,2.34,0.39,3.22,1.29c0.65,0.67,1,1.48,1.07,2.42c0.07,0.96-0.03,1.91-0.01,2.87c0.01,0.18,0.04,0.18,0.19,0.13
	c1.27-0.45,2.42-0.24,3.44,0.63c0.87,0.75,1.24,1.73,1.16,2.87c-0.04,0.57-0.24,1.1-0.38,1.65c-0.91,3.51-1.82,7.02-2.73,10.53
	c-0.05,0.19-0.11,0.38-0.15,0.57c-0.02,0.1-0.07,0.14-0.17,0.13c-0.03,0-0.07,0-0.1,0c-4.22,0-8.43,0-12.65,0.01
	c-0.21,0-0.26-0.06-0.26-0.26C32.24,25.35,32.24,21.58,32.24,17.81z"/>
<path class="cyborg-st1" d="M111.8,20.09c-0.95,0.31-1.88,0.62-2.8,0.93c-0.51,0.17-1.02,0.34-1.53,0.51c-0.12,0.04-0.18,0.05-0.18-0.12
	c0-1.34,0-2.68,0-4.02c0-0.13,0.07-0.16,0.16-0.19c1.41-0.5,2.82-1,4.23-1.49c0.69-0.24,1.37-0.54,2.1-0.68
	c0.45-0.08,0.9-0.12,1.34,0c0.66,0.18,0.96,0.67,1.09,1.3c0.08,0.39,0.07,0.79,0.02,1.18c-0.01,0.09-0.01,0.18-0.01,0.27
	c0,2.96,0,5.92,0,8.88c0,1.33-0.93,2.25-2.26,2.25c-3.68,0-7.36,0-11.03,0c-1.31,0-2.23-0.92-2.23-2.23c0-3.06,0-6.13,0-9.19
	c0-2.78,0-5.56,0-8.35c0-1.28,0.89-2.22,2.18-2.22c2.97-0.01,5.95-0.01,8.92,0.01c0.9,0.01,1.64,0.45,2.27,1.06
	c1.27,1.22,1.96,2.72,2.15,4.46c0.01,0.12-0.02,0.17-0.13,0.21c-1.29,0.48-2.58,0.96-3.87,1.44c-0.11,0.04-0.15,0.04-0.18-0.1
	c-0.25-1.45-1.54-2.53-3.03-2.52c-1.35,0.01-2.69,0.05-4.04,0.07c-0.17,0-0.14,0.1-0.14,0.2c0,1.48,0,2.95,0,4.43
	c0,2.54,0,5.07,0,7.61c0,0.19,0.05,0.23,0.24,0.23c2.17-0.01,4.33-0.01,6.5,0c0.21,0,0.27-0.05,0.27-0.27
	C111.8,22.55,111.8,21.34,111.8,20.09z"/>
<path class="cyborg-st1" d="M14.73,19.64c0,0.59,0,1.15,0,1.72c0,1.65,0,3.29,0.01,4.94c0,0.33,0.02,0.67-0.06,1
	c-0.24,0.93-1.09,1.61-2.05,1.62c-3.33,0-6.66,0.01-9.99,0c-1.16,0-2.11-0.98-2.11-2.13c0-5.91,0-11.81,0-17.72
	c0-1.15,0.92-2.12,2.06-2.13c2.55-0.02,5.1-0.01,7.65-0.01c0.47,0,0.92,0.08,1.37,0.23c1.78,0.59,3,2.15,3.12,4.02
	c0.05,0.8-0.02,1.61-0.01,2.42c0,0.09-0.05,0.12-0.11,0.14c-1.39,0.59-2.79,1.18-4.18,1.77c-0.13,0.06-0.14,0.01-0.14-0.1
	c0-0.5,0.03-1.01-0.07-1.51c-0.29-1.48-1.62-2.57-3.13-2.57c-0.61,0-1.22,0.01-1.83,0c-0.2,0-0.26,0.04-0.26,0.25
	c0.01,3.64,0.01,7.27,0.01,10.91c0,0.79,0,1.57,0,2.36c0,0.16,0.05,0.19,0.2,0.19c1.63-0.01,3.27-0.01,4.9,0
	c0.16,0,0.19-0.05,0.19-0.2c-0.01-1.05,0-2.09,0-3.14c0-0.1,0-0.19,0.13-0.24c1.41-0.59,2.82-1.19,4.22-1.78
	C14.65,19.66,14.67,19.66,14.73,19.64z"/>
<path class="cyborg-st1" d="M91.56,28.83c0.74-3.53,1.49-7.05,2.23-10.59c-0.59,0.19-1.16,0.36-1.72,0.54c-1.33,0.42-2.65,0.84-3.98,1.25
	c-0.15,0.05-0.19,0.11-0.19,0.27c0.01,2.77,0,5.54,0.01,8.31c0,0.19-0.06,0.23-0.24,0.23c-1.25-0.01-2.5-0.01-3.75,0
	c-0.15,0-0.21-0.02-0.21-0.19c0.01-7.2,0-14.41,0-21.61c0-0.16,0.04-0.2,0.2-0.2c2.24,0.01,4.48-0.01,6.73,0.01
	c1.44,0.01,2.58,0.6,3.3,1.88c0.37,0.65,0.4,1.38,0.38,2.11c-0.02,1,0,2.01,0,3.03c0.27-0.11,0.54-0.22,0.81-0.33
	c1.09-0.43,2.11-0.26,2.98,0.5c0.88,0.77,1.18,1.76,0.89,2.89c-1,3.88-2.02,7.76-3.02,11.65c-0.06,0.22-0.14,0.28-0.37,0.28
	c-1.27-0.01-2.54-0.01-3.81-0.01C91.73,28.83,91.66,28.83,91.56,28.83z"/>
<path class="cyborg-st1" d="M31.04,5.83c0,0.09,0,0.17,0,0.24c0,3.62,0,7.25,0,10.87c0,1.43-1.03,2.45-2.46,2.45c-0.93,0-1.86,0.01-2.79,0
	c-0.19,0-0.25,0.04-0.25,0.24c0.01,2.98,0,5.96,0.01,8.94c0,0.22-0.07,0.26-0.27,0.26c-1.09-0.01-2.17-0.01-3.26,0
	c-0.17,0-0.21-0.05-0.21-0.22c0.01-2.99,0-5.99,0.01-8.98c0-0.2-0.05-0.25-0.24-0.24c-0.94,0.01-1.89,0.01-2.83,0
	c-1.17-0.01-2.11-0.74-2.36-1.86c-0.04-0.17-0.06-0.34-0.06-0.51c0-3.04,0-6.08,0-9.13c0-0.14,0.03-0.21,0.17-0.27
	c1.36-0.57,2.72-1.14,4.07-1.72c0.2-0.08,0.2-0.02,0.2,0.15c0,2.45,0,4.89,0,7.34c0,0.57,0.01,1.15,0,1.72
	c0,0.15,0.04,0.18,0.18,0.18c1.82,0,3.64,0,5.46,0c0.16,0,0.2-0.04,0.19-0.2c-0.01-2.4,0-4.8-0.01-7.2c0-0.12,0.01-0.21,0.15-0.27
	c1.38-0.58,2.77-1.17,4.15-1.75C30.94,5.86,30.98,5.85,31.04,5.83z"/>
<path class="cyborg-st1" d="M43.38,13.85c0.28-0.12,0.56-0.23,0.83-0.34c1.68-0.7,3.64,0.41,3.92,2.21c0.09,0.58-0.04,1.12-0.18,1.67
	c-0.98,3.74-1.95,7.48-2.92,11.23c-0.05,0.18-0.12,0.21-0.29,0.21c-3.9,0-7.81,0-11.71,0c-0.2,0-0.26-0.04-0.26-0.25
	c0.01-3.82,0.01-7.64,0.01-11.46c0-3.36,0-6.71,0-10.07c0-0.19,0.05-0.23,0.23-0.23c2.23,0.01,4.46,0,6.69,0.01
	c1.3,0.01,2.37,0.5,3.13,1.57c0.4,0.57,0.57,1.22,0.57,1.91C43.38,11.49,43.38,12.66,43.38,13.85z"/>
<path class="cyborg-st0" d="M87.87,13.57c0-0.75,0.01-1.49,0-2.24c0-0.16,0.05-0.19,0.19-0.19c0.5,0.01,1-0.01,1.5,0.01
	c0.96,0.02,1.38,0.41,1.42,1.37c0.03,0.73,0.01,1.46,0.02,2.19c0,0.11-0.06,0.14-0.14,0.17c-0.95,0.35-1.89,0.7-2.84,1.05
	c-0.12,0.05-0.15,0.02-0.15-0.11C87.87,15.08,87.87,14.33,87.87,13.57z"/>
<path class="cyborg-st0" d="M42.85,18.24c-0.11,0.55-0.22,1.06-0.33,1.57c-0.28,1.33-0.57,2.67-0.84,4c-0.03,0.16-0.09,0.21-0.25,0.2
	c-1.42-0.01-2.84-0.01-4.26,0c-0.18,0-0.21-0.05-0.21-0.22c0.01-1.18,0-2.35,0-3.53c0-0.11,0.01-0.18,0.14-0.23
	C39,19.46,40.9,18.86,42.85,18.24z"/>
<path class="cyborg-st0" d="M36.92,13.55c0-0.74,0-1.48,0-2.21c0-0.14,0.04-0.19,0.18-0.18c0.61,0.02,1.23-0.05,1.84,0.04
	c0.66,0.1,0.98,0.42,1.05,1.08c0.09,0.82,0.02,1.65,0.04,2.48c0,0.08-0.05,0.1-0.11,0.12c-0.95,0.35-1.91,0.7-2.86,1.06
	c-0.16,0.06-0.15-0.02-0.15-0.13C36.92,15.05,36.92,14.3,36.92,13.55z"/>
<path class="cyborg-st2" d="M88.4,15.18c0-0.12,0-0.24,0-0.36c0-0.98,0-1.95,0-2.93c0-0.15,0.03-0.22,0.2-0.21
	c0.42,0.02,0.83-0.03,1.25,0.04c0.36,0.06,0.53,0.23,0.57,0.59c0.08,0.68,0.02,1.36,0.04,2.05c0,0.07-0.02,0.11-0.09,0.14
	c-0.64,0.23-1.28,0.46-1.92,0.69C88.43,15.19,88.42,15.19,88.4,15.18z"/>
<path class="cyborg-st2" d="M42.13,19.05c-0.23,1.09-0.46,2.16-0.68,3.23c-0.07,0.35-0.15,0.69-0.22,1.04c-0.02,0.12-0.06,0.16-0.18,0.16
	c-1.13,0-2.27,0-3.4,0c-0.13,0-0.16-0.05-0.16-0.17c0-0.88,0-1.76,0-2.65c0-0.11,0.03-0.17,0.14-0.21c1.45-0.45,2.89-0.91,4.33-1.37
	C42.01,19.07,42.06,19.06,42.13,19.05z"/>
<path class="cyborg-st2" d="M37.45,13.43c0-0.52,0-1.04,0-1.56c0-0.14,0.03-0.2,0.18-0.19c0.42,0.01,0.85-0.03,1.27,0.04
	c0.36,0.06,0.52,0.23,0.57,0.59c0.08,0.67,0.02,1.35,0.04,2.03c0,0.09-0.03,0.14-0.12,0.17c-0.6,0.22-1.19,0.43-1.79,0.66
	c-0.12,0.04-0.15,0.01-0.15-0.11C37.46,14.51,37.45,13.97,37.45,13.43z"/>
<g>
	<path class="cyborg-st0" d="M82.33,16.63c0.06,9.05-7.41,16.8-16.96,16.63c-8.95-0.16-16.47-7.58-16.28-17.01
		C49.26,7.47,56.53-0.2,66.11,0C75.05,0.19,82.37,7.55,82.33,16.63z"/>
	<radialGradient id="SVGID_1_" cx="65.709" cy="16.6314" r="16.0922" gradientUnits="userSpaceOnUse">
		<stop  offset="0" style="stop-color:#C5D77D"/>
		<stop  offset="0.5056" style="stop-color:#99BF10"/>
		<stop  offset="1" style="stop-color:#528B2B"/>
	</radialGradient>
	<path class="cyborg-st3" d="M81.8,16.63c0.04,8.8-7.12,16.06-16.03,16.1c-8.99,0.03-16.31-7.34-16.15-16.41
		C49.77,7.77,56.8,0.38,66.03,0.54C74.74,0.69,81.82,7.84,81.8,16.63z"/>
	<path class="cyborg-st0" d="M64.85,10.42c0.56-0.1,1.12-0.1,1.68,0c0.31-0.02,0.6,0.1,0.88,0.2c0.38,0.14,0.71,0.36,1.05,0.58
		c0.41,0.32,0.77,0.68,1.1,1.09c0.24,0.3,0.43,0.63,0.63,0.97c0.18,0.35,0.31,0.71,0.44,1.08c0.48,1.46,0.48,2.93,0.07,4.41
		c-0.02,0.06-0.04,0.12-0.05,0.18c-0.15,0.4-0.3,0.81-0.5,1.18c-0.19,0.32-0.38,0.64-0.62,0.93c-0.28,0.36-0.6,0.68-0.97,0.96
		c-0.48,0.37-1.01,0.64-1.59,0.81c-0.15,0.04-0.31,0.11-0.47,0.05c-0.46,0.1-0.93,0.09-1.4,0.04c-0.25,0.06-0.48-0.05-0.71-0.11
		c-0.47-0.12-0.89-0.37-1.3-0.63c-0.45-0.32-0.83-0.7-1.19-1.12c-0.24-0.26-0.39-0.59-0.59-0.88c-0.23-0.38-0.37-0.8-0.52-1.22
		c-0.02-0.06-0.03-0.12-0.06-0.17c-0.2-0.51-0.24-1.05-0.28-1.59c-0.06-0.96,0-1.91,0.32-2.83c0.16-0.36,0.28-0.75,0.46-1.1
		c0.19-0.29,0.35-0.58,0.54-0.86c0.05-0.07,0.09-0.13,0.16-0.19c0.31-0.36,0.65-0.69,1.03-0.99c0.5-0.34,1.02-0.63,1.61-0.76
		C64.67,10.42,64.76,10.39,64.85,10.42z"/>
	<path class="cyborg-st2" d="M70.38,16.63c0,1.45-0.38,2.79-1.27,3.96c-0.67,0.89-1.54,1.51-2.65,1.73c-1.24,0.25-2.35-0.08-3.31-0.86
		c-1.19-0.97-1.81-2.26-2.04-3.76c-0.23-1.52-0.01-2.97,0.74-4.32c0.66-1.18,1.59-2.05,2.93-2.39c1.3-0.33,2.47-0.01,3.49,0.82
		c1.19,0.97,1.81,2.26,2.04,3.76c0.03,0.17,0.06,0.35,0.07,0.53C70.39,16.27,70.38,16.45,70.38,16.63z"/>
</g>
</svg>
