<?xml version="1.0" encoding="iso-8859-1"?>
<!-- Generator: Adobe Illustrator 19.2.1, SVG Export Plug-In . SVG Version: 6.00 Build 0)  -->
<svg version="1.1" xmlns="http://www.w3.org/2000/svg" xmlns:xlink="http://www.w3.org/1999/xlink" x="0px" y="0px"
	 viewBox="0 0 150 21.375" style="enable-background:new 0 0 150 21.375;" xml:space="preserve">
<g id="interactie">
	<path style="fill:#1D1D1B;" d="M13.36,5.024l-2.005,2.029h-0.132v-0.64L9.858,5.024H7.963v16.351h4.274V9.298h7.801v12.077h4.276
		V8.416l-3.395-3.392H13.36z M44.086,9.298h7.801v1.763h-7.801V9.298z M43.205,5.024l-3.393,3.392v9.566l3.393,3.393h12.958V17.1
		H44.086v-1.761h12.077V8.416l-3.393-3.392H43.205z M64.981,5.024l-2.005,2.029h-0.132v-0.64l-1.363-1.389h-1.897v16.351h4.274
		V9.298h6.039V5.024H64.981z M95.28,5.024l-3.395,3.392v9.566l3.395,3.393h12.958V17.1H96.16V9.298h7.801v3.019h4.276V8.416
		l-3.393-3.392H95.28z M124.269,5.024v12.958l3.393,3.393h3.902V17.1h-3.019V5.024H124.269z M137.923,9.298h7.801v1.763h-7.801
		V9.298z M137.04,5.024l-3.393,3.392v9.566l3.393,3.393H150V17.1h-12.077v-1.761H150V8.416l-3.393-3.392H137.04z M28.402,2.005
		v3.019h-2.005v4.274h2.005v8.684l3.393,3.393h5.931V17.1h-5.048V9.298h5.048V5.024h-5.048V2.005H28.402z M112.326,2.005v3.019
		h-2.005v4.274h2.005v8.684l3.393,3.393h5.932V17.1H116.6V9.298h5.052V5.024H116.6V2.005H112.326z M0,21.375h4.276V1.016H0V21.375z
		 M75.72,10.955l4.918-4.916l4.888,4.916v1.122H75.72V10.955z M79.863,1.016l-8.418,8.416v11.943h4.274v-5.022h9.806v5.022h4.276
		V9.432l-8.416-8.416H79.863z M124.269,4.276h4.276V0h-4.276V4.276z"/>
</g>
<g id="Laag_1">
</g>
</svg>
