<?xml version="1.0" encoding="iso-8859-1"?>
<!-- Generator: Adobe Illustrator 19.2.1, SVG Export Plug-In . SVG Version: 6.00 Build 0)  -->
<svg version="1.1" xmlns="http://www.w3.org/2000/svg" xmlns:xlink="http://www.w3.org/1999/xlink" x="0px" y="0px"
	 viewBox="0 0 150 63.125" style="enable-background:new 0 0 150 63.125;" xml:space="preserve">
<g id="integraleopdrachten">
	<g>
		<path style="fill:#575756;" d="M150,12.333c0,0,0-12.333-12.333-12.333H12.333C12.333,0,0,0,0,12.333v38.458
			c0,0,0,12.333,12.333,12.333h125.333c0,0,12.333,0,12.333-12.333V12.333z"/>
		<path style="fill:#FFFFFF;" d="M136.791,23.099h-3.366c-0.083,0.878-0.438,1.129-1.337,1.129h-0.438
			c-0.983,0-1.359-0.313-1.359-1.318v-1.316h6.542v-1.694c0-3.218-1.088-4.41-4.264-4.41h-1.442c-3.178,0-4.264,1.193-4.264,4.41
			v2.215c0,3.22,1.086,4.41,4.264,4.41h1.442C135.349,26.527,136.623,25.566,136.791,23.099 M130.291,19.798v-0.481
			c0-1.276,0.271-1.672,1.379-1.672h0.44c1.127,0,1.379,0.396,1.379,1.777v0.376H130.291z M116.913,26.382h3.469V11.186h-3.469
			V26.382z M104.435,24.187c-0.689,0-1.044-0.313-1.044-0.941v-0.565c0-0.626,0.355-0.939,1.044-0.939h0.941
			c0.689,0,1.024,0.313,1.024,0.939v0.565c0,0.628-0.335,0.941-1.024,0.941H104.435z M100.423,18.376h3.408
			c0-0.626,0.313-0.773,1.066-0.773h0.584c0.689,0,0.941,0.291,0.941,0.941v2.088c-0.503-0.626-1.296-0.981-2.3-0.981h-0.941
			c-2.132,0-3.259,1.066-3.259,2.883v1.005c0,1.902,1.024,2.988,2.863,2.988h1.232c1.066,0,1.841-0.374,2.405-1.127v0.983h3.428
			v-7.358c0-2.55-1.129-3.533-4.161-3.533h-1.629C101.552,15.491,100.445,16.244,100.423,18.376 M85.708,26.382h3.408v-6.021
			c0-1.462,0.061-2.068,1.086-2.068c0.775,0,1.066,0.313,1.066,1.379v0.689h3.198V19.4c0-2.802-0.563-3.909-2.883-3.909
			c-1.296,0-2.07,0.481-2.613,1.672l0.042-1.526h-3.303V26.382z M72.311,20.194c0-1.379,0.125-2.007,1.318-2.007h0.418
			c1.191,0,1.316,0.648,1.316,2.007v1.65c0,1.359-0.125,2.007-1.316,2.007h-0.418c-1.193,0-1.318-0.626-1.318-2.007V20.194z
			 M78.623,15.638h-3.408v1.337c-0.46-0.961-1.442-1.484-2.821-1.484c-2.486,0-3.552,1.423-3.552,4.41v2.154
			c0,2.78,1.066,4.075,3.469,4.075c1.609,0,2.55-0.418,3.051-1.484v1.567c0,1.318-0.188,1.841-1.232,1.841h-0.501
			c-0.753,0-1.024-0.23-1.024-0.941h-3.283v0.606c0,1.819,1.359,2.78,3.992,2.78h1.171c1.318,0,2.508-0.46,3.115-1.046
			c0.919-0.898,1.024-2.047,1.024-3.762V15.638z M62.654,23.099H59.29c-0.083,0.878-0.44,1.129-1.337,1.129h-0.44
			c-0.983,0-1.359-0.313-1.359-1.318v-1.316h6.542v-1.694c0-3.218-1.086-4.41-4.264-4.41H56.99c-3.176,0-4.264,1.193-4.264,4.41
			v2.215c0,3.22,1.088,4.41,4.264,4.41h1.442C61.212,26.527,62.488,25.566,62.654,23.099 M56.154,19.798v-0.481
			c0-1.276,0.271-1.672,1.381-1.672h0.438c1.129,0,1.379,0.396,1.379,1.777v0.376H56.154z M41.774,26.527h1.819
			c2.278,0,3.303-1.066,3.303-3.342v-1.213h-2.843v0.898c0,0.858-0.188,1.149-1.066,1.149c-1.003,0-1.108-0.355-1.108-1.504v-4.389
			h4.557v-2.488h-4.557v-2.068h-3.406v2.068h-1.234v2.488h1.234v4.325v0.586c0,0.939,0.042,1.714,0.563,2.403
			C39.6,26.172,40.5,26.527,41.774,26.527 M21.646,26.382h3.408v-6.021c0-1.442,0.125-2.068,1.379-2.068
			c1.276,0,1.526,0.252,1.526,1.86v6.229h3.408V19.4c0-2.863-0.689-3.909-3.408-3.909c-1.504,0-2.423,0.46-3.051,1.672l0.042-1.526
			h-3.303V26.382z M11.05,13.86h3.469v-2.675H11.05V13.86z M11.05,26.382h3.469V15.64H11.05V26.382z"/>
		<path style="fill:#FFFFFF;" d="M131.544,51.464h1.589v-6.251c0-2.215,1.003-3.198,3.239-3.198c2.049,0,2.425,0.648,2.425,2.738
			v6.711h1.587v-7.045c0-2.8-0.939-3.846-3.804-3.846c-1.86,0-2.988,0.503-3.511,1.611v-1.464h-1.526V51.464z M119.484,45.046
			v-0.418c0-2.112,0.628-2.592,2.655-2.592h0.753c2.027,0,2.675,0.479,2.675,2.592v0.418H119.484z M122.159,51.61h0.753
			c2.802,0,4.117-0.899,4.285-3.303h-1.652c-0.145,1.526-0.939,1.86-2.653,1.86h-0.753c-2.09,0-2.677-0.523-2.677-2.802
			c0-0.271,0-0.584,0.022-0.919h7.733v-1.631c0-3.136-1.108-4.244-4.325-4.244h-0.753c-3.22,0-4.305,1.108-4.305,4.244v2.55
			C117.834,50.501,118.941,51.61,122.159,51.61 M105.439,42.078h1.316v5.684c0,2.823,0.753,3.848,3.283,3.848
			c2.946,0,3.865-0.606,3.865-3.848v-0.083h-1.609v0.313c0,1.672-0.376,2.175-1.965,2.175c-1.545,0-1.985-0.481-1.985-2.175v-5.914
			h5.268v-1.359h-5.268v-2.425h-1.589v2.425h-1.316V42.078z M93.003,51.464h1.589v-6.251c0-2.215,0.983-3.198,3.239-3.198
			c2.049,0,2.425,0.648,2.425,2.738v6.711h1.587v-7.045c0-2.8-0.939-3.846-3.804-3.846c-1.858,0-2.988,0.503-3.511,1.611v-5.916
			h-1.526V51.464z M83.617,51.61h0.753c3.031,0,4.305-1.068,4.305-3.909v-0.21h-1.65v0.188c0,2.007-0.711,2.488-2.675,2.488h-0.753
			c-2.362,0-2.655-0.648-2.655-3.156v-1.841c0-2.508,0.293-3.134,2.655-3.134h0.753c1.902,0,2.611,0.396,2.675,2.278h1.65
			c-0.061-2.718-1.357-3.743-4.325-3.743h-0.753c-3.22,0-4.305,1.108-4.305,4.244v2.55C79.292,50.501,80.4,51.61,83.617,51.61
			 M73.481,48.725c0,0.878-1.024,1.399-3.093,1.399c-2.195,0-2.78-0.396-2.78-2.11c0-1.547,0.606-1.902,2.611-1.902
			c2.175,0,3.261,0.418,3.261,1.484V48.725z M73.564,50.334l0.063,1.129h1.442v-7.525c0-1.276-0.042-2.132-0.858-2.76
			c-0.626-0.479-1.902-0.606-3.907-0.606c-2.738,0-3.972,0.606-3.972,2.55v0.252h1.589c0.02-1.254,0.689-1.484,2.486-1.484
			c2.508,0,3.073,0.188,3.073,2.09v1.86c-0.565-0.816-1.631-1.046-3.386-1.046c-1.65,0-2.716,0.127-3.303,0.606
			c-0.668,0.565-0.856,1.442-0.856,2.802c0,2.802,1.108,3.408,4.242,3.408C71.956,51.61,73.043,51.275,73.564,50.334 M55.192,51.464
			h1.611v-6.251c0-2.173,0.668-3.198,2.508-3.198c1.567,0,1.944,0.523,1.944,2.173v0.315h1.609v-0.085
			c0-2.758-0.753-3.846-3.176-3.846c-1.547,0-2.488,0.481-2.948,1.611v-1.464h-1.547V51.464z M48.84,46.968
			c0,2.237-0.983,3.2-3.283,3.2c-2.32,0-2.592-0.733-2.592-3.156v-1.841c0-2.425,0.271-3.156,2.592-3.156
			c2.3,0,3.283,0.963,3.283,3.198V46.968z M48.902,49.811v1.652h1.526V36.267H48.84v5.977c-0.628-1.232-1.631-1.672-3.325-1.672
			c-3.115,0-4.2,1.171-4.2,4.244v2.55c0,3.073,1.086,4.244,4.2,4.244C47.313,51.61,48.378,51.087,48.902,49.811 M29.903,46.968
			v-1.755c0-2.235,0.983-3.198,3.281-3.198c2.32,0,2.592,0.731,2.592,3.156v1.841c0,2.423-0.271,3.156-2.592,3.156
			C30.886,50.168,29.903,49.205,29.903,46.968 M28.314,40.719v14.862h1.589v-5.643c0.626,1.232,1.65,1.672,3.344,1.672
			c3.115,0,4.18-1.171,4.18-4.244v-2.55c0-3.073-1.066-4.244-4.18-4.244c-1.799,0-2.885,0.545-3.408,1.819v-1.672H28.314z
			 M17.863,37.668c1.506,0,2.572,0.02,3.408,0.731c0.753,0.648,0.814,1.694,0.814,3.303v4.327c0,1.609-0.042,2.633-0.794,3.281
			c-0.856,0.731-1.944,0.753-3.428,0.753h-0.939c-1.484,0-2.55-0.022-3.408-0.753c-0.753-0.648-0.814-1.65-0.814-3.281v-4.305
			c0-1.631,0.061-2.655,0.814-3.303c0.858-0.733,1.924-0.753,3.408-0.753H17.863z M10.966,41.284v5.163
			c0,3.909,1.421,5.205,5.476,5.205h1.924c4.054,0,5.476-1.296,5.476-5.205v-5.163c0-3.951-1.381-5.205-5.476-5.205h-1.924
			C12.387,36.079,10.966,37.375,10.966,41.284"/>
	</g>
</g>
<g id="Laag_1">
</g>
</svg>
