<?xml version="1.0" encoding="iso-8859-1"?>
<!-- Generator: Adobe Illustrator 19.2.1, SVG Export Plug-In . SVG Version: 6.00 Build 0)  -->
<svg version="1.1" xmlns="http://www.w3.org/2000/svg" xmlns:xlink="http://www.w3.org/1999/xlink" x="0px" y="0px"
	 viewBox="0 0 150 58.384" style="enable-background:new 0 0 150 58.384;" xml:space="preserve">
<g id="isee">
	<g>
		<g>
			<path style="fill:#D8CFB0;" d="M120.825,32.548c0.156-3.122,2.186-8.586,9.21-8.586c5.386,0,7.806,2.966,8.82,8.586H120.825z
				 M149.938,39.572c0.78-12.41-5.854-23.962-19.592-23.962c-12.254,0-20.606,9.21-20.606,21.308
				c0,12.49,7.884,21.232,20.606,21.232c9.132,0,15.766-4.06,18.888-13.582h-9.756c-0.702,2.498-4.292,5.23-8.742,5.23
				c-6.166,0-9.6-3.2-9.912-10.226H149.938z M76.023,32.548c0.156-3.122,2.186-8.586,9.21-8.586c5.386,0,7.806,2.966,8.82,8.586
				H76.023z M105.137,39.572c0.78-12.41-5.854-23.962-19.592-23.962c-12.254,0-20.606,9.21-20.606,21.308
				c0,12.49,7.884,21.232,20.606,21.232c9.132,0,15.766-4.06,18.888-13.582h-9.756c-0.702,2.498-4.292,5.23-8.742,5.23
				c-6.166,0-9.6-3.2-9.912-10.226H105.137z M13.893,38.558c-0.156,13.738,11.396,19.826,23.728,19.826
				c15.142,0,23.182-7.65,23.182-17.874c0-12.646-12.488-15.222-16.548-16.236c-13.97-3.59-16.624-4.136-16.624-8.43
				c0-4.682,4.526-6.322,8.43-6.322c5.854,0,10.614,1.718,11.004,8.43h11.864C58.929,5.074,48.237,0,36.607,0
				c-10.07,0-20.84,5.464-20.84,16.86c0,10.458,8.35,13.658,16.624,15.844c8.196,2.186,16.548,3.2,16.548,9.21
				c0,5.698-6.556,6.948-10.85,6.948c-6.556,0-12.332-2.888-12.332-10.304H13.893z"/>
		</g>
		<path style="fill:#3F8091;" d="M0,57.057h4.918v-41.38H0V57.057z M0,7.367h4.918V2.064H0V7.367z"/>
	</g>
</g>
<g id="Laag_1">
</g>
</svg>
