<?xml version="1.0" encoding="iso-8859-1"?>
<!-- Generator: Adobe Illustrator 19.2.1, SVG Export Plug-In . SVG Version: 6.00 Build 0)  -->
<svg version="1.1" xmlns="http://www.w3.org/2000/svg" xmlns:xlink="http://www.w3.org/1999/xlink" x="0px" y="0px"
	 viewBox="0 0 118.452 66.509" style="enable-background:new 0 0 118.452 66.509;" xml:space="preserve">
<g id="kapitaal">
	<g>
		<polygon style="fill:#F09024;" points="11.961,34.976 2.018,30.102 2.018,33.608 11.737,38.195 2.018,38.195 2.018,41.702 
			24.323,41.702 24.323,38.195 17.473,38.195 15.433,37.111 24.323,33.702 24.323,30.102 		"/>
		<path style="fill:#F09024;" d="M5.97,23.477l11.279-1.689v3.376L5.97,23.477z M2.018,20.736v5.13l22.305,3.57v-3.219l-4.048-0.604
			V21.31l4.048-0.604v-3.537L2.018,20.736z"/>
		<g>
			<path style="fill:#F09024;" d="M5.205,12.041h7.552v-1.656c0-1.115-0.511-1.722-2.104-1.722H7.309
				c-1.593,0-2.104,0.607-2.104,1.722V12.041z M7.531,5.159h2.9c3.568,0,5.512,1.719,5.512,5.226v1.656h8.379v3.504H2.02v-5.161
				C2.02,6.878,3.962,5.159,7.531,5.159"/>
		</g>
		<rect x="2.018" y="0.031" style="fill:#F09024;" width="22.305" height="3.504"/>
		<polygon style="fill:#F09024;" points="26.372,0 26.372,5.916 33.176,5.916 33.176,41.416 39.685,41.416 39.685,5.916 
			46.491,5.916 46.491,0 		"/>
		<path style="fill:#F09024;" d="M54.948,7.334l3.136,20.946h-6.269L54.948,7.334z M50.512,0l-6.627,41.416h5.975l1.126-7.513h7.986
			l1.124,7.513h6.568L60.037,0H50.512z"/>
		<path style="fill:#F09024;" d="M79.027,7.334l3.136,20.946h-6.269L79.027,7.334z M74.591,0l-6.627,41.416h5.975l1.126-7.513h7.986
			l1.126,7.513h6.566L84.118,0H74.591z"/>
		<polygon style="fill:#F09024;" points="92.28,0 92.28,41.416 109.496,41.416 109.496,35.498 98.789,35.498 98.789,0 		"/>
		<g>
			<path style="fill:#F09024;" d="M118.242,33.807c-0.083-0.399-0.216-0.81-0.419-1.226c-0.159-0.36-0.388-0.72-0.685-1.08
				c-0.323-0.377-0.642-0.676-0.96-0.897c-0.397-0.26-0.788-0.458-1.167-0.598c-0.399-0.14-0.818-0.231-1.257-0.268
				c-0.382-0.022-0.799,0-1.259,0.061c-0.216,0.037-0.423,0.081-0.613,0.133c-0.185,0.05-0.382,0.116-0.585,0.194
				c-0.199,0.098-0.384,0.194-0.567,0.284c-0.179,0.089-0.358,0.194-0.537,0.314c-0.081,0.059-0.157,0.127-0.24,0.196
				c-0.081,0.068-0.157,0.135-0.24,0.192l-0.447,0.452c-0.24,0.26-0.487,0.587-0.751,0.986l-0.268,0.539
				c-0.037,0.037-0.065,0.085-0.074,0.133c-0.007,0.05-0.037,0.096-0.074,0.135l-0.061,0.148l-0.031,0.092l-0.028,0.057
				c-0.1,0.281-1.407,3.753-1.46,4.041c-0.936,5.058,2.2-3.463,2.296-3.74l0.033-0.118c0.02-0.022,0.028-0.039,0.028-0.063
				c0-0.02,0.009-0.037,0.033-0.057c0.035-0.12,0.079-0.203,0.118-0.24c0.039-0.1,0.081-0.185,0.12-0.255
				c0.037-0.07,0.081-0.142,0.12-0.225c0.157-0.277,0.367-0.567,0.631-0.868c0.515-0.537,1.095-0.925,1.733-1.165
				c0.36-0.14,0.698-0.218,1.019-0.24c0.157-0.037,0.327-0.052,0.508-0.044c0.179,0.009,0.349,0.024,0.511,0.044
				c0.676,0.083,1.294,0.34,1.85,0.777c0.281,0.24,0.508,0.48,0.692,0.72c0.157,0.26,0.31,0.546,0.45,0.868
				c0.14,0.319,0.216,0.648,0.24,0.986c0.017,0.338,0.05,0.679,0.087,1.017v0.465v0.657c0,0.231-0.009,0.456-0.028,0.674
				c-0.022,0.218-0.041,0.367-0.059,0.45c-0.024,0.098-0.037,0.19-0.048,0.268c-0.009,0.081-0.022,0.157-0.046,0.24
				c-0.037,0.098-0.063,0.19-0.074,0.268c-0.009,0.081-0.035,0.161-0.072,0.24c-0.181,0.637-0.48,1.235-0.901,1.796
				c-0.199,0.277-0.417,0.539-0.657,0.777c-0.24,0.24-0.5,0.471-0.777,0.687c-0.517,0.402-1.108,0.79-1.767,1.17
				c-0.319,0.157-0.637,0.319-0.956,0.478c-0.321,0.159-0.65,0.308-0.988,0.447c-0.336,0.142-0.681,0.271-1.032,0.388
				c-0.351,0.12-0.705,0.24-1.065,0.36c-0.694,0.218-1.405,0.408-2.123,0.57c-0.716,0.159-1.447,0.319-2.182,0.48
				c-0.742,0.14-1.477,0.26-2.217,0.356c-0.74,0.1-1.488,0.201-2.245,0.301c-0.738,0.1-1.482,0.179-2.228,0.24
				c-0.751,0.059-1.503,0.111-2.261,0.148c-1.497,0.083-3.003,0.142-4.519,0.179c-3.033,0.061-6.066,0.033-9.101-0.087
				c-3.07-0.12-6.101-0.301-9.095-0.541c-0.397-0.039-0.783-0.074-1.15-0.105c-0.369-0.031-0.742-0.065-1.122-0.103l-1.141-0.092
				l-0.297-0.028l-0.301-0.033l-0.567-0.059c-0.779-0.081-1.565-0.148-2.35-0.209c-0.786-0.059-1.571-0.129-2.346-0.207
				l-2.339-0.181c-0.397-0.037-0.79-0.063-1.181-0.074c-0.388-0.011-0.783-0.037-1.181-0.074c-0.397-0.039-0.79-0.072-1.17-0.092
				s-0.768-0.037-1.167-0.059l-2.363-0.148c-1.578-0.1-3.149-0.181-4.713-0.24c-1.565-0.061-3.149-0.111-4.744-0.151
				c-0.397-0.022-0.799-0.037-1.198-0.044c-0.399-0.009-0.799-0.015-1.196-0.015c-0.397-0.022-0.792-0.035-1.185-0.044
				c-0.384-0.009-0.781-0.017-1.181-0.017c-0.397,0-0.801-0.007-1.198-0.015c-0.397-0.009-0.799-0.015-1.196-0.015h-2.394h-1.198
				h-1.226c-0.397,0.022-0.799,0.031-1.198,0.031c-0.397,0-0.799,0.011-1.196,0.033c-0.397,0-0.805,0.004-1.213,0.013
				s-0.812,0.024-1.211,0.044H27.01c-0.19,0-0.397,0.009-0.613,0.031c-0.203,0-0.397,0.004-0.6,0.017
				c-0.201,0.009-0.412,0.022-0.628,0.044c-1.615,0.059-3.24,0.142-4.879,0.253c-1.637,0.111-3.301,0.255-4.999,0.432
				c-0.439,0.041-0.864,0.085-1.285,0.137c-0.419,0.05-0.836,0.094-1.257,0.135c-0.417,0.059-0.842,0.12-1.27,0.179
				c-0.432,0.061-0.864,0.12-1.303,0.177c-0.419,0.061-0.844,0.127-1.274,0.196c-0.426,0.07-0.858,0.144-1.298,0.225
				c-0.443,0.079-0.877,0.157-1.32,0.24c-0.436,0.079-0.888,0.17-1.344,0.268c-0.801,0.159-1.606,0.34-2.426,0.537
				C1.693,47.292,0.858,47.51,0,47.75c2.156,0.618,4.172,1.517,6.062,2.69c1.881,1.178,3.583,2.581,5.084,4.207
				c1.508,1.623,2.806,3.439,3.893,5.446c1.087,2.003,1.909,4.142,2.468,6.415c0.122-0.037,0.233-0.089,0.345-0.148
				c0.109-0.061,0.225-0.111,0.345-0.148c0.321-0.144,0.633-0.279,0.94-0.408c0.31-0.127,0.637-0.262,0.975-0.402
				c0.336-0.142,0.672-0.275,0.999-0.404c0.332-0.129,0.668-0.264,1.006-0.404c0.336-0.12,0.672-0.244,0.999-0.373
				c0.329-0.129,0.666-0.255,1.006-0.375l2.064-0.718c0.338-0.1,0.683-0.212,1.034-0.329c0.347-0.122,0.692-0.231,1.028-0.329
				c0.181-0.061,0.362-0.118,0.541-0.181c0.179-0.057,0.36-0.109,0.537-0.148c0.161-0.061,0.332-0.12,0.513-0.179
				c0.175-0.061,0.356-0.109,0.537-0.151c0.34-0.096,0.687-0.203,1.047-0.312c0.358-0.111,0.718-0.218,1.076-0.316
				c0.362-0.098,0.718-0.199,1.08-0.297c0.356-0.1,0.716-0.203,1.076-0.303l1.076-0.268c0.181-0.059,0.362-0.113,0.539-0.164
				c0.179-0.048,0.36-0.096,0.539-0.133c0.36-0.1,0.72-0.19,1.078-0.268c0.358-0.083,0.724-0.175,1.106-0.271
				c0.362-0.098,0.718-0.19,1.08-0.271c0.358-0.079,0.724-0.159,1.104-0.238c0.36-0.098,0.724-0.185,1.093-0.257
				c0.369-0.065,0.735-0.155,1.093-0.253c0.38-0.079,0.748-0.155,1.106-0.223c0.362-0.07,0.729-0.157,1.108-0.253
				c1.475-0.301,2.955-0.585,4.443-0.853c1.488-0.271,2.979-0.535,4.475-0.796c0.36-0.057,0.724-0.12,1.093-0.177
				c0.369-0.063,0.742-0.12,1.122-0.179c0.38-0.061,0.757-0.12,1.137-0.181c0.38-0.059,0.757-0.12,1.137-0.179
				c0.382-0.039,0.755-0.089,1.124-0.151c0.367-0.059,0.74-0.109,1.122-0.151c0.38-0.057,0.753-0.113,1.122-0.164
				c0.369-0.048,0.744-0.096,1.124-0.133c0.757-0.1,1.51-0.196,2.258-0.284c0.746-0.089,1.501-0.175,2.263-0.255l0.565-0.061
				l0.271-0.028l0.297-0.031l1.17-0.089l2.33-0.24c1.56-0.157,3.105-0.321,4.643-0.478c1.534-0.159,3.079-0.34,4.637-0.539
				c1.558-0.201,3.103-0.404,4.639-0.613c1.536-0.209,3.083-0.445,4.641-0.705c1.554-0.277,3.094-0.561,4.624-0.853
				c1.525-0.288,3.064-0.622,4.624-1.002c0.753-0.199,1.512-0.397,2.272-0.596c0.757-0.203,1.517-0.421,2.274-0.661
				s1.506-0.493,2.245-0.762c0.74-0.271,1.488-0.561,2.243-0.884c0.36-0.157,0.72-0.323,1.078-0.493
				c0.362-0.17,0.718-0.345,1.078-0.524c0.36-0.201,0.714-0.404,1.06-0.613c0.351-0.209,0.696-0.423,1.034-0.644
				c0.338-0.238,0.672-0.487,1.004-0.746c0.329-0.262,0.642-0.53,0.943-0.81c0.62-0.596,1.146-1.257,1.584-1.975
				c0.264-0.382,0.458-0.757,0.598-1.137c0.179-0.399,0.308-0.816,0.391-1.257c0.039-0.1,0.068-0.203,0.076-0.314
				c0.009-0.109,0.024-0.216,0.044-0.314c0.02-0.1,0.031-0.199,0.031-0.299c0-0.098,0.007-0.201,0.031-0.301
				c0.02-0.118,0.028-0.281,0.028-0.493v-0.672v-0.705c0-0.227-0.009-0.423-0.028-0.58
				C118.382,34.642,118.323,34.226,118.242,33.807"/>
		</g>
	</g>
</g>
<g id="Laag_1">
</g>
</svg>
