<?xml version="1.0" encoding="iso-8859-1"?>
<!-- Generator: Adobe Illustrator 19.2.1, SVG Export Plug-In . SVG Version: 6.00 Build 0)  -->
<svg version="1.1" xmlns="http://www.w3.org/2000/svg" xmlns:xlink="http://www.w3.org/1999/xlink" x="0px" y="0px"
	 viewBox="0 0 66.509 66.509" style="enable-background:new 0 0 66.509 66.509;" xml:space="preserve">
<g id="leesleerenleef">
	<g>
		<g>
			<path style="fill:#302A4F;" d="M33.255,66.509c18.366,0,33.255-14.888,33.255-33.255S51.621,0,33.255,0S0,14.888,0,33.255
				S14.888,66.509,33.255,66.509"/>
			<g>
				<path style="fill:#FFFFFF;" d="M17.171,26.433c0,0.628,0.223,0.893,1.075,0.893c1.619,0,2.987-1.145,3.574-2.513
					c0.293-0.684,0.251-0.865,0.405-0.865c0.07,0,0.112,0.042,0.112,0.126c0,0.07-0.056,0.349-0.126,0.614l-0.726,2.974
					c-1.536-0.014-3.155-0.028-4.984-0.028c-1.047,0-1.382,0.028-1.717,0.028c-0.126,0-0.181-0.084-0.181-0.168
					c0-0.433,1.228,0.154,1.228-1.061V19.37c0-1.214-1.228-0.628-1.228-1.061c0-0.084,0.056-0.168,0.181-0.168
					c0.335,0,0.67,0.028,1.717,0.028c1.047,0,1.382-0.028,1.717-0.028c0.126,0,0.182,0.084,0.182,0.168
					c0,0.433-1.229-0.154-1.229,1.061V26.433z"/>
				<path style="fill:#FFFFFF;" d="M24.388,24.144c0.028,1.396,0.642,2.625,2.387,2.625c0.6,0,1.033-0.14,1.438-0.419
					c0.502-0.349,0.53-0.726,0.698-0.726c0.084,0,0.126,0.056,0.126,0.154c0,0.265-0.67,1.968-2.806,1.968
					c-1.661,0-3.099-1.326-3.099-3.183c0-1.703,1.27-3.378,3.183-3.378c1.815,0,2.708,1.494,2.708,2.959H24.388z M27.766,23.809
					c0-1.717-0.53-2.373-1.466-2.373c-1.005,0-1.913,1.047-1.94,2.373H27.766z"/>
				<path style="fill:#FFFFFF;" d="M31.368,24.144c0.028,1.396,0.642,2.625,2.387,2.625c0.6,0,1.033-0.14,1.438-0.419
					c0.502-0.349,0.53-0.726,0.698-0.726c0.084,0,0.126,0.056,0.126,0.154c0,0.265-0.67,1.968-2.806,1.968
					c-1.661,0-3.099-1.326-3.099-3.183c0-1.703,1.27-3.378,3.183-3.378c1.815,0,2.708,1.494,2.708,2.959H31.368z M34.747,23.809
					c0-1.717-0.531-2.373-1.466-2.373c-1.005,0-1.913,1.047-1.94,2.373H34.747z"/>
				<path style="fill:#FFFFFF;" d="M39.521,21.184c0.642,0,1.536,0.195,2.01,0.419v1.787c0,0.112-0.042,0.154-0.112,0.154
					c-0.111,0-0.111-0.126-0.195-0.363c-0.321-0.893-0.796-1.745-1.885-1.745c-0.572,0-1.019,0.321-1.019,1.019
					c0,1.396,3.63,1.438,3.63,3.378c0,1.047-0.824,1.913-2.568,1.913c-0.768,0-1.438-0.084-2.206-0.349v-2.052
					c0-0.167,0.042-0.251,0.126-0.251c0.07,0,0.126,0.07,0.238,0.433c0.377,1.214,1.159,1.968,2.15,1.968
					c0.852,0,1.201-0.614,1.201-1.186c0-1.424-3.63-1.242-3.63-3.322C37.26,22.05,38.069,21.184,39.521,21.184z"/>
				<path style="fill:#FFFFFF;" d="M44.49,26.266c0.656,0,1.033,0.572,1.033,1.312c0,1.215-1.242,2.68-1.591,2.68
					c-0.07,0-0.14-0.014-0.14-0.111c0-0.251,1.061-0.921,1.061-1.941c0-0.223-0.028-0.433-0.238-0.489
					c-0.307-0.084-0.935-0.07-0.935-0.712C43.681,26.629,43.96,26.266,44.49,26.266z"/>
			</g>
			<g>
				<path style="fill:#FFFFFF;" d="M17.171,36.553c0,0.628,0.223,0.893,1.075,0.893c1.619,0,2.987-1.145,3.574-2.512
					c0.293-0.684,0.251-0.866,0.405-0.866c0.07,0,0.112,0.042,0.112,0.126c0,0.07-0.056,0.349-0.126,0.615l-0.726,2.973
					c-1.536-0.014-3.155-0.028-4.984-0.028c-1.047,0-1.382,0.028-1.717,0.028c-0.126,0-0.181-0.084-0.181-0.167
					c0-0.433,1.228,0.153,1.228-1.061V29.49c0-1.214-1.228-0.628-1.228-1.061c0-0.084,0.056-0.168,0.181-0.168
					c0.335,0,0.67,0.028,1.717,0.028c1.047,0,1.382-0.028,1.717-0.028c0.126,0,0.182,0.084,0.182,0.168
					c0,0.433-1.229-0.154-1.229,1.061V36.553z"/>
				<path style="fill:#FFFFFF;" d="M24.388,34.264c0.028,1.396,0.642,2.624,2.387,2.624c0.6,0,1.033-0.14,1.438-0.419
					c0.502-0.349,0.53-0.726,0.698-0.726c0.084,0,0.126,0.056,0.126,0.154c0,0.265-0.67,1.968-2.806,1.968
					c-1.661,0-3.099-1.326-3.099-3.183c0-1.703,1.27-3.378,3.183-3.378c1.815,0,2.708,1.494,2.708,2.96H24.388z M27.766,33.929
					c0-1.717-0.53-2.373-1.466-2.373c-1.005,0-1.913,1.047-1.94,2.373H27.766z"/>
				<path style="fill:#FFFFFF;" d="M31.368,34.264c0.028,1.396,0.642,2.624,2.387,2.624c0.6,0,1.033-0.14,1.438-0.419
					c0.502-0.349,0.53-0.726,0.698-0.726c0.084,0,0.126,0.056,0.126,0.154c0,0.265-0.67,1.968-2.806,1.968
					c-1.661,0-3.099-1.326-3.099-3.183c0-1.703,1.27-3.378,3.183-3.378c1.815,0,2.708,1.494,2.708,2.96H31.368z M34.747,33.929
					c0-1.717-0.531-2.373-1.466-2.373c-1.005,0-1.913,1.047-1.94,2.373H34.747z"/>
				<path style="fill:#FFFFFF;" d="M38.125,32.98c0-0.991-1.089-0.6-1.089-0.949c0-0.251,0.809-0.07,2.345-0.726v1.815h0.027
					c0.642-1.48,1.27-1.815,1.885-1.815c0.559,0,0.866,0.279,0.866,0.754c0,0.447-0.322,0.67-0.712,0.67
					c-0.475,0-0.419-0.335-0.935-0.335c-0.586,0-1.131,0.921-1.131,2.443v1.94c0,0.88,1.033,0.461,1.033,0.838
					c0,0.126-0.07,0.167-0.223,0.167c-0.349,0-0.67-0.028-1.438-0.028s-1.089,0.028-1.438,0.028c-0.154,0-0.223-0.042-0.223-0.167
					c0-0.377,1.033,0.042,1.033-0.838V32.98z"/>
			</g>
		</g>
		<g>
			<path style="fill:#FFFFFF;" d="M15.434,45.244c0.021,1.058,0.486,1.989,1.809,1.989c0.455,0,0.783-0.106,1.09-0.317
				c0.381-0.265,0.402-0.55,0.529-0.55c0.064,0,0.095,0.042,0.095,0.116c0,0.201-0.508,1.491-2.126,1.491
				c-1.259,0-2.348-1.005-2.348-2.411c0-1.291,0.963-2.56,2.412-2.56c1.375,0,2.052,1.132,2.052,2.242H15.434z M17.994,44.99
				c0-1.301-0.402-1.798-1.11-1.798c-0.762,0-1.449,0.793-1.47,1.798H17.994z"/>
			<path style="fill:#FFFFFF;" d="M21.399,43.975c0.508-0.381,1.206-0.973,1.999-0.973c0.857,0,1.195,0.465,1.195,1.09v3.057
				c0,0.666,0.783,0.349,0.783,0.635c0,0.095-0.053,0.127-0.169,0.127c-0.265,0-0.508-0.021-1.09-0.021
				c-0.582,0-0.825,0.021-1.09,0.021c-0.116,0-0.169-0.032-0.169-0.127c0-0.286,0.783,0.031,0.783-0.635V44.25
				c0-0.444-0.18-0.698-0.719-0.698c-0.603,0-1.015,0.254-1.523,0.719v2.877c0,0.666,0.783,0.349,0.783,0.635
				c0,0.095-0.053,0.127-0.169,0.127c-0.264,0-0.508-0.021-1.089-0.021c-0.582,0-0.825,0.021-1.09,0.021
				c-0.116,0-0.169-0.032-0.169-0.127c0-0.286,0.783,0.031,0.783-0.635v-2.919c0-0.709-0.783-0.413-0.783-0.656
				c0-0.19,0.286-0.011,1.735-0.571V43.975z"/>
		</g>
		<g>
			<path style="fill:#FFFFFF;" d="M30.951,46.687c0,0.628,0.223,0.893,1.075,0.893c1.619,0,2.987-1.145,3.573-2.512
				c0.294-0.684,0.251-0.866,0.405-0.866c0.07,0,0.112,0.042,0.112,0.126c0,0.07-0.056,0.349-0.126,0.615l-0.726,2.973
				c-1.536-0.014-3.155-0.028-4.984-0.028c-1.047,0-1.382,0.028-1.717,0.028c-0.126,0-0.182-0.084-0.182-0.167
				c0-0.433,1.229,0.153,1.229-1.061v-7.063c0-1.214-1.229-0.628-1.229-1.061c0-0.084,0.056-0.168,0.182-0.168
				c0.335,0,0.67,0.028,1.717,0.028c1.047,0,1.382-0.028,1.717-0.028c0.126,0,0.181,0.084,0.181,0.168
				c0,0.432-1.228-0.154-1.228,1.061V46.687z"/>
			<path style="fill:#FFFFFF;" d="M38.168,44.398c0.028,1.396,0.642,2.624,2.387,2.624c0.6,0,1.033-0.14,1.438-0.419
				c0.503-0.349,0.531-0.726,0.698-0.726c0.083,0,0.126,0.056,0.126,0.154c0,0.265-0.67,1.968-2.806,1.968
				c-1.661,0-3.099-1.326-3.099-3.183c0-1.703,1.27-3.378,3.182-3.378c1.815,0,2.708,1.494,2.708,2.96H38.168z M41.547,44.063
				c0-1.717-0.531-2.373-1.466-2.373c-1.005,0-1.913,1.047-1.941,2.373H41.547z"/>
			<path style="fill:#FFFFFF;" d="M45.148,44.398c0.028,1.396,0.642,2.624,2.387,2.624c0.6,0,1.033-0.14,1.438-0.419
				c0.503-0.349,0.531-0.726,0.698-0.726c0.084,0,0.126,0.056,0.126,0.154c0,0.265-0.67,1.968-2.806,1.968
				c-1.661,0-3.099-1.326-3.099-3.183c0-1.703,1.27-3.378,3.183-3.378c1.814,0,2.708,1.494,2.708,2.96H45.148z M48.527,44.063
				c0-1.717-0.531-2.373-1.466-2.373c-1.005,0-1.913,1.047-1.941,2.373H48.527z"/>
			<path style="fill:#FFFFFF;" d="M54.166,42.165h-1.284v4.746c0,0.88,1.033,0.461,1.033,0.838c0,0.126-0.07,0.167-0.223,0.167
				c-0.349,0-0.67-0.028-1.438-0.028c-0.768,0-1.089,0.028-1.438,0.028c-0.154,0-0.223-0.042-0.223-0.167
				c0-0.377,1.033,0.042,1.033-0.838v-4.746h-1.033c0.754-0.279,0.949-0.698,1.438-2.471c0.321-1.2,0.782-2.303,1.759-2.303
				c0.768,0,1.131,0.558,1.131,1.145c0,0.558-0.321,0.935-0.712,0.935c-0.293,0-0.544-0.195-0.544-0.712
				c0-0.279,0.112-0.488,0.112-0.67c0-0.195-0.112-0.363-0.335-0.363c-0.502,0-0.809,0.865-0.809,1.661
				c0,0.782,0.167,1.508,0.251,2.163h1.48L54.166,42.165z"/>
		</g>
	</g>
</g>
<g id="Laag_1">
</g>
</svg>
