<?xml version="1.0" encoding="iso-8859-1"?>
<!-- Generator: Adobe Illustrator 19.2.1, SVG Export Plug-In . SVG Version: 6.00 Build 0)  -->
<svg version="1.1" xmlns="http://www.w3.org/2000/svg" xmlns:xlink="http://www.w3.org/1999/xlink" x="0px" y="0px"
	 viewBox="0 0 109.17 66.622" style="enable-background:new 0 0 109.17 66.622;" xml:space="preserve">
<g id="nando">
	<g>
		
			<polygon style="fill-rule:evenodd;clip-rule:evenodd;fill:#2F5EA8;stroke:#FFFFFF;stroke-width:0.172;stroke-miterlimit:10;" points="
			103.244,24.343 108.346,28.191 103.184,32.022 100.864,26.911 		"/>
		
			<polygon style="fill-rule:evenodd;clip-rule:evenodd;fill:#00A69A;stroke:#FFFFFF;stroke-width:0.1147;stroke-miterlimit:10;" points="
			108.903,33.071 103.216,32.066 108.379,28.235 		"/>
		
			<polygon style="fill-rule:evenodd;clip-rule:evenodd;fill:#EA1C24;stroke:#FFFFFF;stroke-width:0.172;stroke-miterlimit:10;" points="
			106.137,38.251 101.324,37.088 108.909,33.066 		"/>
		<g>
			<path style="fill:#231F20;" d="M6.704,2.71C6.674,2.815,6.658,2.886,6.658,2.923l0.037,0.222c0.148,0.37,0.277,0.848,0.388,1.434
				c0.111,0.586,0.191,0.971,0.24,1.156c0.074,0.271,0.154,0.53,0.241,0.777c0.086,0.247,0.166,0.499,0.24,0.758
				c0.099,0.321,0.176,0.657,0.231,1.008c0.055,0.351,0.139,0.681,0.25,0.99c0.247,0.863,0.459,1.693,0.638,2.488
				s0.379,1.6,0.601,2.414v0.093c0,0.025,0.006,0.049,0.019,0.074c0,0.259,0.009,0.512,0.028,0.758
				c0.018,0.247,0.028,0.5,0.028,0.758c0,0.518,0.065,1.033,0.194,1.545c0.13,0.512,0.262,1.014,0.398,1.508
				c0.111,0.444,0.21,0.882,0.296,1.313c0.086,0.432,0.203,0.863,0.352,1.295c0.197,0.592,0.466,1.165,0.805,1.72
				c0.339,0.555,0.595,1.141,0.768,1.757c0-0.851,0.031-1.705,0.093-2.562c0.062-0.857,0.099-1.717,0.111-2.581v-0.86
				c0-0.278,0.018-0.564,0.055-0.86c0.025-0.234,0.049-0.561,0.074-0.98c0.012-0.469,0.009-0.95-0.009-1.443
				c-0.018-0.493-0.022-0.98-0.009-1.461c0-0.555,0.028-1.113,0.083-1.674c0.055-0.561,0.083-1.125,0.083-1.693
				c-0.012-0.715-0.099-1.489-0.259-2.322c-0.16-0.832-0.185-1.6-0.074-2.303c0.012-0.086,0.015-0.21,0.009-0.37
				c-0.006-0.16-0.009-0.296-0.009-0.407c-0.025-0.321-0.068-0.62-0.13-0.897c-0.062-0.277-0.111-0.57-0.148-0.879
				c-0.025-0.111-0.037-0.271-0.037-0.481c0-0.21-0.019-0.352-0.055-0.425c-0.037-0.074,0.068-0.16,0.314-0.259
				c0.247-0.099,0.395-0.16,0.444-0.185c0.567-0.222,0.956-0.117,1.165,0.314c0,0.037-0.018,0.102-0.055,0.194
				c-0.037,0.093-0.049,0.151-0.037,0.176c0.074,0.493,0.136,1.079,0.185,1.757c0.012,0.185,0.015,0.361,0.009,0.527
				c-0.006,0.166-0.003,0.33,0.009,0.49c0,0.148,0.003,0.29,0.009,0.425c0.006,0.136,0.009,0.271,0.009,0.407v1.165v1.147
				c0,0.148-0.006,0.293-0.018,0.435c-0.012,0.142-0.019,0.287-0.019,0.435c0,0.099,0.012,0.194,0.037,0.287
				c0.025,0.092,0.037,0.182,0.037,0.268c0,0.777-0.046,1.554-0.139,2.331c-0.093,0.777-0.12,1.554-0.083,2.331
				c0,0.358,0.006,0.715,0.019,1.073c0.012,0.358,0.025,0.709,0.037,1.054c0.049,1.369,0.068,2.725,0.056,4.07
				c-0.012,0.173-0.043,0.345-0.093,0.518c-0.049,0.173-0.074,0.339-0.074,0.499c0,0.185,0.015,0.364,0.046,0.536
				c0.031,0.173,0.046,0.345,0.046,0.518c0,0.444-0.025,0.888-0.074,1.332c-0.049,0.444-0.074,0.882-0.074,1.313
				c0,0.136-0.012,0.339-0.037,0.61c-0.025,0.37-0.062,0.734-0.111,1.091c-0.049,0.358-0.074,0.721-0.074,1.091
				c0,0.173,0.012,0.345,0.037,0.518c0.025,0.173,0.043,0.339,0.055,0.499v0.046v0.028c0.037,0.271,0.031,0.481-0.018,0.629
				l0.018,0.055c0.111,0.666-0.154,1.03-0.795,1.091c-0.259,0.025-0.506-0.142-0.74-0.499c-0.234-0.358-0.37-0.641-0.407-0.851
				c-0.025-0.062-0.022-0.157,0.009-0.287c0.031-0.13,0.046-0.231,0.046-0.305c-0.185-0.851-0.382-1.603-0.592-2.257
				c-0.062-0.173-0.111-0.348-0.148-0.527c-0.037-0.179-0.086-0.361-0.148-0.546c-0.049-0.123-0.096-0.25-0.139-0.379
				c-0.043-0.129-0.083-0.262-0.12-0.398c-0.123-0.333-0.241-0.672-0.352-1.017l-0.333-1.036c-0.037-0.111-0.074-0.228-0.111-0.352
				l-0.111-0.37c-0.025-0.074-0.062-0.145-0.111-0.213c-0.049-0.068-0.086-0.139-0.111-0.213c-0.21-0.604-0.367-1.221-0.472-1.85
				s-0.25-1.252-0.435-1.868c-0.197-0.691-0.37-1.397-0.518-2.118c-0.148-0.721-0.228-1.446-0.24-2.174
				c0.012,0.222,0,0.253-0.037,0.092c-0.037-0.16-0.062-0.271-0.074-0.333c-0.037-0.111-0.049-0.234-0.037-0.37
				c0.012-0.136,0-0.271-0.037-0.407c-0.049-0.173-0.12-0.345-0.213-0.518c-0.092-0.173-0.157-0.352-0.194-0.536
				c-0.111-0.382-0.213-0.774-0.305-1.175C7,10.708,6.911,10.304,6.825,9.897v0.074c-0.012,0.086-0.006,0.176,0.018,0.268
				c0.025,0.093,0.037,0.182,0.037,0.268c-0.025,0.765-0.083,1.526-0.176,2.285C6.612,13.55,6.578,14.3,6.603,15.04
				c0.012,1.147,0.028,2.291,0.046,3.432c0.018,1.141,0.015,2.285-0.009,3.432c-0.012,0.197-0.043,0.395-0.093,0.592
				c-0.049,0.197-0.074,0.388-0.074,0.573c0,0.197,0.019,0.398,0.056,0.601c0.037,0.203,0.055,0.398,0.055,0.583
				c-0.012,0.456-0.043,0.922-0.093,1.397c-0.049,0.475-0.062,0.94-0.037,1.397c0,0.259-0.025,0.586-0.074,0.98
				c-0.049,0.395-0.055,0.691-0.019,0.888v0.009v0.009c0.099,0.617,0.16,1.048,0.185,1.295c0,0.012,0.003,0.028,0.009,0.046
				l0.009,0.028c0.074,0.358,0.037,0.654-0.111,0.888c-0.037,0.086-0.105,0.179-0.203,0.277c-0.049,0.025-0.086,0.049-0.111,0.074
				c-0.284,0.234-0.635,0.173-1.054-0.185c0.049,0,0-0.037-0.148-0.111l-0.055-0.166c-0.037-0.037-0.059-0.163-0.065-0.379
				c-0.006-0.216-0.009-0.355-0.009-0.416V29.57c0-0.388,0.012-0.607,0.037-0.657c0.025-0.074,0.037-0.277,0.037-0.61
				c0-0.148-0.012-0.287-0.037-0.416c-0.025-0.129-0.037-0.274-0.037-0.435c-0.012-0.185,0-0.385,0.037-0.601
				c0.037-0.216,0.055-0.422,0.055-0.62c-0.037-0.987-0.018-1.976,0.055-2.969c0.074-0.993,0.123-1.989,0.148-2.988
				c0-0.333,0.003-0.672,0.009-1.017c0.006-0.345,0.028-0.691,0.065-1.036c0.074-0.654,0.105-1.31,0.093-1.97
				c-0.012-0.66-0.012-1.323,0-1.989c0.012-0.543,0.049-1.085,0.111-1.628c0.062-0.543,0.093-1.091,0.093-1.646
				c0-0.728-0.074-1.501-0.222-2.322s-0.16-1.588-0.037-2.303c0.012-0.086,0.015-0.216,0.009-0.388
				C5.218,5.802,5.215,5.661,5.215,5.55C5.191,5.217,5.147,4.899,5.086,4.597c-0.062-0.302-0.111-0.62-0.148-0.953
				c-0.025-0.148-0.04-0.333-0.046-0.555S4.864,2.689,4.827,2.553c-0.062-0.136,0.022-0.259,0.25-0.37
				c0.228-0.111,0.392-0.185,0.49-0.222c0.617-0.21,1.011-0.031,1.184,0.536C6.751,2.534,6.735,2.605,6.704,2.71z"/>
			<path style="fill:#231F20;" d="M19.474,21.847c-0.037,0.185-0.092,0.373-0.166,0.564c-0.074,0.191-0.117,0.379-0.129,0.564
				c-0.037,0.197-0.049,0.398-0.037,0.601c0.012,0.203,0.006,0.398-0.018,0.583c-0.074,0.506-0.166,1.005-0.277,1.498
				c-0.111,0.493-0.191,0.98-0.241,1.461c-0.025,0.123-0.074,0.407-0.148,0.851c-0.074,0.37-0.157,0.734-0.25,1.091
				c-0.093,0.358-0.163,0.721-0.213,1.091c-0.037,0.197-0.055,0.401-0.055,0.61v0.61v0.018v0.018c0,0.469-0.136,0.808-0.407,1.017
				c-0.049,0.074-0.117,0.13-0.203,0.166c-0.074,0.049-0.136,0.08-0.185,0.093c0.012,0-0.068,0.018-0.24,0.055
				c-0.185,0.037-0.284,0.003-0.296-0.102c-0.012-0.105-0.074-0.2-0.185-0.287c-0.037-0.025-0.08-0.062-0.13-0.111
				c-0.086-0.049-0.136-0.117-0.148-0.203c-0.012,0-0.019-0.015-0.019-0.046v-0.046c-0.037-0.062-0.034-0.216,0.009-0.462
				c0.043-0.247,0.077-0.407,0.102-0.481c0.074-0.37,0.16-0.746,0.259-1.128c0.099-0.382,0.185-0.771,0.259-1.165
				c0.012-0.099,0.037-0.265,0.074-0.499c0.037-0.234,0.055-0.407,0.055-0.518c0-0.037,0.003-0.089,0.009-0.157
				c0.006-0.068,0.009-0.126,0.009-0.176c0.025-0.21,0.071-0.432,0.139-0.666c0.068-0.234,0.114-0.462,0.139-0.684
				c0.111-0.987,0.262-1.967,0.453-2.941c0.191-0.974,0.355-1.961,0.49-2.96c0.037-0.321,0.077-0.638,0.12-0.953
				c0.043-0.314,0.102-0.638,0.176-0.971c0.037-0.148,0.08-0.37,0.129-0.666c0.099-0.604,0.179-1.212,0.241-1.822
				c0.062-0.61,0.136-1.224,0.222-1.841c0.074-0.604,0.176-1.205,0.305-1.804c0.13-0.598,0.231-1.206,0.305-1.822
				c0.099-0.802,0.13-1.662,0.093-2.581s0.062-1.76,0.296-2.525c0.037-0.16,0.074-0.456,0.111-0.888
				c0.037-0.345,0.052-0.684,0.046-1.017c-0.006-0.333,0.003-0.678,0.028-1.036c0-0.173,0.022-0.37,0.065-0.592
				c0.043-0.222,0.065-0.413,0.065-0.573c-0.025-0.16,0.086-0.256,0.333-0.287c0.247-0.031,0.425-0.046,0.536-0.046h0.037h0.055
				l0.074,0.055c0.518-0.086,0.919,0.136,1.202,0.666c0.037,0.062,0.052,0.16,0.046,0.296c-0.006,0.136,0.009,0.234,0.046,0.296
				c0.259,0.666,0.506,1.443,0.74,2.331c0.037,0.21,0.071,0.416,0.102,0.62c0.031,0.203,0.071,0.404,0.12,0.601l0.074,0.481
				c0.025,0.16,0.055,0.314,0.092,0.462c0.074,0.432,0.136,0.857,0.185,1.276c0.049,0.419,0.105,0.839,0.166,1.258
				c0.012,0.148,0.022,0.299,0.028,0.453c0.006,0.154,0.022,0.305,0.046,0.453c0,0.111,0.019,0.213,0.055,0.305
				c0.037,0.093,0.068,0.182,0.093,0.268c0.049,0.617,0.08,1.079,0.093,1.387c0,0.493,0.006,0.987,0.018,1.48s0.055,0.98,0.13,1.461
				c0.099,0.74,0.203,1.483,0.314,2.229c0.111,0.746,0.216,1.489,0.314,2.229c0.049,0.012,0.099,0.117,0.148,0.314
				c0.062,0.382,0.068,0.752,0.018,1.11v0.037c0.012,0.173,0.006,0.345-0.018,0.518c-0.025,0.173-0.025,0.333,0,0.481
				c0.012,0.173,0.049,0.339,0.111,0.499s0.111,0.314,0.148,0.462c0.037,0.296,0.071,0.589,0.102,0.879
				c0.031,0.29,0.065,0.583,0.102,0.879c0,0.062,0.012,0.166,0.037,0.314c0.062,0.493,0.096,1.042,0.102,1.646
				c0.006,0.604,0.04,1.172,0.102,1.702c0.025,0.271,0.068,0.546,0.129,0.823c0.062,0.277,0.117,0.552,0.167,0.823
				c0.173,0.481,0.111,0.808-0.185,0.98c-0.444,0.247-0.882,0.247-1.313,0c-0.185-0.173-0.293-0.805-0.324-1.896
				c-0.031-1.091-0.059-1.797-0.083-2.118c-0.025-0.247-0.052-0.478-0.083-0.694c-0.031-0.216-0.065-0.447-0.102-0.694
				c-0.012-0.099-0.022-0.237-0.028-0.416c-0.006-0.179,0.003-0.244,0.028-0.194l-0.009-0.065c-0.006-0.043-0.009-0.071-0.009-0.083
				c-0.136-0.567-0.234-1.15-0.296-1.748c-0.062-0.598-0.111-1.193-0.148-1.785c-0.173,0-0.33-0.018-0.472-0.055
				c-0.142-0.037-0.299-0.055-0.472-0.055c-0.173,0.025-0.29,0.019-0.352-0.018c-0.111-0.062-0.222-0.077-0.333-0.046
				c-0.111,0.031-0.222,0.04-0.333,0.028c-0.086,0-0.176-0.028-0.268-0.083c-0.093-0.055-0.188-0.083-0.287-0.083
				c-0.136,0-0.284,0.071-0.444,0.213c-0.16,0.142-0.308,0.145-0.444,0.009c-0.012-0.012-0.08-0.019-0.204-0.019
				c-0.099,0-0.188,0.025-0.268,0.074c-0.08,0.049-0.157,0.074-0.231,0.074h-0.148C19.518,21.416,19.487,21.662,19.474,21.847z
				 M21.722,4.828c-0.006,0.025-0.009,0.043-0.009,0.056c-0.025,0.21-0.062,0.512-0.111,0.906c-0.049,0.432-0.108,0.857-0.176,1.276
				C21.358,7.486,21.3,7.905,21.25,8.324c-0.025,0.148-0.052,0.302-0.083,0.462c-0.031,0.16-0.052,0.314-0.065,0.462
				c-0.025,0.111-0.031,0.216-0.019,0.314c0.012,0.099,0.012,0.197,0,0.296c-0.111,0.851-0.265,1.69-0.462,2.516
				c-0.197,0.826-0.333,1.659-0.407,2.497c-0.049,0.481-0.099,0.956-0.148,1.424c-0.049,0.469-0.092,0.937-0.129,1.406
				c-0.037,0.271-0.065,0.54-0.083,0.805c-0.018,0.265-0.04,0.527-0.065,0.786c0.037,0,0.083-0.003,0.139-0.009
				c0.055-0.006,0.114-0.009,0.176-0.009c-0.123,0.025-0.043,0.037,0.241,0.037h0.092h0.093c0.074,0,0.148,0.009,0.222,0.028
				c0.074,0.018,0.154,0.028,0.241,0.028c0.074,0.025,0.123,0.043,0.148,0.055c0.012,0,0.028-0.012,0.046-0.037
				c0.019-0.025,0.04-0.037,0.065-0.037c0.123,0.012,0.253,0.065,0.389,0.157c0.136,0.093,0.265,0.12,0.388,0.083
				c0.185-0.037,0.373-0.077,0.564-0.12c0.191-0.043,0.392-0.065,0.601-0.065c0.025,0,0.059,0.022,0.102,0.065
				c0.043,0.043,0.083,0.065,0.12,0.065c0.025,0,0.059-0.022,0.102-0.065c0.043-0.043,0.083-0.065,0.12-0.065h0.037
				c-0.037-0.259-0.068-0.521-0.092-0.786c-0.025-0.265-0.037-0.54-0.037-0.823c0-0.58-0.043-1.162-0.129-1.748
				c-0.086-0.586-0.16-1.175-0.222-1.767c-0.037-0.37-0.055-0.743-0.055-1.119c0-0.376-0.012-0.749-0.037-1.119
				c-0.025-0.37-0.049-0.66-0.074-0.869c-0.111-0.789-0.299-1.594-0.564-2.414c-0.265-0.82-0.398-1.637-0.398-2.451
				c0-0.123-0.056-0.425-0.167-0.906l-0.166-0.666C21.731,4.773,21.728,4.804,21.722,4.828z"/>
			<path style="fill:#231F20;" d="M30.546,2.71C30.516,2.815,30.5,2.886,30.5,2.923l0.037,0.222c0.148,0.37,0.277,0.848,0.388,1.434
				c0.111,0.586,0.191,0.971,0.24,1.156c0.074,0.271,0.154,0.53,0.241,0.777c0.086,0.247,0.166,0.499,0.24,0.758
				c0.099,0.321,0.176,0.657,0.231,1.008c0.055,0.351,0.139,0.681,0.25,0.99c0.247,0.863,0.459,1.693,0.638,2.488
				c0.179,0.795,0.379,1.6,0.601,2.414v0.093c0,0.025,0.006,0.049,0.019,0.074c0,0.259,0.009,0.512,0.028,0.758
				c0.018,0.247,0.028,0.5,0.028,0.758c0,0.518,0.065,1.033,0.194,1.545c0.13,0.512,0.262,1.014,0.398,1.508
				c0.111,0.444,0.21,0.882,0.296,1.313c0.086,0.432,0.204,0.863,0.352,1.295c0.197,0.592,0.466,1.165,0.805,1.72
				c0.339,0.555,0.595,1.141,0.768,1.757c0-0.851,0.031-1.705,0.093-2.562c0.062-0.857,0.099-1.717,0.111-2.581v-0.86
				c0-0.278,0.018-0.564,0.055-0.86c0.025-0.234,0.049-0.561,0.074-0.98c0.012-0.469,0.009-0.95-0.009-1.443
				c-0.018-0.493-0.022-0.98-0.009-1.461c0-0.555,0.028-1.113,0.083-1.674c0.055-0.561,0.083-1.125,0.083-1.693
				c-0.012-0.715-0.099-1.489-0.259-2.322c-0.16-0.832-0.185-1.6-0.074-2.303c0.012-0.086,0.015-0.21,0.009-0.37
				c-0.006-0.16-0.009-0.296-0.009-0.407c-0.025-0.321-0.068-0.62-0.13-0.897c-0.062-0.277-0.111-0.57-0.148-0.879
				c-0.025-0.111-0.037-0.271-0.037-0.481c0-0.21-0.019-0.352-0.055-0.425c-0.037-0.074,0.068-0.16,0.314-0.259
				c0.247-0.099,0.395-0.16,0.444-0.185c0.567-0.222,0.956-0.117,1.165,0.314c0,0.037-0.018,0.102-0.055,0.194
				c-0.037,0.093-0.049,0.151-0.037,0.176c0.074,0.493,0.136,1.079,0.185,1.757c0.012,0.185,0.015,0.361,0.009,0.527
				c-0.006,0.166-0.003,0.33,0.009,0.49c0,0.148,0.003,0.29,0.009,0.425c0.006,0.136,0.009,0.271,0.009,0.407v1.165v1.147
				c0,0.148-0.006,0.293-0.018,0.435c-0.012,0.142-0.019,0.287-0.019,0.435c0,0.099,0.012,0.194,0.037,0.287
				c0.025,0.092,0.037,0.182,0.037,0.268c0,0.777-0.046,1.554-0.139,2.331c-0.093,0.777-0.12,1.554-0.083,2.331
				c0,0.358,0.006,0.715,0.019,1.073c0.012,0.358,0.025,0.709,0.037,1.054c0.049,1.369,0.068,2.725,0.056,4.07
				c-0.012,0.173-0.043,0.345-0.093,0.518c-0.049,0.173-0.074,0.339-0.074,0.499c0,0.185,0.015,0.364,0.046,0.536
				c0.031,0.173,0.046,0.345,0.046,0.518c0,0.444-0.025,0.888-0.074,1.332c-0.049,0.444-0.074,0.882-0.074,1.313
				c0,0.136-0.012,0.339-0.037,0.61c-0.025,0.37-0.062,0.734-0.111,1.091c-0.049,0.358-0.074,0.721-0.074,1.091
				c0,0.173,0.012,0.345,0.037,0.518c0.025,0.173,0.043,0.339,0.055,0.499v0.046v0.028c0.037,0.271,0.031,0.481-0.018,0.629
				l0.018,0.055c0.111,0.666-0.154,1.03-0.795,1.091c-0.259,0.025-0.506-0.142-0.74-0.499c-0.234-0.358-0.37-0.641-0.407-0.851
				c-0.025-0.062-0.022-0.157,0.009-0.287c0.031-0.13,0.046-0.231,0.046-0.305c-0.185-0.851-0.382-1.603-0.592-2.257
				c-0.062-0.173-0.111-0.348-0.148-0.527c-0.037-0.179-0.086-0.361-0.148-0.546c-0.049-0.123-0.096-0.25-0.139-0.379
				c-0.043-0.129-0.083-0.262-0.12-0.398c-0.123-0.333-0.241-0.672-0.352-1.017l-0.333-1.036c-0.037-0.111-0.074-0.228-0.111-0.352
				l-0.111-0.37c-0.025-0.074-0.062-0.145-0.111-0.213c-0.049-0.068-0.086-0.139-0.111-0.213c-0.21-0.604-0.367-1.221-0.472-1.85
				c-0.105-0.629-0.25-1.252-0.435-1.868c-0.197-0.691-0.37-1.397-0.518-2.118c-0.148-0.721-0.228-1.446-0.24-2.174
				c0.012,0.222,0,0.253-0.037,0.092c-0.037-0.16-0.062-0.271-0.074-0.333c-0.037-0.111-0.049-0.234-0.037-0.37
				c0.012-0.136,0-0.271-0.037-0.407c-0.049-0.173-0.12-0.345-0.213-0.518c-0.092-0.173-0.157-0.352-0.194-0.536
				c-0.111-0.382-0.213-0.774-0.305-1.175c-0.093-0.401-0.182-0.805-0.268-1.212v0.074c-0.012,0.086-0.006,0.176,0.018,0.268
				c0.025,0.093,0.037,0.182,0.037,0.268c-0.025,0.765-0.083,1.526-0.176,2.285c-0.093,0.759-0.126,1.508-0.102,2.248
				c0.012,1.147,0.028,2.291,0.046,3.432c0.018,1.141,0.015,2.285-0.009,3.432c-0.012,0.197-0.043,0.395-0.093,0.592
				c-0.049,0.197-0.074,0.388-0.074,0.573c0,0.197,0.019,0.398,0.056,0.601c0.037,0.203,0.055,0.398,0.055,0.583
				c-0.012,0.456-0.043,0.922-0.093,1.397c-0.049,0.475-0.062,0.94-0.037,1.397c0,0.259-0.025,0.586-0.074,0.98
				c-0.049,0.395-0.055,0.691-0.019,0.888v0.009v0.009c0.099,0.617,0.16,1.048,0.185,1.295c0,0.012,0.003,0.028,0.009,0.046
				l0.009,0.028c0.074,0.358,0.037,0.654-0.111,0.888c-0.037,0.086-0.105,0.179-0.203,0.277c-0.049,0.025-0.086,0.049-0.111,0.074
				c-0.284,0.234-0.635,0.173-1.054-0.185c0.049,0,0-0.037-0.148-0.111l-0.055-0.166c-0.037-0.037-0.059-0.163-0.065-0.379
				c-0.006-0.216-0.009-0.355-0.009-0.416V29.57c0-0.388,0.012-0.607,0.037-0.657c0.025-0.074,0.037-0.277,0.037-0.61
				c0-0.148-0.012-0.287-0.037-0.416c-0.025-0.129-0.037-0.274-0.037-0.435c-0.012-0.185,0-0.385,0.037-0.601
				c0.037-0.216,0.055-0.422,0.055-0.62c-0.037-0.987-0.018-1.976,0.055-2.969c0.074-0.993,0.123-1.989,0.148-2.988
				c0-0.333,0.003-0.672,0.009-1.017c0.006-0.345,0.028-0.691,0.065-1.036c0.074-0.654,0.105-1.31,0.093-1.97
				c-0.012-0.66-0.012-1.323,0-1.989c0.012-0.543,0.049-1.085,0.111-1.628c0.062-0.543,0.093-1.091,0.093-1.646
				c0-0.728-0.074-1.501-0.222-2.322s-0.16-1.588-0.037-2.303c0.012-0.086,0.015-0.216,0.009-0.388
				c-0.006-0.173-0.009-0.314-0.009-0.425c-0.025-0.333-0.068-0.651-0.129-0.953c-0.062-0.302-0.111-0.62-0.148-0.953
				c-0.025-0.148-0.04-0.333-0.046-0.555c-0.006-0.222-0.028-0.401-0.065-0.536c-0.062-0.136,0.022-0.259,0.25-0.37
				c0.228-0.111,0.392-0.185,0.49-0.222c0.617-0.21,1.011-0.031,1.184,0.536C30.593,2.534,30.577,2.605,30.546,2.71z"/>
			<path style="fill:#231F20;" d="M40.952,29.848c0.037-0.401,0.055-0.706,0.055-0.916c-0.012-0.16-0.043-0.524-0.093-1.091
				c-0.025-0.222-0.022-0.462,0.009-0.721c0.031-0.259,0.046-0.512,0.046-0.758c-0.062-1.122-0.074-2.248-0.037-3.376
				c0.037-1.128,0.055-2.26,0.055-3.395c0-0.37-0.006-0.74-0.019-1.11c-0.012-0.37,0-0.74,0.037-1.11
				c0.049-0.703,0.062-1.403,0.037-2.1c-0.025-0.697-0.037-1.397-0.037-2.1c0-0.555,0.028-1.113,0.083-1.674
				c0.055-0.561,0.089-1.125,0.102-1.693c0-0.703-0.071-1.474-0.213-2.312c-0.142-0.839-0.139-1.591,0.009-2.257
				c0.025-0.111,0.037-0.364,0.037-0.758c0-0.296-0.015-0.589-0.046-0.879c-0.031-0.29-0.046-0.583-0.046-0.879
				c0-0.16,0.015-0.327,0.046-0.499c0.031-0.173,0.046-0.333,0.046-0.481c-0.025-0.123,0.08-0.197,0.314-0.222
				c-0.049-0.197-0.031-0.37,0.055-0.518c0.123-0.247,0.533-0.24,1.23,0.019c0.697,0.259,1.138,0.444,1.323,0.555
				c0.099,0.074,0.2,0.182,0.305,0.324c0.105,0.142,0.213,0.25,0.324,0.324c0.974,0.703,1.739,1.344,2.294,1.924
				c0.062,0.062,0.166,0.179,0.314,0.351c0.062,0.074,0.148,0.207,0.259,0.398c0.111,0.191,0.204,0.33,0.278,0.416
				c0.197,0.321,0.376,0.66,0.536,1.017c0.136,0.296,0.253,0.617,0.351,0.962c0.049,0.111,0.114,0.379,0.194,0.805
				c0.08,0.425,0.139,0.712,0.176,0.86c0.025,0.16,0.043,0.324,0.055,0.49c0.012,0.166,0.037,0.324,0.074,0.472
				c0,0.111,0.019,0.219,0.055,0.324c0.037,0.105,0.068,0.213,0.093,0.324c0,0.136,0.003,0.271,0.009,0.407
				c0.006,0.136,0.022,0.265,0.046,0.388c-0.012,0.543-0.037,1.061-0.074,1.554c-0.037,0.493-0.043,1.011-0.018,1.554
				c0.086,2.133,0.092,4.125,0.018,5.975c-0.012,0.432-0.055,1.067-0.13,1.905c-0.037,0.222-0.089,0.444-0.157,0.666
				c-0.068,0.222-0.114,0.438-0.139,0.647c-0.037,0.222-0.052,0.447-0.046,0.675s-0.009,0.441-0.046,0.638
				c-0.074,0.358-0.111,0.549-0.111,0.573c-0.222,0.802-0.444,1.449-0.666,1.942c-0.197,0.518-0.506,0.937-0.925,1.258
				c-0.012,0.012-0.037,0.034-0.074,0.065l-0.055,0.046c-0.358,0.247-0.604,0.466-0.74,0.657c-0.136,0.191-0.333,0.441-0.592,0.749
				c-0.333,0.358-0.697,0.641-1.091,0.851l-0.046,0.018l-0.046,0.019c-0.617,0.308-1.172,0.512-1.665,0.61
				c-0.148,0.049-0.197,0.062-0.148,0.037c-0.148,0.074-0.234,0.111-0.259,0.111c0.074,0,0.074-0.037,0-0.111
				c0-0.074-0.037-0.111-0.111-0.111l-0.037,0.009l-0.037,0.009c-0.259,0.099-0.506,0.166-0.74,0.203
				c-0.234,0.037-0.407-0.154-0.518-0.573v-0.009v-0.009c0-0.16,0.037-0.314,0.111-0.462C40.921,30.585,40.915,30.249,40.952,29.848
				z M42.728,3.959c0,0.16-0.009,0.321-0.028,0.481c-0.018,0.16-0.028,0.314-0.028,0.462c0,0.136-0.003,0.268-0.009,0.398
				c-0.006,0.13-0.009,0.262-0.009,0.398c-0.012,0.37-0.028,0.743-0.046,1.119c-0.019,0.376-0.028,0.749-0.028,1.119
				c-0.012,0.148-0.025,0.29-0.037,0.425c-0.012,0.136-0.018,0.277-0.018,0.425c0,0.086,0.009,0.176,0.028,0.268
				c0.018,0.093,0.028,0.182,0.028,0.268c-0.012,0.777-0.065,1.551-0.157,2.322c-0.093,0.771-0.12,1.539-0.083,2.303
				c0.037,1.233,0.083,2.467,0.139,3.7c0.055,1.233,0.083,2.46,0.083,3.681c0,0.222-0.022,0.444-0.065,0.666
				c-0.043,0.222-0.059,0.438-0.046,0.648c0,0.222,0.022,0.447,0.065,0.675s0.065,0.447,0.065,0.657c0,0.555-0.015,1.11-0.046,1.665
				c-0.031,0.555-0.028,1.104,0.009,1.646c0.025,0.419,0.012,0.839-0.037,1.258s-0.055,0.832-0.019,1.239
				c0,0.037,0.003,0.077,0.009,0.12c0.006,0.043,0.015,0.083,0.028,0.12c0.53-0.062,0.962-0.154,1.295-0.277
				c0.222-0.086,0.413-0.228,0.573-0.425l0.074-0.074c0.148-0.21,0.281-0.416,0.398-0.62c0.117-0.203,0.268-0.404,0.453-0.601
				c0.173-0.173,0.407-0.352,0.703-0.536c0.136-0.062,0.29-0.265,0.462-0.61l0.009-0.018l0.009-0.018
				c0.173-0.493,0.333-1.048,0.481-1.665c0.358-1.579,0.592-3.151,0.703-4.717c0-0.062,0.006-0.105,0.018-0.129
				c0.012-0.382,0.028-0.765,0.046-1.147c0.019-0.382,0.046-0.777,0.083-1.184c0.074-0.703,0.102-1.406,0.083-2.109
				c-0.018-0.703-0.028-1.412-0.028-2.127c-0.012-0.37-0.009-0.746,0.009-1.128c0.018-0.382,0.028-0.771,0.028-1.165v-0.065v-0.102
				c-0.074-0.666-0.194-1.258-0.361-1.776c-0.166-0.518-0.361-1.091-0.583-1.72c-0.074-0.197-0.151-0.401-0.231-0.61
				c-0.08-0.21-0.157-0.419-0.231-0.629c-0.037-0.123-0.191-0.382-0.462-0.777l-0.102-0.102c-0.043-0.043-0.071-0.083-0.083-0.12
				c-0.099-0.148-0.351-0.376-0.758-0.684c-0.407-0.308-0.691-0.524-0.851-0.648c-0.259-0.185-0.512-0.382-0.758-0.592
				c-0.247-0.21-0.499-0.413-0.758-0.61C42.734,3.243,42.728,3.552,42.728,3.959z"/>
			<path style="fill:#231F20;" d="M55.507,0.712c0.012-0.018,0.025-0.04,0.037-0.065l-0.074-0.074
				c0.123-0.197,0.308-0.351,0.555-0.462C56.223,0.037,56.476,0,56.784,0c0.395,0.037,0.82,0.179,1.276,0.425
				c0.333,0.197,0.62,0.401,0.86,0.61s0.503,0.444,0.786,0.703c0.247,0.234,0.469,0.536,0.666,0.906
				c0.074,0.111,0.151,0.308,0.231,0.592s0.145,0.481,0.194,0.592c0.148,0.592,0.308,1.412,0.481,2.46
				c0.012,0.111,0.028,0.237,0.046,0.379c0.018,0.142,0.04,0.262,0.065,0.361c0.037,0.333,0.086,0.663,0.148,0.99
				C61.6,8.346,61.649,8.67,61.686,8.99c0.062,0.567,0.093,1.147,0.093,1.739s0.018,1.172,0.056,1.739
				c0.062,0.937,0.105,1.973,0.129,3.108c0,1.973-0.04,3.922-0.12,5.846c-0.08,1.924-0.225,3.866-0.435,5.827
				c-0.037,0.358-0.083,0.731-0.139,1.119c-0.055,0.388-0.151,0.743-0.287,1.064c0,0.037-0.022,0.092-0.065,0.166
				c-0.043,0.074-0.065,0.129-0.065,0.166c-0.321,0.666-0.666,1.202-1.036,1.609c-0.456,0.493-0.956,0.832-1.498,1.017
				c-0.543,0.16-1.098,0.185-1.665,0.074c-0.543-0.123-1.061-0.351-1.554-0.684c-0.123-0.037-0.321-0.179-0.592-0.425
				c-0.271-0.247-0.45-0.425-0.536-0.536c-0.493-0.543-0.907-1.141-1.239-1.794c-0.58-1.196-0.851-2.392-0.814-3.589
				c-0.012-0.012-0.012-0.083,0-0.213c0.012-0.129,0.018-0.213,0.018-0.25c-0.062-1.64-0.197-3.2-0.407-4.68
				c-0.21-1.48-0.296-3.126-0.259-4.939c0-0.395-0.003-0.802-0.009-1.221c-0.006-0.419-0.009-0.832-0.009-1.239V12.32v-0.573
				c0-0.851,0.003-1.702,0.009-2.553c0.006-0.851,0.065-1.702,0.176-2.553c0.099-0.789,0.271-1.591,0.518-2.405
				c0.259-0.863,0.592-1.628,0.999-2.294c0.086-0.148,0.185-0.284,0.296-0.407c0.321-0.382,0.697-0.647,1.128-0.795
				c0.321-0.185,0.691-0.179,1.11,0.019C55.489,0.746,55.495,0.731,55.507,0.712z M53.898,4.301
				c-0.074,0.142-0.136,0.287-0.185,0.435c-0.037,0.037-0.099,0.191-0.185,0.462c-0.21,0.925-0.355,1.887-0.435,2.886
				s-0.126,1.973-0.139,2.923c0,0.123-0.003,0.25-0.009,0.379c-0.006,0.13-0.009,0.256-0.009,0.379
				c-0.012,0.407-0.025,0.808-0.037,1.202c-0.012,0.395-0.012,0.795,0,1.202c0,0.395,0.006,0.789,0.018,1.184
				c0.012,0.395,0.031,0.789,0.055,1.184c0.037,0.913,0.071,1.822,0.102,2.729c0.031,0.906,0.071,1.81,0.12,2.71
				c0,0.259,0.003,0.515,0.009,0.768c0.006,0.253,0.015,0.503,0.028,0.749c0,0.148,0.012,0.29,0.037,0.425
				c0.025,0.136,0.043,0.271,0.056,0.407c0,0.234-0.012,0.623-0.037,1.165c-0.062,0.962,0.148,1.93,0.629,2.904
				c0.506,0.999,1.147,1.764,1.924,2.294c0.382,0.234,0.752,0.388,1.11,0.462c0.321,0.074,0.641,0.055,0.962-0.055
				c0.308-0.111,0.604-0.327,0.888-0.647c0.308-0.395,0.573-0.906,0.795-1.535c0.123-0.271,0.231-1.036,0.324-2.294
				c0.092-1.258,0.157-2.066,0.194-2.423c0.025-0.456,0.068-0.916,0.129-1.378c0.062-0.462,0.105-0.934,0.129-1.415
				c0-0.53-0.012-1.064-0.037-1.6s-0.037-1.076-0.037-1.619c0-0.432,0.003-0.863,0.009-1.295c0.006-0.432,0.009-0.863,0.009-1.295
				c0-0.863-0.009-1.727-0.028-2.59c-0.018-0.863-0.065-1.733-0.139-2.608c-0.049-0.518-0.093-1.042-0.129-1.572
				c-0.037-0.53-0.08-1.061-0.129-1.591c-0.062-0.506-0.133-1.005-0.213-1.498c-0.08-0.493-0.194-0.98-0.342-1.461V4.264V4.236
				c-0.099-0.308-0.228-0.598-0.389-0.869c-0.074-0.136-0.179-0.259-0.314-0.37c-0.345-0.271-0.604-0.469-0.777-0.592
				c-0.419-0.234-0.66-0.382-0.721-0.444c-0.086-0.062-0.188-0.117-0.305-0.166s-0.213-0.111-0.287-0.185
				c-0.025-0.012-0.142-0.074-0.352-0.185c-0.049,0-0.096-0.009-0.139-0.028c-0.043-0.019-0.083-0.034-0.12-0.046
				c-0.099,0.037-0.203,0.043-0.314,0.018l-0.055-0.055c-0.086,0.111-0.182,0.216-0.287,0.314c-0.105,0.099-0.182,0.179-0.231,0.241
				c-0.062,0.037-0.148,0.151-0.259,0.342c-0.111,0.191-0.179,0.318-0.203,0.379C54.484,2.787,54.398,3,54.324,3.228
				c-0.074,0.228-0.148,0.441-0.222,0.638C54.04,4.014,53.972,4.159,53.898,4.301z"/>
		</g>
		<g>
			<path style="fill:#231F20;" d="M67.693,2.579h0.533l0.923,3.372h0.011l0.998-3.372h0.539l0.992,3.372h0.011l0.94-3.372h0.505
				l-1.193,4.06h-0.522l-1.004-3.441h-0.012l-1.009,3.441H68.88L67.693,2.579z"/>
			<path style="fill:#231F20;" d="M73.542,2.906c0-0.088,0.031-0.164,0.095-0.229c0.063-0.065,0.141-0.098,0.232-0.098
				c0.092,0,0.169,0.033,0.232,0.098c0.063,0.065,0.095,0.141,0.095,0.229c0,0.096-0.031,0.174-0.092,0.235
				c-0.061,0.061-0.14,0.092-0.235,0.092c-0.096,0-0.174-0.031-0.235-0.092C73.572,3.08,73.542,3.001,73.542,2.906z M73.645,3.955
				h0.447v2.684h-0.447V3.955z"/>
			<path style="fill:#231F20;" d="M75.038,5.933c0.088,0.111,0.184,0.199,0.29,0.264c0.105,0.065,0.238,0.097,0.399,0.097
				c0.069,0,0.139-0.008,0.209-0.023c0.071-0.015,0.135-0.04,0.192-0.074c0.057-0.034,0.103-0.078,0.138-0.129
				c0.034-0.052,0.052-0.114,0.052-0.186c0-0.073-0.016-0.132-0.049-0.178c-0.032-0.046-0.075-0.085-0.129-0.117
				s-0.115-0.058-0.183-0.077c-0.069-0.019-0.14-0.036-0.212-0.052c-0.126-0.027-0.247-0.057-0.361-0.092
				c-0.115-0.034-0.215-0.079-0.301-0.135c-0.086-0.055-0.155-0.127-0.206-0.215c-0.052-0.088-0.077-0.201-0.077-0.338
				c0-0.13,0.029-0.245,0.086-0.344s0.134-0.182,0.229-0.247c0.096-0.065,0.203-0.115,0.321-0.149
				c0.118-0.034,0.241-0.052,0.367-0.052c0.191,0,0.368,0.038,0.53,0.115c0.163,0.076,0.29,0.201,0.381,0.373L76.34,4.62
				c-0.057-0.096-0.133-0.173-0.226-0.232c-0.094-0.059-0.207-0.089-0.341-0.089c-0.061,0-0.123,0.008-0.186,0.023
				c-0.063,0.015-0.119,0.038-0.169,0.069c-0.05,0.031-0.091,0.07-0.123,0.117c-0.032,0.048-0.049,0.102-0.049,0.163
				c0,0.057,0.018,0.106,0.054,0.146c0.036,0.04,0.086,0.075,0.149,0.106c0.063,0.031,0.136,0.057,0.218,0.08
				c0.082,0.023,0.167,0.042,0.255,0.057c0.118,0.023,0.231,0.053,0.338,0.089c0.107,0.036,0.201,0.085,0.281,0.146
				c0.08,0.061,0.143,0.138,0.189,0.229c0.046,0.092,0.069,0.205,0.069,0.338c0,0.153-0.031,0.283-0.092,0.39
				c-0.061,0.107-0.142,0.194-0.244,0.261c-0.101,0.067-0.216,0.116-0.344,0.146c-0.128,0.031-0.259,0.046-0.393,0.046
				c-0.229,0-0.427-0.035-0.593-0.106c-0.166-0.071-0.316-0.202-0.45-0.393L75.038,5.933z"/>
			<path style="fill:#231F20;" d="M77.424,2.304h0.447v2.833l1.221-1.181h0.636l-1.296,1.221l1.428,1.462h-0.659l-1.33-1.411v1.411
				h-0.447V2.304z"/>
			<path style="fill:#231F20;" d="M82.63,6.002c0,0.122,0.004,0.237,0.012,0.344c0.008,0.107,0.011,0.205,0.011,0.292h-0.424
				c0-0.073-0.002-0.145-0.006-0.218c-0.004-0.073-0.006-0.147-0.006-0.224h-0.011c-0.031,0.065-0.074,0.128-0.129,0.189
				c-0.056,0.061-0.121,0.116-0.198,0.163c-0.076,0.048-0.163,0.086-0.258,0.115c-0.096,0.029-0.199,0.043-0.31,0.043
				c-0.176,0-0.328-0.027-0.456-0.08c-0.128-0.054-0.234-0.128-0.318-0.224c-0.084-0.096-0.146-0.211-0.186-0.347
				c-0.04-0.136-0.06-0.284-0.06-0.444V3.955h0.447v1.611c0,0.226,0.05,0.403,0.149,0.533c0.099,0.13,0.254,0.195,0.464,0.195
				c0.145,0,0.27-0.025,0.376-0.075c0.105-0.05,0.191-0.12,0.258-0.212s0.117-0.201,0.149-0.327
				c0.032-0.126,0.049-0.266,0.049-0.419V3.955h0.447V6.002z"/>
			<path style="fill:#231F20;" d="M83.479,4.592c0-0.122-0.004-0.237-0.012-0.344c-0.008-0.107-0.011-0.205-0.011-0.293h0.424
				c0,0.073,0.002,0.145,0.006,0.218c0.004,0.073,0.006,0.147,0.006,0.224h0.012c0.03-0.065,0.073-0.128,0.129-0.189
				c0.055-0.061,0.121-0.116,0.198-0.163c0.076-0.048,0.162-0.086,0.258-0.115c0.096-0.029,0.199-0.043,0.31-0.043
				c0.176,0,0.328,0.027,0.456,0.08c0.128,0.054,0.234,0.128,0.318,0.224c0.084,0.096,0.146,0.211,0.186,0.347
				c0.04,0.136,0.06,0.284,0.06,0.444v1.657h-0.447V5.027c0-0.226-0.05-0.403-0.149-0.533c-0.099-0.13-0.254-0.195-0.465-0.195
				c-0.145,0-0.27,0.025-0.376,0.075c-0.105,0.05-0.191,0.12-0.258,0.212c-0.067,0.092-0.117,0.201-0.149,0.327
				c-0.033,0.126-0.049,0.266-0.049,0.419v1.307h-0.447V4.592z"/>
			<path style="fill:#231F20;" d="M88.898,6.163h-0.012c-0.084,0.153-0.217,0.282-0.398,0.387c-0.182,0.105-0.393,0.158-0.634,0.158
				c-0.187,0-0.363-0.035-0.528-0.106c-0.164-0.071-0.307-0.169-0.427-0.295c-0.12-0.126-0.215-0.275-0.284-0.447
				c-0.069-0.172-0.103-0.359-0.103-0.562c0-0.203,0.034-0.39,0.103-0.562c0.069-0.172,0.164-0.321,0.287-0.447
				c0.122-0.126,0.27-0.225,0.444-0.295c0.174-0.071,0.366-0.106,0.576-0.106c0.195,0,0.374,0.04,0.536,0.12
				c0.162,0.08,0.305,0.193,0.427,0.338h0.012V2.304h0.447v4.335h-0.447V6.163z M88.898,5.297c0-0.141-0.022-0.272-0.066-0.393
				c-0.044-0.12-0.108-0.226-0.192-0.315c-0.084-0.09-0.185-0.161-0.301-0.212c-0.117-0.052-0.248-0.078-0.393-0.078
				c-0.145,0-0.276,0.026-0.393,0.078c-0.117,0.052-0.217,0.122-0.301,0.212c-0.084,0.09-0.148,0.195-0.192,0.315
				c-0.044,0.12-0.066,0.251-0.066,0.393c0,0.141,0.022,0.272,0.066,0.393c0.044,0.121,0.108,0.226,0.192,0.315
				c0.084,0.09,0.184,0.161,0.301,0.212c0.117,0.052,0.248,0.077,0.393,0.077c0.145,0,0.276-0.026,0.393-0.077
				c0.116-0.052,0.217-0.122,0.301-0.212c0.084-0.09,0.148-0.195,0.192-0.315C88.876,5.569,88.898,5.438,88.898,5.297z"/>
			<path style="fill:#231F20;" d="M92.568,6.151c-0.16,0.206-0.336,0.351-0.528,0.433c-0.191,0.082-0.413,0.123-0.665,0.123
				c-0.21,0-0.399-0.037-0.568-0.112c-0.168-0.075-0.311-0.175-0.427-0.301c-0.117-0.126-0.207-0.275-0.27-0.447
				c-0.063-0.172-0.095-0.355-0.095-0.55c0-0.206,0.034-0.397,0.103-0.571c0.069-0.174,0.164-0.323,0.287-0.447
				c0.122-0.124,0.268-0.221,0.436-0.29c0.168-0.069,0.352-0.103,0.55-0.103c0.187,0,0.359,0.032,0.516,0.095
				s0.292,0.155,0.404,0.275c0.113,0.121,0.2,0.268,0.261,0.442c0.061,0.174,0.092,0.372,0.092,0.593v0.143h-2.168
				c0.008,0.115,0.035,0.225,0.083,0.33c0.048,0.105,0.11,0.197,0.186,0.275c0.076,0.078,0.166,0.14,0.269,0.186
				c0.103,0.046,0.216,0.069,0.338,0.069c0.195,0,0.359-0.034,0.493-0.103c0.134-0.069,0.254-0.17,0.361-0.304L92.568,6.151z
				 M92.183,5.056c-0.008-0.229-0.082-0.413-0.224-0.55c-0.141-0.138-0.336-0.207-0.585-0.207c-0.249,0-0.449,0.069-0.602,0.207
				c-0.153,0.138-0.245,0.321-0.275,0.55H92.183z"/>
			<path style="fill:#231F20;" d="M68.083,10.555c0-0.122-0.004-0.237-0.012-0.344c-0.008-0.107-0.011-0.205-0.011-0.293h0.424
				c0,0.073,0.002,0.145,0.006,0.218c0.004,0.073,0.006,0.147,0.006,0.224h0.012c0.03-0.065,0.073-0.128,0.129-0.189
				c0.055-0.061,0.121-0.116,0.198-0.163c0.076-0.048,0.162-0.086,0.258-0.115c0.096-0.029,0.199-0.043,0.31-0.043
				c0.145,0,0.267,0.018,0.364,0.054c0.097,0.036,0.179,0.08,0.244,0.132c0.065,0.052,0.116,0.107,0.152,0.166
				c0.036,0.059,0.066,0.112,0.089,0.158c0.099-0.161,0.214-0.286,0.344-0.376c0.13-0.09,0.298-0.135,0.505-0.135
				c0.191,0,0.352,0.026,0.482,0.077c0.13,0.052,0.235,0.126,0.315,0.224c0.08,0.097,0.138,0.216,0.172,0.355
				c0.034,0.14,0.052,0.295,0.052,0.467v1.629h-0.447v-1.606c0-0.092-0.01-0.182-0.029-0.269c-0.019-0.088-0.054-0.166-0.103-0.235
				c-0.05-0.069-0.117-0.124-0.201-0.166c-0.084-0.042-0.191-0.063-0.321-0.063c-0.096,0-0.185,0.019-0.269,0.057
				c-0.084,0.038-0.158,0.092-0.221,0.161c-0.063,0.069-0.113,0.152-0.149,0.249c-0.036,0.098-0.054,0.206-0.054,0.324v1.548h-0.447
				v-1.52c0-0.298-0.04-0.509-0.12-0.634c-0.08-0.124-0.212-0.186-0.396-0.186c-0.145,0-0.27,0.025-0.376,0.075
				c-0.105,0.05-0.191,0.12-0.258,0.212c-0.067,0.092-0.117,0.201-0.149,0.327c-0.033,0.126-0.049,0.266-0.049,0.419v1.307h-0.447
				V10.555z"/>
			<path style="fill:#231F20;" d="M75.365,12.115c-0.16,0.206-0.336,0.351-0.528,0.433c-0.191,0.082-0.413,0.123-0.665,0.123
				c-0.21,0-0.399-0.037-0.568-0.112s-0.311-0.175-0.427-0.301c-0.117-0.126-0.207-0.275-0.27-0.447s-0.095-0.355-0.095-0.55
				c0-0.206,0.035-0.397,0.103-0.571c0.069-0.174,0.164-0.323,0.287-0.447c0.122-0.124,0.268-0.221,0.436-0.29
				c0.168-0.069,0.352-0.103,0.55-0.103c0.187,0,0.359,0.032,0.516,0.095c0.157,0.063,0.292,0.155,0.404,0.275
				c0.113,0.121,0.2,0.268,0.261,0.442c0.061,0.174,0.092,0.372,0.092,0.593v0.143h-2.168c0.008,0.115,0.035,0.225,0.083,0.33
				c0.048,0.105,0.11,0.197,0.186,0.275c0.076,0.078,0.166,0.14,0.269,0.186c0.103,0.046,0.216,0.069,0.338,0.069
				c0.195,0,0.359-0.034,0.493-0.103c0.134-0.069,0.254-0.17,0.361-0.304L75.365,12.115z M74.981,11.02
				c-0.008-0.229-0.082-0.413-0.224-0.55c-0.141-0.138-0.336-0.207-0.585-0.207c-0.249,0-0.449,0.069-0.602,0.207
				c-0.153,0.138-0.245,0.321-0.275,0.55H74.981z"/>
			<path style="fill:#231F20;" d="M77.624,10.297h-0.791v1.342c0,0.088,0.002,0.169,0.006,0.244c0.004,0.075,0.019,0.14,0.046,0.195
				c0.027,0.055,0.067,0.099,0.12,0.132s0.13,0.049,0.229,0.049c0.065,0,0.132-0.008,0.201-0.023
				c0.069-0.015,0.134-0.038,0.195-0.069l0.017,0.407c-0.076,0.034-0.162,0.059-0.255,0.075c-0.094,0.015-0.183,0.023-0.267,0.023
				c-0.161,0-0.289-0.021-0.384-0.063c-0.096-0.042-0.17-0.101-0.224-0.178c-0.054-0.076-0.089-0.171-0.106-0.284
				c-0.017-0.113-0.026-0.238-0.026-0.376v-1.474h-0.585V9.919h0.585V9.156h0.447v0.763h0.791V10.297z"/>
			<path style="fill:#231F20;" d="M68.06,15.882h0.447v0.39h0.011c0.122-0.145,0.265-0.258,0.427-0.338
				c0.163-0.08,0.341-0.12,0.536-0.12c0.21,0,0.402,0.035,0.576,0.106c0.174,0.071,0.322,0.169,0.444,0.295
				c0.122,0.126,0.218,0.275,0.287,0.447c0.069,0.172,0.103,0.359,0.103,0.562c0,0.203-0.034,0.39-0.103,0.562
				c-0.069,0.172-0.163,0.321-0.284,0.447c-0.12,0.126-0.263,0.225-0.427,0.295c-0.164,0.071-0.34,0.106-0.528,0.106
				c-0.241,0-0.452-0.053-0.634-0.158c-0.182-0.105-0.314-0.234-0.398-0.387h-0.011v1.783H68.06V15.882z M68.507,17.224
				c0,0.141,0.022,0.272,0.066,0.393c0.044,0.121,0.108,0.226,0.192,0.315c0.084,0.09,0.184,0.161,0.301,0.212
				c0.116,0.052,0.247,0.077,0.393,0.077c0.145,0,0.276-0.026,0.393-0.077c0.117-0.052,0.217-0.122,0.301-0.212
				c0.084-0.09,0.148-0.195,0.192-0.315c0.044-0.12,0.066-0.251,0.066-0.393c0-0.141-0.022-0.272-0.066-0.393
				c-0.044-0.12-0.108-0.226-0.192-0.315c-0.084-0.09-0.184-0.161-0.301-0.212c-0.117-0.052-0.248-0.078-0.393-0.078
				c-0.145,0-0.276,0.026-0.393,0.078c-0.117,0.052-0.217,0.122-0.301,0.212c-0.084,0.09-0.148,0.195-0.192,0.315
				C68.529,16.952,68.507,17.083,68.507,17.224z"/>
			<path style="fill:#231F20;" d="M71.523,14.833c0-0.088,0.031-0.164,0.095-0.229c0.063-0.065,0.141-0.098,0.232-0.098
				s0.169,0.033,0.232,0.098c0.063,0.065,0.095,0.141,0.095,0.229c0,0.096-0.031,0.174-0.092,0.235
				c-0.061,0.061-0.14,0.092-0.235,0.092c-0.096,0-0.174-0.031-0.235-0.092C71.554,15.007,71.523,14.929,71.523,14.833z
				 M71.626,15.882h0.447v2.684h-0.447V15.882z"/>
			<path style="fill:#231F20;" d="M74.43,16.261h-0.791v1.342c0,0.088,0.002,0.169,0.006,0.244c0.004,0.075,0.019,0.14,0.046,0.195
				c0.027,0.055,0.067,0.099,0.12,0.132c0.054,0.032,0.13,0.049,0.229,0.049c0.065,0,0.132-0.008,0.201-0.023
				c0.069-0.015,0.134-0.038,0.195-0.069l0.017,0.407c-0.076,0.034-0.162,0.059-0.255,0.075c-0.094,0.015-0.183,0.023-0.267,0.023
				c-0.161,0-0.289-0.021-0.384-0.063s-0.17-0.101-0.224-0.178c-0.054-0.076-0.089-0.171-0.106-0.284
				c-0.017-0.113-0.026-0.238-0.026-0.376v-1.474h-0.585v-0.379h0.585V15.12h0.447v0.763h0.791V16.261z"/>
		</g>
		
			<polygon style="fill-rule:evenodd;clip-rule:evenodd;fill:#2F5EA8;stroke:#FFFFFF;stroke-width:0.172;stroke-miterlimit:10;" points="
			103.191,32.049 108.909,33.066 101.309,37.109 		"/>
		
			<path style="fill-rule:evenodd;clip-rule:evenodd;fill:none;stroke:#F4901E;stroke-width:0.2294;stroke-linecap:round;stroke-linejoin:round;stroke-miterlimit:10;" d="
			M102.1,27.487"/>
		<g>
			
				<polygon style="fill-rule:evenodd;clip-rule:evenodd;fill:#EA1C24;stroke:#FFFFFF;stroke-width:0.172;stroke-miterlimit:10;" points="
				76.468,57.727 81.355,49.172 87.229,57.419 			"/>
			
				<polygon style="fill-rule:evenodd;clip-rule:evenodd;fill:#EA1C24;stroke:#FFFFFF;stroke-width:0.172;stroke-miterlimit:10;" points="
				89.697,40.115 94.068,41.089 92.915,45.742 89.411,50.385 			"/>
			
				<polygon style="fill-rule:evenodd;clip-rule:evenodd;fill:#F69A1C;stroke:#FFFFFF;stroke-width:0.172;stroke-miterlimit:10;" points="
				64.299,49.899 78.236,28.025 72.934,58.388 			"/>
			
				<polygon style="fill-rule:evenodd;clip-rule:evenodd;fill:#48A542;stroke:#FFFFFF;stroke-width:0.172;stroke-miterlimit:10;" points="
				10.266,48.76 17.997,64.171 34.552,56.626 25.473,50.879 20.274,52.204 			"/>
			
				<polygon style="fill-rule:evenodd;clip-rule:evenodd;fill:#F69A1C;stroke:#FFFFFF;stroke-width:0.172;stroke-miterlimit:10;" points="
				34.526,56.601 36.476,44.608 54.914,40.511 			"/>
			
				<polygon style="fill-rule:evenodd;clip-rule:evenodd;fill:#EA1C24;stroke:#FFFFFF;stroke-width:0.172;stroke-miterlimit:10;" points="
				32.483,46.167 34.552,56.626 25.471,50.899 			"/>
			
				<polygon style="fill-rule:evenodd;clip-rule:evenodd;fill:#EA1C24;stroke:#FFFFFF;stroke-width:0.172;stroke-miterlimit:10;" points="
				20.301,52.151 18.002,64.104 25.473,50.879 			"/>
			
				<polyline style="fill-rule:evenodd;clip-rule:evenodd;fill:#894999;stroke:#FFFFFF;stroke-width:0.172;stroke-miterlimit:10;" points="
				11.336,60.533 10.345,48.795 0.533,48.351 			"/>
			
				<polygon style="fill-rule:evenodd;clip-rule:evenodd;fill:#2F5EA8;stroke:#FFFFFF;stroke-width:0.172;stroke-miterlimit:10;" points="
				89.487,55.132 81.334,49.203 87.188,57.43 			"/>
			
				<polygon style="fill-rule:evenodd;clip-rule:evenodd;fill:#48A542;stroke:#FFFFFF;stroke-width:0.172;stroke-miterlimit:10;" points="
				89.697,40.115 72.937,58.381 86.537,31.549 			"/>
			
				<polygon style="fill-rule:evenodd;clip-rule:evenodd;fill:#00A69A;stroke:#FFFFFF;stroke-width:0.172;stroke-miterlimit:10;" points="
				101.324,37.088 92.9,45.85 94.068,41.089 			"/>
			
				<polygon style="fill-rule:evenodd;clip-rule:evenodd;fill:#2F5EA8;stroke:#FFFFFF;stroke-width:0.172;stroke-miterlimit:10;" points="
				64.344,49.9 78.236,28.025 54.894,40.536 			"/>
			
				<polygon style="fill-rule:evenodd;clip-rule:evenodd;fill:#894999;stroke:#FFFFFF;stroke-width:0.172;stroke-miterlimit:10;" points="
				73.043,58.465 54.947,40.559 60.618,65.014 			"/>
			
				<polyline style="fill-rule:evenodd;clip-rule:evenodd;fill:#48A542;stroke:#FFFFFF;stroke-width:0.172;stroke-miterlimit:10;" points="
				82.018,28.025 72.939,58.366 78.238,28.041 			"/>
			<path style="fill-rule:evenodd;clip-rule:evenodd;fill:#F69A1C;stroke:#FFFFFF;stroke-width:0.172;stroke-miterlimit:10;" d="
				M64.344,49.9"/>
			
				<polygon style="fill-rule:evenodd;clip-rule:evenodd;fill:#EA1C24;stroke:#FFFFFF;stroke-width:0.172;stroke-miterlimit:10;" points="
				82.017,28.009 86.633,31.713 72.934,58.388 			"/>
			
				<polygon style="fill-rule:evenodd;clip-rule:evenodd;fill:#00A69A;stroke:#FFFFFF;stroke-width:0.172;stroke-miterlimit:10;" points="
				81.334,49.203 89.717,40.076 89.487,55.132 			"/>
			
				<polygon style="fill-rule:evenodd;clip-rule:evenodd;fill:#00A69A;stroke:#FFFFFF;stroke-width:0.172;stroke-miterlimit:10;" points="
				81.387,49.185 72.941,58.377 76.5,57.775 			"/>
			
				<polygon style="fill-rule:evenodd;clip-rule:evenodd;fill:#F69A1C;stroke:#FFFFFF;stroke-width:0.172;stroke-miterlimit:10;" points="
				54.939,40.535 60.687,65.061 55.42,66.509 			"/>
			<path style="fill-rule:evenodd;clip-rule:evenodd;fill:#00A69A;stroke:#FFFFFF;stroke-width:0.172;stroke-miterlimit:10;" d="
				M34.526,56.601c1.386-1.115,20.484-16.191,20.484-16.191l0.463,26.075L34.526,56.601z"/>
			
				<polygon style="fill-rule:evenodd;clip-rule:evenodd;fill:#48A542;stroke:#FFFFFF;stroke-width:0.172;stroke-miterlimit:10;" points="
				32.413,46.135 36.547,44.512 34.526,56.601 			"/>
			
				<polygon style="fill-rule:evenodd;clip-rule:evenodd;fill:#894999;stroke:#FFFFFF;stroke-width:0.172;stroke-miterlimit:10;" points="
				18.065,64.118 34.526,56.601 55.551,66.472 			"/>
			<path style="fill-rule:evenodd;clip-rule:evenodd;fill:#48A542;stroke:#FFFFFF;stroke-width:0.172;stroke-miterlimit:10;" d="
				M0.102,45.097c0.213,0.053,10.243,3.698,10.243,3.698l-9.791-0.346L0.102,45.097z"/>
			
				<polygon style="fill-rule:evenodd;clip-rule:evenodd;fill:#2F5EA8;stroke:#FFFFFF;stroke-width:0.172;stroke-miterlimit:10;" points="
				10.345,48.795 17.997,64.171 11.336,60.533 			"/>
			
				<polygon style="fill-rule:evenodd;clip-rule:evenodd;fill:#2F5EA8;stroke:#FFFFFF;stroke-width:0.172;stroke-miterlimit:10;" points="
				101.231,37.136 92.893,45.818 99.371,44.673 			"/>
			
				<polygon style="fill-rule:evenodd;clip-rule:evenodd;fill:#00A69A;stroke:#FFFFFF;stroke-width:0.172;stroke-miterlimit:10;" points="
				101.231,37.059 99.371,44.673 106.179,38.232 			"/>
			<polygon style="fill-rule:evenodd;clip-rule:evenodd;fill:none;" points="0.063,45.026 20.301,52.259 25.473,50.879 
				32.483,46.167 36.161,44.673 54.894,40.536 78.236,28.025 82.017,28.009 86.614,31.572 89.717,40.076 93.969,41.111 
				101.324,37.088 103.163,32.031 100.865,26.975 103.278,24.331 108.45,28.239 108.909,33.066 106.266,38.122 99.371,44.673 
				92.82,45.938 89.487,50.42 89.487,55.132 87.188,57.43 76.5,57.775 72.937,58.35 60.755,65.015 55.354,66.509 18.002,64.211 
				11.336,60.533 0.533,48.351 			"/>
		</g>
	</g>
</g>
<g id="Laag_1">
</g>
</svg>
