<?xml version="1.0" encoding="iso-8859-1"?>
<!-- Generator: Adobe Illustrator 19.2.1, SVG Export Plug-In . SVG Version: 6.00 Build 0)  -->
<svg version="1.1" xmlns="http://www.w3.org/2000/svg" xmlns:xlink="http://www.w3.org/1999/xlink" x="0px" y="0px"
	 viewBox="0 0 129.427 66.509" style="enable-background:new 0 0 129.427 66.509;" xml:space="preserve">
<g id="punktde">
	<g id="Laag_2">
		<g id="Laag_3">
			<path style="fill:#1D1D1B;" d="M0,66.509h13.32V54.931H0V66.509z M72.928,66.509V0H57.499v17.692h-13.21
				c-10.545,0-17.648,1.667-23.199,7.503c-4.218,4.446-6.326,9.819-6.326,16.303c0,15.563,10.322,25.011,28.526,25.011H72.928z
				 M57.499,56.042H46.953c-11.433,0-15.983-3.428-15.983-13.618c0-10.56,5.217-14.172,17.205-14.172h9.325V56.042z M106.893,66.509
				h22.534V56.32h-20.536c-9.989,0-13.986-1.019-14.319-9.078h34.855V37.052H94.571c0.333-7.78,4.552-9.17,14.43-9.17h20.425V17.692
				h-22.534c-19.424,0-29.415,8.522-29.415,24.455C77.478,58.172,87.468,66.509,106.893,66.509"/>
		</g>
	</g>
</g>
<g id="Laag_1">
</g>
</svg>
