<?xml version="1.0" encoding="iso-8859-1"?>
<!-- Generator: Adobe Illustrator 19.2.1, SVG Export Plug-In . SVG Version: 6.00 Build 0)  -->
<svg version="1.1" xmlns="http://www.w3.org/2000/svg" xmlns:xlink="http://www.w3.org/1999/xlink" x="0px" y="0px"
	 viewBox="0 0 150 37.862" style="enable-background:new 0 0 150 37.862;" xml:space="preserve">
<g id="shufflethis">
	<g>
		<g>
			<g>
				<path style="fill:#AF0F0B;" d="M0,26.609h6.849c0.26,1.957,1.011,3.327,2.251,4.109c1.304,0.914,3.097,1.37,5.381,1.37
					c2.021,0,3.555-0.358,4.599-1.077c1.043-0.716,1.566-1.76,1.566-3.13c0-2.086-2.935-3.783-8.806-5.089l-0.196-0.097
					l-0.783-0.196c-3.327-0.716-5.545-1.467-6.654-2.25c-1.305-0.716-2.218-1.762-2.739-3.13c-0.653-1.175-0.978-2.675-0.978-4.502
					c0-3.195,1.109-5.707,3.327-7.534c2.217-1.761,5.445-2.642,9.687-2.642c3.978,0,7.045,0.914,9.197,2.74
					c2.217,2.022,3.391,4.664,3.523,7.925h-3.914c-1.502,0-2.578-0.684-3.229-2.054c-0.327-0.652-0.783-1.206-1.369-1.663
					c-1.174-0.847-2.773-1.272-4.794-1.272c-1.957,0-3.361,0.359-4.208,1.076C7.73,9.911,7.24,10.922,7.24,12.226
					c0,1.761,1.891,3.067,5.675,3.914c1.108,0.327,1.923,0.523,2.446,0.587c1.174,0.392,2.201,0.702,3.082,0.929
					c0.881,0.231,1.581,0.409,2.104,0.538c0.913,0.392,1.826,0.783,2.74,1.175c1.304,0.782,2.314,1.794,3.033,3.033
					c0.717,1.369,1.077,2.871,1.077,4.5c0,3.522-1.174,6.262-3.523,8.219c-2.348,1.827-5.675,2.74-9.98,2.74
					c-4.437,0-7.764-0.946-9.981-2.838C1.5,33.132,0.196,30.327,0,26.609z"/>
				<path style="fill:#AF0F0B;" d="M44.605,18.39c-0.978-1.37-2.316-2.055-4.012-2.055c-1.827,0-3.229,0.652-4.207,1.957
					c-0.978,1.306-1.468,3.099-1.468,5.382v13.404h-6.654V3.42h3.327c0.912,0,1.696,0.327,2.348,0.978
					c0.651,0.653,0.978,1.436,0.978,2.348v7.73c1.174-1.957,2.837-3.195,4.99-3.718c2.153-0.521,4.208-0.392,6.164,0.391
					c1.825,0.783,3.359,2.023,4.599,3.718c1.238,1.697,1.859,4.045,1.859,7.045v15.166h-6.555V23.576
					c0-0.978-0.083-1.874-0.245-2.69C45.567,20.07,45.192,19.239,44.605,18.39z"/>
				<path style="fill:#AF0F0B;" d="M76.405,11.052v15.264c0,4.631-1.208,7.665-3.62,9.099c-2.414,1.436-5.056,2.153-7.925,2.153
					c-2.805-0.132-5.366-0.913-7.681-2.348c-2.316-1.434-3.474-4.403-3.474-8.904V11.052h6.849v16.634
					c0,1.565,0.456,2.707,1.37,3.424c0.913,0.719,1.957,1.077,3.131,1.077c1.174,0,2.234-0.358,3.18-1.077
					c0.945-0.716,1.418-1.859,1.418-3.424V14.379c0-0.913,0.309-1.696,0.93-2.348c0.619-0.651,1.418-0.978,2.397-0.978H76.405z"/>
				<path style="fill:#AF0F0B;" d="M77.682,37.078V10.269c0-2.348,0.619-4.109,1.859-5.284c1.174-1.109,3.097-1.663,5.773-1.663
					c0.651,0,1.175,0.033,1.565,0.098c0.718,0,1.272,0.034,1.663,0.098v5.381h-1.76c-0.914,0-1.566,0.132-1.957,0.392
					c-0.327,0.261-0.489,0.783-0.489,1.565v1.761h4.207v1.468c0,0.978-0.326,1.778-0.978,2.397c-0.652,0.621-1.403,0.93-2.25,0.93
					h-0.978v19.666H77.682z"/>
				<path style="fill:#AF0F0B;" d="M89.283,37.078V10.269c0-2.348,0.618-4.109,1.859-5.284c1.175-1.109,3.098-1.663,5.774-1.663
					c0.65,0,1.174,0.033,1.564,0.098c0.718,0,1.273,0.034,1.663,0.098v5.381h-1.76c-0.914,0-1.565,0.132-1.957,0.392
					c-0.327,0.261-0.489,0.783-0.489,1.565v1.761h4.206v1.468c0,0.978-0.327,1.778-0.977,2.397c-0.652,0.621-1.404,0.93-2.25,0.93
					h-0.978v19.666H89.283z"/>
				<path style="fill:#AF0F0B;" d="M100.925,3.42h3.522c0.913,0,1.696,0.31,2.348,0.93c0.652,0.62,0.978,1.386,0.978,2.299v30.43
					h-6.849V3.42z"/>
				<path style="fill:#AF0F0B;" d="M127.501,29.055h4.892c-0.718,2.74-2.088,4.828-4.109,6.262
					c-2.024,1.502-4.567,2.252-7.632,2.252c-3.718,0-6.621-1.206-8.709-3.62c-2.088-2.348-3.13-5.708-3.13-10.079
					c0-4.173,1.01-7.436,3.033-9.784c2.086-2.413,4.989-3.62,8.707-3.62c3.914,0,6.947,1.174,9.1,3.522
					c2.086,2.414,3.13,5.774,3.13,10.077c0,0.262,0,0.49,0,0.685c0,0.196,0,0.327,0,0.392c0,0.327-0.034,0.555-0.098,0.685H115.76
					c0.064,2.022,0.553,3.522,1.467,4.5c0.847,1.045,2.119,1.566,3.817,1.566c1.108,0,2.054-0.228,2.837-0.685
					c0.195-0.064,0.375-0.179,0.538-0.343c0.162-0.161,0.342-0.342,0.538-0.538c0.064-0.195,0.309-0.454,0.733-0.782
					C126.114,29.218,126.718,29.055,127.501,29.055z M115.76,21.424h9.979c-0.131-1.762-0.587-3.066-1.369-3.915
					c-0.849-0.912-2.055-1.369-3.62-1.369c-1.436,0-2.61,0.457-3.523,1.369C116.313,18.423,115.824,19.728,115.76,21.424z"/>
			</g>
			<path style="fill:#002C42;" d="M138.311,23.378c6.455,0,11.689-5.234,11.689-11.689S144.766,0,138.311,0
				s-11.689,5.234-11.689,11.689S131.856,23.378,138.311,23.378"/>
		</g>
		<g>
			<path style="fill:#FFFFFF;" d="M132.521,16.292l1.091-7.767h-2.798l0.096-0.686c0.039-0.274,0.166-0.507,0.386-0.7
				c0.22-0.192,0.466-0.288,0.74-0.288h6.532l-0.236,1.675h-2.771l-1.091,7.767H132.521z"/>
		</g>
		<g>
			<path style="fill:#FFFFFF;" d="M138.769,12.644c-0.155-0.269-0.396-0.402-0.726-0.402c-0.358,0-0.648,0.128-0.875,0.382
				c-0.228,0.255-0.372,0.604-0.435,1.05l-0.368,2.616h-1.298l0.923-6.568h0.65c0.178,0,0.321,0.065,0.43,0.192
				c0.11,0.127,0.152,0.28,0.127,0.458l-0.211,1.508c0.283-0.382,0.642-0.623,1.077-0.726c0.432-0.101,0.83-0.075,1.191,0.077
				c0.335,0.153,0.6,0.396,0.795,0.726c0.195,0.331,0.253,0.789,0.17,1.374l-0.417,2.959h-1.28l0.371-2.634
				c0.028-0.192,0.035-0.366,0.026-0.525C138.912,12.971,138.861,12.809,138.769,12.644z"/>
			<path style="fill:#FFFFFF;" d="M140.908,11.213h0.688c0.178,0,0.322,0.064,0.432,0.191c0.109,0.127,0.152,0.28,0.127,0.458
				l-0.623,4.429h-1.337L140.908,11.213z M141.117,9.722h0.688c0.178,0,0.322,0.065,0.431,0.192c0.11,0.127,0.152,0.28,0.127,0.458
				l-0.056,0.401h-1.337L141.117,9.722z"/>
			<path style="fill:#FFFFFF;" d="M141.907,14.611h1.298c-0.025,0.254,0.045,0.445,0.204,0.572c0.174,0.127,0.419,0.191,0.737,0.191
				c0.229,0,0.434-0.044,0.61-0.134c0.166-0.088,0.258-0.209,0.28-0.362c0.033-0.23-0.211-0.401-0.73-0.517
				c-0.224-0.037-0.389-0.077-0.499-0.114c-0.652-0.165-1.075-0.363-1.272-0.591c-0.223-0.23-0.308-0.534-0.254-0.917
				c0.068-0.484,0.309-0.885,0.723-1.202c0.423-0.293,0.94-0.44,1.552-0.44c0.661,0,1.168,0.147,1.523,0.44
				c0.322,0.318,0.462,0.732,0.415,1.241h-0.82c-0.242,0-0.411-0.109-0.508-0.325c-0.043-0.05-0.088-0.102-0.132-0.152
				c-0.135-0.115-0.338-0.172-0.605-0.172c-0.254,0-0.451,0.039-0.588,0.114c-0.124,0.077-0.199,0.192-0.22,0.344
				c-0.029,0.204,0.276,0.376,0.921,0.516c0.072,0.026,0.136,0.045,0.191,0.057c0.056,0.013,0.109,0.02,0.16,0.02
				c0.626,0.165,1.05,0.357,1.276,0.572c0.208,0.23,0.288,0.534,0.233,0.918c-0.079,0.56-0.343,0.992-0.794,1.298
				c-0.42,0.28-1.014,0.42-1.777,0.42c-0.726,0-1.246-0.147-1.561-0.44c-0.327-0.293-0.452-0.718-0.373-1.278L141.907,14.611z"/>
		</g>
	</g>
</g>
<g id="Laag_1">
</g>
</svg>
