<?xml version="1.0" encoding="iso-8859-1"?>
<!-- Generator: Adobe Illustrator 19.2.1, SVG Export Plug-In . SVG Version: 6.00 Build 0)  -->
<svg version="1.1" xmlns="http://www.w3.org/2000/svg" xmlns:xlink="http://www.w3.org/1999/xlink" x="0px" y="0px"
	 viewBox="0 0 150 65.176" style="enable-background:new 0 0 150 65.176;" xml:space="preserve">
<g id="speakup">
	<g>
		<g>
			<g>
				<path style="fill:#003A43;" d="M129.766,40.467c11.175,0,20.234-9.059,20.234-20.234S140.941,0,129.766,0
					s-20.234,9.058-20.234,20.233S118.592,40.467,129.766,40.467"/>
			</g>
		</g>
		<g>
			<polygon style="fill:#003A43;" points="132.159,38.368 132.159,48.548 140.135,32.806 			"/>
		</g>
		<g>
			<g>
				<path style="fill:#FFFFFF;" d="M23.766,26.289v-4.504c0-5.276-2.467-7.914-7.399-7.914h-3.86c-4.933,0-7.399,2.638-7.399,7.914
					v9.459c0,1.201,0.129,2.177,0.386,2.927c0.258,0.751,0.675,1.362,1.255,1.834c0.579,0.473,1.512,1.052,2.799,1.737l5.855,3.281
					c0.772,0.473,1.329,0.859,1.673,1.158c0.343,0.3,0.515,0.88,0.515,1.737v7.849c0,1.802-0.816,2.703-2.445,2.703H14.05
					c-1.845,0-2.767-0.901-2.767-2.703v-2.509H5.107v2.316c0,5.662,2.466,8.493,7.399,8.493h3.796c4.976,0,7.464-2.595,7.464-7.786
					v-9.844c0-1.629-0.151-2.734-0.45-3.314c-0.3-0.579-0.719-1.071-1.255-1.48c-0.537-0.407-1.448-0.975-2.734-1.705l-5.855-3.153
					c-0.772-0.471-1.33-0.858-1.673-1.158c-0.344-0.299-0.515-0.879-0.515-1.737v-7.657c0-1.844,0.879-2.767,2.638-2.767h0.965
					c1.802,0,2.703,0.923,2.703,2.767v4.054H23.766z"/>
				<path style="fill:#003A43;" d="M16.302,65.175h-3.796C4.675,65.175,0,60.091,0,51.576v-2.316c0-2.82,2.286-5.107,5.107-5.107
					h5.434l-3.443-1.93c-1.593-0.85-2.731-1.569-3.579-2.262c-1.32-1.074-2.283-2.466-2.855-4.131C0.217,34.531,0,33.031,0,31.244
					v-9.459c0-8.031,4.792-13.02,12.506-13.02h3.86c7.714,0,12.506,4.989,12.506,13.02v4.504c0,2.82-2.286,5.107-5.107,5.107h-2.108
					l0.09,0.049c0.033,0.018,0.066,0.036,0.099,0.055c1.518,0.861,2.567,1.521,3.299,2.077c1.148,0.874,2.054,1.947,2.702,3.196
					c0.709,1.373,1.024,3.118,1.024,5.666v9.844C28.872,60.236,24.056,65.175,16.302,65.175z"/>
			</g>
			<g>
				<path style="fill:#FFFFFF;" d="M35.089,19.469h3.603c1.844,0,2.767,0.901,2.767,2.703V35.04c0,1.801-0.816,2.702-2.445,2.702
					h-3.925V19.469z M28.913,60.069h6.177V43.34h5.147c4.932,0,7.399-2.616,7.399-7.849V21.785c0-5.276-2.488-7.914-7.464-7.914
					h-11.26V60.069z"/>
				<path style="fill:#003A43;" d="M35.089,65.176h-6.177c-2.82,0-5.107-2.286-5.107-5.107V13.871c0-2.82,2.286-5.107,5.107-5.107
					h11.26c7.754,0,12.571,4.989,12.571,13.021v13.706c0,7.991-4.792,12.956-12.506,12.956h-0.041v11.623
					C40.196,62.889,37.91,65.176,35.089,65.176z"/>
			</g>
			<g>
				<polygon style="fill:#FFFFFF;" points="67.839,60.069 67.839,54.471 58.703,54.471 58.703,39.093 66.81,39.093 66.81,33.495 
					58.703,33.495 58.703,19.469 67.839,19.469 67.839,13.871 52.525,13.871 52.525,60.069 				"/>
				<path style="fill:#003A43;" d="M67.839,65.176H52.525c-2.82,0-5.107-2.286-5.107-5.107V13.871c0-2.82,2.286-5.107,5.107-5.107
					h15.314c2.82,0,5.107,2.286,5.107,5.107v5.598c0,2.82-2.286,5.107-5.107,5.107h-4.03v3.813h3c2.82,0,5.107,2.286,5.107,5.107
					v5.598c0,2.82-2.286,5.107-5.107,5.107h-3v5.165h4.03c2.82,0,5.107,2.286,5.107,5.107v5.598
					C72.946,62.889,70.659,65.176,67.839,65.176z"/>
			</g>
			<g>
				<path style="fill:#FFFFFF;" d="M78.133,37.549V22.171c0-1.802,0.901-2.703,2.703-2.703h1.673c1.802,0,2.703,0.901,2.703,2.703
					v15.378H78.133z M78.133,43.147h7.078v16.922h6.177V21.785c0-5.276-2.467-7.914-7.399-7.914h-4.633
					c-4.934,0-7.399,2.638-7.399,7.914v38.284h6.177V43.147z"/>
				<path style="fill:#003A43;" d="M91.387,65.175h-6.176c-1.374,0-2.621-0.542-3.539-1.425c-0.918,0.883-2.165,1.425-3.539,1.425
					h-6.177c-2.82,0-5.107-2.286-5.107-5.107V21.785c0-8.031,4.792-13.02,12.506-13.02h4.633c7.714,0,12.505,4.989,12.505,13.02
					v38.284C96.494,62.889,94.208,65.175,91.387,65.175z"/>
			</g>
			<g>
				<path style="fill:#FFFFFF;" d="M108.953,36.841l6.499-22.97h-5.662l-6.434,23.227v0.386l7.721,22.584h6.177L108.953,36.841z
					 M103.033,13.871h-6.177v46.198h6.177V13.871z"/>
				<path style="fill:#003A43;" d="M103.033,65.176h-6.177c-2.82,0-5.107-2.286-5.107-5.107V13.871c0-2.82,2.286-5.107,5.107-5.107
					h6.177c1.295,0,2.478,0.482,3.378,1.277c0.91-0.802,2.1-1.277,3.378-1.277h5.662c1.6,0,3.108,0.75,4.073,2.026
					c0.965,1.276,1.276,2.931,0.841,4.471l-6.054,21.399l7.75,21.69c0.559,1.564,0.322,3.302-0.634,4.66
					c-0.957,1.358-2.514,2.165-4.175,2.165h-6.177c-1.601,0-3.072-0.746-4.021-1.958C106.12,64.41,104.666,65.176,103.033,65.176z"
					/>
			</g>
		</g>
		<g>
			<g>
				<path style="fill:#FFFFFF;" d="M23.766,26.289v-4.504c0-5.276-2.467-7.914-7.399-7.914h-3.86c-4.933,0-7.399,2.638-7.399,7.914
					v9.459c0,1.201,0.129,2.177,0.386,2.927c0.258,0.751,0.675,1.362,1.255,1.834c0.579,0.473,1.512,1.052,2.799,1.737l5.855,3.281
					c0.772,0.473,1.329,0.859,1.673,1.158c0.343,0.3,0.515,0.88,0.515,1.737v7.849c0,1.802-0.816,2.703-2.445,2.703H14.05
					c-1.845,0-2.767-0.901-2.767-2.703v-2.509H5.107v2.316c0,5.662,2.466,8.493,7.399,8.493h3.796c4.976,0,7.464-2.595,7.464-7.786
					v-9.844c0-1.629-0.151-2.734-0.45-3.314c-0.3-0.579-0.719-1.071-1.255-1.48c-0.537-0.407-1.448-0.975-2.734-1.705l-5.855-3.153
					c-0.772-0.471-1.33-0.858-1.673-1.158c-0.344-0.299-0.515-0.879-0.515-1.737v-7.657c0-1.844,0.879-2.767,2.638-2.767h0.965
					c1.802,0,2.703,0.923,2.703,2.767v4.054H23.766z"/>
			</g>
			<g>
				<path style="fill:#FFFFFF;" d="M35.089,19.469h3.603c1.844,0,2.767,0.901,2.767,2.703V35.04c0,1.801-0.816,2.702-2.445,2.702
					h-3.925V19.469z M28.913,60.069h6.177V43.34h5.147c4.932,0,7.399-2.616,7.399-7.849V21.785c0-5.276-2.488-7.914-7.464-7.914
					h-11.26V60.069z"/>
			</g>
			<g>
				<polygon style="fill:#FFFFFF;" points="67.839,60.069 67.839,54.471 58.703,54.471 58.703,39.093 66.81,39.093 66.81,33.495 
					58.703,33.495 58.703,19.469 67.839,19.469 67.839,13.871 52.525,13.871 52.525,60.069 				"/>
			</g>
			<g>
				<path style="fill:#FFFFFF;" d="M78.133,37.549V22.171c0-1.802,0.901-2.703,2.703-2.703h1.673c1.802,0,2.703,0.901,2.703,2.703
					v15.378H78.133z M78.133,43.147h7.078v16.922h6.177V21.785c0-5.276-2.467-7.914-7.399-7.914h-4.633
					c-4.934,0-7.399,2.638-7.399,7.914v38.284h6.177V43.147z"/>
			</g>
			<g>
				<path style="fill:#FFFFFF;" d="M108.953,36.841l6.499-22.97h-5.662l-6.434,23.227v0.386l7.721,22.584h6.177L108.953,36.841z
					 M103.033,13.871h-6.177v46.198h6.177V13.871z"/>
			</g>
		</g>
		<g>
			<path style="fill:#E58E24;" d="M135.824,10.899h1.887c0.966,0,1.449,0.511,1.449,1.532v7.294c0,1.021-0.427,1.531-1.281,1.531
				h-2.056V10.899z M132.589,33.91h3.235v-9.482h2.696c2.583,0,3.875-1.483,3.875-4.449v-7.768c0-2.99-1.303-4.485-3.909-4.485
				h-5.897V33.91z"/>
		</g>
		<g>
			<path style="fill:#E58E24;" d="M123.717,17.317V7.727h-3.235v21.698c0,2.99,1.292,4.485,3.875,4.485h2.426
				c2.584,0,3.875-1.495,3.875-4.485V7.727h-3.235v9.591v3.173v8.716c0,1.021-0.472,1.532-1.415,1.532h-0.876
				c-0.944,0-1.415-0.511-1.415-1.532V20.49V17.317z"/>
		</g>
	</g>
</g>
<g id="Laag_1">
</g>
</svg>
