<?xml version="1.0" encoding="iso-8859-1"?>
<!-- Generator: Adobe Illustrator 19.2.1, SVG Export Plug-In . SVG Version: 6.00 Build 0)  -->
<svg version="1.1" xmlns="http://www.w3.org/2000/svg" xmlns:xlink="http://www.w3.org/1999/xlink" x="0px" y="0px"
	 viewBox="0 0 150 36.256" style="enable-background:new 0 0 150 36.256;" xml:space="preserve">
<g id="surfen">
	<g>
		<g>
			<path style="fill:#1D1D1B;" d="M147.599,33.972c0-0.117,0.059-0.176,0.176-0.235h0.115v0.117l-0.115,0.235L147.599,33.972z
				 M145.959,31.921c0,0.176-0.059,0.235-0.235,0.235h-0.47v-0.235H145.959z M146.427,31.804c0-0.174,0.059-0.233,0.235-0.233h0.117
				v0.117c0,0.174-0.059,0.233-0.235,0.233h-0.117V31.804z M123.759,0.585c-0.994,0.059-1.464,0.47-1.464,1.113V34.44
				c0,0.646,0.47,1.055,1.464,1.113h0.822c0-0.176,0.174-0.35,0.468-0.644c0.411,0,0.644,0.235,0.644,0.644h0.47
				c1.17-0.059,1.757-0.35,1.757-0.879c0-3.514-0.059-11.656-0.235-24.482l-0.117-0.235h0.235c1.055,1.816,5.974,9.488,14.759,22.96
				c0.879,1.757,1.642,2.636,2.403,2.636c0.526-0.059,0.761-0.235,0.761-0.526l0.585,0.059h0.235l1.581-0.293
				c0.528,0,0.82,0.235,0.82,0.761l0.587-0.235c0-0.292-0.059-0.585-0.235-0.761l0.585,0.117H150V1.698
				c0-0.761-0.468-1.113-1.405-1.113h-2.52c-1.111,0-1.698,0.352-1.698,1.113c0.176,13.472,0.235,21.555,0.235,24.249v0.117
				c-0.059,0-0.176-0.117-0.35-0.352c-7.615-11.948-12.593-19.622-14.879-23.077c-0.526-1.346-1.288-2.051-2.166-2.051H123.759z
				 M102.617,35.905c-0.176,0-0.235,0.059-0.235,0.235h0.235V35.905z M107.888,35.436c0-0.117,0.059-0.174,0.176-0.233h0.116v0.116
				c0,0.176-0.059,0.235-0.233,0.235h-0.059V35.436z M106.951,35.436c0-0.117,0.059-0.174,0.233-0.233h0.117v0.116l-0.117,0.235
				L106.951,35.436z M100.86,35.436c0-0.117,0.057-0.174,0.233-0.233h0.117v0.116l-0.117,0.235L100.86,35.436z M111.285,35.318
				c0-0.116,0.059-0.174,0.235-0.233h0.116v0.117l-0.116,0.233L111.285,35.318z M117.024,35.085c0.059,0,0.176,0,0.352-0.059h0.117
				v0.176c-0.176,0-0.352,0.059-0.47,0.116V35.085z M116.089,35.203c0-0.117,0.057-0.176,0.233-0.176h0.117v0.059
				c0,0.176-0.059,0.233-0.235,0.233h-0.116V35.203z M117.902,34.44c0.176,0,0.235,0.059,0.235,0.235v0.117h-0.235
				c-0.115,0-0.174-0.059-0.233-0.235V34.44H117.902z M115.854,34.44c0-0.174,0.059-0.233,0.235-0.233h0.35
				c0,0.176-0.059,0.233-0.235,0.233H115.854z M100.625,32.8c0-0.117,0.059-0.176,0.235-0.176h0.116v0.059
				c0,0.176-0.059,0.235-0.233,0.235h-0.117V32.8z M113.803,31.102l0.585,0.117v0.117h-0.116l-0.587-0.117v-0.117H113.803z
				 M114.623,30.517h0.235v-0.117h-0.235V30.517z M114.388,30.399h0.235v-0.117h-0.235V30.399z M109.469,30.634h-0.117v-0.235h0.117
				V30.634z M109.937,30.517h-0.117v-0.235h0.117V30.517z M107.888,30.517h-0.117v-0.235h0.117V30.517z M110.582,30.517h-0.117
				v-0.411h0.117V30.517z M108.064,30.517h-0.117V29.99h0.117V30.517z M112.749,29.755c0,0.059,0.059,0.176,0.117,0.35h-0.117
				c-0.176-0.117-0.292-0.233-0.292-0.35H112.749z M112.866,29.521h-0.176v-0.117h0.176V29.521z M105.661,29.755h-0.117v-0.352
				h0.117V29.755z M111.987,29.403h-0.352v-0.117h0.352V29.403z M110.7,29.286v0.117l-0.235-0.117v-0.117L110.7,29.286z
				 M105.544,29.286h-0.117v-0.352h0.117V29.286z M111.285,28.818c0.761,0,1.172,0.117,1.172,0.35l-1.407-0.233v-0.117H111.285z
				 M106.131,28.818v0.117l-0.117,0.82l0.117,0.526h0.117c0-0.117,0.057-0.526,0.233-1.229h0.117v0.115
				c0,0.059-0.059,0.352-0.235,0.937v0.293h0.117c0.235-0.585,0.352-0.996,0.352-1.231h0.117v0.235l-0.117,0.761v0.235h0.117
				l0.117-0.996l0.233,0.117v-0.352h0.117v0.117l-0.117,0.47v0.35h0.117v-0.35h0.117v0.879h-2.166v-0.528
				c0-0.174,0.057-0.233,0.174-0.233v0.526c0.176,0,0.352-0.526,0.47-1.581H106.131z M110.933,28.349v0.235
				c-0.117,0-0.176-0.059-0.233-0.235H110.933z M111.05,27.998h-0.235v-0.117h0.235V27.998z M110.289,27.763v0.235
				c-0.176-0.059-0.293-0.117-0.352-0.117v-0.117H110.289z M111.05,27.705h-0.235v-0.117h0.235V27.705z M107.301,22.668h0.117
				v-0.235h-0.117V22.668z M106.364,22.199v0.117l-0.233-0.117v-0.117L106.364,22.199z M109.937,21.731h0.235
				c0-0.117-0.059-0.176-0.235-0.235V21.731z M108.532,21.731h0.117v-0.235h-0.117V21.731z M108.064,21.496v0.117l-0.176-0.117
				v-0.117L108.064,21.496z M106.364,21.496v0.117l-0.233-0.117v-0.117L106.364,21.496z M105.544,14.057v0.235
				c-0.117,0-0.174-0.059-0.174-0.235H105.544z M105.427,13.472c0.528,0.059,0.822,0.176,0.822,0.352
				c-0.059,0-0.176,0.057-0.352,0.115c-0.293-0.115-0.47-0.233-0.47-0.35V13.472z M106.014,13.12c0,0.176,0.235,0.293,0.702,0.352
				h0.352v-0.117L106.014,13.12z M106.248,13.061h0.235v-0.117h-0.235V13.061z M111.635,11.421h0.117v-0.235h-0.117V11.421z
				 M108.767,6.852c-0.47,0.352-0.702,0.587-0.702,0.704h0.116c0.47-0.352,0.704-0.587,0.704-0.704H108.767z M108.297,6.735
				L108.18,6.97h-0.116l0.116-0.235H108.297z M108.064,6.619c0,0.059-0.235,0.409-0.646,0.937h-0.117l0.646-0.937H108.064z
				 M106.014,7.557c0.292-0.646,0.468-0.937,0.585-0.937c0,0.174-0.176,0.468-0.468,0.937H106.014z M105.661,7.322
				c0.176-0.47,0.352-0.702,0.47-0.702c0,0.174-0.117,0.409-0.352,0.702H105.661z M105.661,6.619v0.115
				c0,0.059-0.059,0.176-0.117,0.47h-0.117V7.087c0.059-0.293,0.117-0.409,0.117-0.468H105.661z M107.068,2.988
				c0.059,0,0.174-0.059,0.35-0.117h0.117l-0.117,0.235h-0.35V2.988z M99.629,2.401v0.117h0.117c0.117,0,0.235-0.176,0.35-0.468
				c-0.059,0-0.116-0.059-0.116-0.235h-0.235L99.629,2.401z M118.137,1.348h0.82V1.231l-0.82-0.117V1.348z M113.336,1.113
				c0,0.292-0.235,0.468-0.646,0.468c-0.292,0-0.644-0.117-1.055-0.35c-0.994,0.292-1.64,0.468-2.049,0.468
				c-0.059,0-0.47-0.059-1.172-0.235c-0.235,0-0.35,0.352-0.35,1.055c-0.176,0-0.47-0.292-0.763-0.937
				c-0.468,0-0.702,0.176-0.702,0.47c-0.176,0-0.235-0.117-0.235-0.352h-2.166c-0.235,0-0.528,0.117-0.937,0.352
				c-0.176-0.059-0.293-0.235-0.411-0.587c-0.526,0.293-0.937,0.47-1.17,0.47h-0.937l-0.176-0.117
				c-0.176,0.879-0.352,1.289-0.585,1.289l0.116,0.233v0.176h-0.35l0.117-0.176V3.221h-0.235V34.44c0,0.879,0.176,1.348,0.585,1.466
				h0.996l0.82,0.117c0.059-0.293,0.176-0.47,0.352-0.47h0.117c0.176,0,0.233,0.117,0.233,0.352h0.117l0.293-0.235
				c0.176,0,0.235,0.059,0.235,0.235l-0.117,0.235h1.172v-0.235h0.233l0.352,0.235h0.235v-0.235l0.761,0.117h0.117
				c0.233,0,0.702-0.117,1.405-0.352c1.055,0.293,1.757,0.47,2.051,0.47c0.176-0.47,0.585-0.704,1.229-0.704h0.235
				c0.176,0,0.235,0.176,0.235,0.587h0.235V35.67c0.409,0.293,0.761,0.47,1.053,0.47c0.176,0,0.352-0.176,0.528-0.47
				c0.293,0.235,0.585,0.411,0.937,0.47l0.702-0.117h0.352l0.526,0.117c0-0.059,0.059-0.117,0.235-0.117v-0.235h-0.352v-0.352h0.235
				c0.059,0.059,0.352,0.293,0.82,0.704h0.82l0.644-0.47h0.352l-0.235,0.352v0.117h0.235c0.235-0.059,0.352-0.293,0.352-0.704h0.585
				c0.176,0,0.235-0.059,0.235-0.233v-3.399c0-0.702-0.47-1.111-1.407-1.17h-3.279l0.117,0.233v0.352h-0.117
				c-0.528-0.352-0.82-0.585-0.82-0.702c0.059,0,0.176,0.059,0.35,0.117h0.235v-0.117c-0.176,0-0.585-0.235-1.172-0.644h-0.116
				c0,0.174,0.059,0.233,0.233,0.233v0.059c-0.292-0.059-0.468-0.176-0.468-0.292h0.235v-0.117c-0.235,0-0.352-0.059-0.352-0.235
				c0.411,0,0.879,0.176,1.405,0.585v-0.233l0.47,0.233h0.117c-0.587-0.526-1.466-0.996-2.636-1.522v-0.117h0.117
				c0.174,0,0.585,0.059,1.111,0.235h0.117v-0.117c-0.409,0-0.585-0.059-0.585-0.235c-0.996-0.059-1.466-0.176-1.466-0.35h0.235
				v-0.117c-0.761-0.352-1.17-0.702-1.17-0.996h-0.235l0.117,0.235v0.117l-0.411-0.235v0.117h-0.585v-0.117
				c0.235,0,0.468-0.059,0.761-0.117V26.65l-1.113,0.117H109c-0.174-0.176-0.409-0.235-0.82-0.235v-0.117h0.235
				c-0.409-0.233-0.644-0.585-0.644-1.053l-1.407-2.694h0.117l0.352,0.174c0-0.174,0.059-0.292,0.235-0.292v-0.117
				c-0.293,0-0.47-0.176-0.587-0.47v-0.116l0.47,0.468h0.117v-0.235l-0.352-0.585l0.702,0.82h0.117
				c-0.059-0.411-0.176-0.585-0.352-0.585v-0.117c0.47,0.409,0.704,0.702,0.704,0.937h0.176c0-0.059-0.117-0.411-0.293-0.937
				c0.059,0,0.176,0.176,0.293,0.468c0.057,0,0.116-0.059,0.116-0.117l0.352,0.235c0-0.235-0.059-0.468-0.235-0.702v-0.117
				c0.059,0,0.117,0.059,0.117,0.117c0.059,0,0.117-0.059,0.117-0.117c0.059,0,0.117,0.059,0.117,0.117
				c0.059,0,0.117-0.059,0.117-0.117c0.059,0,0.117,0.059,0.117,0.117l0.233-0.117h0.117l0.235,0.117
				c0-0.059,0.059-0.117,0.117-0.117h0.117l0.233,0.117c0-0.059,0.059-0.117,0.117-0.117h0.235v0.235h0.293v-0.117h-0.235v-0.117
				h0.702l0.235,0.117c0-0.059,0.059-0.117,0.117-0.117h0.468l0.117,0.585h0.117v-0.35l-0.117-0.235
				c0.059,0,0.117,0.059,0.117,0.117l0.235-0.117l0.233,0.117c0-0.059,0.059-0.117,0.117-0.117c0,0.117,0.059,0.293,0.176,0.47
				c0.411-0.176,0.585-0.293,0.585-0.47h0.117v0.47h0.117c0-0.235,0.059-0.352,0.235-0.352h0.117v0.352h0.117v-0.235l0.233,0.117
				h0.117v-0.235h0.117c0,0.293,0.176,0.468,0.47,0.585l0.174-0.117v0.117l0.235-0.117h0.117l0.117,0.47h0.117l0.235-0.585h0.233
				l0.117,0.468h0.117c0.176,0,0.235-0.059,0.235-0.235c-0.293-0.409-0.47-0.644-0.47-0.702h1.466c1.17,0,1.757-0.468,1.757-1.346
				v-2.87c0-0.937-0.587-1.407-1.757-1.407h-7.733l-0.233-0.115c0,0.057-0.059,0.115-0.117,0.115h-2.051V15.64h0.235v-0.117h-0.117
				l-0.82,0.233h-0.117V15.64c0.409,0,0.702-0.235,0.937-0.646h-0.235l-0.585,0.117v-0.117c0.409-0.059,0.585-0.176,0.585-0.35
				v-0.117c-0.176,0-0.352,0.059-0.585,0.235h-0.117l0.35-0.587h-0.116c-0.235,0-0.528,0.117-0.937,0.352
				c0-0.117,0.292-0.293,0.82-0.587l-0.117-0.233c-0.937-0.235-1.407-0.411-1.407-0.587h0.235v-0.059h-0.235l0.117-0.233
				l0.587,0.117h0.117v-0.117c-0.528-0.176-0.822-0.293-0.822-0.47c0.411,0,0.879,0.059,1.407,0.117h0.235v-0.117l-1.055-0.35
				v-0.117l0.585-0.117l0.82,0.117h0.117v-0.117c-0.059,0-0.293-0.059-0.702-0.117v-0.117c0.761-0.409,1.231-0.585,1.464-0.585
				l0.352,0.233h0.117v-0.233h0.117c0.233,0.117,0.35,0.233,0.35,0.35l0.235-0.117l-0.117-0.233h0.117l0.352,0.233h0.115v-0.115
				l-0.115-0.235c0.233,0.117,0.35,0.235,0.35,0.35c0.059,0,0.117-0.057,0.117-0.115c0.468,0.174,0.82,0.233,0.996,0.233v-0.35
				h0.235v0.233h0.116v-0.115c-0.292-0.879-0.644-1.348-0.935-1.348V9.605h0.233V9.488l-0.585-0.116V9.255h0.468V9.138h-0.233V9.02
				h0.233V8.903h-0.761V8.786c0.176,0,0.352-0.059,0.528-0.235c-0.059-0.174-0.117-0.292-0.117-0.35
				c-0.059,0-0.117,0.059-0.117,0.117h-0.176V8.2h0.176V8.142h-0.059c-0.059,0-0.176,0-0.352,0.059l0.235-0.293V7.79l-0.235,0.117
				l-0.233-0.117l0.117-0.233c-0.059,0-0.176-0.059-0.352-0.117c-0.176,0-0.235,0.059-0.235,0.233h-0.117
				c0.117-0.233,0.235-0.35,0.352-0.35c-0.117-0.235-0.235-0.352-0.352-0.352c-0.702,0.528-1.111,0.82-1.17,0.82V7.672
				c-0.293,0.176-0.47,0.293-0.528,0.47h-0.117c0.879-0.996,1.348-1.522,1.466-1.522c0.059,0,0.117,0.059,0.117,0.233l0.35-0.233
				h9.138c0.761-0.117,1.172-0.47,1.172-1.113V3.514h-0.352V3.397l0.352-0.409V2.283c0-0.409-0.176-0.702-0.47-0.82
				c0,0.411-0.293,0.763-0.82,1.055c-0.117,0-0.176-0.059-0.235-0.235v-0.82h-0.35v0.352h-0.176
				c-0.411-0.235-0.585-0.468-0.585-0.702H113.336z M93.538,2.694v0.235h-0.411V2.577L93.538,2.694z M94.123,1.055
				c0.059,0,0.176-0.059,0.352-0.117h0.235c0,0.176-0.059,0.235-0.235,0.235h-0.352V1.055z M79.481,0.879
				c-1.113,0-1.698,0.47-1.698,1.348v32.272c0,0.879,0.585,1.348,1.698,1.348h2.518c0.937,0,1.405-0.352,1.405-1.113V21.085h11.891
				c1.055,0,1.581-0.585,1.581-1.816v-2.166c0-1.055-0.585-1.581-1.816-1.581H83.404V6.561c0-0.117,0.059-0.176,0.176-0.235h9.664
				V6.209c0-0.352,0.176-0.526,0.528-0.526h0.233c0.47,0,0.704,0.233,0.704,0.644h0.82c0.879,0,1.346-0.47,1.346-1.464V3.047h-0.585
				l-0.235-0.117c0-0.293,0.235-0.702,0.702-1.289l-0.116-0.235c-0.117,0-0.411,0.293-0.822,0.937h-0.409V2.227
				c0-0.176,0.117-0.235,0.409-0.235c-0.174-0.293-0.292-0.528-0.292-0.702c-0.293,0-0.528-0.117-0.82-0.411H83.521l-0.35,0.176
				h-0.117c-0.176-0.117-0.293-0.176-0.352-0.176H79.481z M61.381,22.842h0.235v-0.059h-0.235V22.842z M63.315,21.848v0.116
				l-0.35-0.233v-0.117L63.315,21.848z M61.149,21.496c0,0.117,0.292,0.293,0.879,0.585h0.117c0-0.117-0.235-0.35-0.763-0.702
				L61.149,21.496z M60.914,21.614c0.176,0,0.235-0.059,0.235-0.235h-0.235V21.614z M60.211,20.911h0.235v-0.117h-0.235V20.911z
				 M59.977,20.794h0.235v-0.117h-0.235V20.794z M60.444,20.559h0.235v-0.117h-0.235V20.559z M59.333,19.915h0.176v-0.117h-0.176
				V19.915z M58.981,20.033h0.117v-0.235h-0.117V20.033z M61.266,19.798h0.235V19.68h-0.235V19.798z M61.031,19.68h0.235v-0.117
				h-0.235V19.68z M60.444,19.68h0.235v-0.117h-0.235V19.68z M60.796,19.563h0.235v-0.117h-0.235V19.563z M60.211,19.563h0.235
				v-0.117h-0.235V19.563z M58.863,19.563h0.235v-0.117h-0.235V19.563z M59.977,19.446h0.235v-0.117h-0.235V19.446z M54.823,21.027
				h0.117v-1.816h-0.117V21.027z M51.191,16.46c-0.059,3.982-0.117,7.087-0.117,9.371v8.727c0,1.055,0.585,1.583,1.816,1.583h2.401
				c0.996,0,1.524-0.411,1.524-1.231v-9.314c0-1.111-0.059-2.81-0.117-5.154H56.58v1.289h-0.117l-0.235-0.117
				c0,0.409-0.059,0.585-0.235,0.585v-1.933h-0.116c0,0.996-0.059,1.933-0.235,2.929h-0.117v-0.117
				c0.059-1.405,0.117-2.401,0.117-3.045v-0.235c-0.117,0-0.176,0.059-0.235,0.235v1.816H55.29c0-0.47-0.059-0.704-0.233-0.704
				c0,0.293-0.059,0.47-0.235,0.47v0.702h-0.117V19.68h-0.117l-0.117,1.113h-0.059v-2.285h-0.117v2.168l-0.116,0.468h-0.117
				c-0.059-0.233-0.176-1.17-0.235-2.753h-0.117c0,1.172-0.059,2.109-0.117,2.87h-0.117v-2.401h-0.117
				c0,1.055-0.059,1.757-0.116,2.051c-0.235,0-0.352-1.055-0.352-3.164h-0.117v3.749l-0.117,0.82h-0.117v-2.87H52.42v2.518h-0.115
				c0-0.409-0.059-1.522-0.235-3.221h-0.059v2.87h-0.117l-0.585-5.154H51.191z M56.462,15.873h0.352v-0.117h-0.352V15.873z
				 M54.47,14.877h0.235v-0.117H54.47V14.877z M53.242,14.644h0.235v-0.117h-0.235V14.644z M51.074,12.241h0.468v-0.117h-0.468
				V12.241z M51.074,11.539h0.585c-0.059-0.409-0.174-0.585-0.35-0.585h-0.235V11.539z M52.187,6.032h0.117V5.739h-0.117V6.032z
				 M54.061,5.624c0,0.059,0.059,0.176,0.117,0.292v0.117h-0.117c0-0.059-0.059-0.176-0.117-0.292V5.624H54.061z M52.07,5.741h0.117
				V5.506H52.07V5.741z M53.242,5.271h-0.117V5.037h0.117V5.271z M51.191,5.037h0.117V4.802h-0.117V5.037z M54.061,4.686h0.117
				V4.451h-0.117V4.686z M53.592,4.334h0.117V4.099h-0.117V4.334z M55.642,3.514h0.235V3.397h-0.235V3.514z M52.537,3.632h0.117
				V3.397h-0.117V3.632z M52.655,3.397h0.117V3.221h-0.117V3.397z M52.537,3.221h0.117V2.986h-0.117V3.221z M55.057,2.988h0.352
				V2.87h-0.352V2.988z M54.823,1.464h0.352V1.346h-0.352V1.464z M55.173,1.231v0.117h0.587c0,0.174-0.176,0.233-0.587,0.233v0.117
				h0.704v0.117l-1.055,0.117v0.117l1.17,0.117v0.116h-1.17v0.117c0.292,0,0.644,0.059,1.055,0.117v0.117H55.29v0.117l0.702,0.117
				v0.235L55.76,2.988h-0.352v0.117c0.293,0,0.528,0.115,0.702,0.409h-0.233c0.116,0.235,0.233,0.352,0.35,0.352v0.117l-0.235-0.117
				h-0.116c0,0.059,0.292,0.292,0.82,0.702v0.117l-0.47-0.235v0.585H56.11c0-0.174-0.292-0.35-0.82-0.585l-0.233,0.117
				c-0.117-0.293-0.235-0.47-0.352-0.47v0.235L54.47,4.217v0.235h-0.059l-0.117-0.468h-0.116v0.116c0,0.059,0.057,0.176,0.116,0.352
				c0,0.059-0.059,0.176-0.116,0.352c0,0.117,0.057,0.468,0.233,0.996c-0.176,0-0.409-0.47-0.585-1.466h-0.117v0.117
				c0,0.176,0.059,0.526,0.235,0.937c-0.059,0.117-0.117,0.293-0.117,0.526h-0.117c0-0.115-0.293-0.937-0.82-2.518h-0.117
				c0,0.352-0.059,0.587-0.117,0.702c0.176,0,0.235,0.293,0.235,0.822c0.059,0,0.117-0.059,0.117-0.117h0.117
				c-0.176,0.292-0.235,0.526-0.235,0.702c0.235,0,0.409,0.176,0.585,0.526v0.352h-0.117l-0.116-0.47
				c-0.176,0-0.235,0.117-0.235,0.352h-0.117l-0.879-2.518h-0.235c0.528,1.464,0.761,2.342,0.761,2.518v0.117H52.42V6.032h-0.115
				v0.47h-0.117c0-0.293-0.117-0.528-0.411-0.587c0-0.059,0.059-0.174,0.117-0.292V5.506c-0.059,0-0.117,0.059-0.117,0.117
				c-0.176,0-0.235-0.117-0.235-0.352h-0.116c0,0.059-0.059,0.176-0.117,0.352c0,0.117,0.117,0.292,0.35,0.526v0.117
				c-0.059,0-0.292-0.176-0.585-0.526c0.235,0.526,0.352,0.879,0.352,0.994v0.117c-0.176,0-0.235-0.117-0.235-0.35h-0.117v4.334
				c0.059,0,0.176-0.059,0.352-0.117c0.059,0,0.174,0.059,0.35,0.117l-0.117,0.235l0.235,0.35c0,0.059,0.47,0.117,1.464,0.117v0.117
				c-0.409,0-1.17,0.059-2.283,0.117c0,0.059,0.585,0.292,1.816,0.585v0.117c-0.117-0.059-0.47-0.176-1.113-0.235h-0.235v0.117h0.47
				v0.117h-0.352l-0.585-0.117v0.117l5.741,1.698V6.619h1.698c3.338,0,5.447,0.115,6.385,0.35c2.751,0.879,4.158,2.636,4.158,5.271
				v1.583c-0.879,2.81-2.929,4.217-6.209,4.217h-1.816v0.117c0.585,0.174,0.879,0.292,0.879,0.468c-0.176,0-0.411-0.059-0.644-0.235
				v0.117c-0.704-0.292-1.113-0.468-1.289-0.468h-0.235v0.117c1.933,0.644,2.87,1.111,2.87,1.288h-0.117
				c-0.292-0.233-0.82-0.468-1.698-0.702h-0.235v0.117c1.348,0.761,2.227,1.464,2.636,2.051v0.115
				c-0.994-0.82-1.522-1.229-1.581-1.229h-0.117c0.117,0.235,0.235,0.35,0.293,0.35v0.117c-0.059-0.059-0.411-0.292-0.996-0.585
				h-0.117l2.753,1.816v0.117c-0.996-0.644-2.051-1.172-3.103-1.698h-0.117l2.518,1.698c-0.176,0-0.82-0.352-1.933-1.055h-0.117
				l2.518,1.875v0.117c-0.35-0.117-0.644-0.293-0.937-0.47h-0.115l0.82,0.879h-0.117c-0.117-0.117-0.587-0.468-1.466-0.996h-0.233
				c0.526,0.411,0.761,0.646,0.761,0.704c0,0.117-0.117,0.174-0.293,0.174c0.352,0.528,0.587,0.822,0.644,0.822v0.115l-0.35-0.233
				h-0.117c0.293,0.409,0.526,0.585,0.585,0.585c-0.059,0.176-0.117,0.293-0.117,0.352c-0.057,0-0.115-0.059-0.115-0.117
				c-0.059,0-0.117,0.059-0.117,0.117l-0.235-0.117h-0.059l6.267,9.84c0.585,1.288,1.289,1.933,2.051,1.933h3.221
				c1.113,0,1.698-0.352,1.698-1.113v-0.235c-0.526-1.113-2.986-4.978-7.322-11.715V22.96c0.176,0,0.704-0.117,1.466-0.409
				c3.923-2.285,5.856-5.389,5.856-9.431v-0.644c0-1.405-0.292-2.87-0.937-4.451C72.1,3.397,68.06,1.113,61.91,1.113h-5.565
				L55.173,1.231z M28.231,28.349c0-0.117,0.059-0.176,0.235-0.233h0.35c0,0.174-0.059,0.233-0.233,0.233H28.231z M45.628,16.46
				c0-0.117,0.057-0.176,0.233-0.235h0.352c0,0.176-0.059,0.235-0.235,0.235H45.628z M25.185,2.518c0.117,0,0.176,0.059,0.176,0.235
				h-0.292V2.518H25.185z M29.168,2.051c0.411,0,0.585,0.233,0.585,0.702h-0.702v-0.47L29.168,2.051z M43.928,1.933
				c0-0.117,0.059-0.176,0.235-0.235h0.47v0.117c0,0.176-0.059,0.235-0.235,0.235h-0.47V1.933z M45.158,1.464
				c0.293,0,0.761,0.059,1.407,0.235c0-0.059,0.057-0.117,0.115-0.117c0.176,0,0.235,0.059,0.235,0.235v0.585l-0.468-0.233
				c0,0.292-0.528,0.526-1.642,0.585l-0.174-0.117C44.632,2.46,44.806,2.051,45.158,1.464 M43.225,0.702
				c-0.468,0.235-0.702,0.82-0.702,1.698v12.476c0.526,0,2.342-0.174,5.506-0.585l0.235,0.117V2.988l-0.117-0.235
				c-0.059,0-0.176,0.059-0.352,0.117c-0.35,0-0.585-0.293-0.761-0.82c0.411,0,0.82,0.059,1.231,0.233V1.348
				c-0.059,0-0.176,0.057-0.352,0.115c-0.235,0-0.411-0.174-0.468-0.585c-0.528,0.176-0.879,0.235-0.996,0.235
				c-0.411,0-0.646-0.117-0.704-0.293C45.1,0.937,44.75,0.996,44.632,0.996h-1.055V0.702H43.225z M25.83,0.585
				c-0.996,0-1.466,0.47-1.466,1.466v20.792c0,2.403,0.352,4.628,0.996,6.561c1.698,4.569,5.271,6.852,10.777,6.852h0.702
				c7.615,0,11.423-4.684,11.423-14.057v-6.852h-0.352c-0.761,0-1.757,0.117-3.105,0.409h-2.283v0.352
				c0.644,0,1.113,0.293,1.289,0.82c-0.879,0-1.289,0.059-1.289,0.235v5.389c0,5.565-1.992,8.316-6.032,8.316h-0.117
				c-2.285,0-4.042-0.935-5.271-2.751c-0.644-0.646-0.996-3.164-0.996-7.439V1.933c0-0.879-0.526-1.348-1.522-1.348H25.83z
				 M18.391,29.053c0.176,0,0.235,0.057,0.235,0.233c-0.176,1.113-0.235,1.64-0.235,1.698c-0.117,0-0.233-0.174-0.35-0.585
				l0.117-0.644v-0.702H18.391z M9.605,17.982c-0.117,0.176-0.235,0.293-0.35,0.293v-0.293H9.605z M10.719,17.512
				c0.117-0.233,0.235-0.35,0.35-0.35h0.352c0.176,0,0.235,0.059,0.235,0.235c-0.117,0.233-0.235,0.35-0.352,0.35h-0.35
				C10.836,17.747,10.777,17.688,10.719,17.512 M9.723,17.045c0.293,0.059,0.468,0.293,0.468,0.702v0.117l-0.115,0.526H9.958
				l-0.235-0.115c0.059-0.411,0.117-0.587,0.117-0.646L9.723,17.045z M6.267,16.927c0.176,0,0.235,0.059,0.235,0.235v0.117H6.267
				c-0.117,0-0.176-0.059-0.235-0.235v-0.117H6.267z M4.217,16.927c0-0.117,0.059-0.176,0.235-0.235h0.352
				c0,0.176-0.059,0.235-0.235,0.235H4.217z M9.605,3.221H9.371V2.869h0.235V3.221z M9.723,0C9.605,0,9.488,0.176,9.371,0.468
				c-0.174,0-0.526-0.057-0.937-0.233L6.852,0.702c-3.923,1.992-5.915,4.98-5.915,8.903v0.82c0,3.047,1.405,5.506,4.217,7.322
				c0.117,0,0.293-0.059,0.585-0.235h0.059v0.235H5.506c0.117,0.293,0.526,0.411,1.229,0.411c0,0.059-0.059,0.117-0.117,0.117
				c0,0.174,0.059,0.233,0.235,0.233H6.97l0.117-0.526h0.585c1.055,0.585,1.875,0.879,2.518,0.879h0.117
				c0.176,0,0.235-0.235,0.235-0.702c0.352,0.059,0.526,0.117,0.526,0.233h0.587c0,0.352,0.644,0.704,1.933,1.055
				c0.174,0.293,0.761,0.47,1.64,0.47c0,0.233-0.235,0.35-0.702,0.35v0.117c0,0.117,0.059,0.176,0.233,0.176
				c-0.644,0.526-0.937,0.879-0.937,0.937c1.289,1.113,1.933,2.225,1.933,3.456c0,0.176-0.059,0.761-0.117,1.698
				c-0.702,2.577-2.342,3.866-4.919,3.866c-1.113,0-2.109-0.235-2.929-0.761c-1.346-1.231-2.051-2.461-2.051-3.69
				c0-1.466-0.526-2.168-1.64-2.168H3.982c-0.292,0-0.585,0.059-0.879,0.117c-0.292-0.059-0.644-0.117-0.937-0.117h-0.35
				C0.585,23.897,0,24.367,0,25.363c0,0.879,0.176,2.107,0.585,3.573c1.816,4.86,5.097,7.32,9.958,7.32
				c1.407,0,2.87-0.292,4.451-0.82c4.393-2.166,6.619-5.798,6.619-10.952c0-4.921-2.87-8.2-8.553-9.84
				c-4.275-0.996-6.443-2.52-6.443-4.569c0-0.879,0.117-1.524,0.352-2.051c0.761-1.757,2.168-2.636,4.217-2.636h0.47
				c1.698,0,2.812,1.113,3.456,3.397c0,1.466,0.702,2.168,2.051,2.168h1.816c1.229,0,1.816-0.352,1.816-1.113
				c0-1.289-0.235-2.636-0.763-4.041C18.45,1.933,15.638,0,11.656,0H9.723z"/>
		</g>
	</g>
</g>
<g id="Laag_1">
</g>
</svg>
