<?xml version="1.0" encoding="iso-8859-1"?>
<!-- Generator: Adobe Illustrator 19.2.1, SVG Export Plug-In . SVG Version: 6.00 Build 0)  -->
<svg version="1.1" xmlns="http://www.w3.org/2000/svg" xmlns:xlink="http://www.w3.org/1999/xlink" x="0px" y="0px"
	 viewBox="0 0 150 17.574" style="enable-background:new 0 0 150 17.574;" xml:space="preserve">
<g id="viainformatica">
	<g>
		<path style="fill:#CA1719;" d="M12.907,0.942h2.384v2.631h-2.384V0.942z M4.715,17.574L0,4.814h2.382l3.748,10.377h0.05
			L9.929,4.814h2.382l-4.865,12.76H4.715z M12.907,4.814h2.384v12.76h-2.384V4.814z M19.882,15.34h6.603v-3.128h-6.603V15.34z
			 M19.286,17.574l-1.788-1.836v-3.973l1.788-1.787h7.198V7.05h-8.788l2.235-2.235h7.149l1.787,1.838v9.085l-1.787,1.836H19.286z"/>
		<path style="fill:#1D1D1B;" d="M37.679,0.942h2.382v2.631h-2.382V0.942z M121.95,0.942h2.382v2.631h-2.382V0.942z M37.679,4.814
			h2.382v12.76h-2.382V4.814z M51.257,17.574V7.05h-6.604v10.524h-2.382V6.652l1.787-1.838h7.795l1.787,1.838v10.922H51.257z
			 M56.171,17.574V7.05h-1.538V4.814h1.538V1.836L57.959,0h4.667l-2.235,2.232h-1.836v2.582h2.829L60.292,7.05h-1.737v10.524H56.171
			z M63.768,15.34h6.603V7.05h-6.603V15.34z M63.171,17.574l-1.787-1.836V6.652l1.787-1.838h7.794l1.788,1.838v9.085l-1.788,1.836
			H63.171z M74.541,17.574V6.652l1.785-1.838h5.735l-2.16,2.235h-2.978v10.524H74.541z M97.749,17.574V7.05h-5.784v10.524h-2.382
			V7.05h-5.784v10.524h-2.382V6.652l1.787-1.838h15.142l1.787,1.838v10.922H97.749z M104.152,15.34h6.604v-3.128h-6.604V15.34z
			 M103.558,17.574l-1.788-1.836v-3.973l1.788-1.787h7.198V7.05h-8.787l2.232-2.235h7.15l1.787,1.838v9.085l-1.787,1.836H103.558z
			 M115.621,17.574V7.05h-1.391V4.814h1.391V1.041l2.382,1.094v2.679h2.88l-1.142,2.235h-1.739v8.29h3.077l-2.282,2.234H115.621z
			 M121.95,4.814h2.382v12.76h-2.382V4.814z M128.328,17.574l-1.785-1.836V6.652l1.785-1.838h7.3l2.257,2.235h-8.96v8.29h8.96
			l-2.257,2.234H128.328z M141.014,15.34h6.603v-3.128h-6.603V15.34z M140.418,17.574l-1.788-1.836v-3.973l1.788-1.787h7.198V7.05
			h-8.787l2.234-2.235h7.149L150,6.652v9.085l-1.788,1.836H140.418z"/>
	</g>
</g>
<g id="Laag_1">
</g>
</svg>
