<?xml version="1.0" encoding="utf-8"?>
<!-- Generator: Adobe Illustrator 16.0.0, SVG Export Plug-In . SVG Version: 6.00 Build 0)  -->
<!DOCTYPE svg PUBLIC "-//W3C//DTD SVG 1.1//EN" "http://www.w3.org/Graphics/SVG/1.1/DTD/svg11.dtd">
<svg version="1.1" id="Laag_1" xmlns="http://www.w3.org/2000/svg" xmlns:xlink="http://www.w3.org/1999/xlink" x="0px" y="0px"
	 width="84.06px" height="1600px" viewBox="0 0 84.06 1600" enable-background="new 0 0 84.06 1600" xml:space="preserve">
<g>
	<title>file-types</title>
	
		<linearGradient id="SVGID_1_" gradientUnits="userSpaceOnUse" x1="247.7324" y1="-2257.1343" x2="327.1605" y2="-2336.5623" gradientTransform="matrix(0.9995 8.722450e-04 -8.722450e-04 0.9995 -254.2646 2355.4902)">
		<stop  offset="0" style="stop-color:#FFFFFF"/>
		<stop  offset="1" style="stop-color:#CDCDCC"/>
	</linearGradient>
	<polygon fill="url(#SVGID_1_)" points="0.8,105.149 0.899,0.8 55.273,0.8 83.26,30.586 83.16,105.25 	"/>
	<path fill="#B2B2B4" d="M1.599,1.6h53.274l27.588,29.386L82.36,104.55L1.5,104.45L1.599,1.6 M0.1,0L0,105.949l83.959,0.1
		l0.101-75.764L55.573,0H0.1L0.1,0z"/>
	<path fill="#605E60" d="M54.974,1.399c0,0,0,29.586,3.599,27.387c3.598-2.199,23.988,2.299,23.988,2.299L54.974,1.399z"/>
	<path fill="#E1E1E1" d="M54.974,1.399c0,0-0.101,26.487,3.599,24.389c3.697-2.1,24.088,5.297,24.088,5.297L54.974,1.399z"/>
	<path fill="none" d="M41.78,68.567L41.78,68.567L41.78,68.567z"/>
	<path fill="#CDCCCC" d="M55.074,46.078c-7.197-4.099-15.993-4.099-23.089,0l11.594,19.99l0,0h23.188
		C66.668,57.772,62.27,50.176,55.074,46.078z"/>
	<path fill="#9A9999" d="M65.068,68.667L65.068,68.667l-23.188-0.1l11.595,20.09C60.57,84.56,64.969,76.863,65.068,68.667z"/>
	<path fill="#B4B4B4" d="M41.78,68.567l-11.594,20.09c7.196,4.198,16.092,4.198,23.289,0L41.78,68.567L41.78,68.567z"/>
	<path fill="#808081" d="M30.286,48.577c-7.197,4.098-11.595,11.694-11.694,19.99c0,0,0,0,0,0.1c0,8.296,4.397,15.893,11.594,19.99
		l11.694-20.09l0,0L30.286,48.577z"/>
	
		<linearGradient id="SVGID_2_" gradientUnits="userSpaceOnUse" x1="247.9277" y1="-2037.1309" x2="327.3525" y2="-2116.5654" gradientTransform="matrix(0.9995 8.722450e-04 -8.722450e-04 0.9995 -254.2646 2355.4902)">
		<stop  offset="0" style="stop-color:#FFFFFF"/>
		<stop  offset="1" style="stop-color:#CDCBCB"/>
	</linearGradient>
	<polygon fill="url(#SVGID_2_)" points="0.8,325.044 0.899,220.694 55.273,220.694 83.26,250.479 83.16,325.144 	"/>
	<path fill="#B3B3B0" d="M1.599,221.493h53.274l27.588,29.387l-0.101,73.564L1.5,324.344L1.599,221.493 M0.1,219.895L0,325.844
		l83.959,0.1l0.101-75.764l-28.486-30.285H0.1L0.1,219.895z"/>
	<path fill="#5F605F" d="M54.974,221.294c0,0,0,29.485,3.599,27.387c3.598-2.1,23.988,2.299,23.988,2.299L54.974,221.294z"/>
	<path fill="#E1E1E1" d="M54.974,221.294c0,0-0.101,26.487,3.599,24.388c3.697-2.099,24.088,5.298,24.088,5.298L54.974,221.294z"/>
	<rect x="28.386" y="260.675" fill="#7E7F7F" width="42.68" height="2.199"/>
	<rect x="10.895" y="270.07" fill="#7E7F7F" width="60.271" height="2.199"/>
	<rect x="10.895" y="280.165" fill="#7E7F7F" width="60.271" height="2.199"/>
	<rect x="10.895" y="290.36" fill="#7E7F7F" width="60.271" height="2.199"/>
	<rect x="10.895" y="300.456" fill="#7E7F7F" width="60.271" height="2.198"/>
	<rect x="10.895" y="310.65" fill="#7E7F7F" width="60.271" height="2.199"/>
	
		<linearGradient id="SVGID_3_" gradientUnits="userSpaceOnUse" x1="247.8311" y1="-2147.1309" x2="327.2558" y2="-2226.5654" gradientTransform="matrix(0.9995 8.722450e-04 -8.722450e-04 0.9995 -254.2646 2355.4902)">
		<stop  offset="0" style="stop-color:#FFFFFF"/>
		<stop  offset="1" style="stop-color:#CDCDCC"/>
	</linearGradient>
	<polygon fill="url(#SVGID_3_)" points="0.8,215.097 0.899,110.747 55.273,110.747 83.26,140.532 83.16,215.196 	"/>
	<path fill="#B2B2B4" d="M1.599,111.547h53.274l27.588,29.386l-0.101,73.564l-80.861-0.1L1.599,111.547 M0.1,109.947L0,215.896
		l83.959,0.1l0.101-75.764l-28.486-30.285H0.1L0.1,109.947z"/>
	<path fill="#605E60" d="M54.974,111.347c0,0,0,29.485,3.599,27.387c3.598-2.099,23.988,2.299,23.988,2.299L54.974,111.347z"/>
	<path fill="#E1E1E1" d="M54.974,111.347c0,0-0.101,26.487,3.599,24.389c3.697-2.1,24.088,5.297,24.088,5.297L54.974,111.347z"/>
	<rect x="11.894" y="155.525" fill="#B4B4B4" width="13.793" height="7.097"/>
	<rect x="27.187" y="155.525" fill="#B4B4B4" width="13.793" height="7.097"/>
	<rect x="42.479" y="155.525" fill="#B4B4B4" width="13.794" height="7.097"/>
	<rect x="57.771" y="155.525" fill="#B4B4B4" width="13.794" height="7.097"/>
	<rect x="11.894" y="164.121" fill="#B4B4B4" width="13.793" height="7.097"/>
	<rect x="27.187" y="164.121" fill="#CDCCCC" width="13.793" height="7.097"/>
	<rect x="42.479" y="164.121" fill="#CDCCCC" width="13.794" height="7.097"/>
	<rect x="57.771" y="164.121" fill="#CDCCCC" width="13.794" height="7.097"/>
	<rect x="11.894" y="172.717" fill="#B4B4B4" width="13.793" height="7.097"/>
	<rect x="27.187" y="172.717" fill="#CDCCCC" width="13.793" height="7.097"/>
	<rect x="42.479" y="172.817" fill="#CDCCCC" width="13.794" height="7.097"/>
	<rect x="57.771" y="172.817" fill="#CDCCCC" width="13.794" height="7.097"/>
	<rect x="11.894" y="181.413" fill="#B4B4B4" width="13.793" height="7.097"/>
	<rect x="27.187" y="181.413" fill="#CDCCCC" width="13.793" height="7.097"/>
	<rect x="42.479" y="181.413" fill="#CDCCCC" width="13.794" height="7.097"/>
	<rect x="57.771" y="181.413" fill="#CDCCCC" width="13.794" height="7.097"/>
	<rect x="11.794" y="190.009" fill="#B4B4B4" width="13.793" height="7.097"/>
	<rect x="27.187" y="190.009" fill="#CDCCCC" width="13.793" height="7.097"/>
	<rect x="42.479" y="190.009" fill="#CDCCCC" width="13.794" height="7.097"/>
	<rect x="57.771" y="190.009" fill="#CDCCCC" width="13.794" height="7.097"/>
	
		<linearGradient id="SVGID_4_" gradientUnits="userSpaceOnUse" x1="248.1182" y1="-1817.1313" x2="327.5433" y2="-1896.5665" gradientTransform="matrix(0.9995 8.722450e-04 -8.722450e-04 0.9995 -254.2646 2355.4902)">
		<stop  offset="0" style="stop-color:#FFFFFF"/>
		<stop  offset="1" style="stop-color:#CDCDCC"/>
	</linearGradient>
	<polygon fill="url(#SVGID_4_)" points="0.8,544.938 0.899,440.588 55.273,440.588 83.26,470.374 83.16,545.038 	"/>
	<path fill="#B2B2B4" d="M1.599,441.388h53.274l27.588,29.386l-0.101,73.565L1.5,544.238L1.599,441.388 M0.1,439.789L0,545.737
		l83.959,0.101l0.101-75.764l-28.486-30.285H0.1L0.1,439.789z"/>
	<path fill="#605E60" d="M54.974,441.188c0,0,0,29.485,3.599,27.387c3.598-2.1,23.988,2.299,23.988,2.299L54.974,441.188z"/>
	<path fill="#E1E1E1" d="M54.974,441.188c0,0-0.101,26.486,3.599,24.388c3.697-2.099,24.088,5.298,24.088,5.298L54.974,441.188z"/>
	<rect x="10.795" y="499.66" fill="#CDCCCC" width="62.869" height="1.599"/>
	<rect x="10.795" y="505.157" fill="#CDCCCC" width="62.869" height="1.6"/>
	<rect x="10.795" y="510.654" fill="#CDCCCC" width="62.869" height="1.699"/>
	<rect x="10.795" y="516.152" fill="#CDCCCC" width="62.869" height="1.699"/>
	<path fill="#B4B4B4" d="M18.691,492.963l-8.296-3.598v-1.999l8.296-3.599v2.398l-5.797,2.199l5.797,2.299V492.963L18.691,492.963z"
		/>
	<path fill="#B4B4B4" d="M23.089,482.269v4.498c1-1.2,2.699-1.6,4.098-1c0.4,0.2,0.7,0.399,1,0.8c0.2,0.3,0.4,0.6,0.5,0.999
		c0.1,0.6,0.1,1.199,0.1,1.699v5.098h-2.399v-4.598c0-0.6,0-1.199-0.1-1.799c-0.1-0.2-0.3-0.5-0.5-0.6c-0.2-0.2-0.5-0.301-0.8-0.301
		c-0.399,0-0.7,0.101-1,0.301c-0.3,0.199-0.5,0.499-0.7,0.799c-0.2,0.5-0.2,1.1-0.2,1.699v4.398H20.69v-12.095h2.399V482.269z"/>
	<path fill="#B4B4B4" d="M35.083,485.566v1.899h-1.599v3.498c0,0.4,0,0.8,0,1.199c0,0.101,0.1,0.2,0.2,0.3
		c0.1,0.101,0.3,0.101,0.4,0.101c0.3,0,0.6-0.101,0.9-0.2l0.2,1.799c-0.6,0.2-1.199,0.4-1.799,0.3c-0.4,0-0.799-0.1-1.099-0.199
		c-0.3-0.101-0.5-0.3-0.7-0.6c-0.2-0.3-0.3-0.6-0.3-0.9c-0.1-0.499-0.1-1.099-0.1-1.599v-3.798h-1.1v-1.899h1.1v-1.699l2.299-1.399
		v3.099L35.083,485.566L35.083,485.566z"/>
	<path fill="#B4B4B4" d="M36.583,485.566h2.099v1.2c0.6-0.9,1.699-1.399,2.699-1.399c0.5,0,1,0.1,1.5,0.3c0.4,0.199,0.8,0.6,1,0.999
		c0.3-0.399,0.8-0.8,1.199-0.999c0.4-0.2,0.9-0.3,1.399-0.3c0.6,0,1.1,0.1,1.599,0.399c0.5,0.3,0.801,0.699,1,1.1
		c0.2,0.6,0.301,1.199,0.2,1.799v5.598h-2.299v-4.998c0.1-0.6,0-1.1-0.2-1.699c-0.199-0.3-0.6-0.5-1-0.5
		c-0.299,0-0.699,0.101-0.898,0.301c-0.301,0.199-0.5,0.499-0.6,0.899c-0.201,0.6-0.201,1.199-0.201,1.799v4.198H41.78v-4.798
		c0-0.6,0-1.1-0.1-1.6c-0.1-0.199-0.2-0.399-0.4-0.499c-0.2-0.101-0.5-0.2-0.7-0.2c-0.4,0-0.7,0.1-1,0.3s-0.5,0.5-0.6,0.8
		c-0.2,0.6-0.2,1.199-0.2,1.799v4.298h-2.299L36.583,485.566L36.583,485.566z"/>
	<path fill="#B4B4B4" d="M51.775,494.362v-12.094h2.299v12.094H51.775z"/>
	<path fill="#B4B4B4" d="M56.073,492.963v-2.299l5.797-2.299l-5.797-2.299v-2.299l8.296,3.599v1.999L56.073,492.963z"/>
	<path fill="#B4B4B4" d="M18.691,532.444l-8.296-3.599v-1.999l8.296-3.598v2.299l-5.797,2.198l5.797,2.299V532.444L18.691,532.444z"
		/>
	<path fill="#B4B4B4" d="M19.491,534.043l2.999-12.493h1.699l-2.999,12.493H19.491z"/>
	<path fill="#B4B4B4" d="M27.687,521.749v4.498c1-1.199,2.699-1.6,4.098-1c0.4,0.2,0.7,0.4,1,0.8c0.2,0.3,0.4,0.6,0.5,1
		c0.1,0.6,0.1,1.199,0.1,1.699v5.098h-2.399v-4.598c0-0.601,0-1.2-0.1-1.8c-0.1-0.199-0.2-0.5-0.5-0.6c-0.3-0.2-0.5-0.2-0.799-0.2
		c-0.4,0-0.7,0.101-1,0.3c-0.3,0.2-0.5,0.5-0.7,0.8c-0.2,0.5-0.2,1.1-0.2,1.699v4.398h-2.399v-12.095H27.687z"/>
	<path fill="#B4B4B4" d="M39.781,525.048v1.799h-1.599v3.498c0,0.4,0,0.8,0,1.2c0,0.1,0.1,0.199,0.2,0.3c0.1,0.1,0.3,0.1,0.4,0.1
		c0.3,0,0.6-0.1,0.9-0.2l0.3,1.999c-0.6,0.2-1.2,0.4-1.799,0.3c-0.4,0-0.8-0.1-1.1-0.199c-0.3-0.101-0.5-0.3-0.7-0.5
		c-0.2-0.3-0.3-0.6-0.3-0.899c-0.1-0.5-0.1-1.1-0.1-1.6v-3.798h-1.1v-1.8h1.1v-1.699l2.299-1.299v3.099L39.781,525.048
		L39.781,525.048z"/>
	<path fill="#B4B4B4" d="M41.18,525.048h2.099v1.199c0.6-0.899,1.699-1.399,2.699-1.399c0.499,0,0.999,0.1,1.498,0.3
		c0.4,0.2,0.801,0.6,1,1c0.3-0.4,0.8-0.8,1.199-1c0.4-0.2,0.9-0.399,1.4-0.3c0.6,0,1.099,0.1,1.599,0.399
		c0.399,0.301,0.8,0.7,0.999,1.2c0.2,0.6,0.301,1.199,0.2,1.799v5.598h-2.299v-4.998c0.101-0.6,0-1.1-0.2-1.699
		c-0.199-0.3-0.6-0.5-0.999-0.5c-0.3,0-0.7,0.101-0.899,0.3c-0.301,0.2-0.5,0.5-0.6,0.9c-0.2,0.6-0.2,1.199-0.2,1.799v4.198h-2.299
		v-4.798c0-0.6,0-1.1-0.101-1.699c-0.1-0.2-0.199-0.4-0.399-0.5s-0.499-0.2-0.7-0.2c-0.399,0-0.699,0.101-0.999,0.3
		c-0.3,0.2-0.499,0.5-0.6,0.8c-0.2,0.6-0.2,1.199-0.2,1.8v4.298H41.18V525.048L41.18,525.048z"/>
	<path fill="#B4B4B4" d="M56.473,533.844v-12.095h2.299v12.095H56.473L56.473,533.844z"/>
	<path fill="#B4B4B4" d="M60.771,532.444v-2.299l5.797-2.299l-5.797-2.299v-2.299l8.295,3.598v1.999L60.771,532.444z"/>
	
		<linearGradient id="SVGID_5_" gradientUnits="userSpaceOnUse" x1="248.0195" y1="-1927.1357" x2="327.4475" y2="-2006.5637" gradientTransform="matrix(0.9995 8.722450e-04 -8.722450e-04 0.9995 -254.2646 2355.4902)">
		<stop  offset="0" style="stop-color:#FFFFFF"/>
		<stop  offset="1" style="stop-color:#CDCDCC"/>
	</linearGradient>
	<polygon fill="url(#SVGID_5_)" points="0.8,434.991 0.899,330.642 55.273,330.642 83.26,360.427 83.16,435.091 	"/>
	<path fill="#B2B2B4" d="M1.599,331.44h53.274l27.588,29.387l-0.101,73.564L1.5,434.291L1.599,331.44 M0.1,329.842L0,435.791
		l83.959,0.1l0.101-75.764l-28.486-30.285H0.1L0.1,329.842z"/>
	<path fill="#605E60" d="M54.974,331.241c0,0,0,29.485,3.599,27.387c3.598-2.1,23.988,2.299,23.988,2.299L54.974,331.241z"/>
	<path fill="#B22125" d="M21.689,411.702c-0.7,0.8-1.499,1.499-2.199,2.199c-2.099,1.999-3.898,4.298-5.498,6.696
		c-0.4,0.7-0.7,1.399-1.099,2.1c-0.1,0.199-0.2,0.399-0.2,0.699c0,0.2,0,0.399,0.2,0.6c0.2,0.101,0.399,0,0.6-0.1
		c0.399-0.2,0.7-0.5,1-0.7c4.098-3.498,7.496-7.796,10.095-12.493c2.499-4.798,5.097-9.596,7.596-14.394
		c1.899-3.698,3.598-7.496,5.197-11.295c0.1-0.199,0.1-0.499,0-0.699c-1.299-3.898-2.099-7.996-2.599-12.094
		c-0.3-1.899-0.3-3.898-0.2-5.897c0-0.5,0.1-1.1,0.3-1.6c0.4-1.799,2.299-2.898,4.098-2.499c0.1,0,0.2,0.101,0.399,0.101
		c1.799,0.499,3.099,2.099,3.199,3.897c0.1,0.9,0.1,1.699-0.1,2.6c0,0.1,0,0.199-0.1,0.199c-0.399-0.999-0.699-1.999-1.199-2.998
		c-0.3-0.7-0.7-1.399-1.1-2.1c-0.2-0.3-0.399-0.499-0.6-0.799c-0.2-0.3-0.6-0.3-0.899-0.101c-0.1,0.101-0.2,0.2-0.2,0.3
		c-0.3,0.5-0.5,1.1-0.6,1.6c-0.3,1.6-0.3,3.198-0.2,4.798c0.2,3.198,0.7,6.297,1.499,9.295c0,0.101,0.1,0.3,0.2,0.5
		c0.1-0.2,0.1-0.3,0.2-0.399l1.899-6.197c0.1-0.3,0.1-0.3,0.4-0.3c0,0.6,0,1.1,0,1.699c-0.1,2.898-0.5,5.897-1.199,8.695
		c0,0.2,0,0.3,0,0.5c1.699,4.698,4.298,8.896,7.697,12.594c1.699,1.8,3.598,3.299,5.597,4.599c0.2,0.1,0.3,0.1,0.5,0.1
		c3.897-0.6,7.896-0.8,11.794-0.899c1.699,0,3.498,0.199,5.197,0.6c0.7,0.2,1.3,0.5,1.899,0.999c0.999,0.8,1.1,2.299,0.3,3.299
		c-0.1-0.1-0.3-0.3-0.399-0.4c-0.8-0.999-1.999-1.599-3.198-1.699c-2.399-0.199-4.698-0.299-7.098-0.1
		c-1.498,0.1-2.898,0.2-4.397,0.2h-0.3c0.1,0.1,0.2,0.1,0.2,0.1c2.898,1.3,5.897,2.299,8.896,2.999c1.399,0.3,2.799,0.5,4.198,0.3
		c0.8,0,1.599-0.4,2.099-0.899c0,0.899-0.5,1.799-1.199,2.398c-0.8,0.5-1.699,0.8-2.599,0.899c-2.399,0.101-4.798-0.3-6.997-1.1
		c-3.198-0.999-6.396-2.398-9.295-4.197c-0.301-0.2-0.6-0.2-0.8-0.2c-7.097,0.699-14.093,2.398-20.69,4.997
		c-1.2,0.5-2.399,1-3.599,1.6c-0.2,0.1-0.4,0.3-0.6,0.5c-2.099,3.598-4.298,7.097-6.797,10.495c-0.6,0.899-1.299,1.699-1.999,2.498
		c-1.199,1.399-2.999,2.199-4.797,2.199c-0.9,0-1.799-0.3-2.599-0.8c-1.099-0.499-1.499-1.799-1.099-2.898
		c0.3-0.8,0.7-1.599,1.299-2.398c1.799-2.799,4.298-5.098,7.196-6.697c0.8-0.399,1.6-0.8,2.499-1.199
		C21.49,411.702,21.59,411.702,21.689,411.702z M38.981,388.713c-2.499,6.697-6.197,12.794-9.496,18.991
		c6.597-3.198,13.494-4.697,20.69-5.997C45.278,398.408,41.38,393.911,38.981,388.713L38.981,388.713z"/>
	<path fill="#E1E1E1" d="M54.974,331.241c0,0-0.101,26.487,3.599,24.388c3.697-2.099,24.088,5.298,24.088,5.298L54.974,331.241z"/>
	
		<linearGradient id="SVGID_6_" gradientUnits="userSpaceOnUse" x1="248.3076" y1="-1597.1357" x2="327.7356" y2="-1676.5637" gradientTransform="matrix(0.9995 8.722450e-04 -8.722450e-04 0.9995 -254.2646 2355.4902)">
		<stop  offset="0" style="stop-color:#FFFFFF"/>
		<stop  offset="1" style="stop-color:#CDCDCC"/>
	</linearGradient>
	<polygon fill="url(#SVGID_6_)" points="0.8,764.832 0.899,660.482 55.273,660.482 83.26,690.269 83.16,764.933 	"/>
	<path fill="#B2B2B4" d="M1.599,661.282h53.274l27.588,29.386l-0.101,73.564l-80.861-0.1L1.599,661.282 M0.1,659.683L0,765.632
		l83.959,0.1l0.101-75.763l-28.486-30.286H0.1L0.1,659.683z"/>
	<path fill="#605E60" d="M54.974,661.082c0,0,0,29.486,3.599,27.387c3.598-2.099,23.988,2.299,23.988,2.299L54.974,661.082z"/>
	<path fill="#E1E1E1" d="M54.974,661.082c0,0-0.101,26.487,3.599,24.389c3.697-2.099,24.088,5.297,24.088,5.297L54.974,661.082z"/>
	<path fill="#808081" d="M64.568,706.96v-5.597l-31.484,5.797v6.696l0,0v24.188c-1.199-0.499-2.399-0.8-3.698-0.8
		c-4.797,0-10.095,3.898-10.095,7.997c0,2.798,2.699,4.298,5.397,4.298c5.498,0,10.695-3.799,10.695-9.896v-26.388l26.787-4.897
		v24.488c-1.199-0.5-2.398-0.8-3.698-0.8c-4.798,0-10.095,3.898-10.095,7.996c0,2.799,2.699,4.298,5.396,4.298
		c5.498,0,10.695-3.798,10.695-9.895L64.568,706.96L64.568,706.96L64.568,706.96z"/>
	
		<linearGradient id="SVGID_7_" gradientUnits="userSpaceOnUse" x1="248.3076" y1="-1597.1357" x2="327.7356" y2="-1676.5637" gradientTransform="matrix(0.9995 8.722450e-04 -8.722450e-04 0.9995 -254.2646 2355.4902)">
		<stop  offset="0" style="stop-color:#FFFFFF"/>
		<stop  offset="1" style="stop-color:#CDCDCC"/>
	</linearGradient>
	<polygon fill="url(#SVGID_7_)" points="0.8,764.832 0.899,660.482 55.273,660.482 83.26,690.269 83.16,764.933 	"/>
	<path fill="#B2B2B4" d="M1.599,661.282h53.274l27.588,29.386l-0.101,73.564l-80.861-0.1L1.599,661.282 M0.1,659.683L0,765.632
		l83.959,0.1l0.101-75.763l-28.486-30.286H0.1L0.1,659.683z"/>
	<path fill="#605E60" d="M54.974,661.082c0,0,0,29.486,3.599,27.387c3.598-2.099,23.988,2.299,23.988,2.299L54.974,661.082z"/>
	<path fill="#E1E1E1" d="M54.974,661.082c0,0-0.101,26.487,3.599,24.389c3.697-2.099,24.088,5.297,24.088,5.297L54.974,661.082z"/>
	<path fill="#808081" d="M64.568,706.96v-5.597l-31.484,5.797v6.696l0,0v24.188c-1.199-0.499-2.399-0.8-3.698-0.8
		c-4.797,0-10.095,3.898-10.095,7.997c0,2.798,2.699,4.298,5.397,4.298c5.498,0,10.695-3.799,10.695-9.896v-26.388l26.787-4.897
		v24.488c-1.199-0.5-2.398-0.8-3.698-0.8c-4.798,0-10.095,3.898-10.095,7.996c0,2.799,2.699,4.298,5.396,4.298
		c5.498,0,10.695-3.798,10.695-9.895L64.568,706.96L64.568,706.96L64.568,706.96z"/>
	
		<linearGradient id="SVGID_8_" gradientUnits="userSpaceOnUse" x1="248.2139" y1="-1707.1323" x2="327.6389" y2="-1786.5674" gradientTransform="matrix(0.9995 8.722450e-04 -8.722450e-04 0.9995 -254.2646 2355.4902)">
		<stop  offset="0" style="stop-color:#FFFFFF"/>
		<stop  offset="1" style="stop-color:#CDCDCC"/>
	</linearGradient>
	<polygon fill="url(#SVGID_8_)" points="0.8,654.886 0.899,550.535 55.273,550.535 83.26,580.321 83.16,654.985 	"/>
	<path fill="#B2B2B4" d="M1.599,551.335h53.274l27.588,29.386l-0.101,73.564l-80.861-0.1L1.599,551.335 M0.1,549.735L0,655.685
		l83.959,0.101l0.101-75.764l-28.486-30.286H0.1L0.1,549.735z"/>
	<path fill="#605E60" d="M54.974,551.135c0,0,0,29.486,3.599,27.388c3.598-2.1,23.988,2.299,23.988,2.299L54.974,551.135z"/>
	<path fill="#E1E1E1" d="M54.974,551.135c0,0-0.101,26.487,3.599,24.389c3.697-2.099,24.088,5.298,24.088,5.298L54.974,551.135z"/>
	<path fill="#B4B4B4" d="M38.481,630.997h7.996c1.399,0,2.599,1.199,2.599,2.599v1.599c0,1.399-1.199,2.599-2.599,2.599h-7.996
		c-1.399,0-2.599-1.199-2.599-2.599v-1.499C35.883,632.196,37.082,630.997,38.481,630.997z"/>
	<path fill="#B4B4B4" d="M50.875,604.109h-0.699v-4.098h-7.696v4.098h-8.396c-2.798,0-4.998,2.199-4.998,4.897c0,0,0,0,0,0.101
		v30.585c0,2.799,2.199,4.998,4.898,4.998c0,0,0,0,0.1,0h16.792c2.799,0,4.998-2.199,4.998-4.898c0,0,0,0,0-0.1v-30.585
		C55.973,606.309,53.773,604.109,50.875,604.109C50.976,604.109,50.875,604.109,50.875,604.109z M52.774,638.693
		c0,1.499-1.199,2.798-2.798,2.798H35.083c-1.499,0-2.798-1.199-2.798-2.798l0,0v-19.091h4.198v1.299c0,1.899,1.5,3.398,3.398,3.398
		h5.197c1.899,0,3.398-1.499,3.398-3.398v-1.299h4.198L52.774,638.693z M40.281,621.002v-6.697h4.398v6.697H40.281z M52.774,616.004
		h-4.198v-1.799c0-1.899-1.499-3.398-3.398-3.398h-5.197c-1.899,0-3.398,1.499-3.398,3.398v1.799h-4.298v-5.997
		c0-1.499,1.199-2.799,2.798-2.799h14.894c1.498,0,2.798,1.199,2.798,2.799V616.004L52.774,616.004z"/>
	<rect x="34.883" y="595.114" fill="#B4B4B4" width="7.696" height="4.798"/>
	<rect x="42.479" y="590.416" fill="#B4B4B4" width="7.696" height="4.798"/>
	<rect x="34.883" y="585.618" fill="#B4B4B4" width="7.696" height="4.798"/>
	<rect x="42.479" y="580.921" fill="#B4B4B4" width="7.696" height="4.798"/>
	<rect x="34.883" y="576.123" fill="#B4B4B4" width="7.696" height="4.798"/>
	
		<linearGradient id="SVGID_9_" gradientUnits="userSpaceOnUse" x1="251.084" y1="3924.6152" x2="330.5334" y2="4004.0647" gradientTransform="matrix(0.9995 0 0 -0.9995 -255.8999 4792.3501)">
		<stop  offset="0" style="stop-color:#FFFFFF"/>
		<stop  offset="1" style="stop-color:#CDCDCC"/>
	</linearGradient>
	<polygon fill="url(#SVGID_9_)" points="0.8,874.779 0.899,770.43 55.273,770.43 83.26,800.315 83.16,874.88 	"/>
	<path fill="#B2B2B4" d="M54.873,771.229l27.588,29.386L82.36,874.18l-80.761-0.1l0.1-102.851H54.873 M55.573,769.63H0.1L0,875.579
		l83.959,0.1l0.101-75.764L55.573,769.63L55.573,769.63z"/>
	<path fill="#605E60" d="M54.974,771.029c0,0,0,29.485,3.599,27.387c3.598-2.099,23.988,2.299,23.988,2.299L54.974,771.029z"/>
	<path fill="#E1E1E1" d="M54.974,771.029c0,0-0.101,26.487,3.599,24.389c3.697-2.1,24.088,5.297,24.088,5.297L54.974,771.029z"/>
	<path fill="#B5B4B4" d="M41.98,813.709c2.299-3.198,5.897-4.298,9.595-4.398c5.897-0.1,11.694,0,17.591,0
		c0.601-0.199,1.1,0.2,1.301,0.7c0,0.199,0,0.399,0,0.6v47.677c0,1-0.4,1.3-1.4,1.3c-5.396,0-10.795,0.1-16.292,0
		c-5.197-0.1-8.796,2.199-10.794,7.097c-0.2,0.3-0.3,0.499-0.5,0.8c-0.5-0.9-0.899-1.699-1.299-2.399
		c-1.899-3.498-5.597-5.697-9.595-5.497c-5.198,0.1-10.395,0-15.692,0c-1.2,0-1.5-0.4-1.5-1.5c0.1-14.593,0.1-32.884,0.1-47.477
		c-0.2-0.6,0.2-1.1,0.7-1.3c0.2,0,0.399,0,0.6,0c6.397,0,12.794,0.101,19.191,0c2.299,0.101,4.498,1,6.097,2.599
		C40.78,812.409,41.48,813.009,41.98,813.709z M41.88,819.406c-1.599,0-2.499-2.199-2.499-2.199
		c-1.599-2.698-4.498-4.298-7.596-4.098c-4.398,0.2-8.796,0.1-13.293,0c-0.6-0.2-1.1,0.2-1.299,0.699c0,0.2,0,0.4,0,0.6v39.881
		c-0.1,0.5,0.2,1.1,0.7,1.2c0.1,0,0.3,0,0.5,0c4.598,0,9.196-0.2,13.693,0c3.698,0.1,6.997,1.299,9.396,4.598
		c2.299-3.698,5.698-4.798,9.795-4.698c4.598,0.2,9.195,0,13.893,0.101c0.5,0.1,1.1-0.2,1.2-0.7c0-0.1,0-0.3,0-0.5v-39.881
		c0-0.999-0.2-1.299-1.3-1.299c-4.397,0.1-7.196,0-11.594,0c-1.199,0-2.299,0.1-3.498,0.3c-2.299,0.399-4.299,1.699-5.697,3.598
		C44.479,817.107,43.379,819.406,41.88,819.406L41.88,819.406z"/>
	<path fill="#B5B4B4" d="M26.887,835.198h-3.199v13.794h2.199v-5.198h1c2.199,0,3.198-1.199,3.198-3.398v-1.799
		C30.085,836.397,28.986,835.198,26.887,835.198z M27.887,840.496c0,0.999-0.4,1.3-1.1,1.3h-1v-4.698h1c0.7,0,1.1,0.3,1.1,1.3
		V840.496L27.887,840.496z"/>
	<path fill="#B5B4B4" d="M34.383,834.999c-2.099,0-3.298,1.299-3.298,3.498v7.196c0,2.199,1.2,3.499,3.298,3.499
		c2.099,0,3.299-1.3,3.299-3.499v-7.196C37.682,836.298,36.583,834.999,34.383,834.999z M35.483,845.794
		c0,0.999-0.4,1.398-1.1,1.398s-1.099-0.399-1.099-1.398v-7.396c0-1,0.399-1.4,1.099-1.4s1.1,0.4,1.1,1.4V845.794z"/>
	<polygon fill="#B5B4B4" points="41.08,835.198 38.881,835.198 38.881,848.992 44.679,848.992 44.679,846.993 41.08,846.993 	"/>
	<path fill="#B5B4B4" d="M48.776,835.198h-3.198v13.794h2.199v-5.198h0.999c2.199,0,3.198-1.199,3.198-3.398v-1.799
		C51.975,836.397,50.976,835.198,48.776,835.198z M49.876,840.496c0,0.999-0.399,1.3-1.1,1.3h-0.999v-4.698h0.999
		c0.7,0,1.1,0.3,1.1,1.3V840.496L49.876,840.496z"/>
	<path fill="#B5B4B4" d="M57.572,840.696l-1,5.197c0,0.6-0.499,1.1-1.1,1.1c-0.1,0-0.199,0-0.299,0c-0.7-0.101-1-0.6-0.8-1.6
		l1.499-7.297c0-0.6,0.5-1.099,1.1-1.099c0.1,0,0.199,0,0.3,0c0.499,0.1,0.8,0.399,0.899,0.899c0,0.399-0.1,0.899-0.199,1.299
		C57.672,840.196,57.572,840.696,57.572,840.696z M60.171,837.897c-0.1-1.399-1.199-2.599-2.599-2.799
		c-2.1-0.4-3.498,0.6-3.898,2.799l-1.398,6.996c-0.4,2.199,0.499,3.599,2.498,3.998c1.999,0.4,3.498-0.6,3.898-2.799l1.199-5.896
		C60.071,839.496,60.171,838.696,60.171,837.897L60.171,837.897z"/>
	<path fill="#B5B4B4" d="M24.188,850.591l0.5,1.199h-0.3l-0.1-0.199h-0.5l-0.1,0.3h-0.3l0.5-1.199L24.188,850.591L24.188,850.591z
		 M24.188,851.391l-0.2-0.5l0,0l-0.2,0.5H24.188z"/>
	<path fill="#B5B4B4" d="M25.288,850.591v1h0.6v0.199h-0.9v-1.199H25.288L25.288,850.591z"/>
	<path fill="#B5B4B4" d="M27.687,851.591c0,0.1,0,0.1-0.1,0.1l-0.1,0.1h-0.4c-0.1,0-0.1,0-0.1-0.1l-0.1-0.1v-0.3h0.3v0.3h0.2v-1h0.3
		V851.591z"/>
	<path fill="#B5B4B4" d="M29.086,850.591v0.2h-0.7v0.3h0.6v0.2h-0.6v0.3h0.7v0.199h-1v-1.199H29.086L29.086,850.591z"/>
	<path fill="#B5B4B4" d="M30.485,850.591v1h0.6v0.199h-0.899v-1.199H30.485z"/>
	<path fill="#B5B4B4" d="M32.384,850.591v0.2h-0.7v0.3h0.6v0.2h-0.6v0.3h0.7v0.199h-1v-1.199H32.384z"/>
	<path fill="#B5B4B4" d="M33.484,850.591h0.2c0.1,0,0.1,0,0.1,0.101l0.1,0.1v0.3c0,0.1-0.1,0.1-0.2,0.1h0.1l0.1,0.101
		c0.1,0.1,0,0.1,0,0.1v0.5h-0.3v-0.3c0-0.1,0-0.1-0.1-0.1h-0.5v0.499h-0.3v-1.399H33.484L33.484,850.591z M33.384,851.19
		L33.384,851.19l0.1-0.199h-0.4v0.399h0.3V851.19z"/>
	<path fill="#B5B4B4" d="M35.283,850.591v0.2h-0.7v0.3h0.6v0.2h-0.6v0.3h0.7v0.199h-1v-1.199H35.283z"/>
	<path fill="#B5B4B4" d="M35.983,850.591l0.5,0.8l0,0v-0.8h0.3v1.199h-0.3l-0.5-0.799l0,0v0.799h-0.3v-1.199H35.983z"/>
	<path fill="#B5B4B4" d="M38.481,850.591h0.2c0.1,0,0.1,0,0.1,0.101l0.1,0.1v0.3l-0.1,0.1c0.1,0,0.1,0.101,0.2,0.101
		c0.1,0,0.1,0.1,0.1,0.199v0.2l-0.1,0.1l-0.1,0.101h-0.8v-1.3H38.481z M38.481,851.091L38.481,851.091l0.1-0.2h-0.5v0.3
		L38.481,851.091L38.481,851.091z M38.481,851.591L38.481,851.591L38.481,851.591c0.1-0.2,0.1-0.2,0-0.2h-0.4v0.2H38.481z"/>
	<path fill="#B5B4B4" d="M39.681,850.591v1.199h-0.3v-1.199H39.681z"/>
	<path fill="#B5B4B4" d="M40.38,850.591l0.5,0.8l0,0v-0.8h0.3v1.199h-0.3l-0.5-0.799l0,0v0.799h-0.3v-1.199H40.38z"/>
	<path fill="#B5B4B4" d="M41.88,850.591l0.5,0.8l0,0v-0.8h0.3v1.199h-0.3l-0.5-0.799l0,0v0.799h-0.3v-1.199H41.88z"/>
	<path fill="#B5B4B4" d="M44.078,850.591v0.2h-0.699v0.3h0.6v0.2h-0.6v0.3h0.699v0.199h-0.999v-1.199H44.078L44.078,850.591z"/>
	<path fill="#B5B4B4" d="M44.778,850.591l0.5,0.8l0,0v-0.8h0.3v1.199h-0.3l-0.5-0.799l0,0v0.799h-0.3v-1.199H44.778z"/>
	<path fill="#B5B4B4" d="M47.077,850.591v0.5h0.5v-0.5h0.3v1.199h-0.3v-0.499h-0.5v0.499h-0.3v-1.199H47.077z"/>
	<path fill="#B5B4B4" d="M48.877,850.591l0.5,1.199h-0.301l-0.1-0.199h-0.5l-0.1,0.3h-0.301l0.5-1.199L48.877,850.591
		L48.877,850.591L48.877,850.591z M48.977,851.391l-0.2-0.5l0,0l-0.2,0.5H48.977L48.977,851.391z"/>
	<path fill="#B5B4B4" d="M49.977,850.591l0.499,0.8l0,0v-0.8h0.3v1.199h-0.3l-0.499-0.799l0,0v0.799h-0.301v-1.199H49.977z"/>
	<path fill="#B5B4B4" d="M51.775,850.591h0.199c0.1,0,0.1,0.101,0.2,0.101s0.101,0.1,0.101,0.199v0.6c0,0.101-0.101,0.101-0.101,0.2
		s-0.101,0.1-0.2,0.1h-0.799v-1.199H51.775L51.775,850.591z M51.775,851.591L51.775,851.591c0.199,0,0.199,0,0.199-0.1l0.1-0.101
		v-0.399c0-0.101,0-0.101-0.1-0.101l-0.1-0.1h-0.4v0.8H51.775z"/>
	<path fill="#B5B4B4" d="M53.375,850.591h0.199c0.1,0,0.1,0,0.1,0.101l0.1,0.1v0.3l-0.1,0.1c0.1,0,0.1,0.101,0.2,0.101
		s0.101,0.1,0.101,0.199v0.2l-0.101,0.1l-0.101,0.101h-0.799v-1.3H53.375L53.375,850.591z M53.274,851.091L53.274,851.091l0.101-0.2
		h-0.5v0.3L53.274,851.091L53.274,851.091z M53.375,851.591L53.375,851.591L53.375,851.591c0.1-0.2,0.1-0.2,0-0.2h-0.4v0.2H53.375
		L53.375,851.591z"/>
	<path fill="#B5B4B4" d="M55.174,850.591v0.2h-0.7v0.3h0.601v0.2h-0.601v0.3h0.7v0.199h-1v-1.199H55.174z"/>
	<path fill="#B5B4B4" d="M56.273,850.591h0.199c0.1,0,0.1,0,0.1,0.101l0.101,0.1v0.3c0,0.1-0.101,0.1-0.2,0.1h0.1l0.101,0.101
		c0.1,0.1,0,0.1,0,0.1v0.5h-0.3v-0.3c0-0.1,0-0.1-0.1-0.1h-0.5v0.499h-0.301v-1.399H56.273z M56.173,851.19L56.173,851.19
		l0.101-0.199h-0.4v0.399h0.3V851.19z"/>
	<path fill="#B5B4B4" d="M57.973,850.591v0.2h-0.7v0.3h0.7v0.2h-0.6v0.3h0.699v0.199h-1v-1.199H57.973z"/>
	<path fill="#B5B4B4" d="M58.672,850.591v1.199h-0.3v-1.199H58.672z"/>
	<path fill="#B5B4B4" d="M59.471,850.591v0.5l0.5-0.5h0.301l-0.5,0.5l0.5,0.8h-0.301l-0.399-0.6l-0.2,0.2v0.399h-0.299v-1.3H59.471
		L59.471,850.591z"/>
	<path fill="#B5B4B4" d="M25.088,823.005c-0.6,0.199-1,0.6-1.399,1.099c-0.2,0.3-0.1,0.8,0.2,1s0.799,0.1,1-0.2
		c0.6-0.699,1.599-0.899,2.399-0.5c0.5,0.2,1,0.5,1.499,0.9c0.2,0.1,0.3,0.199,0.5,0.299c-0.2,0.301-0.3,0.601-0.3,1
		c0,1.3,0.4,1.799,1.6,2.499c1,0.399,2.099,0.5,3.198,0.3c-0.5,1.299-0.3,2.398-0.899,2.898c-0.8,0.8,0.799,1.6,1.599-0.1
		c0.7,0.199,1.299,0.199,1.999,0c0.2-0.1,0.5-0.1,0.8-0.2c-0.1,0.7-0.5,1.399-1.1,1.899c-0.5,0.5,1.599,1.599,2.599-1.5
		c0.1-0.299,0.2-0.499,0.3-0.799c0.7-0.2,1.399-0.4,2.199-0.7c-0.1,1,0.3,2.099,1,2.799c1.299,1.6,3.898,0.999,3.398-1.199
		c-0.299-1.199-1.799-0.5-1.799,0.1s-0.899-0.399-0.899-1.399c0-0.5,0.3-0.999,0.6-1.399c0.499-0.2,0.899-0.499,1.3-0.8h0.1
		c0.4,0.5,0.799,0.9,1.299,1.3c2.999,1.799,13.794,0.999,13.794-3.198c0-4.698-13.394-8.496-15.792-6.197
		c-0.201,0.2-0.4,0.5-0.6,0.8c-0.5,0.3-1.3,0.699-2.3,1.199c-1.299,0.399-3.398,0.8-4.397-0.1c-1.699-1.499-3.299-2.599-4.798-1.1
		c-1.999,1.999,1.1,4.098,1.899,3.398c0.5-0.5,0-0.899-0.5-1.1c-1.1-0.6,0-1.999,1-0.899l1.299,1.299c0.5,0.4,1,0.8,1.599,1
		c-0.2,0.199-0.5,0.3-0.7,0.5l-1.499,0.199l0,0c-1.299,0.2-2.699,0-3.898-0.6c0.1-0.199,0-0.3-0.2-0.6c-0.3-0.199-0.7-0.199-1-0.1
		c-0.3-0.2-0.7-0.4-1-0.6c-0.5-0.4-1.1-0.7-1.699-0.899c-0.2-0.101-0.3-0.2-0.5-0.2C26.387,822.805,25.688,822.805,25.088,823.005z
		 M34.683,827.802c-1.099,0.3-2.398,0.3-3.498,0c-0.5-0.3-0.8-0.899-0.7-1.499c1.299,0.7,2.699,1.1,4.098,1.1h0.5
		C34.983,827.502,34.783,827.702,34.683,827.802z M38.082,830.001c-0.7,0.4-1.499,0.699-2.299,0.8c-0.2,0.1-0.5,0.1-0.7,0.2
		c0.6-1.3,1.599-2.299,2.799-3.099c0.6-0.2,1.499-0.5,2.499-0.8C39.481,828.002,38.781,829.001,38.082,830.001z M47.377,824.903
		c-0.799,0-1.499-0.699-1.499-1.499s0.7-1.499,1.499-1.499c0.8,0,1.5,0.699,1.5,1.499C48.977,824.304,48.277,824.903,47.377,824.903
		C47.477,824.903,47.477,824.903,47.377,824.903L47.377,824.903z"/>
	
		<linearGradient id="SVGID_10_" gradientUnits="userSpaceOnUse" x1="251.083" y1="3814.6152" x2="330.5331" y2="3894.0654" gradientTransform="matrix(0.9995 0 0 -0.9995 -255.8999 4792.3501)">
		<stop  offset="0" style="stop-color:#FFFFFF"/>
		<stop  offset="1" style="stop-color:#CDCDCC"/>
	</linearGradient>
	<polygon fill="url(#SVGID_10_)" points="0.8,984.727 0.899,880.377 55.273,880.377 83.26,910.263 83.16,984.826 	"/>
	<path fill="#B2B2B4" d="M54.873,881.177l27.588,29.386l-0.101,73.564l-80.761-0.101l0.1-102.85H54.873 M55.573,879.577H0.1
		L0,985.526l83.959,0.1l0.101-75.764L55.573,879.577L55.573,879.577z"/>
	<path fill="#605E60" d="M54.974,880.977c0,0,0,29.485,3.599,27.387c3.598-2.099,23.988,2.299,23.988,2.299L54.974,880.977z"/>
	<path fill="#E1E1E1" d="M54.974,880.977c0,0-0.101,26.487,3.599,24.388c3.697-2.099,24.088,5.298,24.088,5.298L54.974,880.977z"/>
	
		<linearGradient id="SVGID_11_" gradientUnits="userSpaceOnUse" x1="251.083" y1="3704.6152" x2="330.5331" y2="3784.0652" gradientTransform="matrix(0.9995 0 0 -0.9995 -255.8999 4792.3501)">
		<stop  offset="0" style="stop-color:#FFFFFF"/>
		<stop  offset="1" style="stop-color:#CDCDCC"/>
	</linearGradient>
	<polygon fill="url(#SVGID_11_)" points="0.8,1094.674 0.899,990.324 55.273,990.324 83.26,1020.21 83.16,1094.773 	"/>
	<path fill="#B2B2B4" d="M54.873,991.124l27.588,29.386l-0.101,73.564l-80.761-0.101l0.1-102.85H54.873 M55.573,989.524H0.1
		L0,1095.474l83.959,0.1l0.101-75.764L55.573,989.524L55.573,989.524z"/>
	<path fill="#605E60" d="M54.974,990.924c0,0,0,29.485,3.599,27.387c3.598-2.099,23.988,2.299,23.988,2.299L54.974,990.924z"/>
	<path fill="#E1E1E1" d="M54.974,990.924c0,0-0.101,26.487,3.599,24.388c3.697-2.099,24.088,5.298,24.088,5.298L54.974,990.924z"/>
	<g>
		
			<linearGradient id="SVGID_12_" gradientUnits="userSpaceOnUse" x1="251.0674" y1="3594.5996" x2="330.4672" y2="3673.9993" gradientTransform="matrix(0.9995 0 0 -0.9995 -255.8999 4792.3501)">
			<stop  offset="0" style="stop-color:#FFFFFF"/>
			<stop  offset="1" style="stop-color:#CDCDCC"/>
		</linearGradient>
		<polygon fill="url(#SVGID_12_)" points="0.8,1204.621 0.899,1100.271 55.273,1100.371 83.26,1130.156 83.16,1204.721 		"/>
		<path fill="#B2B2B4" d="M54.873,1101.171l27.588,29.386l-0.101,73.564l-80.761-0.101l0.1-102.85H54.873 M55.573,1099.472H0.1
			L0,1205.421l83.959,0.1l0.101-75.764L55.573,1099.472L55.573,1099.472z"/>
		<path fill="#605E60" d="M54.974,1100.971c0,0,0,29.485,3.599,27.387c3.598-2.099,23.988,2.299,23.988,2.299L54.974,1100.971z"/>
		<path fill="#E1E1E1" d="M54.974,1100.971c0,0-0.101,26.487,3.599,24.388c3.697-2.099,24.088,5.298,24.088,5.298L54.974,1100.971z"
			/>
	</g>
	<g>
		
			<linearGradient id="SVGID_13_" gradientUnits="userSpaceOnUse" x1="251.0645" y1="3484.5967" x2="330.464" y2="3563.9966" gradientTransform="matrix(0.9995 0 0 -0.9995 -255.8999 4792.3501)">
			<stop  offset="0" style="stop-color:#FFFFFF"/>
			<stop  offset="1" style="stop-color:#CDCDCC"/>
		</linearGradient>
		<polygon fill="url(#SVGID_13_)" points="0.8,1314.567 0.899,1210.218 55.273,1210.318 83.26,1240.104 83.16,1314.668 		"/>
		<path fill="#B2B2B4" d="M54.873,1211.118l27.588,29.386l-0.101,73.564l-80.761-0.101l0.1-102.95L54.873,1211.118 M55.573,1209.419
			H0.1L0,1315.368l83.959,0.1l0.101-75.764L55.573,1209.419L55.573,1209.419z"/>
		<path fill="#605E60" d="M54.974,1210.918c0,0,0,29.485,3.599,27.387c3.598-2.099,23.988,2.299,23.988,2.299L54.974,1210.918z"/>
		<path fill="#E1E1E1" d="M54.974,1210.918c0,0-0.101,26.487,3.599,24.388c3.697-2.099,24.088,5.298,24.088,5.298L54.974,1210.918z"
			/>
	</g>
	<g>
		<path fill="#686868" d="M60.371,925.555c0.3-0.1,0.6-0.1,0.899-0.199c3.398-1.1,6.797,0.199,8.196,3.298
			c1.499,3.099,0.399,6.597-2.6,8.496c-0.1,0.1-0.299,0.2-0.398,0.3c-1.4,0.7-3,0.8-4.498,0.6c-3.699-1.599-5.298-3.998-4.898-7.196
			c0.1-0.699,0.301-1.3,0.4-1.899C58.271,927.554,59.371,926.555,60.371,925.555z M63.569,926.854c-2.599,0-4.598,2.099-4.598,4.598
			c0,2.599,2.099,4.697,4.698,4.697c2.598,0,4.598-2.099,4.598-4.697C68.268,928.953,66.168,926.854,63.569,926.854z"/>
		<path fill="#686868" d="M35.183,926.654c-0.6-1.399-1.199-2.898-1-4.497c0.6-3.1,2.499-5.198,5.197-5.798
			c2.899-0.6,5.397,0.7,7.297,3.599c0.699,1.599,0.899,3.198,0.3,4.897c-1.3,3.298-4.098,4.997-7.497,4.397
			C37.682,928.953,36.482,927.754,35.183,926.654z M40.78,927.454c2.599,0,4.599-2.099,4.599-4.697c0-2.6-2.1-4.598-4.599-4.598
			c-2.599,0-4.698,2.099-4.698,4.697S38.182,927.454,40.78,927.454z"/>
		<path fill="#686868" d="M25.188,962.837c0.4-1.499,1.399-2.698,2.499-3.698c4.598-2.099,6.997-1.499,9.996,2.699
			c0,0,0.1,0,0.1,0.1c0.3,1.499,0.5,2.898,0.2,4.397c-0.3,0.6-0.6,1.3-1,1.8c-1.6,2.398-4.698,3.498-7.497,2.599
			s-4.598-3.498-4.498-6.497C25.088,963.736,25.088,963.237,25.188,962.837z M26.887,964.337c0,2.598,1.999,4.697,4.598,4.697
			s4.698-2.099,4.698-4.697c0-2.6-2.099-4.698-4.698-4.599C28.986,959.738,26.987,961.838,26.887,964.337z"/>
		<path fill="#686868" d="M55.473,960.038c-0.199-0.899-0.999-1.299-1.299-2.099c-0.199-0.6-0.5-1.199-0.699-1.799
			c-0.2-4.698,1.998-7.497,6.496-7.896c1.699,0,3.199,0.6,4.498,1.799c2.499,2.699,2.799,6.197,0.699,8.796
			c-2.098,2.699-5.597,3.299-8.695,1.5C55.973,960.139,55.773,959.938,55.473,960.038z M59.771,959.539
			c2.599,0,4.697-1.999,4.697-4.599c0-2.598-1.999-4.697-4.598-4.697s-4.797,1.999-4.797,4.598
			C55.174,957.439,57.272,959.438,59.771,959.539z"/>
		<path fill="#686868" d="M21.09,948.344c-1.699,0.4-3.298,0-4.798-0.8c-3.098-2.698-3.898-5.797-2.299-8.795
			c1.2-2.1,3.099-3.099,5.297-3.499c1.699,0.101,3.199,0.4,4.498,1.5c1.999,1.699,2.898,3.897,2.299,6.497
			C25.488,946.045,23.789,947.744,21.09,948.344z M24.388,941.947c0-2.599-2.099-4.598-4.598-4.598
			c-2.599,0-4.698,2.099-4.698,4.697s2.099,4.599,4.698,4.599C22.389,946.545,24.388,944.546,24.388,941.947z"/>
	</g>
	<g>
		<path fill="#B5B4B4" d="M55.473,960.038c-1.199,1.399-2.898,2.1-4.396,2.898c-4.099,2.1-8.396,3.299-12.995,3.299
			c0.3-1.499,0.1-2.998-0.2-4.397c1.599-0.3,3.198-0.3,4.798-0.6c3.998-0.899,7.596-2.599,10.895-5.098
			c0.199,0.6,0.5,1.199,0.699,1.799C54.374,958.739,55.273,959.239,55.473,960.038z"/>
		<path fill="#B5B4B4" d="M19.291,935.351c1.3-2.799,3.299-5.098,5.498-7.197c2.699-2.599,5.897-4.598,9.295-5.996
			c-0.2,1.599,0.4,2.998,1,4.497c-2.699,1.499-5.297,2.999-7.496,5.198c-1.5,1.499-3.099,2.998-3.898,5.097
			C22.489,935.75,20.99,935.351,19.291,935.351z"/>
		<path fill="#B5B4B4" d="M25.188,962.837c-5.498-3.598-8.496-8.596-8.896-15.192c1.5,0.8,3.099,1.199,4.798,0.8
			c0,2.099,0.8,3.998,1.799,5.697c1.199,1.999,2.898,3.498,4.797,4.897C26.487,960.139,25.588,961.238,25.188,962.837z"/>
		<path fill="#B5B4B4" d="M46.978,924.855c0.6-1.699,0.399-3.299-0.3-4.897c4.797,0.399,9.195,1.699,12.994,4.797
			c0.299,0.2,0.699,0.4,0.699,0.8c-1.1,1-2.1,1.899-2.898,3.198c-1.6-1.099-3.199-2.198-4.998-2.898
			C50.676,925.255,48.877,924.655,46.978,924.855z"/>
		<path fill="#B5B4B4" d="M64.369,950.043c-1.299-1.199-2.799-1.699-4.498-1.799c1.799-3.198,2.499-6.597,2.199-10.295
			c1.6,0.3,3.098,0.2,4.498-0.6c0.5,3.798-0.2,7.396-1.6,10.994C64.669,948.944,64.369,949.443,64.369,950.043z"/>
	</g>
	<g>
		<path fill="#9192C8" d="M63.569,926.854c2.599,0,4.598,1.999,4.698,4.598c0,2.599-2,4.697-4.598,4.697
			c-2.6,0-4.698-1.998-4.698-4.697C58.972,928.953,60.971,926.954,63.569,926.854z"/>
		<path fill="#9192C8" d="M40.78,927.454c-2.599,0-4.698-1.999-4.698-4.598s1.999-4.697,4.698-4.697
			c2.599,0,4.599,1.998,4.599,4.598C45.379,925.355,43.379,927.454,40.78,927.454z"/>
		<path fill="#9091C7" d="M26.887,964.337c0-2.6,2.099-4.599,4.698-4.599c2.599,0,4.598,2.1,4.698,4.599
			c0,2.598-2.099,4.697-4.698,4.697C28.986,969.034,26.887,966.936,26.887,964.337z"/>
		<path fill="#9192C8" d="M59.771,959.539c-2.6,0-4.598-2.1-4.598-4.698s2.099-4.697,4.797-4.598c2.6,0,4.598,2.099,4.598,4.697
			C64.469,957.54,62.37,959.539,59.771,959.539z"/>
		<path fill="#9192C8" d="M24.388,941.947c0,2.599-1.999,4.598-4.598,4.698c-2.599,0-4.698-2-4.698-4.599s1.999-4.697,4.698-4.697
			C22.289,937.35,24.388,939.349,24.388,941.947z"/>
	</g>
	
		<rect x="10.895" y="1042.599" fill="#CDCCCC" stroke="#B5B4B4" stroke-width="2" stroke-miterlimit="10" width="24.888" height="24.889"/>
	<circle fill="#CDCCCC" stroke="#B5B4B4" stroke-width="2" stroke-miterlimit="10" cx="56.973" cy="1062.889" r="15.192"/>
	<polygon fill="#CDCCCC" stroke="#B5B4B4" stroke-width="2" stroke-miterlimit="10" points="48.776,1029.205 54.773,1058.69 
		26.188,1049.096 	"/>
	<g>
		<path fill="#B5B4B4" d="M16.092,1149.447h-2.399v-6.597v-1.1v-1.199c-0.4,0.4-0.7,0.699-0.799,0.8l-1.3,1.1l-1.199-1.499
			l3.698-2.899h1.999V1149.447z"/>
		<path fill="#B5B4B4" d="M27.187,1143.75c0,1.999-0.3,3.499-1,4.397c-0.7,1-1.699,1.4-2.999,1.4s-2.299-0.5-2.999-1.5
			c-0.7-0.999-1-2.498-1-4.397c0-1.999,0.3-3.499,1-4.498s1.699-1.399,2.999-1.399s2.299,0.5,2.999,1.499
			C26.887,1140.252,27.187,1141.851,27.187,1143.75z M21.59,1143.75c0,1.399,0.1,2.399,0.399,2.999c0.2,0.6,0.7,0.899,1.2,0.899
			c0.6,0,1-0.3,1.199-0.899c0.3-0.6,0.4-1.6,0.4-2.999s-0.1-2.398-0.4-2.998c-0.3-0.601-0.7-0.899-1.199-0.899
			c-0.6,0-1,0.299-1.2,0.899C21.689,1141.352,21.59,1142.351,21.59,1143.75z"/>
		<path fill="#B5B4B4" d="M37.382,1143.75c0,1.999-0.3,3.499-1,4.397c-0.7,1-1.699,1.4-2.999,1.4s-2.299-0.5-2.999-1.5
			c-0.7-0.999-1-2.498-1-4.397c0-1.999,0.3-3.499,1-4.498s1.699-1.399,2.999-1.399s2.299,0.5,2.999,1.499
			C37.082,1140.252,37.382,1141.851,37.382,1143.75z M31.785,1143.75c0,1.399,0.1,2.399,0.4,2.999c0.2,0.6,0.7,0.899,1.199,0.899
			c0.6,0,1-0.3,1.2-0.899c0.3-0.6,0.4-1.6,0.4-2.999s-0.1-2.398-0.4-2.998c-0.3-0.601-0.7-0.899-1.2-0.899
			c-0.6,0-1,0.299-1.199,0.899C31.885,1141.352,31.785,1142.351,31.785,1143.75z"/>
		<path fill="#B5B4B4" d="M44.578,1149.447H42.18v-6.597v-1.1v-1.199c-0.4,0.4-0.7,0.699-0.8,0.8l-1.299,1.1l-1.199-1.499
			l3.698-2.899h1.999V1149.447z"/>
		<path fill="#B5B4B4" d="M55.674,1143.75c0,1.999-0.301,3.499-1,4.397c-0.699,1-1.699,1.4-2.998,1.4c-1.3,0-2.299-0.5-2.999-1.5
			c-0.7-0.999-0.999-2.498-0.999-4.397c0-1.999,0.299-3.499,0.999-4.498s1.699-1.399,2.999-1.399c1.299,0,2.299,0.5,2.998,1.499
			C55.373,1140.352,55.674,1141.851,55.674,1143.75z M50.076,1143.75c0,1.399,0.1,2.399,0.399,2.999c0.2,0.6,0.7,0.899,1.2,0.899
			c0.6,0,0.999-0.3,1.199-0.899c0.299-0.6,0.399-1.6,0.399-2.999s-0.101-2.398-0.399-2.998c-0.301-0.601-0.7-0.899-1.199-0.899
			c-0.6,0-1,0.299-1.2,0.899C50.176,1141.352,50.076,1142.351,50.076,1143.75z"/>
		<path fill="#B5B4B4" d="M65.868,1143.75c0,1.999-0.3,3.499-0.999,4.397c-0.7,1-1.699,1.4-2.999,1.4s-2.299-0.5-2.999-1.5
			c-0.699-0.999-0.999-2.498-0.999-4.397c0-1.999,0.3-3.499,0.999-4.498c0.7-0.999,1.699-1.399,2.999-1.399s2.299,0.5,2.999,1.499
			C65.469,1140.352,65.868,1141.851,65.868,1143.75z M60.271,1143.75c0,1.399,0.1,2.399,0.399,2.999c0.2,0.6,0.7,0.899,1.199,0.899
			c0.6,0,0.999-0.3,1.2-0.899c0.299-0.6,0.398-1.6,0.398-2.999s-0.1-2.398-0.398-2.998c-0.301-0.601-0.7-0.899-1.2-0.899
			c-0.6,0-0.999,0.299-1.199,0.899C60.371,1141.352,60.271,1142.351,60.271,1143.75z"/>
		<path fill="#B5B4B4" d="M73.064,1149.447h-2.398v-6.597v-1.1v-1.199c-0.4,0.4-0.699,0.699-0.8,0.8l-1.3,1.1l-1.199-1.499
			l3.699-2.899h1.998V1149.447z"/>
		<path fill="#B5B4B4" d="M18.291,1163.041c0,1.999-0.3,3.498-1,4.397c-0.7,1-1.699,1.399-3.098,1.399
			c-1.399,0-2.399-0.499-3.099-1.499s-1-2.499-1-4.398c0-1.998,0.3-3.498,1-4.497c0.7-1,1.699-1.399,3.099-1.399
			c1.399,0,2.398,0.5,3.098,1.499C17.892,1159.643,18.291,1161.042,18.291,1163.041z M12.494,1163.041c0,1.399,0.1,2.398,0.4,2.998
			c0.3,0.601,0.699,0.899,1.299,0.899c0.6,0,1-0.299,1.299-0.899c0.3-0.6,0.4-1.599,0.4-2.998s-0.1-2.399-0.4-2.999
			s-0.7-0.899-1.299-0.899c-0.6,0-1,0.3-1.299,0.899C12.594,1160.642,12.494,1161.642,12.494,1163.041z"/>
		<path fill="#B5B4B4" d="M25.688,1168.738h-2.499v-6.597v-1.1v-1.199c-0.4,0.399-0.7,0.699-0.9,0.799l-1.399,1.1l-1.2-1.499
			l3.798-2.898h2.099v11.395H25.688L25.688,1168.738z"/>
		<path fill="#B5B4B4" d="M37.182,1163.041c0,1.999-0.3,3.498-1,4.397c-0.7,1-1.699,1.399-3.099,1.399s-2.399-0.499-3.099-1.499
			c-0.699-1-1-2.499-1-4.398c0-1.998,0.3-3.498,1-4.497c0.7-1,1.699-1.399,3.099-1.399s2.399,0.5,3.099,1.499
			C36.782,1159.643,37.182,1161.042,37.182,1163.041z M31.385,1163.041c0,1.399,0.1,2.398,0.4,2.998
			c0.3,0.601,0.7,0.899,1.299,0.899s1-0.299,1.299-0.899c0.3-0.6,0.4-1.599,0.4-2.998s-0.1-2.399-0.4-2.999s-0.7-0.899-1.299-0.899
			s-1,0.3-1.299,0.899S31.385,1161.642,31.385,1163.041z"/>
		<path fill="#B5B4B4" d="M44.578,1168.738H42.08v-6.597v-1.1v-1.199c-0.399,0.399-0.7,0.699-0.899,0.799l-1.399,1.1l-1.199-1.499
			l3.798-2.898h2.099v11.395H44.578L44.578,1168.738z"/>
		<path fill="#B5B4B4" d="M55.973,1163.041c0,1.999-0.299,3.498-0.999,4.397c-0.7,1-1.699,1.399-3.099,1.399
			s-2.398-0.499-3.099-1.499s-0.999-2.499-0.999-4.398c0-1.998,0.299-3.498,0.999-4.497c0.7-1,1.699-1.399,3.099-1.399
			s2.398,0.5,3.099,1.499C55.674,1159.643,55.973,1161.042,55.973,1163.041z M50.275,1163.041c0,1.399,0.101,2.398,0.4,2.998
			c0.3,0.601,0.699,0.899,1.299,0.899s1-0.299,1.3-0.899c0.3-0.6,0.399-1.599,0.399-2.998s-0.1-2.399-0.399-2.999
			s-0.7-0.899-1.3-0.899s-0.999,0.3-1.299,0.899S50.275,1161.642,50.275,1163.041z"/>
		<path fill="#B5B4B4" d="M63.469,1168.738h-2.498v-6.597v-1.1v-1.199c-0.4,0.399-0.699,0.699-0.899,0.799l-1.399,1.1l-1.199-1.499
			l3.798-2.898h2.099v11.395H63.469L63.469,1168.738z"/>
		<path fill="#B5B4B4" d="M72.865,1168.738h-2.499v-6.597v-1.1v-1.199c-0.399,0.399-0.7,0.699-0.899,0.799l-1.399,1.1l-1.2-1.499
			l3.799-2.898h2.1L72.865,1168.738L72.865,1168.738z"/>
		<path fill="#B5B4B4" d="M16.192,1188.028h-2.499v-6.597v-1.099v-1.2c-0.4,0.4-0.7,0.7-0.899,0.8l-1.299,1.1l-1.2-1.499
			l3.798-2.899h1.999L16.192,1188.028L16.192,1188.028z"/>
		<path fill="#B5B4B4" d="M24.488,1188.028h-2.499v-6.597v-1.099v-1.2c-0.399,0.4-0.7,0.7-0.899,0.8l-1.299,1.1l-1.199-1.499
			l3.798-2.899h1.999v11.395H24.488L24.488,1188.028z"/>
		<path fill="#B5B4B4" d="M32.784,1188.028h-2.499v-6.597v-1.099v-1.2c-0.4,0.4-0.7,0.7-0.9,0.8l-1.299,1.1l-1.199-1.499
			l3.798-2.899h1.999v11.395H32.784L32.784,1188.028z"/>
		<path fill="#B5B4B4" d="M44.078,1181.932c0,1.999-0.299,3.499-0.999,4.397c-0.7,1-1.699,1.4-3.098,1.4c-1.3,0-2.399-0.5-2.999-1.5
			c-0.7-0.999-1-2.498-1-4.397c0-1.999,0.3-3.499,1-4.498s1.699-1.399,3.098-1.399c1.299,0,2.399,0.5,2.999,1.499
			C43.68,1178.434,44.078,1179.933,44.078,1181.932z M38.381,1181.932c0,1.399,0.1,2.399,0.4,2.999c0.2,0.6,0.7,0.899,1.2,0.899
			c0.6,0,1-0.3,1.199-0.899c0.3-0.6,0.4-1.6,0.4-2.999s-0.1-2.398-0.4-2.999c-0.3-0.6-0.7-0.898-1.199-0.898
			c-0.6,0-1,0.299-1.2,0.898C38.481,1179.433,38.381,1180.433,38.381,1181.932z"/>
		<path fill="#B5B4B4" d="M51.375,1187.629h-2.398v-6.597v-1.1v-1.199c-0.4,0.399-0.699,0.699-0.9,0.8l-1.299,1.099l-1.199-1.499
			l3.799-2.898h1.998V1187.629z"/>
		<path fill="#B5B4B4" d="M62.67,1182.231c0,1.999-0.3,3.498-1,4.398c-0.699,0.999-1.699,1.398-3.098,1.398
			c-1.3,0-2.399-0.499-2.999-1.499c-0.6-0.999-0.999-2.499-0.999-4.397c0-1.999,0.299-3.498,0.999-4.498s1.699-1.399,3.099-1.399
			c1.299,0,2.398,0.5,2.998,1.499C62.37,1178.833,62.67,1180.333,62.67,1182.231z M56.973,1182.231c0,1.399,0.1,2.399,0.4,2.999
			c0.199,0.6,0.699,0.899,1.199,0.899c0.6,0,0.999-0.3,1.199-0.899c0.3-0.6,0.399-1.6,0.399-2.999s-0.1-2.398-0.399-2.998
			c-0.301-0.6-0.699-0.9-1.199-0.9c-0.6,0-1,0.301-1.199,0.9C57.172,1179.833,56.973,1180.832,56.973,1182.231z"/>
		<path fill="#B5B4B4" d="M73.064,1182.231c0,1.999-0.299,3.498-0.999,4.398c-0.7,0.999-1.699,1.398-3.099,1.398
			c-1.299,0-2.398-0.499-2.998-1.499c-0.7-0.999-1-2.499-1-4.397c0-1.999,0.3-3.498,1-4.498c0.699-1,1.699-1.399,3.098-1.399
			c1.3,0,2.399,0.5,2.999,1.499C72.665,1178.833,73.064,1180.333,73.064,1182.231z M67.367,1182.231c0,1.399,0.101,2.399,0.4,2.999
			c0.199,0.6,0.699,0.899,1.199,0.899c0.6,0,1-0.3,1.199-0.899c0.301-0.6,0.4-1.6,0.4-2.999s-0.1-2.398-0.4-2.998
			c-0.3-0.6-0.699-0.9-1.199-0.9c-0.6,0-1,0.301-1.199,0.9C67.468,1179.833,67.367,1180.832,67.367,1182.231z"/>
	</g>
	<g>
		<rect x="12.594" y="1251.298" fill="#B4B4B4" width="57.873" height="46.778"/>
		<polygon fill="#E6E6E6" points="36.183,1264.991 46.877,1274.688 36.183,1284.383 		"/>
		<rect x="14.893" y="1288.98" fill="#E6E6E6" width="5.997" height="7.196"/>
		<rect x="22.889" y="1288.98" fill="#E6E6E6" width="5.997" height="7.196"/>
		<rect x="30.785" y="1288.98" fill="#E6E6E6" width="5.997" height="7.196"/>
		<rect x="38.681" y="1288.98" fill="#E6E6E6" width="5.998" height="7.196"/>
		<rect x="46.678" y="1288.98" fill="#E6E6E6" width="5.997" height="7.196"/>
		<rect x="54.574" y="1288.98" fill="#E6E6E6" width="5.996" height="7.196"/>
		<rect x="62.57" y="1288.98" fill="#E6E6E6" width="5.996" height="7.196"/>
		<rect x="14.893" y="1253.597" fill="#E6E6E6" width="5.997" height="7.197"/>
		<rect x="22.889" y="1253.597" fill="#E6E6E6" width="5.997" height="7.197"/>
		<rect x="30.785" y="1253.597" fill="#E6E6E6" width="5.997" height="7.197"/>
		<rect x="38.681" y="1253.597" fill="#E6E6E6" width="5.998" height="7.197"/>
		<rect x="46.678" y="1253.597" fill="#E6E6E6" width="5.997" height="7.197"/>
		<rect x="54.574" y="1253.597" fill="#E6E6E6" width="5.996" height="7.197"/>
		<rect x="62.57" y="1253.597" fill="#E6E6E6" width="5.996" height="7.197"/>
	</g>
	<g>
		<g>
			<g>
				<g>
					<g>
						
							<linearGradient id="SVGID_14_" gradientUnits="userSpaceOnUse" x1="249.9121" y1="-201.7812" x2="329.3419" y2="-281.2109" gradientTransform="matrix(0.9995 7.918300e-04 -7.918300e-04 0.9995 -254.6313 1620.5127)">
							<stop  offset="0" style="stop-color:#FFFFFF"/>
							<stop  offset="0.9962" style="stop-color:#CCCBCA"/>
						</linearGradient>
						<polygon fill="url(#SVGID_14_)" points="0.8,1424.515 0.899,1320.165 55.273,1320.165 83.26,1350.051 83.16,1424.615 						
							"/>
						<path fill="#B1B1B3" d="M54.873,1320.965l27.588,29.286l-0.101,73.564l-80.761-0.1l0.1-102.851L54.873,1320.965
							 M55.573,1319.366H0.1L0,1425.314l83.959,0.101l0.101-75.764L55.573,1319.366L55.573,1319.366z"/>
					</g>
					<path fill="#5F5D5F" d="M54.974,1320.765c0,0,0,29.486,3.599,27.387c3.598-2.099,23.988,2.299,23.988,2.299L54.974,1320.765z"
						/>
					<path fill="#E0E0E0" d="M54.974,1320.765c0,0-0.101,26.487,3.599,24.389c3.697-2.099,24.088,5.297,24.088,5.297
						L54.974,1320.765z"/>
				</g>
			</g>
		</g>
	</g>
	<polygon fill="#B4B3B4" points="40.78,1371.44 70.467,1371.44 70.467,1361.046 40.78,1361.046 34.883,1366.243 	"/>
	<g>
		<path fill="#E6E7E9" d="M46.478,1368.342h-2.898l-0.6,1.6h-1.2l2.798-6.997h1l2.799,6.997h-1.199L46.478,1368.342z
			 M46.178,1367.442l-1.1-2.998l0,0l-1.1,2.998H46.178z"/>
		<path fill="#E6E7E9" d="M49.276,1368.942h1.1v0.999h-1.1V1368.942z"/>
	</g>
	<g>
		<path fill="#B4B3B4" d="M12.594,1380.937c0-1,0.3-2,1-3.1c0.6-0.999,1.6-1.898,2.799-2.598c1.199-0.7,2.699-1,4.298-1
			c1.5,0,2.899,0.3,4.098,0.899s2.099,1.3,2.699,2.299c0.6,1,1,1.999,1,3.198c0,0.9-0.2,1.699-0.5,2.399
			c-0.3,0.7-0.799,1.3-1.299,1.799c-0.5,0.5-1.399,1.3-2.699,2.499c-0.399,0.3-0.6,0.6-0.899,0.899c-0.2,0.2-0.4,0.5-0.5,0.7
			c-0.1,0.199-0.2,0.399-0.2,0.6c-0.1,0.199-0.1,0.6-0.3,1.1c-0.2,1.1-0.8,1.699-1.899,1.699c-0.6,0-1-0.2-1.399-0.5
			c-0.4-0.4-0.6-0.9-0.6-1.6c0-0.899,0.1-1.699,0.4-2.299c0.3-0.699,0.6-1.199,1.099-1.699c0.5-0.5,1.1-1.1,1.799-1.799
			c0.7-0.6,1.199-1,1.499-1.3s0.6-0.6,0.8-0.999c0.2-0.4,0.3-0.8,0.3-1.199c0-0.801-0.3-1.6-0.899-2.1
			c-0.6-0.6-1.399-0.899-2.399-0.899c-1.2,0-1.999,0.3-2.599,0.899c-0.6,0.6-1,1.5-1.399,2.599c-0.4,1.2-1,1.8-2.099,1.8
			c-0.6,0-1.1-0.2-1.499-0.6C12.794,1381.936,12.594,1381.436,12.594,1380.937z M20.39,1398.428c-0.6,0-1.199-0.2-1.699-0.6
			c-0.5-0.4-0.7-1-0.7-1.8c0-0.699,0.2-1.199,0.7-1.699c0.5-0.499,1-0.699,1.699-0.699s1.2,0.2,1.699,0.699c0.5,0.5,0.7,1,0.7,1.699
			c0,0.7-0.2,1.3-0.7,1.8C21.59,1398.228,20.99,1398.428,20.39,1398.428z"/>
	</g>
	<polygon fill="#B4B3B4" points="40.78,1384.734 70.467,1384.734 70.467,1374.339 40.78,1374.339 34.883,1379.536 	"/>
	<g>
		<path fill="#E6E7E9" d="M42.479,1376.238h2.999c0.799,0,1.299,0.2,1.699,0.5c0.399,0.3,0.6,0.8,0.6,1.399c0,0.3-0.1,0.6-0.2,0.799
			c-0.101,0.101-0.2,0.2-0.399,0.4c-0.2,0.1-0.301,0.2-0.6,0.3l0,0c0.399,0.101,0.699,0.3,0.999,0.6c0.2,0.3,0.3,0.6,0.3,1
			c0,0.6-0.199,1.099-0.6,1.399c-0.4,0.399-0.9,0.5-1.5,0.5h-3.298V1376.238z M43.68,1377.138v1.999h1.699
			c0.398,0,0.699-0.1,0.898-0.3c0.2-0.199,0.301-0.399,0.301-0.699c0-0.301-0.101-0.5-0.301-0.7c-0.199-0.199-0.5-0.3-0.898-0.3
			H43.68z M43.68,1380.137v2.099h1.799c0.399,0,0.799-0.1,0.999-0.3s0.3-0.399,0.3-0.7c0-0.299-0.1-0.499-0.3-0.699
			c-0.2-0.199-0.499-0.3-0.999-0.3H43.68V1380.137z"/>
		<path fill="#E6E7E9" d="M49.276,1382.235h1.1v1h-1.1V1382.235z"/>
	</g>
	<polygon fill="#B4B3B4" points="40.78,1398.028 70.467,1398.028 70.467,1387.732 40.78,1387.732 34.883,1392.83 	"/>
	<g>
		<path fill="#E6E7E9" d="M47.678,1394.529c-0.201,0.6-0.5,1.1-1,1.499c-0.5,0.301-1.1,0.5-1.799,0.5c-0.6,0-1.1-0.1-1.5-0.399
			c-0.399-0.2-0.699-0.5-0.899-0.8c-0.1-0.1-0.1-0.2-0.2-0.3c0-0.101-0.1-0.2-0.1-0.4c-0.1-0.3-0.1-0.8-0.1-1.599
			c0-0.8,0-1.3,0.1-1.6s0.1-0.5,0.3-0.699c0.2-0.3,0.5-0.6,0.899-0.9c0.4-0.299,0.9-0.399,1.5-0.399c0.799,0,1.398,0.2,1.799,0.6
			c0.5,0.4,0.799,0.899,0.899,1.499h-1.199c-0.101-0.299-0.3-0.499-0.5-0.699c-0.3-0.199-0.6-0.3-0.999-0.3
			c-0.301,0-0.5,0.1-0.7,0.1c-0.2,0.101-0.399,0.2-0.499,0.4c-0.201,0.2-0.301,0.3-0.301,0.6c-0.1,0.2-0.1,0.699-0.1,1.399
			c0,0.699,0,1.199,0.1,1.399c0,0.199,0.2,0.399,0.301,0.6c0.1,0.1,0.299,0.3,0.499,0.3c0.2,0.1,0.399,0.199,0.7,0.199
			c0.699,0,1.199-0.299,1.499-0.999H47.678L47.678,1394.529z"/>
		<path fill="#E6E7E9" d="M48.677,1395.529h1.099v0.999h-1.099V1395.529z"/>
	</g>
	<polygon fill="#B4B3B4" points="40.78,1411.321 70.467,1411.321 70.467,1401.026 40.78,1401.026 34.883,1406.124 	"/>
	<g>
		<path fill="#E6E7E9" d="M42.479,1402.825h2.698c1.1,0,1.8,0.4,2.399,1.199c0.2,0.301,0.3,0.5,0.399,0.8c0,0.3,0.1,0.8,0.1,1.499
			c0,0.7,0,1.3-0.1,1.6c0,0.1-0.1,0.3-0.1,0.4c-0.1,0.1-0.1,0.199-0.199,0.399c-0.201,0.3-0.5,0.6-0.9,0.8
			c-0.399,0.199-0.899,0.3-1.499,0.3H42.68v-6.997H42.479z M43.68,1408.822h1.398c0.699,0,1.1-0.199,1.399-0.6
			c0.101-0.199,0.2-0.3,0.3-0.6c0-0.2,0-0.699,0-1.3c0-0.6,0-0.999,0-1.299s-0.1-0.5-0.3-0.6c-0.3-0.4-0.8-0.6-1.399-0.6H43.68
			V1408.822z"/>
		<path fill="#E6E7E9" d="M49.477,1408.822h1.1v1h-1.1V1408.822z"/>
	</g>
	<g>
		<g>
			<g>
				<g>
					<g>
						
							<linearGradient id="SVGID_15_" gradientUnits="userSpaceOnUse" x1="249.999" y1="-92.415" x2="329.4288" y2="-171.8447" gradientTransform="matrix(0.9995 7.918300e-04 -7.918300e-04 0.9995 -254.6313 1620.5127)">
							<stop  offset="0" style="stop-color:#FFFFFF"/>
							<stop  offset="0.9962" style="stop-color:#CCCBCA"/>
						</linearGradient>
						<polygon fill="url(#SVGID_15_)" points="0.8,1533.829 0.899,1429.479 55.273,1429.479 83.26,1459.365 83.16,1533.93 						"/>
						<path fill="#B1B1B3" d="M54.873,1430.279l27.588,29.286l-0.101,73.564l-80.761-0.1l0.1-102.851L54.873,1430.279
							 M55.573,1428.681H0.1L0,1534.629l83.959,0.101l0.101-75.764L55.573,1428.681L55.573,1428.681z"/>
					</g>
					<path fill="#5F5D5F" d="M54.974,1430.079c0,0,0,29.486,3.599,27.387c3.598-2.099,23.988,2.299,23.988,2.299L54.974,1430.079z"
						/>
					<path fill="#E0E0E0" d="M54.974,1430.079c0,0-0.101,26.487,3.599,24.389c3.697-2.099,24.088,5.297,24.088,5.297
						L54.974,1430.079z"/>
				</g>
			</g>
		</g>
	</g>
</g>
<g>
	<g>
		<path fill="#B4B3B4" d="M22.809,1505.828c-1.268-0.123-2.767,0.57-3.495-1.607c-0.662-1.977-0.305-3.067,1.455-3.913
			c0.507-0.246,0.965-0.599,1.426-0.924c1.791-1.254,1.823-3.696,0.055-4.976c-0.57-0.417-1.149-0.836-1.783-1.145
			c-1.695-0.83-1.721-1.933-1.15-3.632c0.58-1.727,1.544-1.71,2.924-1.516c2.016,0.282,3.932,0.359,5.059-1.966
			c0.402-0.851,0.645-1.474,0.201-2.345c-0.354-0.687-0.463-1.505-0.835-2.177c-0.772-1.377-0.281-2.174,0.923-2.965
			c1.156-0.752,2.115-1.754,3.461-0.31c0.575,0.614,1.338,1.052,2.02,1.559c1.766,1.298,4.375,0.438,5.083-1.675
			c0.177-0.538,0.353-1.077,0.536-1.613c0.791-2.339,2.031-2.994,4.409-2.404c0.654,0.163,0.925,0.546,1.086,1.146
			c0.241,0.89,0.532,1.764,0.807,2.649c0.802,2.586,3.225,3.265,5.451,1.749c1.2-0.819,2.079-2.801,4.13-1.612
			c2.423,1.407,2.467,1.647,1.582,4.312c-0.433,1.307-1.445,2.468-0.251,4.144c1.199,1.677,2.576,1.682,4.228,1.529
			c2.656-0.242,4.11,0.894,3.938,3.409c-0.123,1.722-2.005,1.998-3.16,2.823c-1.981,1.42-2.051,3.759-0.04,5.175
			c0.521,0.369,0.993,0.856,1.568,1.092c1.823,0.757,1.823,1.98,1.229,3.603c-0.472,1.294-1.194,1.627-2.526,1.662
			c-1.646,0.034-3.494-0.842-4.887,1.066c-0.953,1.303-1.238,2.374-0.535,3.874c0.831,1.765,1.79,3.559-0.964,4.899
			c-1.258,0.614-1.956,0.727-2.914-0.211c-0.605-0.59-1.328-1.062-2.016-1.559c-1.744-1.253-4.341-0.407-5.039,1.633
			c-0.181,0.535-0.358,1.08-0.516,1.621c-0.687,2.403-2.256,3.314-4.506,2.469c-1.362-0.507-1.22-1.967-1.54-3.062
			c-0.436-1.465-0.834-2.67-2.639-3.146c-1.201-0.32-2-0.271-2.865,0.524c-0.463,0.429-1.068,0.725-1.489,1.187
			c-1.411,1.544-2.514,0.791-3.933-0.153c-1.543-1.022-0.992-2.011-0.688-3.278c0.326-1.318,1.873-2.424,0.614-4.096
			C25.852,1505.866,25.944,1505.793,22.809,1505.828z"/>
		<path fill="#808081" d="M41.678,1495.863c1.755-0.477,1.799,0.496,1.583,1.739c-0.293,1.677-0.564,3.353-0.825,5.029
			c-0.338,2.261-1.479,2.974-3.637,2.364c-0.801-0.231-0.742-0.768-0.664-1.317c0.329-2.236,0.688-4.478,1.053-6.714
			C39.453,1495.308,40.794,1496.029,41.678,1495.863z"/>
		<path fill="#F8FBF8" d="M45.007,1491.656c0.03,1.588-1.18,2.876-2.732,2.904c-1.607,0.034-2.837-1.141-2.871-2.747
			c-0.044-1.598,1.13-2.855,2.718-2.911C43.626,1488.854,44.977,1490.146,45.007,1491.656z"/>
		<path fill="#E7F4F6" d="M48.064,1488.406c2.497,1.735,2.453,4.453,2.413,7.053c-0.068,4.233-2.683,8.982-5.75,10.273
			c1.779-2.812,3.426-5.302,4.016-8.317C49.348,1494.329,49.056,1491.399,48.064,1488.406z"/>
		<path fill="#EDF7F9" d="M37.858,1488.338c-3.705,5.354-5.336,10.977-3.003,17.392c-2.625-2.792-2.742-6.145-2.079-9.536
			C33.411,1492.955,35.033,1490.225,37.858,1488.338z"/>
	</g>
</g>
</svg>
