<?xml version="1.0" encoding="utf-8"?>
<!-- Generator: Adobe Illustrator 23.0.6, SVG Export Plug-In . SVG Version: 6.00 Build 0)  -->
<svg version="1.1" id="Laag_1" xmlns="http://www.w3.org/2000/svg" xmlns:xlink="http://www.w3.org/1999/xlink" x="0px" y="0px"
	 viewBox="0 0 263 127.6" style="enable-background:new 0 0 263 127.6;" xml:space="preserve">
<style type="text/css">
	.st0{fill:#E7295C;}
</style>
<g>
	<path class="st0" d="M251.3,91.4c2.3,0,4.4-0.4,6.1-1.1c1.8-0.7,3.1-1.8,4.1-3.1c1-1.3,1.5-2.9,1.5-4.6c0-1.4-0.3-2.6-0.9-3.7
		c-0.6-1-1.6-1.9-3.1-2.7c-1.5-0.8-3.5-1.5-6-2c-1.6-0.3-2.7-0.6-3.5-0.9c-0.8-0.3-1.3-0.6-1.6-0.9s-0.4-0.7-0.4-1.2
		c0-0.8,0.4-1.5,1.2-2c0.8-0.5,1.9-0.8,3.3-0.8c1,0,1.9,0.1,2.7,0.3c0.8,0.2,1.6,0.5,2.2,0.8c0.6,0.3,1,0.5,1.1,0.6
		c0.5,0.3,0.9,0.5,1.2,0.6c0.3,0.1,0.6,0.1,1,0.1c0.6,0,1.2-0.3,1.6-0.9c0.5-0.6,0.7-1.3,0.7-2.1c0-0.6-0.1-1-0.3-1.4
		c-0.2-0.4-0.5-0.7-1-1.1c-1.2-0.9-2.6-1.6-4.1-2c-1.5-0.4-3.2-0.6-5.2-0.6c-2.2,0-4.2,0.4-5.9,1.2c-1.8,0.8-3.1,1.9-4.2,3.2
		c-1,1.4-1.5,2.9-1.5,4.6c0,1.5,0.3,2.8,0.9,3.8c0.6,1,1.6,2,3.1,2.7c1.5,0.8,3.5,1.4,6.2,2c2.1,0.4,3.6,0.9,4.3,1.3
		c0.8,0.4,1.1,1,1.1,1.6c0,0.9-0.4,1.6-1.2,2c-0.8,0.5-2,0.7-3.6,0.7c-1.4,0-2.6-0.1-3.6-0.4c-1.1-0.3-2.2-0.7-3.2-1.3
		c-0.5-0.3-0.9-0.5-1.2-0.6c-0.3-0.1-0.6-0.2-1-0.2c-0.6,0-1.2,0.3-1.7,0.9c-0.5,0.6-0.7,1.3-0.7,2.1c0,0.6,0.1,1.1,0.3,1.4
		c0.2,0.4,0.5,0.7,1,1.1c1.2,0.8,2.7,1.5,4.5,1.9C247.2,91.1,249.1,91.4,251.3,91.4 M219.6,79.7l4-8.9l4,8.9H219.6z M237.7,86.5
		L227.2,65c-0.3-0.7-0.9-1.3-1.6-1.7c-0.7-0.4-1.4-0.6-2.2-0.6c-0.8,0-1.6,0.2-2.2,0.6c-0.7,0.4-1.2,0.9-1.5,1.7l-10.5,21.6
		c-0.2,0.5-0.4,1-0.4,1.5c0,0.9,0.4,1.6,1.1,2.2c0.7,0.6,1.5,0.9,2.4,0.9c0.6,0,1.2-0.2,1.7-0.5c0.5-0.3,0.9-0.8,1.2-1.4l1.8-4H230
		l1.8,4c0.3,0.6,0.7,1.1,1.2,1.4c0.5,0.3,1.1,0.5,1.7,0.5c0.9,0,1.7-0.3,2.4-0.9c0.7-0.6,1.1-1.4,1.1-2.2
		C238.1,87.5,238,87,237.7,86.5 M196.6,85.5h-5.9v-6h5.9c1.5,0,2.5,0.2,3.1,0.7c0.6,0.5,0.9,1.2,0.9,2.3c0,1.1-0.3,1.8-0.9,2.3
		C199.1,85.2,198.1,85.5,196.6,85.5 M190.7,68.5h5.2c1.4,0,2.4,0.2,3,0.7c0.6,0.5,1,1.2,1,2.1c0,0.9-0.3,1.6-1,2
		c-0.6,0.4-1.6,0.6-3,0.6h-5.2V68.5z M202.4,76.4c1.4-0.5,2.5-1.3,3.2-2.4c0.8-1.1,1.2-2.4,1.2-3.8c0-2.2-0.9-4-2.6-5.3
		c-1.7-1.3-4.1-2-7-2H187c-1.1,0-1.9,0.3-2.5,0.9c-0.6,0.6-0.9,1.4-0.9,2.5v21.3c0,1.1,0.3,1.9,0.9,2.5c0.6,0.6,1.4,0.9,2.5,0.9
		h10.6c2,0,3.8-0.3,5.3-1c1.5-0.6,2.6-1.5,3.5-2.7c0.8-1.2,1.2-2.5,1.2-4c0-1.7-0.4-3.2-1.3-4.4C205.3,77.8,204,76.9,202.4,76.4
		 M163.2,79.7l4-8.9l4,8.9H163.2z M181.3,86.5L170.9,65c-0.3-0.7-0.9-1.3-1.6-1.7c-0.7-0.4-1.4-0.6-2.2-0.6c-0.8,0-1.6,0.2-2.2,0.6
		c-0.7,0.4-1.2,0.9-1.5,1.7l-10.5,21.6c-0.2,0.5-0.4,1-0.4,1.5c0,0.9,0.4,1.6,1.1,2.2c0.7,0.6,1.5,0.9,2.4,0.9
		c0.6,0,1.2-0.2,1.7-0.5c0.5-0.3,0.9-0.8,1.2-1.4l1.8-4h12.9l1.8,4c0.3,0.6,0.7,1.1,1.2,1.4c0.5,0.3,1.1,0.5,1.7,0.5
		c0.9,0,1.7-0.3,2.4-0.9c0.7-0.6,1.1-1.4,1.1-2.2C181.7,87.5,181.6,87,181.3,86.5 M149.5,85.5l-8.8-9.1l8.2-8
		c0.8-0.7,1.2-1.6,1.2-2.4c0-0.9-0.3-1.6-1-2.3c-0.7-0.6-1.4-1-2.3-1s-1.7,0.4-2.3,1.1l-11.2,11.3v-8.7c0-1.1-0.3-2-1-2.6
		c-0.7-0.6-1.6-1-2.7-1c-1.1,0-2,0.3-2.6,1c-0.6,0.6-1,1.5-1,2.6v21.3c0,1.1,0.3,2,1,2.6c0.7,0.6,1.5,1,2.6,1c1.1,0,2-0.3,2.7-1
		c0.7-0.7,1-1.5,1-2.6v-9.4l11.3,11.6c0.8,0.8,1.7,1.3,2.7,1.3c0.9,0,1.7-0.3,2.3-1c0.7-0.7,1-1.4,1-2.3S150.2,86.2,149.5,85.5"/>
	<path class="st0" d="M52,113.4c-4.8,8.5-13.8,14.2-24.2,14.2C12.4,127.6,0,115.1,0,99.8v-52C0,32.5,12.4,20,27.8,20
		c10.4,0,19.5,5.7,24.2,14.2l-7.6,7.6c-2.5-6.8-9-11.7-16.6-11.7c-9.7,0-17.7,7.9-17.7,17.7v52c0,9.7,7.9,17.7,17.7,17.7
		c7.6,0,14.2-4.9,16.6-11.7L52,113.4z M97.3,112.3c-3.3,3.3-7.8,5.2-12.5,5.2c-4.7,0-9.2-1.8-12.5-5.2L33.8,73.8l38.5-38.5
		c6.9-6.9,18.1-6.9,25,0c3.3,3.3,5.2,7.8,5.2,12.5c0,4.7-1.8,9.2-5.2,12.5L83.8,73.8l13.5,13.5c3.3,3.3,5.2,7.8,5.2,12.5
		C102.5,104.5,100.6,109,97.3,112.3 M104.4,80.2l-6.4-6.4l6.4-6.4c10.8-10.8,10.8-28.4,0-39.3c-10.8-10.8-28.4-10.8-39.3,0
		L23.1,70.2c-2,2-2,5.2,0,7.1l42.1,42.1c5.2,5.2,12.2,8.1,19.6,8.1c7.4,0,14.4-2.9,19.6-8.1c5.2-5.2,8.1-12.2,8.1-19.6
		C112.6,92.4,109.7,85.4,104.4,80.2"/>
	<path class="st0" d="M56.6,9.7c6.1,0,11.1,4.3,12.2,10.1c2.8-2,5.8-3.3,9-4.2C75,6.6,66.6,0,56.6,0c-10,0-18.5,6.7-21.3,15.8
		c3.3,0.9,6.3,2.5,9,4.5C45.3,14.3,50.4,9.7,56.6,9.7"/>
</g>
</svg>
