<!-- Generated by IcoMoon.io -->
<svg version="1.1" xmlns="http://www.w3.org/2000/svg" width="64" height="64" viewBox="0 0 64 64">
<title>aardrijkskunde</title>
<path d="M51.669 25.899c0-6.229-3.2-11.776-8.107-15.232l-1.323 1.792c4.352 3.029 7.168 7.936 7.168 13.44 0 9.216-7.851 16.683-17.536 16.683-5.717 0-10.752-2.603-13.952-6.613l-1.792 1.365c3.456 4.267 8.747 7.125 14.805 7.381v3.029c0 0-0.939 1.707-3.029 2.432-2.091 0.683-4.011 1.749-3.797 2.773 0.171 0.939 2.176 1.749 7.808 1.92v0.043c0.384 0 0.725 0 1.067 0s0.683 0 1.067 0v-0.043c5.632-0.171 7.637-0.981 7.808-1.92 0.171-1.024-1.707-2.091-3.797-2.773s-3.029-2.432-3.029-2.432v-3.243c9.429-1.408 16.64-9.173 16.64-18.603z"></path>
<path d="M31.787 40.917c8.747 0 15.829-6.741 15.829-15.061s-7.125-15.019-15.829-15.019c-8.747 0-15.829 6.741-15.829 15.061s7.083 15.019 15.829 15.019zM21.163 20.181c0.085-0.171 0.256-0.213 0.341-0.384 0.043-0.128 0.085-0.256 0.128-0.341 0.128-0.213 0.384-0.427 0.597-0.597 0.213-0.213 0.384-0.427 0.512-0.683 0.043-0.085 0.171-0.299 0.128-0.384-0.043-0.171-0.341-0.299-0.299-0.469 0-0.128 0.171-0.128 0.256-0.213 0.043-0.043 0.043-0.213 0.043-0.299 0-0.171-0.085-0.299-0.043-0.469 0.043-0.128 0.256-0.213 0.128-0.341-0.128-0.171-0.299 0.085-0.427 0s0.043-0.213 0.043-0.384c0-0.085-0.043-0.128-0.043-0.213s0.171-0.213 0.128-0.256c-0.043-0.085-0.128-0.213-0.213-0.341 1.877-1.451 4.139-2.475 6.656-2.901 0.043 0.043 0.043 0.128 0.128 0.128 0.128-0.085 0.299 0 0.469 0s0.299-0.085 0.469-0.043c0.299 0.043 0.725 0.341 0.981 0.171 0.043-0.043 0.043-0.128 0.085-0.213s0.128-0.171 0.171-0.256c0.128 0 0.256 0 0.384 0 0.384 0 0.725 0 1.109 0.043 0.64 0.043 1.28 0.128 1.877 0.256-0.043 0.085-0.171 0.043-0.299 0.085-0.085 0.043-0.128 0.128-0.256 0.171-0.299 0.043-0.555-0.085-0.811-0.085 0 0.128 0.128 0.171 0.213 0.213 0.256 0.128 0.427 0.085 0.768 0.085 0.171 0 0.384 0.043 0.512-0.043 0.085-0.043 0.085-0.213 0.171-0.256 0.043-0.043 0.085-0.043 0.128-0.085 0.171 0.043 0.341 0.085 0.512 0.128-0.043 0.128-0.213 0.085-0.213 0.213 0.128 0.085 0.384-0.043 0.512-0.171 0.043 0 0.085 0.043 0.128 0.043 0.256 0.085 0.469 0.128 0.725 0.213 0.341 0.128 0.683 0.256 0.981 0.384-0.043 0.043-0.128 0.085-0.171 0.085-0.128 0-0.213-0.171-0.341-0.128 0 0.171 0.213 0.256 0.341 0.341s0.299 0.171 0.341 0.341c-0.128 0.299-0.341 0-0.597 0s-0.597 0.427-0.811 0.085c0.043-0.171 0.256-0.213 0.341-0.384-0.043 0-0.085 0.043-0.128 0.043-0.085 0.043-0.171 0.085-0.256 0.128s-0.213 0.128-0.341 0.128c-0.128 0.043-0.213 0-0.341 0.043-0.213 0.043-0.341 0.213-0.555 0.256-0.085 0.043-0.171 0-0.256 0.043-0.213 0.085-0.469 0.171-0.683 0.299s-0.469 0.213-0.597 0.341c-0.085 0.043-0.256 0.256-0.256 0.341s0.213 0.128 0.213 0.213c0 0.043-0.128 0.171-0.043 0.256s0.213 0 0.341 0.043c0.256 0.043 0.427 0.213 0.64 0.341 0.128 0.085 0.384 0.171 0.555 0.213 0.213 0.043 0.512-0.043 0.512 0.128 0.043 0.171-0.213 0.213-0.256 0.341 0.128 0.171-0.085 0.213-0.085 0.384 0 0.128 0.128 0.299 0.256 0.299 0.171 0 0.427-0.171 0.512-0.341 0.085-0.213 0.043-0.469 0.213-0.597 0.811 0 1.451-0.341 1.408-1.109 0-0.085-0.043-0.171-0.043-0.256 0.043-0.128 0.256-0.213 0.213-0.384 0.085-0.043 0.128-0.085 0.171-0.171 0.085-0.128 0.128-0.256 0.256-0.256 0 0 0 0 0.043 0 0.085 0 0.128 0 0.213 0 0.128 0.043 0.299 0.085 0.427 0.085 0.085 0 0.171-0.085 0.256-0.085 0.171 0.043 0.256 0.213 0.384 0.299s0.213 0.043 0.256 0.171c-0.043 0.171-0.171 0.171-0.171 0.341 0 0.128 0.171 0.256 0.256 0.256 0.128 0.043 0.299-0.043 0.427-0.085s0.256-0.171 0.384-0.299c0.171 0.128 0.341 0.256 0.512 0.384 0 0.085 0.043 0.128 0.043 0.171 0.043 0.171-0.043 0.299 0 0.469 0 0.256 0.384 0.256 0.555 0.384 0.043 0.043 0.085 0.171 0.128 0.213 0.085 0.128 0.171 0.128 0.213 0.213 0.043 0.299-0.256 0.299-0.256 0.597-0.043 0.128-0.213 0.128-0.213 0.256 0 0.256 0.384 0.043 0.512 0.256 0.043 0.085 0 0.171-0.043 0.341 0.128 0.128 0.128 0.384-0.085 0.384-0.128 0-0.171-0.128-0.341-0.171-0.085 0-0.171 0-0.299-0.043-0.085 0-0.171-0.043-0.256-0.043-0.213-0.043-0.427 0.043-0.555-0.085 0.213-0.256 0.469-0.512 0.725-0.725 0.085-0.085 0.256-0.128 0.213-0.256-0.128-0.128-0.341 0-0.469 0.085s-0.299 0.171-0.469 0.213c-0.299 0.043-0.64-0.085-0.896 0.085-0.043 0.128 0.256 0.085 0.213 0.256-0.128 0-0.213 0.043-0.299-0.043s-0.043-0.171-0.085-0.213c-0.085-0.085-0.427-0.085-0.555-0.085-0.171 0.043-0.341 0.128-0.341 0.256 0.213 0.085 0.555-0.085 0.64 0.128-0.128 0.213-0.384 0.299-0.341 0.597 0 0.085 0.128 0.256 0.256 0.256 0.085 0 0.128-0.085 0.256-0.085 0.085 0 0.085 0.128 0.171 0.085 0.171-0.085 0.256-0.299 0.427-0.256 0.213 0.256-0.213 0.384-0.427 0.469-0.256 0.085-0.64 0.128-0.811 0.213-0.128 0.043-0.512 0.427-0.597 0.128-0.043-0.213 0.213-0.171 0.256-0.341-0.256-0.043-0.512 0.128-0.725 0.213-0.341 0.128-0.939 0.213-0.981 0.555 0 0.085 0.043 0.213 0 0.256s-0.299 0.043-0.384 0.085c-0.171 0.043-0.299 0.171-0.427 0.213-0.085 0-0.171 0-0.256 0.043-0.128 0.043-0.171 0.213-0.341 0.341-0.043 0.043-0.213 0.085-0.256 0.128-0.299 0.128-0.299 0.341-0.469 0.341-0.085 0-0.171-0.085-0.256 0 0 0.213 0.085 0.469 0 0.683-0.213 0.171-0.427 0.256-0.683 0.384-0.128 0.085-0.256 0.085-0.427 0.171-0.128 0.043-0.213 0.213-0.384 0.256-0.085 0.043-0.171 0.085-0.256 0.128-0.256 0.171-0.469 0.384-0.469 0.725 0 0.085 0.043 0.213 0.085 0.341 0 0.085 0 0.128 0 0.213 0 0.171 0.128 0.384 0 0.512-0.213-0.085-0.512-0.128-0.683-0.256-0.043-0.171 0.085-0.299 0.085-0.427s-0.171-0.341-0.299-0.341c-0.085 0-0.213 0.085-0.299 0.085-0.128 0-0.256-0.171-0.427-0.213-0.256-0.043-0.427 0.043-0.683 0-0.256 0.128-0.341 0.341-0.64 0.341-0.128 0-0.213-0.085-0.341-0.128s-0.341-0.085-0.512-0.085c-0.299 0-0.512 0.213-0.725 0.341s-0.512 0.256-0.597 0.469c-0.043 0.128 0 0.299-0.043 0.384s-0.085 0.128-0.128 0.213c-0.171 0.341-0.341 0.768-0.213 1.237 0.043 0.085 0.213 0.469 0.299 0.555s0.341 0.213 0.512 0.213c0.128 0 0.256-0.043 0.384-0.085s0.299-0.043 0.427-0.085c0.384-0.128 0.299-0.597 0.64-0.725 0.171-0.085 0.341-0.085 0.64-0.085 0.085 0.085 0.128 0.213 0.128 0.299s-0.085 0.171-0.128 0.256c-0.043 0.085-0.043 0.213-0.085 0.299-0.043 0.128-0.171 0.171-0.213 0.299-0.043 0.085 0 0.128-0.043 0.213s-0.171 0.171-0.128 0.299c0.384 0.128 0.811-0.043 1.109 0 0.128 0.043 0.427 0.171 0.427 0.384 0 0.128-0.128 0.256-0.128 0.384 0 0.213-0.128 0.469-0.128 0.597 0 0.256 0.427 0.725 0.725 0.725 0.341 0 0.512-0.299 0.896-0.128 0.128 0.043 0.256 0.256 0.427 0.256 0.043 0 0.085-0.043 0.171-0.085 0.085-0.085 0.171-0.171 0.213-0.256 0.085-0.171 0.085-0.299 0.256-0.384s0.341-0.043 0.555-0.128c0.085-0.043 0.213-0.085 0.299-0.171 0.085-0.043 0.171-0.213 0.256-0.085 0.128 0.128-0.171 0.213-0.043 0.341 0.256 0.128 0.341-0.213 0.512-0.213 0.043 0 0.256 0.085 0.341 0.171 0.128 0.085 0.171 0.213 0.341 0.213 0.085 0 0.256-0.043 0.384 0 0.171 0.043 0.256 0.171 0.427 0.171s0.256-0.171 0.384-0.213c0.299-0.043 0.427 0.043 0.555 0.213 0.128 0.043 0.171-0.171 0.299-0.085-0.085 0.128 0.043 0.213 0.085 0.341 0.043 0.085 0.043 0.128 0.085 0.171 0.085 0.085 0.256 0.085 0.341 0.128 0.128 0.085 0.213 0.213 0.341 0.384s0.384 0.341 0.597 0.341c0.171 0 0.341-0.043 0.512-0.043 0.341 0.043 0.555 0.213 0.811 0.384 0.128 0.085 0.256 0.171 0.299 0.299 0.043 0.085 0 0.213 0.043 0.299 0.085 0.213 0.384 0.299 0.256 0.64 0.043 0.085 0.171 0.128 0.299 0.213 0.085 0.043 0.171 0.171 0.299 0.213 0.085 0 0.128 0 0.213 0 0.213 0 0.341 0.085 0.512 0.128 0.085 0.043 0.256 0.043 0.299 0.085 0.085 0.043 0.085 0.256 0.213 0.299 0.085 0.043 0.213 0 0.341 0 0.171 0 0.427 0.128 0.597 0.128 0.085 0 0.171-0.043 0.256-0.043 0.213 0 0.384 0.128 0.512 0.256-2.176 3.2-5.461 5.504-9.344 6.4 0-0.128-0.043-0.299-0.043-0.427 0-0.299 0.043-0.512 0-0.811-0.043-0.213-0.085-0.555-0.171-0.683-0.085-0.171-0.427-0.384-0.64-0.512-0.128-0.043-0.256-0.085-0.384-0.128-0.256-0.128-0.811-0.384-0.939-0.64-0.043-0.085-0.043-0.171-0.085-0.256s-0.085-0.171-0.128-0.213c-0.085-0.085-0.128-0.171-0.213-0.256-0.213-0.299-0.384-0.683-0.597-0.981-0.128-0.171-0.213-0.341-0.341-0.469-0.085-0.085-0.299-0.128-0.341-0.256s-0.171-0.341-0.128-0.469c0.043-0.171 0.341-0.299 0.341-0.427s-0.171-0.171-0.213-0.299c-0.085-0.256 0.043-0.384 0.171-0.597 0.043-0.085 0.085-0.171 0.085-0.213 0.043-0.085 0.171-0.128 0.256-0.213 0.043-0.043 0.085-0.171 0.128-0.256 0.128-0.171 0.341-0.213 0.384-0.384 0.043-0.128 0.085-0.725 0-0.939-0.043-0.128-0.128-0.213-0.171-0.341-0.085-0.213-0.085-0.427-0.299-0.384-0.128 0-0.213 0.128-0.299 0.213 0 0.128 0 0.256-0.128 0.256-0.213 0.043-0.256-0.213-0.512-0.256-0.085-0.043-0.213-0.043-0.299-0.043-0.171-0.085-0.213-0.299-0.384-0.384-0.128-0.085-0.256-0.043-0.341-0.171-0.043-0.085 0-0.213 0-0.341-0.171-0.085-0.341-0.469-0.555-0.597-0.128-0.043-0.341-0.043-0.555-0.128-0.085-0.043-0.171-0.043-0.256-0.085-0.128-0.043-0.213-0.043-0.299-0.085-0.341-0.171-0.512-0.683-0.939-0.64-0.171 0-0.341 0.171-0.512 0.171s-0.427-0.128-0.64-0.213c-0.213-0.085-0.427-0.128-0.597-0.213-0.128-0.085-0.213-0.171-0.341-0.256-0.043 0.085-0.171 0.085-0.256 0.043-0.128-0.043-0.213-0.171-0.341-0.256s-0.256-0.213-0.256-0.341 0.128-0.213 0.128-0.341c0.043-0.384-0.256-0.64-0.427-0.896-0.128-0.171-0.299-0.299-0.427-0.469 0-0.085 0-0.128 0-0.213-0.085-0.085-0.213-0.256-0.299-0.384s-0.299-0.256-0.341-0.427c-0.043-0.171 0.085-0.341 0-0.512-0.128-0.299-0.555-0.171-0.512 0.213 0 0.085 0.171 0.256 0.213 0.341 0.043 0.128 0.043 0.256 0.085 0.384s0.171 0.213 0.213 0.384c0.085 0.213 0.085 0.469 0.128 0.597s0.256 0.256 0.171 0.384c-0.171 0.043-0.213-0.128-0.341-0.213-0.043-0.043-0.256-0.128-0.299-0.256-0.043-0.085 0.043-0.213 0.043-0.341-0.043-0.213-0.555-0.213-0.555-0.469 0-0.128 0.213-0.171 0.213-0.299 0-0.171-0.213-0.299-0.256-0.427s-0.043-0.299-0.085-0.469c0-0.171 0-0.341-0.043-0.469s-0.213-0.256-0.341-0.341c-0.128-0.085-0.256-0.043-0.341-0.171-0.043-0.085-0.085-0.299-0.128-0.427-0.043-0.213 0-0.427 0-0.597 0-0.213-0.043-0.427 0-0.64z"></path>
</svg>
