<!-- Generated by IcoMoon.io -->
<svg version="1.1" xmlns="http://www.w3.org/2000/svg" width="52" height="64" viewBox="0 0 52 64">
<title>aardrijkskunde-lg</title>
<path d="M51.657 22.033c0-9.011-4.629-17.034-11.726-22.033l-1.913 2.592c6.251 4.297 10.312 11.389 10.368 19.432 0 13.339-11.356 24.14-25.365 24.14-0.052 0-0.113 0.001-0.174 0.001-8.062 0-15.257-3.711-19.97-9.519l-2.63 1.927c5.14 6.272 12.771 10.338 21.36 10.675l0.055 4.384c-1.020 1.621-2.532 2.853-4.323 3.499-3.083 1.006-5.86 2.549-5.552 4.030 0.247 1.358 3.148 2.53 11.294 2.777v0.062h3.086v-0.062c8.147-0.247 11.047-1.419 11.294-2.777 0.247-1.481-2.469-3.024-5.493-4.012-1.862-0.641-3.38-1.88-4.361-3.482l-0.020-4.726c13.639-2.037 24.069-13.269 24.069-26.908z"></path>
<path d="M22.897 43.757c12.652 0 22.897-9.751 22.897-21.786s-10.307-21.724-22.897-21.724-22.897 9.751-22.897 21.786 10.245 21.724 22.897 21.724zM7.529 13.763c0.123-0.247 0.37-0.309 0.494-0.555 0.061-0.198 0.124-0.362 0.196-0.52 0.233-0.308 0.518-0.594 0.842-0.83 0.304-0.288 0.551-0.614 0.742-0.975 0.121-0.175 0.19-0.367 0.195-0.575-0.062-0.248-0.494-0.433-0.432-0.68 0.077-0.148 0.208-0.258 0.366-0.307 0.046-0.102 0.071-0.22 0.071-0.343 0-0.032-0.002-0.063-0.005-0.094-0.040-0.166-0.064-0.362-0.064-0.563 0-0.040 0.001-0.079 0.003-0.118 0.062-0.18 0.37-0.303 0.185-0.488s-0.432 0.123-0.617 0 0.062-0.309 0.062-0.555c0-0.123-0.062-0.185-0.062-0.309 0.069-0.106 0.131-0.228 0.18-0.356-0.104-0.209-0.206-0.37-0.316-0.526 2.698-2.069 5.956-3.549 9.512-4.161 0.156 0.071 0.224 0.139 0.311 0.166 0.104-0.030 0.221-0.047 0.341-0.047s0.238 0.017 0.348 0.050c0.161-0.043 0.357-0.066 0.558-0.066 0.040 0 0.079 0.001 0.118 0.003 0.427 0.062 1.044 0.494 1.414 0.247 0.048-0.088 0.090-0.19 0.121-0.297 0.064-0.135 0.188-0.258 0.25-0.381h0.555c0.079-0.002 0.173-0.003 0.267-0.003 0.471 0 0.936 0.023 1.395 0.069 0.948 0.061 1.878 0.193 2.784 0.389-0.24 0.055-0.38 0.101-0.531 0.101-0.010 0-0.019-0-0.029-0.001-0.107 0.092-0.228 0.174-0.358 0.242-0.43-0.003-0.835-0.048-1.227-0.126 0.076 0.163 0.197 0.283 0.35 0.315 0.235 0.095 0.504 0.149 0.786 0.149 0.116 0 0.229-0.009 0.34-0.027 0.064 0.016 0.152 0.024 0.241 0.024 0.175 0 0.342-0.031 0.497-0.087 0.113-0.058 0.113-0.305 0.237-0.367s0.123-0.062 0.185-0.123l0.741 0.185c-0.062 0.185-0.309 0.123-0.309 0.309 0.051 0.013 0.11 0.020 0.171 0.020 0.228 0 0.433-0.103 0.568-0.266 0.063-0.001 0.124 0.061 0.186 0.061 0.37 0.123 0.679 0.185 1.049 0.309 0.494 0.185 0.987 0.37 1.419 0.555-0.066 0.063-0.15 0.107-0.244 0.123-0.145-0.083-0.31-0.147-0.486-0.183 0.070 0.232 0.25 0.412 0.478 0.49 0.227 0.101 0.4 0.274 0.497 0.489-0.183 0.438-0.491 0.006-0.862 0.006s-0.864 0.617-1.173 0.123c0.152-0.206 0.314-0.388 0.491-0.553-0.059-0.002-0.121 0.060-0.183 0.060l-0.37 0.185c-0.14 0.094-0.307 0.16-0.488 0.184-0.191 0.062-0.315 0.001-0.5 0.062-0.309 0.062-0.494 0.309-0.802 0.37-0.123 0.062-0.247 0-0.37 0.062-0.386 0.135-0.712 0.281-1.023 0.45-0.296 0.134-0.579 0.299-0.845 0.487-0.155 0.108-0.285 0.277-0.352 0.476-0.002 0.13 0.307 0.192 0.307 0.315s-0.185 0.247-0.062 0.37c0.118 0.042 0.255 0.066 0.397 0.066 0.034 0 0.068-0.001 0.101-0.004 0.352 0.11 0.66 0.279 0.926 0.498 0.227 0.127 0.494 0.233 0.777 0.301 0.33 0.066 0.762-0.058 0.762 0.189s-0.309 0.309-0.37 0.494c0.185 0.247-0.123 0.309-0.123 0.555 0.010 0.214 0.164 0.389 0.367 0.431 0.32-0.043 0.587-0.228 0.741-0.489 0.031-0.33 0.143-0.625 0.315-0.875 1.169 0.006 2.094-0.488 2.033-1.599 0-0.123-0.062-0.247-0.062-0.37s0.37-0.309 0.309-0.555c0.111-0.050 0.197-0.136 0.246-0.244 0.055-0.181 0.193-0.319 0.368-0.372l0.374-0.001c0.182 0.067 0.392 0.111 0.612 0.123 0.129 0 0.252-0.123 0.376-0.123 0.217 0.113 0.4 0.258 0.554 0.43 0.157 0.032 0.288 0.122 0.371 0.247-0.1 0.144-0.184 0.308-0.242 0.483 0.031 0.202 0.177 0.349 0.364 0.383 0.033 0.003 0.067 0.005 0.102 0.005 0.189 0 0.367-0.047 0.523-0.131 0.213-0.105 0.398-0.25 0.547-0.427l0.743 0.553c0.015 0.094 0.036 0.177 0.065 0.257 0.059 0.237-0.065 0.422-0.003 0.669 0 0.37 0.555 0.37 0.802 0.555 0.062 0.062 0.123 0.247 0.185 0.309 0.123 0.185 0.247 0.185 0.309 0.309 0.062 0.432-0.37 0.432-0.37 0.864-0.119 0.107-0.221 0.228-0.305 0.363-0.004 0.377 0.551 0.069 0.737 0.377 0.011 0.047 0.017 0.102 0.017 0.158 0 0.122-0.029 0.238-0.080 0.34 0.187 0.181 0.187 0.551-0.121 0.551-0.193-0.079-0.355-0.162-0.51-0.256 0.003 0.010-0.013 0.010-0.028 0.010-0.139 0-0.272-0.023-0.397-0.065-0.115 0.003-0.238-0.059-0.362-0.059-0.051 0.006-0.11 0.009-0.17 0.009-0.229 0-0.446-0.049-0.642-0.137 0.332-0.379 0.676-0.723 1.046-1.035 0.136-0.134 0.383-0.196 0.321-0.381-0.075-0.038-0.163-0.060-0.256-0.060-0.167 0-0.317 0.070-0.423 0.183-0.195 0.133-0.421 0.238-0.663 0.305-0.448 0.066-0.942-0.12-1.312 0.127-0.062 0.185 0.37 0.123 0.309 0.37-0.045 0.015-0.097 0.023-0.151 0.023-0.105 0-0.202-0.032-0.282-0.086-0.052-0.088-0.095-0.191-0.12-0.3-0.194-0.089-0.417-0.137-0.652-0.137-0.053 0-0.106 0.002-0.158 0.007-0.222 0.011-0.414 0.16-0.486 0.366 0.307 0.127 0.801-0.12 0.925 0.189-0.185 0.309-0.555 0.432-0.494 0.864 0.034 0.189 0.181 0.336 0.367 0.37 0.105-0.044 0.228-0.086 0.355-0.119 0.141-0.004 0.141 0.181 0.265 0.12 0.247-0.123 0.37-0.432 0.617-0.37 0.309 0.37-0.309 0.555-0.617 0.679s-0.926 0.185-1.173 0.309-0.741 0.617-0.864 0.185c-0.062-0.309 0.309-0.247 0.37-0.494-0.389 0.008-0.751 0.122-1.058 0.314-0.485 0.18-1.349 0.303-1.411 0.797 0.015 0.056 0.023 0.119 0.023 0.185s-0.009 0.13-0.025 0.19c-0.061 0.057-0.431 0.057-0.554 0.118-0.246 0.105-0.449 0.209-0.644 0.323 0.009-0.016-0.012-0.017-0.033-0.017-0.112 0-0.219 0.024-0.315 0.066-0.177 0.149-0.338 0.31-0.484 0.486-0.067 0.068-0.313 0.13-0.375 0.191-0.432 0.185-0.432 0.494-0.679 0.494-0.054-0.029-0.117-0.046-0.185-0.046s-0.131 0.017-0.187 0.047c0.032 0.147 0.048 0.318 0.048 0.493s-0.017 0.345-0.049 0.511c-0.283 0.191-0.607 0.377-0.952 0.526-0.192 0.090-0.396 0.173-0.605 0.246-0.207 0.142-0.388 0.264-0.579 0.373l-0.392 0.196c-0.391 0.2-0.658 0.591-0.679 1.047 0.021 0.186 0.064 0.353 0.128 0.509l-0.005 0.296c0.044 0.11 0.070 0.237 0.070 0.37s-0.026 0.261-0.072 0.377c-0.374-0.103-0.703-0.229-1.011-0.389 0.032-0.211 0.077-0.422 0.154-0.617-0.043-0.223-0.211-0.412-0.432-0.48-0.128-0.001-0.313 0.122-0.436 0.122-0.246-0.105-0.449-0.209-0.644-0.323-0.343-0.047-0.59 0.076-0.961 0.015-0.37 0.185-0.494 0.494-0.926 0.494-0.186-0.037-0.351-0.102-0.501-0.189-0.213-0.068-0.466-0.113-0.73-0.119-0.41 0.066-0.768 0.242-1.055 0.496-0.353 0.142-0.646 0.375-0.858 0.671-0.066 0.191-0.004 0.438-0.066 0.561s-0.123 0.185-0.185 0.309c-0.226 0.366-0.361 0.81-0.361 1.285 0 0.179 0.019 0.353 0.055 0.521 0.131 0.293 0.275 0.556 0.441 0.805 0.19 0.15 0.444 0.262 0.723 0.29 0.209-0.012 0.398-0.056 0.573-0.127 0.173-0.057 0.42-0.057 0.605-0.119 0.555-0.185 0.432-0.864 0.926-1.049 0.212-0.085 0.459-0.135 0.716-0.135 0.074 0 0.146 0.004 0.218 0.012 0.099 0.112 0.169 0.263 0.176 0.43-0.039 0.143-0.103 0.267-0.187 0.374-0.060 0.121-0.060 0.306-0.122 0.43s-0.247 0.247-0.309 0.432 0 0.185-0.062 0.309c-0.114 0.103-0.185 0.252-0.185 0.417 0 0.005 0 0.011 0 0.016 0.555 0.184 1.173-0.063 1.605-0.001 0.295 0.058 0.529 0.271 0.616 0.55 0.002 0.191-0.184 0.376-0.184 0.561 0 0.309-0.185 0.679-0.185 0.864 0.124 0.522 0.527 0.925 1.040 1.047 0.503 0.002 0.75-0.43 1.306-0.183 0.175 0.153 0.38 0.278 0.603 0.366 0.108-0.025 0.19-0.067 0.263-0.12 0.117-0.105 0.219-0.227 0.302-0.361 0.054-0.239 0.188-0.433 0.371-0.561 0.25-0.125 0.497-0.064 0.805-0.187 0.166-0.063 0.308-0.146 0.435-0.249 0.121-0.059 0.244-0.306 0.367-0.121s-0.247 0.309-0.062 0.494c0.37 0.185 0.494-0.309 0.741-0.309 0.19 0.047 0.356 0.133 0.496 0.248 0.119 0.153 0.29 0.264 0.486 0.306 0.089-0.014 0.185-0.022 0.283-0.022s0.194 0.009 0.288 0.025c0.168 0.1 0.373 0.184 0.589 0.241 0.232-0.066 0.417-0.171 0.576-0.306 0.056-0.015 0.124-0.025 0.193-0.025 0.255 0 0.478 0.133 0.605 0.333 0.187 0.065 0.249-0.244 0.434-0.12-0.012 0.042-0.019 0.090-0.019 0.139 0 0.138 0.054 0.263 0.143 0.355 0.031 0.094 0.073 0.176 0.125 0.249 0.14 0.081 0.306 0.145 0.481 0.181 0.204 0.158 0.368 0.342 0.499 0.548 0.208 0.28 0.514 0.465 0.864 0.502 0.252 0 0.499-0.061 0.746-0.061 0.452 0.089 0.849 0.284 1.177 0.559 0.183 0.093 0.332 0.241 0.425 0.423 0.064 0.129 0.003 0.314 0.064 0.438 0.123 0.309 0.555 0.432 0.37 0.926 0.119 0.129 0.263 0.233 0.424 0.305 0.135 0.116 0.277 0.218 0.428 0.305l0.321 0.007c0.273 0.027 0.524 0.093 0.758 0.192 0.157 0.033 0.302 0.075 0.442 0.126 0.059 0.157 0.162 0.299 0.282 0.424 0.074 0.014 0.159 0.023 0.246 0.023s0.173-0.008 0.255-0.025c0.239 0.001 0.609 0.187 0.856 0.187 0.123 0 0.247-0.062 0.37-0.062 0.297 0.021 0.558 0.159 0.739 0.369-3.145 4.603-7.862 7.932-13.363 9.229-0.152-0.155-0.213-0.402-0.213-0.587 0.015-0.176 0.023-0.38 0.023-0.586s-0.008-0.411-0.025-0.613c-0.040-0.339-0.127-0.673-0.254-0.987-0.243-0.279-0.551-0.528-0.9-0.707l-0.572-0.193c-0.537-0.208-0.991-0.524-1.355-0.923-0.064-0.126-0.064-0.25-0.126-0.373-0.051-0.118-0.113-0.219-0.187-0.311-0.121-0.121-0.183-0.244-0.307-0.368-0.309-0.432-0.555-0.987-0.864-1.419-0.164-0.257-0.326-0.479-0.502-0.689-0.186-0.081-0.35-0.206-0.484-0.358-0.115-0.197-0.183-0.43-0.187-0.68 0.062-0.248 0.494-0.433 0.494-0.618-0.086-0.165-0.189-0.307-0.309-0.433-0.015-0.063-0.024-0.136-0.024-0.211 0-0.255 0.104-0.486 0.271-0.652 0.054-0.089 0.097-0.192 0.122-0.302 0.11-0.123 0.232-0.225 0.364-0.311 0.076-0.111 0.138-0.233 0.188-0.361 0.221-0.169 0.405-0.353 0.555-0.562 0.049-0.211 0.075-0.446 0.075-0.686s-0.025-0.475-0.074-0.701c-0.058-0.163-0.181-0.287-0.243-0.472-0.123-0.309-0.123-0.617-0.432-0.555-0.182 0.046-0.333 0.157-0.43 0.306-0.002 0.188-0.002 0.373-0.187 0.373-0.309 0.062-0.37-0.309-0.741-0.37-0.107-0.041-0.232-0.064-0.361-0.064-0.025 0-0.050 0.001-0.074 0.003-0.244-0.124-0.305-0.432-0.552-0.556-0.19-0.047-0.356-0.133-0.496-0.248-0.013-0.073-0.021-0.158-0.021-0.245s0.009-0.173 0.025-0.255c-0.248-0.115-0.495-0.671-0.804-0.856-0.317-0.054-0.587-0.118-0.851-0.198-0.075-0.049-0.198-0.049-0.322-0.111-0.174-0.039-0.319-0.082-0.459-0.132-0.466-0.238-0.713-0.979-1.33-0.917-0.247 0-0.494 0.247-0.741 0.247-0.347-0.061-0.658-0.169-0.944-0.317-0.29-0.115-0.599-0.177-0.846-0.3s-0.309-0.247-0.494-0.37c-0.051 0.065-0.13 0.107-0.219 0.107-0.056 0-0.109-0.017-0.153-0.046-0.186-0.108-0.348-0.231-0.494-0.37-0.188-0.099-0.325-0.277-0.369-0.488-0.001-0.19 0.184-0.313 0.184-0.498 0.062-0.555-0.37-0.926-0.617-1.296-0.185-0.247-0.432-0.432-0.617-0.679v-0.309c-0.152-0.166-0.295-0.347-0.422-0.539-0.204-0.191-0.369-0.395-0.498-0.621 0.008-0.123 0.017-0.252 0.017-0.382s-0.008-0.259-0.025-0.385c-0.184-0.417-0.801-0.232-0.739 0.323 0.086 0.189 0.189 0.351 0.311 0.497 0.059 0.182 0.059 0.367 0.121 0.552 0.104 0.157 0.207 0.339 0.297 0.528 0.080 0.259 0.144 0.551 0.191 0.849 0.067 0.227 0.376 0.413 0.252 0.598-0.211-0.015-0.392-0.134-0.492-0.306-0.177-0.091-0.322-0.217-0.431-0.37-0.003-0.021-0.004-0.042-0.004-0.062 0-0.155 0.023-0.305 0.066-0.446-0.065-0.298-0.805-0.298-0.805-0.668 0-0.185 0.309-0.247 0.309-0.432-0.092-0.238-0.217-0.442-0.372-0.62-0.060-0.183-0.060-0.43-0.121-0.677 0.002-0.040 0.004-0.086 0.004-0.132 0-0.194-0.024-0.383-0.069-0.563-0.112-0.194-0.281-0.362-0.484-0.475-0.197-0.050-0.362-0.136-0.502-0.252-0.060-0.122-0.121-0.43-0.183-0.616-0.015-0.13-0.023-0.28-0.023-0.432s0.008-0.302 0.025-0.45c-0.016-0.121-0.025-0.282-0.025-0.445s0.008-0.324 0.025-0.483z"></path>
</svg>
