<!-- Generated by IcoMoon.io -->
<svg version="1.1" xmlns="http://www.w3.org/2000/svg" width="64" height="64" viewBox="0 0 64 64">
<title>biologie</title>
<path d="M44.587 49.365h-2.091l-4.651-4.949c-0.811-0.853-2.261-1.365-3.883-1.365h-3.029c-1.579 0-3.072 0.512-3.883 1.365l-4.651 4.949h-2.091c-1.067 0-1.963 0.896-1.963 1.963v3.669h28.203v-3.669c0-1.067-0.896-1.963-1.963-1.963z"></path>
<path d="M27.819 30.848l2.475 1.28 1.621-2.816 2.048 1.067 1.109-1.963-6.613-3.413-1.109 1.963 2.091 1.067z"></path>
<path d="M43.392 11.904c0.299-0.512 0.085-1.152-0.469-1.451l-2.731-1.408c-0.555-0.299-1.237-0.085-1.536 0.427l-1.067 1.877 4.693 2.432 1.109-1.877z"></path>
<path d="M27.648 43.904c0.853-0.555 2.005-0.896 3.285-0.896h3.029c1.536 0 2.944 0.469 3.797 1.28 4.821-1.92 8.32-6.869 8.32-12.629 0-4.907-2.517-9.173-6.187-11.52l2.688-4.608-6.613-3.456-6.784 11.648 6.613 3.413 3.499-5.973c2.176 2.133 3.584 5.163 3.584 8.533 0 6.4-4.949 11.605-11.051 11.605-3.157 0-6.016-1.408-8.021-3.669h11.008c0.171 0 0.299-0.171 0.341-0.341v-0.853c0-0.213-0.171-0.341-0.341-0.341h-16.768c-0.213 0-0.341 0.171-0.341 0.341v0.853c0 0.213 0.171 0.341 0.341 0.341h3.541c1.28 2.731 3.456 4.949 6.059 6.272z"></path>
</svg>
