<!-- Generated by IcoMoon.io -->
<svg version="1.1" xmlns="http://www.w3.org/2000/svg" width="40" height="64" viewBox="0 0 40 64">
<title>biologie-lg</title>
<path d="M37.326 56.179h-2.903l-6.458-6.873c-1.126-1.185-3.14-1.896-5.392-1.896h-4.207c-2.192 0-4.266 0.711-5.392 1.896l-6.458 6.873h-2.903c-1.498 0.017-2.709 1.227-2.725 2.724v5.097h39.163v-5.095c-0.017-1.498-1.227-2.709-2.724-2.725z"></path>
<path d="M14.042 30.465l3.436 1.777 2.251-3.91 2.844 1.481 1.54-2.725-9.184-4.74-1.54 2.725 2.903 1.481-2.251 3.91z"></path>
<path d="M35.667 4.159c0.114-0.202 0.181-0.444 0.181-0.702 0-0.577-0.336-1.075-0.824-1.309l-3.801-1.959c-0.219-0.119-0.479-0.189-0.755-0.189-0.582 0-1.092 0.31-1.374 0.774l-1.485 2.614 6.517 3.377z"></path>
<path d="M13.805 48.595c1.255-0.782 2.779-1.246 4.41-1.246 0.053 0 0.107 0.001 0.16 0.002l4.199-0c2.133 0 4.088 0.652 5.273 1.777 6.695-2.666 11.553-9.539 11.553-17.538 0-0.037 0-0.080 0-0.124 0-6.614-3.387-12.437-8.521-15.829l3.662-6.443-9.184-4.799-9.421 16.175 9.183 4.74 4.858-8.295c3.072 3.013 4.977 7.208 4.977 11.847 0 0.001 0 0.002 0 0.003 0 8.887-6.873 16.115-15.345 16.115-4.438-0.020-8.413-1.982-11.124-5.078l15.271-0.017c0.241-0.046 0.428-0.233 0.473-0.47l0.001-1.189c0-0.002 0-0.004 0-0.006 0-0.258-0.21-0.468-0.468-0.468-0.002 0-0.004 0-0.006 0h-23.284c-0.002 0-0.004-0-0.006-0-0.259 0-0.468 0.21-0.468 0.468 0 0.002 0 0.004 0 0.006v1.185c0 0.002-0 0.004-0 0.006 0 0.258 0.21 0.468 0.468 0.468 0.002 0 0.004 0 0.006-0h4.917c1.803 3.779 4.715 6.785 8.31 8.66z"></path>
</svg>
