<!-- Generated by IcoMoon.io -->
<svg version="1.1" xmlns="http://www.w3.org/2000/svg" width="50" height="64" viewBox="0 0 50 64">
<title>duits-lg</title>
<path d="M49.627 30.226v0.296c-0.296 1.183-0.651 2.366-0.946 3.608-0.473-0.118-0.769-0.237-1.124-0.296 0.059-0.059 0.118-0.059 0.177-0.118l-0.71-1.42c-0.072 0.066-0.131 0.145-0.175 0.232-0.357-0.054-0.712-0.054-1.126-0.114-0.037 0.178-0.098 0.337-0.182 0.481 0.241 0.111 0.536 0.229 0.832 0.406 0 0.059-0.059 0.177-0.059 0.237-0.887 0.414-1.715 0.769-2.543 1.183-0.095 0.196-0.263 0.345-0.468 0.412-0.425 0.082-0.932 0.145-1.448 0.177-0.036 0.061 0.023 0.12 0.023 0.179-0.14 0.252-0.277 0.465-0.426 0.668-0.934-0.254-1.171 0.397-1.467 0.929h-0.769c-0.177 0.355-0.296 0.651-0.473 0.946-0.355-0.177-0.592-0.355-0.769-0.414-1.301 0.473-2.721 0.71-2.662 2.425l-0.355-0.177c0.118-0.532-0.473-1.183-0.887-1.006 0.043 0.098 0.083 0.216 0.115 0.338-0.055 0.076-0.115 0.076-0.292 0.195 0.355 0.177 0.592 0.355 0.887 0.532l-0.177 0.177c0.005 0.028 0.008 0.060 0.008 0.093 0 0.096-0.025 0.186-0.069 0.265l0.534 0.53c1.538 0.414 1.775 1.183 0.651 2.543 0.237 0.177 0.473 0.355 0.651 0.473 0.237 0.473 0.414 0.887 0.71 1.479 0.355 0.414 0.828 0.887 1.242 1.42 0.063-0.115 0.142-0.213 0.235-0.295 0.225 0.045 0.423 0.127 0.6 0.24 0.255 0.258 0.489 0.549 0.69 0.862 0.249 0.257 0.486 0.73 0.781 0.73 0.497 0.047 0.897 0.407 1.004 0.88 0.149 0.229 0.304 0.422 0.476 0.6 0.080-0.134 0.159-0.29 0.227-0.451 0.423 0.332 0.778 0.627 1.132 0.923 0.887 0.769 0.946 2.248 0.118 2.898-0.355-0.177-0.769-0.355-1.124-0.532-0.177 0.177-0.296 0.237-0.414 0.355 0.059 0 0.118 0.059 0.177 0.059-0.24 0.658-0.519 1.224-0.85 1.754-0.155 0.198-0.628 0.198-0.983 0.376-0.532 0.237-1.065 0.532-1.479 0.769-0.214 0.184-0.407 0.378-0.586 0.584-0.046 0.085-0.069 0.176-0.069 0.273s0.023 0.189 0.065 0.27c0.189 0.266 0.403 0.499 0.644 0.702 0.893 0.596 0.715 1.306 0.124 2.075h0.887c0.118 0.177 0.237 0.414 0.355 0.592h-0.177c-0.118 0.473-0.177 0.946-0.296 1.42-0.887-0.177-1.479-0.769-1.301-1.242-0.532-1.006-1.183-0.237-1.538-0.059-0.651-0.237-1.065-0.355-1.656-0.532-0.003-0.087-0.025-0.168-0.061-0.24l-0.176 0.003-0.177 1.065c-0.592 0-1.301 0.059-2.011 0.118-0.473 0.414-1.36-0.355-1.479 0.769-0.296 0-0.532 0.059-0.828 0.059l-0.177-0.177c-0.296 0.355-0.591 0.769-1.006 1.242 0.037-0.124 0.058-0.266 0.059-0.413-0.532 0.118-1.006 0.236-1.597 0.413 0.038-0.117 0.059-0.253 0.059-0.393 0-0.007-0-0.015-0-0.022-0.186-0.136-0.398-0.273-0.619-0.397 0.029-0.079 0.071-0.16 0.087-0.25l-1.715-0.358c-0.072 0.066-0.131 0.145-0.175 0.232-0.18-0.054-0.416-0.054-0.594-0.114v-0.355c-0.086 0.024-0.153 0.091-0.177 0.176 0.011 0.259 0.053 0.502 0.123 0.733 0.032 0.111 0.054 0.263 0.054 0.42 0 0.011-0 0.023-0 0.034-0.473 0.471-0.946 0.826-1.42 1.3h-0.237c0.118-0.296 0.237-0.592 0.355-0.946-0.004 0-0.008 0-0.012 0-0.063 0-0.121-0.022-0.166-0.060-0.17 0.092-0.384 0.191-0.604 0.279l-0.047-0.752c-0.159-0.14-0.332-0.276-0.514-0.402l-0.078 0.047c-0.066-0.102-0.125-0.219-0.173-0.342-0.203-0.052-0.432-0.074-0.666-0.074-0.038 0-0.075 0.001-0.113 0.002 0.006-0.020 0.007-0.044 0.007-0.067 0-0.165-0.022-0.326-0.063-0.478-0.234 0.19-0.411 0.309-0.707 0.545q-1.774-1.065-3.904-2.307l1.183 1.183c-0.058 0.043-0.1 0.104-0.118 0.175-0.139-0.062-0.3-0.104-0.469-0.116-0.214-0.065-0.457-0.107-0.708-0.118-0.369 0.011-0.715 0.053-1.050 0.125-0.187-0.144-0.381-0.3-0.552-0.479-0.090-0.173-0.153-0.373-0.178-0.584-0.113 0.062-0.209 0.14-0.296 0.228-0.074-0.136-0.134-0.294-0.175-0.459-0.476 0.4-0.831 0.696-1.245 1.11 0.296 0.177 0.414 0.296 0.532 0.355 0.177-0.059 0.355-0.177 0.532-0.237 0.133 0.022 0.252 0.064 0.361 0.121-0.009 0.111-0.054 0.215-0.125 0.293-0.049 0.003-0.106 0.004-0.164 0.004-0.214 0-0.423-0.023-0.623-0.067 0.078 0.181 0.078 0.24 0.137 0.477-0.473-0.059-0.828-0.177-1.242-0.237v-0.296c-0.357 0.060-0.675 0.185-0.957 0.361-0.403 0.408-0.758 0.171-1.231 0.053-0.060-0.012-0.128-0.019-0.198-0.019-0.142 0-0.277 0.029-0.4 0.081-0.289 0.057-0.585 0.175-0.881 0.234-0.024-0.067-0.045-0.147-0.058-0.229 0.112-0.063 0.209-0.122 0.3-0.189-0.254-0.098-0.468-0.217-0.666-0.358-0.582-0.407-0.108-0.94-0.168-1.472-0.059-0.71 0.473-1.242 0.355-2.070-0.118-0.71 0.532-1.538 0.828-2.307 0.355-1.242 0.591-2.484 2.011-3.608 0.237-0.355 0.651-0.946 1.006-1.538-0.296-0.118-0.532-0.177-0.828-0.296-0.484-0.208-1.045-0.355-1.633-0.412-0.068 0.003-0.121 0.006-0.174 0.006-0.696 0-1.28-0.477-1.444-1.121-0.18-0.010-0.416-0.069-0.535-0.069-0.237 0.237-0.414 0.355-0.473 0.414-0.355-0.059-0.651-0.059-0.946-0.118-0.051-0.046-0.11-0.086-0.173-0.116-0.123 0.057-0.182 0.176-0.3 0.235-0.414-0.828-0.71-1.065-1.065-0.887-0.030 0.178-0.092 0.338-0.181 0.479-0.233-0.017-0.455-0.059-0.665-0.129 0.055-0.082 0.076-0.184 0.077-0.29l-1.065-1.775 0.177-0.177c-0.296-0.118-0.591-0.237-1.006-0.414v-0.769c0.473-0.532 1.065-1.065 0.887-1.834-0.868-0.19-1.565-0.788-1.887-1.58-0.098-0.228-0.151-0.472-0.151-0.73 0-0.349 0.098-0.675 0.267-0.952 0.291-0.347 0.646-0.643 0.942-0.998h0.473c-0.071-0.168-0.132-0.366-0.174-0.571 0.174-0.612-0.122-0.908-0.95-0.789 0.059-0.414 0.177-0.71 0.237-1.065-0.12-0.040-0.218-0.080-0.313-0.126 0.253-0.762-1.284-0.821-0.693-1.767 0.118 0 0.177-0.059 0.296-0.059v-0.473c-0.118-0.059-0.177-0.118-0.296-0.177v-0.355h-0.532c-0.059-0.177-0.177-0.296-0.237-0.473v-0.177c0.592-0.296 1.124-0.532 1.715-0.828-0.059-0.059-0.059-0.118-0.118-0.177-0.118 0.059-0.237 0.059-0.355 0.118-0.177-0.769 0.532-1.065 0.828-1.597 0.014-0.195 0.022-0.422 0.022-0.651s-0.008-0.456-0.024-0.681c-0.207-0.445-0.465-0.854-0.773-1.219-0.053-0.17-0.171-0.466-0.289-0.82-0.177-0.473 0.118-0.591 0.532-0.651 0.591-0.059 1.183-0.355 1.656 0.296v-0.237c0.532-0.118 1.065-0.296 1.597-0.414 0.059 0.059 0.118 0.059 0.177 0.118 0.651-0.296 0.651-0.532-0.059-1.242 0.651-0.473 1.242-1.006 1.834-1.42 0.054-0.204 0.096-0.446 0.117-0.694 0.001-0.371-0.058-0.785-0.058-1.317l-0.414 0.414c-0.414-0.118-0.887-0.296-1.301-0.414 0.059-0.473 0.118-0.887 0.177-1.42 0.532 0 1.124 0.059 1.715 0.059 0-0.001 0-0.001 0-0.002 0-0.066 0.022-0.127 0.060-0.176 0.177-0.591 0.354-1.241 0.473-1.833 0.125-0.363 0.248-0.82 0.342-1.287 0.072-0.31-0.047-0.547 0.013-0.784 0.107-0.565 0.23-1.042 0.379-1.508q-0.734-0.001-1.267-0.089c0.059-0.591 0.177-1.065 0.237-1.538 0.162 0.055 0.299 0.115 0.43 0.185l0.221-0.244c-0.136-0.052-0.253-0.112-0.363-0.182 0.312-0.563 0.9-0.942 1.577-0.942 0.010 0 0.019 0 0.029 0 0.236 0.039 0.509 0.062 0.788 0.062 0.055 0 0.11-0.001 0.165-0.003 0.524-0.059 1.116-0.177 1.648-0.236 0.237 0 0.473 0.059 0.651 0.059 0 0.237 0.059 0.414 0.059 0.532 0.059 0 0.118-0.059 0.177-0.059 0.161 0.279 0.32 0.61 0.455 0.953-0.124 0.227-0.302 0.368-0.505 0.462 0.020 0.094 0.060 0.172 0.111 0.243l0.294-0.002c0.118 0.118 0.237 0.296 0.473 0.591 0.177-0.414 0.355-0.71 0.473-1.065-0.296 0-0.414-0.059-0.651-0.059 0.167-0.304 0.323-0.555 0.492-0.798 0.135 0.143 0.31 0.242 0.497 0.319 0.253 0.124 0.489 0.183 0.726 0.302-0.414-1.36 0.059-2.78 0.828-2.839 0 0.059-0.059 0.118-0.059 0.177l1.597 0.355c0.022-0.198 0.063-0.378 0.123-0.549-0.059 0.040-0.1 0.082-0.123 0.134-0.296-0.413-0.533-0.768-0.888-1.3h0.946c-0.118-0.296-0.237-0.532-0.355-0.769-0.134 0.049-0.294 0.090-0.458 0.116-0.015-0.53 0.044-0.944 0.044-1.477-0.296 0.059-0.591 0.118-1.006 0.177-0.11-0.226-0.228-0.42-0.362-0.602 0.066-0.049 0.126-0.049 0.185-0.108 0.068 0.049 0.146 0.089 0.23 0.117 0.065-0.057 0.124-0.057 0.184-0.117s0.059-0.237 0.059-0.355c0.177-0.059 0.355-0.059 0.532-0.118 0.385-0.091 0.722-0.255 1.012-0.478-0.066-0.311-0.191-0.59-0.365-0.829-0.351-0.467-0.706-0.941-1.061-1.473-0.114-0.154-0.214-0.329-0.29-0.516q-0.095-0.371-0.183-0.903c1.183 0.237 2.189 0.355 3.135 0.532 0.059 0.237 0.059 0.355 0.118 0.532 0.651-0.237 1.242-0.473 1.834-0.71v0.177c0.414 0.355 0.828 0.591 1.242 0.946 0.102-0.203 0.22-0.378 0.358-0.535 0.168 0.409 0.331 0.902 0.456 1.41 0.052 0.182 0.074 0.308 0.074 0.44 0 0.591-0.433 1.080-0.998 1.169 0.289 0.001 0.585-0.117 0.881-0.117 0.133-0.014 0.287-0.022 0.444-0.022s0.311 0.008 0.463 0.024c-0.072 0.266-0.114 0.59-0.136 0.92 0.107-0.162 0.245-0.319 0.409-0.446 0.359-0.239 1.66 0.175 1.956 0.589s0.651 0.296 1.006 0.059 0.769-0.355 1.183-0.591c0.059 0.71 0.059 1.183 0.118 1.774-0.414 0.355-0.887 0.651-1.36 1.006-0.177 0-0.355 0.237-0.296 0.296 0.129 0.167 0.286 0.306 0.466 0.41 0.039-0.027 0.079-0.048 0.125-0.055 0.060 0.059 0.060 0.177 0.119 0.236 0.71-0.355 1.42-1.065 1.834 0 0.414 0.118 0.71 0.177 1.006 0.296 0.013-0.133 0.056-0.253 0.12-0.358l-0.475 0.004c-0.098-0.067-0.164-0.172-0.177-0.294 0.211-0.088 0.467-0.169 0.732-0.231 0.037 0.052 0.096 0.052 0.096 0.111 0.17-0.177 0.326-0.37 0.464-0.576-0.050-0.015-0.050-0.074-0.109-0.074-0.118 0.177-0.296 0.296-0.414 0.473 0.004-0.153 0.047-0.295 0.12-0.418 0.767-0.883 1.891-0.41 2.955-0.883 0.532-0.651 1.183-1.479 1.775-2.189l2.78-0.177c-0.237 0.118-0.414 0.237-0.651 0.355-0.355 0-0.71 0.059-1.065 0.059-0.022-0.001-0.049-0.001-0.075-0.001-0.463 0-0.89 0.156-1.231 0.419-0.164 0.212-0.288 0.471-0.348 0.753 0.081 0.127 0.179 0.224 0.29 0.305-0.043-0.065-0.070-0.149-0.070-0.239 0-0.040 0.005-0.079 0.016-0.116 0.472-0.293 0.886-0.766 1.36-0.766s0.946 0.237 1.124-0.414c0.081-0.049 0.179-0.078 0.284-0.078 0.307 0 0.556 0.249 0.556 0.556 0 0.040-0.004 0.079-0.012 0.117 0.052 0.245 0.156 0.464 0.299 0.651-0.298-0.536-0.358-0.95 0.47-1.187-0.133-0.022-0.252-0.064-0.361-0.121l-0.289-0.293c0.090-0.128 0.209-0.229 0.349-0.293 0.065-0.002 0.183 0.116 0.36 0.175l0.059-0.118c-0.133-0.081-0.288-0.16-0.45-0.228-0.023-0.013-0.023-0.017-0.023-0.022 0-0.082-0.022-0.159-0.060-0.225 0.121-0.053 0.261-0.095 0.407-0.115 0.067-0.237 0.126-0.415 0.185-0.652h-0.059c-0.118 0.237-0.296 0.473-0.414 0.71-0.003-0.029-0.005-0.063-0.005-0.097 0-0.559 0.453-1.011 1.011-1.011 0.105 0 0.206 0.016 0.302 0.046l-0.303 0.294c-0.059 0.414 0.237 0.591 0.828 0.473 0.034-0.003 0.075-0.004 0.115-0.004 0.215 0 0.419 0.045 0.604 0.127-0.128 0.174-0.187 0.351-0.305 0.529-0.104 0.108-0.17 0.253-0.177 0.413 0.124 0.155 0.26 0.291 0.409 0.411 0.157 0.162 0.293 0.336 0.411 0.523-0.044 0.154-0.125 0.273-0.228 0.368-0.060 0.001-0.060-0.059-0.119-0.059 0.072-0.066 0.131-0.145 0.175-0.232-0.057-0.064-0.057-0.123-0.175-0.3-0.532 0.237-1.006 0.532-1.538 0.769 0.059 0.059 0.059 0.118 0.118 0.177 0.090-0.029 0.169-0.069 0.239-0.12 0.050 0.138 0.109 0.255 0.18 0.364-0.3-0.067-0.537-0.067-0.774-0.126 0.118 0.177 0.177 0.296 0.296 0.473 0.116 0.016 0.216 0.037 0.314 0.063 0.16 0.232 0.278 0.469 0.514 0.824-0.018-0.175-0.060-0.335-0.123-0.485 0.359-0.107 0.773-0.225 1.128-0.343 0.059 0.059 0.118 0.059 0.177 0.118l0.177-0.177c0.473 0.296 0.887 0.532 1.301 0.828 0.414 0.315 0.782 0.644 1.12 1.001-0.055 0.182-0.055 0.3-0.114 0.477-0.651 0.118-1.242 0.296-1.834 0.414 0.769 0.651 1.538 0.887 2.129 0.473 0.414 1.36 0.769 2.721 1.183 4.2-0.148 0.188-0.237 0.429-0.237 0.69 0 0.007 0 0.014 0 0.021 0.177 0.768-0.177 1.123-0.769 1.537-0.134 0.104-0.25 0.221-0.352 0.351-0.005 0.051-0.007 0.106-0.007 0.161 0 0.238 0.023 0.47 0.066 0.694 0.469 0.332 1.002 0.687 1.475 1.101 0.205 0.205 0.439 0.381 0.694 0.524 0.362 0.167 0.599 0.51 0.599 0.909 0 0.272-0.11 0.518-0.287 0.696-0.057 0.131-0.090 0.283-0.090 0.444s0.033 0.313 0.093 0.451c0.046 0.197 0.175 0.365 0.348 0.464 0.713 0.12 0.536 0.534 0.477 0.948 0.020 0.175 0.062 0.335 0.123 0.485 0.095 0.139 0.159 0.321 0.173 0.517-0.215 0.821-0.437 1.491-0.695 2.143 0.045 0.345 1.523 0.641 0.695 1.765 0.177 0.059 0.296 0.177 0.473 0.237 0.395 0.117 0.733 0.321 1.006 0.592 0.099 0.277 0.201 0.633 0.283 0.997zM41.996 9.287c0.059 0 0.177 0.059 0.237 0.059 0-0.237 0.059-0.414 0.059-0.651-0.016-0.116-0.037-0.216-0.063-0.314 0.082-0.054 0.185-0.098 0.299-0.1l0.178 0.355c0.171 0.006 0.334 0.027 0.491 0.063-0.314-0.417-0.491-0.654-0.669-0.891-0.059 0.059-0.118 0.059-0.177 0.118 0.026 0.112 0.066 0.211 0.121 0.3-0.118 0.058-0.255 0.118-0.396 0.167-0.139-0.112-0.198-0.23-0.257-0.29-0.033 0-0.059 0.027-0.059 0.059 0.237 0.296 0.414 0.591 0.651 0.887-0.17 0.018-0.317 0.107-0.413 0.235zM39.985 3.963c-0.355-0.059-0.592-0.177-0.887-0.237-0.068 0.049-0.146 0.089-0.23 0.117 0.020-0.001 0.050-0.003 0.081-0.003 0.118 0 0.23 0.023 0.333 0.066-0.007 0.012-0.008 0.029-0.008 0.046 0 0.091 0.023 0.176 0.063 0.251 0.271 0.079 0.506 0.179 0.727 0.302-0.056-0.165-0.078-0.343-0.078-0.527 0-0.005 0-0.011 0-0.016z"></path>
<path d="M14.669 0c0.089 0.059 0.166 0.117 0.24 0.18-0.476 0.471-1.009 0.944-0.003 1.417-0.085 0.069-0.183 0.128-0.287 0.174l-0.482-0.233c-0.059 0.414-0.059 0.71-0.118 1.065-0.024-0.16-0.038-0.344-0.038-0.532 0-0.772 0.235-1.49 0.638-2.084l0.051 0.013z"></path>
<path d="M27.978 5.442c0.001-0.014 0.002-0.031 0.002-0.048 0-0.091-0.023-0.176-0.063-0.251-0.015 0.002-0.035 0.002-0.055 0.002-0.149 0-0.292 0.022-0.427 0.063 0.070-0.298 0.188-0.535 0.247-0.772 0.039-0.004 0.084-0.006 0.129-0.006 0.64 0 1.172 0.457 1.289 1.063-0.28-0.031-0.605-0.053-0.936-0.053-0.066 0-0.131 0.001-0.197 0.003z"></path>
<path d="M14.314 2.958c0.11-0.154 0.227-0.289 0.354-0.413 0.036-0.002 0.077-0.003 0.118-0.003 0.21 0 0.414 0.022 0.611 0.065-0.010 0.051-0.005 0.114-0.005 0.178 0 0.147-0.027 0.288-0.076 0.418-0.293-0.067-0.589-0.126-1.003-0.245z"></path>
<path d="M17.272 4.554c-0.087 0.134-0.185 0.251-0.295 0.354-0.081 0.016-0.173 0.024-0.267 0.024s-0.186-0.008-0.276-0.024c0.019-0.132 0.062-0.253 0.13-0.356 0.176-0.056 0.412-0.115 0.59-0.175 0.059 0.118 0.059 0.177 0.118 0.177z"></path>
<path d="M15.616 4.909c-0.097-0.207-0.196-0.382-0.306-0.548l0.661-0.161 0.118 0.118c-0.198 0.159-0.357 0.356-0.469 0.582z"></path>
<path d="M14.196 2.958c0.118 0.237 0.177 0.473 0.296 0.71-0.059 0-0.118 0.059-0.355 0.118 0-0.355-0.059-0.591-0.059-0.828h0.118z"></path>
<path d="M37.797 4.732c0.059-0.355 0.059-0.71 0.118-1.065 0.090 0.014 0.169 0.035 0.246 0.062-0.128 0.352-0.246 0.648-0.364 1.003v0z"></path>
<path d="M15.142 3.549c0.237-0.059 0.414-0.177 0.828-0.296-0.084 0.089-0.162 0.185-0.231 0.288l-0.537 0.185c-0.037-0.048-0.059-0.109-0.059-0.175 0-0.001 0-0.001 0-0.002z"></path>
<path d="M15.261 4.2c-0.083-0.062-0.183-0.104-0.293-0.118-0.003-0.059 0.056-0.059 0.056-0.119 0.118 0.059 0.177 0.059 0.296 0.118-0.005 0.047-0.026 0.088-0.059 0.118z"></path>
<path d="M14.965 60.392c-0.059 0-0.118-0.059-0.177-0.059s0.059-0.059 0.059-0.118 0.118 0.059 0.177 0.059c-0.036 0.021-0.060 0.059-0.060 0.103 0 0.005 0 0.011 0.001 0.016z"></path>
</svg>
