<!-- Generated by IcoMoon.io -->
<svg version="1.1" xmlns="http://www.w3.org/2000/svg" width="64" height="64" viewBox="0 0 64 64">
<title>duits</title>
<path d="M50.432 30.72c0 0.085 0 0.128 0 0.213-0.213 0.853-0.469 1.707-0.683 2.603-0.341-0.085-0.555-0.171-0.811-0.213 0.043-0.043 0.085-0.043 0.128-0.085-0.171-0.341-0.341-0.683-0.512-1.024-0.043 0.043-0.085 0.085-0.128 0.171-0.256-0.043-0.512-0.043-0.811-0.085 0 0.043-0.043 0.171-0.128 0.341 0.171 0.085 0.384 0.171 0.597 0.299 0 0.043-0.043 0.128-0.043 0.171-0.64 0.299-1.237 0.555-1.835 0.853-0.085 0.128-0.213 0.299-0.341 0.299-0.341 0.085-0.725 0.085-1.067 0.128 0 0.043 0.043 0.085 0.043 0.128-0.085 0.171-0.213 0.341-0.299 0.469-0.683-0.171-0.853 0.299-1.067 0.683-0.213 0-0.427 0-0.555 0-0.128 0.256-0.213 0.469-0.341 0.683-0.256-0.128-0.427-0.256-0.555-0.299-0.939 0.341-1.963 0.512-1.92 1.749-0.085-0.043-0.171-0.085-0.256-0.128 0.085-0.384-0.341-0.853-0.64-0.725 0.043 0.085 0.043 0.128 0.085 0.256-0.043 0.043-0.085 0.043-0.213 0.128 0.256 0.128 0.427 0.256 0.64 0.384-0.043 0.043-0.085 0.085-0.128 0.128 0 0.128 0 0.213-0.043 0.256 0.128 0.128 0.256 0.256 0.384 0.384 1.109 0.299 1.28 0.853 0.469 1.835 0.171 0.128 0.341 0.256 0.469 0.341 0.171 0.341 0.299 0.64 0.512 1.067 0.256 0.299 0.597 0.64 0.896 1.024 0.043-0.085 0.085-0.128 0.171-0.213 0.128 0.043 0.341 0.085 0.427 0.171 0.213 0.171 0.341 0.427 0.512 0.64 0.171 0.171 0.341 0.512 0.555 0.512 0.427 0.043 0.597 0.299 0.725 0.64 0.085 0.171 0.213 0.256 0.341 0.427 0.085-0.128 0.085-0.171 0.171-0.341 0.299 0.256 0.555 0.469 0.811 0.683 0.64 0.555 0.683 1.621 0.085 2.091-0.256-0.128-0.555-0.256-0.811-0.384-0.128 0.128-0.213 0.171-0.299 0.256 0.043 0 0.085 0.043 0.128 0.043-0.171 0.427-0.341 0.853-0.597 1.237-0.128 0.171-0.469 0.171-0.725 0.299-0.384 0.171-0.768 0.384-1.067 0.555-0.171 0.171-0.341 0.299-0.427 0.427-0.043 0.085-0.085 0.299 0 0.384 0.128 0.213 0.299 0.341 0.469 0.512 0.64 0.427 0.512 0.939 0.085 1.493 0.256 0 0.384 0 0.64 0 0.085 0.128 0.171 0.299 0.256 0.427-0.043 0-0.085 0-0.128 0-0.085 0.341-0.128 0.683-0.213 1.024-0.64-0.128-1.067-0.555-0.939-0.896-0.384-0.725-0.853-0.171-1.109-0.043-0.469-0.171-0.768-0.256-1.195-0.384 0 0 0-0.085-0.043-0.171-0.043 0-0.085 0-0.128 0-0.043 0.256-0.085 0.512-0.128 0.768-0.427 0-0.939 0.043-1.451 0.085-0.341 0.299-0.981-0.256-1.067 0.555-0.213 0-0.384 0.043-0.597 0.043-0.043-0.043-0.085-0.085-0.128-0.128-0.213 0.256-0.427 0.555-0.725 0.896 0.043-0.171 0.043-0.256 0.043-0.299-0.384 0.085-0.725 0.171-1.152 0.299 0.043-0.171 0.043-0.213 0.043-0.299-0.128-0.085-0.299-0.213-0.469-0.299 0.043-0.043 0.085-0.128 0.085-0.171-0.427-0.085-0.811-0.171-1.237-0.256-0.043 0.043-0.085 0.085-0.128 0.171-0.128-0.043-0.299-0.043-0.427-0.085 0-0.085 0-0.171 0-0.256-0.085 0.043-0.128 0.085-0.128 0.128 0 0.171 0.043 0.341 0.085 0.512 0 0.128 0.085 0.299 0.043 0.341-0.341 0.341-0.683 0.597-1.024 0.939-0.043 0-0.128 0-0.171 0 0.085-0.213 0.171-0.427 0.256-0.683-0.085 0-0.128-0.043-0.128-0.043-0.171 0.085-0.256 0.128-0.469 0.213 0-0.213 0-0.341 0-0.555-0.085-0.085-0.213-0.171-0.384-0.299 0 0-0.043 0.043-0.043 0.043-0.043-0.085-0.128-0.213-0.128-0.256-0.213-0.043-0.384-0.043-0.555-0.043 0-0.128 0-0.213-0.043-0.384-0.171 0.128-0.299 0.213-0.512 0.384-0.853-0.512-1.792-1.067-2.816-1.664 0.341 0.341 0.597 0.597 0.853 0.853-0.043 0.043-0.085 0.085-0.085 0.128-0.128-0.043-0.213-0.085-0.341-0.085-0.171-0.043-0.341-0.085-0.512-0.085-0.256 0-0.469 0.043-0.725 0.085-0.213-0.171-0.341-0.213-0.427-0.341s-0.085-0.256-0.128-0.427c-0.128 0.085-0.171 0.128-0.213 0.171-0.043-0.085-0.085-0.171-0.128-0.341-0.341 0.299-0.597 0.512-0.896 0.811 0.213 0.128 0.299 0.213 0.384 0.256 0.128-0.043 0.256-0.128 0.384-0.171 0.085 0 0.256 0.085 0.256 0.085 0 0.128-0.085 0.213-0.085 0.213-0.256 0-0.384 0-0.555-0.043 0.043 0.128 0.043 0.171 0.085 0.341-0.341-0.043-0.597-0.128-0.896-0.171 0-0.085 0-0.171 0-0.213-0.213 0.085-0.512 0.085-0.683 0.256-0.299 0.299-0.555 0.128-0.896 0.043-0.128-0.043-0.299 0-0.427 0.043-0.213 0.043-0.427 0.128-0.64 0.171 0-0.043-0.043-0.085-0.043-0.171 0.043-0.043 0.128-0.043 0.213-0.128-0.213-0.085-0.341-0.171-0.469-0.256-0.427-0.299-0.085-0.683-0.128-1.067-0.043-0.512 0.341-0.896 0.256-1.493-0.085-0.512 0.384-1.109 0.597-1.664 0.256-0.896 0.427-1.792 1.451-2.603 0.171-0.256 0.469-0.683 0.725-1.109-0.213-0.085-0.384-0.128-0.597-0.213-0.384-0.128-0.811-0.299-1.195-0.299-0.555 0-1.024-0.256-1.152-0.811-0.128 0-0.299-0.043-0.384-0.043-0.171 0.171-0.299 0.256-0.341 0.299-0.256-0.043-0.469-0.043-0.683-0.085 0 0-0.043-0.043-0.128-0.085-0.085 0.043-0.128 0.128-0.213 0.171-0.299-0.597-0.512-0.768-0.768-0.64-0.043 0.128-0.085 0.341-0.128 0.341-0.171 0-0.299-0.043-0.469-0.085 0.043-0.128 0.043-0.171 0.043-0.213-0.256-0.427-0.512-0.853-0.768-1.28 0.043-0.043 0.085-0.085 0.128-0.128-0.213-0.085-0.427-0.171-0.725-0.299 0-0.128 0-0.341 0-0.555 0.341-0.384 0.768-0.768 0.64-1.323-0.683-0.213-1.152-0.555-1.365-1.152-0.171-0.427-0.128-0.768 0.085-1.195 0.213-0.256 0.469-0.469 0.683-0.725 0.128 0 0.256 0 0.341 0-0.043-0.171-0.128-0.299-0.128-0.427 0.128-0.427-0.085-0.64-0.683-0.555 0.043-0.299 0.128-0.512 0.171-0.768-0.043 0-0.085-0.043-0.213-0.085 0.171-0.555-0.939-0.597-0.512-1.28 0.085 0 0.128-0.043 0.213-0.043 0-0.128 0-0.213 0-0.341-0.085-0.043-0.128-0.085-0.213-0.128 0-0.085 0-0.171 0-0.256-0.128 0-0.256 0-0.384 0-0.043-0.128-0.128-0.213-0.171-0.341 0-0.043 0-0.085 0-0.128 0.427-0.213 0.811-0.384 1.237-0.597-0.043-0.043-0.043-0.085-0.085-0.128-0.085 0.043-0.171 0.043-0.256 0.085-0.128-0.555 0.384-0.768 0.597-1.152 0-0.299 0.043-0.64 0-0.939-0.085-0.299-0.299-0.512-0.555-0.896-0.043-0.128-0.128-0.341-0.213-0.597-0.128-0.341 0.085-0.427 0.384-0.469 0.427-0.043 0.853-0.256 1.195 0.213 0-0.128 0-0.213 0-0.171 0.384-0.085 0.768-0.213 1.152-0.299 0.043 0.043 0.085 0.043 0.128 0.085 0.469-0.213 0.469-0.384-0.043-0.896 0.469-0.341 0.896-0.725 1.323-1.024 0.043-0.213 0.085-0.384 0.085-0.512 0-0.256-0.043-0.555-0.043-0.939-0.171 0.171-0.213 0.213-0.299 0.299-0.299-0.085-0.64-0.213-0.939-0.299 0.043-0.341 0.085-0.64 0.128-1.024 0.384 0 0.811 0.043 1.237 0.043 0 0 0-0.085 0.043-0.128 0.128-0.427 0.256-0.896 0.341-1.323 0.085-0.341 0.213-0.64 0.256-0.981 0.043-0.171-0.043-0.341 0-0.512 0.043-0.341 0.171-0.683 0.256-1.024-0.341-0.043-0.64-0.085-0.896-0.128 0.043-0.427 0.128-0.768 0.171-1.109 0.128 0.043 0.213 0.085 0.299 0.128 0.043-0.043 0.085-0.085 0.171-0.171-0.085-0.043-0.213-0.085-0.256-0.128 0.256-0.427 0.683-0.725 1.152-0.683 0.213 0 0.469 0.085 0.683 0.043 0.384-0.043 0.811-0.128 1.195-0.171 0.171 0 0.341 0.043 0.469 0.043 0 0.171 0.043 0.299 0.043 0.384 0.043 0 0.085-0.043 0.128-0.043 0.128 0.256 0.256 0.469 0.341 0.725 0 0.085-0.213 0.171-0.384 0.299 0 0.043 0.043 0.085 0.085 0.171 0.085 0 0.128 0 0.213 0 0.085 0.085 0.171 0.213 0.341 0.427 0.128-0.299 0.256-0.512 0.341-0.768-0.213 0-0.299-0.043-0.469-0.043 0.128-0.213 0.213-0.384 0.341-0.555 0.128 0.085 0.256 0.171 0.384 0.213 0.171 0.085 0.341 0.128 0.512 0.213-0.299-0.981 0.043-2.005 0.597-2.048 0 0.043-0.043 0.085-0.043 0.128 0.384 0.085 0.768 0.171 1.152 0.256 0.043-0.213 0.043-0.299 0.085-0.384-0.043 0.043-0.085 0.043-0.085 0.085-0.213-0.299-0.384-0.555-0.64-0.939 0.256 0 0.427 0 0.683 0-0.085-0.213-0.171-0.384-0.256-0.555-0.085 0.043-0.171 0.043-0.341 0.085 0-0.384 0.043-0.683 0.043-1.067-0.213 0.043-0.427 0.085-0.725 0.128-0.043-0.085-0.128-0.256-0.256-0.427 0.043-0.043 0.085-0.043 0.128-0.085 0.043 0.043 0.085 0.043 0.171 0.085 0.043-0.043 0.085-0.043 0.128-0.085 0-0.085 0.043-0.171 0.043-0.256 0.128-0.043 0.256-0.043 0.384-0.085 0.256-0.085 0.555-0.171 0.725-0.341 0.043-0.043-0.128-0.384-0.256-0.597-0.256-0.341-0.512-0.683-0.768-1.067-0.085-0.128-0.171-0.256-0.213-0.384-0.043-0.171-0.085-0.384-0.128-0.64 0.853 0.171 1.579 0.256 2.261 0.384 0.043 0.171 0.043 0.256 0.085 0.384 0.469-0.171 0.896-0.341 1.323-0.512 0 0.085 0 0.128 0 0.128 0.299 0.256 0.597 0.427 0.896 0.683 0.043-0.085 0.085-0.171 0.256-0.384 0.128 0.427 0.299 0.725 0.341 1.067 0.085 0.512-0.043 0.939-0.683 1.109 0.213 0 0.427-0.085 0.64-0.085 0.213-0.043 0.427 0 0.64 0-0.043 0.299-0.085 0.512-0.085 0.683 0.085-0.128 0.171-0.256 0.299-0.341 0.256-0.171 1.195 0.128 1.408 0.427 0.256 0.341 0.469 0.213 0.725 0.043s0.555-0.256 0.853-0.427c0.043 0.512 0.043 0.853 0.085 1.28-0.299 0.256-0.64 0.469-0.981 0.725-0.128 0-0.256 0.171-0.213 0.213 0.085 0.128 0.213 0.213 0.341 0.299 0 0 0.043-0.043 0.085-0.043 0.043 0.043 0.043 0.128 0.085 0.171 0.512-0.256 1.024-0.768 1.323 0 0.299 0.085 0.512 0.128 0.725 0.213 0-0.085 0.043-0.171 0.085-0.256-0.128 0-0.213 0-0.341 0-0.043 0-0.085-0.085-0.128-0.213 0.213-0.085 0.384-0.128 0.555-0.171 0 0.043 0.043 0.043 0.043 0.085 0.128-0.128 0.256-0.299 0.341-0.427-0.043 0-0.043-0.043-0.085-0.043-0.085 0.128-0.213 0.213-0.299 0.341 0-0.128 0.043-0.213 0.085-0.299 0.555-0.64 1.365-0.299 2.133-0.64 0.384-0.469 0.853-1.067 1.28-1.579 0.683-0.043 1.323-0.085 2.005-0.128v0c-0.171 0.085-0.299 0.171-0.469 0.256-0.256 0-0.512 0.043-0.768 0.043-0.341 0-0.683 0.085-0.939 0.299-0.128 0.085-0.171 0.341-0.256 0.555 0 0.043 0.128 0.128 0.213 0.213-0.043-0.128-0.085-0.213-0.043-0.256 0.341-0.213 0.64-0.555 0.981-0.555s0.683 0.171 0.811-0.299c0.384-0.128 0.597 0.043 0.597 0.427 0 0.171 0.128 0.299 0.213 0.469-0.213-0.384-0.256-0.683 0.341-0.853-0.128-0.043-0.213-0.043-0.256-0.085-0.085-0.085-0.128-0.128-0.213-0.213 0.085-0.085 0.128-0.171 0.256-0.213 0.043 0 0.128 0.085 0.256 0.128 0 0 0.043-0.085 0.043-0.085-0.085-0.043-0.213-0.128-0.341-0.171 0-0.043 0-0.085-0.043-0.171 0.128-0.043 0.213-0.085 0.299-0.085 0.043-0.171 0.085-0.299 0.128-0.469 0 0-0.043 0-0.043 0-0.085 0.171-0.213 0.341-0.299 0.512 0-0.555 0.469-0.939 0.939-0.768-0.085 0.085-0.128 0.128-0.213 0.213-0.043 0.299 0.171 0.427 0.597 0.341 0.171-0.043 0.341 0.043 0.512 0.085-0.085 0.128-0.128 0.256-0.213 0.384-0.043 0.085-0.171 0.213-0.128 0.299 0.043 0.128 0.213 0.171 0.299 0.299 0.128 0.128 0.213 0.256 0.299 0.384 0.043 0.043-0.128 0.171-0.171 0.256-0.043 0-0.043-0.043-0.085-0.043 0.043-0.043 0.085-0.085 0.128-0.171-0.043-0.043-0.043-0.085-0.128-0.213-0.384 0.171-0.725 0.384-1.109 0.555 0.043 0.043 0.043 0.085 0.085 0.128 0.043 0 0.085-0.043 0.171-0.085 0.043 0.085 0.043 0.128 0.128 0.256-0.213-0.043-0.384-0.043-0.555-0.085 0.085 0.128 0.128 0.213 0.213 0.341 0.085 0 0.171 0.043 0.213 0.043 0.128 0.171 0.213 0.341 0.384 0.597-0.043-0.213-0.043-0.256-0.085-0.341 0.256-0.085 0.555-0.171 0.811-0.256 0.043 0.043 0.085 0.043 0.128 0.085 0.085-0.085 0.128-0.128 0.128-0.128 0.341 0.213 0.64 0.384 0.939 0.597s0.555 0.469 0.811 0.725c-0.043 0.128-0.043 0.213-0.085 0.341-0.469 0.085-0.896 0.213-1.323 0.299 0.555 0.469 1.109 0.64 1.536 0.341 0.299 0.981 0.555 1.963 0.853 3.029-0.043 0.085-0.213 0.299-0.171 0.512 0.128 0.555-0.128 0.811-0.555 1.109-0.085 0.085-0.213 0.171-0.256 0.256 0 0.213 0 0.427 0.043 0.597 0.341 0.256 0.725 0.512 1.067 0.811 0.171 0.128 0.299 0.299 0.512 0.384 0.469 0.256 0.555 0.768 0.213 1.152-0.128 0.128-0.043 0.427 0 0.64 0.043 0.128 0.128 0.299 0.256 0.341 0.512 0.085 0.384 0.384 0.341 0.683 0 0.085 0.043 0.213 0.085 0.341s0.171 0.299 0.128 0.384c-0.085 0.427-0.256 0.811-0.469 1.451 0 0.341 1.067 0.555 0.469 1.365 0.128 0.043 0.213 0.128 0.341 0.171 0.256 0.128 0.597 0.213 0.725 0.427 0.043 0.085 0.128 0.427 0.213 0.768zM44.928 15.616c0.043 0 0.128 0.043 0.171 0.043 0-0.171 0.043-0.299 0.043-0.469 0-0.085-0.043-0.171-0.043-0.213 0.043-0.043 0.128-0.085 0.213-0.085 0.043 0.085 0.085 0.171 0.128 0.256 0.043 0 0.085 0 0.341 0.043-0.213-0.299-0.341-0.469-0.469-0.64-0.043 0.043-0.085 0.043-0.128 0.085 0 0.043 0.043 0.128 0.085 0.213-0.085 0.043-0.171 0.085-0.299 0.128-0.085-0.085-0.128-0.171-0.171-0.213 0 0-0.043 0-0.043 0.043 0.171 0.213 0.299 0.427 0.469 0.64-0.128 0-0.213 0.085-0.299 0.171zM43.477 11.776c-0.256-0.043-0.427-0.128-0.64-0.171-0.043 0.043-0.085 0.043-0.171 0.085 0.128 0 0.213 0 0.299 0.043 0 0.085 0 0.128 0.043 0.213 0.171 0.043 0.341 0.128 0.512 0.213-0.043-0.213-0.043-0.299-0.043-0.384z"></path>
<path d="M25.216 8.917c0.043 0.043 0.085 0.043 0.171 0.128-0.341 0.341-0.725 0.683 0 1.024-0.043 0.043-0.128 0.085-0.213 0.128-0.085-0.043-0.171-0.085-0.341-0.171-0.043 0.299-0.043 0.512-0.085 0.768-0.128-0.683 0.085-1.28 0.427-1.877 0 0 0.043 0 0.043 0z"></path>
<path d="M34.816 12.843c0-0.085 0-0.128-0.043-0.213-0.085 0-0.213 0-0.341 0.043 0.043-0.213 0.128-0.384 0.171-0.555 0.597-0.043 0.853 0.299 1.024 0.768-0.299-0.043-0.512-0.043-0.811-0.043z"></path>
<path d="M24.96 11.051c0.128-0.128 0.171-0.256 0.256-0.299 0.171 0 0.341 0 0.512 0.043 0.043 0 0 0.213-0.043 0.427-0.213-0.043-0.427-0.085-0.725-0.171z"></path>
<path d="M27.093 12.203c-0.085 0.085-0.128 0.213-0.213 0.256s-0.213 0-0.384 0c0.043-0.128 0.043-0.256 0.085-0.256 0.128-0.043 0.299-0.085 0.427-0.128 0.043 0.085 0.043 0.128 0.085 0.128z"></path>
<path d="M25.899 12.459c-0.085-0.171-0.128-0.256-0.213-0.384 0.171-0.043 0.299-0.085 0.469-0.128 0.043 0.043 0.043 0.043 0.085 0.085-0.128 0.085-0.213 0.213-0.341 0.427z"></path>
<path d="M24.875 11.051c0.085 0.171 0.128 0.341 0.213 0.512-0.043 0-0.085 0.043-0.256 0.085 0-0.256-0.043-0.427-0.043-0.597 0 0 0.043 0 0.085 0z"></path>
<path d="M41.899 12.331c0.043-0.256 0.043-0.512 0.085-0.768 0.085 0 0.128 0.043 0.171 0.043-0.085 0.256-0.171 0.469-0.256 0.725v0z"></path>
<path d="M25.557 11.477c0.171-0.043 0.299-0.128 0.597-0.213-0.128 0.128-0.128 0.171-0.171 0.213-0.128 0.043-0.256 0.085-0.384 0.128-0.043-0.085-0.043-0.085-0.043-0.128z"></path>
<path d="M25.643 11.947c-0.085-0.043-0.128-0.085-0.213-0.085 0-0.043 0.043-0.043 0.043-0.085 0.085 0.043 0.128 0.043 0.213 0.085 0 0 0 0.043-0.043 0.085z"></path>
<path d="M25.429 52.48c-0.043 0-0.085-0.043-0.128-0.043 0-0.043 0.043-0.043 0.043-0.085 0.043 0 0.085 0.043 0.128 0.043-0.043 0.043-0.043 0.043-0.043 0.085z"></path>
</svg>
