<!-- Generated by IcoMoon.io -->
<svg version="1.1" xmlns="http://www.w3.org/2000/svg" width="64" height="64" viewBox="0 0 64 64">
<title>engels</title>
<path d="M53.675 28.629c-0.043-0.299-0.085-0.597-0.128-0.981-5.845 0-11.605 0-17.493 0-0.043-2.987 0-5.845 0-8.747s0-5.803 0-8.747c-0.683-0.128-1.28-0.256-1.877-0.384-1.109 0-2.176 0-3.243 0-0.299 0.085-0.555 0.128-0.939 0.299-0.299 0.043-0.597 0.085-0.981 0.128 0 5.803 0 11.563 0 17.451-5.845 0-11.648 0-17.451 0-0.128 0.725-0.256 1.323-0.384 1.92 0 1.109 0 2.176 0 3.243 0.128 0.597 0.256 1.152 0.384 1.835 5.76 0 11.563 0 17.451 0 0 5.888 0 11.691 0 17.493 0.725 0.128 1.323 0.256 1.92 0.384 1.109 0 2.176 0 3.243 0 0.299-0.085 0.597-0.171 0.896-0.213s0.597-0.085 0.981-0.128c0-5.888 0-11.648 0-17.536 5.888 0 11.648 0 17.451 0 0.128-0.683 0.256-1.28 0.384-1.877 0-1.109 0-2.176 0-3.243-0.085-0.299-0.171-0.597-0.213-0.896z"></path>
<path d="M26.624 10.667c-3.115 0.896-5.803 2.389-8.192 4.523 2.773 2.048 5.419 4.011 8.192 6.059 0-3.584 0-7.040 0-10.581z"></path>
<path d="M14.293 20.949c1.749 1.28 3.499 2.603 5.291 3.925 0.171 0.128 0.384 0.256 0.597 0.256 1.365 0 2.773 0 4.181 0 0.043-0.043 0.043-0.085 0.128-0.128-2.987-2.176-5.973-4.352-9.003-6.613-0.555 0.811-0.981 1.536-1.451 2.261 0.128 0.171 0.171 0.256 0.256 0.299z"></path>
<path d="M17.067 24.96c-1.237-0.896-2.475-1.835-3.84-2.859-0.384 1.024-0.725 2.005-1.109 3.029 1.707 0 3.285 0 4.864 0 0.043-0.043 0.043-0.128 0.085-0.171z"></path>
<path d="M38.528 51.541c3.115-0.896 5.76-2.389 8.192-4.523-2.731-2.048-5.419-4.011-8.192-6.101 0 3.627 0 7.083 0 10.624z"></path>
<path d="M44.629 36.992c-1.195 0-2.389 0-3.584 0-0.043 0.043-0.085 0.085-0.085 0.128 2.944 2.176 5.845 4.352 8.832 6.613 0.512-0.811 0.939-1.536 1.451-2.304-1.963-1.451-3.84-2.859-5.717-4.224-0.256-0.171-0.597-0.213-0.896-0.213z"></path>
<path d="M51.883 40.064c0.427-1.067 0.939-1.963 1.024-3.029-1.707 0-3.328 0-5.12 0 1.451 1.067 2.731 2.005 4.096 3.029z"></path>
<path d="M38.485 10.667c0 3.584 0 6.997 0 10.581 2.816-2.048 5.504-4.053 8.192-6.101-2.432-2.091-5.077-3.669-8.192-4.48z"></path>
<path d="M38.528 25.045c1.067 0.213 1.92 0.043 2.731-0.597 2.389-1.835 4.864-3.627 7.296-5.419 0.341-0.256 0.64-0.469 1.024-0.768-0.597-0.683-1.152-1.323-1.749-2.048-3.157 2.347-6.229 4.608-9.301 6.869 0 0.683 0 1.323 0 1.963z"></path>
<path d="M53.035 25.131c-0.384-1.067-0.725-1.963-1.109-3.029-1.365 0.981-2.645 1.963-4.053 3.029 1.835 0 3.456 0 5.163 0z"></path>
<path d="M26.581 51.541c0-3.584 0-6.997 0-10.624-2.773 2.048-5.419 4.053-8.192 6.101 2.475 2.091 5.077 3.669 8.192 4.523z"></path>
<path d="M23.637 37.632c-2.219 1.749-4.523 3.413-6.784 5.12-0.469 0.341-0.896 0.683-1.408 1.067 0.64 0.725 1.195 1.408 1.835 2.133 3.157-2.347 6.272-4.651 9.301-6.912 0-0.683 0-1.323 0-1.963-1.067-0.213-2.048-0.171-2.944 0.555z"></path>
<path d="M12.075 37.035c0.384 1.024 0.725 1.963 1.152 3.029 1.365-1.024 2.688-1.963 4.096-3.029-1.835 0-3.456 0-5.248 0z"></path>
</svg>
