<!-- Generated by IcoMoon.io -->
<svg version="1.1" xmlns="http://www.w3.org/2000/svg" width="64" height="64" viewBox="0 0 64 64">
<title>engels-lg</title>
<path d="M63.617 28.232c-0.064-0.447-0.128-0.894-0.192-1.469h-26.188c-0.064-4.471 0-8.75 0-13.094v-13.094c-1.022-0.192-1.916-0.383-2.81-0.575h-4.854c-0.543 0.125-1.012 0.278-1.462 0.469-0.39 0.042-0.837 0.106-1.412 0.17v26.124h-26.124c-0.192 1.086-0.383 1.98-0.575 2.874v4.854c0.192 0.894 0.383 1.725 0.575 2.746h26.124v26.188c1.086 0.192 1.98 0.383 2.874 0.575h4.854c0.366-0.12 0.818-0.231 1.28-0.311 0.508-0.073 0.955-0.136 1.53-0.2v-26.252h26.124c0.192-1.022 0.383-1.916 0.575-2.81v-4.854c-0.12-0.366-0.231-0.818-0.311-1.28z"></path>
<path d="M23.122 1.341c-4.761 1.373-8.873 3.707-12.29 6.794l12.29 9.046v-15.84z"></path>
<path d="M4.663 16.735c2.619 1.916 5.237 3.896 7.92 5.876 0.241 0.21 0.549 0.349 0.887 0.383l6.266 0.001c0.047-0.079 0.112-0.144 0.189-0.19-4.469-3.259-8.94-6.516-13.475-9.902-0.83 1.214-1.469 2.299-2.172 3.385 0.099 0.177 0.227 0.326 0.38 0.445z"></path>
<path d="M8.814 22.738c-1.852-1.341-3.705-2.747-5.748-4.279-0.575 1.533-1.086 3.002-1.661 4.535h7.281c0.064-0.064 0.064-0.192 0.128-0.256z"></path>
<path d="M40.942 62.531c4.758-1.388 8.866-3.719 12.292-6.796-4.117-3.040-8.141-5.978-12.292-9.108v15.904z"></path>
<path d="M50.076 40.751h-5.365c-0.062 0.046-0.108 0.113-0.127 0.189 4.407 3.26 8.75 6.517 13.221 9.903 0.766-1.214 1.405-2.299 2.172-3.449-2.938-2.172-5.748-4.279-8.559-6.323-0.349-0.203-0.769-0.323-1.216-0.323-0.044 0-0.088 0.001-0.132 0.003z"></path>
<path d="M60.934 45.349c0.639-1.597 1.405-2.938 1.533-4.535h-7.665c2.172 1.597 4.088 3.002 6.132 4.535z"></path>
<path d="M40.878 1.341v15.84c4.216-3.066 8.239-6.068 12.264-9.134-3.386-3.055-7.501-5.371-12.049-6.655z"></path>
<path d="M40.942 22.866c0.348 0.094 0.748 0.147 1.16 0.147 1.114 0 2.137-0.393 2.936-1.048 3.569-2.74 7.273-5.423 10.914-8.105 0.511-0.383 0.958-0.703 1.533-1.15-0.894-1.022-1.725-1.98-2.619-3.066-4.727 3.513-9.325 6.898-13.924 10.283v2.938z"></path>
<path d="M62.659 22.994c-0.575-1.597-1.086-2.938-1.661-4.535-2.044 1.469-3.96 2.938-6.068 4.535h7.729z"></path>
<path d="M23.058 62.531v-15.904c-4.152 3.066-8.112 6.068-12.264 9.134 3.705 3.13 7.601 5.493 12.264 6.77z"></path>
<path d="M18.651 41.709c-3.321 2.619-6.77 5.11-10.156 7.665-0.703 0.511-1.341 1.022-2.108 1.597 0.958 1.086 1.788 2.108 2.747 3.194 4.727-3.513 9.389-6.962 13.924-10.347v-2.938c-1.597-0.319-3.066-0.255-4.407 0.83z"></path>
<path d="M1.341 40.814c0.575 1.533 1.086 2.938 1.725 4.535 2.044-1.533 4.024-2.938 6.132-4.535h-7.856z"></path>
</svg>
