<!-- Generated by IcoMoon.io -->
<svg version="1.1" xmlns="http://www.w3.org/2000/svg" width="64" height="64" viewBox="0 0 64 64">
<title>frans</title>
<path d="M42.795 48.427v-3.499h-22.059v3.499l-4.821 6.997h9.557c0 0 0.043-5.931 6.315-6.187 6.272 0.256 6.315 6.187 6.315 6.187h9.557l-4.864-6.997z"></path>
<path d="M28.928 42.752c0 0 1.536-4.181 2.005-6.016h1.664c0.469 1.835 2.005 6.016 2.005 6.016h5.589c0 0-4.736-4.565-6.272-23.723 0 0 1.92 0.171 1.92-1.664s0-3.413 0-3.413h-3.157v-5.461h-1.877v5.461h-3.157c0 0 0 1.621 0 3.413s1.92 1.664 1.92 1.664c-1.493 19.115-6.272 23.723-6.272 23.723h5.632z"></path>
</svg>
