<!-- Generated by IcoMoon.io -->
<svg version="1.1" xmlns="http://www.w3.org/2000/svg" width="43" height="64" viewBox="0 0 43 64">
<title>frans-lg</title>
<path d="M36.655 54.458v-4.771h-30.080v4.771l-6.575 9.542h13.033s0.058-8.087 8.611-8.436c8.553 0.349 8.611 8.436 8.611 8.436h13.033z"></path>
<path d="M17.745 46.72s2.095-5.702 2.735-8.204h2.269c0.64 2.502 2.735 8.204 2.735 8.204h7.622s-6.458-6.225-8.553-32.349c0 0 2.618 0.233 2.618-2.269v-4.655h-4.305v-7.447h-2.56v7.447h-4.305v4.655c0 2.444 2.618 2.269 2.618 2.269-2.036 26.065-8.553 32.349-8.553 32.349h7.68z"></path>
</svg>
