<!-- Generated by IcoMoon.io -->
<svg version="1.1" xmlns="http://www.w3.org/2000/svg" width="64" height="64" viewBox="0 0 64 64">
<title>fysica</title>
<path d="M47.659 31.872c1.067-0.939 2.005-1.877 2.816-2.773 0.128-0.128 0.256-0.256 0.341-0.384 0.299 0.128 0.597 0.171 0.939 0.171 1.451 0 2.603-1.109 2.603-2.475 0-0.683-0.299-1.323-0.811-1.792 0.811-1.835 0.853-3.456 0.128-4.651-0.939-1.536-2.944-2.304-5.845-2.304-2.261 0-4.992 0.469-8.021 1.323-1.664-6.869-4.565-10.965-7.808-10.965s-6.144 4.096-7.808 10.965c-3.029-0.896-5.717-1.323-7.979-1.323-2.944 0-4.949 0.811-5.845 2.304-1.024 1.621-0.597 3.883 1.195 6.571-0.341 0.384-0.512 0.853-0.512 1.323 0 1.152 0.981 2.091 2.176 2.091 0.341 0 0.64-0.085 0.939-0.213 0.683 0.683 1.408 1.408 2.219 2.133-1.067 0.939-2.005 1.877-2.816 2.773-3.371 3.712-4.523 6.955-3.243 9.131 0.939 1.536 2.944 2.304 5.845 2.304 2.261 0 4.949-0.469 7.979-1.323 1.664 6.869 4.565 10.923 7.808 10.923 1.451 0 2.859-0.811 4.096-2.389 0.341 0.128 0.64 0.171 1.024 0.171 1.579 0 2.901-1.237 2.901-2.773 0-0.939-0.512-1.792-1.323-2.304 0.427-1.109 0.768-2.347 1.109-3.627 3.072 0.896 5.76 1.365 8.021 1.365 2.901 0 4.907-0.811 5.845-2.304 1.323-2.133 0.171-5.376-3.243-9.131-0.768-0.939-1.707-1.877-2.731-2.816zM41.131 28.672c1.536 1.024 2.987 2.091 4.309 3.2-1.323 1.109-2.773 2.176-4.309 3.2 0.043-1.067 0.085-2.133 0.085-3.2s-0.043-2.133-0.085-3.2zM46.549 30.933c-1.664-1.365-3.499-2.731-5.504-4.053-0.213-2.261-0.512-4.48-0.939-6.528 2.944-0.853 5.632-1.323 7.723-1.323 1.664 0 3.797 0.299 4.608 1.621 0.469 0.811 0.427 1.963-0.171 3.371-1.621-0.299-3.072 0.896-3.072 2.432 0 0.512 0.171 1.024 0.469 1.451-0.085 0.128-0.213 0.213-0.299 0.341-0.811 0.811-1.749 1.749-2.816 2.688zM41.003 36.864c2.005-1.323 3.883-2.645 5.547-4.053 1.067 0.939 2.005 1.835 2.773 2.731 2.944 3.243 4.053 5.973 3.072 7.552v0c-0.811 1.323-2.944 1.621-4.608 1.621-2.091 0-4.779-0.469-7.723-1.323 0.469-2.048 0.768-4.267 0.939-6.528zM34.219 50.688c0 0.683 0.256 1.323 0.725 1.792-0.939 1.195-1.92 1.792-2.944 1.792-2.475 0-4.907-3.797-6.4-9.984 2.048-0.683 4.224-1.536 6.4-2.517 2.176 0.981 4.309 1.835 6.357 2.517-0.299 1.323-0.683 2.517-1.067 3.627-0.085 0-0.128 0-0.213 0-1.536 0-2.859 1.237-2.859 2.773zM25.6 19.413c1.451-6.187 3.883-10.027 6.4-10.027s4.949 3.84 6.443 10.027c-2.091 0.683-4.224 1.536-6.443 2.517-2.176-0.981-4.352-1.835-6.4-2.517zM39.765 31.829c0 1.408-0.043 2.859-0.171 4.267-1.237 0.768-2.475 1.536-3.755 2.219-1.237 0.683-2.56 1.365-3.84 1.963-1.323-0.597-2.603-1.28-3.883-1.963s-2.517-1.451-3.755-2.219c-0.085-1.408-0.171-2.816-0.171-4.267 0-1.365 0.043-2.773 0.128-4.181 1.237-0.768 2.475-1.536 3.755-2.219 1.237-0.683 2.517-1.323 3.84-1.963 1.323 0.64 2.645 1.28 3.883 2.005 1.28 0.683 2.56 1.451 3.755 2.219 0.171 1.365 0.213 2.773 0.213 4.139zM36.608 24.277c-0.939-0.512-1.963-1.024-2.987-1.536 1.749-0.768 3.413-1.408 5.077-1.963 0.341 1.621 0.597 3.371 0.768 5.12-0.896-0.555-1.877-1.109-2.859-1.621zM30.336 22.741c-1.024 0.512-2.005 1.024-2.901 1.536-0.981 0.555-1.963 1.109-2.901 1.664 0.171-1.792 0.427-3.499 0.768-5.163 1.621 0.555 3.328 1.195 5.035 1.963zM27.435 39.467c0.939 0.512 1.92 1.024 2.944 1.536-1.707 0.768-3.413 1.408-5.077 1.963-0.341-1.621-0.597-3.371-0.768-5.12 0.939 0.555 1.92 1.109 2.901 1.621zM33.664 41.003c1.024-0.512 2.005-1.024 2.944-1.536s1.92-1.067 2.859-1.664c-0.171 1.749-0.427 3.456-0.768 5.077-1.621-0.469-3.328-1.109-5.035-1.877zM16.213 19.029c2.091 0 4.736 0.469 7.68 1.323-0.427 2.048-0.725 4.267-0.896 6.571-2.005 1.28-3.84 2.645-5.504 4.011-0.811-0.725-1.579-1.451-2.304-2.176 0.128-0.299 0.213-0.597 0.213-0.896 0-1.152-0.981-2.091-2.176-2.091-0.128 0-0.299 0-0.427 0.043-1.451-2.176-1.877-4.011-1.152-5.205 0.768-1.28 2.901-1.579 4.565-1.579zM22.869 35.072c-1.536-1.024-2.987-2.133-4.309-3.243 1.323-1.109 2.773-2.176 4.309-3.2-0.043 1.067-0.085 2.133-0.085 3.157 0 1.152 0.043 2.219 0.085 3.285zM17.451 32.768c1.664 1.365 3.499 2.731 5.504 4.053 0.171 2.304 0.469 4.523 0.939 6.571-2.944 0.853-5.632 1.323-7.723 1.323-1.664 0-3.797-0.299-4.608-1.621-0.939-1.579 0.213-4.395 3.072-7.552 0.811-0.896 1.792-1.835 2.816-2.773z"></path>
<path d="M32 27.648c-2.432 0-4.395 1.877-4.395 4.224s1.963 4.224 4.395 4.224c2.432 0 4.395-1.877 4.395-4.224s-1.963-4.224-4.395-4.224z"></path>
</svg>
