<!-- Generated by IcoMoon.io -->
<svg version="1.1" xmlns="http://www.w3.org/2000/svg" width="60" height="64" viewBox="0 0 60 64">
<title>fysica-lg</title>
<path d="M50.816 32.029c1.349-1.189 2.583-2.405 3.747-3.686 0.201-0.194 0.351-0.363 0.486-0.544 0.353 0.136 0.755 0.221 1.177 0.221 0.032 0 0.064-0 0.096-0.001 0.023 0.001 0.055 0.001 0.088 0.001 1.852 0 3.358-1.479 3.402-3.32-0.008-0.96-0.425-1.816-1.085-2.408 1.086-2.466 1.143-4.644 0.169-6.248-1.261-2.063-3.953-3.094-7.85-3.094-3.885 0.122-7.574 0.762-11.063 1.855-1.943-9.303-5.839-14.804-10.194-14.804s-8.251 5.5-10.485 14.725c-3.186-1.042-6.859-1.685-10.669-1.775-3.999-0.001-6.692 1.088-7.895 3.093-1.375 2.177-0.802 5.214 1.604 8.824-0.424 0.468-0.685 1.091-0.688 1.776 0.032 1.558 1.302 2.809 2.864 2.809 0.020 0 0.041-0 0.061-0.001 0.456-0.007 0.888-0.112 1.277-0.294 0.898 0.925 1.872 1.899 2.96 2.873-1.349 1.189-2.583 2.405-3.747 3.686-4.561 5.023-6.108 9.378-4.389 12.3 1.26 2.063 3.953 3.094 7.85 3.094 3.864-0.122 7.534-0.763 11.003-1.855 1.946 9.303 5.842 14.746 10.196 14.746 1.948 0 3.839-1.089 5.5-3.209 0.379 0.146 0.818 0.23 1.277 0.23 0.035 0 0.069-0.001 0.104-0.001 0.016 0.001 0.040 0.001 0.065 0.001 2.078 0 3.769-1.656 3.826-3.72-0.020-1.313-0.719-2.453-1.76-3.090 0.464-1.257 0.974-2.881 1.4-4.54 3.271 0.713 6.96 1.374 10.785 1.493 3.957 0.002 6.65-1.087 7.91-3.093 1.776-2.865 0.229-7.219-4.355-12.261-1.156-1.368-2.354-2.603-3.633-3.751zM42.050 27.731c2.2 1.461 4.087 2.874 5.891 4.382-1.805 1.338-3.691 2.751-5.652 4.062-0.182-1.282-0.125-2.714-0.125-4.146s-0.057-2.865-0.115-4.297zM49.326 30.768c-2.16-1.785-4.569-3.575-7.068-5.241-0.622-3.559-1.068-6.554-1.673-9.49 3.164-0.48 6.713-1.119 10.391-1.253 2.304-0.002 5.169 0.399 6.258 2.175 0.63 1.089 0.573 2.636-0.229 4.526-0.231-0.057-0.497-0.090-0.77-0.090-1.851 0-3.352 1.501-3.352 3.352 0 0.733 0.235 1.41 0.634 1.962-0.121 0.162-0.293 0.277-0.408 0.449-1.089 1.089-2.349 2.349-3.782 3.61zM41.878 38.732c2.832-1.833 5.261-3.624 7.577-5.547 1.213 1.258 2.43 2.456 3.561 3.732 3.988 4.394 5.477 8.061 4.159 10.181v0c-1.089 1.776-3.953 2.177-6.188 2.177-3.748-0.136-7.296-0.775-10.648-1.853 0.863-2.439 1.31-5.437 1.528-8.499zM32.768 57.296c-0 0.010-0 0.022-0 0.034 0 0.925 0.372 1.763 0.974 2.372q-1.891 2.406-3.954 2.406c-3.323 0-6.589-5.099-8.594-13.407 3.553-1.194 6.395-2.338 9.162-3.616 1.62 1.278 4.443 2.422 7.332 3.423 0.176 2.162-0.316 3.79-0.895 5.375l-0.187-0.313c-0.007-0-0.016-0-0.024-0-2.075 0-3.764 1.657-3.815 3.72zM21.194 15.298c1.948-8.308 5.214-13.465 8.594-13.465s6.646 5.157 8.652 13.465c-3.579 1.195-6.441 2.339-9.228 3.617-1.624-1.279-4.466-2.423-7.374-3.425zM40.216 31.971c0 1.891-0.057 3.839-0.229 5.73-1.662 1.031-3.323 2.063-5.042 2.979s-3.438 1.834-5.157 2.636c-1.776-0.802-3.495-1.719-5.214-2.636s-3.381-1.948-5.042-2.979c-0.115-1.891-0.229-3.782-0.229-5.73 0-1.834 0.057-3.724 0.172-5.615 1.662-1.031 3.323-2.063 5.042-2.979s3.381-1.776 5.157-2.636c1.776 0.859 3.552 1.719 5.214 2.693s3.438 1.948 5.042 2.979c0.184 1.53 0.289 3.302 0.289 5.099 0 0.161-0.001 0.323-0.003 0.484zM35.976 21.83c-1.261-0.688-2.636-1.375-4.011-2.063 2.349-1.031 4.584-1.891 6.818-2.636 0.414 1.883 0.778 4.229 1.011 6.613-1.182-0.482-2.5-1.227-3.818-1.915zM27.554 19.767c-1.375 0.688-2.693 1.375-3.896 2.063-1.318 0.745-2.636 1.49-3.896 2.235 0.254-2.67 0.618-5.036 1.106-7.356 2.103 1.168 4.395 2.028 6.686 3.059zM23.658 42.227q1.891 1.031 3.953 2.063c-1.744 0.815-4 1.707-6.309 2.486-0.923-1.733-1.287-4.079-1.52-6.464 1.24 0.482 2.558 1.227 3.875 1.915zM32.023 44.29q2.063-1.031 3.953-2.063c1.261-0.688 2.578-1.432 3.839-2.235-0.254 2.624-0.618 4.95-1.105 7.23-2.603-1.207-4.845-2.064-7.007-3.066zM8.589 14.782c2.807 0 6.36 0.63 10.313 1.776-0.54 2.505-0.967 5.525-1.19 8.602-2.824 2.034-5.234 3.807-7.532 5.711q-1.505-1.535-2.966-3.025c0.168-0.352 0.272-0.764 0.286-1.198-0.032-1.563-1.302-2.813-2.864-2.813-0.020 0-0.041 0-0.061 0.001-0.025-0.002-0.058-0.002-0.092-0.002-0.17 0-0.335 0.022-0.492 0.063-1.935-2.925-2.507-5.389-1.533-6.993 1.031-1.719 3.896-2.12 6.131-2.12zM17.527 36.326c-2.194-1.478-4.081-2.909-5.884-4.435 1.798-1.342 3.684-2.755 5.645-4.066 0.182 1.282 0.125 2.714 0.125 4.089 0 1.547 0.057 2.979 0.115 4.412zM10.25 33.232c2.16 1.785 4.569 3.575 7.068 5.241 0.546 3.471 0.994 6.489 1.659 9.424-3.15 0.603-6.699 1.242-10.377 1.376-2.304 0.002-5.169-0.399-6.258-2.175-1.26-2.12 0.287-5.901 4.125-10.141 1.089-1.203 2.406-2.464 3.782-3.724z"></path>
<path d="M29.788 26.356c-3.038 0.123-5.455 2.616-5.455 5.674 0 3.136 2.542 5.678 5.678 5.678s5.678-2.542 5.678-5.678c0-0 0-0.001 0-0.001-0.057-3.146-2.621-5.674-5.775-5.674-0.045 0-0.089 0-0.134 0.002z"></path>
</svg>
