<!-- Generated by IcoMoon.io -->
<svg version="1.1" xmlns="http://www.w3.org/2000/svg" width="59" height="64" viewBox="0 0 59 64">
<title>geschiedenis-lg</title>
<path d="M18.164 40.746c-2.451 2.451-5.531 2.891-8.925 2.703-0.015 0.113-0.024 0.244-0.024 0.377s0.009 0.264 0.026 0.392c0.154 0.786 0.243 1.708 0.243 2.65 0 0.812-0.066 1.609-0.194 2.385-0.24 1.738-0.428 3.561-0.68 5.32s-0.691 3.394-1.006 5.091c-0.314 1.446-0.566 2.828-0.88 4.337q0.66-0.094 1.131-0.189c3.235-1.007 6.046-2.309 8.641-3.925 2.483-1.543 5.060-3.177 7.7-4.811 0.196-0.094 0.427-0.149 0.67-0.149 0.096 0 0.191 0.009 0.282 0.025 2.064 0.438 4.139 0.941 6.213 1.444l6.976 1.697c0.44 0.126 0.88 0.189 1.383 0.314-0.029-0.324-0.096-0.623-0.196-0.905-1.186-2.363-1.123-4.814-0.683-7.265 0.477-2.002 0.973-3.639 1.552-5.238 0.711-2.304 1.402-5.007 0.837-7.772-0.769-3.925-2.954-7.24-5.99-9.46-2.176-1.677-4.782-2.818-7.624-3.225-0.882-0.129-1.8-0.197-2.733-0.197-1.879 0-3.694 0.275-5.406 0.787-3.054 0.899-5.797 2.504-8.047 4.626-1.531 1.45-2.75 3.234-3.538 5.234-1.282 3.2-2.505 5.743-3.867 8.198-0.943 1.642-2.515 3.465-3.834 5.35-0.115 0.157-0.186 0.353-0.189 0.565 2.263-0.439 4.462-0.816 6.536-1.194 0.126-1.571 0.063-2.954 0.44-4.274 0.943-3.457 3.897-5.908 8.108-4.902 1.258 0.325 2.316 1.037 3.070 1.999z"></path>
<path d="M4.274 4.23c1.76 3.708 3.52 7.353 5.217 11.062 0.943-0.314 1.697-0.691 2.577-0.943 1.32-0.44 2.703-0.817 4.022-1.131 2.163-0.5 4.647-0.787 7.198-0.787 0.519 0 1.035 0.012 1.549 0.035 4.146 0.144 8.101 1.125 11.681 2.778 2.042 0.894 3.965 2.030 5.726 3.367 2.222 1.748 4.161 3.867 5.714 6.259 1.474 2.209 2.473 4.716 2.877 7.417 0.264 1.734 0.012 3.431-0.051 5.128-0.032 0.603-0.099 1.165-0.201 1.714-0.302 2.371-0.679 4.822-0.93 7.336-0.036 0.41-0.056 0.886-0.056 1.367 0 2.105 0.389 4.12 1.1 5.975 0.967 2.777 2.601 5.228 5.555 6.673 0.623 0.413 1.388 0.658 2.211 0.658 0.173 0 0.344-0.011 0.511-0.032-0.353-0.412-0.703-0.782-1.080-1.122-1.705-1.264-2.397-3.024-2.962-4.91-0.296-0.984-0.467-2.115-0.467-3.286 0-0.794 0.078-1.57 0.228-2.32 0.346-2.021 0.87-3.879 1.564-5.652 1.001-2.695 2.258-5.523 2.383-8.603 0.063-2.074 0.314-4.085 0.189-6.159-0.070-2.643-0.618-5.138-1.559-7.43-0.641-1.431-1.332-3.066-2.149-4.574-1.383-2.64-3.582-4.651-5.845-6.662-2.67-2.382-5.709-4.437-9.003-6.054-1.783-0.852-3.697-1.619-5.665-2.267-2.871-1.042-5.783-1.671-8.816-1.856-1.469-0.124-3.079-0.193-4.706-0.193-0.939 0-1.873 0.023-2.801 0.068-2.959 0.172-5.853 0.756-8.58 1.697-1.766 0.648-3.383 1.348-4.952 2.131-0.036-0.091-0.304 0.073-0.476 0.312z"></path>
<path d="M26.963 14.349c-3.771-0.817-7.165-0.251-10.622 0.88 1.383 0.251 2.577 0.44 3.708 0.754 1.396 0.329 2.594 1.037 3.517 2.008 1.116 1.101 1.915 2.514 2.256 4.097 0.89 0.305 1.141 0.179 1.141-0.701 0.063-2.263 0.063-4.588 0-7.039z"></path>
<path d="M48.834 40.62c0.817-1.634 0.629-7.793-0.189-8.61l-6.096 0.754c0.094 0.387 0.182 0.878 0.245 1.377 4.155 0.383 5.223 3.337 6.041 6.479z"></path>
<path d="M32.493 15.166c-1.32-0.251-2.514-0.503-3.96-0.754-0.063 2.703-0.126 5.279-0.189 7.919 0.628 0.126 1.257 0.251 2.011 0.377 0.897-2.158 1.638-4.69 2.104-7.318z"></path>
<path d="M33.813 15.543c-0.88 2.64-1.697 5.028-2.451 7.542 0.628 0.251 1.257 0.566 1.948 0.88 1.571-2.074 2.64-4.399 3.834-6.913-1.131-0.566-2.137-1.006-3.331-1.508z"></path>
<path d="M41.23 19.691c-0.62-0.936-1.603-1.588-2.744-1.757-1.404 2.134-2.787 4.271-4.17 6.471 0.566 0.44 1.068 1.006 1.948 0.88 1.634-1.886 3.268-3.708 4.965-5.594z"></path>
<path d="M44.435 23.085c-0.534-1.106-1.379-1.992-2.421-2.562-1.727 1.808-3.424 3.567-5.246 5.453 0.377 0.44 0.817 0.88 1.194 1.257 2.2-1.383 4.337-2.765 6.474-4.148z"></path>
<path d="M39.344 27.861c0.377 0.628 0.691 1.068 1.068 1.697 2.263-1.006 4.399-1.948 6.599-2.891-0.188-1.138-0.837-2.096-1.745-2.693-1.963 1.248-3.912 2.568-5.923 3.887z"></path>
<path d="M40.978 30.187c0.314 0.691 0.503 1.194 0.691 1.634 2.451-0.377 4.714-0.754 6.913-1.131 0.002-0.040 0.003-0.087 0.003-0.134 0-1.016-0.436-1.93-1.131-2.566-2.077 0.689-4.151 1.38-6.476 2.197z"></path>
</svg>
