<!-- Generated by IcoMoon.io -->
<svg version="1.1" xmlns="http://www.w3.org/2000/svg" width="78" height="64" viewBox="0 0 78 64">
<title>godsdienst-lg</title>
<path d="M72.606 19.323c-0.343-2.467-0.343-6.784 1.85-8.223 0.069 0 0.069-0.069 0.137-0.069 1.782-0.617 3.084-1.439 2.056-2.604l-26.587-8.428-43.101 6.304s-4.934 0.754-4.522 8.771c0.206 4.385 1.576 6.51 2.672 7.606l-3.563 1.096c-0.959 1.165 0.274 1.987 2.056 2.604 0.024 0.042 0.068 0.070 0.119 0.070 0.006 0 0.012-0 0.018-0.001 2.192 1.439 2.192 5.756 1.849 8.223-7.949 2.33-5.071 3.152-5.071 3.152l1.713 0.411c-1.233 1.165-2.467 3.358-2.193 7.538 0.411 8.017 4.522 8.634 4.522 8.634l28.163 9.593 42.552-10.827s2.809-0.754-5.071-3.152c-0.343-2.467-0.343-6.784 1.85-8.223 0.069 0 0.069-0.069 0.137-0.069 1.782-0.617 3.084-1.439 2.056-2.604l-1.85-0.617c1.233-0.754 3.084-2.809 3.358-8.154 0.206-3.632-0.685-5.756-1.782-7.058l3.632-0.959c0.069 0.137 2.946-0.685-5.002-3.015zM37.043 19.186l7.126-1.576 24.188-5.208 3.632-0.754c-1.165 2.193-1.096 5.208-0.891 7.195 0.069 0.411 0.069 0.822 0.137 1.165l-3.974 1.028-30.561 7.949zM6.277 27.066l3.632 0.754 23.229 5.002 2.056 0.411 6.099 1.302 0.274 9.799-34.467-8.976c0.069-0.274 0.069-0.685 0.137-1.165 0.137-1.919 0.206-4.934-0.959-7.126zM4.906 14.664c-0.069-2.124 0.343-3.7 1.028-4.454 0.348-0.363 0.83-0.596 1.367-0.617l0.346-0 18.57 6.373 9.319 3.152-0.274 9.867-27.409-8.086h-0.206c-0.069 0-2.604-0.274-2.741-6.236zM32.863 59.752l-27.34-8.017h-0.137c-0.137 0-2.672-0.274-2.809-6.236-0.068-2.124 0.343-3.7 1.028-4.454 0.348-0.363 0.83-0.596 1.367-0.617l0.346-0 27.82 9.525zM68.701 49.61c0.069 0.411 0.069 0.822 0.137 1.165l-34.467 8.976 0.274-9.799 7.332-1.576 1.096 0.274 4.043-1.37 18.775-4.043 3.632-0.754c-1.096 2.124-1.028 5.139-0.822 7.126zM70.551 36.248h-0.206l-2.604 0.754-24.668 7.332-0.274-9.867 8.086-2.809 19.666-6.715c0.123-0.029 0.264-0.045 0.409-0.045 0.541 0 1.028 0.228 1.372 0.592 0.755 0.755 1.097 2.331 1.029 4.455-0.137 6.098-2.672 6.304-2.809 6.304z"></path>
</svg>
