<!-- Generated by IcoMoon.io -->
<svg version="1.1" xmlns="http://www.w3.org/2000/svg" width="64" height="64" viewBox="0 0 64 64">
<title>godsdienst</title>
<path d="M52.949 24.405c-0.213-1.536-0.213-4.224 1.152-5.12 0.043 0 0.043-0.043 0.085-0.043 1.109-0.384 1.92-0.896 1.28-1.621l-16.555-5.248-26.837 3.925c0 0-3.072 0.469-2.816 5.461 0.128 2.731 0.981 4.053 1.664 4.736l-2.219 0.683c-0.597 0.725 0.171 1.237 1.28 1.621 0.043 0.043 0.043 0.043 0.085 0.043 1.365 0.896 1.365 3.584 1.152 5.12-4.949 1.451-3.157 1.963-3.157 1.963l1.067 0.256c-0.768 0.725-1.536 2.091-1.365 4.693 0.256 4.992 2.816 5.376 2.816 5.376l17.536 5.973 26.496-6.741c0 0 1.749-0.469-3.157-1.963-0.213-1.536-0.213-4.224 1.152-5.12 0.043 0 0.043-0.043 0.085-0.043 1.109-0.384 1.92-0.896 1.28-1.621l-1.152-0.384c0.768-0.469 1.92-1.749 2.091-5.077 0.128-2.261-0.427-3.584-1.109-4.395l2.261-0.597c0.043 0.085 1.835-0.427-3.115-1.877zM30.805 24.32l4.437-0.981 15.061-3.243 2.261-0.469c-0.725 1.365-0.683 3.243-0.555 4.48 0.043 0.256 0.043 0.512 0.085 0.725l-2.475 0.64-19.029 4.949 0.213-6.101zM11.648 29.227l2.261 0.469 14.464 3.115 1.28 0.256 3.797 0.811 0.171 6.101-21.461-5.589c0.043-0.171 0.043-0.427 0.085-0.725 0.085-1.195 0.128-3.072-0.597-4.437zM10.795 21.504c-0.043-1.323 0.213-2.304 0.64-2.773 0.299-0.299 0.64-0.384 0.853-0.384 0.128 0 0.213 0 0.213 0l11.563 3.968 5.803 1.963-0.171 6.144-17.067-5.035c-0.043 0-0.085 0-0.128 0s-1.621-0.171-1.707-3.883zM28.203 49.579l-17.024-4.992c-0.043 0-0.085 0-0.085 0-0.085 0-1.664-0.171-1.749-3.883-0.043-1.323 0.213-2.304 0.64-2.773 0.299-0.299 0.64-0.384 0.853-0.384 0.128 0 0.213 0 0.213 0v0l17.323 5.931-0.171 6.101zM50.517 43.264c0.043 0.256 0.043 0.512 0.085 0.725l-21.461 5.589 0.171-6.101 4.565-0.981 0.683 0.171 2.517-0.853 11.691-2.517 2.261-0.469c-0.683 1.323-0.64 3.2-0.512 4.437zM51.669 34.944c-0.043 0-0.085 0-0.128 0l-1.621 0.469-15.36 4.565-0.171-6.144 5.035-1.749 12.245-4.181c0 0 0.64-0.171 1.109 0.341 0.469 0.469 0.683 1.451 0.64 2.773-0.085 3.797-1.664 3.925-1.749 3.925z"></path>
</svg>
