<!-- Generated by IcoMoon.io -->
<svg version="1.1" xmlns="http://www.w3.org/2000/svg" width="35" height="64" viewBox="0 0 35 64">
<title>informatica-lg</title>
<path d="M18.485 10.812v-3.837s-0.174-2.79 1.221-4.185c0.517-0.51 1.228-0.825 2.012-0.825 0.090 0 0.179 0.004 0.266 0.012l-0.011-1.977c-0.043-0.001-0.093-0.002-0.144-0.002-1.41 0-2.691 0.554-3.637 1.457-1.974 2.033-1.742 5.52-1.742 5.637v3.778c-9.126 0.407-16.451 7.034-16.451 15.114v22.903c0 8.312 7.789 15.114 17.322 15.114v0c9.533 0 17.322-6.801 17.322-15.114v-23.019c0-7.964-7.15-14.532-16.16-15.055zM20.81 29.878c-0.016 1.759-1.438 3.181-3.196 3.197h-0.176c-1.759-0.016-3.181-1.438-3.197-3.196v-8.547c0.016-1.759 1.438-3.181 3.196-3.197h0.176c1.759 0.016 3.181 1.438 3.197 3.196v8.547z"></path>
</svg>
