<!-- Generated by IcoMoon.io -->
<svg version="1.1" xmlns="http://www.w3.org/2000/svg" width="64" height="64" viewBox="0 0 64 64">
<title>informatica</title>
<path d="M32.555 16.384v-2.816c0 0-0.128-2.048 0.896-3.072 0.384-0.427 0.939-0.597 1.664-0.597v-1.451c-1.152 0-2.048 0.384-2.773 1.067-1.451 1.493-1.28 4.053-1.28 4.139v2.773c-6.699 0.299-12.075 5.163-12.075 11.093v16.811c0 6.101 5.717 11.093 12.715 11.093v0c6.997 0 12.715-4.992 12.715-11.093v-16.896c0-5.845-5.248-10.667-11.861-11.051zM34.261 30.379c0 1.28-1.067 2.347-2.347 2.347h-0.128c-1.28 0-2.347-1.067-2.347-2.347v-6.272c0-1.28 1.067-2.347 2.347-2.347h0.128c1.28 0 2.347 1.067 2.347 2.347v6.272z"></path>
</svg>
