<!-- Generated by IcoMoon.io -->
<svg version="1.1" xmlns="http://www.w3.org/2000/svg" width="65" height="64" viewBox="0 0 65 64">
<title>integraleopdrachten-lg</title>
<path d="M19.241 41.662c-0.299-2.511-0.239-5.321-0.538-7.833 0.777-1.375 1.315-3.528 2.093-4.783 0.897-0.658 1.614-0.718 2.093 0.299 0.177 0.721 0.278 1.548 0.278 2.4 0 1.352-0.256 2.644-0.721 3.83-0.952 2.298-2.035 4.323-3.289 6.224l0.085-0.137zM33.889 59.719c2.392-2.392-0.239-5.202-4.126-3.348-3.707 3.169-7.115 2.99-10.404 0.419-1.196-0.897-1.973-3.109-1.913-5.8 0.072-1.787 0.113-3.884 0.113-5.991 0-5.28-0.258-10.5-0.763-15.648-0.905-2.158-2.519-2.995-4.552-2.636 1.256 9.327 0.957 16.921-1.076 22.78-1.076 2.511-3.647 2.87-5.8 2.93 4.365 6.099 9.566 9.925 15.486 11.36 5.321 0.897 9.567-1.136 13.034-4.066v0zM19.3 52.425c-0.228-1.557-0.359-3.354-0.359-5.181 0-1.292 0.065-2.568 0.192-3.826 1.266-2.209 2.862-4.224 4.75-5.922 1.575-1.333 2.771-0.018 2.831 3.211-3.707 3.587-4.544 8.909-7.414 11.719z"></path>
<path d="M23.426 18.643c2.631-0.239 5.561-0.239 8.251-0.478 1.435 0.718 3.707 1.256 5.022 1.973 0.658 0.777 0.777 1.495-0.299 2.033-0.767 0.166-1.649 0.261-2.553 0.261-1.396 0-2.739-0.227-3.993-0.646-2.418-0.911-4.566-1.977-6.584-3.234l0.156 0.091zM4.472 32.574c2.571 2.272 5.441-0.179 3.468-3.886-3.229-3.587-3.049-6.876-0.419-9.925 0.957-1.136 3.289-1.913 6.099-1.854 1.876 0.072 4.078 0.113 6.29 0.113 5.553 0 11.046-0.258 16.467-0.763 2.236-0.904 3.132-2.339 2.714-4.313-9.806 1.196-17.758 0.897-23.916-1.016-2.631-1.016-2.99-3.468-3.049-5.441-6.398 4.185-10.404 9.148-11.898 14.768-0.957 5.022 1.196 9.088 4.245 12.317v0zM12.066 18.643c1.663-0.214 3.587-0.336 5.539-0.336 1.334 0 2.654 0.057 3.958 0.169 2.3 1.19 4.414 2.712 6.227 4.532 1.376 1.495 0.001 2.631-3.407 2.691-3.827-3.408-9.327-4.245-12.317-7.055z"></path>
<path d="M46.924 22.649c0.12 2.511-0.12 5.321 0 7.892-0.897 1.315-1.555 3.408-2.392 4.664-0.897 0.598-1.614 0.658-2.093-0.419-0.085-0.519-0.134-1.117-0.134-1.727 0-1.602 0.335-3.125 0.939-4.503 1.035-2.208 2.273-4.173 3.721-5.961l-0.042 0.054zM33.531 3.695c-2.631 2.272-0.12 5.202 3.827 3.587 3.886-2.93 7.354-2.511 10.404 0.179 1.076 1.016 1.794 3.229 1.555 5.919-0.558 4.714-0.876 10.176-0.876 15.711 0 1.855 0.036 3.702 0.107 5.54 0.709 2.546 2.264 3.502 4.357 3.263-0.598-9.387 0.239-16.921 2.631-22.661 1.196-2.392 3.827-2.631 5.979-2.571-3.886-6.338-8.849-10.463-14.649-12.317-5.321-1.136-9.746 0.658-13.333 3.348v0zM47.581 11.827c0.053 0.804 0.084 1.742 0.084 2.688 0 2.174-0.161 4.309-0.471 6.397-1.386 2.018-3.093 3.934-5.069 5.53-1.658 1.23-2.794-0.145-2.615-3.374 3.767-3.348 4.963-8.55 8.072-11.241z"></path>
<path d="M41.124 45.309c-2.631 0.12-5.62-0.060-8.251 0-1.375-0.897-3.587-1.495-4.903-2.272-0.598-0.897-0.658-1.555 0.419-1.973 0.547-0.087 1.177-0.136 1.819-0.136 1.673 0 3.267 0.336 4.719 0.943 2.318 0.958 4.385 2.122 6.286 3.499l-0.089-0.061zM60.975 32.574c-2.392-2.511-5.441-0.12-3.767 3.647 3.049 3.707 2.631 6.995-0.239 9.925-1.016 1.076-3.408 1.674-6.218 1.495-4.912-0.519-10.611-0.815-16.38-0.815-1.998 0-3.988 0.036-5.969 0.106-2.703 0.709-3.659 2.144-3.42 4.177 9.866-0.538 17.818 0.239 23.797 2.511 2.571 1.136 2.75 3.647 2.691 5.62 6.637-3.707 11.002-8.431 12.915-13.991 1.315-5.022-0.538-9.268-3.408-12.676v0zM52.484 45.967c-0.847 0.053-1.837 0.084-2.834 0.084-2.29 0-4.543-0.161-6.747-0.472-2.095-1.328-4.105-2.957-5.827-4.853-1.274-1.575 0.161-2.592 3.509-2.412 3.587 3.587 9.028 4.664 11.898 7.653z"></path>
</svg>
