<!-- Generated by IcoMoon.io -->
<svg version="1.1" xmlns="http://www.w3.org/2000/svg" width="64" height="64" viewBox="0 0 64 64">
<title>integraleopdrachten</title>
<path d="M23.040 38.955c-0.213-1.792-0.171-3.797-0.384-5.589 0.555-0.981 0.939-2.517 1.493-3.413 0.64-0.469 1.152-0.512 1.493 0.213 0.256 1.408 0.341 2.816-0.299 4.395-0.64 1.707-1.579 3.2-2.304 4.395v0zM33.493 51.84c1.707-1.707-0.171-3.712-2.944-2.389-2.645 2.261-5.077 2.133-7.424 0.299-0.853-0.64-1.408-2.219-1.365-4.139 0.171-5.461 0.043-10.283-0.427-14.976-0.683-2.005-1.835-2.603-3.285-2.347 0.896 6.656 0.683 12.075-0.768 16.256-0.768 1.792-2.603 2.048-4.139 2.091 3.115 4.352 6.827 7.083 11.051 8.107 3.797 0.64 6.827-0.811 9.301-2.901v0zM23.083 46.635c-0.213-1.707-0.384-3.584-0.128-6.315 1.109-2.005 2.261-3.328 3.413-4.352 1.109-0.939 1.963 0 2.005 2.304-2.645 2.56-3.243 6.357-5.291 8.363z"></path>
<path d="M26.027 22.528c1.877-0.171 3.968-0.171 5.888-0.341 1.024 0.512 2.645 0.896 3.584 1.408 0.469 0.555 0.555 1.067-0.213 1.451-1.451 0.256-3.029 0.299-4.608-0.256-1.835-0.64-3.413-1.536-4.651-2.261v0zM12.501 32.469c1.835 1.621 3.883-0.128 2.475-2.773-2.304-2.56-2.176-4.907-0.299-7.083 0.683-0.811 2.347-1.365 4.352-1.323 5.717 0.171 10.795 0.043 15.744-0.427 2.091-0.683 2.731-1.707 2.432-3.115-6.997 0.853-12.672 0.64-17.067-0.725-1.877-0.725-2.133-2.475-2.176-3.883-4.565 2.987-7.424 6.528-8.491 10.539-0.683 3.584 0.853 6.485 3.029 8.789v0zM17.92 22.528c1.835-0.213 3.755-0.341 6.656-0.128 2.091 1.067 3.499 2.133 4.565 3.243 0.981 1.067 0 1.877-2.432 1.92-2.731-2.432-6.656-3.029-8.789-5.035z"></path>
<path d="M42.795 25.387c0.085 1.792-0.085 3.797 0 5.632-0.64 0.939-1.109 2.432-1.707 3.328-0.64 0.427-1.152 0.469-1.493-0.299-0.171-1.408-0.128-2.859 0.555-4.395 0.768-1.749 1.792-3.157 2.645-4.267v0zM33.237 11.861c-1.877 1.621-0.085 3.712 2.731 2.56 2.773-2.091 5.248-1.792 7.424 0.128 0.768 0.725 1.28 2.304 1.109 4.224-0.555 5.419-0.768 10.24-0.555 14.976 0.512 2.005 1.621 2.688 3.115 2.517-0.427-6.699 0.171-12.075 1.877-16.171 0.853-1.707 2.731-1.877 4.267-1.835-2.773-4.523-6.315-7.467-10.453-8.789-3.797-0.811-6.955 0.469-9.515 2.389v0zM43.264 17.664c0.085 1.707 0.128 3.584-0.256 6.315-1.237 1.92-2.475 3.2-3.669 4.139-1.152 0.853-1.963-0.128-1.835-2.432 2.688-2.389 3.541-6.101 5.76-8.021z"></path>
<path d="M38.656 41.557c-1.877 0.085-4.011-0.043-5.888 0-0.981-0.64-2.56-1.067-3.499-1.621-0.427-0.64-0.469-1.109 0.299-1.408 1.493-0.171 3.029-0.128 4.608 0.555 1.792 0.683 3.285 1.664 4.48 2.475v0zM52.821 32.469c-1.707-1.792-3.883-0.085-2.688 2.603 2.176 2.645 1.877 4.992-0.171 7.083-0.725 0.768-2.432 1.195-4.437 1.067-5.675-0.512-10.752-0.725-15.744-0.512-2.133 0.512-2.816 1.536-2.645 2.987 7.040-0.384 12.715 0.171 16.981 1.792 1.835 0.811 1.963 2.603 1.92 4.011 4.736-2.645 7.851-6.016 9.216-9.984 0.939-3.584-0.384-6.613-2.432-9.045v0zM46.763 42.027c-1.835 0.085-3.755 0.128-6.656-0.256-2.005-1.195-3.328-2.347-4.352-3.499-0.896-1.109 0.128-1.835 2.517-1.707 2.56 2.56 6.443 3.328 8.491 5.461z"></path>
</svg>
