<!-- Generated by IcoMoon.io -->
<svg version="1.1" xmlns="http://www.w3.org/2000/svg" width="64" height="64" viewBox="0 0 64 64">
<title>lichamelijkeopvoeding</title>
<path d="M46.549 14.805c0 2.498-2.025 4.523-4.523 4.523s-4.523-2.025-4.523-4.523c0-2.498 2.025-4.523 4.523-4.523s4.523 2.025 4.523 4.523z"></path>
<path d="M43.733 28.032c2.261 0.512 4.48 1.067 6.699 1.579 1.493 0.341 2.091 1.28 1.749 2.645-0.299 1.237-1.323 1.792-2.773 1.451-2.517-0.597-5.035-1.195-7.509-1.792-0.939-0.256-1.536-0.768-1.792-1.621-0.341-1.109-0.768-2.219-1.195-3.499-1.493 2.304-2.944 4.523-4.437 6.827 1.109 0.768 2.176 1.536 3.2 2.261 0.384 0.256 0.768 0.512 1.152 0.768 2.475 1.621 2.603 2.475 1.408 4.907-1.579 3.2-2.987 6.485-4.48 9.728-0.64 1.365-2.048 1.963-3.456 1.451-1.323-0.512-1.963-1.92-1.323-3.328 1.152-2.517 2.347-5.035 3.541-7.552 0.213-0.469 0.469-0.981 0.683-1.493-2.432-1.707-4.821-3.371-7.168-5.077-1.109-0.811-1.792-1.92-1.28-3.2 0.597-1.536 1.408-2.987 2.304-4.352 1.323-2.091 2.773-4.096 4.267-6.229-1.408-0.469-2.688-0.939-4.011-1.323-0.256-0.085-0.64 0.085-0.939 0.213-2.133 1.024-4.224 2.133-6.4 3.072-0.683 0.299-1.621 0.213-2.347-0.043-0.811-0.256-1.109-1.152-0.853-1.92 0.171-0.512 0.512-1.152 0.981-1.408 2.645-1.451 5.333-2.816 8.064-4.139 0.427-0.213 1.067-0.213 1.536-0.085 2.517 0.768 5.12 1.451 7.552 2.475 1.451 0.597 2.773 1.621 4.011 2.645 0.555 0.469 0.811 1.323 1.109 2.091 0.597 1.579 1.152 3.243 1.707 4.949z"></path>
<path d="M24.747 34.731c1.28 1.109 2.56 2.176 3.925 3.328-0.896 1.237-1.792 2.603-2.859 3.797-0.384 0.427-1.237 0.64-1.877 0.64-3.371 0.043-6.741 0.043-10.112 0.043-1.621 0-2.688-0.939-2.731-2.389-0.043-1.323 1.195-2.389 2.773-2.432 2.56 0 5.12-0.043 7.68 0 0.683 0 1.195-0.171 1.579-0.768 0.469-0.811 1.109-1.579 1.621-2.219z"></path>
</svg>
