<!-- Generated by IcoMoon.io -->
<svg version="1.1" xmlns="http://www.w3.org/2000/svg" width="62" height="64" viewBox="0 0 62 64">
<title>lichamelijkeopvoeding-lg</title>
<path d="M53.221 6.789c0 3.749-3.039 6.789-6.789 6.789s-6.789-3.039-6.789-6.789c0-3.749 3.039-6.789 6.789-6.789s6.789 3.039 6.789 6.789z"></path>
<path d="M48.994 26.643c3.394 0.769 6.725 1.601 10.055 2.37 2.242 0.512 3.138 1.921 2.626 3.971-0.448 1.857-1.985 2.69-4.163 2.178-3.779-0.897-7.557-1.793-11.272-2.69-1.289-0.255-2.31-1.19-2.683-2.409-0.519-1.69-1.159-3.355-1.8-5.276-2.242 3.458-4.419 6.789-6.661 10.247 1.665 1.153 3.266 2.306 4.803 3.394l1.729 1.153c3.715 2.434 3.907 3.715 2.114 7.365-2.37 4.803-4.483 9.735-6.725 14.602-0.63 1.456-2.055 2.457-3.713 2.457-0.531 0-1.037-0.102-1.501-0.289-1.368-0.503-2.345-1.82-2.345-3.365 0-0.591 0.143-1.149 0.396-1.641 1.72-3.759 3.513-7.537 5.306-11.316 0.32-0.705 0.705-1.473 1.025-2.242-3.651-2.562-7.237-5.060-10.76-7.621-1.665-1.217-2.69-2.882-1.921-4.803 1.017-2.503 2.177-4.653 3.538-6.656 1.906-3.015 4.084-6.025 6.325-9.227-2.114-0.704-4.035-1.409-6.020-1.985-0.060-0.005-0.131-0.008-0.201-0.008-0.445 0-0.862 0.122-1.219 0.335-3.191 1.531-6.329 3.196-9.596 4.605-0.499 0.178-1.074 0.281-1.674 0.281-0.665 0-1.3-0.127-1.883-0.357-0.812-0.308-1.403-1.112-1.403-2.054 0-0.294 0.058-0.574 0.162-0.831 0.239-0.86 0.76-1.589 1.456-2.091 3.982-2.185 8.017-4.235 12.116-6.22 0.396-0.166 0.856-0.262 1.339-0.262 0.344 0 0.677 0.049 0.992 0.14 3.754 1.147 7.66 2.171 11.311 3.708 2.305 1.086 4.288 2.413 6.043 3.991 0.81 0.685 1.194 1.965 1.643 3.118 0.897 2.37 1.729 4.867 2.562 7.429z"></path>
<path d="M20.494 36.698c1.921 1.665 3.843 3.266 5.892 4.995-1.471 2.167-2.881 4.025-4.378 5.807-0.63 0.493-1.563 0.856-2.58 0.856-0.053 0-0.105-0.001-0.158-0.003-5.052 0.064-10.111 0.064-15.171 0.064-2.434 0-4.035-1.409-4.099-3.587-0.064-1.985 1.793-3.587 4.163-3.651 3.843 0 7.685-0.064 11.528 0 0.077 0.008 0.166 0.013 0.257 0.013 0.886 0 1.664-0.461 2.107-1.156 0.795-1.268 1.597-2.356 2.472-3.379z"></path>
</svg>
