<!-- Generated by IcoMoon.io -->
<svg version="1.1" xmlns="http://www.w3.org/2000/svg" width="64" height="64" viewBox="0 0 64 64">
<title>maatschappelijkevorming</title>
<path d="M14.72 20.565c0.555 3.797-5.547 4.693-6.144 0.939-0.597-3.84 5.419-4.651 6.144-0.939z"></path>
<path d="M26.624 25.771c0.085 0.128 0.085 0.299 0.085 0.427-1.195 0.043-2.389 0-3.584-0.256-0.469-0.085-2.261-0.427-1.152 0.299 1.835 1.237 5.419-0.512 6.699 1.536-4.907 1.152-9.6 0.896-14.379-0.725-0.085 1.408 0.043 2.731 0.427 4.139-0.512 0-2.091 0.256-2.389-0.085-0.384-0.341-0.341-1.963-0.341-2.432-0.043-1.237-0.085-3.669 0.939-4.352 1.365-0.896 2.603-1.579 2.517-3.499 0-0.299-0.213-0.811-0.128-1.024 0.085-0.299 0.725-0.683 0.981-0.896 0.64-0.512 1.28-1.024 2.048-1.408s1.536-0.811 2.389-1.024c0.725-0.171 0.512-0.256 0.939 0.341 0.299 0.427 0.555 0.939 0.853 1.408-0.555 0.128-3.029 0.683-3.157 1.28-0.128 0.725 1.365 2.304 1.835 2.731 0.768 0.853 1.664 1.493 2.688 2.005 0.64 0.555 2.261 0.683 2.731 1.536z"></path>
<path d="M14.763 42.624c0.512 3.84-5.547 4.693-6.144 0.939-0.597-3.84 5.504-4.693 6.144-0.939z"></path>
<path d="M26.325 32.469c-1.408 4.651-4.011 8.448-7.851 11.52 1.237 0.811 2.517 1.323 3.968 1.664-0.256 0.427-0.853 1.835-1.28 1.963-0.512 0.128-1.92-0.683-2.389-0.939-1.067-0.512-3.413-1.707-3.456-2.944-0.043-0.811 0.128-1.365-0.256-2.176-0.341-0.725-0.939-1.323-1.621-1.664-0.256-0.128-0.811-0.213-0.981-0.384-0.213-0.213-0.256-0.939-0.299-1.237-0.171-0.811-0.256-1.579-0.256-2.389s0.043-1.664 0.256-2.475c0.171-0.725 0.085-0.555 0.811-0.555 0.555 0 1.152 0 1.707 0-0.171 0.555-0.299 1.109-0.384 1.664-0.085 0.64-0.256 1.323 0.171 1.579 0.896 0.427 2.731 0 3.627-0.256 1.152-0.256 2.219-0.768 3.2-1.408 0.768-0.469 1.621-1.835 2.645-1.237-0.555 1.024-1.237 2.005-2.048 2.816-0.341 0.341-1.493 1.664-0.256 1.109 1.963-0.811 2.347-4.693 4.693-4.651z"></path>
<path d="M28.971 39.040c0.683 1.067 1.237 2.091 1.621 3.285 0.085 0.256 0.128 1.109 0.512 1.109 0.469 0 0.256-0.555 0.171-0.853-0.213-1.109-0.768-2.261-1.323-3.243-0.469-0.896-1.152-1.707-0.512-2.731 3.456 3.456 5.632 7.424 6.571 12.245 1.323-0.64 2.432-1.408 3.499-2.432 0.256 0.427 1.237 1.579 1.152 2.048-0.128 0.469-1.579 1.28-2.048 1.536-1.067 0.683-3.243 1.963-4.395 1.408-1.493-0.725-2.773-1.323-4.437-0.341-0.256 0.171-0.555 0.555-0.853 0.64-0.299 0.043-0.939-0.213-1.28-0.341-0.811-0.256-1.536-0.555-2.304-0.981-0.768-0.384-1.493-0.896-2.133-1.451-0.512-0.469-0.469-0.299-0.128-0.939 0.256-0.469 0.555-0.939 0.853-1.408 0.64 0.555 2.176 2.219 2.859 1.792 0.811-0.469 1.365-2.261 1.579-3.157 0.299-1.067 0.427-2.219 0.299-3.328-0.043-0.896-0.725-2.261 0.299-2.859z"></path>
<path d="M34.859 53.589c0.555 3.84-5.547 4.693-6.144 0.939-0.64-3.84 5.461-4.736 6.144-0.939z"></path>
<path d="M36.736 37.803c1.195-0.043 2.389 0 3.584 0.256 0.469 0.085 2.261 0.427 1.152-0.299-1.877-1.237-5.419 0.469-6.699-1.536 4.907-1.109 9.6-0.896 14.379 0.725 0.085-1.408-0.043-2.731-0.427-4.139 0.512 0 2.048-0.256 2.389 0.085 0.384 0.341 0.341 1.963 0.384 2.432 0.043 1.237 0.085 3.669-0.939 4.352-1.365 0.896-2.603 1.579-2.517 3.499 0 0.299 0.213 0.811 0.128 1.024-0.085 0.256-0.725 0.683-0.981 0.896-0.64 0.512-1.323 1.024-2.048 1.408-0.768 0.384-1.536 0.811-2.347 1.024-0.725 0.171-0.512 0.256-0.939-0.341-0.299-0.427-0.555-0.939-0.853-1.408 0.555-0.128 1.152-0.299 1.707-0.512s1.365-0.427 1.323-0.939c-0.043-0.939-1.408-2.261-2.048-2.859-0.853-0.811-1.835-1.451-2.859-1.92-0.725-0.512-2.432-0.597-2.389-1.749z"></path>
<path d="M54.827 42.496c0.512 3.84-5.547 4.693-6.144 0.939-0.64-3.797 5.461-4.693 6.144-0.939z"></path>
<path d="M51.541 27.264c0.043 0.981 0.043 2.005-0.128 2.987-0.128 0.725-0.043 0.768-0.64 0.939-0.555 0.128-1.365 0-1.963 0 0.171-0.555 0.299-1.109 0.384-1.664 0.085-0.64 0.256-1.323-0.171-1.536-0.853-0.427-2.731 0-3.627 0.213-1.109 0.256-2.219 0.768-3.2 1.408-0.768 0.512-1.621 1.835-2.645 1.237 0.555-1.067 1.237-2.048 2.091-2.944 0.213-0.213 0.939-0.683 0.853-0.981-0.085-0.469-0.469-0.128-0.725 0-0.981 0.64-1.877 1.92-2.432 2.859s-0.939 1.792-2.176 1.835c1.408-4.651 4.011-8.448 7.851-11.52-1.237-0.811-2.517-1.323-3.968-1.664 0.256-0.427 0.853-1.877 1.28-1.963 0.469-0.128 1.621 0.555 2.091 0.768 0.768 0.341 1.493 0.768 2.176 1.237 0.427 0.299 1.493 0.939 1.664 1.451s-0.171 1.408 0 2.091c0.213 0.768 0.725 1.365 1.323 1.835 0.768 0.512 1.408 0.341 1.664 1.323 0.085 0.64 0.213 1.323 0.299 2.091z"></path>
<path d="M54.784 20.48c0.555 3.84-5.547 4.693-6.144 0.939-0.64-3.84 5.461-4.693 6.144-0.939z"></path>
<path d="M34.859 24.661c-0.427 0.683-0.768-0.256-1.024-0.725-0.299-0.512-0.555-1.109-0.811-1.664-0.128-0.341-0.768-2.603-1.067-1.323-0.171 0.896 0.939 2.731 1.323 3.499 0.512 0.939 1.28 1.835 0.64 2.859-3.456-3.456-5.632-7.424-6.571-12.245-1.323 0.64-2.475 1.408-3.499 2.432-0.256-0.427-1.237-1.579-1.152-2.048 0.128-0.469 1.579-1.28 2.048-1.536 1.067-0.683 3.243-1.963 4.395-1.365 1.493 0.725 2.773 1.323 4.437 0.341 0.256-0.171 0.555-0.555 0.853-0.64 0.299-0.043 0.939 0.213 1.28 0.341 0.811 0.256 1.536 0.555 2.304 0.981 0.768 0.384 1.493 0.853 2.133 1.451 0.512 0.469 0.469 0.341 0.128 0.981-0.256 0.469-0.555 0.939-0.853 1.408-0.427-0.427-2.133-2.176-2.731-1.963-0.725 0.256-1.365 2.219-1.579 2.859-0.341 1.024-0.512 2.133-0.469 3.243 0.043 0.939 0.683 2.389 0.213 3.115z"></path>
<path d="M34.731 9.515c0.555 3.84-5.547 4.693-6.144 0.939-0.64-3.883 5.461-4.736 6.144-0.939z"></path>
</svg>
