<!-- Generated by IcoMoon.io -->
<svg version="1.1" xmlns="http://www.w3.org/2000/svg" width="59" height="64" viewBox="0 0 59 64">
<title>maatschappelijkevorming-lg</title>
<path d="M7.938 17.321c0.712 4.872-7.117 6.022-7.883 1.204-0.766-4.927 6.952-5.967 7.883-1.204z"></path>
<path d="M23.211 23.999c0.071 0.133 0.113 0.291 0.113 0.459 0 0.031-0.001 0.062-0.004 0.092-0.293 0.013-0.637 0.022-0.983 0.022-1.279 0-2.528-0.129-3.735-0.375-0.482-0.089-2.782-0.527-1.358 0.404 2.354 1.588 6.952-0.657 8.595 1.971-2.297 0.578-4.934 0.91-7.649 0.91-3.87 0-7.583-0.674-11.027-1.912 0.206 0.383 0.193 0.746 0.193 1.112 0 1.52 0.212 2.99 0.609 4.382-0.684-0.113-2.71 0.216-3.093-0.222-0.493-0.438-0.438-2.518-0.438-3.12-0.055-1.588-0.109-4.708 1.204-5.584 1.752-1.15 3.339-2.026 3.23-4.489 0-0.383-0.274-1.040-0.164-1.314 0.11-0.383 0.931-0.876 1.259-1.15 0.77-0.664 1.63-1.263 2.55-1.768 0.954-0.546 1.969-0.992 3.035-1.324 1.038-0.248 0.765-0.357 1.312 0.409 0.383 0.547 0.712 1.204 1.095 1.806-0.712 0.164-3.887 0.876-4.051 1.642-0.164 0.931 1.752 2.956 2.354 3.504 0.96 1.050 2.103 1.913 3.382 2.543 0.888 0.741 2.968 0.906 3.57 2z"></path>
<path d="M7.992 45.623c0.657 4.927-7.117 6.022-7.883 1.204-0.766-4.927 7.062-6.022 7.883-1.204z"></path>
<path d="M22.828 32.594c-1.825 6.019-5.349 11.066-10.010 14.733 1.396 1.009 3.099 1.747 4.924 2.163-0.225 0.567-0.991 2.374-1.538 2.538-0.657 0.164-2.463-0.876-3.066-1.204-1.369-0.657-4.379-2.19-4.434-3.777-0.055-1.040 0.164-1.752-0.328-2.792-0.448-0.927-1.168-1.664-2.054-2.123-0.509-0.149-0.927-0.316-1.322-0.522-0.237-0.256-0.291-1.187-0.346-1.57-0.208-0.921-0.327-1.979-0.328-3.065-0.002-0.093-0.004-0.201-0.004-0.31 0-1.017 0.121-2.005 0.35-2.951 0.202-0.845 0.092-0.626 1.023-0.626h2.19c-0.192 0.592-0.364 1.311-0.481 2.049-0.121 0.907-0.34 1.783 0.208 2.111 1.15 0.547 3.504 0 4.653-0.328 1.56-0.38 2.931-1.003 4.149-1.834 0.942-0.574 2.037-2.326 3.351-1.56-0.738 1.382-1.612 2.57-2.631 3.617-0.435 0.434-1.913 2.132-0.325 1.42 2.518-1.040 3.011-6.022 6.022-5.967z"></path>
<path d="M26.222 41.024c0.826 1.213 1.53 2.607 2.043 4.090 0.147 0.453 0.202 1.548 0.695 1.548 0.602 0 0.328-0.712 0.219-1.095-0.378-1.575-0.962-2.963-1.733-4.224-0.566-1.086-1.442-2.126-0.621-3.44 4.236 4.123 7.235 9.498 8.4 15.526 1.757-0.649 3.239-1.693 4.523-2.939 0.324 0.552 1.583 2.030 1.474 2.632s-2.026 1.642-2.628 1.971c-1.369 0.876-4.16 2.518-5.639 1.806-1.916-0.931-3.558-1.697-5.693-0.438-0.319 0.312-0.678 0.585-1.069 0.808-0.631-0.041-1.189-0.197-1.698-0.437-1.105-0.341-2.083-0.768-3.004-1.286-0.964-0.499-1.863-1.118-2.674-1.834-0.642-0.59-0.588-0.371-0.15-1.192 0.328-0.602 0.712-1.204 1.095-1.806 0.821 0.712 2.792 2.847 3.668 2.299 1.040-0.602 1.752-2.901 2.026-4.051 0.281-0.935 0.442-2.009 0.442-3.121 0-0.405-0.021-0.804-0.063-1.198-0.051-1.101-0.926-2.852 0.387-3.619z"></path>
<path d="M33.776 59.692c0.712 4.927-7.117 6.022-7.883 1.204-0.821-4.927 7.007-6.077 7.883-1.204z"></path>
<path d="M36.185 39.437c0.294-0.017 0.637-0.026 0.983-0.026 1.279 0 2.528 0.129 3.735 0.375 0.482 0.089 2.782 0.527 1.358-0.404-2.409-1.588-6.952 0.602-8.595-1.971 2.29-0.566 4.919-0.89 7.623-0.89 3.877 0 7.599 0.667 11.056 1.892-0.21-0.383-0.198-0.746-0.198-1.112 0-1.52-0.212-2.99-0.609-4.382 0.684 0.113 2.655-0.216 3.093 0.222s0.438 2.518 0.493 3.12c0.055 1.588 0.109 4.708-1.204 5.584-1.752 1.15-3.339 2.026-3.23 4.489 0 0.383 0.274 1.040 0.164 1.314s-0.931 0.876-1.259 1.15c-0.771 0.647-1.631 1.245-2.542 1.762-0.943 0.539-1.939 0.984-2.982 1.326-1.045 0.252-0.771 0.361-1.319-0.405-0.383-0.547-0.712-1.204-1.095-1.806 0.864-0.197 1.595-0.423 2.303-0.695 0.598-0.235 1.638-0.509 1.583-1.166-0.055-1.204-1.806-2.901-2.628-3.668-1.045-0.987-2.256-1.813-3.584-2.429-1.014-0.692-3.204-0.801-3.149-2.279z"></path>
<path d="M59.396 45.459c0.657 4.927-7.117 6.022-7.883 1.204s7.007-6.022 7.883-1.204z"></path>
<path d="M55.181 25.915c0.023 0.344 0.037 0.746 0.037 1.15 0 0.946-0.073 1.876-0.214 2.783-0.151 0.83-0.042 0.884-0.808 1.103-0.377 0.039-0.816 0.062-1.259 0.062s-0.882-0.022-1.313-0.066c0.246-0.587 0.418-1.307 0.536-2.045 0.121-0.907 0.34-1.783-0.208-2.056-1.095-0.547-3.504 0-4.653 0.274-1.559 0.392-2.929 1.013-4.152 1.836-0.939 0.627-2.033 2.324-3.347 1.558 0.752-1.444 1.645-2.686 2.689-3.784 0.267-0.267 1.198-0.869 1.088-1.252-0.109-0.602-0.602-0.164-0.931 0-1.259 0.821-2.409 2.463-3.12 3.668s-1.204 2.299-2.792 2.354c1.825-6.019 5.349-11.066 10.010-14.733-1.396-1.009-3.099-1.747-4.924-2.163 0.225-0.567 0.991-2.429 1.538-2.538s2.080 0.712 2.682 0.985c1.072 0.49 1.988 1.020 2.847 1.625 0.492 0.346 1.861 1.167 2.079 1.824s-0.219 1.806 0 2.682c0.311 0.97 0.905 1.776 1.684 2.345 0.998 0.666 1.82 0.447 2.148 1.706 0.109 0.821 0.274 1.697 0.383 2.682z"></path>
<path d="M59.341 17.211c0.712 4.927-7.117 6.022-7.883 1.204-0.821-4.927 7.007-6.022 7.883-1.204z"></path>
<path d="M33.776 22.576c-0.547 0.876-0.985-0.328-1.314-0.931s-0.712-1.423-1.040-2.135c-0.164-0.438-0.985-3.339-1.369-1.697-0.219 1.15 1.204 3.504 1.697 4.489 0.657 1.204 1.642 2.354 0.821 3.668-4.236-4.123-7.235-9.498-8.401-15.525-1.763 0.634-3.246 1.68-4.521 2.937-0.327-0.549-1.586-2.027-1.476-2.63s2.026-1.642 2.628-1.971c1.369-0.876 4.16-2.518 5.639-1.752 1.916 0.931 3.558 1.697 5.693 0.438 0.319-0.312 0.678-0.585 1.069-0.808 0.632 0.041 1.189 0.197 1.698 0.437 1.105 0.341 2.083 0.768 3.004 1.286 0.97 0.475 1.871 1.096 2.668 1.829 0.649 0.595 0.594 0.43 0.156 1.252-0.328 0.602-0.712 1.204-1.095 1.806-0.547-0.547-2.737-2.792-3.504-2.518-0.931 0.328-1.752 2.847-2.026 3.668-0.386 1.117-0.61 2.404-0.61 3.743 0 0.147 0.003 0.293 0.008 0.438 0.054 1.183 0.875 3.045 0.273 3.975z"></path>
<path d="M33.612 3.142c0.712 4.927-7.117 6.022-7.883 1.204-0.821-4.982 7.007-6.077 7.883-1.204z"></path>
</svg>
