<!-- Generated by IcoMoon.io -->
<svg version="1.1" xmlns="http://www.w3.org/2000/svg" width="53" height="64" viewBox="0 0 53 64">
<title>muzikaleopvoeding-lg</title>
<path d="M14.45 49.543v-41.925c0-1.726 0.32-2.109 2.109-2.429 11.056-1.726 22.049-3.387 33.106-5.113 1.981-0.32 2.748 0.32 2.748 2.237 0 15.85-0.064 31.636 0.064 47.486 0.064 4.474-3.387 8.053-7.35 9.011-0.926 0.265-1.99 0.417-3.090 0.417-1.704 0-3.322-0.365-4.781-1.022-4.208-1.952-5.359-6.297-2.547-9.94 2.237-2.94 5.432-4.090 9.203-3.962 1.12 0.061 2.17 0.221 3.184 0.472 0.395 0.103 0.587-0.088 0.587-0.536v-27.865c-0.134-0.015-0.29-0.024-0.447-0.024s-0.313 0.009-0.466 0.026c-8.801 1.404-17.62 2.81-26.504 4.216-0.895 0.128-1.087 0.511-1.087 1.342 0 10.865-0.064 21.73 0.064 32.594 0.064 4.474-3.451 8.117-7.414 9.075-3.259 0.767-6.391 0.511-9.203-1.534-1.594-1.053-2.631-2.837-2.631-4.863 0-0.757 0.145-1.48 0.408-2.143 1.137-3.156 4.843-5.777 8.678-5.904 1.657 0.036 3.248 0.174 4.807 0.409-0.090-0.056 0.042-0.074 0.178-0.074s0.268 0.018 0.394 0.051z"></path>
</svg>
