<!-- Generated by IcoMoon.io -->
<svg version="1.1" xmlns="http://www.w3.org/2000/svg" width="64" height="64" viewBox="0 0 64 64">
<title>muzikaleopvoeding</title>
<path d="M23.381 43.733c0-0.299 0-0.555 0-0.811 0-9.045 0-18.133 0-27.179 0-1.152 0.213-1.408 1.408-1.621 7.381-1.152 14.72-2.261 22.101-3.413 1.323-0.213 1.835 0.213 1.835 1.493 0 10.581-0.043 21.12 0.043 31.701 0.043 2.987-2.261 5.376-4.907 6.016-1.792 0.427-3.541 0.384-5.205-0.384-2.859-1.323-3.627-4.224-1.749-6.656 1.493-1.963 3.627-2.731 6.144-2.645 0.683 0 1.365 0.171 2.048 0.299 0.341 0.085 0.469-0.043 0.469-0.341 0-0.128 0-0.256 0-0.427 0-5.845 0-11.648 0-17.493 0-0.213 0-0.427 0-0.683-0.256 0-0.427-0.043-0.597 0-5.888 0.939-11.776 1.877-17.707 2.816-0.597 0.085-0.725 0.341-0.725 0.896 0 7.253-0.043 14.507 0.043 21.76 0.043 2.987-2.304 5.419-4.949 6.059-2.176 0.512-4.267 0.341-6.144-1.024-1.579-1.109-2.133-2.901-1.493-4.651 0.768-2.133 3.243-3.883 5.803-3.968 1.024-0.043 2.048 0.171 3.072 0.256 0.128-0.043 0.299-0.043 0.512 0z"></path>
</svg>
