<!-- Generated by IcoMoon.io -->
<svg version="1.1" xmlns="http://www.w3.org/2000/svg" width="64" height="64" viewBox="0 0 64 64">
<title>natuurwetenschappen</title>
<path d="M42.667 10.965l-1.621-1.536c-2.304 2.176-3.541 4.693-3.755 7.467-0.171 2.432 0.469 4.949 1.877 7.509 1.195 2.176 3.499 7.68-1.493 12.459-3.883 3.712-8.32 3.2-11.136 2.219 0.427 0.853 0.725 1.664 0.981 2.517 1.28 0.299 2.56 0.384 3.797 0.299 2.987-0.171 5.675-1.365 7.936-3.541s3.541-4.736 3.712-7.595c0.171-2.432-0.469-4.992-1.835-7.424-1.792-3.2-3.029-8.021 1.536-12.373z"></path>
<path d="M53.76 21.547c-3.883 3.712-8.32 3.2-11.136 2.219 0.427 0.853 0.725 1.664 0.981 2.517 1.28 0.299 2.56 0.384 3.797 0.299 2.987-0.171 5.675-1.365 7.936-3.541l-1.579-1.493z"></path>
<path d="M21.632 39.339c-0.427-0.853-0.768-1.707-1.024-2.56-1.323-0.299-2.603-0.384-3.883-0.299-2.901 0.213-5.547 1.408-7.851 3.584l1.621 1.536c3.755-3.584 7.851-3.413 11.136-2.261z"></path>
<path d="M26.581 26.283c3.755-3.584 7.851-3.413 11.136-2.261-0.427-0.853-0.768-1.707-1.024-2.56-1.323-0.299-2.603-0.384-3.883-0.299-2.901 0.213-5.547 1.408-7.851 3.584s-3.541 4.693-3.755 7.467c-0.171 2.432 0.469 4.949 1.877 7.509 1.195 2.176 3.499 7.68-1.493 12.459l1.621 1.536c2.261-2.176 3.541-4.736 3.712-7.595 0.171-2.432-0.469-4.992-1.835-7.424-1.835-3.243-3.072-8.064 1.493-12.416z"></path>
<path d="M12.715 41.259c-0.299 0.213-0.597 0.427-0.896 0.683l9.472 9.003c0.256-0.299 0.512-0.555 0.725-0.853l-9.301-8.832z"></path>
<path d="M15.744 39.893l7.595 7.211c0.085-0.469 0.171-0.939 0.171-1.365l-6.315-6.016c-0.512 0-0.981 0.085-1.451 0.171z"></path>
<path d="M27.904 38.357l-2.987-2.816c0.213 0.683 0.469 1.365 0.853 2.091 0.597 0.256 1.323 0.512 2.133 0.725z"></path>
<path d="M33.749 38.101l-8.533-8.107c-0.171 0.384-0.299 0.768-0.427 1.152l7.723 7.339c0.427-0.085 0.811-0.213 1.237-0.384z"></path>
<path d="M36.864 36.096c0.128-0.128 0.256-0.256 0.384-0.384l-9.429-9.045c-0.128 0.128-0.299 0.256-0.427 0.384s-0.256 0.256-0.384 0.384l9.472 9.003c0.128-0.085 0.256-0.213 0.384-0.341z"></path>
<path d="M39.381 31.915l-7.68-7.339c-0.427 0.085-0.811 0.213-1.195 0.384l8.491 8.107c0.171-0.384 0.299-0.768 0.384-1.152z"></path>
<path d="M36.309 24.747l2.944 2.773c-0.213-0.768-0.512-1.451-0.768-2.005-0.725-0.341-1.451-0.597-2.176-0.768z"></path>
<path d="M40.661 17.323l6.357 6.059c0.469 0 0.939-0.085 1.408-0.171l-7.595-7.253c-0.085 0.427-0.128 0.896-0.171 1.365z"></path>
<path d="M51.584 21.888c0.299-0.213 0.597-0.427 0.896-0.683l-9.472-9.003c-0.256 0.299-0.512 0.555-0.725 0.853l9.301 8.832z"></path>
</svg>
