<!-- Generated by IcoMoon.io -->
<svg version="1.1" xmlns="http://www.w3.org/2000/svg" width="67" height="64" viewBox="0 0 67 64">
<title>natuurwetenschappen-lg</title>
<path d="M48.832 2.22l-2.343-2.22c-3.33 3.144-5.118 6.782-5.426 10.79-0.247 3.514 0.678 7.152 2.713 10.852 1.726 3.145 5.056 11.098-2.158 18.004-5.611 5.364-12.023 4.624-16.093 3.206 0.521 1.022 1.003 2.228 1.378 3.481 1.295 0.461 2.736 0.635 4.218 0.635 0.461 0 0.918-0.017 1.37-0.050 4.436-0.259 8.443-2.164 11.408-5.115 3.267-3.144 5.117-6.843 5.363-10.974 0.014-0.279 0.023-0.606 0.023-0.934 0-3.612-0.994-6.992-2.723-9.882-2.541-4.537-4.329-11.504 2.268-17.793z"></path>
<path d="M64.863 17.511c-5.611 5.364-12.023 4.624-16.093 3.206 0.521 1.022 1.004 2.228 1.378 3.481 1.295 0.461 2.736 0.635 4.218 0.635 0.461 0 0.918-0.017 1.37-0.050 4.436-0.259 8.443-2.164 11.408-5.115z"></path>
<path d="M18.435 43.222c-0.538-1.038-1.040-2.263-1.436-3.535-1.328-0.468-2.802-0.642-4.317-0.642-0.471 0-0.938 0.017-1.4 0.050-4.387 0.355-8.332 2.265-11.285 5.178l2.345 2.218c5.426-5.179 11.345-4.933 16.093-3.268z"></path>
<path d="M25.588 24.355c5.426-5.179 11.345-4.933 16.093-3.268-0.538-1.038-1.040-2.263-1.436-3.535-1.328-0.468-2.802-0.642-4.317-0.642-0.471 0-0.938 0.017-1.4 0.050-4.387 0.355-8.332 2.265-11.285 5.178-3.327 3.142-5.116 6.78-5.424 10.788-0.247 3.514 0.678 7.152 2.713 10.852 1.726 3.145 5.056 11.098-2.158 18.004l2.343 2.22c3.268-3.145 5.118-6.844 5.364-10.975 0.014-0.279 0.023-0.606 0.023-0.934 0-3.612-0.994-6.992-2.723-9.882-2.603-4.598-4.391-11.565 2.207-17.854z"></path>
<path d="M5.549 45.996c-0.432 0.308-0.863 0.617-1.295 0.986l13.688 13.010c0.37-0.432 0.74-0.802 1.048-1.233z"></path>
<path d="M9.927 44.023l10.975 10.42c0.13-0.58 0.219-1.258 0.246-1.951l-9.125-8.715c-0.753 0.019-1.475 0.108-2.172 0.261z"></path>
<path d="M27.499 41.803l-4.316-4.069c0.356 1.166 0.774 2.166 1.279 3.115 0.799 0.278 1.824 0.636 2.881 0.919z"></path>
<path d="M35.946 41.434l-12.331-11.715c-0.247 0.555-0.432 1.11-0.617 1.665l11.16 10.605c0.685-0.145 1.283-0.337 1.853-0.58z"></path>
<path d="M40.447 38.536l0.555-0.555-13.626-13.071c-0.185 0.185-0.432 0.37-0.617 0.555l-0.555 0.555 13.688 13.010c0.206-0.152 0.387-0.314 0.553-0.491z"></path>
<path d="M44.085 32.493l-11.098-10.605c-0.654 0.134-1.232 0.325-1.777 0.576l12.32 11.694c0.219-0.473 0.41-1.028 0.543-1.605z"></path>
<path d="M39.645 22.135l4.254 4.008c-0.333-1.13-0.71-2.091-1.16-3.011-0.846-0.325-1.893-0.706-2.985-0.974z"></path>
<path d="M45.934 11.407l9.187 8.755c0.734-0.023 1.434-0.112 2.111-0.261l-11.051-10.468c-0.104 0.547-0.191 1.223-0.243 1.909z"></path>
<path d="M61.719 18.004c0.432-0.308 0.863-0.617 1.295-0.986l-13.688-13.010c-0.37 0.432-0.74 0.802-1.048 1.233z"></path>
</svg>
