<!-- Generated by IcoMoon.io -->
<svg version="1.1" xmlns="http://www.w3.org/2000/svg" width="64" height="64" viewBox="0 0 64 64">
<title>nederlands</title>
<path d="M28.991 28.771c-1.252-1.326-2.483-2.628-3.762-3.983-0.511 0.428-0.979 0.834-1.461 1.223-0.728 0.587-1.421 0.567-2.059-0.105-2.863-3.015-5.718-6.036-8.562-9.067-0.764-0.814-0.703-1.403 0.159-2.152 0.964-0.837 1.935-1.667 2.908-2.495 1.019-0.867 1.604-0.826 2.52 0.144 4.235 4.484 8.472 8.966 12.71 13.447 0.142 0.15 0.291 0.294 0.486 0.491 1.381-1.186 2.746-2.359 4.186-3.595-0.422-0.446-0.815-0.856-1.201-1.27-0.74-0.794-0.707-1.455 0.116-2.161 3.118-2.676 6.237-5.35 9.359-8.022 0.91-0.779 1.535-0.736 2.362 0.142 0.855 0.908 1.709 1.818 2.571 2.719 0.9 0.942 0.865 1.559-0.121 2.403-4.745 4.060-9.485 8.126-14.229 12.188-0.123 0.105-0.262 0.193-0.466 0.342 1.293 1.371 2.52 2.673 3.811 4.043 0.458-0.39 0.89-0.759 1.324-1.127 0.855-0.724 1.502-0.707 2.255 0.087 2.798 2.949 5.594 5.901 8.383 8.858 0.889 0.943 0.847 1.513-0.127 2.345-0.989 0.845-1.974 1.693-2.965 2.535-0.844 0.718-1.489 0.68-2.251-0.126-4.314-4.566-8.628-9.133-12.938-13.702-0.11-0.116-0.179-0.268-0.291-0.44-1.489 1.274-2.858 2.445-4.28 3.662 0.451 0.48 0.872 0.9 1.259 1.347 0.669 0.771 0.633 1.392-0.148 2.063-3.17 2.722-6.346 5.438-9.53 8.145-0.764 0.649-1.394 0.607-2.095-0.116-0.949-0.979-1.885-1.97-2.814-2.967-0.762-0.819-0.724-1.43 0.126-2.159 4.789-4.114 9.582-8.225 14.372-12.337 0.121-0.104 0.236-0.214 0.394-0.358z"></path>
<path d="M35.523 53.293c0-2.187 0.023-4.285-0.006-6.383-0.033-2.454-2.465-4.16-4.862-3.442-1.57 0.47-2.617 1.842-2.63 3.496-0.015 1.875-0.028 3.751 0.017 5.626 0.015 0.617-0.198 0.763-0.809 0.75-1.635-0.036-3.273-0.003-4.909-0.015-1.431-0.010-2.13-0.794-1.952-2.131 0.131-0.986 0.21-1.978 0.369-2.959 0.049-0.301 0.216-0.648 0.448-0.85 2.891-2.512 5.805-4.999 8.709-7.497 1.215-1.046 1.551-2.456 0.892-3.733-0.144-0.279-0.339-0.535-0.547-0.858 0.405-0.355 0.798-0.699 1.249-1.095 0.568 0.594 1.093 1.139 1.612 1.688 2.999 3.171 6.006 6.337 8.984 9.527 0.274 0.294 0.461 0.731 0.52 1.124 0.221 1.475 0.363 2.96 0.55 4.44 0.203 1.6-0.471 2.344-2.154 2.345-1.566 0.001-3.131 0.001-4.697-0.001-0.233-0-0.465-0.019-0.785-0.032z"></path>
<path d="M26.777 28.679c-1.217 1.044-2.353 2.026-3.502 2.993-0.098 0.082-0.287 0.066-0.433 0.095-0.022-0.125-0.093-0.263-0.059-0.372 0.347-1.144 0.649-2.307 1.103-3.413 0.157-0.384 0.688-0.641 1.082-0.911 0.073-0.050 0.351 0.076 0.462 0.186 0.441 0.435 0.854 0.897 1.347 1.422z"></path>
<path d="M38.339 30.837c-0.405-0.424-0.865-0.874-1.279-1.36-0.094-0.111-0.111-0.427-0.021-0.511 0.673-0.625 1.381-1.215 2.243-1.958 0.383 0.984 0.714 1.813 1.017 2.651 0.028 0.076-0.095 0.259-0.195 0.311-0.554 0.29-1.122 0.555-1.766 0.868z"></path>
<path d="M33.184 23.146c-0.361 0.325-0.722 0.65-1.149 1.034-0.377-0.42-0.693-0.773-1.135-1.266 0.891 0 1.54 0 2.189 0 0.032 0.077 0.064 0.155 0.096 0.232z"></path>
</svg>
