<!-- Generated by IcoMoon.io -->
<svg version="1.1" xmlns="http://www.w3.org/2000/svg" width="57" height="64" viewBox="0 0 57 64">
<title>nederlands-lg</title>
<path d="M24.57 27.142l-5.645-5.971c-0.768 0.64-1.466 1.28-2.189 1.837-1.094 0.883-2.131 0.851-3.091-0.154q-6.445-6.79-12.845-13.606c-1.146-1.222-1.056-2.106 0.237-3.2q2.17-1.882 4.365-3.744c1.53-1.28 2.406-1.242 3.782 0.218l19.059 20.141c0.211 0.224 0.435 0.442 0.73 0.736l6.278-5.389c-0.64-0.64-1.222-1.28-1.805-1.92-1.114-1.19-1.062-2.182 0.173-3.238l14.022-12.026c1.363-1.171 2.304-1.101 3.546 0.211s2.56 2.726 3.84 4.077 1.28 2.336-0.179 3.603l-21.286 18.291c-0.186 0.16-0.39 0.288-0.698 0.512l5.715 6.061 1.984-1.69c1.28-1.088 2.253-1.062 3.386 0.128q6.253 6.637 12.55 13.293c1.331 1.414 1.28 2.272-0.192 3.52s-2.963 2.56-4.448 3.802c-1.28 1.075-2.234 1.018-3.379-0.192q-9.702-10.278-19.398-20.557c-0.152-0.187-0.296-0.397-0.423-0.617l-6.412 5.468c0.678 0.723 1.28 1.35 1.92 2.022 1.005 1.158 0.947 2.086-0.224 3.091q-7.187 6.138-14.349 12.198c-1.146 0.973-2.093 0.909-3.142-0.173q-2.138-2.202-4.224-4.48c-1.146-1.229-1.088-2.144 0.186-3.238l21.549-18.477c0.198-0.173 0.371-0.32 0.608-0.538z"></path>
<path d="M34.368 63.93c0-3.277 0.032-6.4 0-9.6-0.096-3.017-2.566-5.427-5.597-5.427-0.604 0-1.186 0.096-1.732 0.273-2.255 0.661-3.903 2.748-3.903 5.219 0 0.004 0 0.008 0 0.012 0 2.809-0.045 5.625 0 8.441 0 0.928-0.294 1.146-1.216 1.126-2.451-0.051-4.909 0-7.366 0-2.144 0-3.2-1.19-2.931-3.2 0.198-1.478 0.314-2.97 0.557-4.435 0.075-0.504 0.305-0.944 0.64-1.28 4.339-3.77 8.71-7.501 13.062-11.245 1.824-1.568 2.33-3.686 1.338-5.6-0.218-0.416-0.506-0.8-0.819-1.28l1.875-1.645c0.851 0.89 1.638 1.709 2.419 2.56 4.48 4.755 9.011 9.504 13.478 14.291 0.403 0.458 0.682 1.035 0.779 1.671 0.335 2.233 0.546 4.46 0.828 6.681 0.307 2.4-0.704 3.514-3.2 3.52h-7.040c-0.346-0.026-0.698-0.064-1.171-0.083z"></path>
<path d="M21.248 27.008c-1.824 1.568-3.526 3.040-5.254 4.48-0.188 0.087-0.408 0.139-0.639 0.141-0.059-0.146-0.092-0.315-0.092-0.491 0-0.023 0.001-0.046 0.002-0.069 0.518-1.712 0.973-3.459 1.651-5.117 0.237-0.576 1.030-0.96 1.626-1.37 0.006-0 0.013-0 0.020-0 0.263 0 0.501 0.108 0.671 0.282 0.659 0.659 1.274 1.363 2.016 2.144z"></path>
<path d="M38.592 30.24c-0.608-0.64-1.28-1.28-1.92-2.042-0.065-0.11-0.103-0.243-0.103-0.384s0.038-0.274 0.105-0.388c0.977-0.931 2.008-1.84 3.332-2.928 0.576 1.478 1.069 2.72 1.523 3.974-0.015 0.2-0.129 0.371-0.292 0.466-0.828 0.437-1.68 0.834-2.646 1.301z"></path>
<path d="M30.861 18.707l-1.722 1.549-1.702-1.92h3.283z"></path>
</svg>
