<!-- Generated by IcoMoon.io -->
<svg version="1.1" xmlns="http://www.w3.org/2000/svg" width="64" height="64" viewBox="0 0 64 64">
<title>sociaaleconomischeinitiatie</title>
<path d="M13.71 35.843c-0.73-1.043-1.25-1.914-1.434-2.953-0.223-1.99 1.053-1.31 0.435-0.22l0.233 0.67c1.818-2.717-1.433-4.111-1.395-0.645-0.001 0.265 0.059 0.611 0.154 0.926 0.302 1.077 1.085 2.177 1.847 3.215 0.005-0.036 0.009-0.073 0.014-0.109 0.040-0.302 0.090-0.595 0.145-0.885z"></path>
<path d="M11.139 32.59c-0.969-0.923-1.101-2.11-1.101-3.398h-0.777c0.068 1.34 0.402 3.296 1.97 4.265-0.058-0.28-0.093-0.568-0.093-0.867z"></path>
<path d="M54.933 36.132c-1.311-0.517-5.337-2.096-6.949-3.541-0.507-0.454-0.777-0.896-0.646-1.287 0.138-0.414 0.36-0.817 0.646-1.188 0.591-0.765 1.46-1.393 2.451-1.7l2.098-0.649c-1.384-1.053-2.97-1.56-4.549-1.613-2.025-0.068-4.037 0.614-5.591 1.854-2.749-2.398-6.894-3.579-11.17-3.564-8.071 0.031-16.609 4.332-17.114 12.8l-0 0.012v1.019c0.197 3.592 2.407 7.5 4.868 9.844l-0.938 5.041h7.834l0.569-2.527c1.604 0.238 3.197 0.339 4.782 0.252 0.744-0.041 1.486-0.123 2.227-0.252l1.204 2.527h8.177l-0.975-3.971c0.8-0.341 1.608-0.523 2.401-1.023 1.241-0.795 2.473-1.616 3.727-2.402 0.942-0.591 1.896-1.162 2.874-1.69 0.637-0.343 1.274-0.687 1.912-1.031 0.195-0.097 0.598-0.065 0.836-0.065 0.855-2.080 1.317-4.367 1.327-6.604v-0.154c-0.001-0.029-0.001-0.059-0.001-0.089zM37.091 29.956c-1.981-0.536-3.941-0.797-5.868-0.799-1.988-0.003-3.941 0.27-5.847 0.799-0.789 0.219-1.154-1.279-0.318-1.537 1.931-0.586 4.063-0.887 6.165-0.896 2.187-0.009 4.341 0.296 6.207 0.925 0.8 0.27 0.375 1.686-0.339 1.508zM47.984 36.739c-0.596 0-1.080-0.461-1.080-1.029s0.484-1.029 1.080-1.029 1.080 0.461 1.080 1.029c0 0.568-0.483 1.029-1.080 1.029z"></path>
<path d="M37.794 16.564c0 3.352-2.853 6.069-6.372 6.069s-6.372-2.717-6.372-6.069c0-3.352 2.853-6.069 6.372-6.069s6.372 2.717 6.372 6.069z"></path>
</svg>
