<!-- Generated by IcoMoon.io -->
<svg version="1.1" xmlns="http://www.w3.org/2000/svg" width="69" height="64" viewBox="0 0 69 64">
<title>sociaaleconomischeinitiatie-lg</title>
<path d="M6.669 38.016c-1.094-1.562-1.875-2.874-2.15-4.429-0.333-2.982 1.581-1.965 0.64-0.326l0.352 1.005c2.726-4.077-2.15-6.17-2.093-0.966 0.014 0.5 0.097 0.976 0.24 1.425 0.444 1.577 1.616 3.228 2.761 4.789 0-0.051 0-0.109 0-0.166 0.096-0.454 0.166-0.89 0.25-1.331z"></path>
<path d="M2.816 33.139c-1.453-1.382-1.651-3.168-1.651-5.12h-1.165c0.102 2.010 0.602 4.941 2.957 6.4-0.086-0.383-0.137-0.824-0.141-1.277z"></path>
<path d="M68.506 38.451c-1.965-0.774-8.006-3.142-10.426-5.312-0.762-0.685-1.165-1.344-0.966-1.92 0.237-0.684 0.565-1.276 0.976-1.799 0.916-1.172 2.168-2.064 3.61-2.532l3.202-0.988c-1.876-1.442-4.237-2.339-6.804-2.419-0.132-0.004-0.266-0.006-0.4-0.006-3.036 0-5.827 1.051-8.027 2.81-4.102-3.63-10.317-5.383-16.729-5.364-12.109 0.045-24.915 6.496-25.67 19.2v1.549c0.294 5.389 3.61 11.251 7.302 14.765l-1.408 7.565h11.75l0.87-3.795c1.637 0.267 3.524 0.42 5.447 0.42 0.608 0 1.212-0.015 1.812-0.045 1.156-0.064 2.304-0.199 3.429-0.4l1.632 3.814h12.269l-1.466-5.958c1.4-0.464 2.591-0.983 3.724-1.596 1.741-1.131 3.591-2.366 5.473-3.543 1.414-0.89 2.842-1.741 4.314-2.56l2.867-1.549c0.27-0.074 0.581-0.116 0.901-0.116 0.134 0 0.265 0.007 0.395 0.022 1.218-2.929 1.947-6.33 1.974-9.898l0-0.209c-0.051-0.045-0.051-0.090-0.051-0.134zM41.741 29.19c-2.636-0.75-5.665-1.186-8.794-1.197-0.014 0-0.025 0-0.035 0-3.111 0-6.12 0.437-8.969 1.253-0.955 0.27-1.505-1.976-0.251-2.36 2.768-0.849 5.95-1.34 9.246-1.344 0.122-0.002 0.264-0.003 0.406-0.003 3.183 0 6.247 0.509 9.115 1.45 0.99 0.345 0.357 2.469-0.718 2.201zM58.080 39.366c-0.815-0.045-1.459-0.718-1.459-1.54 0-0.852 0.691-1.542 1.542-1.542s1.541 0.689 1.542 1.54c-0.021 0.857-0.721 1.543-1.58 1.543-0.016 0-0.032-0-0.048-0.001z"></path>
<path d="M42.797 9.101c0 5.026-4.278 9.101-9.555 9.101s-9.555-4.075-9.555-9.101c0-5.026 4.278-9.101 9.555-9.101s9.555 4.075 9.555 9.101z"></path>
</svg>
