<!-- Generated by IcoMoon.io -->
<svg version="1.1" xmlns="http://www.w3.org/2000/svg" width="64" height="64" viewBox="0 0 64 64">
<title>spaans</title>
<path d="M6.741 42.837c0.256 0.341 0.64-0.213 0.853-0.512 0.939-1.195 1.835-2.432 2.517-3.968 0.512 0.981 1.323 1.195 2.176 1.323 0.469 0.085 0.939 0.256 1.323 0.64 0.256 0.213 0.555 0.384 0.896 0.256 0.213-0.085 0.341 0.043 0.512 0.128 0.469 0.299 0.853 0.64 0.853 0.64s-0.256 0.512-0.427 0.896c-0.811 1.749-1.92 3.115-3.669 3.797-0.213 0.085-0.512 0.256-0.469 0.512 0.085 0.299 0.427 0.299 0.683 0.256 0.981-0.128 1.877-0.512 2.731-1.109 0.981-0.725 1.749-1.621 2.432-2.603 0.128-0.213 0.341-0.427 0.341-0.427s0.299 0.213 0.469 0.384c0.384 0.341 0.683 0.725 1.109 1.024 0.512 0.341 1.024 0.341 1.536 0.043 0.725-0.427 1.365-0.981 1.707-1.792 0.043-0.043 0.043-0.128 0.085-0.171 0.256-0.256 0.597-0.512 0.512-0.981-0.085-0.597-0.256-1.152-0.683-1.536-0.384-0.341-0.384-0.555 0.128-0.725 0.128-0.043 0.299-0.128 0.341-0.256 0.213-0.427 0.555-0.683 0.555-0.683s0.341 0.512 0.469 0.64c1.195 1.109 2.091 2.475 2.901 3.925 0.597 1.109 0.256 2.091-0.299 3.072-0.256 0.427-0.469 0.853-0.683 1.28-0.171 0.299-0.128 0.512 0.256 0.469 0.043 0 0.128 0 0.171 0 1.152 0.811 2.133 0 3.072-0.469 1.109-0.555 1.237-1.365 0.64-2.432-0.555-1.067-0.512-1.408 0.299-2.176 0.299-0.256 0.213-0.384-0.085-0.555-1.792-0.981-2.773-2.645-3.584-4.48-0.213-0.427-0.341-1.237-0.341-1.237s0.555-0.427 0.811-0.725c0.768-0.768 1.707-1.365 2.389-2.261 0.085-0.085 0.171-0.128 0.213-0.256 0.469-1.067 1.408-1.067 2.304-1.024 0.384 0 0.768 0.128 1.152 0.043s0.597 0.171 0.811 0.469c0.427 0.597 0.597 1.323 0.683 2.048 0.043 0.555 0.085 1.109 0.597 1.451 0.256 0.213 0.213 0.64 0.341 0.939 0.085 0.171 0.085 0.427 0.341 0.384 0.256-0.085 0.171-0.299 0.128-0.512-0.085-0.299-0.043-0.555 0.085-0.811 0.128-0.341 0.299-0.725 0.341-1.109 0.213-1.323 0.939-2.133 2.091-2.816 0 0.469 0 0.896 0 1.28-0.043 1.451 0.427 2.859 0.341 4.309-0.043 0.64-0.213 1.237-0.555 1.749-0.768 1.152-1.536 2.304-2.432 3.328-0.299 0.341-0.512 0.683-0.64 1.067-0.299 0.725-0.683 1.365-1.109 2.005-0.469 0.683-0.896 1.408-1.109 2.261-0.085 0.384-0.043 0.683 0.341 0.811 1.28 0.469 2.432 0.341 3.584-0.427 0.256-0.171 0.427-0.384 0.384-0.725-0.085-0.512 0.043-0.981 0.043-1.493 0-0.384 0.128-0.469 0.427-0.341 0.384 0.128 0.683 0.043 0.555-0.427-0.427-1.835 0.555-2.987 1.792-3.968 0.555-0.469 1.067-1.024 1.664-1.408 0.341-0.213 0.341-0.64 0.213-0.981-0.128-0.555-0.171-1.152-0.128-1.749 0.085-1.408 0.768-2.389 1.877-3.072 0.128-0.085 0.299-0.171 0.427-0.213 0.341-0.128 0.512-0.64 1.024-0.384 0.555 0.256 0.981 0.64 1.195 1.237 0.597 1.493 0.256 3.072-0.896 4.181-0.128 0.128-0.256 0.256-0.384 0.427-0.256 0.341-0.555 0.683 0.171 0.768 0.085 0 0.171 0.171 0.299 0.213 0.64 0.512 1.365 0.725 2.133 0.469 0.469-0.171 0.555-0.768 0.555-1.195 0-0.555-0.085-1.024 0.64-1.152 0.213-0.043 0.085-0.213 0.085-0.341-0.171-0.725-0.341-1.408-0.512-2.133-0.128-0.512-0.213-1.067-0.128-1.579 0.128-0.768-0.213-1.451-0.299-2.176-0.043-0.341-0.299-0.512-0.597-0.597-0.256-0.085-0.683-0.299-0.683-0.299s0.213-0.427 0.384-0.683c0.768-1.493 1.536-2.987 1.792-4.651 0.171-1.408-0.043-2.816-0.896-3.968-0.384-0.555-0.341-0.811 0.299-1.024 0.512-0.171 1.067-0.341 1.621-0.427 0.981-0.171 1.323-0.725 1.109-1.749-0.171-0.768-0.341-1.579-0.64-2.304-0.128-0.299-0.299-0.597 0.085-0.853 0.384-0.213 0.555 0.085 0.768 0.299 0.299 0.341 0.384 0.725 0.469 1.152 0.341 1.707 1.365 2.816 2.816 3.499 0.213 0.085 0.853 0.384 1.067 0.213 0.085-0.043-0.341-0.341-0.299-0.427 0.213-0.341 1.195 0.128 1.493 0.555 0.085 0.171 0.043 0.512 0.341 0.427 0.213-0.085 0.256-0.384 0.299-0.597 0.043-0.683-0.341-1.109-0.853-1.408-0.299-0.213-0.683-0.299-1.024-0.469-0.213-0.085-0.469-0.171-0.555-0.469 0.213-0.128 0.469 0 0.597-0.213 0.085-0.128 0.256-0.299 0-0.427-0.853-0.512-1.493-1.323-2.219-2.005-0.597-0.597-1.28-1.024-2.091-1.195-1.024-0.256-1.963 0.341-2.133 1.323-0.043 0.299 0 0.597 0.128 0.896 0.256 0.512 0.427 1.067 0.469 1.664 0.043 0.469-0.171 0.683-0.64 0.597-1.28-0.299-2.603-0.555-3.925-0.64-2.603-0.171-5.163-0.853-7.765-1.024-1.109-0.085-2.219-0.043-3.285-0.341-1.237-0.384-2.475-0.725-3.755-0.896-1.749-0.213-3.541-0.555-5.333-0.427-1.237 0.085-2.432 0.299-3.413 1.195-0.555 0.512-1.323 0.811-1.963 1.195-2.133 1.323-3.797 3.115-5.035 5.333-0.512 0.939-1.237 1.792-1.536 2.859-0.469 1.749-1.152 3.456-1.237 5.333 0 0.256-0.085 0.427-0.299 0.597-0.64 0.512-1.323 1.024-1.493 1.963 0 0 0 0.043-0.043 0.043-1.451 1.579-1.408 3.797-2.133 5.675-0.341 0.853-0.853 1.621-1.109 2.517 0 0.171-0.043 0.341 0.043 0.427v0z"></path>
</svg>
