<!-- Generated by IcoMoon.io -->
<svg version="1.1" xmlns="http://www.w3.org/2000/svg" width="94" height="64" viewBox="0 0 94 64">
<title>spaans-lg</title>
<path d="M0.095 52.704c0.476 0.635 1.19-0.397 1.587-0.952 1.785-2.139 3.347-4.564 4.591-7.17 1.041 1.617 2.548 2.013 4.135 2.251 0.962 0.139 1.806 0.567 2.461 1.192 0.301 0.329 0.735 0.536 1.217 0.536 0.159 0 0.313-0.023 0.459-0.065 0.065-0.017 0.152-0.029 0.242-0.029 0.269 0 0.514 0.102 0.699 0.27 0.597 0.387 1.115 0.779 1.603 1.204s-0.493 0.937-0.81 1.651c-1.507 3.252-3.57 5.791-6.822 7.060-0.466 0.093-0.82 0.475-0.872 0.947 0.168 0.334 0.504 0.554 0.892 0.554 0.136 0 0.265-0.027 0.383-0.076 1.925-0.279 3.646-1.010 5.101-2.082 1.734-1.34 3.231-2.939 4.445-4.745 0.239-0.37 0.448-0.63 0.681-0.866 0.324 0.234 0.608 0.468 0.877 0.719 0.637 0.663 1.31 1.285 2.017 1.867 0.451 0.337 0.967 0.52 1.526 0.52 0.51 0 0.984-0.152 1.38-0.414 1.387-0.738 2.484-1.887 3.145-3.282 0.098-0.123 0.098-0.282 0.177-0.361 0.476-0.476 1.111-0.952 0.952-1.825-0.076-1.117-0.546-2.111-1.27-2.857-0.713-0.633-0.713-1.030 0.239-1.347 0.274-0.065 0.499-0.238 0.632-0.471 0.264-0.507 0.61-0.929 1.027-1.268 0.306 0.448 0.593 0.836 0.899 1.208 2.101 2.063 3.899 4.468 5.299 7.116 1.187 2.22 0.552 4.045-0.479 5.869-0.476 0.793-0.873 1.587-1.269 2.38-0.317 0.555-0.238 0.952 0.476 0.873h0.317c2.142 1.507 3.966 0 5.711-0.873 2.063-1.031 2.3-2.538 1.19-4.522s-0.952-2.618 0.555-4.046c0.555-0.476 0.397-0.714-0.159-1.031-3.332-1.825-5.156-4.918-6.663-8.329-0.278-0.663-0.499-1.437-0.627-2.242 0.546-0.485 1.038-0.926 1.495-1.403 1.432-1.432 3.177-2.543 4.447-4.209 0.172-0.12 0.307-0.281 0.394-0.469 0.876-1.99 2.621-1.99 4.287-1.911 0.429 0.067 0.924 0.106 1.427 0.106 0.252 0 0.501-0.010 0.747-0.028 0.681-0.157 1.078 0.319 1.474 0.875 0.707 1.080 1.167 2.381 1.268 3.782 0.081 1.057 0.16 2.089 1.112 2.723 0.476 0.397 0.397 1.19 0.635 1.745 0.159 0.317 0.159 0.793 0.635 0.714s0.317-0.555 0.238-0.952c-0.052-0.168-0.082-0.362-0.082-0.563 0-0.346 0.089-0.672 0.246-0.955 0.268-0.584 0.488-1.276 0.621-1.998 0.405-2.514 1.754-4.021 3.895-5.29v2.38c-0.079 2.697 0.793 5.315 0.635 8.012-0.055 1.214-0.432 2.33-1.047 3.278-1.483 2.319-2.972 4.338-4.58 6.252-0.436 0.464-0.841 1.124-1.103 1.852-0.631 1.469-1.321 2.694-2.121 3.837-0.85 1.129-1.556 2.529-1.994 4.044-0.181 0.806-0.102 1.361 0.612 1.599 0.774 0.324 1.672 0.513 2.616 0.513 1.52 0 2.926-0.49 4.068-1.32 0.413-0.212 0.704-0.658 0.704-1.172 0-0.057-0.004-0.114-0.011-0.17-0.016-0.27-0.026-0.594-0.026-0.919 0-0.652 0.038-1.295 0.113-1.927-0.007-0.637 0.231-0.796 0.786-0.558 0.714 0.238 1.269 0.079 1.031-0.793-0.793-3.411 1.031-5.553 3.332-7.377 0.942-0.907 1.951-1.765 3.011-2.558 0.427-0.328 0.647-0.742 0.647-1.208 0-0.247-0.062-0.48-0.171-0.684-0.167-0.721-0.265-1.557-0.265-2.417 0-0.291 0.011-0.58 0.033-0.866 0.095-2.41 1.462-4.519 3.454-5.656 0.262-0.171 0.524-0.304 0.801-0.406 0.66-0.246 0.978-1.198 1.93-0.722 1.031 0.429 1.827 1.251 2.212 2.273 0.352 0.822 0.552 1.748 0.552 2.72 0 2.004-0.848 3.809-2.205 5.078-0.258 0.247-0.492 0.506-0.706 0.781-0.488 0.651-1.043 1.285 0.305 1.444 0.159 0 0.317 0.317 0.555 0.397 0.72 0.658 1.684 1.062 2.741 1.062 0.438 0 0.859-0.069 1.254-0.197 0.844-0.309 1.002-1.42 1.002-2.213 0-1.031-0.159-1.904 1.19-2.142 0.397-0.079 0.159-0.397 0.159-0.635-0.317-1.349-0.635-2.618-0.952-3.966-0.185-0.615-0.291-1.321-0.291-2.052 0-0.311 0.019-0.618 0.057-0.919 0.234-1.392-0.4-2.661-0.559-4.010-0.097-0.57-0.54-1.014-1.103-1.109-0.527-0.196-0.945-0.383-1.351-0.591s0.471-0.759 0.788-1.235c1.428-2.776 2.856-5.553 3.332-8.646 0.084-0.49 0.133-1.054 0.133-1.63 0-2.15-0.673-4.143-1.82-5.78-0.692-0.999-0.613-1.475 0.577-1.871 0.845-0.313 1.858-0.588 2.901-0.776 1.938-0.334 2.573-1.366 2.176-3.269-0.314-1.647-0.726-3.083-1.25-4.465-0.178-0.374-0.495-0.93 0.219-1.405s1.031 0.159 1.428 0.555c0.465 0.592 0.779 1.323 0.871 2.122 0.567 2.971 2.54 5.363 5.18 6.502 0.454 0.181 1.644 0.736 2.040 0.419 0.159-0.079-0.635-0.635-0.555-0.793 0.397-0.635 2.221 0.238 2.776 1.031 0.159 0.317 0.079 0.952 0.635 0.793 0.339-0.256 0.555-0.658 0.555-1.111 0.002-0.041 0.004-0.089 0.004-0.138 0-1.094-0.644-2.038-1.573-2.473-0.547-0.308-1.174-0.601-1.825-0.848-0.57-0.134-0.951-0.462-1.124-0.895 0.393-0.248 0.869-0.010 1.107-0.406 0.159-0.238 0.476-0.555 0-0.793-1.587-0.952-2.776-2.459-4.125-3.728-1.021-1.079-2.344-1.861-3.835-2.211-0.318-0.092-0.623-0.139-0.94-0.139-1.536 0-2.813 1.108-3.076 2.569-0.021 0.144-0.031 0.289-0.031 0.436 0 0.452 0.098 0.882 0.274 1.268 0.462 0.879 0.774 1.931 0.863 3.046 0.034 0.117 0.052 0.218 0.052 0.323 0 0.491-0.398 0.888-0.888 0.888-0.127 0-0.248-0.027-0.357-0.075-2.093-0.546-4.581-0.967-7.13-1.177-5.001-0.328-9.761-1.597-14.6-1.915-2.063-0.159-4.125-0.079-6.108-0.635-1.968-0.678-4.321-1.259-6.742-1.635-3.491-0.427-6.823-1.062-10.155-0.824-2.3 0.159-4.522 0.555-6.346 2.221-1.059 0.808-2.256 1.548-3.523 2.166-4.056 2.528-7.224 5.873-9.417 9.834-1.022 1.883-2.37 3.469-2.925 5.452-0.873 3.252-2.142 6.425-2.3 9.916 0.001 0.016 0.001 0.034 0.001 0.052 0 0.437-0.218 0.824-0.552 1.056-1.194 0.955-2.463 1.907-2.781 3.652 0 0.044-0.035 0.079-0.079 0.079-2.697 2.935-2.618 7.060-3.966 10.55-0.635 1.587-1.587 3.014-2.063 4.68-0.021 0.084-0.033 0.181-0.033 0.281 0 0.186 0.041 0.362 0.115 0.52l-0.003-0.008z"></path>
</svg>
