<!-- Generated by IcoMoon.io -->
<svg version="1.1" xmlns="http://www.w3.org/2000/svg" width="64" height="64" viewBox="0 0 64 64">
<title>techniek</title>
<path d="M51.413 46.592l-16.939-15.787 0.512-0.512 0.597-6.016-3.968-3.584-6.187 0.939-0.171 0.171 5.376 4.864-4.523 4.565-5.376-4.821-0.128 0.128-0.725 6.016 3.968 3.584 6.315-0.939 0.469-0.469c0 0 16.853 15.701 17.28 16.128 0.427 0.384 1.067 0.597 1.749 0.64 1.536 0.043 2.816-1.109 2.901-2.56 0-1.024-0.427-1.835-1.152-2.347zM50.901 48.683c-0.043 0.683-0.64 1.195-1.323 1.195s-1.28-0.597-1.237-1.28c0.043-0.683 0.64-1.195 1.323-1.195 0.683 0.043 1.237 0.597 1.237 1.28zM28.117 39.893c-6.528 0-11.819-5.035-11.819-11.264s5.291-11.264 11.819-11.264 11.819 5.035 11.819 11.264c0 1.365-0.256 2.645-0.725 3.883l3.072 2.987c0.427-0.811 0.768-1.621 1.067-2.475h4.565c0.725 0 1.408-0.512 1.408-0.939v-6.955c0-0.427-0.683-0.64-1.408-0.64h-4.565c-0.299-1.067-0.768-2.091-1.28-3.029l3.243-3.115c0.512-0.469 0.64-1.109 0.341-1.408l-5.205-4.907c-0.299-0.299-0.981-0.171-1.493 0.299l-3.243 3.029c-1.024-0.555-2.005-0.981-3.328-1.28v-4.267c0-0.683-0.256-1.067-0.725-1.067h-7.253c-0.469 0-0.555 0.384-0.555 1.067v4.267c-1.28 0.299-2.304 0.725-3.285 1.237l-3.243-3.029c-0.512-0.469-1.195-0.597-1.493-0.299l-5.163 4.949c-0.299 0.299-0.171 0.939 0.341 1.408l3.157 3.072c-0.555 0.939-0.981 2.005-1.323 3.072h-4.523c-0.725 0-1.024 0.213-1.024 0.64v6.912c0 0.427 0.299 0.939 1.024 0.939h4.48c0.341 1.237 0.811 2.048 1.365 3.029l-3.2 2.987c-0.512 0.469-0.64 1.067-0.341 1.365l5.163 4.949c0.299 0.299 0.981 0.171 1.493-0.299l3.328-3.072c0.981 0.512 2.133 0.939 3.243 1.237v4.352c0 0.683 0.128 1.408 0.555 1.408h7.253c0.469 0 0.725-0.725 0.725-1.408v-4.309c1.28-0.299 2.176-0.725 3.157-1.195-1.067-0.981-2.091-1.963-3.072-2.901-1.365 0.469-2.816 0.768-4.352 0.768z"></path>
</svg>
