<!-- Generated by IcoMoon.io -->
<svg version="1.1" xmlns="http://www.w3.org/2000/svg" width="68" height="64" viewBox="0 0 68 64">
<title>techniek-lg</title>
<path d="M66.044 56.655l-25.357-23.633 0.766-0.766 0.894-9.006-5.94-5.365-9.261 1.405-0.256 0.256 8.048 7.281-6.77 6.834-8.048-7.218-0.192 0.192-1.086 9.006 5.94 5.365 9.453-1.405 0.703-0.703s25.23 23.505 25.868 24.144c0.712 0.576 1.621 0.934 2.613 0.958 0.059 0.003 0.122 0.004 0.185 0.004 2.187 0 3.981-1.681 4.162-3.821 0.003-0.061 0.004-0.114 0.004-0.168 0-1.38-0.676-2.602-1.715-3.352zM65.277 59.784c-0.088 1.006-0.926 1.789-1.947 1.789-0.011 0-0.023-0-0.034-0-1.023-0.007-1.851-0.839-1.851-1.865 0-0.018 0-0.036 0.001-0.054 0.035-1.028 0.88-1.851 1.916-1.851 1.059 0 1.917 0.858 1.917 1.917 0 0.022-0 0.045-0.001 0.067zM31.17 46.627c-9.772 0-17.693-7.537-17.693-16.862s7.92-16.862 17.693-16.862 17.693 7.537 17.693 16.862c-0.002 2.091-0.401 4.088-1.124 5.922l4.637 4.361c0.552-1.026 1.091-2.249 1.539-3.516l6.892-0.189c1.086 0 2.108-0.766 2.108-1.405v-10.411c0-0.639-1.022-0.958-2.108-0.958h-6.834c-0.519-1.734-1.171-3.237-1.973-4.643l4.911-4.555c0.766-0.703 0.958-1.661 0.511-2.108l-7.792-7.345c-0.447-0.447-1.469-0.255-2.236 0.447l-4.854 4.535c-1.436-0.825-3.099-1.485-4.858-1.892l-0.124-6.411c0-1.022-0.383-1.597-1.086-1.597h-10.858c-0.703 0-0.83 0.575-0.83 1.597v6.387c-1.864 0.443-3.503 1.079-5.025 1.905l-4.748-4.588c-0.766-0.703-1.788-0.894-2.236-0.447l-7.729 7.409c-0.447 0.447-0.255 1.405 0.511 2.108l4.727 4.599c-0.764 1.316-1.437 2.839-1.937 4.438l-6.814 0.161c-1.086 0-1.533 0.319-1.533 0.958v10.347c0 0.002 0 0.004 0 0.006 0 0.776 0.629 1.405 1.405 1.405 0.045 0 0.089-0.002 0.133-0.006l6.701 0c0.519 1.726 1.215 3.23 2.089 4.611l-4.835 4.395c-0.766 0.703-0.958 1.597-0.511 2.044l7.729 7.409c0.447 0.447 1.469 0.255 2.236-0.447l4.982-4.599c1.383 0.722 2.997 1.354 4.682 1.812l0.172 6.555c0 1.022 0.192 2.108 0.83 2.108h10.858c0.703 0 1.086-1.086 1.086-2.108v-6.451c1.798-0.453 3.371-1.066 4.843-1.845-1.713-1.413-3.246-2.882-4.715-4.287-1.937 0.711-4.174 1.13-6.506 1.15z"></path>
</svg>
