<!-- Generated by IcoMoon.io -->
<svg version="1.1" xmlns="http://www.w3.org/2000/svg" width="86" height="64" viewBox="0 0 86 64">
<title>wiskunde-lg</title>
<path d="M28.406 64c5.456-18.88 10.479-36.373 15.675-54.56h42.176v-9.44h-50.403c-3.378 11.951-6.669 23.383-10.306 35.854-3.637-6.842-6.755-12.731-9.786-18.36h-15.762v9.613c3.378 0.173 6.149 0.26 9.353 0.433 6.149 11.778 12.298 23.383 19.053 36.46zM60.622 46.939c8.401-6.149 17.667-9.873 13.597-20.612-1.645-4.33-9.7-6.668-16.801-5.543-6.842 1.126-9.786 4.157-10.219 11.085h9.18c0-2.425 1.386-4.503 4.33-4.503 4.244 0.087 5.369 2.252 4.070 4.417-5.802 9.18-17.581 10.999-18.793 22.69h29.272v-7.535h-14.636z"></path>
</svg>
