<!-- Generated by IcoMoon.io -->
<svg version="1.1" xmlns="http://www.w3.org/2000/svg" width="64" height="64" viewBox="0 0 64 64">
<title>wiskunde</title>
<path d="M24.021 48.469c2.688-9.301 5.163-17.92 7.723-26.88 7.040 0 13.952 0 20.779 0 0-1.792 0-3.157 0-4.651-8.405 0-16.597 0-24.832 0-1.664 5.888-3.285 11.52-5.077 17.664-1.792-3.371-3.328-6.272-4.821-9.045-2.731 0-5.248 0-7.765 0 0 1.749 0 3.2 0 4.736 1.664 0.085 3.029 0.128 4.608 0.213 3.029 5.803 6.059 11.52 9.387 17.963zM39.893 40.064c4.139-3.029 8.704-4.864 6.699-10.155-0.811-2.133-4.779-3.285-8.277-2.731-3.371 0.555-4.821 2.048-5.035 5.461h4.523c0-1.195 0.683-2.219 2.133-2.219 2.091 0.043 2.645 1.109 2.005 2.176-2.859 4.523-8.661 5.419-9.259 11.179 4.864 0 9.643 0 14.421 0 0-1.323 0-2.389 0-3.712-2.261 0-4.181 0-7.211 0z"></path>
</svg>
