<!-- Generated by IcoMoon.io -->
<svg version="1.1" xmlns="http://www.w3.org/2000/svg" width="64" height="64" viewBox="0 0 64 64">
<title>ww</title>
<path d="M51.243 34.603c6.187-5.888 6.187-15.488 0-21.376s-16.256-5.931-22.485 0c-5.461 5.205-6.101 13.312-1.877 19.2l-2.005 1.92-1.237-1.152-12.587 11.989 6.613 6.272 12.587-11.989-1.237-1.152 2.005-1.92c6.187 4.053 14.72 3.456 20.224-1.792zM31.317 15.659c4.779-4.565 12.544-4.565 17.323 0s4.779 11.947 0 16.512-12.544 4.565-17.323 0-4.779-11.947 0-16.512z"></path>
<path d="M45.696 15.104c-3.84-2.261-8.789-2.005-12.373 0.64-0.299 0.213-0.384 0.683-0.128 0.981 0 0.043 0.043 0.043 0.043 0.085 0.256 0.256 0.683 0.256 0.939 0.043 3.072-2.261 7.381-2.475 10.709-0.555 0.341 0.213 0.768 0.085 0.981-0.213 0.299-0.384 0.171-0.811-0.171-0.981z"></path>
</svg>
