<svg id="Laag_1" data-name="Laag 1" xmlns="http://www.w3.org/2000/svg" viewBox="0 0 497 336.09"><defs><style>.diabolo-intro-cls-1{fill:#f3f3f3;}.diabolo-intro-cls-2{fill:#f6d936;}.diabolo-intro-cls-3{fill:#f3bf4a;}.diabolo-intro-cls-4{fill:#faeb9b;}</style></defs><title>intro</title><path class="diabolo-intro-cls-1" d="M701,553H659a2.05,2.05,0,0,0-1.87-2A159.94,159.94,0,0,1,617,538.14c-13.61-6.39-26.7-13.83-37.35-24.41-6.63-6.59-10.78-15.48-17.09-22.63-15.6-17.68-25.64-38.37-32-61-1.63-5.78-2.33-11.69-3.52-17.52-.65-3.15-1.87-5-5.61-4.69a100.08,100.08,0,0,1-12.49,0c-3.16-.13-4.33,1.31-4.89,4.28-2.09,11.22-4.37,22.33-8.42,33.16-8.34,22.29-21.69,41.22-37.33,58.71-4.62,5.16-10.31,9.36-15.5,14-2.41.12-2.94-1.92-3.76-3.44-1.73-3.22-3.33-6.51-4.89-9.81-6.19-13.13-9.73-27.15-13.7-41-5.27-28.38-8-56.93-6.78-85.86a398.35,398.35,0,0,1,6.14-56c3.58-19.22,9.49-37.71,16.57-55.86,2.71-3.05,2.34-8.07,6.51-10.19,6.42,3.81,10.63,9.92,15.68,15.13,2.21,2.28,5.57,3.33,7,6.26,2.85,5.74,7.4,10.29,11.13,15.32a136.89,136.89,0,0,1,14.07,23.78A164.52,164.52,0,0,1,504.9,365.9c.36,2.93,1.4,4.16,4.33,4.09,4.5-.1,9-.09,13.5,0,2.32,0,3.15-.89,3.31-3.22a132.65,132.65,0,0,1,11.17-44.58c5.42-12.35,11.44-24.37,19.85-35.2,7.13-9.18,15.46-17.51,21-27.94a7.42,7.42,0,0,1,1.88-2.29c19.63-15.87,41.39-27.59,66-33.92,10.79-2.78,21.8-3.85,32.79-5.41,15.6-2.22,28.29,2.84,38.67,13.7,12.48,13.06,19.6,29.4,25.61,46.17,12.23,34.12,15.62,69.72,17,105.59.43,11.11-1.34,22.18-1.74,33.26-.61,16.78-3.77,33.12-7,49.45A203.77,203.77,0,0,1,734.6,514c-6.09,12.72-13.52,24.26-24.94,32.91C706.83,549,702.86,549.52,701,553Z" transform="translate(-263 -216.91)"/><path class="diabolo-intro-cls-2" d="M436.3,266.13c-7.08,18.15-13,36.64-16.57,55.86a398.35,398.35,0,0,0-6.14,56c-1.24,28.93,1.51,57.48,6.78,85.86-3.16,1.7-5.14,4.69-7.71,7-5.52,5-10.14,11-16.38,15.31a290.11,290.11,0,0,1-73.21,35.87c-8,2.65-16.1,4.78-24.16,7.15-6.36-7.23-10.26-15.88-13.93-24.6C273,476,267.37,445.84,264.8,415c-.42-5,.22-10.2-1.8-15v-6a58.8,58.8,0,0,0,0-24v-6c1.49-.88.91-2.35,1-3.6,1.28-20.8,4-41.37,10-61.41,7.34-24.76,18.95-47.21,36.21-66.53,8.14-9.12,18.15-14.45,30.85-13.3,6.95.63,13.95.93,20.86,1.86,19.43,2.63,38,8.11,55.18,17.77.14.64.06,1.48.44,1.89C424.76,248.43,430.06,257.63,436.3,266.13Z" transform="translate(-263 -216.91)"/><path class="diabolo-intro-cls-3" d="M442.72,518.11C429,529.83,413.26,537.85,396.49,544a149.58,149.58,0,0,1-31.81,8.1A6,6,0,0,0,363,553H325c-10.48-6-19.63-13.4-26.09-23.79,8.06-2.37,16.2-4.5,24.16-7.15a290.11,290.11,0,0,0,73.21-35.87c6.24-4.29,10.86-10.27,16.38-15.31,2.57-2.35,4.55-5.34,7.71-7,4,13.87,7.51,27.89,13.7,41,1.56,3.3,3.16,6.59,4.89,9.81C439.78,516.19,440.31,518.23,442.72,518.11Z" transform="translate(-263 -216.91)"/><path class="diabolo-intro-cls-4" d="M263,370a58.8,58.8,0,0,1,0,24Z" transform="translate(-263 -216.91)"/><path class="diabolo-intro-cls-3" d="M417.05,238.79c9.34,4.58,18.44,9.54,25.76,17.15-4.17,2.12-3.8,7.14-6.51,10.19-6.24-8.5-11.54-17.7-18.81-25.45C417.11,240.27,417.19,239.43,417.05,238.79Z" transform="translate(-263 -216.91)"/></svg>