<svg id="Laag_1" data-name="Laag 1" xmlns="http://www.w3.org/2000/svg" viewBox="0 0 495.77 335.91"><defs><style>.diabolo-midden-cls-1{fill:#f3f3f3;}.diabolo-midden-cls-2{fill:#62a7db;}.diabolo-midden-cls-3{fill:#5c80c0;}</style></defs><title>midden</title><path class="diabolo-midden-cls-1" d="M702,552H659c-.79-.66-1.5-1.77-2.38-1.93a155.07,155.07,0,0,1-55.75-21.79c-10.23-6.45-21.71-11.8-27-23.95a29.69,29.69,0,0,0-2.93-4.39,27,27,0,0,0-.66-4.34c-2.71-8.55-6-17-8.2-25.61-10.2-39.88-12.27-80.34-8.29-121.22,2.52-25.94,7.67-51.22,17.44-75.47.39-1-.11-2.32-.19-3.48,3.75-5.19,6.64-11.43,11.42-15.37,18.67-15.41,39.77-26.69,63.43-32.26,11.54-2.72,23.57-3.34,35.26-5.49,9.6-1.77,18.3.38,26.2,5.28,15.52,9.62,24.23,24.92,30.6,41.17,6,15.23,11.27,31,14.29,47a433.36,433.36,0,0,1,7.43,63.5c.76,19.95-1.32,40-2.79,60a144,144,0,0,1-4.56,27.38c-4.21,15.32-8.91,30.56-14.44,45.46-6.66,17.92-17,33.38-34.16,43.2C702.93,550.18,702.55,551.24,702,552Z" transform="translate(-264.01 -216.09)"/><path class="diabolo-midden-cls-1" d="M370,552H323a23.72,23.72,0,0,0-2.54-2.75c-4-3.2-8.42-6-12.1-9.51-11.29-10.9-18.6-24.32-24.34-38.84-7.29-18.45-12.66-37.4-15.13-57-2.06-16.4-3.92-32.88-4.69-49.38-.64-13.57.48-27.23.79-40.85.41-18.35,4-36.23,8.73-53.82a175.37,175.37,0,0,1,29.58-60.26c7.5-10,16-19.26,29.13-20.94,8.11-1,16.59-.38,24.78.58,24.33,2.84,47.4,9.91,68.4,22.76,6.13,3.75,11.63,8.55,17.41,12.88q-3.47,6.57-6.92,13.16c-.93,1.95-2,3.84-2.77,5.85a301.69,301.69,0,0,0-19,95c-.75,18.76-.1,37.64,1,56.4.67,11.37,3.4,22.63,5.2,33.93A189.21,189.21,0,0,0,441,517.2c-.62,1.24-.9,2.93-1.89,3.66a164.25,164.25,0,0,1-58,27.22C377.28,549.05,373.68,550.68,370,552Z" transform="translate(-264.01 -216.09)"/><path class="diabolo-midden-cls-2" d="M570.89,499.94A161.47,161.47,0,0,1,532.09,433a197,197,0,0,1-4.93-21.8c-.52-2.91-1.77-3.45-4.26-3.39-6,.14-12,.13-17.94.17-2.65,0-5.31.09-8-.05-9.94-.51-18.13-9.49-18-19.64.14-9.57,8.92-18.12,18.64-18.38a60.3,60.3,0,0,0,7.61-1.15h20.26c4.48-37.74,18.74-71.23,45.46-99,.08,1.16.58,2.5.19,3.48-9.77,24.25-14.92,49.53-17.44,75.47-4,40.88-1.91,81.34,8.29,121.22,2.22,8.66,5.49,17.06,8.2,25.61A27,27,0,0,1,570.89,499.94Z" transform="translate(-264.01 -216.09)"/><path class="diabolo-midden-cls-3" d="M505.27,368.78a60.3,60.3,0,0,1-7.61,1.15c-9.72.26-18.5,8.81-18.64,18.38-.15,10.15,8,19.13,18,19.64,2.65.14,5.31,0,8,.05q-9.3,64-58.6,106A38.3,38.3,0,0,1,441,517.2a188.93,188.93,0,0,1-20.45-58.06c1.11-.95,2.55-1.7,3.28-2.89,7.65-12.42,16-24.49,22.55-37.49a126.66,126.66,0,0,0,13.41-52.18,226.36,226.36,0,0,0-1.95-39.2A148,148,0,0,0,436.1,268q3.47-6.59,6.92-13.16c16.37,13.58,30.41,29.17,41,47.71C495.76,323.11,503.31,345.05,505.27,368.78Z" transform="translate(-264.01 -216.09)"/><path class="diabolo-midden-cls-2" d="M436.1,268a148,148,0,0,1,21.71,59.4,226.36,226.36,0,0,1,1.95,39.2,126.66,126.66,0,0,1-13.41,52.18c-6.53,13-14.9,25.07-22.55,37.49-.73,1.19-2.17,1.94-3.28,2.89-1.81-11.3-4.54-22.56-5.21-33.93-1.11-18.76-1.76-37.64-1-56.4a301.69,301.69,0,0,1,19-95C434.09,271.82,435.17,269.93,436.1,268Z" transform="translate(-264.01 -216.09)"/></svg>