<svg id="Laag_1" data-name="Laag 1" xmlns="http://www.w3.org/2000/svg" viewBox="0 0 496.13 335.67"><defs><style>.cls-1{fill:#f3f3f3;}.cls-2{fill:#cd2d38;}.cls-3{fill:#df3855;}.cls-4{fill:#9c2536;}.cls-5{fill:#8f2130;}</style></defs><title>outro</title><path class="cls-1" d="M370,553H322a25.09,25.09,0,0,0-3.66-3.76,87.36,87.36,0,0,1-29.69-35.44c-8.42-17.87-14.14-36.75-18.09-56.23a385.71,385.71,0,0,1-7.31-70c-.28-16,1.13-32.07,2.92-48a298.33,298.33,0,0,1,7.11-38.48,155.51,155.51,0,0,1,16.78-40.66c6.67-11.5,13.77-22.67,23.73-31.69,6.61-6,14.24-10.08,23.32-9.62a290.45,290.45,0,0,1,29.6,2.91c29.5,4.55,56.2,15.63,78.46,35.89,8.51,7.74,17,15.8,23.9,24.93A224.56,224.56,0,0,1,490.25,317c4.76,9.43,7.64,19.89,10.67,30.09,2.17,7.35,3.21,15,4.82,22.9,5.51,0,10.82,0,16.13,0,3.16,0,3.86-1.91,4.12-4.47a152.06,152.06,0,0,1,22.42-65.72c6-9.56,13.11-18.4,19.89-27.44,1-1.28,2.88-1.85,4.35-2.75-21.09,50.83-24.37,103.83-19,157.84a267.62,267.62,0,0,0,17.74,73.44c-.79-.2-1.9-.15-2.3-.65-5.49-7.08-11.21-14-16.24-21.42a159.53,159.53,0,0,1-25.93-65.11c-.21-1.35-1.93-3.45-3-3.51-6.42-.33-12.86-.16-18.39-.16-3.58,12.46-6.43,24.21-10.35,35.59a124,124,0,0,1-19.29,36.24c-4,5.12-7.85,10.37-12.25,15.12-7.49,8.1-14.63,16.77-23.22,23.56-19.83,15.69-42.73,25.26-67.46,30.49C371.83,551.26,371,552.33,370,553Z" transform="translate(-263.21 -217.33)"/><path class="cls-2" d="M573.19,268.06c3.8-9.88,12.11-15.43,20.34-21a166.84,166.84,0,0,1,83-29c1.15-.08,2.31,0,3.47.06-19.37,7.58-30.06,23.48-38.4,41.15a198.52,198.52,0,0,0-17.07,53.9c-2.42,15.34-5.09,30.7-6.28,46.15a302.77,302.77,0,0,0-.09,41.19c1.06,17.81,2.3,35.71,5.24,53.28,3.81,22.78,10.49,44.89,21.64,65.4,7.83,14.39,17.39,27.06,33,33.88H662a29.69,29.69,0,0,0-4.87-1.78c-23.92-4.45-45.65-14-65.59-27.82-8.54-5.91-16.74-12.07-20.19-22.52a267.62,267.62,0,0,1-17.74-73.44c-5.33-54-2.05-107,19-157.84l0-.22C572.8,268.94,573,268.5,573.19,268.06Z" transform="translate(-263.21 -217.33)"/><path class="cls-3" d="M678,553c-15.58-6.82-25.14-19.49-33-33.88-11.15-20.51-17.83-42.62-21.64-65.4-2.94-17.57-4.18-35.47-5.24-53.28a302.77,302.77,0,0,1,.09-41.19c1.19-15.45,3.86-30.81,6.28-46.15a198.52,198.52,0,0,1,17.07-53.9c8.34-17.67,19-33.57,38.4-41.15,15-2.83,27,2.87,37.07,13.58,13.87,14.81,21.75,33,27.79,51.92,9.6,30.17,13.68,61.23,14.38,92.85.83,37.85-2.76,75.1-14.34,111.27a213.66,213.66,0,0,1-12.5,30.38C724.91,533,714.84,545.86,699,553Zm-6.17-15.92c4.75,4.62,10.57,6.62,17.07,7,13.86.75,23.12-7.14,31-17,12.94-16.15,19.75-35.23,25-54.9,9.22-34.47,11.12-69.66,10-105.13-.27-3.46-.59-6.92-.82-10.39-1.42-21.58-4.74-42.85-11.08-63.55s-14-40.54-30.19-55.94c-13.23-12.59-31.45-12.48-44.75.14-11.28,10.71-18.32,24-24,38.09-11.61,29-16.35,59.48-17.85,90.39-1.34,27.73-.2,55.46,4.78,82.91,4.23,23.33,10.5,46,22.26,66.74C658,523.8,663.29,531.88,671.83,537.08Z" transform="translate(-263.21 -217.33)"/><path class="cls-1" d="M573.19,268.06c-.2.44-.39.88-.58,1.32C572.81,268.94,573,268.5,573.19,268.06Z" transform="translate(-263.21 -217.33)"/><path class="cls-4" d="M671.83,537.08c-8.54-5.2-13.83-13.28-18.58-21.66-11.76-20.77-18-43.41-22.26-66.74-5-27.45-6.12-55.18-4.78-82.91,1.5-30.91,6.24-61.39,17.85-90.39,5.66-14.13,12.7-27.38,24-38.09,13.3-12.62,31.52-12.73,44.75-.14,16.18,15.4,23.88,35.31,30.19,55.94s9.66,42,11.08,63.55c.23,3.47.55,6.93.82,10.39-.62.82-1.66,1.58-1.8,2.48-2.1,13.37-3.73,26.83-6.16,40.14-5.42,29.63-13.25,58.59-27.93,85.16C708.25,514.26,694.45,530.69,671.83,537.08Z" transform="translate(-263.21 -217.33)"/><path class="cls-5" d="M671.83,537.08c22.62-6.39,36.42-22.82,47.16-42.27,14.68-26.57,22.51-55.53,27.93-85.16,2.43-13.31,4.06-26.77,6.16-40.14.14-.9,1.18-1.66,1.8-2.48,1.17,35.47-.73,70.66-10,105.13-5.26,19.67-12.07,38.75-25,54.9-7.9,9.85-17.16,17.74-31,17C682.4,543.7,676.58,541.7,671.83,537.08Z" transform="translate(-263.21 -217.33)"/></svg>