<svg xmlns="http://www.w3.org/2000/svg" viewBox="0 0 24 24">
  <path d="M12.29,22A10,10,0,0,1,2.4,14.8,10.27,10.27,0,0,1,2,12.29,10,10,0,0,1,17.29,3.51a1,1,0,0,1-1.05,1.7A8,8,0,0,0,4,12.23a8.18,8.18,0,0,0,.32,2A8,8,0,0,0,12.23,20a8.11,8.11,0,0,0,2-.32A8,8,0,0,0,20,11.77a8.18,8.18,0,0,0-.32-2A1,1,0,1,1,21.6,9.2a10.27,10.27,0,0,1,.4,2.51,10,10,0,0,1-7.2,9.89A10.27,10.27,0,0,1,12.29,22Z"/>
  <path d="M9.5,18.5H9.41A1,1,0,0,1,8.64,18l-3-5a1,1,0,0,1,1.72-1L9.65,15.8,21.74,1.85a1,1,0,1,1,1.52,1.3l-13,15A1,1,0,0,1,9.5,18.5Z"/>
</svg>
