<!-- Generated by IcoMoon.io -->
<svg version="1.1" xmlns="http://www.w3.org/2000/svg" width="39" height="64" viewBox="0 0 39 64">
<title>s_logo_sso_button_orange_22x362</title>
<path fill="#fff" d="M0.089 59.378c3.289 2.044 9.867 3.822 16.267 3.822 15.378 0 22.667-8.356 22.667-18.044 0-8.622-4.978-13.867-15.378-17.778-8-3.111-11.467-5.244-11.467-9.867 0-3.556 2.933-7.2 9.867-7.2 5.6 0 9.778 1.689 12 2.844l2.578-8.8c-3.111-1.6-7.822-3.022-14.311-3.022-13.067 0-21.244 7.378-21.244 17.244 0 8.622 6.311 13.867 16.267 17.422 7.556 2.756 10.578 5.422 10.578 9.956 0 4.889-3.911 8.178-10.844 8.178-5.6 0-11.022-1.778-14.489-3.822l-2.489 9.067z"></path>
</svg>
