<svg xmlns="http://www.w3.org/2000/svg" viewBox="0 0 24 24"><defs><style>.cls-1{fill:none;}</style></defs><title>assignment_started_alt</title><g id="assignment_started_alt"><path d="M7.5,15.5A8,8,0,0,1,21,9.7V6a2,2,0,0,0-2-2H14.82A3,3,0,0,0,9.18,4H5A2,2,0,0,0,3,6V20a2,2,0,0,0,2,2h5.85A8,8,0,0,1,7.5,15.5ZM12,4a1,1,0,1,1-1,1A1,1,0,0,1,12,4Z"/><path d="M15.5,10A5.5,5.5,0,1,1,10,15.5,5.51,5.51,0,0,1,15.5,10m0-1.5a7,7,0,1,0,7,7,7,7,0,0,0-7-7Z"/><path d="M19.91,15.5a4.49,4.49,0,0,0-4.5-4.5v4.5l-2.95,3.37A4.43,4.43,0,0,0,15.41,20,4.49,4.49,0,0,0,19.91,15.5Z"/><rect class="cls-1" width="24" height="24"/></g></svg>