<?xml version="1.0" encoding="utf-8"?>
<!-- Generator: Adobe Illustrator 23.0.6, SVG Export Plug-In . SVG Version: 6.00 Build 0)  -->
<svg version="1.1" id="Isolation_Mode" xmlns="http://www.w3.org/2000/svg" xmlns:xlink="http://www.w3.org/1999/xlink" x="0px"
	 y="0px" viewBox="0 0 638.7 720" style="enable-background:new 0 0 638.7 720;" xml:space="preserve">
<g>
	<g>
		<path d="M309.8,122.2v1.4l35.4,10.8c1.2,0.4,2.3,0.7,3.3,1c2.9,0.9,6.1,2,9.9,2.9c36.3,9.1,68.1,28.8,92,57.1
			c23.8,28.3,37.5,62.5,39.7,99.1c1.8,30.8,1,61.8,0.2,94.7c-0.1,5.1-0.3,10.2-0.4,15.3c-1,44.2,14.1,81.9,44.9,112.2
			c8.7,8.5,17,17.7,25.6,27.3c-98-0.1-194.2-0.1-277.4-0.1c-35.4,0-70.8,0-106.2,0c-32.6,0-65.1,0-97.7,0
			c11.6-12.9,23.4-26,35.2-38.7c22.4-24.3,33.8-53.3,33.7-86.2c0-12-0.1-24.1-0.3-35.8c-0.4-33.6-0.8-65.3,1.7-96.7
			c2.8-35.1,16.2-67.6,38.9-94c22.7-26.3,53-44.7,87.6-53.1C281.5,138.2,296.8,134.5,309.8,122.2 M319.5,0
			c-22.7,0-39.4,16.4-40.6,40.4c-0.5,10.5-0.9,21.1,0.1,31.5c1.1,11.8-3.1,16.2-14.9,19.1C173.2,113.1,107,189,99.6,282.8
			c-3.5,45.2-1.6,90.9-1.6,136.4c0,20.4-6.7,37.4-20.5,52.3c-23.4,25.4-46.4,51.2-69.6,76.9c-7.7,8.5-10.4,18.2-5.8,29
			C7.1,588.6,16,593.9,28.1,594c8.7,0,17.5,0,26.2,0c3.5,0,7,0,10.5,0c1.9,0,3.9,0,5.8,0c70.8,0,141.5,0,212.3,0
			c108,0,215.9,0,323.9,0.1c0,0,0,0,0.1,0c12.9,0,23.4-3.4,29.1-15.7c5.7-12.3,1.7-22.7-7.1-32.3c-19.8-21.6-38.3-44.5-59.2-65
			c-21.5-21.2-30.6-45.6-29.9-75.3c0.9-38,2.4-76.2,0.2-114.1c-5.7-97-74.8-178.2-169.5-201.9c-3.3-0.8-6.6-2-10.8-3.3
			c0-15.1,0.2-29.9-0.1-44.8C359.3,17.3,342.9,0.3,320.1,0C319.9,0,319.7,0,319.5,0L319.5,0z"/>
	</g>
	<g>
		<path d="M420.9,620.2c-68.5,0-135.1,0-203.2,0c1.5,37.4,17.4,65.6,48.4,83.9c17.8,10.5,35.8,15.8,53.6,15.8
			c19.5,0,38.9-6.3,57.7-18.8C405.5,682.5,420,655.4,420.9,620.2L420.9,620.2z"/>
	</g>
</g>
</svg>
