<?xml version="1.0" encoding="utf-8"?>
<!-- Generator: Adobe Illustrator 23.0.6, SVG Export Plug-In . SVG Version: 6.00 Build 0)  -->
<svg version="1.1" id="Isolation_Mode" 
  xmlns="http://www.w3.org/2000/svg" 
  xmlns:xlink="http://www.w3.org/1999/xlink" x="0px" y="0px" viewBox="0 0 64 62" style="enable-background:new 0 0 64 62;" xml:space="preserve">
  <g id="languages_1_">
    <g>
      <g>
        <path d="M63,48H1c-0.6,0-1-0.4-1-1v-3c0-1.7,1.3-3,3-3h1v2H3c-0.6,0-1,0.4-1,1v2h60v-2c0-0.6-0.4-1-1-1h-1v-2h1
				c1.7,0,3,1.3,3,3v3C64,47.6,63.6,48,63,48z"/>
      </g>
      <g>
        <g>
          <path d="M15,62c-0.2,0-0.4-0.1-0.5-0.2c-0.5-0.3-0.6-0.9-0.3-1.4l8-12.5h-3.6L9.8,61.5c-0.3,0.5-0.9,0.6-1.4,0.3
					c-0.5-0.3-0.6-0.9-0.3-1.4l9-14c0.2-0.3,0.5-0.5,0.8-0.5h6c0.4,0,0.7,0.2,0.9,0.5c0.2,0.3,0.2,0.7,0,1l-9,14
					C15.6,61.8,15.3,62,15,62z"/>
        </g>
        <g>
          <path d="M55,62c-0.3,0-0.7-0.2-0.8-0.5L45.5,48h-3.6l8,12.5c0.3,0.5,0.2,1.1-0.3,1.4c-0.5,0.3-1.1,0.2-1.4-0.3
					l-9-14c-0.2-0.3-0.2-0.7,0-1c0.2-0.3,0.5-0.5,0.9-0.5h6c0.3,0,0.7,0.2,0.8,0.5l9,14c0.3,0.5,0.2,1.1-0.3,1.4
					C55.4,61.9,55.2,62,55,62z"/>
        </g>
        <g>
          <path d="M45,56H19c-0.6,0-1-0.4-1-1s0.4-1,1-1h26c0.6,0,1,0.4,1,1S45.6,56,45,56z"/>
        </g>
      </g>
      <g>
        <path d="M61,43H12c-0.6,0-1-0.4-1-1s0.4-1,1-1h48V2H4v39h1c0.6,0,1,0.4,1,1s-0.4,1-1,1H3c-0.6,0-1-0.4-1-1V1
				c0-0.6,0.4-1,1-1h58c0.6,0,1,0.4,1,1v41C62,42.6,61.6,43,61,43z"/>
      </g>
      <g>
        <path d="M55,43H45c-0.6,0-1-0.4-1-1v-2c0-1.7,1.3-3,3-3h6c1.7,0,3,1.3,3,3v2C56,42.6,55.6,43,55,43z M46,41h8v-1
				c0-0.6-0.4-1-1-1h-6c-0.6,0-1,0.4-1,1V41z"/>
      </g>
    </g>
  </g>
</svg>
