<?xml version="1.0" encoding="utf-8"?>
<!-- Generator: Adobe Illustrator 23.0.6, SVG Export Plug-In . SVG Version: 6.00 Build 0)  -->
<svg version="1.1" id="Icon" xmlns="http://www.w3.org/2000/svg" xmlns:xlink="http://www.w3.org/1999/xlink" x="0px" y="0px"
	 viewBox="0 0 46 50" style="enable-background:new 0 0 46 50;" xml:space="preserve">
<g>
	<path class="st0" d="M44,6v42H4c-1.1,0-2-0.9-2-2s0.9-2,2-2h38V0H3C1.3,0,0,1.3,0,3v43c0,2.2,1.8,4,4,4h42V6H44z M40,2v40H8V2H40z
		 M3,2h3v40H4c-0.7,0-1.4,0.2-2,0.6V3C2,2.4,2.4,2,3,2z"/>
	<rect x="12" y="16" class="st0" width="24" height="2"/>
	<rect x="12" y="10" class="st0" width="24" height="2"/>
	<rect x="12" y="22" class="st0" width="20" height="2"/>
</g>
</svg>
