<!-- Generated by IcoMoon.io -->
<svg version="1.1" xmlns="http://www.w3.org/2000/svg" width="64" height="64" viewBox="0 0 64 64">
<title>cancel</title>
<path d="M32 0c-17.645 0-32 14.355-32 32s14.355 32 32 32 32-14.355 32-32-14.355-32-32-32zM32 61.541c-16.289 0-29.541-13.252-29.541-29.541 0-16.291 13.252-29.543 29.541-29.543s29.541 13.254 29.541 29.543c0 16.289-13.252 29.541-29.541 29.541z"></path>
<path d="M50.477 17.437l-3.871-3.869-14.375 14.375-14.373-14.375-3.871 3.869 14.375 14.375-14.375 14.373 3.871 3.871 14.373-14.375 14.375 14.375 3.871-3.871-14.375-14.373z"></path>
</svg>
