<?xml version="1.0" encoding="utf-8"?>
<!-- Generator: Adobe Illustrator 23.0.6, SVG Export Plug-In . SVG Version: 6.00 Build 0)  -->
<svg version="1.1" id="Laag_1" xmlns="http://www.w3.org/2000/svg" xmlns:xlink="http://www.w3.org/1999/xlink" x="0px" y="0px"
	 viewBox="0 0 64 64" style="enable-background:new 0 0 64 64;" xml:space="preserve">
<title>cancel</title>
<path d="M32,0C14.4,0,0,14.4,0,32s14.4,32,32,32s32-14.4,32-32S49.6,0,32,0z M32,61.5C15.7,61.5,2.5,48.3,2.5,32
	C2.5,15.7,15.7,2.5,32,2.5S61.5,15.7,61.5,32S48.3,61.5,32,61.5z"/>
<path d="M50.5,17.4l-3.9-3.9L32.2,27.9L17.9,13.6L14,17.4l14.4,14.4L14,46.2l3.9,3.9l14.4-14.4l14.4,14.4l3.9-3.9L36.1,31.8
	L50.5,17.4z"/>
</svg>
