<!-- Generated by IcoMoon.io -->
<svg version="1.1" xmlns="http://www.w3.org/2000/svg" width="64" height="64" viewBox="0 0 64 64">
<title>clock2</title>
<path d="M42.065 19.679l-8.072 8.394c-0.601-0.306-1.272-0.495-1.994-0.495-0.795 0-1.53 0.227-2.174 0.593l-13.459-12.944-2.868 2.983 14.101 13.562c-0.004 0.078-0.023 0.153-0.023 0.231 0 2.442 1.98 4.424 4.424 4.424 2.442 0 4.424-1.98 4.424-4.424 0-0.151-0.029-0.293-0.045-0.44l8.669-9.014-2.983-2.87z"></path>
<path d="M32 0c-17.645 0-32 14.357-32 32s14.355 32 32 32 32-14.355 32-32-14.355-32-32-32zM32 61.543c-16.289 0-29.541-13.252-29.541-29.541 0-16.291 13.254-29.543 29.541-29.543s29.541 13.252 29.541 29.541c0 16.291-13.252 29.543-29.541 29.543z"></path>
<path d="M30.631 5.351h2.74v6.953h-2.74v-6.953z"></path>
<path d="M30.631 51.7h2.74v6.951h-2.74v-6.951z"></path>
<path d="M51.698 30.631h6.951v2.74h-6.951v-2.74z"></path>
<path d="M5.349 30.631h6.951v2.74h-6.951v-2.74z"></path>
</svg>
