<?xml version="1.0" encoding="utf-8"?>
<!-- Generator: Adobe Illustrator 23.0.6, SVG Export Plug-In . SVG Version: 6.00 Build 0)  -->
<svg version="1.1" id="Layer_1" 
  xmlns="http://www.w3.org/2000/svg" 
  xmlns:xlink="http://www.w3.org/1999/xlink" x="0px" y="0px" viewBox="0 0 120.3 105.8" style="enable-background:new 0 0 120.3 105.8;" xml:space="preserve">

  <g>
    <path d="M57.5,105.8H46V0h11.5V105.8z M49,102.8h5.5V3H49V102.8z M90,61H60.1V38H90l13.6,11.5L90,61z M63.1,58h25.8
		l10-8.5l-10-8.5H63.1V58z M43.5,47.6H13.6L0.1,36.1l13.6-11.5h29.9V47.6z M14.8,44.6h25.7v-17H14.8l-10,8.5L14.8,44.6z M106.6,34.2
		H60.1v-23h46.5l13.6,11.5L106.6,34.2z M63.1,31.2h42.5l10-8.5l-10-8.5H63.1V31.2z"/>
  </g>
</svg>
