<?xml version="1.0" encoding="utf-8"?>
<!-- Generator: Adobe Illustrator 23.0.6, SVG Export Plug-In . SVG Version: 6.00 Build 0)  -->
<svg version="1.1" id="Isolation_Mode" xmlns="http://www.w3.org/2000/svg" xmlns:xlink="http://www.w3.org/1999/xlink" x="0px"
	 y="0px" viewBox="0 0 819.9 720" style="enable-background:new 0 0 819.9 720;" xml:space="preserve">
<g>
	<path d="M610,64c39.1,0,75.8,15.1,103.3,42.4c27.4,27.2,42.5,63.3,42.5,101.6c0,44.9-17.3,95.1-51.5,149.4
		c-30,47.6-72.5,97.6-126.4,148.7c-65.1,61.7-130.9,110-169.7,136.7c-38.4-26.7-103.6-75-167.9-136.6
		c-53.4-51.1-95.5-101.1-125.2-148.7C81.2,303.3,64,253,64,208c0-38.5,15-74.6,42.2-101.8C133.4,79,169.5,64,208,64
		c32,0,62.3,10.3,87.5,29.7c24.5,18.9,42.6,45.6,51,75.2c7.8,27.6,32.9,46.6,61.5,46.6c0,0,0,0,0.1,0c28.6,0,53.7-19,61.6-46.5
		c8.4-29.6,26.7-56.2,51.5-75.1C546.8,74.3,577.5,64,610,64 M610,0C513.9,0,433,64.1,408.1,151.5C383.5,64.1,303.3,0,208,0
		C93.1,0,0,93.1,0,208c0,249.8,387.1,498.4,407.6,511.4v0.6c0,0,0.4-0.2,0.5-0.3c0.1,0.1,0.5,0.3,0.5,0.3v-0.6
		c20.5-12.9,411.3-261.5,411.3-511.4C819.9,93.1,725.9,0,610,0L610,0z"/>
</g>
</svg>
