<!-- Generated by IcoMoon.io -->
<svg version="1.1" xmlns="http://www.w3.org/2000/svg" width="64" height="64" viewBox="0 0 64 64">
<title>filter</title>
<path d="M0 3.64c21.382 0 42.643 0 64 0-0.153 0.206-0.242 0.341-0.343 0.46-7.692 9.185-15.385 18.374-23.090 27.545-0.409 0.485-0.572 0.958-0.57 1.648 0.021 7.445 0.023 27.714 0.023 27.714h-16.014c0 0 0 0.231 0 0 0-9.016-0.006-18.766 0.012-27.782 0.002-0.65-0.163-1.092-0.539-1.538-7.703-9.175-15.395-18.36-23.087-27.545-0.107-0.128-0.206-0.264-0.392-0.502z"></path>
</svg>
