<?xml version="1.0" encoding="utf-8"?>
<!-- Generator: Adobe Illustrator 23.0.6, SVG Export Plug-In . SVG Version: 6.00 Build 0)  -->
<svg version="1.1" id="Laag_1" xmlns="http://www.w3.org/2000/svg" xmlns:xlink="http://www.w3.org/1999/xlink" x="0px" y="0px"
	 viewBox="0 0 64 57.5" style="enable-background:new 0 0 64 57.5;" xml:space="preserve">
<title>filter</title>
<path d="M0,0c21.4,0,42.6,0,64,0c-0.2,0.2-0.2,0.3-0.3,0.5C56,9.6,48.3,18.8,40.6,28c-0.4,0.5-0.6,1-0.6,1.6c0,7.4,0,27.7,0,27.7H24
	c0,0,0,0.2,0,0c0-9,0-18.8,0-27.8c0-0.7-0.2-1.1-0.5-1.5C15.8,18.9,8.1,9.7,0.4,0.5C0.3,0.4,0.2,0.2,0,0z"/>
</svg>
