<?xml version="1.0" encoding="utf-8"?>
<!-- Generator: Adobe Illustrator 23.0.6, SVG Export Plug-In . SVG Version: 6.00 Build 0)  -->
<svg version="1.1" id="Layer_2" 
  xmlns="http://www.w3.org/2000/svg" 
  xmlns:xlink="http://www.w3.org/1999/xlink" x="0px" y="0px" viewBox="0 0 40.1 25.6" style="enable-background:new 0 0 40.1 25.6;" xml:space="preserve">
  <g>
    <path d="M34.8,25.6c-3.8,0-8-5.3-9.7-7.6H15c-1.9,2.6-6.8,8.8-10.9,7.4c-5.2-1.8-4.4-15.1-3-19.3
		c1.6-4.7,6.8-7.3,11.6-5.6c1.7,0.6,3.2,1.6,4.3,3.1h6.3c1.1-1.4,2.6-2.5,4.3-3.1c4.7-1.6,9.9,0.9,11.6,5.6l0,0
		c1.4,4.2,2.2,17.4-3,19.3C35.7,25.5,35.3,25.6,34.8,25.6z M14.5,16h11.2c0.3,0,0.6,0.2,0.8,0.4c3.4,4.8,7,7.7,8.9,7.1
		c1.4-0.5,2.4-3.1,2.7-7.1c0.3-3.9-0.3-7.8-0.9-9.6l0,0c-1.3-3.7-5.3-5.7-9-4.4c-1.5,0.5-2.7,1.5-3.6,2.7c-0.2,0.3-0.5,0.4-0.8,0.4
		h-7.4c-0.3,0-0.6-0.2-0.8-0.4c-0.9-1.3-2.1-2.2-3.6-2.7C8.3,1.1,4.2,3.1,3,6.8c-0.6,1.8-1.1,5.8-0.9,9.6c0.3,3.9,1.2,6.6,2.7,7.1
		c1.9,0.7,5.6-2.3,8.9-7.1C13.8,16.2,14.1,16,14.5,16z"/>
  </g>
  <g>
    <g>
      <path d="M31.2,9.2c-1.4,0-2.6-1.2-2.6-2.6S29.8,4,31.2,4c1.4,0,2.6,1.2,2.6,2.6S32.7,9.2,31.2,9.2z M31.2,6
			c-0.3,0-0.6,0.3-0.6,0.6s0.3,0.6,0.6,0.6s0.6-0.3,0.6-0.6S31.6,6,31.2,6z"/>
    </g>
    <g>
      <path d="M31.2,16.7c-1.4,0-2.6-1.2-2.6-2.6s1.2-2.6,2.6-2.6c1.4,0,2.6,1.2,2.6,2.6S32.7,16.7,31.2,16.7z M31.2,13.5
			c-0.3,0-0.6,0.3-0.6,0.6s0.3,0.6,0.6,0.6s0.6-0.3,0.6-0.6S31.6,13.5,31.2,13.5z"/>
    </g>
    <g>
      <path d="M27.5,13c-1.4,0-2.6-1.2-2.6-2.6c0-1.4,1.2-2.6,2.6-2.6s2.6,1.2,2.6,2.6C30.1,11.8,28.9,13,27.5,13z
			 M27.5,9.7c-0.3,0-0.6,0.3-0.6,0.6c0,0.3,0.3,0.6,0.6,0.6s0.6-0.3,0.6-0.6C28.1,10,27.8,9.7,27.5,9.7z"/>
    </g>
    <g>
      <path d="M35,13c-1.4,0-2.6-1.2-2.6-2.6c0-1.4,1.2-2.6,2.6-2.6s2.6,1.2,2.6,2.6C37.6,11.8,36.4,13,35,13z M35,9.7
			c-0.3,0-0.6,0.3-0.6,0.6c0,0.3,0.3,0.6,0.6,0.6s0.6-0.3,0.6-0.6C35.6,10,35.3,9.7,35,9.7z"/>
    </g>
  </g>
  <g>
    <path d="M11.8,16.7H7.9c-0.6,0-1-0.4-1-1v-2.4H4.5c-0.6,0-1-0.4-1-1V8.4c0-0.6,0.4-1,1-1h2.4V5c0-0.6,0.4-1,1-1h3.9
		c0.6,0,1,0.4,1,1v2.4h2.4c0.6,0,1,0.4,1,1v3.9c0,0.6-0.4,1-1,1h-2.4v2.4C12.8,16.3,12.4,16.7,11.8,16.7z M8.9,14.7h1.9v-2.4
		c0-0.6,0.4-1,1-1h2.4V9.4h-2.4c-0.6,0-1-0.4-1-1V6H8.9v2.4c0,0.6-0.4,1-1,1H5.5v1.9h2.4c0.6,0,1,0.4,1,1V14.7z"/>
  </g>
</svg>
