<?xml version="1.0" encoding="utf-8"?>
<!-- Generator: Adobe Illustrator 23.0.6, SVG Export Plug-In . SVG Version: 6.00 Build 0)  -->
<svg version="1.1" id="Isolation_Mode" xmlns="http://www.w3.org/2000/svg" xmlns:xlink="http://www.w3.org/1999/xlink" x="0px"
	 y="0px" viewBox="0 0 720 720" style="enable-background:new 0 0 720 720;" xml:space="preserve">
<g>
	<path d="M154.4,141.7c18.5,15.3,32.6,26.1,45.7,38c13.3,12,12.5,24.1-4.4,31.4c-56.8,24.3-113.7,48.4-171,71.3
		c-16.9,6.8-26.9-2.7-24.3-20.3c8.7-60,18.1-119.9,27.8-179.7c4-24.6,17.1-26.5,35.3-12.4c13.2,10.3,26.4,20.7,41.7,32.8
		c10.8-8.8,20.9-17.3,31.2-25.4c196.9-155.1,488.8-66.5,566.2,172c63.5,195.5-53.3,408.3-251.8,459.1C249.1,760,47,634.2,6.4,431.5
		c-2.6-13.2-6.9-27.8-3.5-39.8c3.4-11.9,14.5-28.2,24.3-29.8c9.8-1.6,23.1,11.6,32.9,20.4c4,3.6,3.2,12.7,4.3,19.3
		c20.1,120.6,86.9,204.2,203,241.7c115.9,37.5,220,9.8,306.5-76.4c110.7-110.5,112.7-290.6,6-408.7
		c-104.5-115.6-285.3-130-405.8-32.4C168.9,130.1,163.7,134.2,154.4,141.7z"/>
	<path d="M390,260.6c30.8,97.7-24.9,158.7-90.9,215.7c-11,9.5-19.3,23.3-31.6,29.7c-9.3,4.9-23.1,1.2-35,1.3
		c1.3-10.8-1.3-25.1,4.7-31.9c28.2-31.9,59.6-60.8,87.7-92.7c9.3-10.6,16.6-26.9,17.1-40.9c2-60.3,1-120.8,1.4-181.2
		c0.1-18-1.2-39.7,24.8-39.1c24.1,0.6,21.7,21.4,21.8,38C390.2,193.4,390,227,390,260.6z"/>
</g>
</svg>
