<svg xmlns="http://www.w3.org/2000/svg" viewBox="0 0 24 24"><defs><style>.cls-1{fill:none;}</style></defs><title>learning_area</title><g id="Laag_5" data-name="Laag 5"><path class="cls-1" d="M0,0H24V24H0Z"/><path d="M20,18.75H18v-1.5h2a.25.25,0,0,0,.25-.25V7A.25.25,0,0,0,20,6.75H4A.25.25,0,0,0,3.75,7V17a.25.25,0,0,0,.25.25h9v1.5H4A1.76,1.76,0,0,1,2.25,17V7A1.76,1.76,0,0,1,4,5.25H20A1.76,1.76,0,0,1,21.75,7V17A1.76,1.76,0,0,1,20,18.75Z"/><rect x="5" y="8.25" width="6" height="1.5"/><rect x="5" y="11.25" width="6" height="1.5"/><rect x="5" y="14.25" width="6" height="1.5"/><path d="M15.5,16A2.5,2.5,0,1,1,18,13.5,2.5,2.5,0,0,1,15.5,16Zm0-4A1.5,1.5,0,1,0,17,13.5,1.5,1.5,0,0,0,15.5,12Z"/><polygon points="18 22 15.5 20.13 13 22 13 13.69 14 13.69 14 20 15.5 18.88 17 20 17 13.69 18 13.69 18 22"/></g></svg>