<?xml version="1.0" encoding="utf-8"?>
<!-- Generator: Adobe Illustrator 23.0.6, SVG Export Plug-In . SVG Version: 6.00 Build 0)  -->
<svg version="1.1" id="_x2014_ÎÓÈ_x5F_2" xmlns="http://www.w3.org/2000/svg" xmlns:xlink="http://www.w3.org/1999/xlink"
	 x="0px" y="0px" viewBox="0 0 98.9 136.5" style="enable-background:new 0 0 98.9 136.5;" xml:space="preserve">
<g>
	<path d="M96.6,23.4L55.8,1.6c-1-0.5-1.8,0-1.8,1.1v2.8c0,1.1,0.8,2.4,1.8,2.9l33.9,18.1L55.9,39c-1,0.4-1.9,1.6-1.9,2.7v2.4
		c0,1.1,0.8,1.7,1.9,1.3l40.3-14.9c1.6-0.6,2.7-1.9,2.8-3.4C99,25.6,98.2,24.2,96.6,23.4z"/>
	<path d="M58.8,96.1c-1.1-0.1-2,0.7-2,1.8v2.1c0,1.1,0.9,2.1,2,2.2c17.3,2,29.2,8.2,29.2,13.8c0,6.8-17.5,14.5-41,14.5
		S6,122.8,6,116c0-6.5,16.1-13.8,38-14.5v4.7c-11.3,0.4-23.2,3.1-23.2,9.7c0,7.2,14.1,9.8,26.2,9.8s26.2-2.6,26.2-9.8
		c0-4.9-6.5-7.6-14.4-8.9c-1.1-0.2-2,0.6-2,1.7v2.1c0,1.1,0.9,2.1,2,2.3c4.4,0.8,7.1,2,8.1,2.8c-1.7,1.4-8.4,3.8-20,3.8
		c-11.5,0-18.3-2.4-20-3.8c1.5-1.2,7.3-3.3,17-3.7v3.3c0,1.1,0.9,2,2,2h2c1.1,0,2-0.9,2-2v-3.3v-6v-4.7v-6V2c0-1.1-0.9-2-2-2h-2
		c-1.1,0-2,0.9-2,2v93.5C18.7,96.1,0,104.7,0,116c0,11.7,20.2,20.5,47,20.5c26.8,0,47-8.8,47-20.5C94,106.1,79.5,98.2,58.8,96.1z"/>
</g>
</svg>
