<?xml version="1.0" encoding="utf-8"?>
<!-- Generator: Adobe Illustrator 23.0.6, SVG Export Plug-In . SVG Version: 6.00 Build 0)  -->
<svg version="1.1" id="Isolation_Mode" xmlns="http://www.w3.org/2000/svg" xmlns:xlink="http://www.w3.org/1999/xlink" x="0px"
	 y="0px" viewBox="0 0 719.2 720" style="enable-background:new 0 0 719.2 720;" xml:space="preserve">
<path d="M706.7,647.5L570.4,511c-6.1-6.1-13.6-9.9-21.4-11.6c43.1-54.2,66.5-121,66.5-191.3c0-82.3-32-159.7-90.1-217.9
	C467.2,32,389.9,0,307.7,0C225.5,0,148.3,32,90.1,90.2C32,148.4,0,225.8,0,308.1s32,159.7,90.1,217.9
	c58.1,58.2,135.4,90.2,217.6,90.2c70.3,0,136.9-23.4,191.1-66.6c1.6,7.8,5.5,15.3,11.5,21.4l136.4,136.5c8.3,8.3,19.1,12.4,30,12.4
	s21.7-4.1,30-12.4C723.3,691,723.3,664.1,706.7,647.5z M307.7,536.9c-61,0-118.4-23.8-161.6-67C103,426.7,79.2,369.2,79.2,308.1
	c0-61.1,23.8-118.6,66.9-161.8c43.2-43.2,100.6-67,161.6-67c61,0,118.4,23.8,161.6,67c43.2,43.2,66.9,100.7,66.9,161.8
	c0,61.1-23.8,118.6-66.9,161.8C426.2,513.1,368.8,536.9,307.7,536.9z"/>
</svg>
