<!-- Generated by IcoMoon.io -->
<svg version="1.1" xmlns="http://www.w3.org/2000/svg" width="64" height="64" viewBox="0 0 64 64">
<title>magnifier</title>
<path d="M52.133 25.984c-0.082 2.237-0.393 4.36-0.912 6.401-0.619 2.45-1.611 4.788-2.908 6.92 0.005-0.018-0.030 0.097-0.030 0.221 0 0.236 0.128 0.442 0.318 0.553l6.958 6.957c2.25 2.25 4.52 4.499 6.749 6.769 1.032 1.071 1.668 2.529 1.668 4.137 0 2.629-1.7 4.86-4.061 5.654-0.63 0.24-1.31 0.373-2.021 0.373-1.569 0-2.987-0.643-4.005-1.68-3.468-3.365-6.873-6.832-10.32-10.32l-3.323-3.323c-0.141-0.224-0.387-0.371-0.667-0.371-0.205 0-0.391 0.078-0.531 0.207-1.936 1.152-4.176 2.093-6.549 2.705-2.108 0.571-4.324 0.877-6.61 0.877-0.279 0-0.556-0.005-0.832-0.014-2.326-0.13-4.546-0.528-6.663-1.166-2.962-0.892-5.712-2.34-8.107-4.219-3.579-2.727-6.408-6.372-8.14-10.584-1.069-2.529-1.778-5.264-2.055-8.125-0.053-0.671-0.078-1.32-0.078-1.974 0-1.31 0.1-2.596 0.293-3.852 0.398-2.878 1.306-5.607 2.626-8.082 1.769-3.378 4.233-6.317 7.204-8.637 2.115-1.673 4.503-3.003 7.089-3.913 2.073-0.719 4.286-1.208 6.578-1.427 0.743-0.064 1.472-0.095 2.209-0.095 1.308 0 2.593 0.099 3.847 0.29 2.83 0.396 5.516 1.273 7.964 2.545 2.853 1.463 5.395 3.426 7.519 5.773 2.127 2.348 3.826 5.089 4.976 8.101 1.1 2.878 1.737 6.003 1.813 9.266zM25.963 44.105c0.037 0 0.080 0 0.124 0 9.899 0 17.929-8.001 17.976-17.89 0-0.026 0-0.051 0-0.077 0-9.951-8.067-18.018-18.018-18.018-9.925 0-17.976 8.026-18.017 17.941-0 0.028-0 0.057-0 0.087 0 9.909 8.027 17.944 17.934 17.956z"></path>
</svg>
