<?xml version="1.0" encoding="UTF-8" standalone="no"?>
<svg
   xmlns:dc="http://purl.org/dc/elements/1.1/"
   xmlns:cc="http://creativecommons.org/ns#"
   xmlns:rdf="http://www.w3.org/1999/02/22-rdf-syntax-ns#"
   xmlns:svg="http://www.w3.org/2000/svg"
   xmlns="http://www.w3.org/2000/svg"
   viewBox="0 0 103.7444 77.633598"
   height="77.633598"
   width="103.7444"
   xml:space="preserve"
   id="svg2"
   version="1.1"><metadata
     id="metadata8"><rdf:RDF><cc:Work
         rdf:about=""><dc:format>image/svg+xml</dc:format><dc:type
           rdf:resource="http://purl.org/dc/dcmitype/StillImage" /></cc:Work></rdf:RDF></metadata><defs
     id="defs6"></defs><g
     transform="matrix(1.3333333,0,0,-1.3333333,0,77.6336)"
     id="g10"><g
       id="g12"><g
         id="g14"><g
           transform="translate(16.8082,40.0722)"
           id="g20"><path
             id="path22"
             style="fill:none;stroke-width:2;stroke-linecap:butt;stroke-linejoin:miter;stroke-miterlimit:10;stroke-dasharray:none;stroke-opacity:1"
             d="M 0,0 V 2.032 C 0,2.854 -0.666,3.52 -1.487,3.52 h -8.54 c -0.821,0 -1.487,-0.666 -1.487,-1.488 V 0 c 0,-0.821 0.666,-1.487 1.487,-1.487 h 8.54 C -0.666,-1.487 0,-0.821 0,0 Z m 1.612,-39.056 h -14.737 c -1.482,0 -2.683,1.201 -2.683,2.682 v 48.776 c 0,1.481 1.201,2.682 2.683,2.682 H 1.612 c 1.481,0 2.682,-1.201 2.682,-2.682 v -48.776 c 0,-1.481 -1.201,-2.682 -2.682,-2.682 z" /></g><g
           transform="translate(41.5904,40.0722)"
           id="g24"><path
             id="path26"
             style="fill:none;stroke-width:2;stroke-linecap:butt;stroke-linejoin:miter;stroke-miterlimit:10;stroke-dasharray:none;stroke-opacity:1"
             d="M 0,0 V 2.032 C 0,2.854 -0.666,3.52 -1.487,3.52 h -8.54 c -0.821,0 -1.487,-0.666 -1.487,-1.488 V 0 c 0,-0.821 0.666,-1.487 1.487,-1.487 h 8.54 C -0.666,-1.487 0,-0.821 0,0 Z m 1.612,-39.056 h -14.737 c -1.482,0 -2.683,1.201 -2.683,2.682 v 48.776 c 0,1.481 1.201,2.682 2.683,2.682 H 1.612 c 1.481,0 2.682,-1.201 2.682,-2.682 v -48.776 c 0,-1.481 -1.201,-2.682 -2.682,-2.682 z" /></g><g
           transform="translate(64.1744,42.1029)"
           id="g28"><path
             id="path30"
             style="fill:none;stroke-width:2;stroke-linecap:butt;stroke-linejoin:miter;stroke-miterlimit:10;stroke-dasharray:none;stroke-opacity:1"
             d="m 0,0 -0.468,1.977 c -0.19,0.799 -0.991,1.294 -1.79,1.105 l -8.31,-1.968 c -0.799,-0.19 -1.294,-0.991 -1.104,-1.791 l 0.467,-1.976 c 0.19,-0.8 0.992,-1.295 1.791,-1.105 l 8.31,1.967 C -0.305,-1.601 0.189,-0.799 0,0 Z m 10.569,-37.634 -14.34,-3.396 c -1.442,-0.342 -2.888,0.551 -3.229,1.992 L -18.241,8.424 c -0.341,1.442 0.551,2.888 1.992,3.229 l 14.341,3.396 c 1.442,0.342 2.887,-0.55 3.228,-1.992 l 11.241,-47.462 c 0.341,-1.442 -0.55,-2.887 -1.992,-3.229 z" /></g></g></g></g></svg>