<?xml version="1.0" encoding="utf-8"?>
<!-- Generator: Adobe Illustrator 23.0.6, SVG Export Plug-In . SVG Version: 6.00 Build 0)  -->
<svg version="1.1" id="Layer_1" xmlns="http://www.w3.org/2000/svg" xmlns:xlink="http://www.w3.org/1999/xlink" x="0px" y="0px"
	 viewBox="0 0 77.8 58.2" style="enable-background:new 0 0 77.8 58.2;" xml:space="preserve">
<g>
	<path d="M18.4,58.2H3.7c-2,0-3.7-1.7-3.7-3.7V5.8c0-2,1.7-3.7,3.7-3.7h14.7c2,0,3.7,1.7,3.7,3.7v48.8
		C22.1,56.6,20.4,58.2,18.4,58.2z M3.7,4.1C2.7,4.1,2,4.8,2,5.8v48.7c0,1,0.7,1.7,1.7,1.7h14.7c0.9,0,1.7-0.7,1.7-1.6V5.8
		c0-1-0.7-1.7-1.7-1.7H3.7z M15.4,20.7H6.8c-1.4,0-2.5-1.1-2.5-2.5v-2c0-1.4,1.1-2.5,2.5-2.5h8.5c1.4,0,2.5,1.1,2.5,2.5v2
		C17.8,19.5,16.8,20.5,15.4,20.7L15.4,20.7z M6.8,15.7c-0.2,0-0.5,0.3-0.5,0.5v2c0,0.2,0.3,0.5,0.5,0.5h8.4c0.3-0.1,0.6-0.2,0.6-0.5
		v-2c0-0.2-0.3-0.5-0.5-0.5H6.8z"/>
</g>
<g>
	<path d="M43.2,58.2H28.5c-2,0-3.7-1.7-3.7-3.7V5.8c0-2,1.7-3.7,3.7-3.7h14.7c2,0,3.7,1.7,3.7,3.7v48.8
		C46.9,56.6,45.2,58.2,43.2,58.2z M28.5,4.1c-1,0-1.7,0.7-1.7,1.7v48.7c0,1,0.7,1.7,1.7,1.7h14.7c0.9,0,1.7-0.7,1.7-1.6V5.8
		c0-1-0.7-1.7-1.7-1.7H28.5z M40.2,20.7h-8.6c-1.4,0-2.5-1.1-2.5-2.5v-2c0-1.4,1.1-2.5,2.5-2.5h8.5c1.4,0,2.5,1.1,2.5,2.5v2
		C42.6,19.5,41.6,20.5,40.2,20.7L40.2,20.7z M31.6,15.7c-0.2,0-0.5,0.3-0.5,0.5v2c0,0.2,0.3,0.5,0.5,0.5H40c0.3-0.1,0.6-0.2,0.6-0.5
		v-2c0-0.2-0.3-0.5-0.5-0.5H31.6z"/>
</g>
<g>
	<path d="M59.9,58.3c-1.7,0-3.3-1.2-3.6-2.8L44.9,7.9c-0.2-0.9,0-1.9,0.5-2.8c0.5-0.9,1.3-1.4,2.3-1.6L62,0.1c2-0.4,4,0.8,4.4,2.8
		l11.2,47.4c0.3,0.9,0.2,1.8-0.2,2.6c-0.5,0.9-1.3,1.6-2.4,1.9l0,0l-14.3,3.4C60.4,58.2,60.1,58.3,59.9,58.3z M62.7,2
		c-0.1,0-0.2,0-0.3,0L48.1,5.5c-0.4,0.1-0.8,0.4-1,0.7c-0.2,0.4-0.3,0.9-0.2,1.3L58.2,55c0.2,0.9,1.1,1.4,2,1.3l14.3-3.4
		c0.5-0.1,0.9-0.4,1.1-0.9c0.1-0.2,0.2-0.6,0.1-1l0-0.1L64.4,3.3C64.3,2.6,63.5,2,62.7,2z M54.4,20.9c-1.1,0-2.1-0.8-2.4-1.9l-0.5-2
		c-0.2-0.6-0.1-1.3,0.3-1.9c0.3-0.6,0.9-1,1.5-1.1l8.3-2c0.6-0.2,1.3-0.1,1.9,0.3c0.6,0.3,1,0.9,1.1,1.5l0.5,2
		c0.2,0.6,0.1,1.3-0.3,1.9c-0.3,0.6-0.9,1-1.5,1.1l-8.3,2C54.8,20.9,54.6,20.9,54.4,20.9z M62.3,14c0,0-0.1,0-0.1,0l-8.3,2
		c-0.1,0-0.2,0.1-0.3,0.2c0,0.1-0.1,0.2-0.1,0.4l0.5,2c0.1,0.3,0.3,0.4,0.6,0.4l8.3-2c0.1,0,0.2-0.1,0.3-0.2c0-0.1,0.1-0.2,0.1-0.4
		l-0.5-2c0-0.1-0.1-0.2-0.2-0.3C62.4,14,62.4,14,62.3,14z"/>
</g>
</svg>
