<?xml version="1.0" encoding="utf-8"?>
<!-- Generator: Adobe Illustrator 23.0.6, SVG Export Plug-In . SVG Version: 6.00 Build 0)  -->
<svg version="1.1" id="Isolation_Mode" xmlns="http://www.w3.org/2000/svg" xmlns:xlink="http://www.w3.org/1999/xlink" x="0px"
	 y="0px" viewBox="0 0 621.1 720" style="enable-background:new 0 0 621.1 720;" xml:space="preserve">
<g>
	<g>
		<path d="M313.7,54c28.3,0.1,51.1,9.3,67.7,27.3c19.9,21.7,30.5,55.7,30.5,98.5c0,15.4-0.7,48.4-1.2,54.8
			c-3.1,29.9-11.4,56-24.2,75.5c-3.6,5.5-7.5,10.5-11.7,14.9l-0.1,0.1l-0.6,0.6c-5.6,5.7-11.7,10.5-18.3,14.2
			c-12.1,6.9-25.8,10.4-40.9,10.4h-7.3c-15.2,0-29.1-3.6-41.4-10.5c-6.6-3.8-12.9-8.6-18.5-14.3l-0.1-0.1l-0.1-0.1l-0.4-0.4
			l-0.2-0.2c-4.3-4.4-8.3-9.4-11.9-14.9c-12.9-19.5-21.3-45.6-24.4-75.3c-0.6-6.4-1.2-39.4-1.2-54.8c0-42.7,10.5-76.8,30.5-98.5
			c16.6-18,39.3-27.2,67.6-27.3H313.7 M313.7,0h-6.4C263.9,0.1,226.8,15.6,200,44.7c-29.3,31.8-44.7,78.5-44.7,135
			c0,13.5,0.6,51.6,1.5,60.2c4,38.9,15.3,72.8,33.1,99.7c5.5,8.3,11.5,15.9,18.2,22.8c0.3,0.4,0.7,0.7,1,1.1
			c9.2,9.4,19.4,17.2,30.4,23.4c20.3,11.5,43.2,17.4,67.9,17.5h7.4c24.6-0.1,47.4-6,67.6-17.5c10.9-6.2,21-14,30.2-23.4
			c0.3-0.3,0.6-0.6,1-1c6.6-6.9,12.7-14.5,18.1-22.9c17.6-26.9,28.8-60.8,32.7-99.7c0.9-8.6,1.5-46.6,1.5-60.2
			c0-56.5-15.5-103.2-44.7-135C394.2,15.6,357.1,0.1,313.7,0L313.7,0z"/>
	</g>
	<g>
		<path d="M137,465.6c19.8,20,41.9,36.1,65.9,48.2c32.4,16.3,67.4,24.5,103.9,24.6h0.1h0.1h7.9h0.1h0.1
			c36.5-0.1,71.4-8.4,103.8-24.7c23.9-12,45.8-28.1,65.5-48.1c14.2,5.1,26.2,11.2,36,18.1c15.3,10.8,25.8,24.1,33.2,41.8
			c6.9,16.6,11.1,36.9,12.8,61.6c-34.6,22.9-71.1,41.1-109,54.2c-47.5,16.4-96.8,24.7-146.7,24.7c-49.9,0-99.2-8.3-146.7-24.7
			c-37.9-13.1-74.4-31.2-109-54.2c1.7-24.7,5.9-45,12.8-61.6c7.4-17.8,17.9-31,33.2-41.8C110.7,476.8,122.8,470.7,137,465.6
			 M155.1,404.1c-35.3,8.1-63.4,19.9-85.5,35.5c-23.7,16.7-40.6,38-51.9,65.3C5.8,533.7,0,569.2,0,613.4c0,0.4,0,0.8,0,1.2
			C90,681.4,196.4,720,310.5,720c114.1,0,220.5-38.6,310.5-105.4c0-0.4,0-0.8,0-1.2c0-44.2-5.8-79.7-17.8-108.5
			c-11.3-27.2-28.3-48.6-51.9-65.3c-22.1-15.6-50.2-27.3-85.4-35.5c-1.8,2.4-3.7,4.8-5.5,7.1c-19.1,23.5-41.3,41.7-66,54.2
			c-24.8,12.5-51.6,18.9-79.6,18.9h0h-7.8c-28.1-0.1-54.9-6.4-79.8-18.9c-24.8-12.4-47.1-30.6-66.3-54.1
			C158.9,409,157,406.6,155.1,404.1L155.1,404.1z"/>
	</g>
</g>
</svg>
