<svg xmlns="http://www.w3.org/2000/svg" viewBox="0 0 24 24">
  <defs>
    <style>
      .fill {
        fill: #fff;
        opacity: 0;
      }
    </style>
  </defs>
  <polyline
    class="fill"
    points="10.11 10.05 11.99 5.58 13.89 10.06 18.75 10.48 15.07 13.68 16.18 18.42 11.99 15.89 7.82 18.41 8.93 13.66 5.25 10.47 10.11 10.05"
  />
  <path
    d="M22,9.74l-7.19-.62L12,2.5,9.19,9.13,2,9.74l5.46,4.73-1.64,7L12,17.77l6.18,3.73-1.63-7ZM12,15.9,8.24,18.17l1-4.28L5.92,11l4.38-.38,1.7-4,1.71,4,4.38.38L14.77,13.9l1,4.28Z"
  />
  <path d="M0 0h24v24H0z" fill="none" />
</svg>
