<?xml version="1.0" encoding="UTF-8" standalone="no"?>
<svg
   xmlns:dc="http://purl.org/dc/elements/1.1/"
   xmlns:cc="http://creativecommons.org/ns#"
   xmlns:rdf="http://www.w3.org/1999/02/22-rdf-syntax-ns#"
   xmlns:svg="http://www.w3.org/2000/svg"
   xmlns="http://www.w3.org/2000/svg"
   viewBox="0 0 601.33331 614.66669"
   height="614.66669"
   width="601.33331"
   xml:space="preserve"
   id="svg2"
   version="1.1"><metadata
     id="metadata8"><rdf:RDF><cc:Work
         rdf:about=""><dc:format>image/svg+xml</dc:format><dc:type
           rdf:resource="http://purl.org/dc/dcmitype/StillImage" /></cc:Work></rdf:RDF></metadata><defs
     id="defs6"></defs><g
     transform="matrix(1.3333333,0,0,-1.3333333,0,614.66667)"
     id="g10"><g
       id="g12"><g
         id="g14"><g
           transform="translate(443.5)"
           id="g20"><path
             id="path22"
             style="fill-opacity:1;fill-rule:nonzero;stroke:none"
             d="m 0,0 h -436 c -4.143,0 -7.5,3.358 -7.5,7.5 0,4.142 3.357,7.5 7.5,7.5 H 0 C 4.143,15 7.5,11.642 7.5,7.5 7.5,3.358 4.143,0 0,0" /></g><g
           transform="translate(175.5,1)"
           id="g24"><path
             id="path26"
             style="fill-opacity:1;fill-rule:nonzero;stroke:none"
             d="m 0,0 c -4.143,0 -7.5,3.358 -7.5,7.5 v 183.334 h -77 V 7.5 C -84.5,3.358 -87.857,0 -92,0 c -4.143,0 -7.5,3.358 -7.5,7.5 v 190.834 c 0,4.143 3.357,7.5 7.5,7.5 H 0 c 4.143,0 7.5,-3.357 7.5,-7.5 V 7.5 C 7.5,3.358 4.143,0 0,0" /></g><g
           transform="translate(367.5,1)"
           id="g28"><path
             id="path30"
             style="fill-opacity:1;fill-rule:nonzero;stroke:none"
             d="m 0,0 c -4.143,0 -7.5,3.358 -7.5,7.5 v 339.523 h -77 V 7.5 C -84.5,3.358 -87.857,0 -92,0 c -4.143,0 -7.5,3.358 -7.5,7.5 v 347.023 c 0,4.143 3.357,7.5 7.5,7.5 H 0 c 4.143,0 7.5,-3.357 7.5,-7.5 V 7.5 C 7.5,3.358 4.143,0 0,0" /></g><g
           transform="translate(134.5166,269)"
           id="g32"><path
             id="path34"
             style="fill-opacity:1;fill-rule:nonzero;stroke:none"
             d="m 0,0 h -10.585 l 5.244,14.621 z m 25.509,-15.527 c 0,0 -18.162,45.037 -18.685,46.309 -0.59,1.43 -1.324,2.788 -2.183,4.034 -1,1.45 -2.319,2.644 -3.92,3.551 -1.66,0.94 -3.679,1.416 -5.999,1.416 -2.292,0 -4.297,-0.476 -5.958,-1.416 -1.613,-0.913 -2.939,-2.134 -3.94,-3.626 -0.861,-1.283 -1.669,-2.882 -2.4,-4.752 0,0 -19.259,-48.963 -19.579,-49.987 -0.38,-1.218 -0.573,-2.43 -0.573,-3.603 0,-2.327 0.972,-4.483 2.809,-6.234 1.798,-1.714 4.009,-2.621 6.396,-2.621 3.618,0 5.556,1.564 6.545,2.877 1.044,1.385 5.806,13.579 5.806,13.579 H 5.717 c 0,0 5.172,-12.444 5.832,-13.28 0.766,-0.969 1.723,-1.748 2.847,-2.31 1.145,-0.573 2.479,-0.865 3.963,-0.865 2.527,0 4.809,0.946 6.601,2.736 1.789,1.79 2.734,3.936 2.734,6.206 0,1.87 -0.698,4.416 -2.185,7.986" /></g><g
           transform="translate(310.5,419)"
           id="g36"><path
             id="path38"
             style="fill-opacity:1;fill-rule:nonzero;stroke:none"
             d="m 0,0 h 10.869 c 3.855,0 6.816,-0.408 8.561,-1.526 0.87,-0.558 2.027,-1.375 2.027,-4.251 0,-1.94 0,-6.223 -10.151,-6.223 H 0 Z M 18.208,18.62 C 18.188,18.586 18.169,18.551 18.15,18.517 17.574,17.456 16.815,16.954 15.763,16.588 14.774,16.246 12.842,16 9.252,16 H 0 v 10 h 7.897 c 5.306,0 7.971,-0.6 9.272,-1.201 0.512,-0.237 1.711,-0.733 1.711,-3.664 0,-0.972 -0.22,-1.756 -0.672,-2.515 m 13.17,-9.309 c 4.087,3.42 6.216,8.033 6.216,13.586 0,2.207 -0.37,4.339 -1.099,6.338 -0.728,1.994 -1.801,3.842 -3.189,5.493 -1.377,1.632 -2.985,3.003 -4.759,4.062 -2.095,1.269 -4.479,2.148 -7.087,2.589 C 19.06,41.783 16.217,42 13.01,42 H -7.744 c -3.58,0 -6.51,-0.932 -8.324,-2.748 C -17.884,37.437 -19,34.661 -19,31.024 v -48.149 c 0,-3.552 1.085,-6.246 2.838,-8.084 1.792,-1.877 4.754,-2.791 8.418,-2.791 H 11.83 c 3.498,0 6.615,0.139 9.263,0.49 2.784,0.367 5.304,0.998 7.543,1.934 3.654,1.605 6.597,4.115 8.748,7.477 2.14,3.347 3.225,7.142 3.225,11.29 0,5.212 -1.746,11.803 -9.231,16.12" /></g></g></g></g></svg>