<svg xmlns="http://www.w3.org/2000/svg" viewBox="0 0 27.273 36">
  <g>
    <path
      d="M17.773,27.016c.13-.064.264-.121.391-.19.045-.025.087-.055.132-.081A9.6,9.6,0,0,0,23.177,18.4a9.049,9.049,0,0,0-.056-.954c-.007-.072-.02-.142-.029-.213-.022-.175-.039-.347-.072-.526,0-.024-.014-.046-.02-.069a9.6,9.6,0,0,0-3.318-5.623c-.01-.008-.014-.021-.024-.029-.23-.186-.469-.36-.713-.524-.089-.06-.183-.111-.273-.168-.142-.088-.283-.179-.429-.26-.182-.1-.371-.193-.561-.283-.058-.028-.115-.057-.173-.083-.211-.1-.427-.181-.646-.261l-.122-.045c-.223-.078-.451-.148-.681-.21l-.121-.031c-.23-.058-.461-.111-.7-.152-.043-.008-.086-.013-.13-.02a9.632,9.632,0,0,0-1.548-.134,9.169,9.169,0,0,0-.933.055c-.054,0-.105.016-.158.022-.2.024-.4.046-.6.084a.572.572,0,0,0-.059.017,9.6,9.6,0,0,0-5.628,3.334c-.008.009-.019.012-.026.022q-.273.338-.512.7c-.044.064-.08.133-.122.2-.106.167-.212.333-.307.506-.109.193-.205.394-.3.6-.022.048-.047.094-.068.141-.1.218-.185.44-.267.666l-.039.106c-.079.225-.148.454-.21.687-.011.041-.022.082-.032.123-.058.227-.108.456-.149.689-.009.051-.015.1-.024.153-.036.228-.068.457-.088.69,0,.029,0,.059,0,.089-.018.239-.036.479-.036.723a9.549,9.549,0,0,0,.766,3.734c.056.131.124.255.185.383.072.149.138.3.217.446a9.538,9.538,0,0,0,12.059,4.293c.03-.012.062-.021.092-.034C17.474,27.169,17.622,27.09,17.773,27.016ZM12.518,10.377c.1-.014.2-.03.295-.04.256-.024.513-.039.775-.039a8.048,8.048,0,0,1,1.339.113l.06.009c.213.037.425.084.634.138l.041.011a8.289,8.289,0,0,1,3.065,1.567c.008.007.019.008.028.015a8.107,8.107,0,0,1,2.814,4.8.192.192,0,0,0,0,.024,8.925,8.925,0,0,1,.133,1.439,8.077,8.077,0,0,1-1.853,5.156c-.037.045-.079.085-.117.129-.13.151-.261.3-.4.442s-.3.279-.452.412c-.04.035-.077.073-.118.107A8.109,8.109,0,0,1,5.48,18.422c0-.224.01-.447.027-.668l0-.034c.016-.184.042-.366.07-.548.01-.063.018-.126.029-.188.031-.175.069-.347.112-.519.015-.061.031-.122.047-.183.049-.177.1-.352.162-.524.015-.044.032-.086.047-.129.069-.188.143-.374.226-.557l.011-.022a8.4,8.4,0,0,1,.954-1.579A8.1,8.1,0,0,1,12.518,10.377Z"
    />
    <path
      d="M27.273,35.454V.546A.543.543,0,0,0,26.727,0H4.911a.522.522,0,0,0-.385.161L.161,4.527A.52.52,0,0,0,0,4.912V35.454A.543.543,0,0,0,.546,36H26.727A.549.549,0,0,0,27.273,35.454ZM4.554,2.19V4.644H2.1ZM25.925,34.563H1.347V6.047H5.423a.53.53,0,0,0,.534-.534V1.437H25.925Z"
    />
    <rect
      x="12.8"
      y="9.688"
      width="1.576"
      height="17.439"
      transform="translate(-9.036 14.999) rotate(-45)"
    />
  </g>
</svg>
