<svg xmlns="http://www.w3.org/2000/svg" viewBox="0 0 18.546 22.66">
    <g>
      <path
        d="M.546,18.294H18A.546.546,0,1,0,18,17.2H.546a.546.546,0,1,0,0,1.091Z"
      />
      <path
        d="M15.817,21.569H.546a.546.546,0,1,0,0,1.091H15.817a.542.542,0,0,0,.546-.546A.548.548,0,0,0,15.817,21.569Z"
      />
      <path
        d="M.546,13.994H18A.546.546,0,1,0,18,12.9H.546a.546.546,0,1,0,0,1.092Z"
      />
      <path
        d="M.546,9.693H18A.546.546,0,0,0,18,8.6H.546a.546.546,0,1,0,0,1.092Z"
      />
      <path
        d="M.546,5.392H18A.546.546,0,1,0,18,4.3H.546a.546.546,0,1,0,0,1.091Z"
      />
      <path
        d="M.546,1.091H18a.542.542,0,0,0,.546-.545A.543.543,0,0,0,18,0H.546A.543.543,0,0,0,0,.546.542.542,0,0,0,.546,1.091Z"
      />
    </g>
</svg>
