<svg xmlns="http://www.w3.org/2000/svg" viewBox="0 0 27.273 36">
  <g>
      <path
        d="M17.815,27.086c.131-.064.264-.121.391-.19.046-.025.088-.056.133-.081a9.6,9.6,0,0,0,4.881-8.344,9.326,9.326,0,0,0-.056-.954c-.007-.072-.021-.142-.029-.213-.023-.175-.04-.347-.073-.526a.545.545,0,0,0-.02-.069,9.594,9.594,0,0,0-3.318-5.623c-.009-.009-.013-.021-.023-.029-.23-.187-.469-.36-.714-.524-.088-.06-.182-.111-.273-.168-.142-.088-.282-.179-.428-.26-.183-.1-.372-.193-.562-.284l-.172-.083c-.212-.095-.428-.18-.647-.26l-.121-.045q-.336-.117-.682-.21l-.121-.031c-.229-.059-.461-.111-.7-.152-.043-.008-.087-.013-.13-.02a9.541,9.541,0,0,0-1.549-.134,9.186,9.186,0,0,0-.933.055c-.053,0-.105.016-.158.022-.2.024-.4.046-.6.084a.59.59,0,0,0-.06.017A9.6,9.6,0,0,0,6.227,12.4c-.008.009-.019.012-.027.022q-.273.338-.512.7c-.043.064-.08.133-.121.2-.106.167-.213.333-.308.506-.108.193-.2.394-.3.6-.022.048-.047.094-.068.141-.1.217-.185.44-.267.666-.013.035-.027.07-.039.106q-.119.337-.211.687c-.011.041-.021.082-.032.123-.057.227-.108.456-.149.689-.009.051-.015.1-.023.153-.036.228-.069.457-.089.69,0,.029,0,.059,0,.088-.018.24-.037.48-.037.724a9.532,9.532,0,0,0,.767,3.734c.055.131.124.255.185.383.071.149.137.3.216.446a9.54,9.54,0,0,0,12.06,4.293c.03-.012.062-.021.092-.034C17.516,27.239,17.664,27.16,17.815,27.086ZM12.561,10.447c.1-.014.2-.03.295-.04.255-.024.513-.039.774-.039a8.06,8.06,0,0,1,1.34.113c.019,0,.04.005.059.009.214.037.425.084.634.138l.042.011a8.3,8.3,0,0,1,3.065,1.567c.008.007.019.008.027.014a8.119,8.119,0,0,1,2.815,4.8c0,.008,0,.016,0,.024a8.813,8.813,0,0,1,.133,1.439,8.077,8.077,0,0,1-1.853,5.156c-.037.045-.078.085-.116.129-.13.151-.261.3-.4.442s-.3.279-.452.412c-.04.035-.076.073-.117.107A8.11,8.11,0,0,1,5.522,18.492c0-.224.01-.447.028-.668V17.79c.016-.184.042-.366.071-.548.009-.063.017-.126.028-.188.032-.175.07-.347.113-.519.015-.061.03-.122.047-.183.048-.177.1-.352.162-.525.015-.043.031-.085.047-.128.069-.188.142-.374.225-.557l.011-.022a8.462,8.462,0,0,1,.954-1.58A8.107,8.107,0,0,1,12.561,10.447Z"
      />
      <path
        d="M27.273,35.454V.546A.543.543,0,0,0,26.727,0H4.911a.522.522,0,0,0-.385.161L.161,4.527A.52.52,0,0,0,0,4.912V35.454A.543.543,0,0,0,.546,36H26.727A.549.549,0,0,0,27.273,35.454ZM4.554,2.19V4.644H2.1ZM25.925,34.563H1.347V6.047H5.423a.53.53,0,0,0,.534-.534V1.437H25.925Z"
      />
      <polygon
        points="17.898 18.575 11.208 23.089 11.208 13.865 17.898 18.575"
      />
  </g>
</svg>
