<?xml version="1.0" encoding="UTF-8" standalone="no"?>
<svg
   xmlns:dc="http://purl.org/dc/elements/1.1/"
   xmlns:cc="http://creativecommons.org/ns#"
   xmlns:rdf="http://www.w3.org/1999/02/22-rdf-syntax-ns#"
   xmlns:svg="http://www.w3.org/2000/svg"
   xmlns="http://www.w3.org/2000/svg"
   viewBox="0 0 406.49466 536.53467"
   height="536.53467"
   width="406.49466"
   xml:space="preserve"
   id="svg2"
   version="1.1"><metadata
     id="metadata8"><rdf:RDF><cc:Work
         rdf:about=""><dc:format>image/svg+xml</dc:format><dc:type
           rdf:resource="http://purl.org/dc/dcmitype/StillImage" /></cc:Work></rdf:RDF></metadata><defs
     id="defs6"></defs><g
     transform="matrix(1.3333333,0,0,-1.3333333,0,536.53467)"
     id="g10"><g
       id="g12"><g
         id="g14"><g
           transform="translate(132.3565,229.8953)"
           id="g20"><path
             id="path22"
             style="fill-opacity:1;fill-rule:nonzero;stroke:none"
             d="m 0,0 c -2.382,2.381 -6.24,2.381 -8.622,0 -2.382,-2.382 -2.382,-6.24 0,-8.622 l 24.389,-24.387 c 2.372,-2.371 6.253,-2.371 8.624,0 l 73.168,73.163 c 2.381,2.382 2.381,6.24 0,8.622 -2.382,2.381 -6.241,2.381 -8.622,0 L 20.079,-20.077 Z" /></g><g
           transform="translate(152.4352,146.3279)"
           id="g24"><path
             id="path26"
             style="fill-opacity:1;fill-rule:nonzero;stroke:none"
             d="m 0,0 c 43.707,0 79.266,35.558 79.266,79.26 0,4.407 -0.428,9.122 -1.309,14.005 -0.596,3.334 -3.907,5.596 -7.075,4.929 -3.31,-0.594 -5.525,-3.762 -4.929,-7.072 0.738,-4.169 1.119,-8.17 1.119,-11.862 C 67.072,42.273 36.99,12.193 0,12.193 c -36.989,0 -67.072,30.08 -67.072,67.067 0,36.987 30.083,67.068 67.072,67.068 15.47,0 30.177,-5.264 42.515,-15.219 2.644,-2.096 6.479,-1.691 8.574,0.905 2.12,2.62 1.716,6.454 -0.904,8.574 C 35.846,152.162 18.03,158.521 0,158.521 -43.706,158.521 -79.266,122.964 -79.266,79.26 -79.266,35.558 -43.706,0 0,0" /></g><g
           transform="translate(292.6759,12.1941)"
           id="g28"><path
             id="path30"
             style="fill-opacity:1;fill-rule:nonzero;stroke:none"
             d="m 0,0 h -280.481 v 329.237 h 42.682 c 3.358,0 6.097,2.739 6.097,6.097 v 42.679 l 231.702,0 z m -243.896,369.391 v -27.96 h -27.963 z M 12.195,-6.098 V 384.11 c 0,3.358 -2.727,6.097 -6.097,6.097 h -243.897 c -1.62,0 -3.168,-0.643 -4.311,-1.787 l -48.78,-48.775 c -1.143,-1.144 -1.786,-2.691 -1.786,-4.311 V -6.098 c 0,-3.357 2.739,-6.096 6.098,-6.096 H 6.098 c 3.37,0 6.097,2.739 6.097,6.096" /></g><g
           transform="translate(103.6563,341.4314)"
           id="g32"><path
             id="path34"
             style="fill-opacity:1;fill-rule:nonzero;stroke:none"
             d="m 0,0 h 97.559 c 3.358,0 6.097,2.739 6.097,6.097 0,3.358 -2.739,6.097 -6.097,6.097 H 0 c -3.371,0 -6.098,-2.739 -6.098,-6.097 C -6.098,2.739 -3.371,0 0,0" /></g><g
           transform="translate(54.8766,97.5516)"
           id="g36"><path
             id="path38"
             style="fill-opacity:1;fill-rule:nonzero;stroke:none"
             d="m 0,0 h 195.118 c 3.358,0 6.096,2.739 6.096,6.098 0,3.357 -2.738,6.096 -6.096,6.096 L 0,12.194 c -3.37,0 -6.098,-2.739 -6.098,-6.096 C -6.098,2.739 -3.37,0 0,0" /></g><g
           transform="translate(225.6046,60.9695)"
           id="g40"><path
             id="path42"
             style="fill-opacity:1;fill-rule:nonzero;stroke:none"
             d="m 0,0 h -170.728 c -3.37,0 -6.098,-2.739 -6.098,-6.097 0,-3.358 2.728,-6.097 6.098,-6.097 H 0 c 3.358,0 6.097,2.739 6.097,6.097 C 6.097,-2.739 3.358,0 0,0" /></g></g></g></g></svg>