<?xml version="1.0" encoding="iso-8859-1"?>
<!-- Generator: Adobe Illustrator 19.2.1, SVG Export Plug-In . SVG Version: 6.00 Build 0)  -->
<svg version="1.1" xmlns="http://www.w3.org/2000/svg" xmlns:xlink="http://www.w3.org/1999/xlink" x="0px" y="0px"
	 viewBox="0 0 56.283 66.509" style="enable-background:new 0 0 56.283 66.509;" xml:space="preserve">
<g id="_x31_01spelen">
	<g>
		<linearGradient id="SVGID_1_" gradientUnits="userSpaceOnUse" x1="28.1413" y1="66.5094" x2="28.1413" y2="-1.864205e-06">
			<stop  offset="0" style="stop-color:#1B2E12"/>
			<stop  offset="0.2637" style="stop-color:#1D3415"/>
			<stop  offset="0.3682" style="stop-color:#455512"/>
			<stop  offset="0.5276" style="stop-color:#7B810F"/>
			<stop  offset="0.676" style="stop-color:#A6A50C"/>
			<stop  offset="0.8089" style="stop-color:#C5BE0A"/>
			<stop  offset="0.9214" style="stop-color:#D8CD08"/>
			<stop  offset="1" style="stop-color:#DFD308"/>
		</linearGradient>
		<path style="fill:url(#SVGID_1_);" d="M9.252,3.552c-5.078,1.751-8.478,3.48-8.62,3.553L0,7.428v31.575
			c0,3.179,1.517,6.612,4.509,10.203c2.311,2.773,5.519,5.668,9.534,8.606c6.786,4.964,13.455,8.298,13.736,8.437l0.525,0.261
			l0.522-0.269c0.277-0.143,6.872-3.553,13.579-8.594c3.969-2.982,7.139-5.914,9.424-8.713c2.955-3.621,4.453-7.066,4.453-10.241
			V7.263l-0.646-0.32c-0.144-0.071-3.581-1.76-8.714-3.472C42.171,1.888,35.029,0,27.986,0C21.017,0,13.952,1.932,9.252,3.552"/>
		<linearGradient id="SVGID_2_" gradientUnits="userSpaceOnUse" x1="28.1413" y1="60.5794" x2="28.1413" y2="5.0981">
			<stop  offset="0" style="stop-color:#1B2E12"/>
			<stop  offset="0.2637" style="stop-color:#1D3415"/>
			<stop  offset="0.3682" style="stop-color:#455512"/>
			<stop  offset="0.5276" style="stop-color:#7B810F"/>
			<stop  offset="0.676" style="stop-color:#A6A50C"/>
			<stop  offset="0.8089" style="stop-color:#C5BE0A"/>
			<stop  offset="0.9214" style="stop-color:#D8CD08"/>
			<stop  offset="1" style="stop-color:#DFD308"/>
		</linearGradient>
		<linearGradient id="SVGID_3_" gradientUnits="userSpaceOnUse" x1="4.3273" y1="32.869" x2="51.9554" y2="32.869">
			<stop  offset="0" style="stop-color:#1B2E12"/>
			<stop  offset="0.2637" style="stop-color:#1D3415"/>
			<stop  offset="0.3682" style="stop-color:#455512"/>
			<stop  offset="0.5276" style="stop-color:#7B810F"/>
			<stop  offset="0.676" style="stop-color:#A6A50C"/>
			<stop  offset="0.8089" style="stop-color:#C5BE0A"/>
			<stop  offset="0.9214" style="stop-color:#D8CD08"/>
			<stop  offset="1" style="stop-color:#DFD308"/>
		</linearGradient>
		<path style="fill:url(#SVGID_2_);stroke:url(#SVGID_3_);stroke-width:0.9906;stroke-miterlimit:10;" d="M12.489,8.061
			c-4.208,1.461-7.025,2.903-7.143,2.964l-0.523,0.269v26.339c0,2.652,1.257,5.515,3.736,8.511c1.915,2.313,4.573,4.728,7.9,7.179
			c5.623,4.141,11.15,6.922,11.382,7.038l0.435,0.218l0.433-0.224c0.23-0.119,5.694-2.964,11.252-7.169
			c3.289-2.488,5.916-4.933,7.809-7.268c2.448-3.021,3.69-5.895,3.69-8.543V11.156l-0.536-0.267
			c-0.119-0.059-2.967-1.469-7.221-2.896c-3.937-1.321-9.854-2.896-15.691-2.896C22.238,5.098,16.383,6.709,12.489,8.061"/>
		<g>
			<g>
				<path style="fill:#FFEC00;" d="M8.751,40.613h0.931c0.009,0.183,0.077,0.32,0.205,0.411c0.137,0.091,0.319,0.137,0.548,0.137
					c0.164,0,0.306-0.032,0.424-0.096c0.11-0.064,0.164-0.151,0.164-0.26c0-0.164-0.192-0.287-0.575-0.37
					c-0.164-0.027-0.288-0.055-0.37-0.082c-0.484-0.118-0.808-0.26-0.972-0.424c-0.183-0.165-0.274-0.384-0.274-0.657
					c0-0.347,0.132-0.634,0.397-0.863c0.274-0.21,0.63-0.315,1.068-0.315c0.475,0,0.854,0.105,1.137,0.315
					c0.265,0.229,0.406,0.525,0.425,0.89H11.27c-0.173,0-0.306-0.077-0.397-0.233c-0.037-0.036-0.073-0.073-0.109-0.11
					c-0.11-0.082-0.26-0.123-0.452-0.123c-0.183,0-0.32,0.027-0.411,0.082c-0.082,0.055-0.123,0.137-0.123,0.246
					c0,0.146,0.237,0.269,0.712,0.37c0.055,0.019,0.103,0.032,0.144,0.041c0.041,0.009,0.08,0.014,0.116,0.014
					c0.466,0.119,0.79,0.256,0.972,0.411c0.173,0.165,0.26,0.384,0.26,0.657c0,0.402-0.146,0.712-0.438,0.931
					c-0.274,0.201-0.685,0.301-1.232,0.301c-0.52,0-0.909-0.105-1.164-0.315c-0.265-0.21-0.397-0.516-0.397-0.918V40.613z"/>
				<path style="fill:#FFEC00;" d="M13.099,42.695c0,0.127-0.046,0.237-0.137,0.328c-0.091,0.091-0.201,0.137-0.329,0.137h-0.466
					v-3.41c0-0.639,0.187-1.075,0.562-1.308c0.374-0.233,0.781-0.349,1.219-0.349c0.228,0,0.459,0.043,0.692,0.13
					c0.233,0.087,0.418,0.212,0.555,0.377c0.274,0.356,0.411,0.813,0.411,1.37c0,0.575-0.137,1.041-0.411,1.397
					c-0.274,0.347-0.626,0.521-1.055,0.521c-0.228,0-0.429-0.041-0.603-0.123c-0.183-0.091-0.329-0.233-0.438-0.425V42.695z
					 M14.661,40.01c0-0.356-0.068-0.63-0.205-0.822c-0.137-0.192-0.333-0.287-0.589-0.287c-0.247,0-0.438,0.096-0.575,0.287
					c-0.128,0.174-0.192,0.447-0.192,0.822c0,0.347,0.068,0.607,0.205,0.781c0.137,0.192,0.333,0.288,0.589,0.288
					c0.237,0,0.424-0.096,0.562-0.288C14.592,40.599,14.661,40.339,14.661,40.01z"/>
				<path style="fill:#FFEC00;" d="M18.339,40.695h0.685c-0.101,0.384-0.292,0.676-0.575,0.877c-0.283,0.21-0.639,0.315-1.068,0.315
					c-0.52,0-0.927-0.169-1.219-0.507c-0.292-0.329-0.438-0.799-0.438-1.411c0-0.584,0.141-1.041,0.424-1.37
					c0.292-0.338,0.698-0.507,1.219-0.507c0.548,0,0.972,0.164,1.274,0.493c0.292,0.338,0.438,0.808,0.438,1.411
					c0,0.037,0,0.069,0,0.096s0,0.046,0,0.055c0,0.046-0.005,0.078-0.014,0.096h-2.369c0.009,0.283,0.078,0.493,0.205,0.63
					c0.119,0.146,0.297,0.219,0.534,0.219c0.155,0,0.288-0.032,0.397-0.096c0.027-0.009,0.053-0.025,0.075-0.048
					c0.023-0.023,0.048-0.048,0.075-0.075c0.009-0.027,0.043-0.064,0.103-0.11C18.145,40.718,18.229,40.695,18.339,40.695z
					 M16.695,39.627h1.397c-0.019-0.246-0.082-0.429-0.192-0.548c-0.119-0.128-0.288-0.192-0.507-0.192
					c-0.201,0-0.365,0.064-0.493,0.192C16.773,39.207,16.704,39.389,16.695,39.627z"/>
				<path style="fill:#FFEC00;" d="M19.298,37.107h0.493c0.128,0,0.237,0.043,0.329,0.13c0.091,0.087,0.137,0.194,0.137,0.322v4.259
					h-0.959V37.107z"/>
				<path style="fill:#FFEC00;" d="M22.983,40.695h0.685c-0.101,0.384-0.292,0.676-0.575,0.877c-0.283,0.21-0.639,0.315-1.068,0.315
					c-0.52,0-0.927-0.169-1.219-0.507c-0.292-0.329-0.438-0.799-0.438-1.411c0-0.584,0.141-1.041,0.424-1.37
					c0.292-0.338,0.698-0.507,1.219-0.507c0.548,0,0.972,0.164,1.274,0.493c0.292,0.338,0.438,0.808,0.438,1.411
					c0,0.037,0,0.069,0,0.096s0,0.046,0,0.055c0,0.046-0.005,0.078-0.014,0.096h-2.369c0.009,0.283,0.078,0.493,0.205,0.63
					c0.119,0.146,0.297,0.219,0.534,0.219c0.155,0,0.288-0.032,0.397-0.096c0.027-0.009,0.053-0.025,0.075-0.048
					c0.023-0.023,0.048-0.048,0.075-0.075c0.009-0.027,0.043-0.064,0.103-0.11C22.788,40.718,22.873,40.695,22.983,40.695z
					 M21.339,39.627h1.397c-0.019-0.246-0.082-0.429-0.192-0.548c-0.119-0.128-0.288-0.192-0.507-0.192
					c-0.201,0-0.365,0.064-0.493,0.192C21.417,39.207,21.348,39.389,21.339,39.627z"/>
				<path style="fill:#FFEC00;" d="M27.078,41.818h-0.479c-0.137,0-0.249-0.043-0.336-0.13c-0.087-0.087-0.13-0.199-0.13-0.335
					V39.49c0-0.219-0.066-0.379-0.199-0.479c-0.132-0.1-0.281-0.151-0.445-0.151c-0.164,0-0.311,0.05-0.438,0.151
					c-0.128,0.1-0.192,0.26-0.192,0.479v2.328h-0.959v-2.137c0-0.621,0.162-1.036,0.486-1.246c0.324-0.21,0.682-0.324,1.075-0.342
					c0.402,0,0.771,0.105,1.109,0.315c0.338,0.21,0.507,0.635,0.507,1.274V41.818z"/>
			</g>
			<g>
				<path style="fill:#FFFFFF;" d="M28.816,40.613h0.931c0.009,0.183,0.077,0.32,0.205,0.411c0.137,0.091,0.319,0.137,0.548,0.137
					c0.164,0,0.306-0.032,0.425-0.096c0.109-0.064,0.164-0.151,0.164-0.26c0-0.164-0.192-0.287-0.575-0.37
					c-0.165-0.027-0.288-0.055-0.37-0.082c-0.484-0.118-0.808-0.26-0.973-0.424c-0.183-0.165-0.274-0.384-0.274-0.657
					c0-0.347,0.132-0.634,0.397-0.863c0.274-0.21,0.63-0.315,1.068-0.315c0.475,0,0.854,0.105,1.136,0.315
					c0.265,0.229,0.406,0.525,0.425,0.89h-0.589c-0.173,0-0.306-0.077-0.397-0.233c-0.036-0.036-0.073-0.073-0.109-0.11
					c-0.11-0.082-0.26-0.123-0.452-0.123c-0.183,0-0.32,0.027-0.411,0.082c-0.083,0.055-0.124,0.137-0.124,0.246
					c0,0.146,0.237,0.269,0.712,0.37c0.055,0.019,0.103,0.032,0.144,0.041c0.041,0.009,0.08,0.014,0.116,0.014
					c0.466,0.119,0.79,0.256,0.973,0.411c0.173,0.165,0.26,0.384,0.26,0.657c0,0.402-0.146,0.712-0.438,0.931
					c-0.274,0.201-0.685,0.301-1.233,0.301c-0.521,0-0.908-0.105-1.164-0.315c-0.265-0.21-0.397-0.516-0.397-0.918V40.613z"/>
				<path style="fill:#FFFFFF;" d="M33.165,42.695c0,0.127-0.046,0.237-0.137,0.328c-0.091,0.091-0.201,0.137-0.329,0.137h-0.466
					v-3.41c0-0.639,0.187-1.075,0.562-1.308c0.374-0.233,0.78-0.349,1.219-0.349c0.228,0,0.459,0.043,0.692,0.13
					c0.233,0.087,0.418,0.212,0.555,0.377c0.274,0.356,0.411,0.813,0.411,1.37c0,0.575-0.137,1.041-0.411,1.397
					c-0.274,0.347-0.625,0.521-1.054,0.521c-0.228,0-0.429-0.041-0.603-0.123c-0.183-0.091-0.329-0.233-0.438-0.425V42.695z
					 M34.726,40.01c0-0.356-0.068-0.63-0.205-0.822c-0.137-0.192-0.333-0.287-0.589-0.287c-0.246,0-0.438,0.096-0.575,0.287
					c-0.128,0.174-0.192,0.447-0.192,0.822c0,0.347,0.068,0.607,0.205,0.781c0.137,0.192,0.333,0.288,0.589,0.288
					c0.237,0,0.424-0.096,0.562-0.288C34.658,40.599,34.726,40.339,34.726,40.01z"/>
				<path style="fill:#FFFFFF;" d="M38.404,40.695h0.685c-0.101,0.384-0.292,0.676-0.575,0.877c-0.283,0.21-0.639,0.315-1.068,0.315
					c-0.521,0-0.927-0.169-1.219-0.507c-0.292-0.329-0.438-0.799-0.438-1.411c0-0.584,0.141-1.041,0.425-1.37
					c0.292-0.338,0.698-0.507,1.219-0.507c0.548,0,0.973,0.164,1.274,0.493c0.292,0.338,0.438,0.808,0.438,1.411
					c0,0.037,0,0.069,0,0.096s0,0.046,0,0.055c0,0.046-0.005,0.078-0.013,0.096h-2.369c0.009,0.283,0.077,0.493,0.205,0.63
					c0.119,0.146,0.297,0.219,0.534,0.219c0.155,0,0.288-0.032,0.397-0.096c0.028-0.009,0.053-0.025,0.076-0.048
					c0.023-0.023,0.048-0.048,0.075-0.075c0.009-0.027,0.043-0.064,0.103-0.11C38.21,40.718,38.294,40.695,38.404,40.695z
					 M36.761,39.627h1.397c-0.019-0.246-0.082-0.429-0.192-0.548c-0.119-0.128-0.288-0.192-0.507-0.192
					c-0.201,0-0.365,0.064-0.493,0.192C36.838,39.207,36.77,39.389,36.761,39.627z"/>
				<path style="fill:#FFFFFF;" d="M39.363,37.107h0.493c0.128,0,0.237,0.043,0.329,0.13c0.091,0.087,0.137,0.194,0.137,0.322v4.259
					h-0.959V37.107z"/>
				<path style="fill:#FFFFFF;" d="M43.048,40.695h0.685c-0.101,0.384-0.293,0.676-0.575,0.877c-0.283,0.21-0.639,0.315-1.068,0.315
					c-0.521,0-0.927-0.169-1.219-0.507c-0.293-0.329-0.438-0.799-0.438-1.411c0-0.584,0.141-1.041,0.424-1.37
					c0.292-0.338,0.699-0.507,1.219-0.507c0.548,0,0.973,0.164,1.274,0.493c0.292,0.338,0.438,0.808,0.438,1.411
					c0,0.037,0,0.069,0,0.096s0,0.046,0,0.055c0,0.046-0.005,0.078-0.014,0.096h-2.369c0.009,0.283,0.077,0.493,0.205,0.63
					c0.118,0.146,0.297,0.219,0.534,0.219c0.155,0,0.288-0.032,0.397-0.096c0.027-0.009,0.052-0.025,0.075-0.048
					c0.022-0.023,0.048-0.048,0.075-0.075c0.009-0.027,0.043-0.064,0.103-0.11C42.854,40.718,42.938,40.695,43.048,40.695z
					 M41.404,39.627h1.397c-0.019-0.246-0.083-0.429-0.192-0.548c-0.119-0.128-0.288-0.192-0.507-0.192
					c-0.201,0-0.365,0.064-0.493,0.192C41.482,39.207,41.414,39.389,41.404,39.627z"/>
				<path style="fill:#FFFFFF;" d="M47.144,41.818h-0.48c-0.137,0-0.249-0.043-0.335-0.13c-0.087-0.087-0.13-0.199-0.13-0.335V39.49
					c0-0.219-0.066-0.379-0.199-0.479c-0.132-0.1-0.281-0.151-0.445-0.151c-0.165,0-0.311,0.05-0.438,0.151
					c-0.128,0.1-0.192,0.26-0.192,0.479v2.328h-0.959v-2.137c0-0.621,0.162-1.036,0.486-1.246c0.324-0.21,0.682-0.324,1.075-0.342
					c0.402,0,0.771,0.105,1.109,0.315c0.338,0.21,0.507,0.635,0.507,1.274V41.818z"/>
			</g>
			<g>
				<path style="fill:#FFEC00;" d="M47.163,36.412V14.798c0-0.699-0.245-1.282-0.734-1.749c-0.49-0.466-1.084-0.699-1.783-0.699
					h-1.399c-0.42,1.539-1.178,2.647-2.273,3.322c-1.096,0.677-2.157,1.014-3.183,1.014v3.497h4.547v16.228H47.163z M29.497,16.407
					c0.7,0.56,1.247,1.609,1.644,3.148c0.396,1.539,0.595,3.172,0.595,4.896c0,1.726-0.187,3.358-0.56,4.897
					c-0.374,1.539-0.909,2.565-1.609,3.077c-0.606,0.374-1.189,0.56-1.749,0.56c-0.606,0-1.166-0.186-1.679-0.56
					c-0.794-0.513-1.364-1.539-1.714-3.077c-0.35-1.539-0.524-3.194-0.524-4.967c0-1.724,0.186-3.345,0.559-4.861
					c0.373-1.515,0.909-2.553,1.609-3.113c0.466-0.373,1.049-0.559,1.749-0.559C28.471,15.847,29.031,16.034,29.497,16.407
					 M21.593,14.448c-1.773,2.006-2.658,5.316-2.658,9.932c0,4.711,0.793,7.951,2.378,9.723c1.632,1.773,3.8,2.658,6.505,2.658
					c2.704,0,4.779-0.815,6.225-2.448c1.819-1.959,2.728-5.269,2.728-9.933c0-4.569-0.886-7.857-2.658-9.862
					c-1.586-1.725-3.684-2.588-6.295-2.588C25.114,11.93,23.038,12.77,21.593,14.448 M18.219,36.412V14.798
					c0-0.699-0.245-1.282-0.734-1.749c-0.49-0.466-1.084-0.699-1.784-0.699h-1.399c-0.42,1.539-1.178,2.647-2.273,3.322
					c-1.096,0.677-2.158,1.014-3.183,1.014v3.497h4.547v16.228H18.219z"/>
			</g>
			<g>
				<path style="fill:#1D1D1B;" d="M20.758,25.731c-0.139-0.139-0.209-0.506-0.209-1.102c0-0.556,0.064-0.923,0.194-1.102
					c0.129-0.179,0.194-0.293,0.194-0.343c0-0.049,0-0.104,0-0.164c-0.458-0.735-0.686-1.241-0.686-1.52
					c0-0.298,0.388-0.854,1.163-1.669c0.119-0.457,0.298-0.884,0.537-1.281c0.239-0.397,0.427-0.636,0.567-0.715
					c0.139-0.079,0.318-0.169,0.537-0.268c0.099-0.099,0.169-0.209,0.209-0.328c0.04-0.119,0.04-0.278,0-0.477
					c-0.04-0.159-0.065-0.273-0.075-0.343c-0.01-0.069-0.015-0.183-0.015-0.343c0-0.239,0.054-0.447,0.164-0.626
					c0.109-0.179,0.268-0.353,0.477-0.521c0.209-0.169,0.442-0.254,0.701-0.254c0.06,0,0.248,0.03,0.567,0.09
					c0.318,0.06,0.517,0.308,0.596,0.746c0.04,0.219,0.03,0.448-0.03,0.686c-0.06,0.12-0.1,0.194-0.119,0.224
					c-0.02,0.03-0.01,0.135,0.03,0.314c0.04,0.179-0.01,0.268-0.149,0.268c-0.159-0.04-0.239,0.06-0.239,0.298
					c-0.058,0.12-0.115,0.229-0.172,0.329c-0.115-0.04-0.239-0.005-0.373,0.104c-0.134,0.109-0.211,0.234-0.23,0.373
					c-0.02,0.179,0.027,0.338,0.14,0.478s0.198,0.253,0.255,0.343c0.056,0.089,0.089,0.224,0.099,0.403
					c0.009,0.179,0.014,0.358,0.014,0.537c0,0.179-0.065,0.528-0.194,1.045c-0.13,0.517-0.234,0.876-0.313,1.074
					c-0.06,0.199-0.054,0.343,0.016,0.433c0.07,0.09,0.223,0.219,0.457,0.388c0.234,0.169,0.504,0.323,0.809,0.462l0.788,0.268
					c0.389,0.219,0.584,0.398,0.584,0.537c0,0.06-0.03,0.105-0.088,0.135c-0.059,0.03-0.123,0.095-0.192,0.194
					c-0.069,0.1-0.143,0.149-0.222,0.149c-0.099,0-0.286-0.064-0.562-0.194c-0.276-0.129-0.482-0.233-0.62-0.313l-1.182-0.328
					c-0.157-0.04-0.236,0.05-0.236,0.268c0,0.179,0,0.288,0,0.328c0.079,0.04,0.656,0.209,1.73,0.507
					c1.074,0.298,1.7,0.517,1.879,0.656c0.179,0.139,0.268,0.348,0.268,0.626c0,0.279-0.118,0.527-0.354,0.745l-2.568,3.877
					c-0.139,0.179-0.179,0.438-0.119,0.776v0.716c0,0.159,0.01,0.298,0.03,0.417c0.04,0.02,0.064,0.075,0.075,0.164
					c0.01,0.089,0.015,0.184,0.015,0.283c-0.04,0.059-0.115,0.075-0.224,0.045c-0.109-0.03-0.224-0.144-0.343-0.343l-0.268-0.775
					c-0.06-0.179-0.164-0.412-0.313-0.701c-0.149-0.288-0.254-0.522-0.313-0.701c-0.06-0.039-0.05-0.109,0.03-0.209
					c0.079-0.099,0.228-0.169,0.447-0.209c0.159-0.079,0.273-0.154,0.343-0.224c0.07-0.07,0.159-0.368,0.268-0.895
					c0.109-0.527,0.233-0.919,0.373-1.178c0.139-0.258,0.397-0.636,0.775-1.133c-0.06,0.02-0.264,0.055-0.611,0.104
					c-0.348,0.049-0.721,0.094-1.118,0.134c-0.119,0.039-0.289,0.059-0.507,0.059c-0.219,0-0.388,0.03-0.507,0.089
					c-0.179,0.377-0.408,0.734-0.686,1.071c-0.279,0.337-0.473,0.64-0.582,0.907c-0.11,0.267-0.253,0.511-0.432,0.729
					c-0.179,0.218-0.378,0.382-0.596,0.491c-0.219,0.109-0.602,0.476-1.148,1.101c-0.547,0.625-1.049,1.224-1.506,1.8
					c-0.139,0.219-0.259,0.407-0.358,0.565c-0.1,0.158-0.164,0.292-0.194,0.401c-0.03,0.109-0.06,0.233-0.089,0.372
					c-0.03,0.139-0.045,0.258-0.045,0.357c0,0.059,0.034,0.184,0.104,0.372c0.069,0.188,0.094,0.332,0.075,0.431
					c-0.219,0.079-0.388,0.01-0.507-0.209c-0.119-0.219-0.189-0.407-0.209-0.566c-0.02-0.159-0.04-0.333-0.06-0.522
					c-0.02-0.189-0.065-0.387-0.134-0.596c-0.07-0.209-0.144-0.462-0.224-0.76c-0.02-0.099,0.03-0.174,0.149-0.224
					c0.119-0.049,0.219-0.084,0.298-0.104c0.079-0.019,0.169-0.054,0.268-0.104c0.099-0.049,0.313-0.407,0.641-1.073
					c0.328-0.665,0.601-1.128,0.82-1.386c0.218-0.258,0.427-0.511,0.626-0.76c0.199-0.248,0.358-0.457,0.477-0.626
					c0.119-0.169,0.219-0.383,0.298-0.641L20.758,25.731z"/>
			</g>
		</g>
	</g>
</g>
<g id="Laag_1">
</g>
</svg>
