<?xml version="1.0" encoding="utf-8"?>
<!-- Generator: Adobe Illustrator 19.2.1, SVG Export Plug-In . SVG Version: 6.00 Build 0)  -->
<svg version="1.1" id="Laag_1" xmlns="http://www.w3.org/2000/svg" xmlns:xlink="http://www.w3.org/1999/xlink" x="0px" y="0px"
	 viewBox="0 0 141.2 66.9" style="enable-background:new 0 0 141.2 66.9;" xml:space="preserve">
<style type="text/css">
	.allesimgriff-st0{fill:#E11A7F;}
	.allesimgriff-st1{fill:#FFFFFF;}
	.allesimgriff-st2{filter:url(#Adobe_OpacityMaskFilter);}
	.allesimgriff-st3{clip-path:url(#SVGID_6_);}
	.allesimgriff-st4{mask:url(#SVGID_1_);}
	.allesimgriff-st5{opacity:0.75;clip-path:url(#SVGID_9_);enable-background:new    ;}
</style>
<g id="allesimgrif">
	<g>
		<polygon class="allesimgriff-st0" points="83.8,57.2 82.4,66.7 117.6,63.7 119,54.2 		"/>
		<g>
			<g>
				<path class="allesimgriff-st1" d="M113.8,58.7l2.8-0.2l-0.1,1l-2.8,0.2l-0.2,1.6l3-0.3l-0.1,1l-4.2,0.4l0.8-6.1l4.1-0.4l-0.1,1l-3,0.3
					L113.8,58.7z"/>
			</g>
			<g>
				<path class="allesimgriff-st1" d="M109.9,62.6l-1.2,0.1l0.6-5.1l-1.8,0.2l0.1-1l4.7-0.4l-0.1,1l-1.8,0.2L109.9,62.6z"/>
			</g>
			<g>
				<path class="allesimgriff-st1" d="M103.5,62l-0.5,1.2l-1.2,0.1l2.8-6.3l1.7-0.1l1.3,5.9l-1.2,0.1l-0.3-1.1L103.5,62z M105.3,57.8L105.3,57.8
					l-1.4,3.2l2.1-0.2L105.3,57.8z"/>
			</g>
			<g>
				<path class="allesimgriff-st1" d="M96.9,57.7l2.9-0.2c1.7-0.1,2.3,0.4,2.1,2.1l-0.2,1.4c-0.2,1.3-0.7,2.4-2.5,2.6l-3.1,0.3L96.9,57.7z
					 M99.4,62.5c0.8-0.1,1.1-0.8,1.2-1.5l0.2-1.4c0.1-1-0.2-1.2-1.1-1.2L98,58.6l-0.5,4.1L99.4,62.5z"/>
			</g>
			<g>
				<path class="allesimgriff-st1" d="M91.4,58.2l2.7-0.2c1.6-0.1,2.1,0.2,1.9,1.9c-0.2,1.7-0.8,2.1-2.4,2.2L92,62.2l-0.2,2l-1.2,0.1L91.4,58.2z
					 M93.7,61.1c0.8-0.1,1-0.3,1.1-1.1c0.1-0.9,0-1.1-0.9-1l-1.5,0.1l-0.3,2.1L93.7,61.1z"/>
			</g>
			<g>
				<path class="allesimgriff-st1" d="M90.4,58.3l-0.5,4.3c-0.2,1.7-1.3,1.9-2.7,2c-1.4,0.1-2.5,0.1-2.3-1.6l0.5-4.3l1.2-0.1L86,62.9
					c-0.1,0.6,0.1,0.8,1.2,0.7c1.1-0.1,1.4-0.3,1.5-0.9l0.5-4.3L90.4,58.3z"/>
			</g>
		</g>
		<defs>
			<filter id="Adobe_OpacityMaskFilter" filterUnits="userSpaceOnUse" x="0" y="0" width="141.2" height="66.9">
				<feColorMatrix  type="matrix" values="1 0 0 0 0  0 1 0 0 0  0 0 1 0 0  0 0 0 1 0"/>
			</filter>
		</defs>
		<mask maskUnits="userSpaceOnUse" x="0" y="0" width="141.2" height="66.9" id="SVGID_1_">
			<g class="allesimgriff-st2">
				<g>
					<g>
						<g>
							<g>
								<defs>
									<rect id="SVGID_2_" x="-1619.3" y="710.7" width="141.2" height="66.5"/>
								</defs>
								<clipPath id="SVGID_3_">
									<use xlink:href="#SVGID_2_"  style="overflow:visible;"/>
								</clipPath>
							</g>
							<g>
								<defs>
									<rect id="SVGID_4_" x="-1619.3" y="710.7" width="141.2" height="66.5"/>
								</defs>
								<defs>
									<rect id="SVGID_5_" x="-1619.3" y="710.7" width="141.2" height="66.5"/>
								</defs>
								<clipPath id="SVGID_6_">
									<use xlink:href="#SVGID_4_"  style="overflow:visible;"/>
								</clipPath>
								<clipPath id="SVGID_7_" class="allesimgriff-st3">
									<use xlink:href="#SVGID_5_"  style="overflow:visible;"/>
								</clipPath>
								<g>
									<g transform="matrix(1 0 0 1 0 0)" style="clip-path:url(#SVGID_7_);enable-background:new    ;">

											<image style="overflow:visible;" width="657" height="315" xlink:href="D64CD085E87920D1.jpeg"  transform="matrix(0.2149 0 0 0.2112 -1619.2699 710.6649)">
										</image>
									</g>
								</g>
							</g>
						</g>
					</g>
				</g>
			</g>
		</mask>
		<g class="allesimgriff-st4">
			<g>
				<g>
					<defs>
						<rect id="SVGID_8_" y="0.4" width="141.2" height="66.5"/>
					</defs>
					<clipPath id="SVGID_9_">
						<use xlink:href="#SVGID_8_"  style="overflow:visible;"/>
					</clipPath>
					<polyline class="allesimgriff-st5" points="0,0 141.2,0 141.2,66.5 0,66.5 0,0 					"/>
				</g>
			</g>
		</g>
		<path d="M81.8,19.4l-0.1,1.2c-0.9,7.3,4.1,6.7,9.7,6.2c6.5-0.6,10-1.5,10.8-8.6c0.8-6.5-1.3-6.7-9-6.5c-4.9,0.1-5.5,0.1-5.1-3.1
			c0.3-2.7,1.2-3.3,6-3.7c3.4-0.3,4.5-0.3,4.2,2.5l-0.1,0.8l4.9-0.4l0.1-0.8c0.8-6.7-3.4-6.5-8.5-6.1C88.5,1.4,84.1,2,83.2,9
			c-0.9,7.4,3.4,6.8,8.8,6.7c3.8-0.1,5.7-0.8,5.3,2.9c-0.4,3-1.1,3.8-5.5,4.2c-4.5,0.4-5.7,0.3-5.3-2.6l0.1-1.2L81.8,19.4z
			 M69.9,7.3l12.5-1.1l0.5-4.2L65.5,3.6l-3.2,25.5l17.4-1.5l0.5-4.2l-12.6,1.1l0.8-6.8l11.8-1l0.5-4l-11.8,1L69.9,7.3z M53.4,4.6
			l-4.9,0.4l-3.2,25.5L62,29.1l0.5-4.2l-11.8,1L53.4,4.6z M36,6.1l-4.9,0.4L28,32.1l16.7-1.4l0.5-4.2l-11.8,1L36,6.1z M20.9,24.2
			L12.2,25l6-13.6l0.1,0L20.9,24.2z M21.6,27.8l1.1,4.7l4.9-0.4L22.1,7.3L15,7.9L3.4,34.2l5-0.4l2.2-5L21.6,27.8z"/>
		<path d="M123.5,30.1l11.9-1l0.5-4.2l-16.7,1.4L116,51.8l4.9-0.4l1.3-10.5l11.3-1l0.5-4l-11.3,1L123.5,30.1z M105.5,31.6l11.9-1
			l0.5-4.2l-16.7,1.4L98,53.4l4.9-0.4l1.3-10.5l11.3-1l0.5-4l-11.3,1L105.5,31.6z M98.7,28.1l-4.9,0.4L90.7,54l4.9-0.4L98.7,28.1z
			 M74.3,42.9l1.1-8.7l6.7-0.6c3.5-0.3,4,0.3,3.6,3.9c-0.5,3.7-1.4,4.5-5,4.8L74.3,42.9z M81.2,46.5c2.3-0.2,3,1.3,2.7,3.4l-0.6,4.8
			l4.9-0.4l0.6-4.8c0.4-3.6-0.2-5.4-3.6-5.4l0-0.1c4.4-1,4.9-3.8,5.4-7.6c0.7-5.8-1.2-7.3-6.7-7L71,30.5L67.9,56l4.9-0.4l1-8.4
			L81.2,46.5z M56.6,43.6l-0.5,3.7l6.4-0.5l-0.1,0.9c-0.6,4.8-2,5.1-6.6,5.5c-5.4,0.5-6.1,0-5.5-5.3l0.7-5.8c0.7-4.9,1.3-5.9,7-6.4
			c4.2-0.4,6-0.6,5.6,3.2l4.8-0.4c1.2-8.2-3.7-7.5-9.9-7c-7.8,0.7-11.3,2.5-12.4,11l-0.7,5.8c-1.1,8.6,1.8,9.8,9.9,9.1
			c9-0.8,11.1-2.5,12-10.1l0.6-4.6L56.6,43.6z M35.4,37.5l0.2,0L32.5,59l4.9-0.4l3.2-25.5l-8,0.7l-9.1,19.5l-0.1,0L18.8,35L11,35.6
			L7.9,61.2l4.9-0.4l2.2-21.4l0.1,0l5.4,20.7l4.3-0.4L35.4,37.5z M8.2,35.9l-4.9,0.4L0.2,61.8l4.9-0.4L8.2,35.9z"/>
	</g>
</g>
<g id="Laag_1_1_">
</g>
</svg>
