<?xml version="1.0" encoding="iso-8859-1"?>
<!-- Generator: Adobe Illustrator 19.2.1, SVG Export Plug-In . SVG Version: 6.00 Build 0)  -->
<svg version="1.1" xmlns="http://www.w3.org/2000/svg" xmlns:xlink="http://www.w3.org/1999/xlink" x="0px" y="0px"
	 viewBox="0 0 91.066 66.635" style="enable-background:new 0 0 91.066 66.635;" xml:space="preserve">
<g id="beaufort">
	<g>
		<polygon style="fill:#009790;" points="3.962,41.151 7.998,66.635 13.157,65.818 11.437,54.959 22.447,53.215 21.747,48.784 
			10.733,50.528 9.822,44.768 22.384,42.779 21.682,38.345 		"/>
		<g>
			<path style="fill:#009790;" d="M28.523,59.85c2.599,1.946,5.794,2.616,9.586,2.016c3.79-0.6,6.627-2.228,8.51-4.883
				c1.883-2.653,2.514-5.93,1.897-9.827c-0.617-3.897-2.233-6.817-4.842-8.76c-2.611-1.943-5.811-2.614-9.603-2.014
				c-3.79,0.6-6.622,2.225-8.493,4.873c-1.871,2.646-2.497,5.923-1.878,9.831C24.318,54.984,25.927,57.907,28.523,59.85
				 M29.911,43.739c1.008-1.664,2.626-2.672,4.854-3.024c2.25-0.357,4.118,0.102,5.602,1.377c1.487,1.275,2.439,3.241,2.862,5.903
				c0.42,2.66,0.121,4.827-0.896,6.498c-1.018,1.671-2.653,2.684-4.905,3.041c-2.228,0.352-4.079-0.109-5.551-1.385
				c-1.475-1.278-2.42-3.246-2.842-5.908C28.611,47.57,28.902,45.403,29.911,43.739"/>
			<path style="fill:#009790;" d="M57.443,58.804l-1.564-9.882l5.556-0.882c1.394-0.221,2.405-0.097,3.027,0.369
				c0.624,0.469,1.091,1.484,1.399,3.051l0.491,2.663c0.138,0.719,0.296,1.334,0.479,1.841c0.18,0.51,0.389,0.926,0.629,1.254
				l5.721-0.906l-0.124-0.777c-0.683-0.221-1.161-1.088-1.436-2.599c-0.007-0.046-0.012-0.08-0.017-0.104l-0.578-2.986
				c-0.338-1.693-0.804-2.905-1.394-3.639c-0.59-0.731-1.467-1.207-2.629-1.426c1.154-0.571,1.97-1.431,2.454-2.573
				c0.481-1.142,0.598-2.495,0.35-4.055c-0.386-2.451-1.341-4.166-2.859-5.145c-1.521-0.979-3.661-1.251-6.426-0.814l-12.314,1.951
				l4.035,25.483L57.443,58.804z M54.103,37.708l6.404-1.013c1.21-0.192,2.165-0.049,2.867,0.428
				c0.702,0.476,1.139,1.273,1.317,2.383c0.185,1.171,0.007,2.079-0.534,2.723c-0.542,0.644-1.482,1.071-2.818,1.285l-6.161,0.974
				L54.103,37.708z"/>
		</g>
		<polygon style="fill:#009790;" points="70.111,30.676 70.833,35.241 78.371,34.048 81.684,54.964 86.885,54.141 83.572,33.225 
			91.066,32.037 90.342,27.472 		"/>
		<g>
			<path style="fill:#FFFFFF;" d="M68.365,19.526c0.488,3.078,1.722,5.296,3.705,6.656c1.982,1.363,4.594,1.786,7.837,1.273
				c3.221-0.51,5.558-1.722,7.011-3.634c1.453-1.912,1.936-4.399,1.45-7.465L85.8,0.125l-5.121,0.811l2.48,15.671
				c0.309,1.943,0.146,3.418-0.488,4.424c-0.636,1.003-1.8,1.64-3.493,1.909c-1.674,0.265-2.964,0.015-3.872-0.751
				c-0.909-0.768-1.516-2.116-1.822-4.05l-2.48-15.671l-5.208,0.826L68.365,19.526z"/>
			<path style="fill:none;stroke:#1D1D1B;stroke-width:0.2188;" d="M68.365,19.526c0.488,3.078,1.722,5.296,3.705,6.656
				c1.982,1.363,4.594,1.786,7.837,1.273c3.221-0.51,5.558-1.722,7.011-3.634c1.453-1.912,1.936-4.399,1.45-7.465L85.8,0.125
				l-5.121,0.811l2.48,15.671c0.309,1.943,0.146,3.418-0.488,4.424c-0.636,1.003-1.8,1.64-3.493,1.909
				c-1.674,0.265-2.964,0.015-3.872-0.751c-0.909-0.768-1.516-2.116-1.822-4.05l-2.48-15.671l-5.208,0.826L68.365,19.526z"/>
		</g>
		<path style="fill:#FFFFFF;" d="M45.893,32.128l5.403-0.858l0.833-5.383l9.673-1.533l2.505,4.854l5.388-0.855L56.749,4.818
			l-5.93,0.94L45.893,32.128z M59.747,20.363l-6.928,1.098l1.773-11.175L59.747,20.363z"/>
		<path style="fill:none;stroke:#1D1D1B;stroke-width:0.2188;" d="M45.893,32.128l5.403-0.858l0.833-5.383l9.673-1.533l2.505,4.854
			l5.388-0.855L56.749,4.818l-5.93,0.94L45.893,32.128z M59.747,20.363l-6.928,1.098l1.773-11.175L59.747,20.363z"/>
		<polygon style="fill:#FFFFFF;" points="44.398,32.557 43.669,27.956 30.544,30.035 29.528,23.61 40.992,21.793 40.319,17.539 
			28.853,19.356 28.01,14.014 40.548,12.027 39.86,7.686 22.447,10.446 26.397,35.409 		"/>
		<polygon style="fill:none;stroke:#1D1D1B;stroke-width:0.2188;" points="44.398,32.557 43.669,27.956 30.544,30.035 29.528,23.61 
			40.992,21.793 40.319,17.539 28.853,19.356 28.01,14.014 40.548,12.027 39.86,7.686 22.447,10.446 26.397,35.409 		"/>
		<g>
			<path style="fill:#FFFFFF;" d="M15.454,37.263c2.905-0.462,5.046-1.477,6.418-3.049c1.375-1.572,1.871-3.571,1.484-5.998
				c-0.228-1.455-0.741-2.621-1.533-3.496c-0.79-0.875-1.868-1.472-3.236-1.788c0.916-0.619,1.555-1.394,1.914-2.32
				c0.362-0.928,0.442-2.024,0.241-3.292c-0.326-2.06-1.244-3.522-2.755-4.392c-1.509-0.867-3.542-1.1-6.095-0.695L0.125,14.099
				l3.952,24.966L15.454,37.263z M5.717,17.663l5.842-0.926c1.326-0.211,2.305-0.153,2.944,0.17c0.636,0.323,1.03,0.943,1.173,1.863
				c0.151,0.94-0.036,1.676-0.556,2.206c-0.52,0.53-1.414,0.894-2.682,1.096l-5.876,0.93L5.717,17.663z M7.236,27.259l6.064-0.962
				c1.489-0.236,2.599-0.146,3.328,0.262c0.729,0.411,1.186,1.198,1.37,2.359c0.177,1.115-0.024,1.987-0.602,2.609
				c-0.576,0.624-1.586,1.049-3.029,1.278l-6.1,0.967L7.236,27.259z"/>
			<path style="fill:none;stroke:#1D1D1B;stroke-width:0.2188;" d="M15.454,37.263c2.905-0.462,5.046-1.477,6.418-3.049
				c1.375-1.572,1.871-3.571,1.484-5.998c-0.228-1.455-0.741-2.621-1.533-3.496c-0.79-0.875-1.868-1.472-3.236-1.788
				c0.916-0.619,1.555-1.394,1.914-2.32c0.362-0.928,0.442-2.024,0.241-3.292c-0.326-2.06-1.244-3.522-2.755-4.392
				c-1.509-0.867-3.542-1.1-6.095-0.695L0.125,14.099l3.952,24.966L15.454,37.263z M5.717,17.663l5.842-0.926
				c1.326-0.211,2.305-0.153,2.944,0.17c0.636,0.323,1.03,0.943,1.173,1.863c0.151,0.94-0.036,1.676-0.556,2.206
				c-0.52,0.53-1.414,0.894-2.682,1.096l-5.876,0.93L5.717,17.663z M7.236,27.259l6.064-0.962c1.489-0.236,2.599-0.146,3.328,0.262
				c0.729,0.411,1.186,1.198,1.37,2.359c0.177,1.115-0.024,1.987-0.602,2.609c-0.576,0.624-1.586,1.049-3.029,1.278l-6.1,0.967
				L7.236,27.259z"/>
		</g>
	</g>
</g>
<g id="Laag_1">
</g>
</svg>
