<svg xmlns="http://www.w3.org/2000/svg" xmlns:xlink="http://www.w3.org/1999/xlink" width="15.5cm" height="7.2cm" viewBox="0 0 440.7 203.6">
  <defs>
    <style>
      .a, .c, .d, .e {
        fill: none;
      }

      .b {
        clip-path: url(#a);
      }

      .c {
        stroke: #11924d;
      }

      .c, .d, .e {
        stroke-miterlimit: 5.18;
        stroke-width: 1.35px;
      }

      .d {
        stroke: #8dbe23;
      }

      .e {
        stroke: #305f28;
      }

      .f {
        fill: #009174;
      }
    </style>
    <clipPath id="a" transform="translate(-67.1 -244.1)">
      <rect class="a" x="60.4" y="225.9" width="484.4" height="235.35"/>
    </clipPath>
  </defs>
  <title>Boon_logo</title>
  <g>
    <g class="b">
      <path class="c" d="M207.2,311.4a35.7,35.7,0,0,1,13-14.3,34.9,34.9,0,0,1,34.5-1,35.8,35.8,0,0,1,12.5,11.3,42.3,42.3,0,0,1,6.7,17.1,44.6,44.6,0,0,1,.7,7.5,43.2,43.2,0,0,1-2.2,13.8,39.7,39.7,0,0,1-6.2,11.7,37.8,37.8,0,0,1-9.3,8.7,34.1,34.1,0,0,1-11.7,4.8,38.3,38.3,0,0,1-7.1.7,33.1,33.1,0,0,1-17.8-5.1,36.2,36.2,0,0,1-13-14.3A45.8,45.8,0,0,1,207.2,311.4Zm-22.8,89.6a88,88,0,0,0,25.5,13.3,90.3,90.3,0,0,0,28.4,4.6,88.2,88.2,0,0,0,21.9-2.8,93,93,0,0,0,20.1-7.6A90.3,90.3,0,0,0,323.7,357a81.7,81.7,0,0,0,4-25.2q0-26-15.6-48.5a82.6,82.6,0,0,0-14.1-16.1,89.1,89.1,0,0,0-17.8-12.1,91.3,91.3,0,0,0-20.4-7.7,90.2,90.2,0,0,0-75.5,15.3,86.6,86.6,0,0,0-19.8,20.6,85.6,85.6,0,0,0-8.5,15.4,89.3,89.3,0,0,0-5.3,16.6,78.9,78.9,0,0,0,0,33.2,89.1,89.1,0,0,0,5.2,16.4,84.1,84.1,0,0,0,8.6,15.4A86,86,0,0,0,184.4,401.1Z" transform="translate(-67.1 -244.1)"/>
      <path class="d" d="M279.4,311.4a35.7,35.7,0,0,1,13-14.3,34.9,34.9,0,0,1,34.5-1,35.8,35.8,0,0,1,12.5,11.3,42.3,42.3,0,0,1,6.7,17.1,44.6,44.6,0,0,1,.7,7.5,43.2,43.2,0,0,1-2.2,13.8,39.7,39.7,0,0,1-6.2,11.7,37.8,37.8,0,0,1-9.3,8.7,34.1,34.1,0,0,1-11.7,4.8,38.3,38.3,0,0,1-7.1.7,33.1,33.1,0,0,1-17.8-5.1,36.2,36.2,0,0,1-13-14.3A45.8,45.8,0,0,1,279.4,311.4Zm-22.8,89.6a88,88,0,0,0,25.5,13.3,90.3,90.3,0,0,0,28.4,4.6,88.2,88.2,0,0,0,21.9-2.8,93,93,0,0,0,20.1-7.6A90.3,90.3,0,0,0,396,357a81.7,81.7,0,0,0,4-25.2q0-26-15.6-48.5a82.6,82.6,0,0,0-14.1-16.1,89.1,89.1,0,0,0-17.8-12.1,91.3,91.3,0,0,0-20.4-7.7,90.2,90.2,0,0,0-75.5,15.3,86.6,86.6,0,0,0-19.8,20.6,85.6,85.6,0,0,0-8.5,15.4,89.3,89.3,0,0,0-5.3,16.6,78.9,78.9,0,0,0,0,33.2,89.1,89.1,0,0,0,5.2,16.4,84.1,84.1,0,0,0,8.6,15.4A86,86,0,0,0,256.6,401.1Z" transform="translate(-67.1 -244.1)"/>
      <path class="e" d="M374.1,418.5a24.5,24.5,0,0,0,18.1-7.6,26.8,26.8,0,0,0,7.7-19.6V333.6l60.1,75.1a27.9,27.9,0,0,0,6.6,5.9,25.3,25.3,0,0,0,13.8,3.9,26.2,26.2,0,0,0,11.9-2.7,27,27,0,0,0,9.3-7.7,25.2,25.2,0,0,0,5-11.2,49.2,49.2,0,0,0,.4-5.4V272.7A27.8,27.8,0,0,0,505,262a25.9,25.9,0,0,0-5.7-8.7,22.5,22.5,0,0,0-8.3-5.9,26.8,26.8,0,0,0-10.2-2,25.4,25.4,0,0,0-18.6,7.9,26.6,26.6,0,0,0-7.9,19.4V328L396,257.8Q385.2,245,373.2,245a24.4,24.4,0,0,0-9.6,2.1,25.8,25.8,0,0,0-12,10,27.9,27.9,0,0,0-4.5,15.6v116a33.1,33.1,0,0,0,8.1,21.5A24.5,24.5,0,0,0,374.1,418.5Z" transform="translate(-67.1 -244.1)"/>
    </g>
    <g>
      <path class="f" d="M68.2,445.9A2.3,2.3,0,0,1,68,445V434.7a2.5,2.5,0,0,1,.3-1.2,2.3,2.3,0,0,1,.9-0.9,2.4,2.4,0,0,1,1.2-.3h5.8l1,0.3a2.1,2.1,0,0,1,.8.8,2.1,2.1,0,0,1,.3,1.1,2.1,2.1,0,0,1-1,1.8,2,2,0,0,1-1,.3H72.8v1.3h2.7l0.9,0.2,0.7,0.5a1.8,1.8,0,0,1,.5.6,1.9,1.9,0,0,1,.2.8,2,2,0,0,1-.7,1.5,2.3,2.3,0,0,1-1.6.6H72.8v1.3H76a2.3,2.3,0,0,1,1.6.7,1.7,1.7,0,0,1,.5.7,2.1,2.1,0,0,1,.2.8,2,2,0,0,1-.6,1.5,2.3,2.3,0,0,1-1.6.6H70.4a2.2,2.2,0,0,1-1.3-.4A2.7,2.7,0,0,1,68.2,445.9Z" transform="translate(-67.1 -244.1)"/>
      <path class="f" d="M91.4,441a1.9,1.9,0,0,1-.4,1.4,2.1,2.1,0,0,1-1.5.4H84.1l0.4,0.4,0.6,0.3,0.7,0.2h1.1l1.6-.3,1.1-.2a1.8,1.8,0,0,1,1.3.5,1.6,1.6,0,0,1,.5,1.2,1.5,1.5,0,0,1,0,.4,2,2,0,0,1-.4.7l-0.6.5-1.1.5-1.8.4H86.1a8.4,8.4,0,0,1-2.8-.4,6.3,6.3,0,0,1-2.2-1.3,5.4,5.4,0,0,1-1.4-1.9,6.1,6.1,0,0,1-.5-2.4,5.8,5.8,0,0,1,1.8-4,6.1,6.1,0,0,1,2-1.2,6.7,6.7,0,0,1,2.5-.4,6.4,6.4,0,0,1,3.1.8,6.2,6.2,0,0,1,2.5,2.7A4.2,4.2,0,0,1,91.4,441Zm-7.3-.4h2.5v-0.2a1.2,1.2,0,0,0-1.4-1,1.4,1.4,0,0,0-1,1v0.2Z" transform="translate(-67.1 -244.1)"/>
      <path class="f" d="M93.4,447a2.3,2.3,0,0,1-.7-1.7v-7a2.3,2.3,0,0,1,2.3-2.3l1.8,1.1h0l0.3-.2a5.4,5.4,0,0,1,2.8-.9h1a4.6,4.6,0,0,1,1.8.8,3.9,3.9,0,0,1,1.2,1.4,3.7,3.7,0,0,1,.4,1.7v5.4a2.3,2.3,0,0,1-.3,1.2,2.4,2.4,0,0,1-.8.8,2.3,2.3,0,0,1-2.8-.3,2.2,2.2,0,0,1-.7-1.7v-4.4a1.1,1.1,0,0,0-.3-0.8,1,1,0,0,0-.8-0.4,1.1,1.1,0,0,0-.8.3,1.2,1.2,0,0,0-.4.9v4.4a2.3,2.3,0,0,1-.7,1.7,2.2,2.2,0,0,1-1.6.7A2.3,2.3,0,0,1,93.4,447Z" transform="translate(-67.1 -244.1)"/>
      <path class="f" d="M114.5,447.6a2.2,2.2,0,0,1-1.6-.7,2.3,2.3,0,0,1-.7-1.7v-12a2.2,2.2,0,0,1,.7-1.6,2.3,2.3,0,0,1,2.8-.4,2.3,2.3,0,0,1,1.1,2v3h0.4l1.8-.3h1a5.5,5.5,0,0,1,2,.8,5.2,5.2,0,0,1,1.5,1.5,6.4,6.4,0,0,1,1,3.4,6.3,6.3,0,0,1-.6,2.7,5.9,5.9,0,0,1-1.6,2.1,4.9,4.9,0,0,1-2.2,1h-1a3.4,3.4,0,0,1-2.7-1.1h0Zm2.2-5.8a1.9,1.9,0,0,0,.5,1.3,1.5,1.5,0,0,0,1.1.5h0.3l0.6-.3a1.5,1.5,0,0,0,.4-0.6,2.1,2.1,0,0,0,.2-0.8,1.9,1.9,0,0,0-.5-1.4,1.8,1.8,0,0,0-1.3-.5,1.5,1.5,0,0,0-.9.5,1.9,1.9,0,0,0-.5,1A3.1,3.1,0,0,0,116.7,441.9Z" transform="translate(-67.1 -244.1)"/>
      <path class="f" d="M131.9,447.7a6.3,6.3,0,0,1-3.1-.8,5.9,5.9,0,0,1-2.2-2.1,5.7,5.7,0,0,1-.8-3,5.8,5.8,0,0,1,.8-3,5.9,5.9,0,0,1,2.2-2.2,6.3,6.3,0,0,1,3.1-.8,6.5,6.5,0,0,1,2.3.4,6.2,6.2,0,0,1,1.9,1.1l0.9,1,0.6,1.1a5.6,5.6,0,0,1,.4,1.2,6.1,6.1,0,0,1,.1,1.2,5.9,5.9,0,0,1-.3,2,5.7,5.7,0,0,1-1,1.8,6.1,6.1,0,0,1-1.6,1.4A6.3,6.3,0,0,1,131.9,447.7Zm-1.6-5.9a2.1,2.1,0,0,0,.5,1.4,1.5,1.5,0,0,0,1.2.6h0.3a1.6,1.6,0,0,0,1.3-1.5v-0.5a1.8,1.8,0,0,0-.3-1,1.5,1.5,0,0,0-1.4-.8,1.5,1.5,0,0,0-1.4.8A2,2,0,0,0,130.2,441.8Z" transform="translate(-67.1 -244.1)"/>
      <path class="f" d="M145.4,447.7a6.3,6.3,0,0,1-3.1-.8,5.9,5.9,0,0,1-2.2-2.1,5.7,5.7,0,0,1-.8-3,5.8,5.8,0,0,1,.8-3,5.9,5.9,0,0,1,2.2-2.2,6.3,6.3,0,0,1,3.1-.8,6.5,6.5,0,0,1,2.3.4,6.2,6.2,0,0,1,1.9,1.1l0.9,1,0.6,1.1a5.6,5.6,0,0,1,.4,1.2,6.1,6.1,0,0,1,.1,1.2,5.9,5.9,0,0,1-.3,2,5.7,5.7,0,0,1-1,1.8,6.1,6.1,0,0,1-1.6,1.4A6.3,6.3,0,0,1,145.4,447.7Zm-1.6-5.9a2.1,2.1,0,0,0,.5,1.4,1.5,1.5,0,0,0,1.2.6h0.3a1.6,1.6,0,0,0,1.3-1.5v-0.5a1.8,1.8,0,0,0-.3-1,1.5,1.5,0,0,0-1.4-.8,1.5,1.5,0,0,0-1.4.8A2,2,0,0,0,143.8,441.8Z" transform="translate(-67.1 -244.1)"/>
      <path class="f" d="M153.6,447a2.3,2.3,0,0,1-.7-1.7v-7a2.3,2.3,0,0,1,2.3-2.3l1.8,1.1h0l0.3-.2a5.4,5.4,0,0,1,2.8-.9h1a4.6,4.6,0,0,1,1.8.8,3.9,3.9,0,0,1,1.2,1.4,3.7,3.7,0,0,1,.4,1.7v5.4a2.3,2.3,0,0,1-.3,1.2,2.4,2.4,0,0,1-.8.8,2.3,2.3,0,0,1-2.8-.3,2.2,2.2,0,0,1-.7-1.7v-4.4a1.1,1.1,0,0,0-.3-0.8,1,1,0,0,0-.8-0.4,1.1,1.1,0,0,0-.8.3,1.2,1.2,0,0,0-.4.9v4.4a2.3,2.3,0,0,1-.7,1.7,2.2,2.2,0,0,1-1.6.7A2.3,2.3,0,0,1,153.6,447Z" transform="translate(-67.1 -244.1)"/>
      <path class="f" d="M174,435.9l1,0.2,0.8,0.5a1.9,1.9,0,0,1,.5.8l1.2,3.8,1.2-3.8a2.1,2.1,0,0,1,.8-1.1,2.4,2.4,0,0,1,1.4-.4,2.4,2.4,0,0,1,1.2.3,2.2,2.2,0,0,1,.8.9,2.9,2.9,0,0,1,.3,1.3,2.5,2.5,0,0,1-.3.9l-3.3,6.5a2.4,2.4,0,0,1-2.2,1.7h-0.8l-0.8-.5a4.4,4.4,0,0,1-.7-1.1l-3.3-6.5a2.1,2.1,0,0,1-.2-0.9,2.6,2.6,0,0,1,.6-1.8A2.2,2.2,0,0,1,174,435.9Z" transform="translate(-67.1 -244.1)"/>
      <path class="f" d="M189.4,447.7a6.3,6.3,0,0,1-3.1-.8,5.9,5.9,0,0,1-2.2-2.1,5.7,5.7,0,0,1-.8-3,5.8,5.8,0,0,1,.8-3,5.9,5.9,0,0,1,2.2-2.2,6.3,6.3,0,0,1,3.1-.8,6.5,6.5,0,0,1,2.3.4,6.2,6.2,0,0,1,1.9,1.1l0.9,1,0.6,1.1a5.6,5.6,0,0,1,.4,1.2,6.1,6.1,0,0,1,.1,1.2,5.9,5.9,0,0,1-.3,2,5.7,5.7,0,0,1-1,1.8,6.1,6.1,0,0,1-1.6,1.4A6.3,6.3,0,0,1,189.4,447.7Zm-1.6-5.9a2.1,2.1,0,0,0,.5,1.4,1.5,1.5,0,0,0,1.2.6h0.3a1.6,1.6,0,0,0,1.3-1.5v-0.5a1.8,1.8,0,0,0-.3-1,1.5,1.5,0,0,0-1.4-.8,1.5,1.5,0,0,0-1.4.8A2,2,0,0,0,187.8,441.8Z" transform="translate(-67.1 -244.1)"/>
      <path class="f" d="M202.9,447.7a6.3,6.3,0,0,1-3.1-.8,5.9,5.9,0,0,1-2.2-2.1,5.7,5.7,0,0,1-.8-3,5.8,5.8,0,0,1,.8-3,5.9,5.9,0,0,1,2.2-2.2,6.3,6.3,0,0,1,3.1-.8,6.5,6.5,0,0,1,2.3.4,6.2,6.2,0,0,1,1.9,1.1l0.9,1,0.6,1.1a5.6,5.6,0,0,1,.4,1.2,6.1,6.1,0,0,1,.1,1.2,5.9,5.9,0,0,1-.3,2,5.7,5.7,0,0,1-1,1.8,6.1,6.1,0,0,1-1.6,1.4A6.3,6.3,0,0,1,202.9,447.7Zm-1.6-5.9a2.1,2.1,0,0,0,.5,1.4,1.5,1.5,0,0,0,1.2.6h0.3a1.6,1.6,0,0,0,1.3-1.5v-0.5a1.8,1.8,0,0,0-.3-1,1.5,1.5,0,0,0-1.4-.8,1.5,1.5,0,0,0-1.4.8A2,2,0,0,0,201.3,441.8Z" transform="translate(-67.1 -244.1)"/>
      <path class="f" d="M212.8,447.6a2.3,2.3,0,0,1-1.6-.7,2.2,2.2,0,0,1-.7-1.6v-7.1a2.3,2.3,0,0,1,2.3-2.3l2.2,1.5h0v-0.2l0.3-.3a2.6,2.6,0,0,1,1.8-.9h0.6a2.1,2.1,0,0,1,1,.6,2,2,0,0,1,.5,1,4.8,4.8,0,0,1,0,.5,1.8,1.8,0,0,1-.5,1.3,4,4,0,0,1-1.6.9h-0.4l-0.9.4-0.5.5a1.8,1.8,0,0,0-.2.6,6.4,6.4,0,0,0-.1,1v2.1a2.5,2.5,0,0,1-.3,1.2,2.4,2.4,0,0,1-.8.9A2.2,2.2,0,0,1,212.8,447.6Z" transform="translate(-67.1 -244.1)"/>
      <path class="f" d="M226.7,446.9a2.9,2.9,0,0,1-.7-1.9V434.6a2.5,2.5,0,0,1,.4-1.4,2.4,2.4,0,0,1,1.1-.9l0.9-.2a2.8,2.8,0,0,1,2.1,1.1l5.3,6.3v-5a2.4,2.4,0,0,1,.7-1.7,2.3,2.3,0,0,1,1.7-.7l0.9,0.2,0.8,0.5a2.3,2.3,0,0,1,.5.8,2.5,2.5,0,0,1,.2,1v10.7a4.4,4.4,0,0,1,0,.5,2.2,2.2,0,0,1-.5,1,2.5,2.5,0,0,1-.9.7l-1.1.2a2.3,2.3,0,0,1-1.3-.3l-0.6-.5-5.5-6.7v5.2a2.4,2.4,0,0,1-.7,1.8A2.4,2.4,0,0,1,226.7,446.9Z" transform="translate(-67.1 -244.1)"/>
      <path class="f" d="M254.1,441a1.9,1.9,0,0,1-.4,1.4,2.1,2.1,0,0,1-1.5.4h-5.4l0.4,0.4,0.6,0.3,0.7,0.2h1.1l1.6-.3,1.1-.2a1.8,1.8,0,0,1,1.3.5,1.6,1.6,0,0,1,.5,1.2,1.5,1.5,0,0,1,0,.4,2,2,0,0,1-.4.7l-0.6.5-1.1.5-1.8.4h-1.4a8.4,8.4,0,0,1-2.8-.4,6.3,6.3,0,0,1-2.2-1.3,5.4,5.4,0,0,1-1.4-1.9,6.1,6.1,0,0,1-.5-2.4,5.8,5.8,0,0,1,1.8-4,6.1,6.1,0,0,1,2-1.2,6.7,6.7,0,0,1,2.5-.4,6.4,6.4,0,0,1,3.1.8,6.2,6.2,0,0,1,2.5,2.7A4.2,4.2,0,0,1,254.1,441Zm-7.3-.4h2.5v-0.2a1.2,1.2,0,0,0-1.4-1,1.4,1.4,0,0,0-1,1v0.2Z" transform="translate(-67.1 -244.1)"/>
      <path class="f" d="M262.5,436.3l0.4,0.2v-3.2a2.3,2.3,0,0,1,.7-1.6,2.2,2.2,0,0,1,1.6-.7,2.3,2.3,0,0,1,1.2.3,2.4,2.4,0,0,1,1.1,2v12a2.4,2.4,0,0,1-.3,1.2,2.2,2.2,0,0,1-.8.8,2.3,2.3,0,0,1-1.2.3l-1.9-1.1h0a3.3,3.3,0,0,1-2.6,1.1h-1a5.2,5.2,0,0,1-2.8-1.6,6,6,0,0,1-1.5-3.1,7.1,7.1,0,0,1-.1-1.2,5.8,5.8,0,0,1,.1-1.3,6.2,6.2,0,0,1,1-2.2,5.3,5.3,0,0,1,1.7-1.5,4.9,4.9,0,0,1,2.5-.7A6,6,0,0,1,262.5,436.3Zm-2.7,5.4a1.9,1.9,0,0,0,.5,1.4,1.5,1.5,0,0,0,1.2.5,1.4,1.4,0,0,0,1-.4,2,2,0,0,0,.5-1.1v-0.7a1.6,1.6,0,0,0-1.2-1.4h-0.4a1.4,1.4,0,0,0-1,.4,2,2,0,0,0-.5,1.1A1.9,1.9,0,0,0,259.8,441.8Z" transform="translate(-67.1 -244.1)"/>
      <path class="f" d="M281,441a1.9,1.9,0,0,1-.4,1.4,2.1,2.1,0,0,1-1.5.4h-5.4l0.4,0.4,0.6,0.3,0.7,0.2h1.1l1.6-.3,1.1-.2a1.8,1.8,0,0,1,1.3.5,1.6,1.6,0,0,1,.5,1.2,1.5,1.5,0,0,1,0,.4,2,2,0,0,1-.4.7l-0.6.5-1.1.5-1.8.4h-1.4a8.4,8.4,0,0,1-2.8-.4,6.3,6.3,0,0,1-2.2-1.3,5.4,5.4,0,0,1-1.4-1.9,6.1,6.1,0,0,1-.5-2.4,5.8,5.8,0,0,1,1.8-4,6.1,6.1,0,0,1,2-1.2,6.7,6.7,0,0,1,2.5-.4,6.4,6.4,0,0,1,3.1.8,6.2,6.2,0,0,1,2.5,2.7A4.2,4.2,0,0,1,281,441Zm-7.3-.4h2.5v-0.2a1.2,1.2,0,0,0-1.4-1,1.4,1.4,0,0,0-1,1v0.2Z" transform="translate(-67.1 -244.1)"/>
      <path class="f" d="M284.6,447.6a2.3,2.3,0,0,1-1.6-.7,2.2,2.2,0,0,1-.7-1.6v-7.1a2.3,2.3,0,0,1,2.3-2.3l2.2,1.5h0v-0.2l0.3-.3a2.6,2.6,0,0,1,1.8-.9h0.6a2.1,2.1,0,0,1,1,.6,2,2,0,0,1,.5,1,4.8,4.8,0,0,1,0,.5,1.8,1.8,0,0,1-.5,1.3,4,4,0,0,1-1.6.9h-0.4l-0.9.4-0.5.5a1.8,1.8,0,0,0-.2.6,6.4,6.4,0,0,0-.1,1v2.1a2.5,2.5,0,0,1-.3,1.2,2.4,2.4,0,0,1-.8.9A2.2,2.2,0,0,1,284.6,447.6Z" transform="translate(-67.1 -244.1)"/>
      <path class="f" d="M292.1,447a2.3,2.3,0,0,1-.7-1.7V433.2a2.2,2.2,0,0,1,.3-1.1,2.4,2.4,0,0,1,2.1-1.2,2.2,2.2,0,0,1,1.1.3,2.3,2.3,0,0,1,.8.9,2.3,2.3,0,0,1,.3,1.2v12.1a2.3,2.3,0,0,1-2.3,2.4A2.3,2.3,0,0,1,292.1,447Z" transform="translate(-67.1 -244.1)"/>
      <path class="f" d="M301.8,436h1a3.5,3.5,0,0,1,2.6,1h0l1.9-1,0.6-.2a1.1,1.1,0,0,1,.8.4,2.9,2.9,0,0,1,.9,2.1v7.1a2.3,2.3,0,0,1-.7,1.7,2.2,2.2,0,0,1-1.6.7l-1.9-1.1h0a3.4,3.4,0,0,1-2.6,1h-1.2a4.9,4.9,0,0,1-1.8-.8,5.9,5.9,0,0,1-1.6-1.6,6.3,6.3,0,0,1-.7-1.6,7.6,7.6,0,0,1-.2-1.9,6.4,6.4,0,0,1,.7-2.6,5.9,5.9,0,0,1,1.6-2A5.1,5.1,0,0,1,301.8,436Zm0.2,5.9a2,2,0,0,0,.4,1.3,1.4,1.4,0,0,0,1.1.6l0.8-.2a1.5,1.5,0,0,0,.6-0.6,1.5,1.5,0,0,0,.2-0.6q0-.2,0-0.7a1.7,1.7,0,0,0-1-1.4l-0.7-.2a1.3,1.3,0,0,0-1,.4,2,2,0,0,0-.5,1.1v0.4Z" transform="translate(-67.1 -244.1)"/>
      <path class="f" d="M311.8,447a2.3,2.3,0,0,1-.7-1.7v-7a2.3,2.3,0,0,1,2.3-2.3l1.8,1.1h0l0.3-.2a5.4,5.4,0,0,1,2.8-.9h1a4.6,4.6,0,0,1,1.8.8,3.9,3.9,0,0,1,1.2,1.4,3.7,3.7,0,0,1,.4,1.7v5.4a2.3,2.3,0,0,1-.3,1.2,2.4,2.4,0,0,1-.8.8,2.3,2.3,0,0,1-2.8-.3,2.2,2.2,0,0,1-.7-1.7v-4.4a1.1,1.1,0,0,0-.3-0.8,1,1,0,0,0-.8-0.4,1.1,1.1,0,0,0-.8.3,1.2,1.2,0,0,0-.4.9v4.4a2.3,2.3,0,0,1-.7,1.7,2.2,2.2,0,0,1-1.6.7A2.3,2.3,0,0,1,311.8,447Z" transform="translate(-67.1 -244.1)"/>
      <path class="f" d="M331.5,436.3l0.4,0.2v-3.2a2.3,2.3,0,0,1,.7-1.6,2.2,2.2,0,0,1,1.7-.7,2.3,2.3,0,0,1,1.2.3,2.4,2.4,0,0,1,1.1,2v12a2.4,2.4,0,0,1-.3,1.2,2.2,2.2,0,0,1-.8.8,2.3,2.3,0,0,1-1.2.3l-1.9-1.1h0a3.3,3.3,0,0,1-2.6,1.1h-1a5.2,5.2,0,0,1-2.8-1.6,6,6,0,0,1-1.5-3.1,7.1,7.1,0,0,1-.1-1.2,5.8,5.8,0,0,1,.1-1.3,6.2,6.2,0,0,1,1-2.2,5.3,5.3,0,0,1,1.7-1.5,4.9,4.9,0,0,1,2.5-.7A6,6,0,0,1,331.5,436.3Zm-2.7,5.4a2,2,0,0,0,.5,1.4,1.5,1.5,0,0,0,1.2.5,1.5,1.5,0,0,0,1-.4,2,2,0,0,0,.5-1.1v-0.7a1.6,1.6,0,0,0-1.2-1.4h-0.4a1.4,1.4,0,0,0-1,.4,2,2,0,0,0-.5,1.1A1.9,1.9,0,0,0,328.8,441.8Z" transform="translate(-67.1 -244.1)"/>
      <path class="f" d="M338.9,446.9a2.3,2.3,0,0,1-1.3-1.8,1.4,1.4,0,0,1,.1-0.5,1.6,1.6,0,0,1,.7-0.9,2,2,0,0,1,1.2-.3l1,0.2h0.7l1.3,0.4h0.4l0.4-.2a0.5,0.5,0,0,0-.2-0.5h-0.8l-0.5-.2h-0.4l-1.6-.6-1-.7a3.2,3.2,0,0,1-.6-0.9,3.1,3.1,0,0,1-.2-1.2,3.1,3.1,0,0,1,.6-1.8,4.2,4.2,0,0,1,1.8-1.4,6.7,6.7,0,0,1,2.7-.5l2.1,0.3a3.7,3.7,0,0,1,2,1.1,1.4,1.4,0,0,1,.3.9,1.5,1.5,0,0,1-.3.9,1.5,1.5,0,0,1-.9.6h-0.5l-1-.2-0.6-.2h-1.7l0.2,0.3h0.6l0.7,0.2,0.5,0.2,0.5,0.2,1.4,0.7a3.2,3.2,0,0,1,1.4,2.7,3.4,3.4,0,0,1-1.4,2.7,5.4,5.4,0,0,1-3.5,1.1h-0.9A6.9,6.9,0,0,1,338.9,446.9Z" transform="translate(-67.1 -244.1)"/>
    </g>
    <g class="b">
      <path class="f" d="M94.2,416.7q-12.1,0-19.6-8.1t-7.5-21.7V275.1a28.3,28.3,0,0,1,13.8-24.3,26.6,26.6,0,0,1,13.8-3.7h38.7a81.1,81.1,0,0,1,10.3.7,66,66,0,0,1,20.6,5.9,55.5,55.5,0,0,1,15.6,11.1,47.3,47.3,0,0,1,10,15.1,46.5,46.5,0,0,1,3.5,17.9,48.6,48.6,0,0,1-.2,5.4,45.1,45.1,0,0,1-8.5,23.2l0.5,0.6,3.2,2.1,3.3,2.1,1.4,1.3a40.2,40.2,0,0,1,8.1,9.2,42.1,42.1,0,0,1,5.1,11.2,45.6,45.6,0,0,1,1.7,12.6,50.4,50.4,0,0,1-9.8,30,66.3,66.3,0,0,1-8.3,8.8,49.7,49.7,0,0,1-16.5,9.6,64.4,64.4,0,0,1-20.8,3.1H94.2ZM121,369.7h25.5a7.3,7.3,0,0,0,5.2-2.1,7,7,0,0,0,2.2-5.4,9,9,0,0,0-2.1-6,6.7,6.7,0,0,0-5.4-2.4H121v15.8Zm0.3-61.1h12.3a9.1,9.1,0,0,0,6.3-2.6,5.8,5.8,0,0,0,2.4-4.9,6.3,6.3,0,0,0-2.6-5.1,9.6,9.6,0,0,0-6.5-2.3H121.3v14.9Z" transform="translate(-67.1 -244.1)"/>
    </g>
  </g>
</svg>
