<?xml version="1.0" encoding="utf-8"?>
<!-- Generator: Adobe Illustrator 22.1.0, SVG Export Plug-In . SVG Version: 6.00 Build 0)  -->
<svg version="1.1" id="Layer_1" xmlns="http://www.w3.org/2000/svg" xmlns:xlink="http://www.w3.org/1999/xlink" x="0px" y="0px"
	 viewBox="0 0 212.37 229.84" style="enable-background:new 0 0 212.37 229.84;" xml:space="preserve">
<style type="text/css">
	.janus-st0{fill:none;}
	.janus-st1{fill:url(#SVGID_1_);}
	.janus-st2{fill:#77A840;}
	.janus-st3{fill:#E20613;}
	.janus-st4{fill:#862A27;}
</style>
<path class="janus-st0" d="M64.47,214.88c-0.09,0.18,1.13,0.99,1.74,1.5c0.21-0.67,0.42-1.33,0.62-1.97c-0.18-0.72-0.34-1.33-0.5-1.94
	C65.68,213.26,64.91,213.99,64.47,214.88z"/>
<path class="janus-st0" d="M99.19,87.25c0.12,0.24-0.25,0.82-0.51,1.15c-0.48,0.61-1.37,1.11-1.46,1.74c-0.07,0.46,0.85,1.1,1.37,1.61
	c0.47,0.45,1.01,0.82,1.51,1.22c-1.53,1.51-0.08,2.06,0.87,2.81c0.24,0.19,0.54,0.65,0.46,0.84c-1.29,3.02,0.65,2.5,2.36,2.16
	c1.05-0.21,2.08-0.7,3.12-0.7c1.21,0,2.42,0.48,3.64,0.57c0.25,0.02,0.9-0.91,0.8-1.14c-0.59-1.28,0.06-1.89,0.96-2.62
	c0.37-0.3,0.69-1.34,0.49-1.59c-1.32-1.62,0.05-1.44,0.98-1.71c0.55-0.16,1.48-0.78,1.44-0.89c-0.33-0.88-0.87-1.69-1.32-2.53
	c-0.21-0.39-0.66-0.93-0.54-1.17c1.69-3.26,3.48-6.46,5.18-9.71c0.16-0.31,0.08-1.06-0.14-1.2c-1.13-0.72-2.41-1.23-3.52-1.98
	c-0.66-0.44-1.13-1.17-1.69-1.78c0.73-0.42,1.49-0.79,2.18-1.26c0.54-0.37,1-0.87,1.49-1.31c-0.48-0.36-0.93-0.78-1.46-1.05
	c-0.32-0.16-0.76-0.07-0.84-0.07c-2.54,0.02-3.26,1.03-2.63,3.06c0.12,0.37-0.26,0.91-0.42,1.36c-0.21,0.63-0.81,1.52-0.58,1.85
	c1.63,2.38,0.11,3.24-1.74,4.04c-0.23,0.1-0.55,0.23-0.6,0.41c-0.2,0.69-0.57,1.48-0.4,2.1c0.39,1.39,1.13,2.68,1.61,4.05
	c0.43,1.23,0.35,2.2-1.41,2.12c-0.48-0.02-1.07,0.34-1.46,0.69c-0.25,0.23-0.22,0.76-0.32,1.15c0.29-0.06,0.59-0.19,0.88-0.16
	c0.46,0.05,1.1,0.05,1.33,0.34c0.93,1.18,0.67,5.12-0.33,6.32c-0.09,0.1-0.3,0.2-0.4,0.16c-0.11-0.04-0.12-0.34-0.22-0.37
	c-0.84-0.25-1.69-0.5-2.55-0.64c-0.15-0.03-0.4,0.45-0.58,0.71c-0.11,0.16-0.17,0.36-0.25,0.54c-0.15-0.17-0.37-0.32-0.43-0.52
	c-0.42-1.31-1.05-2.63-1.11-3.96c-0.03-0.82,0.81-1.69,1.32-2.5c0.07-0.11,0.53-0.01,0.79,0.05c0.34,0.09,0.67,0.23,1,0.36
	c-0.11-0.46-0.08-1.15-0.37-1.34c-0.65-0.42-1.48-0.55-2.19-0.89c-0.32-0.15-0.79-0.59-0.74-0.78c0.34-1.43,0.83-2.82,1.21-4.24
	c0.24-0.9,0.67-1.91,0.45-2.71c-0.15-0.54-1.3-0.79-1.99-1.19c-1.07-0.63-2.21-1.24-0.99-2.71c1.12-1.36,0.22-2.2-0.76-3.06
	c-0.19-0.17-0.32-0.77-0.2-0.88c1.45-1.29,0.46-2.29-0.59-2.75c-0.97-0.42-2.22-0.27-3.34-0.2c-0.28,0.02-0.52,0.69-0.79,1.05
	c0.69,0.39,1.37,0.78,2.07,1.16c0.34,0.18,0.97,0.26,1.01,0.48c0.13,0.65,0.29,1.73-0.03,1.95c-1.4,0.97-2.99,1.66-4.46,2.53
	c-0.25,0.15-0.5,0.8-0.38,1.03C95.68,80.61,97.48,83.91,99.19,87.25z"/>
<path class="janus-st0" d="M45.13,206.81c-2.03-0.47-2.16,0.52-1.49,2.22c0.2,0.51-0.14,1.24,0.08,1.73c0.33,0.73,0.87,1.43,1.48,1.95
	c0.17,0.14,1.28-0.34,1.34-0.66c0.2-1.01-0.26-2.28,0.19-3.08C47.87,206.97,47.07,206.64,45.13,206.81z"/>
<path class="janus-st0" d="M117.35,86.08c-0.24,0.07-0.57,0.63-0.49,0.82c0.46,1.07,1,2.12,1.59,3.13c0.11,0.19,0.61,0.37,0.78,0.28
	c0.29-0.16,0.47-0.54,0.74-0.89c-0.55-1.08-1.01-2.11-1.6-3.06C118.23,86.12,117.65,85.99,117.35,86.08z"/>
<path class="janus-st0" d="M114.55,35.57c-0.07,0.62-0.15,1.24-0.02,1.82c0.02,0.09,0.06,0.18,0.08,0.28c0-0.9,0-1.79,0-2.69
	c0,0-0.01-0.01-0.01-0.01C114.59,35.16,114.57,35.36,114.55,35.57z"/>
<path class="janus-st0" d="M74.63,6.77c-1.65-0.55-3.57-0.41-5.35-0.35c-3.3,0.11-5.21,2.21-5.21,5.51c0,3.88,0,7.77,0,11.65c0,0,0,0,0,0
	c0.49-0.05,0.97-0.11,1.46-0.16c0.25-0.02,0.51,0.09,0.77,0.14c-0.08,0.23-0.11,0.49-0.24,0.67c-0.98,1.32-0.38,2.1,0.89,2.62
	c0.17,0.07,0.51,0.05,0.59-0.06c0.12-0.16,0.15-0.46,0.1-0.67c-0.13-0.56-0.52-1.55-0.46-1.58c1.04-0.46,2.25-1.3,3.19-1.08
	c2.68,0.62,5.27,0.44,7.85-0.03c0.02-3.5,0.01-7,0.01-10.51C78.34,8.98,77.84,7.84,74.63,6.77z"/>
<path class="janus-st0" d="M93.72,90.64c0.82-0.89,1.65-1.77,2.57-2.76c-0.51-0.8-0.73-1.51-1.15-1.67c-0.31-0.12-1.06,0.37-1.32,0.78
	c-0.48,0.76-0.85,1.63-1.02,2.5C92.74,89.8,93.4,90.25,93.72,90.64z"/>
<path class="janus-st0" d="M114.21,44.57c0-0.61-0.01-1.22-0.03-1.83c-0.01-0.18-0.33-0.45-0.55-0.51c-0.31-0.09-0.69,0.06-0.99-0.04
	c-1.15-0.42-2.29-0.89-3.43-1.34c0.53-1.25,0.98-2.55,1.68-3.69c0.13-0.22,1.29,0.08,1.92,0.31c0.46,0.17,0.83,0.61,1.23,0.93
	c0.1-0.5,0.35-1.03,0.26-1.48c-0.36-1.8-0.87-3.58-1.21-5.38c-0.1-0.52,0.12-1.12,0.29-1.66c0.1-0.31,0.23-0.62,0.37-0.93
	c0.29-0.04,0.57-0.07,0.86-0.19c0.01-8.08,0.02-15.18,0.03-17.42c0.01-2.4-1.81-4.51-4.21-4.67c-1.78-0.12-3.59-0.31-5.36-0.14
	c-2.89,0.26-4.66,2.34-4.66,5.19c0,4.41,0.02,15.25,0.06,25.45c0.38-0.1,0.81-0.13,0.84-0.06c0.62,1.37,1.68,2.85,1.52,4.17
	c-0.1,0.8-1.15,1.14-2.34,1.17c0.01,1.75,0.02,3.44,0.03,5.02c0.75-0.32,1.52-0.62,2.3-0.76c1.3-0.23,2.68-0.24,3.99-0.06
	c2.3,0.31,4.57,0.85,6.85,1.26c0.15,0.03,0.52-0.27,0.52-0.42c0.01-0.66,0.02-1.32,0.02-1.98c0.13,0.36,0.25,0.7,0.38,1.03
	c0-0.97,0-1.96,0-2.98C114.47,43.87,114.35,44.21,114.21,44.57z"/>
<path class="janus-st0" d="M165.85,209.39c0.16,1.03,0.35,2.06,0.53,3.09c0.79-0.25,1.6-0.46,2.37-0.76c0.18-0.07,0.35-0.43,0.35-0.66
	c0-0.86-0.26-1.77-0.09-2.58c0.34-1.58-0.01-2.3-1.66-1.85c-2.06-0.31-2.34,0.5-1.44,2.1C166.01,208.88,165.82,209.17,165.85,209.39
	z"/>
<path class="janus-st0" d="M122.09,164.95c-0.51,0.13-1.55-0.13-1.68-0.47c-1.02-2.59-2.56-5.17-0.88-8.06c0.09-0.16,0.2-0.4,0.15-0.55
	c-0.14-0.4-0.28-0.87-0.57-1.14c-1.96-1.72-5.4,0.38-6.91-2.66c-0.1-0.21-0.84-0.04-1.08-0.26c-0.6-0.57-1.32-1.19-1.54-1.92
	c-0.41-1.34-0.5-2.78-0.7-4.18c-0.09-0.58-0.19-1.18-0.19-1.76c0.02-1.54,0.19-3.09,0.07-4.62c-0.03-0.39-0.95-0.7-1.46-1.05
	c-0.25,0.41-0.7,0.83-0.7,1.25c0,0.1,0,0.2,0,0.29c-0.07-0.07-0.14-0.14-0.22-0.23c-0.1-0.11-0.21-0.16-0.32-0.18
	c-0.13-0.28-0.32-0.56-0.45-0.84c-0.62,0.37-1.72,0.67-1.78,1.12c-0.21,1.37,0.02,2.8,0.01,4.2c0,0.71-0.1,1.42-0.21,2.12
	c-0.19,1.23-0.72,2.49-0.57,3.67c0.17,1.33-0.05,1.87-1.36,2.28c-0.84,0.26-1.48,1.13-2.24,1.68c-0.28,0.2-0.64,0.35-0.99,0.41
	c-1.85,0.34-3.71,0.63-5.56,1c-0.1,0.02-0.22,0.56-0.15,0.8c0.76,2.39,1.28,4.64,0.05,7.18c-0.76,1.57-0.85,2.78-3.16,2.08
	c-0.95-0.29-2.54,0.81-3.5,1.67c-0.37,0.33,0.1,1.79,0.43,2.63c0.16,0.4,0.92,0.55,1.4,0.82c0-0.62,0-1.24-0.01-1.86
	c0-0.18-0.05-0.35-0.08-0.53c1.52,0.33,3.07,0.57,4.54,1.05c0.34,0.11,0.5,1.01,0.6,1.57c0.28,1.51,0.48,3.04,0.74,4.56
	c0.01,0.08,0.41,0.2,0.47,0.14c1.27-1.33,2.52-2.68,3.79-4.02c0.45-0.47,0.94-0.89,1.41-1.34c0.48,0.64,1.22,1.23,1.37,1.94
	c0.23,1.09-0.04,2.26,0.06,3.39c0.21,2.32,2.26,1.14,3.43,1.63c0.1,0.04,0.57-0.88,0.91-1.33c0.43-0.56,0.89-1.1,1.33-1.65
	c0.3,0.5,0.53,1.06,0.91,1.49c0.45,0.51,1.1,1.35,1.52,1.27c1.1-0.2,2.79,0.13,2.75-1.87c-0.03-1.3-0.1-2.61,0.03-3.9
	c0.04-0.42,0.59-0.99,1.01-1.11c0.56-0.16,1.54-0.2,1.81,0.14c1.3,1.62,2.43,3.38,3.64,5.07c0.06,0.08,0.52,0,0.53-0.04
	c0.22-1.73,0.39-3.47,0.61-5.2c0.03-0.26,0.15-0.61,0.34-0.73c0.93-0.6,1.85-1.27,2.88-1.63c0.56-0.19,1.34,0.17,1.99,0.37
	c0.06,0.02-0.12,0.69-0.11,1.06c0.01,0.36,0.07,0.74,0.21,1.06c0.04,0.1,0.62,0.11,0.64,0.04c0.42-1.09,1.35-2.38,1.05-3.26
	C125.7,164.69,123.96,164.48,122.09,164.95z"/>
<path class="janus-st0" d="M103.26,182.98c-0.03,0.2,0.44,0.65,0.71,0.67c0.28,0.02,0.59-0.34,1.26-0.78c-0.68-0.38-1.03-0.72-1.25-0.65
	C103.67,182.3,103.31,182.68,103.26,182.98z"/>
<path class="janus-st0" d="M145.79,214.35c0.17,0.69,0.31,1.3,0.46,1.9c0.61-0.53,1.8-1.24,1.7-1.57c-0.24-0.83-1.06-1.49-1.65-2.22
	C146.13,213.1,145.96,213.73,145.79,214.35z"/>
<path class="janus-st0" d="M108.6,181.96c-0.23,0.26-0.59,0.49-0.66,0.79c-0.05,0.23,0.26,0.54,0.59,1.15c0.42-0.6,0.81-0.91,0.78-1.18
	C109.28,182.45,108.86,182.22,108.6,181.96z"/>
<path class="janus-st0" d="M105.38,184c0.18,0.14,0.36,0.28,0.63,0.5c0.45-0.26,0.82-0.48,1.19-0.7c-0.24-0.12-0.51-0.37-0.71-0.32
	C106.09,183.57,105.74,183.82,105.38,184z"/>
<linearGradient id="SVGID_1_" gradientUnits="userSpaceOnUse" x1="106.1835" y1="229.8419" x2="106.1835" y2="22.2878">
	<stop  offset="0.3963" style="stop-color:#009448"/>
	<stop  offset="0.79" style="stop-color:#77A840"/>
</linearGradient>
<path class="janus-st1" d="M210.35,125.59c-2.54-2.75-4.94-5.73-6.86-8.94c-1.97-3.3-3.33-6.87-7.08-8.78c-1.31-0.67-2.51-2.01-3.22-3.33
	c-1.58-2.97-0.29-5.86,0.66-8.79c0.66-2.03,1.2-4.32,0.93-6.38c-0.39-3.02-1.55-5.95-2.4-8.91c-0.21-0.73-0.39-1.5-0.76-2.15
	c-0.14-0.23-0.82-0.14-1.25-0.2c0.22-0.7,0.42-1.41,0.66-2.1c0.36-1.01,1.21-2.1,1.03-3c-0.66-3.45-1.68-6.83-2.47-10.25
	c-0.13-0.58,0.08-1.34,0.38-1.88c0.63-1.15,1.45-2.21,2.12-3.33c-0.41,0.41-0.87,0.8-1.37,1.16c-3.19,2.27-6.78,2.7-10.51,2.51
	c-3.8,0.25-7.33-0.55-10.42-2.73c-1.98-1.39-3.07-3.42-3.28-5.88c-0.29-3.32-0.29-3.32,3-3.32c0.12,0,0.24,0,0.37,0
	c3.35,0,3.22,0.04,4.09,3.2c0.23,0.84,1.47,1.76,2.41,1.98c1.79,0.42,3.7,0.49,5.56,0.48c2.08-0.02,4.1-0.68,4.98-2.72
	c0.48-1.11,0.54-7.1,0.56-9.99c-0.19-0.12-0.39-0.25-0.58-0.34c-2.06-1.01-4.17-1.96-6.16-3.1c-2.5-1.45-4.87-3.13-7.35-4.61
	c-3.71-2.21-7.47-4.36-11.23-6.49c-1.28-0.73-1.61-1.63-0.96-2.96c0.11-0.22-0.13-0.61-0.21-0.91c-0.84,0.8-3.03-0.13-2.75,2.16
	c0.01,0.05-0.04,0.13-0.11,0.21c-0.02,12.43-0.08,25.07-0.21,26.5c-0.34,3.91-2.85,6.03-6.34,7.42c-3.48,1.39-7.08,1.28-10.64,1.05
	c-3.64-0.24-7.03-1.5-9.37-4.5c-1.93-2.47-1.59-5.5-1.58-8.42c0.01-2.92,0.01-14.2,0.01-25.35c-2.07-0.21-4.14-0.42-6.21-0.61
	c-0.31-0.03-0.88,0.24-0.94,0.48c-0.29,1.08-0.35,2.23-0.7,3.29c-0.07,0.21-0.24,0.45-0.43,0.66c0.06,10.9,0.13,23.31,0.13,25.9
	c0,2.42,0,4.83-0.07,7.24c-0.01,0.3-0.51,0.82-0.79,0.83c-1.95,0.07-3.91,0.05-5.87,0.01c-0.18,0-0.46-0.38-0.49-0.61
	c-0.07-0.57-0.01-1.16,0-1.73c0.01-2.03,0.01-6.47,0.02-11.85c-0.12-0.34-0.25-0.68-0.38-1.03c0,0.66-0.01,1.32-0.02,1.98
	c0,0.15-0.37,0.44-0.52,0.42c-2.29-0.41-4.55-0.94-6.85-1.26c-1.31-0.18-2.69-0.17-3.99,0.06c-0.79,0.14-1.55,0.44-2.3,0.76
	c0.03,5.15,0.07,9.24,0.11,10.87c0.05,1.88-0.38,2.69-2.35,2.46c-1.16-0.14-2.35-0.09-3.52-0.01c-1.21,0.08-1.17-0.64-1.17-1.49
	c0.03-6.5,0.03-13,0.03-19.5c0-4.25,0.03-8.5,0.04-12.75c-0.66,0.01-1.37,0.14-2.14,0.45c-0.24,0.1-0.92-0.26-1-0.52
	c-0.29-0.97-0.28-2.04-0.63-2.97c-0.21-0.55-0.84-1.2-1.38-1.32c-1.01-0.21-2.53,0.35-3.04-0.17c-0.05-0.05-0.09-0.09-0.14-0.14
	C85.39,34,85.4,50.27,85.37,59.69c0,0.35-0.57,0.97-0.9,0.99c-1.86,0.1-3.73,0.08-5.6,0.02c-0.23-0.01-0.63-0.47-0.63-0.72
	c-0.02-7.23,0.01-24.8-0.11-26.35c-0.01-0.08-1.13-0.24-1.65-0.09c-1.55,0.44-3.09,0.92-4.57,1.56c-2.32,1-4.65,2.03-6.83,3.28
	c-0.55,0.31-0.81,1.53-0.81,2.34c-0.06,6.44-0.03,12.89-0.06,19.34c0,0.21-0.36,0.59-0.57,0.59c-1.96,0.05-3.93,0.05-5.9,0.01
	c-0.18,0-0.49-0.36-0.49-0.55c0-1.97-0.03-18.94,0.05-33.36c-0.78,0.11-1.56,0.2-2.35,0.23c-1.89,0.08-3.58,0.04-5.28,1.36
	c-0.17,0.13-0.35,0.25-0.53,0.36c0.01,10.41-0.01,20.48-0.09,23.75c-0.07,3.15-1.73,5.65-4.67,6.91c-2,0.86-4.16,1.52-6.31,1.8
	c-2.4,0.3-4.94,0.42-7.29-0.04c-2.24-0.43-4.44-1.51-6.44-2.67c-1.87-1.08-2.89-3-3.13-5.21c-0.13-1.2-0.18-2.42-0.22-3.63
	c0-0.11,0.32-0.32,0.5-0.32c1.8-0.02,3.61-0.07,5.41,0.03c0.35,0.02,0.97,0.69,0.94,0.99c-0.29,2.44,2.49,4.66,4.38,4.73
	c1.85,0.07,3.71,0.04,5.56-0.04c2.15-0.1,4.25-2.38,4.26-4.53c0.01-2.23,0.03-9.72,0.04-18.34c-1.91,1.2-3.78,2.47-5.67,3.7
	c-1.82,1.19-3.46,2.9-5.45,3.53c-5.14,1.65-7.93,5.68-10.79,9.69c-1.75,2.45-0.93,7.28,1.31,10.31c0.74,1.01,1.64,2.41,1.48,3.48
	c-0.41,2.69-1.64,5.25-2.05,7.94c-0.29,1.91-1.08,4.13,0.98,5.88c0.51,0.44,1.63,2.22-0.82,2.03c-0.12-0.01-0.32,0.19-0.36,0.33
	c-0.89,2.89-1.74,5.8-2.66,8.68c-1.12,3.51,0.07,6.67,1.25,9.89c1.48,4.03,0.8,8.08-3.23,10.7c-2.29,1.49-4.29,3.92-5.58,6.37
	c-2.49,4.72-5.57,8.85-9.37,12.56c-1.89,1.84-1.3,5.26,1.09,6.34c2.09,0.94,4.4,1.42,6.65,1.97c6.4,1.56,9.07,5.64,7.97,12.14
	c-0.26,1.53-1.42,3.36,0.89,4.46c0.13,0.06,0.15,0.59,0.05,0.84c-0.92,2.27,0.14,3.21,2.24,3.77c4.09,1.08,4.59,3.12,1.61,6.16
	c-2.72,2.78-1.74,10.37,1.72,12.12c2.45,1.24,5.01,2.41,7.66,3.03c4.16,0.97,8.44,1.43,12.66,2.15c1.61,0.27,3.54-0.51,4.41,1.95
	c1.08,3.05,2.62,5.93,3.89,8.91c0.61,1.41,1.47,2.88,1.51,4.34c0.07,2.51-2.4,2.65-3.99,3.78c-3.64,2.6-6.8,5.82-7.99,10.47
	c-0.32,1.25-1.13,2.5-2.04,3.44c-4.33,4.46-8.77,8.82-13.16,13.22c-0.12,0.12-0.16,0.32-0.24,0.48c0.19,0,0.43,0.09,0.56,0
	c1.2-0.82,2.36-1.7,3.57-2.5c0.71-0.48,1.48-1.18,2.25-1.22c3.32-0.15,6.65-0.17,9.97-0.03c0.93,0.04,1.93,0.65,2.72,1.24
	c0.62,0.47,0.94,1.33,1.44,1.97c0.2,0.26,0.52,0.44,0.81,0.62c0.02,0.01,0.33-0.29,0.31-0.41c-0.07-0.38-0.18-0.77-0.36-1.11
	c-0.2-0.35-0.51-0.64-0.77-0.96c0.61-0.46,1.2-1.27,1.84-1.31c2.46-0.16,4.93-0.02,7.39-0.08c1.09-0.02,1.49,0.17,0.71,1.19
	c-0.09,0.12-0.07,0.33-0.1,0.5c0.12-0.01,0.31,0.02,0.36-0.04c1.59-2.43,4.08-1.38,6.23-1.66c0.37-0.05,0.69-0.49,1.04-0.74
	c0.23-0.16,0.57-0.5,0.7-0.44c0.48,0.25,0.9,0.63,1.34,0.96c-0.2,0.18-0.38,0.4-0.61,0.52c-0.35,0.18-1.06,0.3-1.06,0.44
	c0,1.02-0.13,2.77,0.3,2.94c2.41,0.93-0.13,1.51-0.04,2.21c0.04,0.3-0.08,0.62-0.13,0.94c1.57-0.19,3.24-0.1,4.69-0.63
	c3.35-1.24,6.6-2.78,9.87-4.21c0.2-0.09,0.38-0.2,0.56-0.32c0.15-0.1,0.3-0.21,0.45-0.31c0.03-0.02,0.06-0.04,0.09-0.06
	c-0.27-0.2-0.54-0.45-0.81-0.68c-0.27-0.22-0.54-0.4-0.84-0.44c-1.19-0.17-2.43-0.03-3.64-0.03c-0.15,0-0.3-0.1-0.44-0.18
	c-0.02-0.01,0.07-0.16,0.08-0.25c0.05-1.08,0.19-2.17,0.13-3.25c-0.08-1.33-0.33-2.64-0.51-3.96c1.1,0,2.21,0.03,3.31-0.03
	c0.33-0.02,0.74-0.23,0.96-0.48c0.57-0.67,1.07-1.41,1.59-2.13c0.19-0.26,0.38-0.54,0.56-0.8c-0.25-0.16-0.56-0.28-0.75-0.49
	c-0.26-0.29-0.58-0.64-0.6-0.99c-0.03-0.34,0.28-0.7,0.45-1.05c-0.5-0.06-1-0.17-1.49-0.15c-0.43,0.02-0.86,0.27-1.29,0.27
	c-0.25,0-0.69-0.29-0.7-0.46c-0.03-0.53,0.1-1.06,0.17-1.59c0.31,0.14,0.62,0.35,0.95,0.42c0.34,0.07,0.71,0.05,1.05-0.01
	c0.35-0.07,0.69-0.35,1.03-0.34c0.58,0.02,1.18,0.35,1.72,0.26c1.58-0.29,3.11-0.78,4.69-1.08c3.47-0.66,4.67,0.17,5.5,3.52
	c0.08,0.33,0.72,0.75,1.08,0.73c1.48-0.07,2.95-0.34,4.44-0.42c0.23-0.01,0.51,0.52,0.74,0.81c0.18,0.22,0.3,0.6,0.52,0.66
	c0.2,0.06,0.42,0.06,0.63,0.06c0.22,0,0.44-0.02,0.66-0.02c-0.02-0.15-0.07-0.3-0.11-0.45c-0.03-0.15-0.06-0.3-0.02-0.43
	c0.48-2.16,0.94-4.33,1.55-6.45c0.21-0.72,0.77-1.38,1.28-1.97c0.36-0.42,0.93-0.66,1.37-1.03c0.28-0.23,0.54-0.47,0.8-0.72
	s0.52-0.49,0.79-0.74c-0.15-0.16-0.29-0.32-0.43-0.48c-0.14-0.16-0.29-0.31-0.45-0.46c-0.48-0.43-1.49-0.96-1.42-1.21
	c0.28-1.03,0.86-2.38,2.24-1.51c1.27,0.81,2,0.21,2.93-0.39c0.25-0.16,0.92-0.16,1.02,0c0.39,0.63,0.67,1.35,0.89,2.06
	c0.03,0.11-0.43,0.37-0.67,0.56c-0.53,0.42-1.53,0.86-1.51,1.26c0.04,1.05,0.43,2.2,1.99,1.36c0.12-0.07,0.55,0.15,0.63,0.32
	c1.16,2.6,2.3,5.21,3.39,7.84c0.13,0.31-0.12,0.78-0.19,1.17c-0.07,0.35-0.18,0.71-0.18,1.06c0,0.09,0.37,0.3,0.5,0.25
	c0.45-0.16,1.27-0.45,1.25-0.61c-0.19-1.77,1-1.09,1.78-1.03c1.02,0.08,2.05,0.41,3.04,0.3c0.59-0.06,1.49-0.68,1.6-1.18
	c0.46-2.2,1.45-3.61,3.91-3.21c2.06,0.34,4.09,0.88,6.15,1.2c1.27,0.2,2.58,0.17,3.88,0.17c0.2,0,0.41-0.1,0.61-0.21
	c0.08-0.04,0.16-0.09,0.25-0.13c0.04-0.02,0.08-0.04,0.12-0.06c0.06,0.64,0.12,1.28,0.18,1.92c-0.37,0.03-0.75,0.14-1.1,0.08
	c-0.46-0.07-0.89-0.35-1.34-0.41c-0.38-0.05-0.78,0.09-1.17,0.14c0.11,0.32,0.35,0.66,0.3,0.94c-0.08,0.43-0.32,0.85-0.58,1.21
	c-0.16,0.23-0.47,0.35-0.71,0.51c0.18,0.24,0.35,0.48,0.55,0.71c0.54,0.64,1.04,1.32,1.65,1.87c0.4,0.36,1.11,0.85,1.45,0.71
	c1.83-0.75,3.1-0.42,2.99,1.71c-0.07,1.34-1.34,2.75-1.12,3.96c0.58,3.29-1.64,1.83-2.91,2.01c-0.33,0.05-0.74-0.09-0.98,0.07
	c-0.5,0.33-0.91,0.8-1.35,1.22c0.38,0.21,0.74,0.47,1.14,0.64c3.15,1.34,6.27,2.74,9.47,3.97c1.4,0.54,2.94,0.73,4.43,1
	c0.27,0.05,0.57-0.06,0.86-0.16c0.1-0.03,0.2-0.06,0.29-0.09c-0.03-0.05-0.06-0.09-0.09-0.14c-0.21-0.32-0.48-0.64-0.52-0.98
	c-0.07-0.5,0.08-1.04,0.15-1.56c0.15-1.17,0.32-2.33,0.41-3.5c0.01-0.09-0.61-0.2-0.92-0.33c-0.18-0.08-0.33-0.21-0.49-0.32
	c0.28-0.32,0.55-0.66,0.88-0.93c0.05-0.04,0.4,0.23,0.57,0.39c0.2,0.19,0.34,0.62,0.52,0.63c0.78,0.04,1.57,0,2.36,0
	c1.73-0.01,3.41,0.15,4.8,1.64c0.1-0.49,0.19-1.38,0.3-1.38c2.89-0.04,5.79-0.03,8.68,0.1c0.38,0.02,0.74,0.67,1.07,1.07
	c0.03,0.04-0.26,0.3-0.35,0.48c-0.27,0.54-0.55,1.07-0.76,1.64c-0.04,0.11,0.19,0.33,0.3,0.5c0.39-0.4,0.76-0.84,1.18-1.21
	c1.06-0.92,2.08-2.48,3.23-2.59c3.39-0.32,6.85-0.17,10.27,0.03c0.91,0.05,1.78,0.94,2.65,1.47c1.13,0.7,2.22,1.44,3.35,2.13
	c0.16,0.1,0.42,0.02,0.64,0.02c-0.11-0.18-0.19-0.39-0.33-0.53c-4.62-4.6-9.27-9.16-13.84-13.81c-0.71-0.72-1.29-1.76-1.5-2.75
	c-1.08-5.09-4.33-8.8-8.68-10.77c-3.83-1.73-3.54-4.85-2-7.4c1.52-2.5,2.49-5.32,3.88-7.91c0.64-1.19,1.5-2.82,2.57-3.11
	c2.51-0.66,5.29-0.29,7.79-0.95c4.96-1.31,9.94-2.73,14.66-4.72c3.27-1.37,5.23-9.58,1.07-12.83c-1.88-1.47-1.26-4.16,1.01-4.95
	c0.7-0.25,1.42-0.52,2.15-0.62c2.29-0.32,1.88-1.8,1.54-3.32c-0.08-0.38-0.13-1.06,0.05-1.15c1.57-0.82,1.41-1.97,1.07-3.45
	c-1.17-5.09-0.39-9.65,4.57-11.94c2.41-1.12,5.29-1.2,7.78-2.2c1.45-0.58,3.11-1.82,3.68-3.18
	C212.89,129.13,211.92,127.29,210.35,125.59z M46.73,208.97c-0.45,0.8,0,2.07-0.19,3.08c-0.06,0.32-1.17,0.8-1.34,0.66
	c-0.61-0.52-1.15-1.21-1.48-1.95c-0.22-0.49,0.12-1.22-0.08-1.73c-0.67-1.7-0.54-2.69,1.49-2.22
	C47.07,206.64,47.87,206.97,46.73,208.97z M66.21,216.39c-0.61-0.52-1.83-1.33-1.74-1.5c0.44-0.89,1.21-1.62,1.86-2.4
	c0.16,0.61,0.31,1.21,0.5,1.94C66.63,215.05,66.42,215.72,66.21,216.39z M94.33,76.25c1.47-0.87,3.06-1.56,4.46-2.53
	c0.32-0.22,0.16-1.3,0.03-1.95c-0.04-0.22-0.67-0.3-1.01-0.48c-0.7-0.37-1.38-0.77-2.07-1.16c0.26-0.37,0.5-1.04,0.79-1.05
	c1.12-0.07,2.37-0.22,3.34,0.2c1.05,0.46,2.03,1.46,0.59,2.75c-0.11,0.1,0.01,0.7,0.2,0.88c0.97,0.87,1.88,1.7,0.76,3.06
	c-1.22,1.48-0.07,2.09,0.99,2.71c0.69,0.4,1.84,0.65,1.99,1.19c0.22,0.8-0.21,1.81-0.45,2.71c-0.38,1.42-0.87,2.81-1.21,4.24
	c-0.05,0.2,0.43,0.63,0.74,0.78c0.71,0.34,1.54,0.47,2.19,0.89c0.29,0.19,0.26,0.88,0.37,1.34c-0.33-0.12-0.66-0.27-1-0.36
	c-0.26-0.07-0.72-0.16-0.79-0.05c-0.51,0.81-1.36,1.68-1.32,2.5c0.06,1.33,0.69,2.65,1.11,3.96c0.06,0.2,0.28,0.35,0.43,0.52
	c0.08-0.18,0.14-0.38,0.25-0.54c0.18-0.26,0.43-0.73,0.58-0.71c0.86,0.14,1.71,0.39,2.55,0.64c0.1,0.03,0.12,0.33,0.22,0.37
	c0.1,0.04,0.32-0.06,0.4-0.16c1-1.21,1.27-5.14,0.33-6.32c-0.23-0.29-0.87-0.29-1.33-0.34c-0.28-0.03-0.58,0.1-0.88,0.16
	c0.1-0.4,0.07-0.93,0.32-1.15c0.39-0.35,0.97-0.71,1.46-0.69c1.76,0.08,1.84-0.89,1.41-2.12c-0.48-1.37-1.22-2.66-1.61-4.05
	c-0.17-0.62,0.2-1.41,0.4-2.1c0.05-0.18,0.38-0.32,0.6-0.41c1.85-0.79,3.36-1.66,1.74-4.04c-0.23-0.33,0.37-1.22,0.58-1.85
	c0.15-0.46,0.53-0.99,0.42-1.36c-0.64-2.03,0.09-3.04,2.63-3.06c0.08,0,0.53-0.09,0.84,0.07c0.53,0.26,0.98,0.69,1.46,1.05
	c-0.49,0.44-0.95,0.93-1.49,1.31c-0.69,0.47-1.45,0.85-2.18,1.26c0.56,0.6,1.03,1.33,1.69,1.78c1.12,0.74,2.39,1.25,3.52,1.98
	c0.22,0.14,0.31,0.89,0.14,1.2c-1.71,3.25-3.49,6.45-5.18,9.71c-0.12,0.23,0.33,0.78,0.54,1.17c0.46,0.84,0.99,1.65,1.32,2.53
	c0.04,0.11-0.89,0.72-1.44,0.89c-0.93,0.28-2.3,0.09-0.98,1.71c0.21,0.25-0.11,1.29-0.49,1.59c-0.9,0.73-1.55,1.34-0.96,2.62
	c0.11,0.23-0.54,1.16-0.8,1.14c-1.22-0.09-2.43-0.57-3.64-0.57c-1.04,0-2.07,0.5-3.12,0.7c-1.72,0.34-3.65,0.86-2.36-2.16
	c0.08-0.19-0.22-0.65-0.46-0.84c-0.95-0.75-2.4-1.3-0.87-2.81c-0.51-0.41-1.05-0.78-1.51-1.22c-0.53-0.51-1.44-1.14-1.37-1.61
	c0.09-0.64,0.98-1.13,1.46-1.74c0.26-0.33,0.63-0.91,0.51-1.15c-1.71-3.34-3.52-6.64-5.24-9.97C93.84,77.04,94.08,76.4,94.33,76.25z
	 M119.97,89.42c-0.27,0.35-0.45,0.72-0.74,0.89c-0.17,0.09-0.67-0.08-0.78-0.28c-0.58-1.01-1.13-2.06-1.59-3.13
	c-0.08-0.19,0.26-0.75,0.49-0.82c0.3-0.09,0.88,0.05,1.02,0.28C118.95,87.31,119.42,88.33,119.97,89.42z M93.82,86.99
	c0.26-0.41,1.01-0.9,1.32-0.78c0.42,0.17,0.64,0.87,1.15,1.67c-0.92,0.99-1.74,1.87-2.57,2.76c-0.33-0.39-0.99-0.84-0.93-1.16
	C92.97,88.61,93.34,87.74,93.82,86.99z M103.97,183.65c-0.27-0.02-0.74-0.47-0.71-0.67c0.05-0.3,0.41-0.68,0.72-0.76
	c0.22-0.07,0.57,0.28,1.25,0.65C104.56,183.31,104.25,183.67,103.97,183.65z M106,184.51c-0.27-0.22-0.45-0.36-0.63-0.5
	c0.37-0.18,0.72-0.43,1.1-0.52c0.21-0.04,0.47,0.21,0.71,0.32C106.82,184.03,106.45,184.24,106,184.51z M108.54,183.91
	c-0.33-0.61-0.65-0.92-0.59-1.15c0.07-0.3,0.43-0.53,0.66-0.79c0.25,0.25,0.68,0.49,0.71,0.77
	C109.34,182.99,108.96,183.3,108.54,183.91z M125.28,169.83c-0.03,0.07-0.6,0.05-0.64-0.04c-0.14-0.32-0.2-0.7-0.21-1.06
	c-0.01-0.37,0.17-1.04,0.11-1.06c-0.65-0.2-1.42-0.56-1.99-0.37c-1.03,0.35-1.95,1.03-2.88,1.63c-0.19,0.12-0.31,0.47-0.34,0.73
	c-0.21,1.73-0.39,3.47-0.61,5.2c0,0.04-0.47,0.12-0.53,0.04c-1.21-1.69-2.34-3.46-3.64-5.07c-0.27-0.34-1.24-0.3-1.81-0.14
	c-0.43,0.12-0.97,0.7-1.01,1.11c-0.13,1.29-0.05,2.6-0.03,3.9c0.04,2-1.65,1.68-2.75,1.87c-0.42,0.08-1.08-0.76-1.52-1.27
	c-0.38-0.43-0.61-0.99-0.91-1.49c-0.45,0.55-0.91,1.08-1.33,1.65c-0.34,0.45-0.81,1.37-0.91,1.33c-1.17-0.49-3.22,0.69-3.43-1.63
	c-0.1-1.13,0.17-2.3-0.06-3.39c-0.15-0.71-0.89-1.3-1.37-1.94c-0.47,0.44-0.97,0.87-1.41,1.34c-1.27,1.33-2.51,2.69-3.79,4.02
	c-0.05,0.06-0.45-0.07-0.47-0.14c-0.26-1.52-0.46-3.04-0.74-4.56c-0.1-0.56-0.26-1.46-0.6-1.57c-1.47-0.48-3.02-0.72-4.54-1.05
	c0.03,0.18,0.08,0.35,0.08,0.53c0.01,0.62,0.01,1.24,0.01,1.86c-0.49-0.26-1.25-0.42-1.4-0.82c-0.34-0.84-0.8-2.3-0.43-2.63
	c0.95-0.86,2.55-1.96,3.5-1.67c2.32,0.7,2.4-0.51,3.16-2.08c1.23-2.54,0.72-4.79-0.05-7.18c-0.08-0.24,0.04-0.78,0.15-0.8
	c1.85-0.36,3.7-0.66,5.56-1c0.34-0.06,0.71-0.21,0.99-0.41c0.76-0.55,1.4-1.42,2.24-1.68c1.31-0.41,1.53-0.95,1.36-2.28
	c-0.15-1.18,0.38-2.44,0.57-3.67c0.11-0.7,0.21-1.42,0.21-2.12c0.01-1.41-0.22-2.83-0.01-4.2c0.07-0.45,1.16-0.75,1.78-1.12
	c0.13,0.28,0.31,0.56,0.45,0.84c0.11,0.02,0.22,0.07,0.32,0.18c0.08,0.09,0.15,0.16,0.22,0.23c0-0.1,0-0.2,0-0.29
	c0-0.42,0.46-0.83,0.7-1.25c0.51,0.35,1.43,0.66,1.46,1.05c0.12,1.53-0.05,3.08-0.07,4.62c-0.01,0.59,0.1,1.18,0.19,1.76
	c0.21,1.4,0.29,2.84,0.7,4.18c0.22,0.74,0.95,1.35,1.54,1.92c0.24,0.22,0.98,0.05,1.08,0.26c1.51,3.03,4.95,0.93,6.91,2.66
	c0.3,0.26,0.43,0.74,0.57,1.14c0.05,0.15-0.05,0.39-0.15,0.55c-1.68,2.89-0.15,5.48,0.88,8.06c0.13,0.34,1.17,0.6,1.68,0.47
	c1.86-0.47,3.6-0.25,4.24,1.62C126.63,167.44,125.7,168.74,125.28,169.83z M146.25,216.26c-0.15-0.61-0.29-1.21-0.46-1.9
	c0.17-0.62,0.34-1.25,0.51-1.89c0.59,0.73,1.41,1.39,1.65,2.22C148.05,215.02,146.85,215.72,146.25,216.26z M167.36,206.62
	c1.65-0.44,2,0.27,1.66,1.85c-0.17,0.82,0.09,1.72,0.09,2.58c0,0.23-0.17,0.59-0.35,0.66c-0.77,0.3-1.58,0.51-2.37,0.76
	c-0.18-1.03-0.37-2.06-0.53-3.09c-0.03-0.21,0.16-0.51,0.07-0.66C165.02,207.12,165.3,206.32,167.36,206.62z"/>
<path class="janus-st2" d="M102.85,41.25c0.16-1.32-0.9-2.8-1.52-4.17c-0.03-0.07-0.47-0.04-0.84,0.06c0.01,1.79,0.01,3.56,0.02,5.28
	C101.7,42.38,102.75,42.04,102.85,41.25z"/>
<path class="janus-st2" d="M113.39,29.85c-0.17,0.54-0.39,1.14-0.29,1.66c0.34,1.81,0.86,3.58,1.21,5.38c0.09,0.46-0.17,0.99-0.26,1.48
	c-0.41-0.32-0.77-0.76-1.23-0.93c-0.62-0.23-1.78-0.52-1.92-0.31c-0.7,1.15-1.14,2.45-1.68,3.69c1.14,0.45,2.27,0.93,3.43,1.34
	c0.3,0.11,0.68-0.05,0.99,0.04c0.22,0.07,0.54,0.33,0.55,0.51c0.02,0.61,0.02,1.22,0.03,1.83c0.13-0.36,0.26-0.7,0.39-1.04
	c0-1.9,0-3.87,0.01-5.87c-0.03-0.09-0.06-0.18-0.08-0.28c-0.13-0.57-0.05-1.2,0.02-1.82c0.02-0.21,0.04-0.41,0.05-0.62
	c0,0,0.01,0.01,0.01,0.01c0-2.1,0.01-4.2,0.01-6.24c-0.29,0.12-0.57,0.15-0.86,0.19C113.62,29.23,113.48,29.54,113.39,29.85z"/>
<path class="janus-st2" d="M136.93,48.94c-0.02,2.12,0.22,4.07,2.24,5.14c2.69,1.43,5.55,1.36,8.44,0.53c3.58-1.03,3.63-3.81,3.59-6.81
	c-0.04-3.65-0.05-13.95-0.04-24.15c-0.13-0.02-0.27-0.04-0.4-0.06c-0.71-0.08-1.43-0.18-2.15-0.2c-1.28-0.03-3.04-0.4-1.52,1.9
	c0.07,0.1-0.62,0.8-1.04,1.1c-0.26,0.18-0.68,0.12-1.04,0.16c0.09-0.4,0.22-0.8,0.24-1.2c0.02-0.38,0.02-1.07-0.14-1.11
	c-1.18-0.37-2.39-0.78-3.61-0.85c-1.51-0.09-3.05,0.14-4.56,0.11C136.96,33.96,136.96,44.79,136.93,48.94z"/>
<path class="janus-st2" d="M70.37,23.46c-0.95-0.22-2.15,0.62-3.19,1.08c-0.06,0.03,0.33,1.02,0.46,1.58c0.05,0.21,0.02,0.51-0.1,0.67
	c-0.08,0.11-0.42,0.13-0.59,0.06c-1.28-0.53-1.87-1.31-0.89-2.62c0.14-0.18,0.16-0.45,0.24-0.67c-0.26-0.05-0.52-0.16-0.77-0.14
	c-0.49,0.05-0.97,0.11-1.46,0.16c0,2.24,0,4.48,0.04,6.72c0,0.19,0.35,0.56,0.45,0.54c1.3-0.38,8.06-2.78,10.2-3.43
	c1.9-0.58,3.45-2.14,3.46-3.81c0-0.05,0-0.11,0-0.16C75.64,23.9,73.05,24.08,70.37,23.46z"/>
<g>
	<path class="janus-st3" d="M61.27,25.96c-0.17-0.3-0.37-0.58-0.55-0.87c-0.19-0.31-0.38-0.63-0.56-0.95c0.33-0.08,0.66-0.2,1-0.24
		c0.97-0.12,1.94-0.22,2.9-0.32c0,0,0,0,0,0c0-3.88,0-7.77,0-11.65c0-3.3,1.91-5.4,5.21-5.51c1.79-0.06,3.71-0.19,5.35,0.35
		c3.21,1.06,3.71,2.2,3.59,6.16c0,3.5,0.01,7-0.01,10.51c1.01-0.18,2.02-0.41,3.03-0.65c0.86-0.21,1.89-0.09,2.56-0.54
		c0.77-0.51,0.93-0.53,1.54,0.09c-0.03-7.51-0.08-13.12-0.15-13.71c-0.32-2.82-1.79-5.02-4.23-6.35c-5.2-2.84-10.77-2.72-16.3-1.3
		c-3.69,0.95-6.94,3.11-7.1,7.18c-0.14,3.45-0.22,10.64-0.26,18.6c1.21-0.17,2.41-0.38,3.62-0.56
		C61.06,26.18,61.28,25.98,61.27,25.96z"/>
	<path class="janus-st4" d="M57.26,60.12c0,0.19,0.32,0.54,0.49,0.55c1.97,0.04,3.93,0.04,5.9-0.01c0.2,0,0.56-0.39,0.57-0.59
		c0.03-6.45,0-12.89,0.06-19.34c0.01-0.81,0.27-2.02,0.81-2.34c2.19-1.25,4.51-2.28,6.83-3.28c1.48-0.63,3.02-1.12,4.57-1.56
		c0.52-0.15,1.64,0.01,1.65,0.09c0.12,1.55,0.09,19.12,0.11,26.35c0,0.25,0.4,0.71,0.63,0.72c1.87,0.06,3.74,0.08,5.6-0.02
		c0.33-0.02,0.9-0.64,0.9-0.99c0.03-9.42,0.02-25.69-0.02-37.35c-0.61-0.62-0.77-0.59-1.54-0.09c-0.68,0.45-1.71,0.33-2.56,0.54
		c-1.01,0.24-2.02,0.46-3.03,0.65c0,0.05,0,0.11,0,0.16c-0.01,1.67-1.56,3.23-3.46,3.81c-2.14,0.65-8.91,3.05-10.2,3.43
		c-0.1,0.03-0.44-0.35-0.45-0.54c-0.04-2.24-0.04-4.48-0.04-6.72c-0.97,0.1-1.94,0.2-2.9,0.32c-0.34,0.04-0.67,0.16-1,0.24
		c0.19,0.32,0.37,0.64,0.56,0.95c0.18,0.29,0.39,0.57,0.55,0.87c0.01,0.01-0.21,0.22-0.34,0.24c-1.21,0.17-2.41,0.39-3.62,0.56
		C57.23,41.18,57.26,58.15,57.26,60.12z"/>
	<path class="janus-st3" d="M136.95,23.5c-0.01-9.29-0.02-18.28-0.03-22.04c0-0.25-0.46-0.69-0.72-0.7c-1.86-0.06-3.72-0.05-5.58-0.01
		c-0.23,0.01-0.64,0.38-0.64,0.58c-0.02,4.55-0.02,13.01-0.02,21.56c2.12,0.21,4.25,0.42,6.38,0.59
		C136.54,23.5,136.75,23.5,136.95,23.5z"/>
	<path class="janus-st3" d="M151.68,25.1c-0.08,0.29,0.31,1,0.55,1.03c1.78,0.21,3.57,0.31,5.36,0.39c0.14,0.01,0.38-0.17,0.52-0.33
		c0.02-11.43,0.01-22.67,0-24.84c0-0.19-0.29-0.53-0.45-0.54c-1.99-0.06-3.98-0.07-5.97-0.06c-0.17,0-0.48,0.3-0.48,0.47
		c-0.01,4.07-0.03,13.21-0.04,22.43c0.47,0.06,0.94,0.13,1.41,0.2C152.26,24.27,151.8,24.64,151.68,25.1z"/>
	<path class="janus-st4" d="M131.54,56.67c2.34,3,5.74,4.26,9.37,4.5c3.56,0.23,7.16,0.34,10.64-1.05c3.49-1.39,6-3.52,6.34-7.42
		c0.12-1.43,0.18-14.08,0.21-26.5c-0.14,0.16-0.37,0.34-0.52,0.33c-1.79-0.08-3.58-0.18-5.36-0.39c-0.24-0.03-0.63-0.74-0.55-1.03
		c0.13-0.46,0.58-0.84,0.9-1.25c-0.47-0.07-0.94-0.14-1.41-0.2c-0.01,10.2,0,20.5,0.04,24.15c0.03,3-0.01,5.78-3.59,6.81
		c-2.88,0.83-5.74,0.9-8.44-0.53c-2.02-1.07-2.26-3.02-2.24-5.14c0.03-4.16,0.03-14.98,0.03-25.44c-0.21,0-0.41,0-0.62-0.01
		c-2.13-0.16-4.25-0.37-6.38-0.59c0,11.15,0,22.43-0.01,25.35C129.95,51.17,129.61,54.19,131.54,56.67z"/>
	<path class="janus-st3" d="M115.8,40.65c1.07-0.62,1.57-0.81,1.91-1.16c0.1-0.1-0.23-0.67-0.43-0.99c-0.35-0.56-0.74-1.1-1.14-1.62
		c-0.25-0.33-0.5-0.65-0.76-0.97c-0.25-0.31-0.51-0.63-0.76-0.94c0,0.9,0,1.8,0,2.69C114.87,38.61,115.34,39.52,115.8,40.65z"/>
	<path class="janus-st3" d="M98.01,42.06c-0.77-0.27-2.08,0.55-2.93,1.18c-0.55,0.4-1.06,1.42-0.95,2.04c0.49,2.61,2.73,3.69,5.14,2.7
		c0.42-0.17,0.84-0.36,1.26-0.53c-0.01-1.59-0.02-3.27-0.03-5.02C99.65,42.44,98.71,42.3,98.01,42.06z"/>
	<path class="janus-st3" d="M118.62,44.58c-1.12-0.95-2.23-1.91-3.35-2.86c-0.22,0.59-0.44,1.2-0.67,1.81c0,1.02,0,2.01,0,2.98
		c0.22,0.6,0.44,1.19,0.65,1.77L118.62,44.58z"/>
	<path class="janus-st3" d="M99.42,30.51c0.41,0.46-0.23,2.14-0.74,3.05c-0.99,1.74-2.27,3.31-3.35,5.01c-0.24,0.38-0.14,0.99-0.19,1.5
		c0.61,0.05,1.42,0.37,1.8,0.09c1.12-0.82,2.04-1.92,3.11-2.82c0.1-0.08,0.27-0.15,0.44-0.2c-0.04-10.2-0.06-21.04-0.06-25.45
		c0-2.85,1.77-4.93,4.66-5.19c1.77-0.16,3.58,0.02,5.36,0.14c2.4,0.16,4.22,2.27,4.21,4.67c-0.01,2.24-0.02,9.33-0.03,17.42
		c0,0,0,0,0,0c0.1-0.04,0.17-0.12,0.22-0.22c0.28-0.11,0.58-0.21,0.7-0.42c1.47-2.36,3.51-0.93,5.37-0.92
		c0.23,0,0.52-0.19,0.76-0.45c-0.05-8.48-0.09-16.04-0.09-17.34c-0.01-3.18-2.2-6.25-5.08-7.58c-4.25-1.96-8.72-2.05-13.13-1.37
		c-6.33,0.98-10.04,4.14-9.84,11.43c0.14,5.05,0.15,10.1,0.14,15.15C96.07,26.99,97.82,28.71,99.42,30.51z"/>
	<path class="janus-st4" d="M93.6,59.26c0,0.86-0.05,1.57,1.17,1.49c1.17-0.07,2.36-0.12,3.52,0.01c1.97,0.23,2.4-0.58,2.35-2.46
		c-0.04-1.63-0.08-5.73-0.11-10.87c-0.42,0.18-0.84,0.36-1.26,0.53c-2.41,0.99-4.65-0.09-5.14-2.7c-0.12-0.62,0.4-1.63,0.95-2.04
		c0.85-0.62,2.16-1.44,2.93-1.18c0.7,0.24,1.64,0.38,2.5,0.36c-0.01-1.72-0.02-3.49-0.02-5.28c-0.18,0.05-0.34,0.11-0.44,0.2
		c-1.07,0.9-1.99,1.99-3.11,2.82c-0.38,0.28-1.19-0.04-1.8-0.09c0.06-0.5-0.05-1.11,0.19-1.5c1.08-1.7,2.36-3.27,3.35-5.01
		c0.52-0.91,1.15-2.59,0.74-3.05c-1.59-1.8-3.34-3.52-5.75-3.49c-0.01,4.25-0.04,8.5-0.04,12.75C93.63,46.26,93.63,52.76,93.6,59.26
		z"/>
	<path class="janus-st4" d="M120.91,27.17c-1.85-0.01-3.89-1.44-5.37,0.92c-0.13,0.21-0.43,0.31-0.7,0.42c-0.05,0.09-0.12,0.17-0.22,0.22
		c0,0,0,0,0,0c0,2.04-0.01,4.14-0.01,6.24c0.25,0.32,0.51,0.63,0.76,0.94c0.26,0.32,0.51,0.64,0.76,0.97
		c0.4,0.53,0.79,1.06,1.14,1.62c0.2,0.32,0.53,0.89,0.43,0.99c-0.34,0.35-0.84,0.54-1.91,1.16c-0.45-1.12-0.93-2.04-1.19-2.98
		c0,2-0.01,3.97-0.01,5.87c0.23-0.61,0.45-1.21,0.67-1.81c1.12,0.95,2.23,1.91,3.35,2.86l-3.38,3.7c-0.21-0.58-0.43-1.17-0.65-1.77
		c-0.01,5.38-0.01,9.82-0.02,11.85c0,0.58-0.06,1.16,0,1.73c0.03,0.23,0.31,0.61,0.49,0.61c1.96,0.04,3.92,0.06,5.87-0.01
		c0.29-0.01,0.78-0.53,0.79-0.83c0.08-2.41,0.08-4.83,0.07-7.24c0-2.59-0.07-15-0.13-25.9C121.43,26.98,121.14,27.17,120.91,27.17z"
		/>
	<path class="janus-st3" d="M192.82,56.05c-0.2,0.52-0.46,1.01-0.74,1.49c1.28-1.29,2.07-2.85,2.17-4.73c0.22-4.22,0.28-8.45,0.19-12.67
		c-0.1-4.72-2.62-7.76-7.04-9.31c-3.8-1.33-7.59-2.67-11.38-4.05c-1.76-0.64-2.69-1.97-2.7-3.85c-0.04-4-0.12-8.01-0.03-12.01
		c0.05-1.93,0.9-3.67,2.93-4.17c1.8-0.44,3.74-0.71,5.58-0.58c3.57,0.27,4.88,1.61,5.71,5.04c0.07,0.29,0.55,0.69,0.85,0.69
		c1.91,0.03,3.82-0.04,5.73-0.1c0.13,0,0.36-0.16,0.38-0.28c0.83-4.79-2.45-9.8-7.3-10.67c-3.06-0.55-6.25-1.02-9.32-0.78
		c-6.92,0.55-11.81,3.41-11.55,11.52c0.13,3.93,0.01,7.87,0.09,11.8c0.08,4.23,1.94,7.44,5.95,9.02c3.77,1.48,7.64,2.72,11.47,4.04
		c2.32,0.8,3.68,2.29,3.66,4.86c0,0.25,0,0.57-0.01,0.93C191.21,44.66,194.32,52.16,192.82,56.05z"/>
	<path class="janus-st4" d="M181.91,54.95c-1.86,0.02-3.76-0.05-5.56-0.48c-0.93-0.22-2.17-1.14-2.41-1.98c-0.88-3.17-0.74-3.2-4.09-3.2
		c-0.12,0-0.24,0-0.37,0c-3.29,0-3.28,0-3,3.32c0.21,2.45,1.3,4.49,3.28,5.88c3.1,2.17,6.63,2.97,10.42,2.73
		c3.72,0.19,7.31-0.24,10.51-2.51c0.5-0.36,0.96-0.75,1.37-1.16c0.29-0.48,0.54-0.97,0.74-1.49c1.5-3.89-1.62-11.39-5.36-13.81
		c-0.02,2.89-0.08,8.88-0.56,9.99C186.02,54.27,184,54.93,181.91,54.95z"/>
	<path class="janus-st3" d="M49.15,28.72C49.14,16.7,49.1,4.23,49.09,1.3c0-0.19-0.34-0.54-0.54-0.54c-1.66-0.04-3.32,0.08-4.97-0.06
		c-1.28-0.1-1.5,0.38-1.5,1.53c0.02,6.17,0.01,18.96,0,29.92c0.73-0.45,1.46-0.9,2.2-1.33C45.81,29.95,47.69,29.61,49.15,28.72z"/>
	<path class="janus-st4" d="M37.78,55.02c-1.85,0.08-3.71,0.11-5.56,0.04c-1.88-0.07-4.66-2.29-4.38-4.73c0.04-0.31-0.59-0.97-0.94-0.99
		c-1.8-0.1-3.6-0.05-5.41-0.03c-0.17,0-0.5,0.21-0.5,0.32c0.04,1.21,0.09,2.42,0.22,3.63c0.24,2.21,1.27,4.12,3.13,5.21
		c2,1.16,4.2,2.24,6.44,2.67c2.35,0.46,4.89,0.34,7.29,0.04c2.15-0.27,4.31-0.94,6.31-1.8c2.93-1.26,4.6-3.76,4.67-6.91
		c0.08-3.26,0.09-13.34,0.09-23.75c-1.46,0.89-3.35,1.23-4.87,2.11c-0.74,0.43-1.47,0.87-2.2,1.33c-0.01,8.62-0.03,16.11-0.04,18.34
		C42.04,52.63,39.93,54.92,37.78,55.02z"/>
</g>
</svg>
