<?xml version="1.0" encoding="utf-8"?>
<!-- Generator: Adobe Illustrator 23.0.1, SVG Export Plug-In . SVG Version: 6.00 Build 0)  -->
<svg version="1.1" id="Laag_1" xmlns="http://www.w3.org/2000/svg" xmlns:xlink="http://www.w3.org/1999/xlink" x="0px" y="0px"
	 viewBox="0 0 455.8 154" style="enable-background:new 0 0 455.8 154;" xml:space="preserve">
<style type="text/css">
	.st0{fill:#1A1B19;stroke:#1A1B19;stroke-width:9.2002;stroke-linecap:round;stroke-linejoin:round;stroke-miterlimit:10;}
	.st1{fill:#1A1B19;stroke:#1A1B19;stroke-width:8.7402;stroke-miterlimit:10;}
	.st2{fill-rule:evenodd;clip-rule:evenodd;fill:#F39423;}
	
		.st3{fill-rule:evenodd;clip-rule:evenodd;fill:#1A1B19;stroke:#1A1B19;stroke-width:9.2002;stroke-linecap:round;stroke-linejoin:round;stroke-miterlimit:10;}
	.st4{fill:#FFDD06;}
	.st5{fill-rule:evenodd;clip-rule:evenodd;fill:#836042;}
	.st6{fill-rule:evenodd;clip-rule:evenodd;fill:#594736;}
	.st7{fill-rule:evenodd;clip-rule:evenodd;fill:#FFDD06;}
	.st8{fill-rule:evenodd;clip-rule:evenodd;fill:#86613B;}
	.st9{fill-rule:evenodd;clip-rule:evenodd;fill:#523B23;}
	.st10{opacity:0.25;fill-rule:evenodd;clip-rule:evenodd;fill:#F39423;}
	.st11{fill-rule:evenodd;clip-rule:evenodd;fill:#1A1B19;}
</style>
<g>
	<g>
		<path class="st0" d="M344.8,29.8c0.1,0,0.4,0.1,0.4,0c0,0,0.1,0,0.1,0c0.1,0,0.4,0.1,0.5,0.1c0.1,0,0.2,0,0.3,0.1
			c0.1,0,0.2,0,0.4,0.1c1.3,0.2,2.9,0.7,4.2,1.3c0.3-2.1,0.7-4.7,1.1-6.8c-1.4-0.9-3.1-1.6-4.9-2.1c0,0,0,0,0,0
			c-0.7-0.2-0.9-0.2-1.6-0.3c-0.1,0-0.4-0.1-0.5-0.1c-3.5-0.5-6.4,0.3-8.9,1.5c-0.3,0.2-0.7,0.3-1,0.6c0.1,2.1-0.2,4.5-0.2,6.7
			C337.6,29.7,341,29.6,344.8,29.8z"/>
		<path class="st0" d="M332.4,35.7c1.4-0.5,2.8-1.2,4.4-1.6c4.7-1.1,11-0.2,15.6,2.2c0.4-0.1,0.9-0.2,1-0.7c0.2-1-1-1.5-1.8-1.9
			c-1.2-0.6-3.3-1.5-4.6-1.8c-0.1-0.1-0.5-0.1-0.8-0.2c0,0,0,0,0,0c-0.3,0-0.7-0.2-0.9-0.1c-3.6-0.7-7.2-0.2-10,0.8
			c-0.7,0.3-2.2,0.7-2.8,1.2C332.1,34,331.6,35.3,332.4,35.7z"/>
		<path class="st0" d="M344.9,38.2c0.6,0.1,1.2,0.2,1.7,0.4c1.3,0.3,3,0.9,4.2,1.4c0.4,0.2,1,0.6,1.3,0.6c0.4,0,1-0.4,1.1-0.8
			c0.1-0.4-0.3-1-0.5-1.2c-0.4-0.3-1-0.6-1.6-0.8c-1.8-0.8-3.8-1.6-6-2c-0.1,0-0.4-0.1-0.5-0.1c-4-0.5-8-0.1-10.9,1.5
			c-0.5,0.3-1,0.3-1.3,0.6c-0.5,0.5-1.1,1.8-0.1,2.2c0.5,0,0.8-0.4,1.2-0.6C336.7,37.9,340.4,37.4,344.9,38.2z"/>
		<path class="st0" d="M357.7,38c0.2,0,0.3,0.1,0.5,0.1c0.3,0,0.8,0.2,1.1,0.2c0.2,0,0.3,0.1,0.5,0.1c0.3,0.2,0.8,0.2,1.2,0.3
			c0.1,0,0.3,0.1,0.4,0.1c0.1,0.1,0.3,0.1,0.5,0.1c6.3,1.7,10.7,4.6,13.4,8.6c0.1,0.2,0.2,0.4,0.4,0.6c3.3,5.5,2.9,13.4,4.1,20.3
			c0.9-0.6,1.6-1.5,2.3-2.3c-0.3-3.7-0.6-7.3-1.3-10.8c-0.7-3.4-1.8-6.6-3.4-9.4c-0.1-0.2-0.2-0.4-0.3-0.5
			c-2.8-4.1-7.2-7.1-13.5-8.9c0-0.1-0.3-0.1-0.4-0.1c-0.1,0-0.3-0.1-0.4-0.1c-0.1-0.1-0.4-0.1-0.5-0.2c-0.2,0-0.3-0.1-0.5-0.1
			c-0.4-0.1-0.9-0.2-1.3-0.3c-0.1,0-0.3-0.1-0.4-0.1c-0.3,0-0.6-0.2-0.8-0.1c-0.4-0.1-0.7-0.1-1.1-0.2c-0.1,0-0.4-0.1-0.4,0
			c-0.9-0.1-1.9-0.2-2.7-0.3c-0.1,0.5,0.1,0.9,0,1.3c-0.1,0.5-0.7,0.6-0.8,1.1c0.9,0.2,2,0.2,3,0.4C357.3,38,357.6,38.1,357.7,38z"
			/>
		<path class="st0" d="M390.2,43.6c0.3,0.1,0.8-0.2,1.3-0.3c3.2-0.6,6.8-1,10.8,0c0.1,0.1,0.4,0.1,0.5,0.2c3,0.8,5.1,2.1,7,3.6
			c1-0.3,0.8-1.8,0.3-2.3c-0.2-0.2-0.5-0.3-0.8-0.5c-0.4-0.3-0.8-0.7-1.3-1c-1.5-0.9-3.5-1.8-5.4-2.3c-0.4-0.2-1.2-0.3-1.6-0.3
			c-3.6-0.7-6.5,0-9.3,0.5c-0.8,0.1-2.2,0.5-2.2,1.6C389.3,43,389.8,43.5,390.2,43.6z"/>
		<path class="st0" d="M390.8,39.4c0.3,0.1,0.9-0.2,1.4-0.3c3.2-0.7,7-0.8,10.9,0.1c0.1,0.1,0.3,0.1,0.5,0.2c3,0.7,5,2.1,7,3.5
			c1-0.3,0.7-1.8,0.3-2.2c-0.3-0.4-1.1-0.8-1.6-1.1c-1.7-1.1-3.8-2.2-6-2.7c-0.1-0.1-0.4-0.1-0.6-0.2c0,0,0,0,0,0
			c-0.3,0-0.7-0.2-0.9-0.2c-3.5-0.5-6.6-0.3-9.3,0.5c-0.8,0.2-2.2,0.5-2.2,1.6C390,38.8,390.4,39.3,390.8,39.4z"/>
		<path class="st0" d="M401.2,67.7c2.6-5.9,4.6-12.6,6.3-20.2c-1.3-1-3-1.8-4.9-2.5v0c0,0,0,0,0,0c-3.8-1.1-7.2-0.7-10.2-0.1
			c0,0.4-0.1,0.9-0.2,1.4c0,0.2-0.1,0.4-0.1,0.5c0,0.2-0.1,0.4-0.1,0.6c0,0.3-0.2,0.6-0.1,0.8c-0.3,1.3-0.5,2.5-0.8,3.8
			c-0.1,0.1-0.1,0.5-0.2,0.8c0,0.2-0.1,0.3-0.1,0.5c-0.1,0.1-0.1,0.3-0.1,0.5c-2.4,9.3-7.3,14.7-13,18.8c-0.8,0.5-1.5,1-2.3,1.5
			c-1.9,1.1-3.8,2.1-5.9,2.9c0.1,0.1,0.4,0.3,0.6,0.4c-0.2-0.1-0.5-0.3-0.6-0.4c0,0,0,0,0,0c-0.3,0.1-0.7,0.4-1,0.3
			c-0.2,0-0.4-0.2-0.6-0.3c-0.4-0.2-0.8-0.4-1.2-0.7c-2.5-1.5-4.9-3.5-6.7-5.4c-4.9-4.9-8.3-10.6-9.4-17.8
			c-0.5-3.6-0.7-7.6-0.5-11.6c-1.1-0.5-2.3-0.9-3.6-1.3c-0.1,0-0.1-0.1-0.2,0c-0.1-0.1-0.4-0.1-0.6-0.2c-0.2,0-0.4-0.1-0.6-0.1
			c-0.3,0-0.7-0.2-0.9-0.1c-0.1,0-0.2,0-0.3-0.1c0,0,0,0-0.1,0h0c0,0-0.1,0-0.1,0c0,0,0,0,0,0c0,0,0,0,0,0c0,0,0,0,0,0c0,0,0,0,0,0
			c0,0,0,0,0,0c-2.4-0.5-4.8,0-6.7,0.6c-0.6,0.2-1.6,0.4-1.9,0.8c0,0.2,0,0.3,0,0.5c0.2,7.1,0.9,13.8,2.4,20.1
			c0,0.2,0.1,0.3,0.1,0.5c0.7,3.2,1.8,6.2,3.1,9.1c0.1,0.3,0.2,0.6,0.5,1c0,0.3,0.2,0.4,0.3,0.7c0.1,0.2,0.1,0.4,0.3,0.5
			c0.3,0.6,0.6,1.2,1,1.8c0,0.2,0.2,0.3,0.3,0.5c0,0,0,0.1,0,0.1c0.1,0.2,0.2,0.4,0.3,0.5c0,0.1,0.1,0.2,0.2,0.3
			c0.4,0.6,0.7,1.2,1.1,1.8c0,0,0,0,0.1,0.1c0.1,0.3,0.3,0.5,0.5,0.7c0.1,0,0,0.1,0.1,0.1c0.1,0.2,0.2,0.4,0.3,0.5
			c2.3,3.2,5.1,6.2,8,9c0.2,0.3,0.4,0.5,0.7,0.7c0.1,0,0,0.1,0.1,0.1c0.1,0.2,0.3,0.4,0.5,0.6c0,0,0,0,0,0c0.2,0.3,0.3,0.6,0.6,0.9
			c0.8,1.5,1.1,3.3,1.4,5.2c-0.1,0.5-0.2,1-0.3,1.6c-0.8,2.8-1.9,5.3-2.9,7.8c1.6-0.7,3.7-1.3,6.2-0.8c0.6,0.1,1.2,0.3,1.9,0.4
			c0.3,0,0.5,0.2,0.8,0.2c0,0,0.1,0,0.1,0c1.9,0.7,3.8,1.8,5.3,2.9c1.4,1,2.6,2.1,3.7,3.2c0.1,0.1,0.2,0.4,0.5,0.4
			c1.7-5.2,2-11.3,4.1-15.8c0.7-1.5,1.5-2.4,2.7-3.3c2.2-1.7,4.5-3.1,6.6-4.7C391.7,82.9,397.3,76.6,401.2,67.7z"/>
		<path class="st0" d="M401.3,34.8c0.9,0.2,1.8,0.3,2.6,0.6c2.1,0.5,3.9,1.2,5.4,2.1c0.3-1.9,0.4-3.6,0.9-5.7
			c-1.5-1.3-3.4-2.5-5.8-3.2c0,0,0,0,0,0c-4.3-1.3-7.8-0.6-10.8,0.5c0,1.9-0.1,3.8-0.2,5.8C395.8,34.5,398.3,34.3,401.3,34.8z"/>
		<path class="st0" d="M412.3,44.7c2.3,0.1,5.1,0.2,7.3,0.6c3.8,0.7,8.1,2.1,10.9,4.2c0.5,0.4,0.9,0.7,1.4,1.1
			c2.6,1.6,4.5,3.8,6,6.1c0.1,0.2,0.2,0.4,0.3,0.5c2.3,3.9,3.4,8.5,3.2,13.9c0,0.8-0.2,1.6-0.2,2.4c0,0.6,0.3,1.7,0.9,1.8
			c0.7,0.1,1.3-0.9,1.5-1.7c0.2-0.8,0.2-1.7,0.2-2.5c0.3-6-0.6-11.3-3.2-15.2c-0.1-0.2-0.2-0.4-0.3-0.5c-3.8-5.6-9.8-9.7-18.4-12.1
			c-0.1-0.1-0.5-0.1-0.7-0.2c-0.3-0.1-0.7-0.1-1-0.2c-0.2,0-0.5-0.2-0.6-0.1c-2.6-0.4-4.9-0.6-7-0.4c-0.2,0.2-0.2,0.7-0.3,1
			c0,0.2-0.1,0.3-0.3,0.3c-0.2,0.1-0.5,0.2-0.5,0.4C411.9,44.6,411.8,44.7,412.3,44.7z"/>
		<path class="st0" d="M417.2,91.7c0.2,0,0.3,0.1,0.5,0.1c0.4,0.2,0.5,1,1,1.1c0.4,0.1,1.2-0.1,1.3-0.4c0.1-0.4-0.2-1.2-0.4-1.5
			c-0.2-0.3-0.5-0.6-0.8-0.8c-0.4-0.4-0.8-0.8-1.4-0.9c-0.2-0.1-0.6-0.2-0.8-0.2c-1.1,0-2.2,0.3-3.3,0.4c-3.1,0.5-6.6,0.8-10.3,0.2
			c-0.2,0-0.4-0.1-0.5-0.1c-0.2,0-0.3-0.1-0.5-0.1c-0.2,0-0.3-0.1-0.5-0.1c-0.1,0-0.3-0.1-0.4-0.1c-0.1-0.1-0.3-0.1-0.5-0.1
			c-2.2-0.7-4.4-1.4-6.2-2.4c-1.1-0.6-2.1-1.2-3.1-1.9c-0.7,0.6-1.4,1.2-2,1.9c2.5,1.8,5.5,3.3,9.2,4.3c0.1,0.1,0.3,0.1,0.5,0.1
			c0.2,0,0.4,0.1,0.6,0.1c0.5,0.2,1.2,0.3,1.7,0.4c0.2,0,0.3,0.1,0.5,0.1c0.2,0,0.4,0.2,0.6,0.1c5.3,0.9,9.9,0.5,14-0.5
			C416.6,91.5,416.9,91.6,417.2,91.7z"/>
		<path class="st0" d="M450.9,86.4c-0.1-1.1-0.6-2.3-1-3.4c-1.1-3.4-2.4-6.7-4.4-9.4c0,0-0.1,0-0.1,0.1c-0.2,0.6,0.4,1.1,0.6,1.5
			c0.8,1.3,1.5,2.8,2,4.1c0.8,1.9,1.5,4.1,1.9,6c0,0,0,0.1,0,0.1c0.2,2-0.4,4.2-0.8,6.2c-0.5,2.1-1.3,4.1-2.3,5.3
			c-1.9,2.6-5.1,4.3-8.4,4.6c-1.8,0.1-3.8,0-5.9-0.3c-7-0.8-14.3-3-17.1-6.9c-0.2-0.2-0.3-0.7-0.6-0.8c-0.3-0.1-0.7,0.2-1.1,0.3
			c0.2,0.9,0.8,1.7,1.4,2.3c4.4,4.5,14.2,6.6,21.8,6.8c6.4,0.2,11-2.8,13-9.6C450.7,91.1,451.1,88.2,450.9,86.4z"/>
		<path class="st0" d="M441.2,76.7c-0.8-0.4-1.6-2-1.6-3.1c0-0.4,0.1-0.7,0.1-1c-0.7,0-1.2,0.4-1.8,0.7c-0.3,0.1-0.6,0.3-0.9,0.5
			c-0.1,0.1-0.3,0.4-0.4,0.2c0-0.4,0.2-0.7,0.3-1c0.3-0.5,1.2-1.5,1.7-1.6c0.3-0.1,0.7,0.1,1.1,0.1c0-0.4,0-0.8,0-1.2
			c-4.6-1.3-5.1,4.5-5.9,8.7c0,0,0,0,0,0c-0.1,0.4-0.1,0.7-0.2,1.1c-0.1,0.3-0.1,0.6-0.2,0.8c-0.1,0.2-0.1,0.5-0.2,0.8
			c-0.7,2.6-1.8,4.4-3.4,5.7c-0.3,0.2-0.6,0.3-0.8,0.5c-2.4,1.3-5.8,1.2-9.4,0.7c0.8,1,1.8,1.9,1.9,3.4c-0.1,0.4-0.2,0.8-0.3,1.2
			c-0.6,1-1.6,1.3-2.9,1.2c-0.3-0.1-0.9-0.1-1-0.3c-0.3-0.3-0.5-0.9-0.9-1c0.2,0.4,0.5,0.7,0.8,1c0,0.1,0.1,0.1,0.2,0.2
			c2,1.8,4.8,3.2,8.2,4.1c0,0.1,0.3,0.1,0.4,0.1c0.1,0,0.2,0,0.3,0.1c0.1,0.1,0.5,0.1,0.7,0.2c0.5,0.1,0.9,0.2,1.4,0.3
			c0.3,0,0.6,0.2,0.8,0.1c0.1,0,0.3,0.1,0.4,0.1c0.1,0,0.4,0.1,0.4,0c0.1,0,0.3,0.1,0.4,0.1c0.1,0,0.4,0.1,0.4,0c0,0,0.1,0,0.1,0
			c0.1,0,0.4,0.1,0.5,0.1c3,0.4,6,0.7,8.4,0.1c0.2,0,0.4,0,0.5-0.2c0.8-0.2,1.4-0.5,2.1-0.8c0.4-0.2,0.7-0.4,1.1-0.7
			c1.8-1.4,3.2-3.3,4-6.1c0.1,0,0.1-0.3,0.1-0.4c0-0.1,0-0.1,0-0.2c0.2-0.5,0.3-1.2,0.4-1.7c0-0.1,0-0.1,0-0.2
			c0-0.1,0.1-0.4,0.1-0.5c0.1-1.2,0.4-2.3,0.2-3.4c-0.1-0.8-0.5-1.7-0.7-2.6c-0.8-2.6-1.7-5-3-7.2c-0.2,0.2-0.4,0.4-0.7,0.6
			c-0.3,0.1-0.5,0.3-0.7,0.5C442.9,77.1,441.9,77.1,441.2,76.7z"/>
		<path class="st0" d="M371.1,113.4c-0.1-0.2-0.3-0.3-0.4-0.4c-2.3-2-4.4-4.2-7.7-5.6c0-0.1-0.2-0.1-0.2-0.1
			c-0.2-0.1-0.6-0.2-0.8-0.3c-0.5-0.2-1-0.4-1.6-0.5c-0.1-0.1-0.4-0.2-0.6-0.1c-2.9-0.4-5.3,0.2-6.9,1.5c-0.3,0.2-0.7,0.5-0.9,0.7
			c-0.2,0.3-0.4,0.9-0.6,1.3c-1.4,3-2.8,6.1-4.3,8.9c1.5-0.2,3-0.3,4.9,0.1c0.6,0.1,1.2,0.3,1.8,0.4c5.4,1.4,8.3,4.4,11.1,7.5
			c0,0.1,0.1,0.1,0.1,0.2l0,0c0,0,0,0,0,0c0,0,0.1,0.1,0.1,0.1c0.1,0.1,0.1,0.1,0.2,0.2c0,0,0.1,0.1,0.1,0.1
			c0.1,0.1,0.1,0.1,0.2,0.2c0,0,0.1,0.1,0.1,0.1c0.1,0.1,0.2,0.2,0.3,0.3c2-4.4,3.7-9.1,5.3-14.2
			C371.3,113.5,371.2,113.5,371.1,113.4z"/>
		<path class="st0" d="M364.9,129.1c-0.2-0.4-0.6-0.7-0.8-1.1c-0.1,0-0.1-0.1-0.2-0.2c-0.1-0.3-0.4-0.5-0.6-0.8
			c-0.3-0.2-0.4-0.5-0.7-0.7c-0.1-0.2-0.2-0.3-0.4-0.4c-1.9-1.7-3.7-3.3-6.4-4.5c-0.8-0.4-1.7-0.7-2.7-1c-0.2-0.1-0.6-0.2-0.8-0.2
			c-2.4-0.4-4.1,0-6.1,0.1c-1.3,2.5-2.8,4.8-4.3,6.9c1.2-0.1,2.5-0.1,4,0.2c0.8,0.2,1.7,0.4,2.6,0.5c5.5,1.5,8.6,4.6,11.2,7.9
			c0,0,0,0,0,0c0,0,0,0,0,0c0.3,0.4,0.5,0.7,0.8,1.1c0.1,0.2,0.3,0.7,0.5,0.6c1.5-2.6,2.9-5.3,4.2-8.1
			C365.3,129.5,365,129.3,364.9,129.1C364.9,129.1,364.9,129.1,364.9,129.1z"/>
		<path class="st0" d="M358.4,136.8c-0.1-0.2-0.4-0.2-0.5-0.4c-0.5-0.5-0.9-1.1-1.4-1.6c-1.5-1.5-3.4-2.9-5.5-4c0.1,0-0.1,0,0,0
			c-1-0.5-2.2-1-3.5-1.3c-0.2-0.1-0.8-0.2-1.1-0.2c-1.6-0.3-3-0.3-4.2-0.1c-0.2,0-0.3,0-0.5,0.1c-0.4,0-0.9,0.1-1.2,0.1
			c-2.2,2.8-5.2,4.4-7.5,7c2.7,5.7,8.6,9.3,16.6,11.6c0,0.1,0.3,0.1,0.4,0.1c0.2,0,0.3,0.1,0.5,0.1c0.1,0.1,0.3,0.1,0.5,0.2
			c0.6,0.1,1.3,0.3,1.9,0.4c0.1-1.3-0.2-2.6-0.8-3.6c-0.6-1.1-1.5-2.1-2.5-3c-2.9-2.8-7.6-4.9-12.3-6.3c-0.1-0.1-0.3-0.1-0.5-0.1
			c0,0,1.1,0.2,1.6,0.2c5.1,1.3,9.4,3.1,12.7,5.6c1.8,1.5,3.2,3.3,3.5,5.8c1.9-2.5,3.7-5.1,5.4-7.9c-0.2-0.6-0.7-1.1-1.1-1.7
			C358.7,137.4,358.6,137,358.4,136.8z"/>
	</g>
	<path class="st1" d="M249.5,18.6c0,0,0-0.1-0.1-0.1c-1-2.4-1.5-4.1-2.3-6.1c-1.9-0.3-3-0.8-4.6-1.4c-1-0.4-2.2-1.2-3.1-1.2
		c-0.6,0-1.6,0.6-2.3,0.9c-2.4,1-4.7,1.9-7.1,2.8c-1.5,2.1-3.6,5.2-5.4,7.6c-0.5,0.7-1.7,2-1.8,2.6c0,0.5,0.4,1.3,0.4,1.3
		c0,0,1.5,1.6,1.9,2.5c0.5,0.7,1.1,1.3,1.7,2c0.4,0.5,0.8,0.9,1.3,1.3c1.4,0.7,2.9,3.2,4.5,3.4c1.7,0.2,4.9-0.8,5.4-1.2
		c0.5-0.5,6.2-6.9,9.7-10C249.9,20.9,250.4,20.9,249.5,18.6z"/>
	<path class="st2" d="M226.8,29.4c0.4,0.5,0.8,0.9,1.3,1.3c1.4,0.7,2.9,3.2,4.5,3.4c1.7,0.2,4.9-0.8,5.4-1.2c0.5-0.5,6.2-6.9,9.7-10
		c2.2-1.9,2.6-2,1.7-4.3v0l-4.6,3.4c-0.4,0.3-0.8,0.6-1.1,0.8l-16.7-0.7l-3.8,2.9c0,0,0,0,0,0c0,0,1.5,1.6,1.9,2.5
		C225.6,28.1,226.3,28.7,226.8,29.4z"/>
	<g>
		<path class="st3" d="M320.7,67.1L308.4,65c0,0,3.8-17.8,3.8-18.7c0-0.5-1.4-1.5-4.2-2.4c-0.2-0.1-0.5-0.1-0.7-0.2
			c-0.1,0-0.2,0-0.3-0.1c-0.2-0.1-0.4-0.1-0.6-0.2c-0.1,0-0.2,0-0.3-0.1c-0.3-0.1-0.6-0.1-0.9-0.2c0,0,0,0,0,0
			c-0.3-0.1-0.7-0.1-1-0.2c-0.1,0-0.2,0-0.3-0.1c-0.3,0-0.5-0.1-0.8-0.1c-0.1,0-0.2,0-0.3-0.1c-0.4-0.1-0.8-0.1-1.2-0.2
			c-1.5,6.7-4.2,20.4-4.2,20.4l0,0l0,0l-10.8-1.9l-1,3.7l0,0l-1.9,7.4l10.7,1.7c0,0-2.8,14.1-3.5,17.3c-0.7,3.2-1.4,13.4,7.5,17.2
			c0.9,0.5,2.1,0.9,5.3,1.5c6,1,10,0.4,10.2,0.4c0-0.1,0.1-0.2,0.1-0.4c0,0,0,0,0-0.1c0-0.1,0-0.1,0-0.2c0,0,0-0.1,0-0.1
			c0-0.1,0-0.1,0-0.2c0,0,0-0.1,0-0.1c0.1-0.3,0.1-0.7,0.2-1.1c0-0.1,0-0.1,0-0.2c0.1-0.3,0.1-0.6,0.2-0.9c0.2-0.8,0.3-1.7,0.5-2.5
			c0,0,0-0.1,0-0.1c0,0,0-0.1,0-0.1c0-0.1,0-0.1,0-0.2l0,0c0.3-1.5,0.5-2.6,0.5-2.6s-9.5-0.9-12.1-1.6c-2.6-0.7-3.3-3.9-3-6.1
			c0.4-2.2,4.4-18,4.4-18.1l0,0l0,0l13.6,2.1l1.5-7.2l0,0L320.7,67.1z"/>
		<path class="st3" d="M254.7,62c-0.1,0-7.9,2.1-9.8,2.6c-0.3,0.1-0.4,0.1-0.4,0.1s0,0,0,0c0.2,0.4,2.3,3.9,3.4,6.9
			c1,2.8,2,6.1,2.7,9.8c0.1,0.5,0.2,1.1,0.3,1.6c0.7,4.4,0.3,5.6,0.2,6.4c0,0.2,0,0.4-0.1,0.6c0,0.1,0,0.1,0,0.2
			c0,0.1,0,0.3-0.1,0.4c0,0.1,0,0.2,0,0.2c0,0.1,0,0.2-0.1,0.4c0,0.1,0,0.2-0.1,0.3c0,0.1-0.1,0.2-0.1,0.3c-0.1,0.2-0.1,0.4-0.2,0.6
			c0,0.1,0,0.1-0.1,0.2c0,0.1-0.1,0.3-0.1,0.4c0,0.1,0,0.1-0.1,0.2c-0.1,0.1-0.1,0.3-0.2,0.4c0,0,0,0,0,0.1
			c-0.6,1.3-1.5,2.5-2.8,3.2l0,0c-0.7,0.4-1.5,0.7-2.4,0.7c-5.1,0.3-7.3-4.6-7.9-7.1c-0.6-2.5-1.7-6.4-2-11.8
			c-0.3-5.6-0.3-11.6-0.3-11.6s-4,0.4-6.7,0.6c0,0,0,0,0,0c-0.1,0-0.3,0-0.4,0c0,0-0.1,0-0.1,0c-0.1,0-0.3,0-0.4,0c0,0-0.1,0-0.1,0
			c-0.1,0-0.2,0-0.3,0c0,0-0.1,0-0.1,0c-0.1,0-0.2,0-0.3,0c0,0,0,0-0.1,0c-0.1,0-0.1,0-0.2,0c0,0,0,0-0.1,0c-0.1,0-0.1,0-0.2,0
			c-1.3,6.2-1.6,11.2-0.9,17.9c0.8,7.6,3.8,17.2,7.6,19.7c3.8,2.5,6.9,2.9,11.2,2.8c7.5,0,11.4-3.8,13.2-5.6
			c0.4,1.5,0.9,3.4,0.9,3.4s0,0,0.1,0c1.1-0.1,9.2-0.9,9.2-1C267,100.3,266.6,78,254.7,62z"/>
		<path class="st3" d="M277.6,45.3c-0.1,0-0.2,0-0.2,0c-0.2,0-0.5,0-0.7,0c-0.1,0-0.2,0-0.3,0c-0.3,0-0.6,0-0.9,0
			c-1.6,0-2.9,1.7-3.1,3.1c-0.5,4.2,0.2,10.9-0.1,15.1c0,0-3.3,45.6-3.3,45.6s-0.3,1.2,0,1.2c0,0,0,0,0.1,0c0,0,0,0,0,0
			c0.1,0,0.3,0,0.5,0.1c0,0,0.1,0,0.1,0c0.1,0,0.1,0,0.2,0c0.1,0,0.2,0,0.2,0c0,0,0.1,0,0.1,0c0.1,0,0.2,0,0.3,0c0,0,0.1,0,0.1,0
			c0.1,0,0.2,0,0.3,0c0,0,0.1,0,0.1,0c0.1,0,0.2,0,0.3,0.1c0,0,0.1,0,0.1,0c0.3,0,0.6,0.1,1,0.1c0,0,0,0,0,0c0.3,0,0.6,0.1,1,0.1
			c0.1,0,0.1,0,0.2,0c0.1,0,0.1,0,0.2,0c0.5,0.1,1.1,0.2,1.6,0.2l0,0c3,0.5,5.9,0.9,5.9,0.9s0.6-8.4,1.3-26.9
			c0.7-18.5,0.7-31,0.8-39.7C281.7,45.2,279.6,45.3,277.6,45.3z"/>
		<polygon class="st3" points="36,90.9 64.6,53.9 53.4,44.3 25.1,80.4 19.4,50.4 5,53 20.7,135.8 35.1,133.2 29.7,104.8 68.6,127.5 
			73.8,118.3 76,114.3 36,90.9 		"/>
		<path class="st3" d="M129.4,105.3c-1.1,0.5-2.5,0.8-4.3,0.9s-4.3-1.1-4.5-3.9c-0.2-2.8-2.4-18.1-2.4-18.1l12.3-5.1l-0.8-5.6h0
			l-0.6-4.2l-12.3,4.1L112.1,56L100.4,57l6.2,18.4l-9.3,1.8l3.4-10.2l-9.9-1.4c0,0-1.4,3.8-2.2,6l0,0c0,0,0,0.1,0,0.1c0,0,0,0,0-0.1
			c-1.5-4.2-6.7-7.7-13.1-8.4c-0.1,0-0.1,0-0.2,0c-7-1.4-14,2.3-18.3,8.8h0c0,0,0,0,0,0c-0.2,0.3-0.4,0.6-0.6,0.9
			c0,0.1-0.1,0.2-0.1,0.2c-0.1,0.2-0.3,0.5-0.4,0.7c-0.1,0.1-0.1,0.2-0.2,0.3c-0.1,0.2-0.2,0.4-0.3,0.7c-0.1,0.1-0.1,0.2-0.2,0.4
			c-0.1,0.2-0.2,0.4-0.3,0.7c-0.1,0.1-0.1,0.3-0.2,0.4c-0.1,0.2-0.2,0.4-0.3,0.7c-0.1,0.1-0.1,0.3-0.1,0.4c-0.1,0.2-0.2,0.5-0.2,0.7
			c0,0.1-0.1,0.3-0.1,0.4c-0.1,0.3-0.1,0.5-0.2,0.8c0,0.1-0.1,0.2-0.1,0.4c-0.1,0.4-0.2,0.8-0.3,1.1c-1.1,5.5-0.3,10.9,1.8,15.2
			c1.8,3.8,4.7,7.1,8.5,8.6c0.1,0,0.3,0.1,0.5,0.2c0.1,0,0.1,0,0.2,0.1c1.4,0.4,4.4,1.1,7.5,0.7c1.5-0.2,3.1-0.7,4.7-1.3
			c2.5-1.1,4.8-2.6,6.6-4.2c-0.5,2.6-0.7,5.8-0.9,7.9c0.1,0,0.2,0,0.3,0c0,0,0.1,0,0.1,0c0.1,0,0.1,0,0.2,0c0.1,0,0.1,0,0.2,0
			c0.1,0,0.1,0,0.2,0c0.1,0,0.1,0,0.2,0c0.1,0,0.1,0,0.2,0c0.1,0,0.2,0,0.2,0c0,0,0.1,0,0.1,0c0.2,0,0.4,0.1,0.6,0.1
			c0,0,0.1,0,0.1,0c0.1,0,0.2,0,0.3,0c0,0,0.1,0,0.1,0c0.1,0,0.2,0,0.3,0c0.1,0,0.1,0,0.2,0c0.1,0,0.2,0,0.3,0c0.1,0,0.1,0,0.2,0
			c0.1,0,0.1,0,0.2,0c0.1,0,0.2,0,0.3,0.1c0,0,0.1,0,0.1,0c0.1,0,0.3,0.1,0.4,0.1c0,0,0,0,0,0c0.1,0,0.3,0,0.4,0.1c0,0,0.1,0,0.1,0
			c0.1,0,0.2,0,0.3,0.1c0,0,0.1,0,0.1,0c0.1,0,0.2,0,0.4,0.1c0,0,0,0,0,0c0.3,0.1,0.6,0.1,0.9,0.2l0,0c1.5,0.3,2.8,0.5,3.1,0.6
			c0.4-2.4,2.8-25.4,3.3-27.2c0.5-1.8,1.2-3.3,1.2-3.3l0.3,9.6l11.2-2.8c0,0,1.2,7.8,2,14.5c0.8,6.7,2.9,12.4,5.4,14.2
			c2.5,1.8,6.1,2.8,9.7,2.2c0.2,0,0.4-0.1,0.6-0.1c0,0,0,0,0,0c0.2,0,0.4-0.1,0.6-0.1c0,0,0.1,0,0.1,0c0.2,0,0.4-0.1,0.6-0.1
			c0,0,0.1,0,0.1,0c0.8-0.2,1.7-0.4,2.7-0.9c2-0.8,6.6-3.4,6.6-3.4l-1.5-10.3C135.4,102.1,130.6,104.8,129.4,105.3z M83.5,89.7
			C83.5,89.8,83.5,89.8,83.5,89.7c-0.5,0.4-0.9,0.7-1.3,1c0,0,0,0-0.1,0c-0.4,0.3-0.9,0.6-1.3,0.9c0,0,0,0,0,0
			c-0.5,0.3-0.9,0.6-1.4,0.9c0,0,0,0,0,0c-3.6,2.3-7.7,3.7-11.7,1.4c-5-3-6.3-11.3-3.1-15.9c0.3-0.4,0.6-0.8,0.9-1.1l0,0
			c1.4-1.6,3.1-2.5,5-2.9c0,0,0,0,0,0c0.2,0,0.4-0.1,0.6-0.1c0.1,0,0.1,0,0.2,0c0.2,0,0.3,0,0.5-0.1c0.1,0,0.2,0,0.2,0
			c0.2,0,0.3,0,0.5,0c0.1,0,0.2,0,0.3,0c0.1,0,0.3,0,0.4,0c0.1,0,0.2,0,0.4,0c0.1,0,0.3,0,0.4,0c0.1,0,0.3,0,0.4,0
			c0.1,0,0.2,0,0.4,0c0.2,0,0.3,0.1,0.5,0.1c0.1,0,0.2,0,0.3,0c0.3,0,0.5,0.1,0.8,0.2c1,0.2,2.2,0.7,3.3,1.2
			c0.1,0.1,0.3,0.1,0.4,0.2c2.2,1.2,4.2,3.1,5.1,5.4c0.1,0.3,0.2,0.6,0.3,0.9c0.1,0.5,0.2,0.9,0.2,1.4c0,0.3,0,0.6-0.1,1
			c-0.1,0.9-0.9,4.6-0.9,4.6C84.3,89.1,83.9,89.4,83.5,89.7z"/>
		<path class="st3" d="M179.4,68.5l-9.7-2.1c0,0-2.3,5.4-2.5,6c-1-2.4-2.2-4-4.2-5.4c-2.6-2-6.1-4-11.8-4c-3.1,0-6.4,0.9-9.4,2.3
			c-1.7,0.8-4.1,2.4-6.3,6.1c0,0,0,0,0,0c-0.1,0.2-0.2,0.4-0.3,0.6c0,0,0,0,0,0.1c-0.1,0.2-0.2,0.4-0.3,0.6c0,0,0,0.1-0.1,0.1
			c-0.1,0.2-0.2,0.4-0.3,0.6c0,0.1,0,0.1-0.1,0.2c-0.1,0.2-0.2,0.4-0.3,0.6c0,0.1-0.1,0.1-0.1,0.2c-0.1,0.2-0.2,0.4-0.2,0.6
			c0,0.1-0.1,0.2-0.1,0.2c-0.1,0.2-0.1,0.4-0.2,0.6c0,0.1-0.1,0.2-0.1,0.3c-0.1,0.2-0.1,0.4-0.2,0.6c0,0.1-0.1,0.2-0.1,0.3
			c-0.1,0.2-0.1,0.4-0.2,0.6c0,0.1-0.1,0.3-0.1,0.4c-0.1,0.2-0.1,0.4-0.2,0.6c0,0.2-0.1,0.3-0.1,0.5c0,0.2-0.1,0.4-0.1,0.6
			c0,0.2-0.1,0.3-0.1,0.5c0,0.2-0.1,0.4-0.1,0.6c0,0.2-0.1,0.4-0.1,0.6c0,0.2-0.1,0.4-0.1,0.5c0,0.2-0.1,0.5-0.1,0.7
			c0,0.2-0.1,0.3-0.1,0.5c0,0.3-0.1,0.5-0.1,0.8c0,0.1,0,0.3-0.1,0.4c-0.1,0.4-0.1,0.9-0.2,1.3c-1.4,13.5,8.2,17.9,8.8,18.2
			c7.1,3.1,15.5,1,19.9-3.1l-1.1,7.7l10,2.3c0,0,0.5-10.4,3.3-21.3S179.4,68.5,179.4,68.5z M156.3,93.2c-0.3,0.2-0.7,0.3-1,0.5
			c0,0,0,0,0,0c-0.3,0.1-0.7,0.3-1,0.4c-2.2,0.7-4.6,0.9-7,0.4c-0.3-0.1-0.2,0-0.2-0.1c-5.4-1.4-6.7-7.5-5.9-12.4
			c0.4-2.4,1.7-4.7,3.6-6.2l0,0c0.1-0.1,0.2-0.2,0.4-0.3c0,0,0,0,0.1,0c0.1-0.1,0.2-0.2,0.3-0.2c0.1,0,0.1-0.1,0.2-0.1
			c0.1-0.1,0.2-0.1,0.3-0.2c0.2-0.1,0.3-0.2,0.5-0.3c0.9-0.5,1.9-0.8,2.8-0.9c0.5-0.1,1-0.1,1.6-0.2c1.9-0.1,5,0.6,7.7,2.5
			c1.2,0.8,2.4,1.9,3.3,3.3c0.7,1.1,2.3,2.9,1.9,4.1c-0.4,1.4-0.8,2.8-1.1,4.2c-0.4,1.9-1.1,2.3-2.7,3.4
			C158.9,91.8,157.6,92.6,156.3,93.2z"/>
		<path class="st3" d="M220.6,83.3c-0.1-0.3-0.3-0.5-0.5-0.8c-0.1-0.1-0.1-0.2-0.2-0.3c-0.1-0.2-0.2-0.3-0.4-0.5
			c-0.1-0.1-0.1-0.2-0.2-0.3c-0.2-0.2-0.4-0.4-0.6-0.6c-3.2-3.4-8.8-5.3-15.3-5.3c-8.4,0-14,4.3-14,4.3l1.1-7.4l-5.1-0.8l0,0
			l-5.7-0.9l-10.6,62l5.9,1l0,0l4.7,0.8c0,0,3.7-21.1,4.5-25c1.9,1.8,9.1,8.4,18.3,8.4c10.5,0.3,22.5-10.1,21.2-21
			C222.8,87.8,222.3,86,220.6,83.3z M212,96.8c0,0.1,0,0.2,0,0.3c0,0.2,0,0.4-0.1,0.6c0,0.1,0,0.2,0,0.3c0,0.1,0,0.2-0.1,0.3
			c0,0.1,0,0.2-0.1,0.3c0,0.1,0,0.2-0.1,0.3c0,0.1,0,0.2-0.1,0.3c-0.3,1.1-0.7,2-1.2,2.6c-3.5,4.1-8.8,5.5-13.5,3.9
			c-2.8-1-5.4-2.4-7.5-4.5c-1-1-1.9-2.1-2.6-3.4c-0.4-0.7-0.4-1.5-0.3-2.3v0c0.1-0.7,0.2-1.3,0.4-2c0-0.2,0.1-0.4,0.1-0.5
			c0,0,0-0.1,0-0.1c0.1-0.3,0.1-0.5,0.2-0.7c0.4-2.5,5.2-4.2,7.4-4.8c3.6-1.1,8.7-0.6,10.2-0.4c1.5,0.3,2.5,0.9,3.4,1.5
			c0.9,0.7,1.8,1.8,2.5,3c0.1,0.2,0.2,0.4,0.3,0.6c0,0.1,0.1,0.1,0.1,0.2c0.1,0.1,0.1,0.3,0.2,0.4c0,0.1,0,0.1,0.1,0.2
			c0.1,0.2,0.1,0.4,0.2,0.6c0,0,0,0.1,0,0.1c0,0.2,0.1,0.4,0.1,0.6c0,0.1,0,0.1,0,0.2c0,0.2,0.1,0.3,0.1,0.5c0,0.1,0,0.1,0,0.2
			c0,0.2,0,0.4,0.1,0.6c0,0.1,0,0.1,0,0.2c0,0.2,0,0.3,0,0.5c0,0.1,0,0.2,0,0.3C212,96.6,212,96.7,212,96.8z"/>
	</g>
	<path class="st4" d="M312.1,46.3c0-0.9-3.5-2.8-10.7-3.8c-1.5,6.7-4.2,20.4-4.2,20.4l-10.8-1.9l-2.9,11.2l10.7,1.7
		c0,0-2.8,14.1-3.5,17.3c-0.7,3.2-1.4,13.4,7.5,17.2c0.9,0.5,2.1,0.9,5.3,1.5c6,1,10,0.4,10.2,0.4c0.4-2,1.8-8.7,1.8-8.7
		s-9.5-0.9-12.1-1.6c-2.6-0.7-3.3-3.9-3-6.1c0.4-2.2,4.4-18.1,4.4-18.1l13.6,2.1l2.3-10.8L308.4,65C308.4,65,312.2,47.2,312.1,46.3z
		"/>
	<path class="st4" d="M244.5,64.7c0,0,2.2,3.8,3.4,7c1.2,3.2,2.3,7,3,11.4c0.7,4.4,0.3,5.6,0.2,6.4c-0.3,3.4-1.9,7.8-6.3,8.2
		c-5.1,0.3-7.3-4.6-7.9-7.1c-0.6-2.5-1.7-6.4-2-11.8c-0.3-5.6-0.3-11.6-0.3-11.6s-7.6,0.7-8.9,0.9c-1.3,6.2-1.6,11.2-0.9,17.9
		c0.8,7.6,3.8,17.2,7.6,19.7c3.8,2.5,6.9,2.9,11.2,2.8c7.5,0,11.4-3.8,13.2-5.6c0.4,1.5,0.9,3.4,0.9,3.4s9.3-0.9,9.4-1
		c0-4.8-0.4-27.2-12.3-43.2C254.6,62,244.5,64.7,244.5,64.7z"/>
	<path class="st4" d="M275.4,45.3c-1.6,0-2.9,1.7-3.1,3.1c-0.5,4.2,0.2,10.9-0.1,15.1c0,0-3.3,45.6-3.3,45.6s-0.3,1.2,0,1.2
		c0.3,0,12.4,1.9,12.4,1.9s0.6-8.4,1.3-26.9c0.7-18.5,0.7-31,0.8-39.7C281.1,45,278,45.5,275.4,45.3z"/>
	<path class="st5" d="M335,24.1c0.1,2.1-0.2,4.5-0.2,6.7c2.9-1.1,6.3-1.2,10-1c0.1,0,0.4,0.1,0.4,0c0,0,0.1,0,0.1,0
		c0.1,0,0.4,0.1,0.5,0.1c0.1,0,0.2,0,0.3,0.1c0.1,0,0.2,0,0.4,0.1c0.2-2.4,0.2-5.2,0.3-7.7c-0.7-0.2-0.9-0.2-1.6-0.3
		c-0.1,0-0.4-0.1-0.5-0.1c-3.5-0.5-6.4,0.3-8.9,1.5C335.6,23.6,335.2,23.8,335,24.1z"/>
	<path class="st6" d="M350.6,31.3c0.3-2.1,0.7-4.7,1.1-6.8c-1.4-0.9-3.1-1.6-4.9-2.1c0,0,0,0,0,0c-0.1,2.5-0.2,5.3-0.3,7.7
		C347.8,30.3,349.4,30.8,350.6,31.3z"/>
	<path class="st7" d="M332.4,35.7c1.4-0.5,2.8-1.2,4.4-1.6c4.7-1.1,11-0.2,15.6,2.2c0.4-0.1,0.9-0.2,1-0.7c0.2-1-1-1.5-1.8-1.9
		c-1.2-0.6-3.3-1.5-4.6-1.8c-0.1-0.1-0.5-0.1-0.8-0.2c0,0,0,0,0,0c-0.3,0-0.7-0.2-0.9-0.1c-3.6-0.7-7.2-0.2-10,0.8
		c-0.7,0.3-2.2,0.7-2.8,1.2C332.1,34,331.6,35.3,332.4,35.7z"/>
	<path class="st7" d="M332.4,39.9c0.5,0,0.8-0.4,1.2-0.6c3.1-1.4,6.8-1.9,11.3-1.2c0.6,0.1,1.2,0.2,1.7,0.4c1.3,0.3,3,0.9,4.2,1.4
		c0.4,0.2,1,0.6,1.3,0.6c0.4,0,1-0.4,1.1-0.8c0.1-0.4-0.3-1-0.5-1.2c-0.4-0.3-1-0.6-1.6-0.8c-1.8-0.8-3.8-1.6-6-2
		c-0.1,0-0.4-0.1-0.5-0.1c-4-0.5-8-0.1-10.9,1.5c-0.5,0.3-1,0.3-1.3,0.6C332,38.2,331.4,39.5,332.4,39.9z"/>
	<path class="st7" d="M354.9,36.4c-0.1,0.5-0.7,0.6-0.8,1.1c0.9,0.2,2,0.2,3,0.4c0.1,0,0.4,0.1,0.5,0.1c0.2,0,0.3,0.1,0.5,0.1
		c0.3,0,0.8,0.2,1.1,0.2c0.2,0,0.3,0.1,0.5,0.1c0.3,0.2,0.8,0.2,1.2,0.3c0.1,0,0.3,0.1,0.4,0.1c0.1,0.1,0.3,0.1,0.5,0.1
		c6.3,1.7,10.7,4.6,13.4,8.6c0.1,0.2,0.2,0.4,0.4,0.6c3.3,5.5,2.9,13.4,4.1,20.3c0.9-0.6,1.6-1.5,2.3-2.3c-0.3-3.7-0.6-7.3-1.3-10.8
		c-0.7-3.4-1.8-6.6-3.4-9.4c-0.1-0.2-0.2-0.4-0.3-0.5c-2.8-4.1-7.2-7.1-13.5-8.9c0-0.1-0.3-0.1-0.4-0.1c-0.1,0-0.3-0.1-0.4-0.1
		c-0.1-0.1-0.4-0.1-0.5-0.2c-0.2,0-0.3-0.1-0.5-0.1c-0.4-0.1-0.9-0.2-1.3-0.3c-0.1,0-0.3-0.1-0.4-0.1c-0.3,0-0.6-0.2-0.8-0.1
		c-0.4-0.1-0.7-0.1-1.1-0.2c-0.1,0-0.4-0.1-0.4,0c-0.9-0.1-1.9-0.2-2.7-0.3C354.9,35.6,355.1,36,354.9,36.4z"/>
	<path class="st7" d="M410,44.7c-0.2-0.2-0.5-0.3-0.8-0.5c-0.4-0.3-0.8-0.7-1.3-1c-1.5-0.9-3.5-1.8-5.4-2.3
		c-0.4-0.2-1.2-0.3-1.6-0.3c-3.6-0.7-6.5,0-9.3,0.5c-0.8,0.1-2.2,0.5-2.2,1.6c0,0.4,0.5,0.8,0.9,0.9c0.3,0.1,0.8-0.2,1.3-0.3
		c3.2-0.6,6.8-1,10.8,0c0.1,0.1,0.4,0.1,0.5,0.2c3,0.8,5.1,2.1,7,3.6C410.8,46.8,410.5,45.3,410,44.7z"/>
	<path class="st7" d="M410.8,40.7c-0.3-0.4-1.1-0.8-1.6-1.1c-1.7-1.1-3.8-2.2-6-2.7c-0.1-0.1-0.4-0.1-0.6-0.2c0,0,0,0,0,0
		c-0.3,0-0.7-0.2-0.9-0.2c-3.5-0.5-6.6-0.3-9.3,0.5c-0.8,0.2-2.2,0.5-2.2,1.6c0,0.3,0.4,0.8,0.7,0.9c0.3,0.1,0.9-0.2,1.4-0.3
		c3.2-0.7,7-0.8,10.9,0.1c0.1,0.1,0.3,0.1,0.5,0.2c3,0.7,5,2.1,7,3.5C411.5,42.6,411.2,41.1,410.8,40.7z"/>
	<path class="st5" d="M342.9,76.1c0,0.1,0.1,0.2,0.2,0.3c0.4,0.6,0.7,1.2,1.1,1.8c0,0,0,0,0.1,0.1c0.1,0.3,0.3,0.5,0.5,0.7
		c0.1,0,0,0.1,0.1,0.1c0.1,0.2,0.2,0.4,0.3,0.5c2.3,3.2,5.1,6.2,8,9c0.2,0.3,0.4,0.5,0.7,0.7c0.1,0,0,0.1,0.1,0.1
		c0.1,0.2,0.3,0.4,0.5,0.6c0,0,0,0,0,0c0.2,0.3,0.3,0.6,0.6,0.9c0.8,1.5,1.1,3.3,1.4,5.2c-0.1,0.5-0.2,1-0.3,1.6
		c-0.8,2.8-1.9,5.3-2.9,7.8c1.6-0.7,3.7-1.3,6.2-0.8c0.6,0.1,1.2,0.3,1.9,0.4c0.3,0,0.5,0.2,0.8,0.2c0,0,0.1,0,0.1,0
		c0.6-2.1,1.4-4.3,2-6.5c0.5-1.6,0.7-3.6,1-5.3c0.1-0.6,0.3-1.3,0.3-1.8c0-0.4-0.2-0.9-0.3-1.4c-0.3-1.4-0.6-2.8-0.8-4.1
		c-0.6-0.8-1.1-1.7-1.7-2.5c-0.6-0.8-1.1-1.8-1.8-2.5c-0.7-0.7-1.5-1.2-2.2-1.9c-1.5-1.3-2.9-2.5-4.3-3.9c-0.7-0.7-1.5-1.3-2.1-2
		c-0.4-0.4-0.6-0.9-1-1.4c-0.7-1-1.4-1.9-2.1-2.8c-0.4-0.5-0.8-0.9-1.1-1.4c-0.5-0.8-0.8-1.7-1.3-2.6c-0.9-1.7-1.9-3.4-2.4-5.3
		c-0.3-1-0.5-1.9-0.8-2.9c1.2,1.5,2.4,3,3.6,4.5c-0.6-1.7-1.3-3.3-2-5c-0.2-0.5-0.5-1.1-0.7-1.7c-0.3-1.2-0.4-2.5-0.6-3.8
		c-0.2-1.3-0.5-2.6-0.6-3.8c-0.2-2.5,0-5.1-0.2-7.7c0,0-0.1,0-0.1,0c-2.4-0.5-4.8,0-6.7,0.6c-0.6,0.2-1.6,0.4-1.9,0.8
		c0,0.2,0,0.3,0,0.5c0.2,7.1,0.9,13.8,2.4,20.1c0,0.2,0.1,0.3,0.1,0.5c0.7,3.2,1.8,6.2,3.1,9.1c0.1,0.3,0.2,0.6,0.5,1
		c0,0.3,0.2,0.4,0.3,0.7c0.1,0.2,0.1,0.4,0.3,0.5c0.3,0.6,0.6,1.2,1,1.8c0,0.2,0.2,0.3,0.3,0.5c0,0,0,0.1,0,0.1
		C342.7,75.8,342.8,75.9,342.9,76.1z"/>
	<path class="st8" d="M343.3,39.5C343.3,39.5,343.3,39.5,343.3,39.5C343.3,39.5,343.3,39.5,343.3,39.5z"/>
	<path class="st8" d="M343.4,39.5C343.4,39.5,343.4,39.5,343.4,39.5C343.4,39.5,343.4,39.5,343.4,39.5z"/>
	<path class="st8" d="M343.3,39.5C343.3,39.5,343.3,39.5,343.3,39.5C343.3,39.5,343.3,39.5,343.3,39.5z"/>
	<path class="st8" d="M343.4,39.5C343.4,39.5,343.4,39.5,343.4,39.5C343.4,39.5,343.4,39.5,343.4,39.5z"/>
	<path class="st6" d="M385.2,87.9c6.5-4.9,12.1-11.3,16-20.2c2.6-5.9,4.6-12.6,6.3-20.2c-1.3-1-3-1.8-4.9-2.5c0,0.1,0,0.1,0.1,0.1
		c-0.5,1.9-1,3.5-1.5,5.3c-0.2,0.6-0.3,1.2-0.5,1.8c-0.2,0.6-0.6,1.1-0.9,1.7c-0.9,1.7-1.9,3.4-2.7,5.1c0.2-1.8,1-3.5,1.3-5.2
		c0.2-1.3,0.1-2.5,0.2-3.7c-0.5,1.8-0.6,3.7-1.1,5.5c-0.4,1.3-1.1,2.6-1.7,3.9c-0.6,1.3-1,2.7-1.6,3.9c-0.5,0.9-1.2,1.8-1.7,2.7
		c-0.6,0.9-1.1,1.8-1.6,2.7c0.8-2.8,2-5.6,2.4-9c-0.8,1.9-1.6,3.8-2.4,5.8c-0.3,0.6-0.5,1.4-0.8,1.9c-0.3,0.4-0.8,0.8-1.2,1.3
		c-0.8,0.8-1.6,1.6-2.4,2.4c-0.4,0.4-0.8,0.9-1.2,1.2c-0.6,0.5-1.5,0.9-2.2,1.3c-2.2,1.3-4.5,2.5-6.6,3.8c-1.3-0.1-3-0.1-4.5-0.2
		c-0.5,0-1.1,0-1.5-0.1c-0.2-0.1-0.7-0.4-0.9-0.5c0,0,0,0,0,0c-0.3,0.1-0.7,0.4-1,0.3c-0.2,0-0.4-0.2-0.6-0.3
		c-0.4-0.2-0.8-0.4-1.2-0.7c-2.5-1.5-4.9-3.5-6.7-5.4c-4.9-4.9-8.3-10.6-9.4-17.8c-0.5-3.6-0.7-7.6-0.5-11.6
		c-1.1-0.5-2.3-0.9-3.6-1.3c-0.1,3.6-0.2,7.2-0.3,10.8c-0.9-3.4-1.8-7.1-2.5-10.7c0-0.2-0.2-0.5,0-0.7h0c0,0-0.1,0-0.1,0
		c0,0,0,0,0,0c0,0,0,0,0,0c0,0,0,0,0,0c0,0,0,0,0,0c0,0,0,0,0,0c0,0,0.1,0,0.1,0c0.1,2.6-0.1,5.2,0.2,7.7c0.1,1.3,0.4,2.6,0.6,3.8
		c0.2,1.3,0.3,2.7,0.6,3.8c0.2,0.6,0.4,1.1,0.7,1.7c0.7,1.6,1.4,3.3,2,5c-1.2-1.5-2.4-3-3.6-4.5c0.3,1,0.5,2,0.8,2.9
		c0.5,1.9,1.5,3.6,2.4,5.3c0.4,0.8,0.8,1.8,1.3,2.6c0.3,0.5,0.7,0.9,1.1,1.4c0.7,0.9,1.4,1.8,2.1,2.8c0.3,0.5,0.6,1,1,1.4
		c0.6,0.7,1.4,1.3,2.1,2c1.4,1.3,2.8,2.6,4.3,3.9c0.7,0.6,1.5,1.2,2.2,1.9c0.7,0.7,1.2,1.7,1.8,2.5c0.6,0.8,1.1,1.7,1.7,2.5
		c0.2,1.3,0.5,2.7,0.8,4.1c0.1,0.5,0.3,1,0.3,1.4c0,0.5-0.2,1.2-0.3,1.8c-0.4,1.7-0.5,3.7-1,5.3c-0.6,2.2-1.5,4.4-2,6.5c0,0,0,0,0,0
		c1.9,0.7,3.8,1.8,5.3,2.9c1.4,1,2.6,2.1,3.7,3.2c0.1,0.1,0.2,0.4,0.5,0.4c1.7-5.2,2-11.3,4.1-15.8c0.7-1.5,1.5-2.4,2.7-3.3
		C380.8,90.9,383.1,89.5,385.2,87.9z"/>
	<path class="st5" d="M392.4,44.9c0,0.4-0.1,0.9-0.2,1.4c0,0.2-0.1,0.4-0.1,0.5c0,0.2-0.1,0.4-0.1,0.6c0,0.3-0.2,0.6-0.1,0.8
		c-0.3,1.3-0.5,2.5-0.8,3.8c-0.1,0.1-0.1,0.5-0.2,0.8c0,0.2-0.1,0.3-0.1,0.5c-0.1,0.1-0.1,0.3-0.1,0.5c-2.4,9.3-7.3,14.7-13,18.8
		c-0.8,0.5-1.5,1-2.3,1.5c-1.9,1.1-3.8,2.1-5.9,2.9c0.2,0.2,0.6,0.5,0.8,0.5c0.4,0.1,1,0.1,1.5,0.1c1.5,0.1,3.2,0.1,4.5,0.2
		c2.1-1.2,4.4-2.5,6.6-3.8c0.7-0.4,1.6-0.8,2.2-1.3c0.4-0.3,0.8-0.8,1.2-1.2c0.8-0.8,1.6-1.6,2.4-2.4c0.4-0.4,0.9-0.8,1.2-1.3
		c0.3-0.5,0.5-1.3,0.8-1.9c0.7-1.7,1.4-3.4,2.1-5.1c0.1-0.3,0.2-0.5,0.3-0.8c-0.4,3.4-1.6,6.1-2.4,9c0.5-0.9,1.1-1.8,1.6-2.7
		c0.6-0.9,1.2-1.7,1.7-2.7c0.6-1.2,1.1-2.6,1.6-3.9c0.6-1.3,1.3-2.6,1.7-3.9c0.5-1.8,0.6-3.7,1.1-5.5c-0.2,1.2,0,2.4-0.2,3.7
		c-0.3,1.8-1,3.5-1.3,5.2c0.9-1.7,1.8-3.4,2.7-5.1c0.3-0.6,0.7-1.1,0.9-1.7c0.2-0.6,0.3-1.2,0.5-1.8c0.6-1.8,1-3.4,1.5-5.3
		c0,0-0.1-0.1-0.1-0.1c0,0,0,0,0,0C398.8,43.9,395.3,44.3,392.4,44.9z"/>
	<path class="st5" d="M393.6,29.1c0,1.9-0.1,3.8-0.2,5.8c2.4-0.4,4.9-0.6,7.9-0.1c0.9,0.2,1.8,0.3,2.6,0.6c0.2-2.2,0.3-4.6,0.5-6.8
		C400.1,27.3,396.5,28,393.6,29.1z"/>
	<path class="st6" d="M409.3,37.5c0.3-1.9,0.4-3.6,0.9-5.7c-1.5-1.3-3.4-2.5-5.8-3.2c0,0,0,0,0,0c-0.2,2.2-0.3,4.6-0.5,6.8
		C406,35.9,407.8,36.6,409.3,37.5z"/>
	<path class="st7" d="M412.1,43.8c-0.2,0.1-0.5,0.2-0.5,0.4c0.2,0.5,0.2,0.5,0.7,0.6c2.3,0.1,5.1,0.2,7.3,0.6
		c3.8,0.7,8.1,2.1,10.9,4.2c0.5,0.4,0.9,0.7,1.4,1.1c2.6,1.6,4.5,3.8,6,6.1c0.1,0.2,0.2,0.4,0.3,0.5c2.3,3.9,3.4,8.5,3.2,13.9
		c0,0.8-0.2,1.6-0.2,2.4c0,0.6,0.3,1.7,0.9,1.8c0.7,0.1,1.3-0.9,1.5-1.7c0.2-0.8,0.2-1.7,0.2-2.5c0.3-6-0.6-11.3-3.2-15.2
		c-0.1-0.2-0.2-0.4-0.3-0.5c-3.8-5.6-9.8-9.7-18.4-12.1c-0.1-0.1-0.5-0.1-0.7-0.2c-0.3-0.1-0.7-0.1-1-0.2c-0.2,0-0.5-0.2-0.6-0.1
		c-2.6-0.4-4.9-0.6-7-0.4c-0.2,0.2-0.2,0.7-0.3,1C412.4,43.6,412.3,43.7,412.1,43.8z"/>
	<path class="st5" d="M346,50.9c0.1-3.6,0.2-7.2,0.3-10.8c-0.1,0-0.1-0.1-0.2,0c-0.1-0.1-0.4-0.1-0.6-0.2c-0.2,0-0.4-0.1-0.6-0.1
		c-0.3,0-0.7-0.2-0.9-0.1c-0.1,0-0.2,0-0.3-0.1c0,0,0,0-0.1,0c-0.1,0.2,0,0.5,0,0.7C344.2,43.8,345.1,47.5,346,50.9z"/>
	<path class="st7" d="M402.3,92c5.3,0.9,9.9,0.5,14-0.5c0.3,0,0.6,0.1,0.9,0.1c0.2,0,0.3,0.1,0.5,0.1c0.4,0.2,0.5,1,1,1.1
		c0.4,0.1,1.2-0.1,1.3-0.4c0.1-0.4-0.2-1.2-0.4-1.5c-0.2-0.3-0.5-0.6-0.8-0.8c-0.4-0.4-0.8-0.8-1.4-0.9c-0.2-0.1-0.6-0.2-0.8-0.2
		c-1.1,0-2.2,0.3-3.3,0.4c-3.1,0.5-6.6,0.8-10.3,0.2c-0.2,0-0.4-0.1-0.5-0.1c-0.2,0-0.3-0.1-0.5-0.1c-0.2,0-0.3-0.1-0.5-0.1
		c-0.1,0-0.3-0.1-0.4-0.1c-0.1-0.1-0.3-0.1-0.5-0.1c-2.2-0.7-4.4-1.4-6.2-2.4c-1.1-0.6-2.1-1.2-3.1-1.9c-0.7,0.6-1.4,1.2-2,1.9
		c2.5,1.8,5.5,3.3,9.2,4.3c0.1,0.1,0.3,0.1,0.5,0.1c0.2,0,0.4,0.1,0.6,0.1c0.5,0.2,1.2,0.3,1.7,0.4c0.2,0,0.3,0.1,0.5,0.1
		C401.9,91.9,402.2,92.1,402.3,92z"/>
	<path class="st6" d="M415.2,96.1c4.4,4.5,14.2,6.6,21.8,6.8c6.4,0.2,11-2.8,13-9.6c0.6-2.2,1.1-5,0.9-6.9c-0.1-1.1-0.6-2.3-1-3.4
		c-1.1-3.4-2.4-6.7-4.4-9.4c0,0-0.1,0-0.1,0.1c-0.2,0.6,0.4,1.1,0.6,1.5c0.8,1.3,1.5,2.8,2,4.1c0.8,1.9,1.5,4.1,1.9,6
		c0,0,0,0.1,0,0.1c0.2,2-0.4,4.2-0.8,6.2c-0.5,2.1-1.3,4.1-2.3,5.3c-1.9,2.6-5.1,4.3-8.4,4.6c-1.8,0.1-3.8,0-5.9-0.3
		c-7-0.8-14.3-3-17.1-6.9c-0.2-0.2-0.3-0.7-0.6-0.8c-0.3-0.1-0.7,0.2-1.1,0.3C414,94.7,414.6,95.4,415.2,96.1z"/>
	<path class="st5" d="M443.4,76.8c-0.5,0.3-1.4,0.3-2.2-0.1c-0.8-0.4-1.6-2-1.6-3.1c0-0.4,0.1-0.7,0.1-1c-0.7,0-1.2,0.4-1.8,0.7
		c-0.3,0.1-0.6,0.3-0.9,0.5c-0.1,0.1-0.3,0.4-0.4,0.2c0-0.4,0.2-0.7,0.3-1c0,0,0,0,0,0c-0.7,0.6-1.4,1.8-1.9,3c-0.4,1-0.8,2-1.1,3.1
		c-0.1,0.4-0.1,0.7-0.2,1.1c-0.1,0.3-0.1,0.6-0.2,0.8c-0.1,0.2-0.1,0.5-0.2,0.8c-0.7,2.6-1.8,4.4-3.4,5.7c-0.3,0.2-0.6,0.3-0.8,0.5
		c-2.4,1.3-5.8,1.2-9.4,0.7c0.8,1,1.8,1.9,1.9,3.4c-0.1,0.4-0.2,0.8-0.3,1.2c-0.6,1-1.6,1.3-2.9,1.2c-0.3-0.1-0.9-0.1-1-0.3
		c-0.3-0.3-0.5-0.9-0.9-1c0.2,0.4,0.5,0.7,0.8,1c0,0.1,0.1,0.1,0.2,0.2c2,1.8,4.8,3.2,8.2,4.1c0,0.1,0.3,0.1,0.4,0.1
		c0.1,0,0.2,0,0.3,0.1c0.1,0.1,0.5,0.1,0.7,0.2c0.5,0.1,0.9,0.2,1.4,0.3c0.3,0,0.6,0.2,0.8,0.1c0.1,0,0.3,0.1,0.4,0.1
		c0.1,0,0.4,0.1,0.4,0c0.1,0,0.3,0.1,0.4,0.1c0.1,0,0.4,0.1,0.4,0c0,0,0.1,0,0.1,0c0.1,0,0.4,0.1,0.5,0.1c3,0.4,6,0.7,8.4,0.1
		c0.2,0,0.4,0,0.5-0.2c0.8-0.2,1.4-0.5,2.1-0.8c0.4-0.2,0.7-0.4,1.1-0.7c1.8-1.4,3.2-3.3,4-6.1c0.1,0,0.1-0.3,0.1-0.4
		c0-0.1,0-0.1,0-0.2c0.2-0.5,0.3-1.2,0.4-1.7c0-0.1,0-0.1,0-0.2c0-0.1,0.1-0.4,0.1-0.5c0.1-1.2,0.4-2.3,0.2-3.4
		c-0.1-0.8-0.5-1.7-0.7-2.6c-0.8-2.6-1.7-5-3-7.2c-0.2,0.2-0.4,0.4-0.7,0.6C443.8,76.4,443.6,76.6,443.4,76.8z"/>
	<path class="st6" d="M437,73C437,73,437,73,437,73c0.3-0.4,1.2-1.5,1.7-1.6c0.3-0.1,0.7,0.1,1.1,0.1c0-0.4,0-0.8,0-1.2
		c-4.7-1.3-5.1,4.5-5.9,8.8c0.3-1,0.7-2.1,1.1-3.1C435.6,74.8,436.2,73.6,437,73z"/>
	<path class="st2" d="M371.1,113.4c-0.1-0.2-0.3-0.3-0.4-0.4c-2.3-2-4.4-4.2-7.7-5.6c0-0.1-0.2-0.1-0.2-0.1
		c-0.2-0.1-0.6-0.2-0.8-0.3c-1.6,4-3.2,8.1-4.9,11.9c2,1.2,3.8,2.5,5.5,3.9c0.9,1.4,2.2,2.6,2.7,4.3c-0.1,0-0.1-0.1-0.2-0.1
		c0,0,0,0,0,0c0,0,0.1,0.1,0.1,0.1c0.1,0.1,0.1,0.1,0.2,0.2c0,0,0.1,0.1,0.1,0.1c0.1,0.1,0.1,0.1,0.2,0.2c0,0,0.1,0.1,0.1,0.1
		c0.1,0.1,0.2,0.2,0.3,0.3c2-4.4,3.7-9.1,5.3-14.2C371.3,113.5,371.2,113.5,371.1,113.4z"/>
	<path class="st7" d="M362.7,122.6c-1.8-1.3-3.5-2.7-5.5-3.9c1.7-3.8,3.3-8,4.9-11.9c-0.5-0.2-1-0.4-1.6-0.5
		c-0.1-0.1-0.4-0.2-0.6-0.1c-2.9-0.4-5.3,0.2-6.9,1.5c-0.3,0.2-0.7,0.5-0.9,0.7c-0.2,0.3-0.4,0.9-0.6,1.3c-1.4,3-2.8,6.1-4.3,8.9
		c1.5-0.2,3-0.3,4.9,0.1c0.6,0.1,1.2,0.3,1.8,0.4c5.4,1.4,8.3,4.4,11.1,7.5c0,0.1,0.1,0.1,0.1,0.2c0.1,0,0.2,0.1,0.2,0.1
		C364.9,125.3,363.6,124,362.7,122.6z"/>
	<path class="st2" d="M361,137.7c1.5-2.6,2.9-5.3,4.2-8.1c0.1-0.1-0.2-0.3-0.3-0.5c0,0,0,0,0,0c-0.2-0.4-0.6-0.7-0.8-1.1
		c-0.1,0-0.1-0.1-0.2-0.2c-0.1-0.3-0.4-0.5-0.6-0.8c-0.3-0.2-0.4-0.5-0.7-0.7c-0.1-0.2-0.2-0.3-0.4-0.4c-1.9-1.7-3.7-3.3-6.4-4.5
		c-1.2,2.4-2.4,4.7-3.5,7.2c1.1,0.6,2.1,1,3.1,1.6c0.6,0.4,1.1,1,1.6,1.5c0.6,0.5,1.1,1,1.7,1.4c0.2,0.9,0.7,2,0.9,2.9c0,0,0,0,0,0
		c0.3,0.4,0.5,0.7,0.8,1.1C360.6,137.3,360.8,137.8,361,137.7z"/>
	<path class="st7" d="M353.1,120.4c-0.2-0.1-0.6-0.2-0.8-0.2c-2.4-0.4-4.1,0-6.1,0.1c-1.3,2.5-2.8,4.8-4.3,6.9
		c1.2-0.1,2.5-0.1,4,0.2c0.8,0.2,1.7,0.4,2.6,0.5c5.5,1.5,8.6,4.6,11.2,7.9c-0.2-0.9-0.7-2-0.9-2.9c-0.5-0.5-1.1-0.9-1.7-1.4
		c-0.5-0.5-1-1.1-1.6-1.5c-0.9-0.6-2-1-3.1-1.6c1.1-2.4,2.4-4.8,3.5-7.2C355,121,354.1,120.7,353.1,120.4z"/>
	<path class="st5" d="M350.9,130.8c-1-0.5-2.2-1-3.5-1.3c-0.2-0.1-0.8-0.2-1.1-0.2c-1.6-0.3-3-0.3-4.2-0.1c-0.2,0-0.3,0-0.5,0.1
		c-0.4,0-0.9,0.1-1.2,0.1c-2.2,2.8-5.2,4.4-7.5,7c2.7,5.7,8.6,9.3,16.6,11.6c0,0.1,0.3,0.1,0.4,0.1c0.2,0,0.3,0.1,0.5,0.1
		c0.1,0.1,0.3,0.1,0.5,0.2c0.6,0.1,1.3,0.3,1.9,0.4c0.1-1.3-0.2-2.6-0.8-3.6c-0.6-1.1-1.5-2.1-2.5-3c-2.9-2.8-7.6-4.9-12.3-6.3
		c-0.1-0.1-0.3-0.1-0.5-0.1c0,0-0.1,0-0.1,0c0.2-0.2,1.2,0.2,1.7,0.2c5.1,1.3,9.4,3.1,12.7,5.6c-0.8-2-1.9-4.2-2.7-6.2
		c1.5,0.7,3,1.4,4.5,2.1c-1-1.4-2.4-2.8-3.4-4.2C349.9,132.3,350.4,131.5,350.9,130.8L350.9,130.8z"/>
	<path class="st6" d="M360,139.4c-0.2-0.6-0.7-1.1-1.1-1.7c-0.2-0.3-0.3-0.7-0.5-0.9c-0.1-0.2-0.4-0.2-0.5-0.4
		c-0.5-0.5-0.9-1.1-1.4-1.6c-1.5-1.5-3.4-2.9-5.5-4c-0.1,0.2-0.2,0.4-0.3,0.6c-0.3,0.4-0.5,0.8-0.8,1.2c-0.1,0.2-0.3,0.4-0.4,0.6
		c1.1,1.4,2.4,2.9,3.4,4.2c-1.5-0.7-3-1.4-4.5-2.1c0.8,2,1.9,4.2,2.7,6.2c1.8,1.5,3.2,3.3,3.5,5.8
		C356.5,144.8,358.3,142.2,360,139.4z"/>
	<path class="st9" d="M351,141.5C351,141.5,351,141.5,351,141.5C351,141.5,351,141.5,351,141.5L351,141.5z"/>
	<path class="st10" d="M388.4,50.6c0,0-0.5-14-16.5-30c-21-18.1-36.7-18-36.7-18s18.6,3.4,34.2,18.9S388.4,50.6,388.4,50.6z"/>
	<path class="st10" d="M367.8,33.9c0,0-15.8-22.4-38.9-28.9c-35.6-10.4-55.5-1.3-55.5-1.3s27.1-6.6,53.8,4.1
		C353.9,18.5,367.8,33.9,367.8,33.9z"/>
	<path class="st10" d="M369.4,52c0,0-7.9-18.7-26.9-28.8c-25.1-12.9-44.4-9.1-44.4-9.1s25.9,1.4,43.6,12
		C359.5,36.8,369.4,52,369.4,52z"/>
	<g>
		<polygon class="st4" points="36,90.9 32.9,94.9 73.8,118.3 76,114.3 		"/>
		<polygon class="st4" points="21.5,93.2 56.8,47.3 64.6,53.9 53.4,44.3 25.1,80.4 19.4,50.4 5,53 13.2,51.5 		"/>
		<polygon class="st4" points="24.3,108.5 28.7,134.4 20.7,135.8 35.1,133.2 29.7,104.8 		"/>
	</g>
	<polygon class="st2" points="36,90.9 36,90.9 64.6,53.9 56.8,47.3 21.5,93.2 13.2,51.5 5,53 20.7,135.8 28.7,134.4 24.3,108.5 
		29.7,104.8 68.6,127.5 73.8,118.3 32.9,94.9 	"/>
	<g>
		<path class="st4" d="M135.4,102.1c0,0-4.8,2.7-6,3.2c-1.1,0.5-2.5,0.8-4.3,0.9s-4.3-1.1-4.5-3.9c-0.2-2.8-2.4-18.1-2.4-18.1
			l12.3-5.1l-1.3-9.8l-12.3,4.1L112.1,56L100.4,57l6.2,18.4l-9.3,1.8l3.4-10.2l-9.9-1.4c0,0-1.4,3.9-2.2,6.1c0,0,0,0,0-0.1
			c-1.5-4.2-6.7-7.7-13.1-8.4c-0.1,0-0.1,0-0.2,0c-9.7-1.9-19.5,5.9-21.8,17.5c-1.1,5.5-0.3,10.9,1.8,15.2c1.8,3.8,4.7,7.1,8.5,8.6
			c0.8,0.3,4.5,1.4,8.3,1c3.8-0.4,8.4-2.9,11.3-5.5c-0.5,2.6-0.7,5.8-0.9,7.9c3,0.4,9.3,1.6,10,1.8c0.4-2.4,2.8-25.4,3.3-27.2
			c0.5-1.8,1.2-3.3,1.2-3.3l0.3,9.6l11.2-2.8c0,0,1.2,7.8,2,14.5c0.8,6.7,2.9,12.4,5.4,14.2c2.5,1.8,6.1,2.8,9.7,2.2
			c1.4-0.2,2.8-0.4,4.7-1.2c2-0.8,6.6-3.4,6.6-3.4L135.4,102.1z M85.6,84.3c-0.1,0.9-0.9,4.6-0.9,4.6c-4.5,3.5-10.9,8.7-16.9,5.2
			c-5-3-6.3-11.3-3.1-15.9c2.8-4.1,7.3-4.9,11.8-3.9C80.6,75.2,86.4,79,85.6,84.3z"/>
	</g>
	<g>
		<path class="st4" d="M169.7,66.4c0,0-2.3,5.4-2.5,6c-1-2.4-2.2-4-4.2-5.4c-2.6-2-6.1-4-11.8-4c-3.1,0-6.4,0.9-9.4,2.3
			c-3,1.5-8.8,5.6-10.5,20.1c-1.4,13.5,8.2,17.9,8.8,18.2c7.1,3.1,15.5,1,19.9-3.1l-1.1,7.7l10,2.3c0,0,0.5-10.4,3.3-21.3
			s7.1-20.8,7.1-20.8L169.7,66.4z M163.8,83.4c-0.4,1.4-0.8,2.8-1.1,4.2c-0.4,1.9-1.1,2.3-2.7,3.4c-1.2,0.8-2.4,1.6-3.8,2.3
			c-2.8,1.4-5.9,1.9-9,1.2c-0.3-0.1-0.2,0-0.2-0.1c-5.4-1.4-6.7-7.5-5.9-12.4c0.5-3,2.5-5.9,5.2-7.3c1.4-0.7,2.9-1,4.4-1.1
			c2.8-0.1,8,1.4,11,5.7C162.6,80.3,164.2,82.1,163.8,83.4z"/>
	</g>
	<g>
		<path class="st4" d="M223.8,97.1c-1.1-9.3-1.5-11.1-3.2-13.8c-2.6-4.9-9.1-7.8-17.1-7.8c-8.4,0-14,4.3-14,4.3l1.1-7.4l-10.8-1.8
			l-10.6,62l10.6,1.9c0,0,3.7-21.1,4.5-25c1.9,1.8,9.1,8.4,18.3,8.4C213.2,118.4,225.2,108,223.8,97.1z M210.4,101.8
			c-3.5,4.1-8.8,5.5-13.5,3.9c-2.8-1-5.4-2.4-7.5-4.5c-1-1-1.9-2.1-2.6-3.4c-0.9-1.5,0.2-4.1,0.4-5.7c0.4-2.5,5.2-4.2,7.4-4.8
			c3.6-1.1,8.7-0.6,10.2-0.4c1.5,0.3,2.5,0.9,3.4,1.5c0.9,0.7,1.8,1.8,2.5,3C212.8,94.6,212.1,99.7,210.4,101.8z"/>
	</g>
	<path class="st11" d="M269.2,110.4"/>
	<path class="st2" d="M223.8,97.1c-1.1-9.3-1.5-11.1-3.2-13.8c-0.5-0.9-1.1-1.7-1.8-2.5c-0.3-0.1-0.6-0.2-0.6-0.2
		c-1.2-0.3-3-1-4.6-1.5c-11.4-3.1-23,2.1-30.1,6.6c0.7-4.6,1.2-9.8,2.1-14.2l-5.7-0.9l-10.6,62l5.9,1c1.5-8.9,3.7-18.7,5.4-27.7
		c0.9,0.9,2.9,2.7,3.9,3.6c0,0,0,0,0-0.1c1.9,1.8,9.1,8.4,18.3,8.4C213.2,118.4,225.2,108,223.8,97.1z M210.5,103.6
		c-1.6,3.4-4.5,6.4-8.8,6.7c-7.1,0.5-13.3-4.5-17.1-7.3c0.5-2.1,0.9-4.4,1.7-6.3c0,0,0.2-0.6,0.4-1.2c0.1-1.2,0.6-2.4,0.7-3.4
		c0.4-2.5,5.2-4.2,7.4-4.8c3.6-1.1,8.7-0.6,10.2-0.4c1.5,0.3,2.5,0.9,3.4,1.5c0.9,0.7,1.8,1.8,2.5,3c1.5,2.4,1.5,5.8,0.7,8.2
		C211.2,101,210.8,102.9,210.5,103.6z"/>
	<path class="st2" d="M244.5,64.7c0,0,2.2,3.8,3.4,7c1.2,3.2,2.3,7,3,11.4c0.7,4.4,0.3,5.6,0.2,6.4c-0.2,2.6-1.3,6-3.9,7.4
		c-1.8,1.4-4.2,4-7.9,3.6c-2.7-0.3-4.6-2.7-5.9-5.1c-3.6-7.1-4.1-19.7-4.1-27.7c0,0-0.2,0-0.5,0c-1.5,0.1-2.8,0.3-3.3,0.3
		c-1.3,6.2-1.6,11.2-0.9,17.9c0.8,7.6,3.8,17.2,7.6,19.7c3.8,2.5,6.9,2.9,11.2,2.8c7.5,0,11.4-3.8,13.2-5.6c0.4,1.5,0.9,3.4,0.9,3.4
		s2.9-0.3,5.5-0.5c-0.7-17.3-6-31.3-12.4-42.5C247.8,63.8,244.5,64.7,244.5,64.7z"/>
	<path class="st2" d="M275.4,45.3c-1.6,0-2.9,1.7-3.1,3.1c-0.5,4.2,0.2,10.9-0.1,15.1c0,0-3.3,45.6-3.3,45.6s-0.3,1.2,0,1.2
		c0.2,0,3.3,0.5,6.4,1c3.2-19.7,2.6-43.8,3.5-66C277.6,45.3,276.5,45.4,275.4,45.3z"/>
	<path class="st2" d="M294.3,73.9c0,0-2.8,14.1-3.5,17.3c-0.7,3.2-1.4,13.4,7.5,17.2c0.9,0.5,2.1,0.9,5.3,1.5c6,1,10,0.4,10.2,0.4
		c0.2-1.2,0.8-4,1.2-6.1c-2.6,0.2-5.8,0.1-8.3-0.3c-2.5-0.4-5-1.1-6.6-2.1c-5.2-3.3-3.1-10.9-1.5-17c0.8-3.4,1.6-6.6,2.7-9.7
		c0.4,0.2,2,0.4,3.7,0.7l0,0l13.6,2.1l1.5-7.2c-5.6-0.8-11.4-1.8-16.8-2.9c1.7-7.7,3.4-16.1,4.9-24c-1.7-0.5-3.8-1-6.6-1.4
		c-1.5,6.7-4.2,20.4-4.2,20.4l0,0c-0.4,2.1-0.7,3.5-0.8,3.8c-3.5-0.5-7.7-1.2-11-2l-1.9,7.4L294.3,73.9z"/>
	<path class="st2" d="M165.6,103.1c0.9-13.5,5.7-26,9.7-35.5l-5.6-1.2c0,0-2.3,5.4-2.5,6c0,0,0,0,0,0c-0.3,1.2-0.9,3.3-1.2,4.4
		c-2.9-5.6-7.5-10.4-15.5-10.5c-5.2-0.1-10.7,2.5-14.7,4.5c-1.9,3-3.7,7.6-4.5,14.6c-1.4,13.5,8.2,17.9,8.8,18.2
		c7.1,3.1,15.5,1,19.9-3.1l-1.1,7.7l6.7,1.5C165.4,108.5,165.6,103.4,165.6,103.1z M163.8,83.4c-0.4,1.4-0.8,2.8-1.1,4.2
		c-0.4,1.9-1.1,2.3-2.7,3.4c-1.2,0.8-2.4,1.6-3.8,2.3c-0.7,0.3-1.3,0.6-2,0.8c-0.9,0.4-1.4,0.6-1.3,0.6c-2,0.8-3.9,1.6-6.3,1.5
		c-4.6,0-8.2-3.6-8.7-7.8c-0.5-4.6,1.9-8.2,4.5-10.8c0.3-0.2,1.5-1.2,2.4-1.8c0.5-0.4,1-0.8,1.6-1.1c1.4-0.7,2.9-1,4.4-1.1
		c2.8-0.1,8,1.4,11,5.7C162.6,80.3,164.2,82.1,163.8,83.4z"/>
	<path class="st2" d="M136.9,112.3l-1-6.5c-4.7,2.9-17.7,7.5-18.9-0.8c-0.9-6.7-3-20.1-3-20.1s2.8-0.5,4.1-0.7c0,0,0,0,0,0l12.3-5.1
		l-0.8-5.6c-5.2,1.7-11,4-16.7,4.8c-0.6-8.9-3.2-15.7-6.6-21.8l-6,0.5l6.2,18.4l0,0c0.2,0.6,0.8,3.1,0.9,4.4c-1.9,0.4-5,0.9-7.8,1.1
		c-1,0.1-2.3-0.1-2.6,0l0.3,7.8l11.2-2.8c0,0,1.2,7.8,2,14.5c0.8,6.7,2.9,12.4,5.4,14.2c2.5,1.8,6.1,2.8,9.7,2.2
		c0.9-0.1,1.7-0.3,2.7-0.5c0.5-0.1,1-0.3,1.5-0.5c0.2-0.1,0.4-0.1,0.6-0.2C132.3,114.9,136.9,112.3,136.9,112.3z"/>
	<path class="st2" d="M96.6,66.5l-5.8-0.8c0,0-1.4,3.8-2.2,6c-0.5,1.8-1,3.5-1.3,4.3c-3-4.9-6.8-8.9-14.1-9.2
		c-6.2-0.2-12,2.9-16.2,5.2c-1.7,2.5-2.9,5.5-3.5,8.7c-1.1,5.5-0.3,10.9,1.8,15.2c1.8,3.8,4.7,7.1,8.5,8.6c0.8,0.3,1.8,0.5,2.9,0.7
		c0.1,0,0.2,0,0.3,0.1c1.5,0.3,3,0.4,4.4,0.2c0.2,0,0.5,0,0.7,0c4.3-0.6,8.4-2.9,11.3-5.5c-0.5,2.6-0.7,5.8-0.9,7.9
		c1.8,0.3,4.7,0.8,7,1.2C88,92.7,92.1,78.2,96.6,66.5z M85.6,84.3c-0.1,0.9-0.9,4.6-0.9,4.6c-1.5,1.2-3.3,2.6-5.2,3.8
		c-0.5,0.4-1.1,0.8-1.7,1.1c-1.4,1.1-4.9,2.7-7.3,3c-5.3,0.7-10.5-3.3-10.3-9.4c0.1-4,2-6.2,3.9-8.9c0.5-0.5,1-1,1.5-1.4
		c2.8-3.2,6.9-3.7,10.9-2.8C80.6,75.2,86.4,79,85.6,84.3z"/>
	<path class="st7" d="M242.5,10.9c-1-0.4-2.2-1.2-3.1-1.2c-0.6,0-1.6,0.6-2.3,0.9c-2.4,1-4.7,1.9-7.1,2.8c-1.5,2.1-3.6,5.2-5.4,7.6
		c-0.5,0.7-1.7,2-1.8,2.6c0,0.5,0.2,0.9,0.4,1.3l3.8-2.9l16.7,0.7l5.7-4.2c0,0,0-0.1-0.1-0.1c-1-2.4-1.5-4.1-2.3-6.1
		C245.2,12.1,244.1,11.6,242.5,10.9z"/>
</g>
</svg>
