<?xml version="1.0" encoding="iso-8859-1"?>
<!-- Generator: Adobe Illustrator 19.2.1, SVG Export Plug-In . SVG Version: 6.00 Build 0)  -->
<svg version="1.1" xmlns="http://www.w3.org/2000/svg" xmlns:xlink="http://www.w3.org/1999/xlink" x="0px" y="0px"
	 viewBox="0 0 150 35.131" style="enable-background:new 0 0 150 35.131;" xml:space="preserve">
<g id="opmijkunjerekenen">
	<g>
		<g>
			<path style="fill:#009CE0;" d="M129.267,35.131h6.023l-0.167-13.69l0.067-0.031l9.364,13.72H150V12.57h-6.012l0.265,14.116
				l-0.067,0.061l-9.495-14.178h-5.424V35.131z M113.708,35.131h13.656v-5.058h-7.645v-3.877h7.413v-5.058h-7.413v-3.509h7.645
				V12.57h-13.656V35.131z M90.478,35.131h6.023l-0.167-13.69L96.4,21.41l9.364,13.72h5.446V12.57h-6.012l0.268,14.116l-0.067,0.061
				L95.901,12.57h-5.424V35.131z M74.921,35.131h13.656v-5.058h-7.645v-3.877h7.411v-5.058h-7.411v-3.509h7.645V12.57H74.921V35.131
				z M54.079,35.131h6.279v-9.757h0.067l6.714,9.757h7.344L65.81,23.818l8.141-11.248h-6.58l-6.945,10.153h-0.067V12.57h-6.279
				V35.131z M37.859,35.131h13.656v-5.058h-7.645v-3.877h7.413v-5.058h-7.413v-3.509h7.645V12.57H37.859V35.131z M24.161,17.628
				h2.296c2.427,0,4.058,1.006,4.058,3.049c0,1.098-0.435,3.233-4.125,3.233h-2.23V17.628z M18.149,35.131h6.012v-7.288h0.067
				l5.688,7.288h7.174l-6.675-7.684c4.649-0.702,6.112-4.515,6.112-7.107c0-2.316-0.998-4.693-3.024-6.157
				c-1.594-1.126-3.255-1.614-7.578-1.614h-7.776V35.131z"/>
			<path style="fill:#006898;" d="M113.384,12.48h7.413V9.732h-4.15V7.628h4.024V4.883h-4.024V2.977h4.15V0.231h-7.413V12.48z
				 M108.621,0.231v8.177c0,0.563,0,1.555-1.028,1.555c-0.903,0-0.995-0.858-1.031-1.421h-3.623
				c0.017,4.169,4.167,4.169,4.493,4.169c1.352,0,2.868-0.53,3.768-1.605c0.58-0.661,0.831-1.391,0.831-3.475v-7.4H108.621z
				 M86.935,12.48h3.269l-0.089-7.433l0.036-0.017l5.084,7.45h2.957V0.231h-3.264l0.142,7.664l-0.036,0.031l-5.156-7.695h-2.943
				V12.48z M75.386,0.231v7.4c0,1.803,0.234,2.664,1.335,3.774c1.098,1.093,2.868,1.307,3.843,1.307
				c1.661,0,2.868-0.513,3.735-1.324c0.847-0.794,1.335-1.706,1.335-3.757v-7.4h-3.409v7.4c0,0.975,0,2.333-1.697,2.333
				c-1.681,0-1.734-1.505-1.734-2.333v-7.4H75.386z M64.11,12.48h3.409V7.182h0.036l3.643,5.298h3.988l-4.71-6.143l4.423-6.106
				h-3.573l-3.771,5.513h-0.036V0.231H64.11V12.48z M54.492,0.231v8.177c0,0.563,0,1.555-1.028,1.555
				c-0.903,0-0.995-0.858-1.031-1.421h-3.623c0.017,4.169,4.167,4.169,4.49,4.169c1.354,0,2.871-0.53,3.771-1.605
				c0.577-0.661,0.831-1.391,0.831-3.475v-7.4H54.492z M45.164,12.48h3.409V0.231h-3.409V12.48z M29.737,12.48h3.135l-0.106-9.186
				l0.033-0.02l2.854,9.205h2.255l2.851-9.205l0.036,0.02l-0.109,9.186h3.138V0.231h-4.401l-2.617,8.052h-0.036l-2.653-8.052h-4.381
				V12.48z M18.116,2.977h1.263c0.741,0,2.257,0,2.257,1.441c0,1.474-1.48,1.474-2.132,1.474h-1.388V2.977z M14.852,12.48h3.264
				V8.64h1.48c2.076,0,2.977-0.348,3.896-1.059c0.847-0.663,1.407-1.97,1.407-3.211c0-1.243-0.524-2.453-1.569-3.247
				c-0.722-0.543-1.642-0.892-4.114-0.892h-4.364V12.48z M3.409,6.321c0-1.722,1.282-3.576,3.645-3.576
				c2.455,0,3.629,2.037,3.629,3.626c0,1.575-1.173,3.592-3.592,3.592C4.799,9.964,3.409,8.211,3.409,6.321 M0.524,3.888
				C0.128,4.783,0,5.694,0,6.505c0,3.147,2.815,6.207,7.018,6.207c4.153,0,7.073-2.946,7.073-6.357S11.151,0,7.037,0
				C3.3,0,1.226,2.299,0.524,3.888"/>
		</g>
	</g>
</g>
<g id="Laag_1">
</g>
</svg>
