<?xml version="1.0" encoding="iso-8859-1"?>
<!-- Generator: Adobe Illustrator 19.2.1, SVG Export Plug-In . SVG Version: 6.00 Build 0)  -->
<svg version="1.1" xmlns="http://www.w3.org/2000/svg" xmlns:xlink="http://www.w3.org/1999/xlink" x="0px" y="0px"
	 viewBox="0 0 150 37.925" style="enable-background:new 0 0 150 37.925;" xml:space="preserve">
<g id="pleinfeu">
	<g>
		<g>
			<path style="fill:#2E5251;" d="M12.335,23.098H2.552V37.37H0V3.721h12.335c5.812,0,10.161,3.498,10.161,9.688
				C22.496,19.552,18.148,23.098,12.335,23.098z M12.052,5.99h-9.5v14.838h9.5c4.678,0,7.893-2.362,7.893-7.419
				S16.73,5.99,12.052,5.99z"/>
			<path style="fill:#2E5251;" d="M25.384,31.461V3.721h2.412v27.695c0,2.599,0.803,3.828,3.497,3.828h1.653v2.125h-2.079
				C27.133,37.37,25.384,35.053,25.384,31.461z"/>
			<path style="fill:#2E5251;" d="M42.637,35.478c2.693,0,4.348-0.803,6.286-2.74l1.796,1.418c-2.316,2.314-4.443,3.498-8.223,3.498
				c-6.286,0-9.688-4.065-9.688-11.676c0-7.371,3.402-11.673,9.12-11.673s9.122,4.113,9.122,11.106V26.5H35.217
				C35.217,32.313,37.769,35.478,42.637,35.478z M47.836,20.262c-0.994-2.41-3.261-3.828-5.908-3.828
				c-2.647,0-4.915,1.418-5.907,3.828c-0.52,1.466-0.662,2.08-0.803,4.302h13.422C48.497,22.387,48.451,21.632,47.836,20.262z"/>
			<path style="fill:#2E5251;" d="M54.834,3.721h2.978v2.977h-2.978V3.721z M55.119,14.59h2.41V37.37h-2.41V14.59z"/>
			<path style="fill:#2E5251;" d="M78.04,23.239c0-4.395-2.175-6.805-6.286-6.805s-6.427,2.458-6.427,6.805V37.37h-2.41V14.59h2.41
				v2.695c1.701-1.987,3.922-2.98,6.71-2.98c2.505,0,4.537,0.71,6.049,2.176c1.56,1.511,2.364,3.639,2.364,6.331V37.37h-2.41V23.239
				z"/>
		</g>
		<g>
			<g>
				<path style="fill:#BD0D0D;" d="M102.705,0v4.733c-1.922,0-3.058,0.087-3.405,0.265c-0.344,0.178-0.519,0.682-0.519,1.511v0.97
					h3.924v4.848h-2.216V37.37h-9.325V12.327h-1.915V7.478h1.915c0-2.015,0.069-3.36,0.207-4.039c0.138-0.677,0.481-1.28,1.027-1.81
					c0.547-0.533,1.314-0.936,2.295-1.212C95.681,0.138,97.211,0,99.289,0H102.705z"/>
				<path style="fill:#BD0D0D;" d="M125.603,22.599H113.53v6.624c0,1.384,0.101,2.278,0.302,2.675c0.2,0.4,0.584,0.6,1.153,0.6
					c0.708,0,1.181-0.265,1.421-0.795c0.237-0.533,0.355-1.559,0.355-3.081v-4.039h8.843v2.261c0,1.894-0.121,3.346-0.358,4.364
					c-0.24,1.015-0.795,2.1-1.674,3.253c-0.877,1.156-1.99,2.021-3.335,2.596c-1.345,0.578-3.036,0.868-5.065,0.868
					c-1.97,0-3.71-0.288-5.218-0.854c-1.508-0.569-2.681-1.35-3.521-2.345c-0.837-0.992-1.418-2.083-1.742-3.276
					c-0.321-1.192-0.485-2.929-0.485-5.206v-8.933c0-2.675,0.361-4.789,1.085-6.334c0.724-1.548,1.908-2.731,3.555-3.555
					s3.54-1.235,5.677-1.235c2.616,0,4.775,0.496,6.475,1.488s2.895,2.309,3.577,3.946c0.685,1.638,1.029,3.944,1.029,6.912V22.599z
					 M116.253,17.612v-2.238c0-1.587-0.085-2.61-0.254-3.07c-0.169-0.462-0.513-0.693-1.037-0.693c-0.648,0-1.049,0.197-1.201,0.589
					c-0.152,0.392-0.231,1.449-0.231,3.174v2.238H116.253z"/>
				<path style="fill:#BD0D0D;" d="M150,6.74v30.63h-9.488l0.163-2.545c-0.648,1.035-1.443,1.807-2.39,2.326
					c-0.947,0.516-2.035,0.775-3.264,0.775c-1.404,0-2.565-0.248-3.487-0.741c-0.922-0.49-1.604-1.144-2.044-1.962
					c-0.437-0.815-0.71-1.663-0.817-2.548c-0.107-0.885-0.163-2.644-0.163-5.274V6.74h9.325v20.843c0,2.385,0.073,3.803,0.22,4.248
					s0.541,0.668,1.19,0.668c0.693,0,1.105-0.231,1.235-0.691c0.13-0.462,0.197-1.948,0.197-4.457V6.74H150z"/>
			</g>
		</g>
	</g>
</g>
<g id="Laag_1">
</g>
</svg>
