<?xml version="1.0" encoding="iso-8859-1"?>
<!-- Generator: Adobe Illustrator 19.2.1, SVG Export Plug-In . SVG Version: 6.00 Build 0)  -->
<svg version="1.1" xmlns="http://www.w3.org/2000/svg" xmlns:xlink="http://www.w3.org/1999/xlink" x="0px" y="0px"
	 viewBox="0 0 150 41.203" style="enable-background:new 0 0 150 41.203;" xml:space="preserve">
<g id="sherpa">
	<g>
		<path style="fill:#E00613;" d="M12.472,33.442C7.437,33.442,3.325,32.519,0,29.1l5.173-5.173c1.709,1.707,4.712,2.308,7.345,2.308
			c3.188,0,4.712-1.061,4.712-2.956c0-0.784-0.184-1.432-0.647-1.94c-0.416-0.416-1.108-0.74-2.171-0.878l-3.973-0.554
			c-2.909-0.416-5.127-1.385-6.605-2.909c-1.524-1.571-2.264-3.788-2.264-6.605C1.57,4.387,6.097,0,13.58,0
			c4.712,0,8.268,1.108,11.086,3.926l-5.081,5.081c-2.078-2.08-4.803-1.942-6.236-1.942c-2.818,0-3.972,1.618-3.972,3.05
			c0,0.416,0.139,1.017,0.646,1.524c0.416,0.416,1.109,0.831,2.264,0.97l3.973,0.554c2.956,0.416,5.081,1.341,6.467,2.726
			c1.755,1.709,2.448,4.156,2.448,7.206C25.174,29.793,19.4,33.442,12.472,33.442z"/>
		<path style="fill:#E00613;" d="M43.424,33.165V18.107c0-2.679-1.94-3.233-2.91-3.233c-0.97,0-2.909,0.554-2.909,3.233v15.059
			h-7.576V0.277h7.576v10.069c1.57-1.571,3.556-2.31,5.45-2.31c5.358,0,7.945,3.973,7.945,9.009v16.12H43.424z"/>
		<path style="fill:#E00613;" d="M62.828,23.188c0,2.031,1.571,3.879,4.389,3.879c2.633,0,3.788-0.738,5.127-2.078l4.527,4.527
			c-2.541,2.541-5.035,3.926-9.654,3.926c-5.497,0-11.825-1.986-11.825-12.703c0-8.129,4.619-12.703,11.132-12.703
			c7.206,0,11.178,5.267,11.178,11.78v3.372H62.828z M69.803,16.212c-0.461-1.061-1.478-1.94-3.279-1.94
			c-1.802,0-2.818,0.878-3.279,1.94c-0.324,0.648-0.417,1.341-0.417,1.942h7.391C70.219,17.552,70.127,16.86,69.803,16.212z"/>
		<path style="fill:#E00613;" d="M95.674,16.167c-0.74-0.74-1.432-1.294-2.726-1.294c-1.015,0-3.048,0.601-3.048,3.419v14.873
			h-7.576V8.315h7.391v2.031c1.11-1.108,3.28-2.31,5.866-2.31c2.449,0,4.112,0.601,5.821,2.31L95.674,16.167z"/>
		<path style="fill:#E00613;" d="M123.391,31.179c-1.43,1.432-3.602,2.264-6.004,2.264c-2.447,0-4.158-0.693-5.544-2.078v9.839
			h-7.575V8.315h7.345v2.031c1.524-1.524,3.14-2.31,5.727-2.31c2.402,0,4.621,0.833,6.051,2.264c2.449,2.449,2.31,6.791,2.31,10.44
			S125.84,28.732,123.391,31.179z M114.985,14.873c-2.818,0-3.142,2.264-3.142,5.866c0,3.604,0.324,5.868,3.142,5.868
			c2.818,0,3.142-2.264,3.142-5.868C118.127,17.137,117.803,14.873,114.985,14.873z"/>
		<path style="fill:#E00613;" d="M142.61,33.165v-2.033c-1.524,1.526-2.911,2.264-5.544,2.264c-2.494,0-4.572-0.831-5.957-2.217
			c-1.432-1.432-2.172-3.51-2.172-5.821c0-3.741,2.541-7.204,8.453-7.204h5.034v-0.648c0-2.264-1.108-3.095-3.741-3.095
			c-1.94,0-2.771,0.462-3.973,1.663l-4.711-4.711c2.539-2.541,4.849-3.327,9.054-3.327c7.113,0,10.945,2.958,10.945,9.009v16.12
			H142.61z M142.425,23.188h-3.834c-1.477,0-2.4,0.831-2.4,1.986c0,1.108,0.831,2.078,2.494,2.078c1.479,0,2.172-0.139,3.003-0.923
			c0.554-0.509,0.738-1.294,0.738-2.496V23.188z"/>
	</g>
</g>
<g id="Laag_1">
</g>
</svg>
