<?xml version="1.0" encoding="iso-8859-1"?>
<!-- Generator: Adobe Illustrator 19.2.1, SVG Export Plug-In . SVG Version: 6.00 Build 0)  -->
<svg version="1.1" xmlns="http://www.w3.org/2000/svg" xmlns:xlink="http://www.w3.org/1999/xlink" x="0px" y="0px"
	 viewBox="0 0 150 39.979" style="enable-background:new 0 0 150 39.979;" xml:space="preserve">
<g id="shuffle">
	<g>
		<g>
			<path style="fill:#BD0D0D;" d="M132.438,17.008c1.032-1.029,2.357-1.545,3.976-1.545c1.768,0,3.128,0.516,4.087,1.545
				c0.882,0.959,1.398,2.431,1.548,4.418h-11.267C130.855,19.512,131.406,18.04,132.438,17.008 M141.991,30.591
				c-0.478,0.37-0.755,0.663-0.828,0.886c-0.22,0.22-0.424,0.424-0.608,0.608c-0.185,0.182-0.385,0.312-0.605,0.385
				c-0.886,0.516-1.953,0.774-3.205,0.774c-1.915,0-3.351-0.589-4.307-1.768c-1.032-1.105-1.583-2.797-1.657-5.081h19.107
				c0.073-0.147,0.111-0.405,0.111-0.774v-0.44v-0.774c0-4.861-1.179-8.652-3.536-11.376c-2.427-2.65-5.852-3.976-10.27-3.976
				c-4.199,0-7.473,1.363-9.831,4.087c-2.281,2.65-3.421,6.333-3.421,11.044c0,4.931,1.175,8.725,3.533,11.376
				c2.354,2.724,5.632,4.084,9.831,4.084c3.46,0,6.33-0.844,8.614-2.539c2.281-1.618,3.826-3.976,4.638-7.069h-5.521
				C143.151,30.04,142.469,30.225,141.991,30.591 M113.981,39.097h7.731V4.75c0-1.032-0.37-1.895-1.105-2.596
				c-0.736-0.701-1.618-1.051-2.65-1.051h-3.976V39.097z M108.348,39.097v-22.2h1.105c0.956,0,1.803-0.347,2.539-1.048
				c0.736-0.698,1.105-1.602,1.105-2.705v-1.66h-4.75V9.496c0-0.882,0.182-1.472,0.551-1.765c0.443-0.293,1.179-0.443,2.211-0.443
				h1.988V1.214c-0.443-0.073-1.07-0.111-1.88-0.111c-0.44-0.07-1.032-0.108-1.765-0.108c-3.02,0-5.193,0.624-6.518,1.876
				c-1.398,1.325-2.099,3.313-2.099,5.963v30.263H108.348z M95.252,39.097v-22.2h1.105c0.956,0,1.803-0.347,2.539-1.048
				c0.736-0.698,1.105-1.602,1.105-2.705v-1.66h-4.75V9.496c0-0.882,0.185-1.472,0.554-1.765c0.44-0.293,1.175-0.443,2.208-0.443
				h1.988V1.214c-0.44-0.073-1.067-0.111-1.876-0.111c-0.443-0.07-1.032-0.108-1.768-0.108c-3.02,0-5.189,0.624-6.518,1.876
				c-1.398,1.325-2.096,3.313-2.096,5.963v30.263H95.252z M82.379,9.719c-1.105,0-2.007,0.37-2.705,1.102
				c-0.701,0.739-1.051,1.621-1.051,2.654v15.02c0,1.765-0.535,3.055-1.599,3.864c-1.07,0.812-2.265,1.217-3.59,1.217
				c-1.325,0-2.504-0.405-3.536-1.217c-1.032-0.809-1.545-2.099-1.545-3.864V9.719h-7.731v17.228c0,5.081,1.306,8.432,3.921,10.051
				c2.612,1.621,5.502,2.504,8.671,2.65c3.237,0,6.218-0.809,8.945-2.427c2.724-1.618,4.087-5.043,4.087-10.274V9.719H82.379z
				 M51.619,20.818c0.185,0.921,0.277,1.934,0.277,3.039v15.24h7.4V21.977c0-3.386-0.701-6.037-2.099-7.951
				c-1.398-1.915-3.128-3.313-5.189-4.199c-2.211-0.882-4.53-1.029-6.957-0.44c-2.431,0.589-4.31,1.988-5.635,4.195V4.858
				c0-1.029-0.37-1.915-1.102-2.65c-0.739-0.736-1.621-1.105-2.65-1.105h-3.756v37.995h7.508V23.965c0-2.577,0.554-4.6,1.657-6.075
				c1.105-1.472,2.689-2.208,4.75-2.208c1.915,0,3.425,0.774,4.53,2.319C51.014,18.961,51.435,19.897,51.619,20.818 M4.418,36.778
				c2.501,2.138,6.257,3.202,11.264,3.202c4.861,0,8.617-1.029,11.267-3.09c2.65-2.211,3.976-5.304,3.976-9.28
				c0-1.838-0.405-3.533-1.214-5.081c-0.812-1.395-1.953-2.539-3.425-3.421c-1.032-0.443-2.064-0.886-3.093-1.325
				c-0.589-0.147-1.379-0.35-2.373-0.608c-0.994-0.258-2.157-0.608-3.482-1.048c-0.589-0.073-1.51-0.293-2.759-0.663
				c-4.272-0.959-6.406-2.431-6.406-4.418c0-1.472,0.551-2.612,1.657-3.425c0.956-0.809,2.539-1.214,4.75-1.214
				c2.281,0,4.084,0.478,5.412,1.434c0.663,0.516,1.175,1.144,1.545,1.879c0.736,1.545,1.95,2.319,3.644,2.319h4.418
				c-0.15-3.683-1.475-6.664-3.976-8.948C23.194,1.032,19.732,0,15.243,0C10.455,0,6.811,0.994,4.307,2.982
				c-2.504,2.061-3.753,4.896-3.753,8.502c0,2.064,0.366,3.756,1.102,5.081c0.589,1.548,1.618,2.727,3.093,3.536
				c1.252,0.882,3.756,1.73,7.512,2.539l0.882,0.223l0.22,0.108c6.629,1.475,9.942,3.389,9.942,5.744
				c0,1.545-0.593,2.724-1.768,3.536c-1.179,0.809-2.908,1.214-5.193,1.214c-2.577,0-4.6-0.516-6.072-1.548
				c-1.402-0.882-2.249-2.427-2.542-4.638H0C0.223,31.477,1.695,34.643,4.418,36.778"/>
		</g>
	</g>
</g>
<g id="Laag_1">
</g>
</svg>
