<?xml version="1.0" encoding="iso-8859-1"?>
<!-- Generator: Adobe Illustrator 19.2.1, SVG Export Plug-In . SVG Version: 6.00 Build 0)  -->
<svg version="1.1" xmlns="http://www.w3.org/2000/svg" xmlns:xlink="http://www.w3.org/1999/xlink" x="0px" y="0px"
	 viewBox="0 0 150 20.953" style="enable-background:new 0 0 150 20.953;" xml:space="preserve">
<g id="spectrum">
	<path style="fill:#69BDAD;" d="M126.653,20.041c0,0.4,0.195,0.599,0.585,0.599h3.85c0.425,0,0.647-0.2,0.666-0.599l1.183-10.49
		l3.062,10.558c0.01,0.1,0.075,0.211,0.197,0.333c0.124,0.124,0.239,0.184,0.347,0.184h3.579c0.108,0,0.219-0.063,0.333-0.19
		c0.113-0.127,0.179-0.236,0.197-0.327l3.062-10.585l1.183,10.517c0.019,0.4,0.236,0.599,0.653,0.599h3.85
		c0.4,0,0.599-0.178,0.599-0.531v-0.068c-0.319-3.192-0.642-6.36-0.974-9.503c-0.331-3.143-0.655-6.31-0.972-9.503
		c-0.019-0.171-0.094-0.314-0.225-0.428c-0.132-0.114-0.279-0.17-0.442-0.17h-4.653c-0.336,0-0.568,0.171-0.695,0.517l-3.727,12.353
		l-3.701-12.353c-0.1-0.346-0.317-0.517-0.653-0.517h-4.708c-0.2,0-0.354,0.059-0.461,0.176c-0.109,0.119-0.173,0.258-0.192,0.422
		L126.653,20.041z M112.394,1.034c0-0.171-0.075-0.314-0.224-0.428c-0.149-0.114-0.292-0.17-0.428-0.17h-4.071
		c-0.154,0-0.282,0.06-0.387,0.184c-0.105,0.122-0.155,0.26-0.155,0.414v11.47c0,1.56,0.233,2.878,0.699,3.952
		c0.468,1.075,1.096,1.946,1.885,2.613c0.788,0.666,1.705,1.147,2.748,1.441c1.043,0.295,2.136,0.442,3.279,0.442
		c1.142,0,2.233-0.143,3.271-0.428c1.039-0.285,1.952-0.758,2.742-1.414c0.79-0.658,1.418-1.527,1.884-2.605
		c0.468-1.08,0.701-2.414,0.701-4.001V1.034c0-0.154-0.059-0.292-0.176-0.414c-0.119-0.124-0.282-0.184-0.49-0.184h-3.974
		c-0.19,0-0.343,0.059-0.455,0.176c-0.114,0.119-0.17,0.26-0.17,0.422v11.547c0,0.599-0.089,1.131-0.266,1.594
		c-0.178,0.463-0.419,0.852-0.723,1.164c-0.304,0.314-0.658,0.55-1.062,0.709c-0.404,0.159-0.834,0.238-1.289,0.238
		c-0.436,0-0.856-0.068-1.261-0.205c-0.404-0.135-0.76-0.35-1.064-0.645c-0.304-0.295-0.549-0.677-0.736-1.145
		c-0.186-0.468-0.279-1.037-0.279-1.709V1.034z M99.414,7.953c-0.09,0.278-0.222,0.526-0.395,0.748
		c-0.173,0.222-0.385,0.408-0.639,0.558c-0.254,0.149-0.541,0.243-0.858,0.279c-0.154,0.017-0.295,0.032-0.422,0.04
		c-0.127,0.01-0.271,0.014-0.434,0.014h-2.504V4.599h1.878c0.263,0,0.506,0.006,0.728,0.021c0.222,0.014,0.46,0.03,0.715,0.048
		c0.308,0.046,0.588,0.146,0.844,0.3c0.254,0.154,0.471,0.344,0.652,0.571C99.161,5.764,99.3,6.013,99.4,6.286
		c0.1,0.273,0.151,0.544,0.151,0.817C99.551,7.393,99.505,7.677,99.414,7.953 M88.898,20.055c0,0.2,0.054,0.347,0.163,0.442
		c0.108,0.095,0.254,0.143,0.434,0.143h4.041c0.417,0,0.626-0.195,0.626-0.585v-6.137h2.204l3.306,6.218
		c0.036,0.155,0.116,0.278,0.238,0.368c0.122,0.09,0.26,0.136,0.415,0.136h4.667c0.163,0,0.292-0.038,0.387-0.116
		s0.143-0.189,0.143-0.333c0-0.127-0.049-0.278-0.149-0.449c-0.1-0.173-0.182-0.322-0.246-0.45l-3.497-6.584
		c0.49-0.282,0.942-0.62,1.354-1.013c0.412-0.395,0.769-0.836,1.069-1.321c0.298-0.485,0.533-1.007,0.701-1.564
		c0.167-0.558,0.251-1.145,0.251-1.763c0-0.905-0.174-1.762-0.523-2.564c-0.349-0.802-0.828-1.503-1.435-2.101
		c-0.609-0.599-1.319-1.074-2.136-1.422c-0.817-0.349-1.692-0.523-2.626-0.523h-8.79c-0.2,0-0.349,0.056-0.449,0.17
		c-0.1,0.114-0.149,0.265-0.149,0.455V20.055z M70.462,4.41c0,0.227,0.062,0.398,0.184,0.515c0.122,0.119,0.274,0.178,0.455,0.178
		h4.681V20c0,0.182,0.068,0.335,0.203,0.457c0.136,0.122,0.281,0.184,0.435,0.184h3.99c0.19,0,0.344-0.067,0.461-0.198
		c0.117-0.132,0.176-0.279,0.176-0.442V5.103h4.694c0.209,0,0.369-0.075,0.484-0.225c0.113-0.149,0.17-0.304,0.17-0.468V1.032
		c-0.017-0.198-0.09-0.347-0.217-0.447c-0.127-0.1-0.273-0.149-0.436-0.149h-14.64c-0.181,0-0.333,0.054-0.455,0.162
		c-0.122,0.109-0.184,0.254-0.184,0.434V4.41z M65.898,0.591c-0.966-0.303-1.993-0.455-3.083-0.455
		c-0.961,0-1.884,0.125-2.769,0.374c-0.883,0.249-1.711,0.598-2.482,1.048c-0.772,0.449-1.473,0.991-2.103,1.625
		c-0.631,0.634-1.172,1.34-1.625,2.115c-0.454,0.775-0.804,1.605-1.048,2.49s-0.368,1.808-0.368,2.769s0.124,1.884,0.368,2.769
		s0.595,1.709,1.048,2.477c0.454,0.766,0.994,1.464,1.625,2.095c0.63,0.631,1.33,1.172,2.103,1.625
		c0.771,0.454,1.598,0.802,2.482,1.048c0.885,0.244,1.808,0.368,2.769,0.368c1.089,0,2.125-0.157,3.11-0.469
		c0.983-0.314,1.903-0.756,2.754-1.327c0.154-0.09,0.268-0.205,0.341-0.339c0.073-0.136,0.059-0.304-0.041-0.504l-2.326-3.348
		c-0.109-0.144-0.217-0.227-0.327-0.244c-0.109-0.017-0.244,0.022-0.408,0.122c-0.446,0.336-0.939,0.596-1.484,0.783
		c-0.544,0.186-1.115,0.278-1.714,0.278c-0.744,0-1.429-0.14-2.054-0.422c-0.626-0.281-1.166-0.664-1.619-1.15
		c-0.454-0.484-0.807-1.051-1.061-1.7c-0.255-0.649-0.382-1.345-0.382-2.088c0-0.744,0.127-1.443,0.382-2.095
		c0.254-0.653,0.607-1.226,1.061-1.714c0.454-0.49,0.993-0.875,1.619-1.158c0.625-0.281,1.31-0.422,2.054-0.422
		c0.599,0,1.166,0.092,1.702,0.273c0.534,0.181,1.024,0.439,1.468,0.775c0.163,0.1,0.303,0.138,0.415,0.116
		c0.114-0.022,0.22-0.111,0.32-0.265l2.299-3.267c0.1-0.198,0.113-0.371,0.04-0.517c-0.071-0.144-0.186-0.262-0.339-0.354
		C67.772,1.334,66.863,0.896,65.898,0.591 M35.659,20.055c0,0.2,0.054,0.347,0.163,0.442c0.108,0.095,0.254,0.143,0.434,0.143
		h13.756c0.335,0,0.522-0.127,0.558-0.381c0.071-0.071,0.108-0.154,0.108-0.244v-3.419c0-0.415-0.203-0.623-0.612-0.623h-9.142
		v-3.484h6.816c0.19,0,0.336-0.059,0.436-0.176c0.1-0.117,0.149-0.241,0.149-0.368V9.007c0-0.19-0.057-0.327-0.17-0.408
		c-0.114-0.082-0.257-0.124-0.428-0.124h-6.803V5.103h8.815c0.209,0,0.368-0.071,0.477-0.211c0.108-0.14,0.163-0.287,0.163-0.441
		V1.086c0-0.198-0.056-0.357-0.163-0.474c-0.109-0.117-0.263-0.176-0.463-0.176H36.257c-0.19,0-0.338,0.056-0.441,0.17
		c-0.105,0.114-0.157,0.265-0.157,0.455V20.055z M28.047,7.864c-0.095,0.273-0.232,0.514-0.409,0.722
		c-0.176,0.209-0.396,0.379-0.66,0.511c-0.263,0.132-0.557,0.197-0.883,0.197h-2.884V4.748h2.884c0.327,0,0.618,0.068,0.877,0.205
		c0.258,0.136,0.479,0.311,0.66,0.525c0.182,0.212,0.32,0.455,0.415,0.728c0.095,0.271,0.143,0.544,0.143,0.815
		C28.19,7.31,28.142,7.593,28.047,7.864 M17.944,20.055c0,0.2,0.056,0.347,0.163,0.442c0.109,0.095,0.254,0.143,0.436,0.143h4.041
		c0.417,0,0.626-0.195,0.626-0.585v-6.476h4.121c0.926-0.01,1.77-0.201,2.531-0.579c0.763-0.376,1.416-0.867,1.96-1.476
		c0.544-0.607,0.963-1.3,1.258-2.081c0.295-0.78,0.442-1.579,0.442-2.396c0-0.552-0.068-1.099-0.203-1.638
		c-0.136-0.541-0.335-1.055-0.593-1.545c-0.258-0.49-0.574-0.945-0.945-1.367c-0.373-0.422-0.79-0.785-1.251-1.089
		c-0.463-0.303-0.97-0.542-1.524-0.714c-0.553-0.173-1.143-0.258-1.77-0.258h-8.693c-0.2,0-0.349,0.056-0.449,0.17
		c-0.1,0.114-0.151,0.265-0.151,0.455V20.055z M3.387,13.864c-0.09-0.054-0.178-0.081-0.258-0.081c-0.117,0-0.273,0.067-0.463,0.203
		l-2.353,2.245C0.103,16.422,0,16.595,0,16.75c0,0.136,0.103,0.319,0.312,0.546c0.01,0.01,0.017,0.016,0.027,0.021
		c0.01,0.005,0.019,0.016,0.027,0.033c0.01,0.01,0.019,0.017,0.027,0.021c0.01,0.005,0.019,0.017,0.029,0.035l0.04,0.041
		c0.146,0.154,0.343,0.358,0.593,0.614c0.249,0.255,0.555,0.514,0.918,0.777c0.871,0.628,1.809,1.129,2.816,1.502
		c1.007,0.373,2.031,0.56,3.075,0.56c1.107,0,2.141-0.157,3.102-0.469c0.961-0.314,1.798-0.755,2.51-1.327
		c0.712-0.571,1.272-1.262,1.681-2.074c0.408-0.812,0.612-1.717,0.612-2.715c0-0.944-0.167-1.746-0.496-2.407
		c-0.331-0.663-0.793-1.232-1.381-1.708c-0.59-0.477-1.291-0.89-2.103-1.238c-0.812-0.349-1.698-0.682-2.659-1.001
		c-0.5-0.163-0.937-0.314-1.313-0.455C7.439,7.363,7.125,7.214,6.87,7.055C6.616,6.896,6.425,6.724,6.299,6.538
		c-0.127-0.186-0.19-0.406-0.19-0.66c0-0.254,0.059-0.469,0.178-0.647c0.117-0.176,0.276-0.32,0.476-0.428
		c0.2-0.109,0.43-0.189,0.693-0.238C7.718,4.515,8,4.489,8.298,4.489c0.29,0,0.576,0.044,0.858,0.13
		c0.281,0.086,0.549,0.195,0.802,0.327c0.254,0.132,0.492,0.279,0.715,0.442c0.222,0.163,0.423,0.322,0.604,0.476l0.124,0.109
		c0.127,0.108,0.241,0.2,0.346,0.271c0.105,0.073,0.22,0.109,0.347,0.109c0.154,0,0.309-0.078,0.463-0.232l2.082-2.217
		c0.117-0.127,0.206-0.241,0.265-0.341c0.059-0.1,0.089-0.208,0.089-0.327c0-0.117-0.062-0.258-0.184-0.422
		c-0.122-0.163-0.289-0.335-0.496-0.517c-0.209-0.181-0.452-0.369-0.728-0.565c-0.278-0.195-0.569-0.384-0.879-0.565
		c-0.734-0.408-1.481-0.706-2.238-0.891C9.711,0.094,8.92,0,8.095,0c-1.099,0-2.092,0.133-2.98,0.401
		c-0.89,0.268-1.649,0.645-2.279,1.135C2.206,2.025,1.721,2.615,1.38,3.303C1.04,3.993,0.871,4.759,0.871,5.601
		c0,0.798,0.136,1.521,0.408,2.168c0.273,0.649,0.68,1.243,1.224,1.782c0.546,0.538,1.224,1.028,2.041,1.467
		c0.817,0.441,1.77,0.85,2.858,1.231c0.246,0.082,0.534,0.184,0.871,0.306c0.336,0.122,0.658,0.27,0.966,0.442
		c0.309,0.171,0.569,0.369,0.783,0.591c0.212,0.222,0.319,0.473,0.319,0.753c0,0.254-0.038,0.495-0.116,0.722
		c-0.076,0.227-0.206,0.425-0.387,0.598c-0.182,0.171-0.428,0.311-0.742,0.414c-0.312,0.105-0.701,0.157-1.162,0.157
		c-0.5,0-0.975-0.086-1.429-0.258C6.05,15.8,5.591,15.561,5.128,15.252c-0.308-0.208-0.582-0.419-0.823-0.633
		c-0.239-0.212-0.438-0.382-0.591-0.511C3.587,14.001,3.478,13.918,3.387,13.864"/>
</g>
<g id="Laag_1">
</g>
</svg>
