<!-- Generated by IcoMoon.io -->
<svg version="1.1" xmlns="http://www.w3.org/2000/svg" width="64" height="64" viewBox="0 0 64 64">
<title>add-user</title>
<path d="M31.98 64c-17.673 0-32-14.327-32-32s14.327-32 32-32c17.659 0 31.977 14.304 32 31.958 0 0.002 0 0.002 0 0.002 0 17.681-14.322 32.017-31.998 32.040zM31.98 2.27c-16.411 0.011-29.71 13.318-29.71 29.73 0 16.419 13.311 29.73 29.73 29.73s29.73-13.311 29.73-29.73c0-0.014 0-0.028 0-0.042-0.045-16.398-13.345-29.677-29.749-29.688z"></path>
<path d="M39.945 37.934v0l-1.991-0.956c-1-0.207-1.741-1.081-1.741-2.128 0-0.543 0.199-1.039 0.529-1.42 1.431-1.989 1.989-4.418 3.502-6.31 0.564-0.697 0.906-1.594 0.906-2.572 0-0.302-0.033-0.597-0.095-0.881-0.173-1.371-0.274-2.989-0.274-4.631 0-0.064 0-0.127 0-0.191-0.062-2.536-1.016-4.847-2.56-6.635-1.98-2.217-9.726-2.396-11.777 0.014-1.39 1.555-2.301 3.563-2.487 5.778-0.002 0.085-0.002 0.143-0.002 0.201 0 2.047-0.116 4.067-0.341 6.053-0.014-0.058-0.035 0.154-0.035 0.372 0 0.779 0.269 1.495 0.72 2.060 1.568 1.985 1.986 4.633 3.699 6.624 0.265 0.36 0.424 0.812 0.424 1.301 0 0.936-0.582 1.737-1.404 2.059-0.951 0.483-2.006 0.782-2.942 1.18-3.473 1.333-6.414 3.371-8.765 5.956-0.577 0.693-1.086 1.45-1.515 2.256-0.090 0.202-0.122 0.354-0.122 0.513 0 0.527 0.353 0.972 0.836 1.11 0.745 0.201 1.541 0.201 2.318 0.201h22.721c-0.956-1.309-1.529-2.95-1.529-4.725 0-2.002 0.729-3.833 1.936-5.243z"></path>
<path d="M46.059 36.162c3.877 0.007 7.017 3.151 7.017 7.029 0 3.882-3.147 7.029-7.029 7.029s-7.029-3.147-7.029-7.029c0-1.8 0.677-3.443 1.79-4.686 1.287-1.438 3.157-2.343 5.239-2.343 0.004 0 0.008 0 0.012 0zM51.475 42.355c0-0.473-0.383-0.856-0.856-0.856h-2.947v-2.927c0-0.473-0.383-0.856-0.856-0.856h-1.673c-0.473 0-0.856 0.383-0.856 0.856v2.947h-2.907c-0.473 0-0.856 0.383-0.856 0.856v1.653c0 0.473 0.383 0.856 0.856 0.856h2.947v3.007c0 0.473 0.383 0.856 0.856 0.856h1.653c0.473 0 0.856-0.383 0.856-0.856v-3.007h2.947c0.468-0.007 0.845-0.387 0.845-0.856 0-0.042-0.003-0.084-0.009-0.124l0.001-1.549z"></path>
</svg>
