<!-- Generated by IcoMoon.io -->
<svg version="1.1" xmlns="http://www.w3.org/2000/svg" width="64" height="64" viewBox="0 0 64 64">
<title>add</title>
<path d="M64 27.159c0-2.756-2.242-4.994-4.994-4.994h-17.171v-17.171c0-2.752-2.238-4.992-4.992-4.992h-9.683c-2.756 0-4.996 2.24-4.996 4.992v17.171h-17.171c-2.752 0-4.994 2.24-4.994 4.994v9.687c0 2.752 2.242 4.992 4.994 4.992h17.169v17.169c0 2.754 2.242 4.994 4.996 4.994h9.683c2.754 0 4.992-2.24 4.992-4.994v-17.169h17.171c2.752 0 4.994-2.238 4.994-4.992v-9.687z"></path>
</svg>
