<!-- Generated by IcoMoon.io -->
<svg version="1.1" xmlns="http://www.w3.org/2000/svg" width="64" height="64" viewBox="0 0 64 64">
<title>alert</title>
<path d="M49.904 38.161c-0.806-1.413-1.704-2.635-2.724-3.742-1.981-2.279-3.855-6.147-4.772-12.985-0.222-1.652-0.765-3.141-1.564-4.457-0.825-1.4-2.056-2.547-3.531-3.277l-0.049-0.022c-0.518-0.248-1.139-0.485-1.782-0.675-0.092-0.123-0.092-1-0.092-1.399-0.048-0.499-0.205-0.953-0.447-1.35-0.244-0.347-0.581-0.632-0.974-0.817-0.433-0.245-0.934-0.386-1.467-0.386-0.015 0-0.030 0-0.045 0h-0.975c-0.013-0-0.028-0-0.043-0-0.534 0-1.034 0.141-1.467 0.387-0.346 0.199-0.641 0.481-0.857 0.82-0.24 0.393-0.396 0.847-0.444 1.333-0.001 0.392-0.001 1.289-0.001 1.389-0.735 0.213-1.357 0.45-1.954 0.732l0.079-0.034c-1.524 0.751-2.755 1.899-3.587 3.31-0.791 1.305-1.333 2.793-1.55 4.386-0.924 6.898-2.838 10.766-4.792 13.059-1.008 1.093-1.906 2.315-2.66 3.63-0.848 1.726-1.382 3.623-1.543 5.625-0.004 1.192 0.375 1.711 3.685 2.409 4.659 1.039 10.038 1.674 15.552 1.754l0.060 0.001c5.574-0.081 10.952-0.716 16.144-1.852 2.777-0.6 3.116-1.099 3.156-2.255-0.117-2.045-0.605-3.947-1.396-5.682z"></path>
<path d="M32.299 50.901h-0.339c-1.854 0-3.689 0-5.463-0.239 0.637 2.482 2.854 4.287 5.493 4.287s4.856-1.805 5.484-4.248c-1.686 0.1-3.52 0.18-5.175 0.2z"></path>
<path d="M31.96 64c-17.656-0.023-31.96-14.341-31.96-32 0-17.673 14.327-32 32-32s32 14.327 32 32c-0.023 17.678-14.359 32-32.040 32 0 0 0 0 0 0zM31.96 2.193c-16.517 0-29.906 13.39-29.906 29.907s13.39 29.907 29.907 29.907c16.517 0 29.907-13.39 29.907-29.907 0-0.035-0-0.070-0-0.105-0.057-16.469-13.425-29.801-29.906-29.801-0 0-0 0-0 0z"></path>
</svg>
