<!-- Generated by IcoMoon.io -->
<svg version="1.1" xmlns="http://www.w3.org/2000/svg" width="64" height="64" viewBox="0 0 64 64">
<title>algebrakit</title>
<path d="M57.558 30.961c0-1.247 0.416-1.87 1.455-2.494 1.662-1.039 3.325-2.078 5.195-3.325-0.416-1.87-1.039-3.74-1.87-5.61-2.909 0-5.61 0-8.104 0-1.039-0.831-1.247-2.078-2.078-2.701-0.831-0.831-0.831-1.87-0.416-2.909 0.623-1.87 1.247-3.74 2.078-5.818-1.662-1.455-3.117-2.701-4.987-3.532-1.247 0.831-2.286 1.662-3.325 2.494-3.74 2.701-2.286 2.286-6.649 1.039-0.831-0.208-1.247-0.623-1.455-1.247-0.623-1.87-1.039-3.74-1.662-5.61 0-0.416-0.208-1.039-0.831-1.247-1.87 0-3.74 0-5.61 0-1.247 2.494-1.662 5.195-2.701 7.688-1.662 0.416-3.117 1.039-4.779 1.455-2.078-1.247-3.74-2.701-5.61-4.156-0.416-0.416-1.039-0.831-1.455-0.416-1.662 1.039-3.325 1.87-4.571 3.532 1.039 2.286 1.87 4.571 2.701 7.065-0.831 1.662-2.078 2.909-3.117 4.364-2.701 0.208-5.403-0.208-8.312 0-0.208 2.078-1.455 3.532-1.247 5.403 1.662 1.247 3.532 2.494 5.195 3.74 0.831 0.623 1.247 1.455 1.247 2.494s0 2.078 0 3.117c-2.286 1.455-4.364 2.909-6.649 4.364 0.208 2.078 0.831 3.948 1.87 5.61 2.701 0 5.403 0 7.896 0 1.039 1.247 1.87 2.701 2.701 3.948-0.623 2.701-2.078 4.987-2.493 7.688 1.662 1.247 3.117 2.493 4.987 3.325 2.078-1.455 4.156-3.117 6.234-4.571 1.662 0.623 3.117 1.039 4.571 1.455 1.039 1.662 1.247 3.532 1.87 5.195 1.039 2.701 0.416 2.701 3.532 2.701 0.623 0 1.455 0 2.078 0s1.039 0 1.662-0.623c0.416-1.87 1.039-3.74 1.662-5.818 0.208-0.623 0.416-1.247 1.039-1.455 1.455-0.623 2.909-1.039 4.364-1.455 2.286 1.662 4.364 3.325 6.649 4.987 1.662-1.247 3.532-2.078 4.779-3.532-0.623-2.701-2.078-4.987-2.493-7.688 1.039-1.039 1.662-1.87 2.493-3.117 0.623-1.039 1.247-1.247 2.286-1.247s2.078 0 3.117 0c1.039 0.208 2.286 0.208 3.532 0 0.623-1.662 1.247-3.325 1.87-5.195-1.87-1.662-4.156-2.909-6.234-4.364-0.623-1.039-0.208-2.286-0.416-3.532zM23.065 44.26c-1.039 0.416-1.455 0-1.662-0.623-1.039-1.662-1.662-3.532-1.87-5.403-1.039-7.065 1.247-12.883 6.026-18.078 0.416-0.416 1.039-0.831 1.87-0.208-5.818 7.48-8.104 15.377-4.364 24.312zM32.831 43.221h-6.026l2.286-12.883h5.61l-1.87 12.883zM33.039 28.883c-2.286-0.208-4.156-1.87-4.156-4.156s1.87-4.156 3.948-4.156c2.286 0 4.156 1.87 4.156 4.364 0 2.286-1.662 3.74-3.948 3.948zM39.48 42.39c-0.416 0.416-0.831 1.039-1.247 1.455 0 0.208-0.208 0.416-0.416 0.623-0.623 0-1.039 0.208-1.455-0.416 6.026-7.065 8.104-15.169 4.571-24.104 0.831-0.416 1.247 0 1.662 0.623 1.247 1.87 1.662 3.948 1.87 6.026 0.623 6.026-1.039 11.221-4.987 15.792z"></path>
</svg>
