<!-- Generated by IcoMoon.io -->
<svg version="1.1" xmlns="http://www.w3.org/2000/svg" width="64" height="64" viewBox="0 0 64 64">
<title>archive</title>
<path d="M63.626 35.446c-0.483-0.7-1.212-0.82-1.986-0.82-3.698-0.002-7.395 0-11.091-0.002-0.18 0-0.357-0.017-0.557-0.027 0-1.765-0.008-3.468 0.004-5.172 0.006-0.704-0.151-1.358-0.524-1.945-0.576-0.904-1.406-1.418-2.533-1.579 0 0.254 0 0.438 0 0.623-0.002 2.471-0.002 4.94-0.006 7.412 0 0.69-0.002 0.692-0.696 0.692-8.365 0-16.731 0.010-25.096-0.010-1.187-0.002-2.126 0.405-2.843 1.323-0.301 0.386-0.564 0.813-0.782 1.253-1.524 3.062-3.033 6.132-4.546 9.197-1.937 3.923-3.869 7.845-5.822 11.757-0.080 0.163-0.343 0.312-0.533 0.328-0.541 0.043-1.090 0.019-1.635 0.014-1.239-0.006-1.914-0.681-1.914-1.93-0.002-10.818-0.004-21.638-0.002-32.456 0-1.266 0.654-1.912 1.926-1.916 0.623-0.002 1.247 0 1.897 0 0-1.057 0-2.036 0-3.045-1.187 0-2.343-0.019-3.497 0.006-0.813 0.019-1.509 0.365-2.131 0.877-0.694 0.572-0.995 1.361-1.259 2.174 0 12.131 0 24.264 0 36.395 0.242 0.502 0.419 1.047 0.737 1.495 0.758 1.074 1.868 1.466 3.152 1.466 4.804-0.004 9.61-0.002 14.414-0.004 10.036-0.002 20.071-0.014 30.109 0 1.837 0.002 3.134-0.844 3.968-2.395 2.079-3.867 4.106-7.761 6.16-11.64 1.6-3.022 3.208-6.039 4.804-9.063 0.244-0.462 0.438-0.954 0.654-1.431 0-0.308 0-0.613 0-0.921-0.124-0.219-0.231-0.452-0.374-0.659z"></path>
<path d="M9.115 48.103c0.064 0.217 0.246 0.398 0.44 0.696 0.607-1.226 1.173-2.31 1.678-3.421 0.169-0.372 0.262-0.811 0.262-1.22 0.014-13.101 0.010-26.203 0.012-39.304 0-0.82 0.089-0.919 0.842-0.919 7.052-0.002 14.107-0.002 21.159 0 0.842 0 0.981 0.147 0.983 0.985 0.002 1.943-0.006 3.885 0.002 5.826 0.004 1.162 0.473 1.631 1.598 1.631 1.687 0 3.373 0 5.060 0 0.95 0 1.074 0.128 1.074 1.1 0 6.167 0 12.335 0 18.502 0 0.217 0 0.434 0 0.683 0.834 0 1.608 0 2.432 0 0.019-0.126 0.041-0.209 0.041-0.293 0.002-7.036 0.010-14.072-0.021-21.11-0.002-0.413-0.225-0.912-0.508-1.226-2.36-2.616-4.765-5.188-7.135-7.796-0.512-0.564-1.086-0.799-1.84-0.799-7.614 0.019-15.23 0.012-22.846 0.014-2.145 0-3.34 1.21-3.34 3.371 0 14.123 0 28.247 0.004 42.37 0 0.306 0.017 0.621 0.101 0.908z"></path>
<path d="M37.925 17.98c0.188 0 0.376 0.006 0.562-0.021 1.204-0.178 1.745-1.449 1.036-2.428-0.355-0.491-0.865-0.607-1.439-0.605-3.731 0.006-7.461 0.004-11.192 0.002-3.662 0-7.325 0-10.987 0-0.221 0-0.446-0.012-0.663 0.017-0.586 0.078-1.018 0.396-1.23 0.946-0.221 0.568-0.124 1.111 0.301 1.565 0.4 0.429 0.912 0.533 1.486 0.533 7.374-0.010 14.751-0.006 22.125-0.008z"></path>
<path d="M37.878 26.866c0.221 0 0.446 0.008 0.663-0.023 1.156-0.167 1.681-1.414 1.005-2.362-0.376-0.529-0.904-0.661-1.515-0.661-7.426 0.006-14.852 0.002-22.276 0.004-0.169 0-0.343-0.002-0.51 0.021-1.189 0.163-1.745 1.511-0.997 2.446 0.367 0.46 0.88 0.582 1.458 0.582 3.712-0.010 7.426-0.006 11.138-0.006 3.677-0.002 7.356-0.002 11.035-0.002z"></path>
<path d="M13.958 34.719c0.155 0.58 0.708 0.993 1.323 1.123 0.714 0.151 0.861-0.341 1.063-0.811 0.033-0.076 0.091-0.142 0.136-0.213 0.549-0.882 1.334-1.484 2.269-1.986-1.202 0-2.407-0.062-3.603 0.021-0.873 0.060-1.416 1.014-1.189 1.866z"></path>
</svg>
