<!-- Generated by IcoMoon.io -->
<svg version="1.1" xmlns="http://www.w3.org/2000/svg" width="67" height="64" viewBox="0 0 67 64">
<title>archive-box-lg</title>
<path d="M2.887 64c-1.925 0-2.887-0.962-2.887-2.887 0-13.955 0-27.429 0-41.383 0-0.962 0.481-1.925 0.962-2.887 4.331-5.293 8.662-10.586 12.511-15.88 0.481-0.481 1.444-0.962 1.925-0.962 7.218 0 14.436 0 22.135 0 9.143 0 18.286 0 27.429 0 1.925 0 2.406 0.962 2.406 2.406 0 9.624 0 18.767 0 28.391 0 2.406 0 4.812 0 7.699 0 0.481 0 1.444-0.481 1.925-4.331 7.699-8.662 15.398-12.992 23.098-0.481 0.481-0.962 0.962-1.925 0.962 0-0.481-49.083-0.481-49.083-0.481zM50.526 20.21c-15.88 0-31.278 0-47.158 0 0 13.474 0 26.947 0 40.421 15.88 0 31.278 0 47.158 0 0-13.474 0-26.947 0-40.421zM64 6.737v0c-0.481 0-0.481 0 0 0-3.368 3.85-6.737 7.699-9.624 11.068 0 0-0.481 0.481-0.481 0.962 0 11.549 0 23.098 0 34.647 0 0.481 0 1.444 0 2.406 0-0.481 0.481-0.481 0.481-0.481 3.368-5.293 6.256-11.068 9.143-16.361 0-0.481 0.481-0.962 0.481-0.962 0-6.737 0-12.992 0-19.729 0-3.85 0-7.699 0-11.549zM50.045 16.842c0.481 0 0.481 0 0.962-0.481 1.925-2.406 11.068-12.992 11.068-12.992s-14.917 0-22.135 0c-0.481 0-0.481 0-0.962 0.481-2.887 3.85-11.068 12.992-11.068 12.992h22.135zM35.128 3.368c0 0-12.511 0-18.767 0-0.481 0-0.481 0-0.962 0.481-2.887 4.331-10.105 12.992-10.105 12.992s12.030 0 17.805 0c0.481 0 0.962 0 0.962-0.481 1.925-1.925 11.068-12.992 11.068-12.992z"></path>
<path d="M26.947 30.316c1.925 0 4.331 0 6.256 0 1.444 0 1.925 0.481 1.925 1.925 0 0.962-0.481 1.444-1.925 1.444-4.331 0-8.18 0-12.511 0-1.444 0-2.406-0.481-1.925-1.444 0-0.962 0.962-1.444 1.925-1.444 1.925-0.481 4.331-0.481 6.256-0.481z"></path>
</svg>
