<!-- Generated by IcoMoon.io -->
<svg version="1.1" xmlns="http://www.w3.org/2000/svg" width="64" height="64" viewBox="0 0 64 64">
<title>archive-box</title>
<path d="M16.193 47.55c-0.9 0-1.414-0.514-1.414-1.414 0-6.94 0-13.623 0-20.562 0-0.514 0.129-1.028 0.514-1.414 2.056-2.57 4.112-5.141 6.169-7.711 0.257-0.386 0.643-0.514 1.028-0.514 3.598 0 7.197 0 10.795 0 4.498 0 8.996 0 13.494 0 1.028 0 1.285 0.386 1.285 1.285 0 4.627 0 9.253 0 13.88 0 1.285 0 2.442 0 3.727 0 0.257-0.129 0.643-0.257 0.9-2.185 3.727-4.37 7.582-6.426 11.309-0.257 0.386-0.514 0.514-0.9 0.514h-24.289zM39.711 25.96c-7.839 0-15.55 0-23.261 0 0 6.683 0 13.237 0 19.92 7.711 0 15.55 0 23.261 0 0-6.683 0-13.365 0-19.92zM46.394 19.149c0 0-0.129 0 0 0-0.129 0-0.129 0-0.257 0.128-1.542 1.799-3.084 3.598-4.627 5.526-0.129 0.128-0.129 0.257-0.129 0.514 0 5.783 0 11.438 0 17.221 0 0.386 0 0.643 0 1.157 0.129-0.129 0.129-0.257 0.257-0.386 1.542-2.699 3.084-5.398 4.627-8.096 0.129-0.129 0.129-0.386 0.129-0.514 0-3.213 0-6.426 0-9.639 0-2.185 0-3.984 0-5.912zM39.582 24.161c0.129 0 0.386-0.128 0.386-0.257 0.9-1.157 5.398-6.426 5.398-6.426s-7.325 0-10.795 0c-0.129 0-0.386 0.128-0.386 0.257-1.542 1.799-5.526 6.426-5.526 6.426h10.924zM32.129 17.606c0 0-6.169 0-9.253 0-0.128 0-0.386 0.128-0.386 0.257-1.671 2.056-5.141 6.426-5.141 6.426s5.912 0 8.867 0c0.128 0 0.257-0.128 0.386-0.257 0.9-1.028 5.526-6.426 5.526-6.426z"></path>
<path d="M28.145 30.843c1.028 0 2.056 0 3.213 0 0.643 0 1.028 0.386 1.028 0.9s-0.386 0.771-1.028 0.771c-2.056 0-4.241 0-6.297 0-0.643 0-1.028-0.386-1.028-0.9s0.386-0.771 1.028-0.771c0.9 0 1.928 0 3.084 0z"></path>
<path d="M32 64c-17.606 0-32-14.394-32-32s14.394-32 32-32 32 14.394 32 32-14.394 32-32 32zM32 1.542c-16.835 0-30.458 13.623-30.458 30.458s13.623 30.458 30.458 30.458 30.458-13.623 30.458-30.458-13.623-30.458-30.458-30.458z"></path>
</svg>
