<!-- Generated by IcoMoon.io -->
<svg version="1.1" xmlns="http://www.w3.org/2000/svg" width="64" height="64" viewBox="0 0 64 64">
<title>at-sign</title>
<path d="M47.144 60.699c-4.728 2.103-10.243 3.327-16.045 3.327-0.512 0-1.021-0.010-1.528-0.028-15.704 0.002-29.571-10.938-29.571-29.060-0.001-0.109-0.002-0.238-0.002-0.367 0-19.101 15.484-34.584 34.584-34.584 0.344 0 0.686 0.005 1.028 0.015 16.765-0.001 28.743 11.126 28.743 26.591 0 13.535-7.785 21.984-18.060 21.984-0.226 0.024-0.488 0.038-0.754 0.038-3.994 0-7.252-3.15-7.425-7.102l-0.187-0.016c-2.548 4.266-7.142 7.079-12.392 7.079-0.022 0-0.044-0-0.067-0-6.079 0-10.646-4.505-10.646-12.061 0-11.314 8.656-21.423 22.337-21.423 0.050-0 0.11-0.001 0.169-0.001 4.021 0 7.852 0.817 11.335 2.293l-3.034 17.034c-0.851 5.418-0.187 7.971 2.47 7.971 4.152 0.187 9.217-4.878 9.217-15.549 0-12.040-7.992-21.236-22.71-21.236s-27.277 10.961-27.277 28.627c0 15.445 10.089 24.080 24.247 24.080 0.104 0.001 0.226 0.002 0.349 0.002 4.899 0 9.554-1.048 13.752-2.931zM38.695 22.71c-0.88-0.223-1.894-0.358-2.938-0.374-6.238-0-11.22 5.979-11.22 13.057 0 3.487 1.619 5.709 4.754 5.709 3.508 0 7.224-4.318 8.075-9.653z"></path>
</svg>
