<!-- Generated by IcoMoon.io -->
<svg version="1.1" xmlns="http://www.w3.org/2000/svg" width="64" height="64" viewBox="0 0 64 64">
<title>balance</title>
<path d="M31.98 64c-17.665-0.011-31.98-14.334-31.98-32 0-17.673 14.327-32 32-32s32 14.327 32 32c-0.023 17.671-14.347 31.989-32.019 32zM31.98 2.193c-16.517 0-29.906 13.39-29.906 29.907s13.39 29.907 29.907 29.907c16.517 0 29.907-13.39 29.907-29.907 0-0.035-0-0.070-0-0.105-0.057-16.469-13.425-29.801-29.906-29.801-0 0-0 0-0 0z"></path>
<path d="M54.37 39.217h-0.698l-6.181-11.963 1.396 0.439c0.066 0.023 0.143 0.037 0.223 0.037 0.298 0 0.553-0.187 0.653-0.45 0.023-0.068 0.036-0.141 0.036-0.217 0-0.263-0.15-0.491-0.369-0.604-4.143-2.178-8.941-3.927-13.99-5-0.591-0.529-1.057-0.843-1.596-0.843-0.003 0-0.007 0-0.010 0h-0.338v-3.15c0.958-0.537 1.595-1.547 1.595-2.705 0-0.016-0-0.033-0-0.049-0.033-1.694-1.411-3.057-3.109-3.068-1.665 0.068-2.988 1.434-2.988 3.108 0 1.16 0.635 2.171 1.576 2.706l0.015 3.098h-0.419c-0.003 0-0.006-0-0.010-0-0.539 0-1.004 0.314-1.223 0.769-5.421 1.147-10.22 2.895-14.67 5.22 0.088-0.034-0.062 0.194-0.062 0.457 0 0.076 0.012 0.149 0.035 0.217 0.1 0.263 0.355 0.451 0.653 0.451 0.080 0 0.156-0.013 0.228-0.038l1.391-0.437-6.181 11.963h-0.718s0 0.12 0 0.199c0 4.228 3.428 7.656 7.656 7.656s7.656-3.428 7.656-7.656 0-0.12 0-0.199h-0.698l-6.38-12.421c3.22-0.911 6.972-1.551 10.833-1.787 0.287 0.612 0.83 1.069 1.48 1.069 0.003 0 0.006 0 0.010-0h0.319v19.22h-0.638c-0.517 0-0.937 0.42-0.937 0.937 0 0.793-0.643 1.435-1.436 1.435h-0.937c-0.003 0-0.007 0-0.011 0-0.978 0-1.822 0.573-2.216 1.401-0.856 0.079-1.522 0.785-1.522 1.645 0 0.002 0 0.003 0 0.005 0.022 0.896 0.754 1.615 1.654 1.615 0.007 0 0.014-0 0.021-0h15.092c0.006 0 0.013 0 0.020 0 0.9 0 1.632-0.718 1.654-1.613 0-0.003 0-0.005 0-0.006 0-0.861-0.665-1.566-1.51-1.63-0.406-0.843-1.25-1.416-2.228-1.416-0.004 0-0.007 0-0.011 0h-0.956c-0.793 0-1.435-0.643-1.435-1.435 0-0.517-0.42-0.937-0.937-0.937h-0.658v-19.22h0.319c0.003 0 0.006 0 0.009 0 0.65 0 1.193-0.457 1.325-1.068 4.015 0.234 7.767 0.873 11.368 1.876l-6.761 12.331h-0.698s0 0.12 0 0.199c0 4.228 3.428 7.656 7.656 7.656s7.656-3.428 7.656-7.656v-0.199zM23.526 39.217h-12.501l6.241-12.162zM40.493 39.217l6.24-12.162 6.24 12.162h-12.501z"></path>
</svg>
