<!-- Generated by IcoMoon.io -->
<svg version="1.1" xmlns="http://www.w3.org/2000/svg" width="64" height="64" viewBox="0 0 64 64">
<title>book</title>
<path d="M9.075 50.706c0.175 0.025 0.344 0.063 0.531 0.069 6.738 0.237 12.675 1.644 19.856 4.7 0.6 0.256 1.231 0.381 1.869 0.381 0.306 0 0.613-0.031 0.919-0.087 0.3 0.063 0.606 0.087 0.919 0.087 0.631 0 1.269-0.125 1.869-0.381 7.181-3.056 13.125-4.462 19.856-4.7 2.563-0.087 4.6-2.194 4.6-4.763v-31.725c0-0.219-0.038-0.438-0.069-0.65-0.069-1.412-0.644-1.8-0.644-1.8-0.212-0.344-0.45-0.675-0.744-0.963-0.888-0.863-2.081-1.344-3.313-1.344-0.050 0-0.1 0-0.15 0-6.244 0.194-13.106 0.756-22.325 5.019-9.219-4.269-16.081-4.825-22.325-5.019-0.050 0-0.1 0-0.15 0-1.238 0-2.425 0.481-3.319 1.344-0.925 0.894-1.45 2.131-1.45 3.419v31.725c0 1.619 0.806 3.044 2.044 3.906 0.55 0.444 2.025 0.781 2.025 0.781zM12.181 46.15c-0.806-0.063-1.606-0.106-2.406-0.131v0c0-10.531 0-21.031 0-31.725 6.5 0.2 12.875 0.85 21.675 5.156l-0.113 31.65c-6.294-2.681-11.5-4.044-16.438-4.669v0c-0.006-0.006-2.4-0.138-2.719-0.281zM54.719 17.094c0 9.725 0 19.319 0 28.919-6.563 0.231-13.063 1.462-21.556 5.075l-0.119-31.65c8.8-4.306 15.181-4.956 21.675-5.156v0c0 0.181 0 0.356 0 0.537v2.275z"></path>
</svg>
