<!-- Generated by IcoMoon.io -->
<svg version="1.1" xmlns="http://www.w3.org/2000/svg" width="64" height="64" viewBox="0 0 64 64">
<title>book-not</title>
<path d="M64 10.259l-1.086-1.472-4.135 3.045c-0.211-0.347-0.448-0.677-0.743-0.964-0.89-0.863-2.079-1.344-3.316-1.344-0.050 0-0.099 0-0.149 0.002-6.245 0.194-13.106 0.754-22.326 5.021-9.218-4.267-16.078-4.827-22.324-5.021-0.050-0.002-0.099-0.002-0.149-0.002-1.237 0-2.426 0.481-3.316 1.344-0.925 0.896-1.447 2.131-1.447 3.419v31.727c0 1.617 0.807 3.045 2.044 3.908l-7.054 5.196 1.086 1.472 7.992-5.886c0.175 0.027 0.347 0.064 0.528 0.070 6.737 0.235 12.676 1.641 19.859 4.699 0.599 0.254 1.233 0.38 1.866 0.38 0.308 0 0.615-0.029 0.917-0.089 0.301 0.060 0.609 0.089 0.917 0.089 0.632 0 1.268-0.126 1.866-0.38 7.182-3.058 13.122-4.461 19.859-4.699 2.564-0.089 4.598-2.195 4.598-4.761v-31.727c0-0.221-0.035-0.436-0.066-0.652l4.579-3.376zM54.72 14.286c0 0.18 0 0.355 0 0.535l-21.634 15.932-0.041-11.309c8.801-4.307 15.178-4.955 21.675-5.157zM9.773 46.016c0-10.531 0-21.029 0-31.727 6.497 0.202 12.874 0.851 21.675 5.155l-0.047 12.55-19.221 14.154c-0.803-0.060-1.604-0.105-2.407-0.132zM14.893 46.423l16.502-12.152-0.062 16.82c-6.297-2.68-11.497-4.044-16.44-4.668zM54.72 46.016c-6.563 0.229-13.064 1.462-21.558 5.077l-0.068-18.073 21.626-15.926c0 9.726 0 19.318 0 28.922z"></path>
</svg>
