<!-- Generated by IcoMoon.io -->
<svg version="1.1" xmlns="http://www.w3.org/2000/svg" width="64" height="64" viewBox="0 0 64 64">
<title>bundles</title>
<path d="M43.561 10.529c-7.226 0-14.452 0-21.677 0 0 3.097 0 5.987 0 9.084 7.226 0 14.452 0 21.677 0 0-3.097 0-5.987 0-9.084zM30.142 18.168c0-2.064 0-3.923 0-5.987 1.858 1.032 3.51 2.064 5.368 3.097-1.858 0.826-3.51 1.858-5.368 2.89z"></path>
<path d="M55.329 24.361c-0.826-0.413-1.239-0.413-2.065 0-3.303 1.858-6.4 3.716-9.703 5.368-0.826 0.413-1.652 0.619-2.477 0.619-6.194 0-12.387 0-18.581 0-2.271 0-3.716-1.652-5.574-2.684 0.619-0.206 1.032 0 1.445-0.206 0.413 0 0.619-0.206 1.032-0.413-0.206 0.206-0.619-0.206-0.826-0.206-2.684 0.413-4.955-0.619-7.019-2.064-0.413-0.206-0.826-0.619-1.239-0.826-0.206-0.206-0.619-0.206-1.032-0.206-3.097 2.064-6.194 3.716-9.29 5.574 0.619 0.413 1.032 0.619 1.239 0.826 5.987 3.303 11.974 6.606 17.961 10.116 1.239 0.826 2.271 0.826 3.51 0 2.477-1.652 5.161-2.89 7.845-4.542-2.271-1.239-4.335-2.477-6.4-3.716 0 0 0-0.206 0.206-0.206 5.161 0 10.323 0 15.69 0 0 0 0 0.206 0 0.206-2.065 1.239-4.129 2.271-6.4 3.716 3.097 1.652 5.781 3.303 8.671 4.955 0.826 0.413 1.239 0.413 2.065 0 6.194-3.51 12.594-7.019 18.994-10.529 0.206-0.206 0.619-0.413 1.032-0.619-3.303-2.064-6.194-3.51-9.084-5.161z"></path>
<path d="M19.819 41.91c-2.684-1.445-5.368-3.097-8.052-4.542-0.413-0.206-0.826-0.413-1.445-0.826 0 3.716 0 7.226 0 10.736 0 0.826 0.206 1.239 1.032 1.652 6.4 3.51 12.594 7.019 18.994 10.529 0.206 0.206 0.619 0.206 1.032 0.413 0-7.845 0-15.277 0-23.123-3.097 1.858-6.194 3.51-9.084 5.161-1.032 0.413-1.652 0.413-2.477 0z"></path>
<path d="M44.387 41.91c-0.826 0.619-1.652 0.413-2.477 0-2.89-1.652-5.987-3.303-9.084-5.161 0 7.845 0 15.484 0 23.123 0.206 0 0.413 0 0.413-0.206 6.606-3.716 13.213-7.432 19.819-11.148 0.413-0.206 0.619-0.826 0.619-1.239 0-3.303 0-6.606 0-10.116 0-0.206 0-0.413-0.206-0.826-3.097 2.065-6.194 3.716-9.084 5.574z"></path>
<path d="M33.239 8.464c0-1.239 0-2.477 0-3.716 5.781 0 11.561 0 17.342 0 0 2.477 0 4.748 0 7.226-1.445 0-3.097 0-4.542 0 0-1.032 0-2.064 0-2.684-2.271-1.239-4.129-2.271-6.194-3.303 0 0.826 0 1.652-0.206 2.684-2.271-0.206-4.336-0.206-6.4-0.206z"></path>
<path d="M12.387 10.942c0 3.51 0 6.813 0 10.116 0 1.032-1.032 1.445-1.858 1.032-3.097-1.652-5.987-3.303-9.084-4.955 3.716-2.064 7.226-3.923 10.942-6.194z"></path>
<path d="M52.439 11.355c3.51 1.858 6.813 3.716 10.323 5.781-3.097 1.858-6.194 3.51-9.29 5.161-0.206 0.206-1.032-0.206-1.032-0.413 0-3.51 0-6.813 0-10.529z"></path>
<path d="M14.039 12.594c1.858 0 3.51 0 5.368 0 0 2.064 0 4.335 0 6.4-1.858 0-3.51 0-5.368 0 0-2.064 0-4.129 0-6.4z"></path>
<path d="M27.458 8.671c-2.477 0-5.161 0-7.845 0 0 0.826 0 1.652-0.206 2.477-2.271 0-4.542 0-6.813 0 0.413-0.413 0.619-0.619 0.826-0.826 2.684-1.445 5.368-3.097 8.052-4.542 0.619-0.413 1.032-0.413 1.652 0 1.652 1.032 3.097 1.652 4.335 2.477 0 0.206 0 0.206 0 0.413z"></path>
<path d="M43.561 23.742c-7.226 0-14.452 0-21.677 0 0-0.413 0-0.619 0-1.032 0.206 0 0.206-0.206 0.413-0.206 6.813 0 13.626 0 20.439 0 0.826 0 1.032 0.413 0.826 1.239z"></path>
<path d="M21.677 28.697c0.206-0.206 0.619-0.826 0.826-0.826 6.606 0 13.213 0 19.819 0 0 0.413 0 0.826 0 1.239-6.813 0-13.626 0-20.439 0 0-0.206 0-0.413-0.206-0.413z"></path>
<path d="M40.052 25.6c-0.413 0.206-0.619 0.826-1.032 0.826-5.781 0-11.561 0-17.342 0 0-0.413 0-0.826 0-1.239 5.987 0 11.974 0 17.961 0 0.206 0.206 0.413 0.206 0.413 0.413z"></path>
<path d="M19.613 24.981c-0.206 0.826-1.445 1.032-4.748 0.826-0.413 0-0.619-0.206-0.826-0.413 0-0.206 0.206-0.206 0.206-0.413 1.652 0 3.303 0 5.368 0z"></path>
<path d="M16.723 23.948c-0.826 0-1.445 0-2.271 0-0.206 0-0.413-0.206-0.413-0.413 0.206-0.206 0.206-0.413 0.413-0.413 1.445 0 3.097 0 4.542 0 0.206 0 0.413 0.413 0.619 0.413-0.206 0.206-0.413 0.413-0.619 0.413-0.826 0-1.652 0-2.271 0z"></path>
<path d="M45.832 21.265c0.206-0.206 0.413-0.619 0.826-0.619 1.239 0 2.271 0 3.51 0 0.206 0 0.413 0.206 0.619 0.413-0.206 0.206-0.413 0.413-0.619 0.413-1.239 0-2.684 0-3.923 0-0.413 0-0.413-0.206-0.413-0.206z"></path>
<path d="M48.103 24.361c-0.619 0-1.239 0-1.858 0-0.206 0-0.413-0.413-0.413-0.619 0.206-0.206 0.413-0.413 0.413-0.413 1.239 0 2.477 0 3.716 0 0.206 0 0.413 0.206 0.413 0.413-0.206 0.206-0.413 0.413-0.413 0.619-0.619 0.206-1.239 0-1.858 0z"></path>
<path d="M48.31 15.277c-0.619 0-1.239 0-1.858 0-0.206 0-0.413-0.206-0.619-0.413 0.206-0.206 0.413-0.413 0.619-0.413 1.239 0 2.477 0 3.51 0 0.206 0 0.413 0.206 0.619 0.413-0.206 0.206-0.413 0.413-0.619 0.413-0.619 0-1.239 0-1.652 0z"></path>
<path d="M48.31 18.374c0.413 0 1.032 0 1.445 0 0.206 0 0.413 0.206 0.619 0.413-0.206 0.206-0.413 0.619-0.619 0.619-1.239 0-2.271 0-3.51 0-0.206 0-0.413-0.206-0.413-0.413s0.206-0.413 0.413-0.413c0.619-0.206 1.445-0.206 2.065-0.206 0 0 0 0 0 0z"></path>
<path d="M16.723 22.090c-0.826 0-1.445 0-2.271 0-0.206 0-0.413-0.206-0.619-0.413 0.206-0.206 0.413-0.413 0.619-0.413 1.445 0 2.89 0 4.335 0 0.206 0 0.413 0.206 0.619 0.413-0.206 0.206-0.413 0.413-0.619 0.413-0.619 0-1.239 0-2.064 0z"></path>
<path d="M49.755 17.136c-1.239 0-2.477 0-3.716 0-0.206-0.826-0.206-0.826 0.619-0.826 2.89-0.206 2.89-0.206 3.097 0.826z"></path>
</svg>
