<!-- Generated by IcoMoon.io -->
<svg version="1.1" xmlns="http://www.w3.org/2000/svg" width="64" height="64" viewBox="0 0 64 64">
<title>bundle</title>
<path d="M31.98 64c-17.665-0.011-31.98-14.334-31.98-32 0-17.673 14.327-32 32-32s32 14.327 32 32c-0.023 17.671-14.347 31.989-32.019 32zM31.98 2.27c-16.411 0.011-29.71 13.318-29.71 29.73 0 16.419 13.311 29.73 29.73 29.73s29.73-13.311 29.73-29.73c-0.023-16.417-13.331-29.719-29.749-29.73z"></path>
<path d="M17.543 16.926l-7.846 4.68c2.29 1.334 4.46 2.628 6.671 3.883 0.117 0.056 0.254 0.089 0.398 0.089 0.517 0 0.936-0.419 0.936-0.936 0-0.003 0-0.007-0-0.010 0-2.389 0-4.799 0-7.188-0.028-0.193-0.084-0.367-0.164-0.528l5.441 0.010v-1.792h5.815c-0.871-0.663-1.86-1.321-2.889-1.917-0.346-0.232-0.609-0.328-0.895-0.328s-0.549 0.095-0.76 0.256c-2.227 1.252-4.457 2.507-6.708 3.781zM54.342 21.586l-7.567-4.381c0 2.748 0 5.277 0 7.786 0 0.657 0.378 0.797 0.936 0.478zM22.88 18.061h-3.983v4.978h3.983v-4.978zM39.547 29.63h-14.935v0.936h14.935v-0.856zM24.612 26.484h15.93c0.12-0.558 0.1-0.896-0.578-0.896h-15.094c-0.076 0.022-0.143 0.056-0.201 0.101l0.001 0.756zM24.612 27.659v0.876h13.222v-0.876h-13.262zM42.175 19.256c-0.199 0.597-0.12 0.896 0.498 0.876s1.573 0 2.35 0c0.228-0.091 0.421-0.226 0.576-0.397-0.153-0.182-0.346-0.325-0.566-0.416-0.986-0.024-1.902 0.016-2.897 0.016zM41.937 23.099l0.199 0.279c0.896 0 1.792 0 2.708 0 0.212-0.079 0.392-0.201 0.537-0.358-0.131-0.195-0.305-0.35-0.509-0.455-0.345-0.034-0.737-0.051-1.133-0.051s-0.788 0.017-1.175 0.051c-0.224 0.119-0.451 0.302-0.624 0.53zM22.82 26.783l0.199-0.279c-0.136-0.202-0.317-0.364-0.53-0.474-1.063-0.004-2.139-0.004-3.194-0.004-0.194 0.093-0.355 0.228-0.475 0.395 0.121 0.142 0.274 0.25 0.447 0.319 1.203 0.063 2.378 0.043 3.553 0.043zM20.829 25.329c0.558 0 1.115 0 1.673 0 0.163-0.085 0.298-0.207 0.396-0.355-0.085-0.148-0.206-0.263-0.351-0.34-1.12-0.002-2.235-0.002-3.35-0.002-0.165 0.091-0.299 0.22-0.396 0.374 0.121 0.143 0.274 0.251 0.447 0.32 0.546 0.023 1.083 0.003 1.621 0.003zM18.838 27.579c0 0.797 0.199 0.816 3.385 0.657 0.284-0.089 0.529-0.225 0.74-0.401l-0.143-0.276h-3.983zM42.156 24.154l-0.219 0.279c0.144 0.195 0.332 0.351 0.549 0.454 1.004 0.004 2 0.004 2.976 0.004l0.159-0.299c-0.178-0.191-0.398-0.34-0.645-0.434-0.908-0.123-1.844-0.004-2.78-0.004zM43.689 27.141c0.208 0.014 0.452 0.022 0.697 0.022s0.489-0.008 0.73-0.023c0.148-0.101 0.295-0.242 0.402-0.411-0.114-0.142-0.261-0.25-0.428-0.321q-1.362-0.003-2.696-0.003c-0.179 0.053-0.315 0.196-0.358 0.375 0.043 0.186 0.179 0.328 0.354 0.381 0.203 0.013 0.436 0.019 0.671 0.019s0.468-0.007 0.699-0.020zM41.937 21.466l0.239 0.259c0.777 0 1.553 0 2.33 0 0.186-0.089 0.34-0.217 0.456-0.375-0.115-0.14-0.262-0.249-0.428-0.319-0.305-0.024-0.653-0.036-1.003-0.036s-0.698 0.012-1.042 0.036c-0.194 0.094-0.395 0.243-0.549 0.433z"></path>
<path d="M8.642 30.726c2.091-1.215 4.202-2.429 6.293-3.664 0.189-0.161 0.437-0.259 0.707-0.259s0.517 0.098 0.709 0.26c0.257 0.218 0.596 0.317 0.875 0.516 1.125 0.896 2.568 1.438 4.137 1.438 0.268 0 0.533-0.016 0.793-0.047 0.273 0.067 0.541 0.192 0.77 0.365-0.232 0.13-0.495 0.251-0.77 0.345-0.351 0.032-0.643 0.075-0.929 0.136 1.456 0.709 2.531 1.984 4.363 1.984 4.341-0.1 8.682 0 13.023 0 0.002 0 0.005 0 0.008 0 0.726 0 1.41-0.184 2.006-0.509 2.348-1.303 4.697-2.677 7.007-3.972 0.208-0.159 0.471-0.254 0.757-0.254s0.549 0.095 0.76 0.256c1.988 1.252 4.179 2.447 6.289 3.662v0.179c-0.336 0.121-0.612 0.242-0.879 0.378-4.517 2.609-9.077 5.237-13.617 7.945-0.219 0.165-0.496 0.264-0.797 0.264s-0.577-0.099-0.8-0.266c-1.769-1.093-3.601-2.108-5.393-3.164l-0.836-0.518 4.839-3.126h-11.948l4.899 2.867-4.142 2.429c-0.768 0.668-1.697 1.171-2.72 1.443-1.154-0.269-2.116-0.773-2.926-1.452l-11.638-6.682c-0.222-0.115-0.498-0.235-0.781-0.34l-0.055-0.217z"></path>
<path d="M31.343 54.183c-1.115-0.677-2.19-1.374-3.325-1.991q-5.576-3.246-11.171-6.452c-0.474-0.173-0.806-0.62-0.806-1.144 0-0.053 0.003-0.105 0.010-0.157-0.001-2.642-0.001-5.311-0.001-8.118l0.856 0.458c1.991 1.195 4.162 2.39 6.213 3.624 0.201 0.148 0.454 0.237 0.727 0.237s0.526-0.089 0.73-0.239c1.988-1.153 3.86-2.268 5.811-3.403l1.016-0.538v17.722h-0.060z"></path>
<path d="M32.478 54.183v-17.762l1.673 0.956c1.732 0.996 3.465 1.991 5.157 3.027 0.201 0.148 0.454 0.237 0.727 0.237s0.526-0.089 0.73-0.239c1.988-1.212 4.099-2.387 6.13-3.562l1.016-0.518v2.31c0 1.991 0 3.863 0 5.815 0.004 0.037 0.006 0.080 0.006 0.124 0 0.493-0.294 0.917-0.716 1.108q-6.898 3.986-13.767 7.968c-0.281 0.182-0.521 0.359-0.751 0.549l-0.205-0.011z"></path>
<path d="M45.421 11.968v5.655h-3.345v-2.39c-1.872 0-2.867-1.633-4.52-1.991v1.991h-4.719v-3.266h12.565z"></path>
<path d="M40.503 16.587v6.93h-15.93v-6.93h15.93zM34.529 20.072l-3.863-2.23v4.48z"></path>
<path d="M17.543 16.926c0.075 0.15 0.131 0.324 0.158 0.508 0.001 2.399 0.001 4.809 0.001 7.198 0 0.003 0 0.006 0 0.009 0 0.517-0.419 0.936-0.936 0.936-0.145 0-0.282-0.033-0.404-0.091-2.205-1.252-4.375-2.546-6.665-3.881l7.846-4.68z"></path>
<path d="M54.342 21.586l-6.631 3.883c-0.558 0.319-0.936 0.199-0.936-0.478 0-2.529 0-5.038 0-7.786z"></path>
<path d="M22.88 18.061v4.978h-3.983v-4.978h3.983z"></path>
<path d="M17.543 16.926c2.25-1.274 4.5-2.529 6.731-3.823 0.208-0.159 0.471-0.254 0.757-0.254s0.549 0.095 0.76 0.256c1.164 0.669 2.153 1.327 3.096 2.042l-5.907-0.053v1.792h-5.436z"></path>
<path d="M39.547 29.71v0.936h-14.935v-0.936h14.935z"></path>
<path d="M24.612 26.564v-0.777c0.056-0.044 0.123-0.078 0.195-0.099l15.098-0.001c0.677 0 0.697 0.338 0.578 0.896h-15.93z"></path>
<path d="M24.573 27.739h13.222v0.876h-13.162z"></path>
<path d="M42.136 19.335c0.976 0 1.991 0 2.848 0 0.23 0.094 0.424 0.237 0.576 0.416-0.154 0.174-0.348 0.31-0.565 0.397-0.787 0.004-1.564 0.004-2.36 0.004s-0.697-0.219-0.498-0.816z"></path>
<path d="M41.937 23.099c0.17-0.23 0.391-0.412 0.647-0.533 0.347-0.033 0.739-0.050 1.136-0.050s0.788 0.017 1.176 0.049c0.161 0.106 0.335 0.262 0.464 0.45-0.142 0.162-0.322 0.284-0.525 0.36-0.906 0.003-1.802 0.003-2.718 0.003z"></path>
<path d="M22.82 26.783c-1.175 0-2.37 0-3.544 0-0.182-0.070-0.336-0.179-0.457-0.317 0.122-0.171 0.282-0.307 0.469-0.396 1.063-0.003 2.138-0.003 3.194-0.003 0.218 0.102 0.398 0.251 0.535 0.434z"></path>
<path d="M20.869 25.329c-0.518 0-1.055 0-1.573 0-0.181-0.073-0.334-0.182-0.457-0.318 0.098-0.16 0.233-0.288 0.392-0.377 1.121-0.003 2.236-0.003 3.351-0.003 0.149 0.081 0.27 0.195 0.356 0.334-0.098 0.155-0.232 0.277-0.39 0.36-0.524 0.023-1.141 0.003-1.678 0.003z"></path>
<path d="M18.877 27.579h3.983l0.139 0.279c-0.207 0.174-0.453 0.31-0.722 0.394-3.201 0.143-3.32 0.123-3.4-0.673z"></path>
<path d="M42.195 24.154c0.936 0 1.872 0 2.808 0 0.259 0.098 0.479 0.247 0.656 0.437l-0.158 0.3c-0.996 0-1.991 0-2.967 0-0.242-0.102-0.443-0.258-0.595-0.455z"></path>
<path d="M43.729 27.161c-0.193 0.012-0.419 0.019-0.647 0.019s-0.454-0.007-0.678-0.020c-0.138-0.039-0.261-0.189-0.261-0.367s0.123-0.328 0.29-0.368q1.357-0 2.691-0c0.175 0.073 0.321 0.181 0.437 0.317-0.109 0.176-0.257 0.317-0.431 0.417-0.214 0.017-0.458 0.025-0.703 0.025s-0.489-0.008-0.73-0.023z"></path>
<path d="M41.937 21.466c0.137-0.202 0.318-0.364 0.53-0.474 0.306-0.025 0.653-0.037 1.004-0.037s0.698 0.012 1.042 0.036c0.128 0.070 0.275 0.178 0.39 0.314-0.118 0.162-0.271 0.291-0.449 0.377-0.784 0.003-1.56 0.003-2.337 0.003z"></path>
</svg>
