<!-- Generated by IcoMoon.io -->
<svg version="1.1" xmlns="http://www.w3.org/2000/svg" width="66" height="64" viewBox="0 0 66 64">
<title>call</title>
<path d="M10.883 0.283c1.936-0.968 3.612 0.85 5.17 2.361 2.479 2.361 5.689 5.501 8.286 7.979 1.582 1.44 3.706 2.809 3.706 4.462 0 1.298-1.44 2.361-2.502 3.518-0.853 1.333-2.094 2.353-3.562 2.911-1.514 0.229-3.001-1.754-4.488-3.147-3.069-2.857-5.099-4.721-8.027-7.484-1.547-1.11-2.786-2.553-3.629-4.23 0.101-1.461 0.839-2.659 1.914-3.409 0.87-1.18 1.904-2.161 3.086-2.933z"></path>
<path d="M5.005 8.711c4.887 4.391 9.585 9.112 14.424 13.598-0.897 1.418-1.429 3.144-1.429 4.994 0 1.545 0.371 3.003 1.028 4.29 1.972 4.32 4.891 7.965 8.503 10.757 3.607 2.882 8.399 5.148 12.247 4.062 1.229-0.444 2.287-1.077 3.198-1.875 4.71 4.731 9.573 9.264 14.46 13.749-2.054 2.030-4.438 5.406-9.278 5.689s-10.364-2.715-14.495-4.981c-9.078-5.492-16.779-12.231-23.148-20.091-3.823-4.333-6.897-9.163-9.135-14.433-3.057-7.97-0.437-11.865 3.624-15.76z"></path>
<path d="M48.584 35.789c1.936-0.85 3.376 1.062 5.028 2.62 2.502 2.361 5.43 5.288 8.074 7.838 1.605 1.535 3.588 2.526 3.872 4.249s-1.416 2.597-2.361 3.683c-0.855 1.29-1.992 2.329-3.327 3.045-1.725 0.307-3.094-1.794-4.487-3.139-2.762-2.644-5.477-5.052-8.215-7.602-1.541-1.132-2.784-2.579-3.651-4.252-0.362-1.437 3.58-5.757 5.067-6.442z"></path>
</svg>
