<!-- Generated by IcoMoon.io -->
<svg version="1.1" xmlns="http://www.w3.org/2000/svg" width="87" height="64" viewBox="0 0 87 64">
<title>caret</title>
<path d="M70.994 64h-54.842c-8.905-0.015-16.122-7.222-16.152-16.123v-31.673c0-8.92 7.231-16.152 16.152-16.152h54.842c8.914 0.015 16.137 7.237 16.152 16.15v31.672c-0.030 8.903-7.247 16.11-16.15 16.125zM16.152 5.331c-5.976 0-10.821 4.845-10.821 10.821v31.723c0 5.976 4.845 10.821 10.821 10.821 0 0 0 0 0 0h54.842c5.976 0 10.821-4.845 10.821-10.821 0 0 0 0 0 0v-31.67c0-5.976-4.845-10.821-10.821-10.821 0 0 0 0 0 0h-54.842z"></path>
<path d="M43.573 47.769l-22.671-26.128h45.367l-22.697 26.128z"></path>
</svg>
