<!-- Generated by IcoMoon.io -->
<svg version="1.1" xmlns="http://www.w3.org/2000/svg" width="64" height="64" viewBox="0 0 64 64">
<title>check-on</title>
<path d="M6.076 19.173c0-3.832 3.278-6.951 7.308-6.951h29.698c0.524 0 1.034 0.058 1.528 0.159 1.251-0.904 2.475-1.738 3.667-2.494-1.553-0.818-3.305-1.323-5.194-1.323h-29.698c-6.047 0-10.965 4.761-10.965 10.61v6.798c1.266 0.122 2.486 0.279 3.656 0.487v-7.286z"></path>
<path d="M50.124 17.398c0.159 0.57 0.273 1.158 0.273 1.776v28.542c0 3.834-3.28 6.953-7.313 6.953h-14.827c-0.648 1.631-1.115 2.884-1.394 3.66h16.221c6.047 0 10.967-4.761 10.967-10.612v-28.544c0-1.674-0.44-3.239-1.156-4.649-0.948 0.923-1.87 1.881-2.771 2.874z"></path>
<path d="M13.384 54.668c-4.030 0-7.308-3.117-7.308-6.953v-14.786c-1.373-0.935-2.612-1.666-3.656-2.236v17.020c0 5.851 4.916 10.612 10.965 10.612h9.561c-0.227-1.266-0.498-2.49-0.828-3.66h-8.733z"></path>
<path d="M64 4.389c-24.846 11.576-39.154 54.266-39.154 54.266-3.764-23.154-24.846-31.112-24.846-31.112 15.812 0.723 24.846 9.406 24.846 9.406 15.059-26.048 39.154-32.559 39.154-32.559z"></path>
</svg>
