<!-- Generated by IcoMoon.io -->
<svg version="1.1" xmlns="http://www.w3.org/2000/svg" width="64" height="64" viewBox="0 0 64 64">
<title>checklist</title>
<path d="M31.96 64c-17.656-0.023-31.96-14.341-31.96-32 0-17.673 14.327-32 32-32s32 14.327 32 32c-0.023 17.678-14.359 32-32.040 32 0 0 0 0 0 0zM31.96 2.27c-16.402 0.023-29.69 13.325-29.69 29.73 0 16.419 13.311 29.73 29.73 29.73s29.73-13.31 29.73-29.73c-0.023-16.424-13.342-29.73-29.77-29.73 0 0 0 0 0 0z"></path>
<path d="M44.884 14.238h-25.787c-1.54 0-2.788 1.248-2.788 2.788v29.969c0 1.54 1.248 2.788 2.788 2.788h25.787c1.54 0 2.788-1.248 2.788-2.788v-29.969c0-1.54-1.248-2.788-2.788-2.788 0 0 0 0 0 0zM21.386 46.676c-1.119-0.071-1.999-0.996-1.999-2.127 0-0.065 0.003-0.128 0.009-0.191l-0.001-24.704c-0.004-0.049-0.006-0.107-0.006-0.165 0-1.134 0.878-2.063 1.991-2.145l21.234-0c1.119 0.071 1.999 0.996 1.999 2.127 0 0.064-0.003 0.128-0.008 0.191l0.001 24.704c0.004 0.049 0.006 0.107 0.006 0.165 0 1.134-0.878 2.063-1.991 2.145l-21.234 0z"></path>
<path d="M26.982 39.089h-2.39c-0.891 0-1.613 0.722-1.613 1.613 0 0 0 0 0 0v2.409c0 0.891 0.722 1.613 1.613 1.613 0 0 0 0 0 0h2.39c0.891 0 1.613-0.722 1.613-1.613 0 0 0 0 0 0v-2.39c0-0.006 0-0.013 0-0.020 0-0.891-0.722-1.613-1.613-1.613-0 0-0 0-0 0zM27.798 43.072c0 0.451-0.366 0.816-0.816 0.816h-2.39c-0.451 0-0.816-0.365-0.816-0.816v-2.35c0.032-0.424 0.384-0.757 0.814-0.757 0.001 0 0.002 0 0.002 0h2.389c0 0 0 0 0 0 0.451 0 0.816 0.365 0.816 0.816v2.409z"></path>
<path d="M22.979 23.019c0 0.891 0.722 1.613 1.613 1.613h2.39c0.891 0 1.613-0.722 1.613-1.613v-2.37l1.732-1.732-1.334-1.334-1.513 1.513c-0.075-0.012-0.161-0.019-0.249-0.019s-0.174 0.007-0.258 0.021l-2.38-0.001c-0.335 0.001-0.645 0.105-0.901 0.282l-0.174-0.183-1.334 1.334 0.777 0.777v1.812zM27.798 23.019c0 0.451-0.366 0.816-0.816 0.816 0 0 0 0 0 0h-2.39c-0.451 0-0.816-0.366-0.816-0.816 0 0 0 0 0 0v-0.976l1.712 1.712 2.29-2.29v1.573zM24.592 19.813h2.171l-1.274 1.274-1.215-1.215z"></path>
<path d="M26.982 32.398h-2.39c-0.891 0-1.613 0.722-1.613 1.613v2.409c0 0.891 0.722 1.613 1.613 1.613 0 0 0 0 0 0h2.39c0.891 0 1.613-0.722 1.613-1.613 0 0 0 0 0 0v-2.429c-0.011-0.882-0.729-1.593-1.613-1.593-0 0-0 0-0 0zM27.798 36.381c0 0.451-0.366 0.816-0.816 0.816h-2.39c-0.451 0-0.816-0.365-0.816-0.816v-2.39c0-0.451 0.366-0.816 0.816-0.816 0 0 0 0 0 0h2.39c0 0 0 0 0 0 0.451 0 0.816 0.365 0.816 0.816 0 0 0 0 0 0v2.39z"></path>
<path d="M30.347 25.488l-1.334-1.334-1.613 1.613c-0.063-0.009-0.135-0.014-0.209-0.014s-0.146 0.005-0.217 0.015l-2.381-0.001c-0.003 0-0.007-0-0.010-0-0.297 0-0.575 0.081-0.814 0.223l-0.232-0.243-1.334 1.334 0.777 0.777v1.991c0 0.891 0.722 1.613 1.613 1.613h2.39c0.891 0 1.613-0.722 1.613-1.613v-2.39s0 0 0 0zM24.592 26.504h1.991l-1.155 1.155-1.115-1.115h0.199zM27.798 29.71c0 0.451-0.366 0.816-0.816 0.816 0 0 0 0 0 0h-2.39c-0.451 0-0.816-0.366-0.816-0.816 0 0 0 0 0 0v-1.115l1.712 1.712 1.334-1.334 0.976-0.956v1.693z"></path>
<path d="M29.71 21.287h12.585v0.936h-12.585v-0.936z"></path>
<path d="M29.71 27.958h12.585v0.936h-12.585v-0.936z"></path>
<path d="M29.71 34.629h12.585v0.936h-12.585v-0.936z"></path>
<path d="M29.71 41.299h12.585v0.936h-12.585v-0.936z"></path>
</svg>
