<!-- Generated by IcoMoon.io -->
<svg version="1.1" xmlns="http://www.w3.org/2000/svg" width="64" height="64" viewBox="0 0 64 64">
<title>check-off</title>
<path d="M53.863 17.383c-0.035-0.196-0.066-0.39-0.114-0.584-0.107-0.429-0.244-0.851-0.405-1.259-1.166-3.076-3.749-5.454-6.995-6.443-0.229-0.072-0.454-0.149-0.69-0.209-0.248-0.058-0.498-0.107-0.752-0.149-0.593-0.103-1.193-0.178-1.817-0.178-0.002 0-0.004 0-0.008 0h-29.7c-6.047 0-10.965 4.761-10.965 10.61v28.544c0 0.613 0.076 1.208 0.188 1.79 0.035 0.196 0.066 0.392 0.114 0.584 0.107 0.429 0.244 0.851 0.405 1.259 1.166 3.076 3.749 5.454 6.995 6.443 0.229 0.072 0.454 0.149 0.69 0.209 0.248 0.058 0.498 0.107 0.752 0.149 0.592 0.103 1.193 0.178 1.817 0.178 0.002 0 0.004 0 0.008 0h29.704c6.047 0 10.965-4.761 10.965-10.61v-28.544c-0.004-0.613-0.081-1.208-0.192-1.79zM50.395 47.715c0 3.834-3.281 6.953-7.313 6.953h-29.694c-0.524 0-1.034-0.058-1.528-0.159 0 0 0 0 0 0-2.69-0.545-4.81-2.508-5.512-5.021-0.064-0.229-0.112-0.462-0.157-0.698-0.058-0.353-0.114-0.708-0.114-1.078v-28.538c0-3.834 3.28-6.953 7.313-6.953h29.696c0.524 0 1.034 0.058 1.528 0.159 0 0 0 0 0 0 2.688 0.545 4.808 2.508 5.512 5.019 0.064 0.229 0.114 0.462 0.157 0.698 0.058 0.353 0.114 0.708 0.114 1.078v28.54z"></path>
</svg>
