<!-- Generated by IcoMoon.io -->
<svg version="1.1" xmlns="http://www.w3.org/2000/svg" width="64" height="64" viewBox="0 0 64 64">
<title>clock</title>
<path d="M40.753 50.462c-2.541 1.217-5.524 1.928-8.673 1.928s-6.132-0.711-8.797-1.981l-1.87-1.004c-1.41-0.861-2.631-1.816-3.732-2.894l-1.791-1.99c-2.675-3.42-4.29-7.782-4.29-12.521 0-11.263 9.12-20.395 20.378-20.416h0.002c11.283 0.005 20.427 9.153 20.427 20.436 0 4.676-1.571 8.986-4.213 12.43-2.024 2.411-4.505 4.44-7.308 5.947zM31.98 29.428h-0.459l-5.702-7.975-0.678-0.937-0.897 0.658-0.897 0.837 6.38 8.852c-0.198 0.356-0.314 0.78-0.314 1.232 0 0.71 0.288 1.353 0.753 1.818v0c0.465 0.463 1.106 0.749 1.814 0.749s1.349-0.286 1.814-0.749l-0 0c0.469-0.466 0.76-1.112 0.76-1.825 0-0.038-0.001-0.076-0.002-0.114 0 0.005 0 0.003 0 0.002 0-0.255-0.036-0.501-0.104-0.733l6.584-5.963-1.475-1.675-0.618 0.558-5.981 5.363c-0.288-0.125-0.624-0.198-0.976-0.199h-0.001zM44.062 20.017c-3.088-3.085-7.352-4.993-12.062-4.993-9.426 0-17.067 7.641-17.067 17.067s7.641 17.067 17.067 17.067c9.426 0 17.067-7.641 17.067-17.067 0-0.039-0-0.078-0-0.117-0.027-4.67-1.934-8.895-5.004-11.956z"></path>
<path d="M31.98 64c-17.575-0.057-31.8-14.317-31.8-31.9 0-17.618 14.282-31.9 31.9-31.9 17.576 0 31.832 14.214 31.9 31.774-0.011 17.679-14.329 32.004-31.998 32.026zM31.98 2.193c-16.517 0-29.906 13.39-29.906 29.907s13.39 29.907 29.907 29.907 29.907-13.39 29.907-29.907c0-0.042-0-0.084-0-0.126-0.068-16.459-13.431-29.78-29.906-29.78-0 0-0 0-0 0z"></path>
</svg>
