<!-- Generated by IcoMoon.io -->
<svg version="1.1" xmlns="http://www.w3.org/2000/svg" width="64" height="64" viewBox="0 0 64 64">
<title>code</title>
<path d="M31.98 64c-17.618 0-31.9-14.282-31.9-31.9s14.282-31.9 31.9-31.9c17.618 0 31.9 14.282 31.9 31.9-0.079 17.586-14.314 31.821-31.893 31.9zM31.98 2.193c-16.517 0-29.906 13.39-29.906 29.907s13.39 29.907 29.907 29.907 29.907-13.39 29.907-29.907c0-0.042-0-0.084-0-0.126-0.068-16.459-13.431-29.78-29.906-29.78-0 0-0 0-0 0z"></path>
<path d="M43.823 13.338v37.343c1.754-1.121 3.267-2.406 4.588-3.869l0.017-29.587c-1.339-1.481-2.852-2.766-4.517-3.835z"></path>
<path d="M37.642 10.627v42.746c1.192-0.315 2.2-0.669 3.172-1.092l-0.142-40.618c-0.829-0.367-1.837-0.721-2.876-1.001z"></path>
<path d="M28.431 10.188v43.723c0.892 0.151 1.938 0.252 3.002 0.279l0.028-44.261c-1.084 0.018-2.132 0.111-3.156 0.276z"></path>
<path d="M22.25 12.162v39.756c0.836 0.423 1.839 0.836 2.875 1.173l0.155-42.145c-1.19 0.378-2.193 0.79-3.154 1.273z"></path>
<path d="M17.665 15.212v33.595c0.894 0.767 1.885 1.484 2.931 2.117l0.099-37.826c-1.149 0.671-2.14 1.369-3.066 2.142z"></path>
<path d="M9.909 31.98c-0 0.017-0 0.037-0 0.057 0 5.078 1.726 9.752 4.622 13.47l-0.037-26.985c-2.86 3.668-4.586 8.343-4.586 13.421 0 0.013 0 0.026 0 0.039z"></path>
<path d="M51.579 21.752v20.496c1.588-2.972 2.521-6.501 2.521-10.248s-0.933-7.276-2.579-10.367z"></path>
<path d="M34.612 10.049v43.863l1.356-0.179v-43.444z"></path>
</svg>
