<!-- Generated by IcoMoon.io -->
<svg version="1.1" xmlns="http://www.w3.org/2000/svg" width="64" height="64" viewBox="0 0 64 64">
<title>creditcard</title>
<path d="M31.98 64c-17.618 0-31.9-14.282-31.9-31.9s14.282-31.9 31.9-31.9c17.618 0 31.9 14.282 31.9 31.9-0.079 17.586-14.314 31.821-31.893 31.9zM31.98 2.193c-16.517 0-29.906 13.39-29.906 29.907s13.39 29.907 29.907 29.907 29.907-13.39 29.907-29.907c0-0.049-0-0.098-0-0.147-0.079-16.449-13.438-29.759-29.906-29.759-0 0-0 0-0 0z"></path>
<path d="M51.419 24.125c-1.994-0.598-3.988-1.097-5.981-1.635l-22.55-5.981c-3.17-0.837-4.885 0.14-5.762 3.29l-1.017 3.609h-1.755c-0.17-0.025-0.367-0.039-0.567-0.039-2.312 0-4.187 1.875-4.187 4.187 0 0.225 0.018 0.445 0.052 0.66-0.003 5.12-0.003 10.284-0.003 15.428-0.007 0.086-0.010 0.187-0.010 0.288 0 2.202 1.785 3.988 3.988 3.988 0.095 0 0.189-0.003 0.282-0.010l32.247 0.001c0.069 0.005 0.149 0.007 0.23 0.007 1.681 0 3.098-1.131 3.532-2.673 1.522-5.489 2.997-10.972 4.373-16.474 0.091-0.305 0.144-0.656 0.144-1.019 0-1.799-1.288-3.297-2.992-3.623zM46.574 44.501c-0.176 1.22-1.214 2.146-2.468 2.146-0.142 0-0.282-0.012-0.418-0.035l-29.653 0.002c-0.12 0.019-0.258 0.029-0.399 0.029-1.505 0-2.725-1.217-2.731-2.72 0-3.769 0-7.557 0-11.485h35.708c0 4.027 0.060 8.055-0.040 12.062zM10.946 27.414c0.379-2.173 1.236-2.831 3.589-2.831h28.431c0.034-0 0.074-0.001 0.114-0.001 0.488 0 0.966 0.044 1.429 0.128 1.202 0.181 2.15 1.249 2.15 2.537 0 0.059-0.002 0.117-0.006 0.175l-35.708-0.008zM50.084 29.966c-0.339 1.196-0.638 2.412-1.017 3.609-0.189 0.521-0.574 0.932-1.064 1.151l-0.013-7.511c2.213 0.080 2.672 0.758 2.093 2.751z"></path>
<path d="M13.298 44.162h6.24v-2.831h-6.241v2.851z"></path>
<path d="M22.49 44.162h6.241v-2.831h-6.241v2.851z"></path>
</svg>
