<!-- Generated by IcoMoon.io -->
<svg version="1.1" xmlns="http://www.w3.org/2000/svg" width="64" height="64" viewBox="0 0 64 64">
<title>delete</title>
<path d="M62.27 54.486c2.162-2.162 2.162-6.054 0-8.216l-14.27-14.27 14.27-14.27c2.162-2.162 2.162-6.054 0-8.216l-7.784-7.784c-2.162-2.162-6.054-2.162-8.216 0l-14.27 14.27-14.27-14.27c-2.162-2.162-6.054-2.162-8.216 0l-7.784 7.784c-2.162 2.162-2.162 6.054 0 8.216l14.27 14.27-14.27 14.27c-2.162 2.162-2.162 6.054 0 8.216l7.784 7.784c2.162 2.162 6.054 2.162 8.216 0l14.27-14.27 14.27 14.27c2.162 2.162 6.054 2.162 8.216 0l7.784-7.784z"></path>
</svg>
