<!-- Generated by IcoMoon.io -->
<svg version="1.1" xmlns="http://www.w3.org/2000/svg" width="282" height="64" viewBox="0 0 282 64">
<title>die-keure</title>
<path d="M96.88 63.065c-2.955 0.595-6.352 0.935-9.828 0.935-0.044 0-0.087-0-0.131-0-8.076 0-11.815-5.498-11.815-13.361v-3.904c0-8.522 3.904-13.251 11.821-13.251 2.243 0.014 4.43 0.213 6.558 0.584l-0.235-10.096c0-0.577 0.468-1.045 1.045-1.045 0 0 0 0 0 0h2.584c0 0 0.001 0 0.001 0 0.547 0 0.99 0.443 0.99 0.99 0 0.019-0.001 0.039-0.002 0.058l0 37.88c0.009 0.052 0.014 0.111 0.014 0.172 0 0.577-0.468 1.045-1.045 1.045-0.044 0-0.087-0.003-0.129-0.008zM93.086 38.048c-1.881-0.31-4.052-0.49-6.263-0.495-5.503 0-7.042 3.299-7.042 9.072v3.904c0 5.883 1.704 9.182 7.038 9.182 1.814 0 4.509 0 6.323-0.33v-21.443z"></path>
<path d="M108.591 29.141h-2.749c-0.607 0-1.1-0.492-1.1-1.1v-4.344c0.030-0.583 0.51-1.045 1.098-1.045 0.001 0 0.001 0 0.001 0h2.749c0 0 0.001 0 0.001 0 0.588 0 1.068 0.462 1.098 1.042l0 4.346c0 0.607-0.492 1.1-1.1 1.1zM108.591 63.67h-2.694c-0.607 0-1.1-0.492-1.1-1.1 0 0 0 0 0 0v-27.491c0-0.607 0.492-1.1 1.1-1.1h2.584c0.607 0 1.1 0.492 1.1 1.1v27.491c0 0.607-0.492 1.1-1.1 1.1 0 0 0 0 0 0z"></path>
<path d="M137.952 50.254h-18.144v0.66c-0.095 0.451-0.15 0.969-0.15 1.5 0 4.191 3.397 7.588 7.588 7.588 0.169 0 0.336-0.005 0.502-0.016 3.273-0.041 6.468-0.319 9.589-0.818l-0.374 0.049c0.033-0.005 0.071-0.008 0.11-0.008 0.425 0 0.77 0.345 0.77 0.77 0 0.003 0 0.006-0 0.008v1.869c0.004 0.033 0.006 0.071 0.006 0.11 0 0.607-0.492 1.1-1.1 1.1-0.002 0-0.004 0-0.006 0-2.732 0.595-5.871 0.935-9.090 0.935-0.071 0-0.142-0-0.213-0.001-0.287 0.027-0.633 0.042-0.983 0.042-6.498 0-11.766-5.268-11.766-11.766 0-0.577 0.042-1.145 0.122-1.7l-0.007-3.675c-0.055-0.429-0.086-0.926-0.086-1.43 0-6.589 5.342-11.931 11.931-11.931 0.050 0 0.099 0 0.149 0.001 0.074-0.002 0.17-0.003 0.267-0.003 6.468 0 11.711 5.243 11.711 11.711 0 0.563-0.040 1.118-0.117 1.66l0.007 2.192c0.008 0.050 0.013 0.107 0.013 0.165 0 0.577-0.468 1.045-1.045 1.045-0.005 0-0.009 0-0.014-0zM133.828 46.406c0-5.773-2.309-8.687-7.093-8.687-0.022-0-0.049-0-0.075-0-4.039 0-7.313 3.274-7.313 7.313 0 0.486 0.047 0.962 0.138 1.421l-0.008 0.229h14.35v-0.33z"></path>
<path d="M183.148 63.615h-4.289c-0.024 0.001-0.053 0.002-0.081 0.002-0.457 0-0.865-0.215-1.126-0.549l-15.288-18.697v18.199c0.001 0.017 0.001 0.036 0.001 0.056 0 0.558-0.438 1.014-0.989 1.043l-2.972 0c-0.554-0.029-0.991-0.485-0.991-1.043 0-0.020 0.001-0.039 0.002-0.059l-0-38.1c0-0.577 0.468-1.045 1.045-1.045h2.859c0.577 0 1.045 0.468 1.045 1.045 0 0 0 0 0 0v17.43l15.56-17.924c0.244-0.304 0.615-0.497 1.031-0.497 0.024 0 0.048 0.001 0.071 0.002l3.791-0c0.050-0.012 0.107-0.020 0.166-0.020 0.382 0 0.694 0.3 0.714 0.678 0.020 0.076 0.031 0.161 0.031 0.249s-0.011 0.173-0.033 0.254l-16.493 18.357 16.495 19.794c0.022 0.066 0.035 0.141 0.035 0.22s-0.013 0.154-0.036 0.225c0.001-0.004 0.001-0.003 0.001-0.002 0 0.243-0.197 0.44-0.44 0.44-0.019 0-0.038-0.001-0.057-0.004z"></path>
<path d="M207.12 50.254h-18.144v0.66c-0.095 0.451-0.15 0.969-0.15 1.5 0 4.191 3.397 7.588 7.588 7.588 0.169 0 0.336-0.005 0.502-0.016 3.274-0.042 6.469-0.321 9.59-0.818l-0.376 0.049c0.033-0.005 0.071-0.008 0.11-0.008 0.425 0 0.77 0.345 0.77 0.77 0 0.003 0 0.006-0 0.008v1.869c0.004 0.033 0.006 0.071 0.006 0.11 0 0.607-0.492 1.1-1.1 1.1-0.002 0-0.004 0-0.006 0-2.726 0.595-5.857 0.935-9.068 0.935-0.079 0-0.158-0-0.236-0.001-0.286 0.027-0.632 0.042-0.982 0.042-6.498 0-11.766-5.268-11.766-11.766 0-0.577 0.042-1.145 0.122-1.7l-0.007-3.675c-0.055-0.429-0.086-0.926-0.086-1.43 0-6.589 5.342-11.931 11.931-11.931 0.050 0 0.099 0 0.149 0.001 0.074-0.002 0.17-0.003 0.267-0.003 6.468 0 11.711 5.243 11.711 11.711 0 0.563-0.040 1.118-0.117 1.66l0.007 2.192c0.008 0.050 0.013 0.107 0.013 0.165 0 0.577-0.468 1.045-1.045 1.045-0.005 0-0.009 0-0.014-0zM202.997 46.406c0-5.773-2.309-8.687-7.093-8.687-0.022-0-0.049-0-0.075-0-4.039 0-7.313 3.274-7.313 7.313 0 0.486 0.048 0.962 0.138 1.421l-0.008 0.229h14.351v-0.33z"></path>
<path d="M224.55 64h-0.495c-0.040 0.001-0.086 0.001-0.133 0.001-6.073 0-10.997-4.923-10.997-10.997 0-0.602 0.048-1.193 0.141-1.768l-0.008-16.432c-0.004-0.033-0.006-0.071-0.006-0.11 0-0.547 0.443-0.99 0.99-0.99 0.002 0 0.004 0 0.006 0h2.804c0.002 0 0.004 0 0.006 0 0.547 0 0.99 0.443 0.99 0.99 0 0.039-0.002 0.077-0.007 0.115l0 16.49c0 6.488 2.749 8.522 6.378 8.522h0.495c3.629 0 6.378-2.034 6.378-8.522v-16.495c-0.004-0.033-0.006-0.071-0.006-0.11 0-0.547 0.443-0.99 0.99-0.99 0.002 0 0.004 0 0.006 0h2.804c0.002 0 0.004 0 0.006 0 0.547 0 0.99 0.443 0.99 0.99 0 0.039-0.002 0.077-0.007 0.115l0 16.49c0.085 0.513 0.133 1.103 0.133 1.705 0 6.073-4.923 10.997-10.997 10.997-0.047 0-0.094-0-0.14-0.001z"></path>
<path d="M254.79 37.553c-0.379-0.015-0.825-0.023-1.272-0.023-2.214 0-4.378 0.209-6.476 0.607l0.215 24.323c0.001 0.017 0.001 0.036 0.001 0.056 0 0.558-0.438 1.014-0.989 1.043l-2.807 0c-0.554-0.029-0.991-0.485-0.991-1.043 0-0.020 0.001-0.039 0.002-0.059l-0-26.169c0.025-0.6 0.43-1.098 0.98-1.262 2.781-0.989 5.977-1.559 9.306-1.559 0.714 0 1.422 0.026 2.124 0.078 0.621-0.006 1.061-0.006 1.061 0.819v2.474c0 0.605 0 0.88-1.155 0.88z"></path>
<path d="M280.632 50.254h-18.144v0.66c-0.095 0.451-0.15 0.969-0.15 1.5 0 4.191 3.397 7.588 7.588 7.588 0.169 0 0.336-0.005 0.502-0.016 3.274-0.042 6.469-0.321 9.59-0.818l-0.376 0.049c0.033-0.005 0.071-0.008 0.11-0.008 0.425 0 0.77 0.345 0.77 0.77 0 0.003 0 0.006-0 0.008v1.869c0.003 0.033 0.005 0.071 0.005 0.11 0 0.607-0.492 1.1-1.1 1.1-0.002 0-0.004 0-0.006 0-2.732 0.595-5.871 0.935-9.090 0.935-0.071 0-0.142-0-0.213-0.001-0.287 0.027-0.633 0.042-0.983 0.042-6.498 0-11.766-5.268-11.766-11.766 0-0.577 0.042-1.145 0.122-1.7l-0.007-3.675c-0.055-0.429-0.086-0.926-0.086-1.43 0-6.589 5.342-11.931 11.931-11.931 0.050 0 0.099 0 0.149 0.001 0.091-0.003 0.206-0.005 0.322-0.005 6.468 0 11.711 5.243 11.711 11.711 0 0.564-0.040 1.119-0.117 1.661l0.007 2.192c0.008 0.050 0.013 0.107 0.013 0.165 0 0.577-0.468 1.045-1.045 1.045-0.005 0-0.009 0-0.014-0zM276.564 46.406c0-5.773-2.309-8.687-7.093-8.687-0.022-0-0.049-0-0.075-0-4.039 0-7.313 3.274-7.313 7.313 0 0.486 0.048 0.962 0.138 1.421l-0.008 0.229h14.351v-0.33z"></path>
<path d="M31.56 31.615v-31.56h31.505l-31.505 31.56z"></path>
<path d="M63.065 63.12h-31.505v-31.505l31.505 31.505z"></path>
<path d="M0 0l31.56 31.615-31.56 31.45v-63.065z"></path>
</svg>
