<!-- Generated by IcoMoon.io -->
<svg version="1.1" xmlns="http://www.w3.org/2000/svg" width="64" height="64" viewBox="0 0 64 64">
<title>edit</title>
<path d="M32 64c-0.006 0-0.013 0-0.020 0-17.673 0-32-14.327-32-32s14.327-32 32-32c17.666 0 31.989 14.316 32 31.979-0.011 17.667-14.318 31.987-31.977 32.021zM32 2.27c-16.419 0-29.73 13.311-29.73 29.73s13.311 29.73 29.73 29.73c16.419 0 29.73-13.311 29.73-29.73 0-0.007 0-0.014 0-0.021-0.034-16.401-13.327-29.686-29.728-29.709z"></path>
<path d="M44.605 43.669c0 0.539-0.437 0.976-0.976 0.976 0 0 0 0 0 0h-23.577c-0.006 0-0.013 0-0.020 0-0.539 0-0.976-0.437-0.976-0.976 0-0 0-0 0-0v-23.637c-0-0.006-0-0.013-0-0.020 0-0.539 0.437-0.976 0.976-0.976 0.007 0 0.014 0 0.021 0h15.77l2.151-2.031h-18.858c-1.199 0-2.171 0.972-2.171 2.171v25.449c0 1.199 0.972 2.17 2.171 2.17 0 0 0 0 0 0h25.449c0 0 0 0 0 0 1.199 0 2.17-0.972 2.17-2.17 0 0 0 0 0 0v-18.838l-2.131 1.991v15.811z"></path>
<path d="M30.666 27.121l-2.111 7.766 7.965-1.991 12.605-12.286-5.854-5.715zM29.889 33.573l1.016-3.584 2.748 2.688zM45.939 20.032c0.102 0.098 0.166 0.236 0.166 0.388s-0.064 0.29-0.166 0.388l-10.494 10.235c-0.101 0.103-0.242 0.167-0.398 0.167s-0.297-0.064-0.398-0.167c-0.102-0.098-0.166-0.236-0.166-0.388s0.064-0.29 0.166-0.388l10.594-10.235c0.095-0.076 0.216-0.122 0.349-0.122s0.254 0.046 0.35 0.123zM43.689 17.842c0.102 0.098 0.166 0.236 0.166 0.388s-0.064 0.29-0.166 0.388l-10.494 10.235c-0.101 0.103-0.242 0.167-0.398 0.167s-0.297-0.064-0.398-0.167c-0.102-0.098-0.166-0.236-0.166-0.388s0.064-0.29 0.166-0.388l10.494-10.235c0.102-0.143 0.268-0.236 0.455-0.236 0.179 0 0.338 0.084 0.44 0.215z"></path>
<path d="M52.59 13.839l-2.469-2.409c-0.423-0.457-1.026-0.741-1.696-0.741-0.579 0-1.108 0.213-1.513 0.565l-2.387 2.327 5.854 5.715 2.39-2.33c0.354-0.388 0.572-0.906 0.572-1.476 0-0.657-0.29-1.247-0.748-1.649z"></path>
</svg>
