<svg xmlns="http://www.w3.org/2000/svg" viewBox="0 0 25.8 33.31"><g id="Layer_1" data-name="Layer 1"><path d="M272.84,470a1.37,1.37,0,0,0,.35,1.49c1.24,1.26,2,2.07,3.3,3.32a1.47,1.47,0,0,0,.55.35,1.4,1.4,0,0,0,1.52-.4c1-1,2.18-2.13,3.62-3.51,1.15-1.11,2.47-2.38,3.55-3.45l.11-.12A1.41,1.41,0,0,0,286,466a1.37,1.37,0,0,0-1.19-.65,1.42,1.42,0,0,0-1,.42c-.92.9-2.1,2-3,2.87l-.16.16c-.93.89-2,1.92-2.92,2.82l-.24.24-2.3-2.34a1.42,1.42,0,0,0-1-.45h-.12A1.35,1.35,0,0,0,272.84,470Z" transform="translate(-266.51 -450.34)"/><path d="M285.71,455.26a2.23,2.23,0,0,0-.24-.49,1.68,1.68,0,0,0-1-.68,1.74,1.74,0,0,0-.45-.06h-1v-.15a3.6,3.6,0,0,0-3.6-3.54h-.05a3.69,3.69,0,0,0-2.55,1,3.59,3.59,0,0,0-1.07,2.51V454h-1a1.68,1.68,0,0,0-.45.06,1.65,1.65,0,0,0-1,.68,1.59,1.59,0,0,0-.24.49,1.75,1.75,0,0,0-.06.33v2a1.52,1.52,0,0,0,.06.32,1.73,1.73,0,0,0,1.59,1.25h9.41a1.74,1.74,0,0,0,1.61-1.25,1.55,1.55,0,0,0,.06-.31v-2A2.1,2.1,0,0,0,285.71,455.26ZM281.33,454h-3.85v-.15a1.9,1.9,0,0,1,1.88-1.84h.08a1.9,1.9,0,0,1,1.89,1.84Z" transform="translate(-266.51 -450.34)"/><path d="M292.3,475.11V460.48a5,5,0,0,0-2.71-4.76,4.62,4.62,0,0,0-2.27-.5h-.49v2.3h.11q.46,0,.81,0a2.48,2.48,0,0,1,2.31,2.29c.07,1.17.06,2.38.06,3.45V478a3.91,3.91,0,0,1-.3,1.86,2.46,2.46,0,0,1-2.3,1.46H271.3a2.49,2.49,0,0,1-2.31-1.46,3.91,3.91,0,0,1-.3-1.86V463.29c0-1.07,0-2.28.06-3.45a2.5,2.5,0,0,1,2.32-2.29c.23,0,.49,0,.81,0H272v-2.3h-.5a4.58,4.58,0,0,0-2.26.5,5,5,0,0,0-2.71,4.76v14.63c0,2.24,0,1.59,0,3.88a4.77,4.77,0,0,0,1.43,3.27,4.68,4.68,0,0,0,3.31,1.39h0l7.81,0h.56l7.82,0h0a4.65,4.65,0,0,0,3.31-1.39,4.72,4.72,0,0,0,1.43-3.27C292.31,476.7,292.31,477.35,292.3,475.11Z" transform="translate(-266.51 -450.34)"/></g></svg>