<svg xmlns="http://www.w3.org/2000/svg" viewBox="0 0 25.8 33.31"><g id="Layer_1" data-name="Layer 1"><path d="M321.29,455.26a1.86,1.86,0,0,0-.24-.49,1.65,1.65,0,0,0-1-.68,1.68,1.68,0,0,0-.45-.06h-1v-.15a3.6,3.6,0,0,0-3.59-3.54H315a3.6,3.6,0,0,0-3.62,3.54V454h-1a1.74,1.74,0,0,0-.45.06,1.68,1.68,0,0,0-1,.68,1.86,1.86,0,0,0-.24.49,1.75,1.75,0,0,0-.06.33v2a1.52,1.52,0,0,0,.06.32,1.73,1.73,0,0,0,1.6,1.25h9.4a1.74,1.74,0,0,0,1.61-1.25,1.55,1.55,0,0,0,.06-.31v-2A2.1,2.1,0,0,0,321.29,455.26ZM316.91,454h-3.85v-.15a1.9,1.9,0,0,1,1.88-1.84H315a1.9,1.9,0,0,1,1.88,1.84Z" transform="translate(-302.09 -450.34)"/><path d="M327.88,475.11V460.48a5,5,0,0,0-2.71-4.76,4.61,4.61,0,0,0-2.26-.5h-.5v2.3h.11q.47,0,.81,0a2.5,2.5,0,0,1,2.32,2.29c.06,1.17.06,2.38.06,3.45V478a3.91,3.91,0,0,1-.3,1.86,2.49,2.49,0,0,1-2.31,1.46H306.88a2.46,2.46,0,0,1-2.3-1.46,3.91,3.91,0,0,1-.3-1.86V463.29c0-1.07,0-2.28.06-3.45a2.48,2.48,0,0,1,2.31-2.29q.35,0,.81,0h.11v-2.3h-.49a4.62,4.62,0,0,0-2.27.5,5,5,0,0,0-2.71,4.76v14.63c0,2.24,0,1.59,0,3.88a4.82,4.82,0,0,0,4.74,4.66h0l7.82,0h.56l7.81,0h0a4.69,4.69,0,0,0,3.32-1.39,4.77,4.77,0,0,0,1.43-3.27C327.89,476.7,327.89,477.35,327.88,475.11Z" transform="translate(-302.09 -450.34)"/><path d="M315.05,472.51a.85.85,0,0,1-.84-.77,3,3,0,0,1,1.62-3.13,2.21,2.21,0,0,0,1.57-2v-.06c0-1.14-1-1.71-2.33-1.71-2.12,0-2.28,1.56-2.32,1.74a.85.85,0,0,1-1.66-.37,3.81,3.81,0,0,1,4-3.08c2.75,0,4,1.83,4,3.41a3.91,3.91,0,0,1-2.59,3.63c-.69.3-.61,1.4-.61,1.41a.86.86,0,0,1-.77.93Z" transform="translate(-302.09 -450.34)"/><circle cx="13" cy="25.27" r="1.12"/></g></svg>