<!-- Generated by IcoMoon.io -->
<svg version="1.1" xmlns="http://www.w3.org/2000/svg" width="64" height="64" viewBox="0 0 64 64">
<title>eye</title>
<path d="M31.986 13.717c5.863 0.008 11.21 1.755 16.235 4.517 5.822 3.198 10.8 7.372 15.12 12.284 0.82 0.931 0.888 1.862 0.13 2.719-5.838 6.598-12.629 11.993-21.151 15.104-8.776 3.204-17.226 2.145-25.371-2.038-6.319-3.245-11.656-7.653-16.277-12.887-0.795-0.9-0.89-1.602-0.252-2.599 0.528-0.826 1.117-1.635 1.798-2.347 5.886-6.148 12.699-10.977 21.106-13.485 2.814-0.84 5.704-1.278 8.661-1.268zM59.365 32.091c-0.124-0.204-0.153-0.279-0.204-0.332-4.472-4.674-9.491-8.675-15.478-11.448-4.926-2.281-10.079-3.322-15.56-2.469-5.539 0.861-10.42 3.161-14.916 6.278-1.575 1.092-3.086 2.283-4.527 3.534-1.472 1.278-2.822 2.686-4.346 4.152 1.553 1.449 2.948 2.816 4.416 4.108 3.654 3.225 7.655 5.962 12.179 7.973 7.364 3.272 14.716 3.283 22.086 0.025 4.117-1.821 7.825-4.24 11.202-7.123 1.776-1.513 3.448-3.138 5.149-4.699z"></path>
<path d="M31.979 43.481c-6.625-0.010-11.974-5.159-11.972-11.524 0-6.398 5.38-11.539 12.057-11.522 6.565 0.017 11.958 5.209 11.929 11.487-0.031 6.437-5.366 11.572-12.013 11.559zM35.978 31.928c-0.004-2.116-1.769-3.799-3.985-3.799-2.182 0-4.117 1.831-4.079 3.863 0.037 2.036 1.918 3.793 4.067 3.799 2.261 0.004 4.003-1.678 3.997-3.863z"></path>
</svg>
