<!-- Generated by IcoMoon.io -->
<svg version="1.1" xmlns="http://www.w3.org/2000/svg" width="64" height="64" viewBox="0 0 64 64">
<title>eye2</title>
<path d="M32 0c-17.645 0-32 14.355-32 32s14.355 32 32 32 32-14.355 32-32-14.355-32-32-32zM32 61.541c-16.289 0-29.541-13.252-29.541-29.541 0-16.291 13.252-29.543 29.541-29.543s29.541 13.254 29.541 29.543c0 16.289-13.252 29.541-29.541 29.541z"></path>
<path d="M33.156 47.182c-5.57 0.050-10.23-1.693-14.555-4.47-3.939-2.529-7.213-5.803-10.281-9.299-0.762-0.869-0.82-1.844-0.111-2.785 4.515-6.008 9.883-11.008 17.057-13.655 7.164-2.645 13.946-1.614 20.282 2.574 4.445 2.938 7.893 6.869 10.983 11.142 0.644 0.89 0.603 1.745-0.122 2.727-2.482 3.355-5.386 6.284-8.809 8.692-3.658 2.574-7.643 4.333-12.108 4.899-0.89 0.111-1.79 0.134-2.335 0.173zM12.466 31.829c3.503 3.817 7.222 7.135 11.871 9.27 5.161 2.368 10.389 2.616 15.666 0.45 4.92-2.017 8.807-5.392 12.156-9.445 0.047-0.058 0.050-0.155 0.074-0.242-3.128-4.053-6.592-7.711-11.2-10.114-3.914-2.040-8.014-2.605-12.292-1.488-6.858 1.794-11.757 6.357-16.275 11.57z"></path>
<path d="M32.374 21.368c5.52 0.010 10.032 4.534 9.998 10.027-0.033 5.523-4.542 10.005-10.050 9.992-5.51-0.014-10.023-4.55-9.99-10.042 0.033-5.543 4.507-9.988 10.042-9.978zM35.914 31.494c2.232 0.008 4.059-1.796 4.061-4.011 0.002-2.172-1.796-3.991-3.97-4.020-2.248-0.029-4.053 1.728-4.082 3.972-0.031 2.24 1.751 4.051 3.991 4.059z"></path>
</svg>
