<!-- Generated by IcoMoon.io -->
<svg version="1.1" xmlns="http://www.w3.org/2000/svg" width="64" height="64" viewBox="0 0 64 64">
<title>facebook</title>
<path d="M64 9.621v44.779c0 0.165 0 0.31-0.124 0.475-0.791 4.297-3.966 7.687-8.077 8.777-0.511 0.141-0.965 0.245-1.399 0.348h-12.387c0-0.165 0-0.33 0-0.495q0-11.52 0-23.061v-0.599h10.013c0.454 0 0.619 0 0.599-0.578 0-3.159 0-6.338 0-9.497 0-0.186 0-0.372 0-0.619h-10.612c0-1.652 0-3.241 0-4.81-0-0.005-0-0.010-0-0.016 0-1.254 1.017-2.271 2.271-2.271 0.095 0 0.188 0.006 0.279 0.017l7.999-0.001v-10.715h-8.382c-2.333 0.020-4.483 0.792-6.222 2.085-3.019 2.115-5.124 5.416-5.641 9.221-0.205 1.744-0.318 3.682-0.318 5.648 0 0.086 0 0.172 0.001 0.257-0 0.173-0 0.379-0 0.627h-7.783c0 0.165 0 0.289 0 0.392 0 3.262 0 6.503 0 9.765 0 0.434 0.186 0.495 0.537 0.495h7.246v24.155h-22.379l-0.434-0.124c-4.341-0.786-7.761-4.013-8.82-8.181-0.14-0.51-0.244-0.964-0.347-1.398v-44.676c0-0.227 0.124-0.454 0.186-0.681 0.835-4.151 3.902-7.418 7.87-8.528 0.642-0.209 1.296-0.342 1.973-0.389l43.71-0.001c0.37 0.018 0.718 0.062 1.056 0.131 4.323 0.756 7.77 3.989 8.837 8.174 0.14 0.428 0.244 0.964 0.347 1.295z"></path>
</svg>
