<!-- Generated by IcoMoon.io -->
<svg version="1.1" xmlns="http://www.w3.org/2000/svg" width="64" height="64" viewBox="0 0 64 64">
<title>favorite</title>
<path d="M32 64c-17.673 0-32-14.327-32-32s14.327-32 32-32c17.666 0 31.989 14.316 32 31.979 0 0.007 0 0.014 0 0.021 0 17.673-14.327 32-32 32 0 0 0 0 0 0zM32 2.27c-16.419 0-29.73 13.311-29.73 29.73s13.311 29.73 29.73 29.73c16.419 0 29.73-13.311 29.73-29.73v0c-0.079-16.388-13.342-29.651-29.722-29.73z"></path>
<path d="M31.98 46.059l-3.823-5.018-3.465 1.434v12.645l7.288-5.934 7.288 5.954 0.020-12.665-3.465-1.434-3.843 5.018z"></path>
<path d="M49.782 26.723l-4.62-3.544 2.25-5.377-5.795-0.757-0.697-5.795-5.377 2.25-3.544-4.64-3.544 4.62-5.377-2.23-0.757 5.775-5.795 0.757 2.25 5.377-4.64 3.544 4.64 3.544-2.25 5.377 5.795 0.757 0.737 5.795 5.396-2.25 3.525 4.64 3.544-4.64 5.396 2.25 0.757-5.775 5.775-0.757-2.23-5.377zM31.861 37.556c-5.994 0-10.852-4.859-10.852-10.852s4.859-10.852 10.852-10.852c5.994 0 10.852 4.859 10.852 10.852 0 0 0 0.001 0 0.001 0 5.945-4.78 10.773-10.706 10.852z"></path>
<path d="M32 17.026c-5.345 0-9.678 4.333-9.678 9.678s4.333 9.678 9.678 9.678c5.345 0 9.678-4.333 9.678-9.678s-4.333-9.678-9.678-9.678zM32 34.29c-4.19 0-7.587-3.397-7.587-7.587s3.397-7.587 7.587-7.587c4.19 0 7.587 3.397 7.587 7.587s-3.397 7.587-7.587 7.587z"></path>
</svg>
