<!-- Generated by IcoMoon.io -->
<svg version="1.1" xmlns="http://www.w3.org/2000/svg" width="64" height="64" viewBox="0 0 64 64">
<title>favorites2</title>
<path d="M41.402 17.065c-0.006 0-0.010 0-0.017 0-0.004 0-0.008 0-0.014 0-4.49 0-8.266 3.039-9.396 7.17-0.004-0.012-0.006-0.023-0.010-0.035-1.14-4.115-4.909-7.135-9.387-7.135-0.004 0-0.008 0-0.012 0-0.006 0-0.010 0-0.017 0-5.397 0-9.773 4.362-9.773 9.742 0 1.963 0.514 3.925 1.373 5.834 0.010-0.017 0.023-0.031 0.035-0.047 2.188 4.924 6.672 9.495 10.591 12.825-0.004 0.002-0.010 0.004-0.014 0.006 3.741 3.167 6.966 5.207 7.201 5.355 0.002 0.002 0.002 0.002 0.004 0.002h0.002c0.004 0.002 0.008 0.006 0.008 0.006s19.198-11.962 19.198-23.981c0.002-5.38-4.373-9.742-9.771-9.742z"></path>
<path d="M31.975 0c-17.645 0-32 14.355-32 32s14.357 32 32 32 32-14.355 32-32-14.355-32-32-32zM31.975 61.541c-16.289 0-29.541-13.252-29.541-29.541 0-16.291 13.252-29.543 29.541-29.543s29.543 13.254 29.543 29.543c0 16.289-13.254 29.541-29.543 29.541z"></path>
</svg>
