<!-- Generated by IcoMoon.io -->
<svg version="1.1" xmlns="http://www.w3.org/2000/svg" width="64" height="64" viewBox="0 0 64 64">
<title>favorites</title>
<path d="M47.711 5.485c-0.008 0-0.019 0-0.027 0s-0.014 0-0.023 0c-7.482 0-13.779 4.866-15.661 11.485-0.006-0.019-0.012-0.037-0.017-0.056-1.901-6.59-8.182-11.429-15.645-11.429-0.008 0-0.014 0-0.023 0s-0.017 0-0.027 0c-8.995 0-16.289 6.986-16.289 15.604 0 3.144 0.859 6.286 2.288 9.344 0.019-0.025 0.039-0.050 0.058-0.074 3.65 7.886 11.122 15.209 17.654 20.54-0.008 0.004-0.017 0.008-0.025 0.010 6.237 5.072 11.611 8.341 12.001 8.578 0.004 0.002 0.004 0.002 0.008 0.004l0.002 0.002c0.006 0.004 0.014 0.008 0.014 0.008v0 0c0 0 32-19.161 32-38.412 0-8.617-7.294-15.604-16.289-15.604z"></path>
</svg>
