<!-- Generated by IcoMoon.io -->
<svg version="1.1" xmlns="http://www.w3.org/2000/svg" width="64" height="64" viewBox="0 0 64 64">
<title>game</title>
<path d="M45.392 29.205h0.004c1.59 0 2.884 1.274 2.886 2.851-0.004 1.571-1.301 2.853-2.894 2.853h-0.002c-1.59 0-2.884-1.276-2.878-2.849 0-1.575 1.29-2.855 2.882-2.855 0 0 0 0 0.002 0zM39.22 28.819c-1.59 0-2.876-1.274-2.866-2.851 0-1.575 1.286-2.853 2.878-2.853 0.002 0 0.004 0 0.006 0 1.594 0 2.888 1.28 2.888 2.853-0.004 1.569-1.297 2.847-2.89 2.851-0.006 0-0.012 0-0.017 0zM51.553 28.814c-1.592 0-2.894-1.276-2.89-2.847 0-1.569 1.294-2.853 2.884-2.853 0.002 0 0.006 0 0.008 0 0 0 0.002 0 0.004 0 1.59 0 2.878 1.276 2.88 2.851-0.006 1.565-1.297 2.847-2.886 2.849zM12.565 24.198l4.418-0.006 0.002-0.254v-4.113c-0.008-0.547 0.213-1.057 0.593-1.441 0.392-0.386 0.915-0.593 1.472-0.599 1.133 0.006 2.056 0.919 2.060 2.042l-0.002 4.11v0.254l0.258 0.008 4.193-0.006c1.131 0 2.060 0.915 2.060 2.038 0 0.549-0.217 1.063-0.603 1.449-0.388 0.384-0.915 0.601-1.462 0.603l-4.445-0.004-0.004 0.254v4.141c0 0.551-0.217 1.067-0.601 1.451-0.39 0.384-0.908 0.588-1.468 0.593-0.549 0-1.074-0.209-1.462-0.601-0.394-0.384-0.599-0.894-0.597-1.439l0.004-4.143-0.004-0.254-0.252 0.006h-4.16c-0.559-0.012-1.074-0.217-1.468-0.601-0.388-0.384-0.595-0.898-0.599-1.435 0-0.555 0.217-1.074 0.599-1.453 0.394-0.388 0.894-0.595 1.441-0.595 0.008-0.006 0.017-0.006 0.025-0.006zM45.382 22.724c-1.594 0-2.876-1.272-2.872-2.851 0-1.571 1.286-2.849 2.876-2.849 0.002 0 0.004 0 0.006 0h0.002c1.594 0 2.888 1.278 2.886 2.855 0.002 1.569-1.294 2.847-2.882 2.847-0.002 0-0.002 0-0.002 0-0.006-0.002-0.010-0.002-0.014-0.002zM47.038 8.919c-5.046 0.002-11.117 6.664-11.117 6.664l-7.595 0.006c0 0-5.518-6.656-11.386-6.656s-11.008 6.134-14.173 17.712c-2.938 10.744-5.867 27.491 4.43 27.491 9.057 0 18.95-13.981 18.95-13.981h11.817c0 0 9.321 13.971 18.791 13.971 10.3 0 7.294-17.272 4.963-27.503-3.082-13.525-9.643-17.703-14.681-17.703z"></path>
</svg>
