<!-- Generated by IcoMoon.io -->
<svg version="1.1" xmlns="http://www.w3.org/2000/svg" width="64" height="64" viewBox="0 0 64 64">
<title>geschiedenis</title>
<path d="M25.387 36.949c-1.664 1.664-3.755 1.963-6.059 1.835 0 0.213-0.043 0.384 0 0.512 0.256 1.109 0.171 2.219 0.043 3.371-0.171 1.237-0.299 2.475-0.469 3.669-0.171 1.152-0.469 2.304-0.683 3.456-0.213 0.981-0.384 1.92-0.597 2.944 0.299-0.043 0.555-0.085 0.768-0.128 2.048-0.64 3.968-1.493 5.76-2.603s3.541-2.219 5.333-3.328c0.171-0.085 0.427-0.128 0.64-0.085 1.408 0.299 2.816 0.64 4.224 0.981 1.579 0.384 3.157 0.768 4.736 1.152 0.299 0.085 0.597 0.128 0.939 0.213-0.043-0.213-0.043-0.427-0.128-0.597-0.811-1.621-0.768-3.285-0.469-4.949 0.213-1.109 0.64-2.219 0.981-3.328 0.555-1.792 1.024-3.627 0.64-5.504-0.512-2.603-1.877-4.779-4.096-6.443-1.536-1.152-3.285-1.92-5.205-2.176-1.792-0.256-3.584-0.128-5.376 0.384-2.133 0.64-3.968 1.664-5.547 3.157-1.109 1.024-1.877 2.261-2.432 3.627-0.725 1.792-1.536 3.541-2.475 5.248-0.768 1.365-1.835 2.603-2.731 3.883-0.043 0.085-0.128 0.171-0.128 0.384 1.536-0.299 3.029-0.555 4.437-0.811 0.085-1.067 0.043-2.005 0.299-2.901 0.64-2.347 2.645-4.011 5.504-3.328 0.768 0.171 1.493 0.64 2.091 1.365z"></path>
<path d="M15.957 12.16c1.195 2.517 2.389 4.992 3.541 7.509 0.64-0.213 1.152-0.469 1.749-0.64 0.896-0.299 1.835-0.555 2.731-0.768 1.92-0.427 3.883-0.597 5.888-0.512 2.731 0.128 5.376 0.683 7.851 1.835 1.408 0.64 2.773 1.365 3.968 2.304 1.579 1.237 2.901 2.688 3.968 4.352 0.981 1.579 1.707 3.243 1.92 5.035 0.171 1.109 0 2.261-0.043 3.413 0 0.384-0.085 0.768-0.128 1.109-0.213 1.664-0.469 3.328-0.64 5.035-0.171 1.664 0.128 3.328 0.683 4.907 0.683 1.963 1.792 3.627 3.797 4.608 0.512 0.256 1.024 0.555 1.835 0.427-0.299-0.299-0.469-0.597-0.725-0.768-1.152-0.853-1.621-2.048-2.005-3.328-0.384-1.237-0.384-2.517-0.171-3.755 0.213-1.28 0.555-2.517 1.024-3.755 0.725-1.963 1.579-3.883 1.664-5.973 0.043-1.408 0.213-2.773 0.128-4.181-0.085-1.664-0.341-3.371-1.024-4.949-0.469-1.067-0.939-2.176-1.493-3.2-0.939-1.792-2.432-3.157-3.968-4.523-1.877-1.664-3.968-3.072-6.272-4.181-1.28-0.597-2.603-1.109-3.925-1.536-1.877-0.64-3.797-1.109-5.803-1.195-1.664-0.085-3.328-0.213-4.949-0.085-1.963 0.128-3.925 0.469-5.76 1.109-1.152 0.384-2.219 0.896-3.328 1.408-0.213 0-0.341 0.128-0.512 0.299z"></path>
<path d="M31.36 19.029c-2.56-0.555-4.864-0.171-7.211 0.597 0.939 0.171 1.749 0.299 2.517 0.512 0.939 0.256 1.792 0.683 2.389 1.365 0.725 0.811 1.365 1.707 1.536 2.816 0.597 0.171 0.768 0.085 0.768-0.512 0.043-1.536 0.043-3.115 0-4.779z"></path>
<path d="M46.208 36.864c0.555-1.109 0.427-5.291-0.128-5.845-1.365 0.171-2.731 0.341-4.139 0.512 0.085 0.384 0.128 0.64 0.171 0.981 2.816 0.213 3.541 2.219 4.096 4.352z"></path>
<path d="M35.115 19.584c-0.896-0.171-1.707-0.341-2.688-0.512-0.043 1.835-0.085 3.584-0.128 5.376 0.427 0.085 0.853 0.171 1.365 0.256 0.683-1.621 1.109-3.328 1.451-5.12z"></path>
<path d="M36.011 19.84c-0.597 1.792-1.152 3.413-1.664 5.12 0.427 0.171 0.853 0.384 1.323 0.597 1.067-1.408 1.792-2.987 2.603-4.693-0.768-0.384-1.451-0.683-2.261-1.024z"></path>
<path d="M41.045 22.656c-0.469-0.597-1.024-1.109-1.877-1.195-0.939 1.451-1.877 2.901-2.816 4.395 0.384 0.299 0.725 0.683 1.323 0.597 1.109-1.28 2.219-2.517 3.371-3.797z"></path>
<path d="M43.221 24.96c-0.384-0.768-0.896-1.323-1.664-1.749-1.152 1.237-2.304 2.432-3.541 3.712 0.256 0.299 0.555 0.597 0.811 0.853 1.493-0.939 2.944-1.877 4.395-2.816z"></path>
<path d="M39.765 28.203c0.256 0.427 0.469 0.725 0.725 1.152 1.536-0.683 2.987-1.323 4.48-1.963 0-0.555-0.597-1.493-1.195-1.835-1.323 0.853-2.645 1.749-4.011 2.645z"></path>
<path d="M40.875 29.781c0.213 0.469 0.341 0.811 0.469 1.109 1.664-0.256 3.2-0.512 4.693-0.768 0.085-0.555-0.256-1.365-0.768-1.835-1.408 0.469-2.816 0.939-4.395 1.493z"></path>
</svg>
