<!-- Generated by IcoMoon.io -->
<svg version="1.1" xmlns="http://www.w3.org/2000/svg" width="64" height="64" viewBox="0 0 64 64">
<title>groups</title>
<path d="M44.373 58.453c0-0.213 0-0.213 0-0.427 0-7.253 0-14.507 0-21.76 0-5.12-2.56-8.96-7.253-11.307-4.48-2.133-9.813-1.493-13.44 1.707-2.987 2.56-4.48 5.76-4.48 9.6 0 7.040 0 14.293 0 21.333 0 0.213 0 0.427 0 0.64 8.747 0.213 16.853 0.213 25.173 0.213zM46.507 53.333c0.213 0 0.213 0 0.213 0 2.773 0 5.76 0 8.533 0 0.427 0 0.427-0.213 0.427-0.427 0-5.333 0-10.453 0-15.787-0.213-4.267-4.053-7.893-8.533-7.893-0.853 0-1.707 0-2.56 0.427 1.28 2.56 1.707 5.333 1.707 8.107 0 4.907 0 9.813 0 14.72 0.213 0.427 0.213 0.64 0.213 0.853zM17.493 53.333c0-0.213 0-0.427 0-0.853 0-5.333 0-10.453 0-15.787 0-0.853 0-1.92 0.213-2.773 0.427-1.493 0.853-2.987 1.28-4.48-0.853 0-1.707-0.213-2.56-0.213-4.693 0.213-8.32 3.84-8.32 8.747s0 9.813 0 14.72c0 0.64 0.213 0.64 0.64 0.64 2.773 0 5.333 0 8.107 0 0.213 0 0.427 0 0.64 0zM32 21.547c4.48 0 7.893-3.627 7.893-7.893s-3.627-7.893-8.107-7.893c-4.267 0-7.893 3.627-7.893 8.107 0.213 4.053 3.84 7.68 8.107 7.68zM56.32 32.64c1.28 1.92 1.493 4.053 1.493 6.4 0 3.2 0 6.4 0 9.6 0 0.427 0.213 0.64 0.64 0.64 1.707 0 3.2 0 4.907 0 0.427 0 0.64-0.213 0.64-0.64 0-3.413 0-6.613 0-10.027 0-2.56-1.067-4.48-3.2-5.547-1.28-0.853-2.773-1.067-4.48-0.427zM7.467 32.64c-1.28-0.427-3.2-0.427-4.267 0.427-2.133 1.067-3.2 2.987-3.2 5.547 0 3.413 0 6.613 0 10.027 0 0.427 0.213 0.64 0.64 0.64 1.707 0 3.2 0 4.907 0 0.64 0 0.64-0.213 0.64-0.853 0-3.413 0-6.827 0-10.24 0-1.493 0.213-2.773 0.64-4.053 0.213-0.427 0.427-1.067 0.64-1.493zM11.307 21.76c0 2.987 2.56 5.333 5.333 5.333 2.987 0 5.333-2.56 5.333-5.333 0-2.987-2.56-5.333-5.333-5.333s-5.333 2.56-5.333 5.333zM52.693 21.76c0-2.987-2.347-5.333-5.333-5.333s-5.333 2.56-5.333 5.333c0 2.987 2.56 5.333 5.333 5.333 2.987 0 5.333-2.347 5.333-5.333zM5.973 23.040c-2.133 0-3.627 1.493-3.627 3.627 0 1.92 1.707 3.627 3.627 3.627s3.627-1.707 3.627-3.627c0-1.92-1.493-3.627-3.627-3.627zM61.653 26.667c0-1.92-1.493-3.627-3.627-3.627-1.92 0-3.627 1.493-3.627 3.627 0 1.92 1.707 3.627 3.627 3.627s3.627-1.707 3.627-3.627z"></path>
</svg>
