<!-- Generated by IcoMoon.io -->
<svg version="1.1" xmlns="http://www.w3.org/2000/svg" width="64" height="64" viewBox="0 0 64 64">
<title>hourglass</title>
<path d="M52 63.6h-39.4l1.6-2.8c0 0 1-2 1-7.2 0-4.4 1-7.6 1-7.8 1.4-5.2 5.4-10 10-12 0.6-0.2 0.8-1 0.8-1.8s-0.4-1.6-0.8-1.8c-4.8-2-8.8-6.8-10.2-12 0-0.2-1-3.4-1-7.8 0-5.2-0.8-7.2-0.8-7.2l-1.6-2.8h39.4l-1.6 2.8c0 0-1 2-1 7.2 0 4.4-1 7.6-1 7.8-1.4 5.2-5.4 10-10 12-0.6 0.2-0.8 1-0.8 1.8s0.4 1.6 0.8 1.8c4.8 2 8.8 6.8 10.2 12 0 0.2 1 3.4 1 7.8 0.2 5.2 1 7.2 1 7.2l1.4 2.8zM18.4 59.8h28c-0.2-1.4-0.6-3.4-0.6-6.2 0-3.8-1-6.8-1-6.8-1.2-4.2-4.4-8-8-9.6-1.8-0.8-3-2.8-3.2-5.2v0 0c0-2.4 1.4-4.4 3.2-5.2 3.6-1.6 6.8-5.4 8-9.6 0 0 0.8-3 1-6.8 0-2.8 0.4-4.8 0.6-6.2h-28c0.2 1.4 0.6 3.4 0.6 6.2 0 3.8 0.8 6.8 1 6.8 1.2 4.2 4.4 8 8 9.6 1.8 0.8 3 2.8 3.2 5.2v0 0c0 2.4-1.4 4.4-3.2 5.2-3.6 1.6-6.8 5.4-8 9.6 0 0-0.8 3-1 6.8-0.2 2.8-0.4 4.8-0.6 6.2z"></path>
<path d="M22 11.8c0 2.8 0.6 5 0.6 5 0.8 3 3.2 6 6.2 7.4 0.4 0.2 1.8 0.8 3.4 0.8s3.2-0.6 3.8-0.8c3-1.2 5.4-4.4 6.2-7.4 0 0 0.6-2.2 0.6-5h-20.8z"></path>
<path d="M32.4 46.8c-4 0-10.2 4.4-10.2 10h20.6c-0.2-5.6-6.2-10-10.4-10z"></path>
</svg>
