<!-- Generated by IcoMoon.io -->
<svg version="1.1" xmlns="http://www.w3.org/2000/svg" width="64" height="64" viewBox="0 0 64 64">
<title>increase</title>
<path d="M32 64c-17.673 0-32-14.327-32-32s14.327-32 32-32c17.666 0 31.989 14.316 32 31.979-0.011 17.674-14.329 31.998-31.998 32.021zM32 2.27c-16.419 0-29.73 13.311-29.73 29.73s13.311 29.73 29.73 29.73c16.419 0 29.73-13.311 29.73-29.73 0-0.007 0-0.014 0-0.021-0.034-16.401-13.327-29.686-29.728-29.709z"></path>
<path d="M43.948 11.131l1.334 11.43c-2.867-1.991-4.162-0.358-5.715 1.055-5.573 5.493-13.026 9.093-21.307 9.75 5.875-1.878 10.856-5.544 14.341-10.365 0.614-0.879 1.092-1.715 1.65-2.511 1.115-1.593 1.991-3.166-0.896-4.68z"></path>
<path d="M47.572 37.118c0 2.808 0 5.615 0 8.423 0 1.991-1.155 2.589-3.007 2.569s-3.186-0.199-3.186-2.37c0-5.815 0-11.609 0-17.424 0-2.29 1.653-2.469 3.445-2.489 0.116-0.020 0.249-0.031 0.385-0.031 1.331 0 2.409 1.079 2.409 2.409 0 0.166-0.017 0.328-0.049 0.485 0.003 2.792 0.003 5.6 0.003 8.408v0z"></path>
<path d="M38.85 39.627c0 1.991 0 3.863 0 5.795 0 2.25-1.215 2.708-3.166 2.688-0.162 0.041-0.349 0.064-0.541 0.064-1.276 0-2.31-1.034-2.31-2.31 0-0.157 0.016-0.309 0.045-0.457q0.117-5.959-0.002-11.933c0-2.151 1.115-2.569 2.927-2.569s3.047 0.438 3.007 2.549 0.040 4.142 0.040 6.173z"></path>
<path d="M24.174 42.534c0-0.777 0-1.553 0-2.31-0.059-0.205-0.093-0.441-0.093-0.685 0-1.419 1.15-2.569 2.569-2.569 0.174 0 0.343 0.017 0.508 0.050 0.158-0.045 0.358-0.069 0.563-0.069 1.43 0 2.589 1.159 2.589 2.589 0 0.2-0.023 0.394-0.065 0.581 0.003 1.317 0.003 2.671 0.003 3.965 0 2.111 0.139 3.983-3.007 3.983s-3.146-1.732-3.047-3.983c0-0.398-0.020-0.976-0.020-1.553z"></path>
<path d="M18.619 48.050c-2.21 0.319-3.186-0.558-3.146-2.848s0.597-3.266 2.947-3.266 3.146 0.737 3.106 3.007-0.458 3.465-2.907 3.106z"></path>
</svg>
