<!-- Generated by IcoMoon.io -->
<svg version="1.1" xmlns="http://www.w3.org/2000/svg" width="64" height="64" viewBox="0 0 64 64">
<title>increase-lg</title>
<path d="M53.703 0.579l2.222 19.022c-4.77-3.314-6.926-0.595-9.512 1.756-9.272 9.141-21.676 15.132-35.458 16.226 9.777-3.126 18.068-9.227 23.867-17.249 1.021-1.463 1.818-2.854 2.746-4.18 1.855-2.65 3.314-5.269-1.49-7.788l17.625-7.787z"></path>
<path d="M59.735 43.827c0 4.672 0 9.344 0 14.018 0 3.313-1.923 4.309-5.004 4.273-3.082-0.032-5.302-0.328-5.302-3.942 0-9.677 0-19.321 0-28.999 0-3.81 2.75-4.108 5.732-4.141 0.192-0.034 0.413-0.052 0.64-0.052 2.214 0 4.011 1.795 4.011 4.009 0 0.277-0.027 0.545-0.081 0.808 0.004 4.646 0.004 9.321 0.004 13.994v0 0.032z"></path>
<path d="M45.221 48.002c0 3.313 0 6.431 0 9.645 0 3.745-2.022 4.507-5.27 4.472-0.271 0.068-0.58 0.106-0.902 0.106-2.121 0-3.843-1.72-3.843-3.843 0-0.261 0.027-0.516 0.076-0.762 0.13-6.612 0.128-13.23-0.004-19.855 0-3.583 1.856-4.278 4.87-4.278 3.016 0 5.071 0.729 5.007 4.242-0.068 3.511 0.066 6.894 0.066 10.273v0z"></path>
<path d="M20.797 52.84c0-1.293 0-2.587 0-3.843-0.099-0.343-0.155-0.735-0.155-1.141 0-2.361 1.915-4.274 4.275-4.274 0.291 0 0.571 0.026 0.846 0.080 0.263-0.075 0.596-0.113 0.938-0.113 2.379 0 4.308 1.927 4.308 4.31 0 0.333-0.039 0.654-0.108 0.967 0.005 2.191 0.005 4.444 0.005 6.599 0 3.514 0.231 6.627-5.003 6.627s-5.235-2.882-5.071-6.627c-0.002-0.666-0.035-1.627-0.035-2.585v0z"></path>
<path d="M11.552 62.019c-3.678 0.531-5.303-0.928-5.235-4.738 0.066-3.811 0.993-5.435 4.903-5.435s5.236 1.226 5.169 5.005c-0.066 3.776-0.762 5.766-4.837 5.168v0z"></path>
</svg>
