<!-- Generated by IcoMoon.io -->
<svg version="1.1" xmlns="http://www.w3.org/2000/svg" width="64" height="64" viewBox="0 0 64 64">
<title>klok</title>
<path d="M45.719 60.918c-4.158 1.98-8.809 3.082-13.719 3.082-4.808 0-9.369-1.059-13.463-2.961l-3.097-1.652c-2.116-1.282-4.071-2.802-5.83-4.523l-2.802-3.128c-4.265-5.436-6.809-12.29-6.809-19.735 0-8.838 3.582-16.838 9.373-22.629 5.791-5.787 13.791-9.369 22.627-9.369v0c8.836 0 16.838 3.582 22.627 9.369 5.791 5.793 9.373 13.791 9.373 22.629 0 7.3-2.444 14.030-6.559 19.413-4.335 5.743-11.722 9.503-11.722 9.503zM32 27.974c-0.242 0-0.479 0.021-0.708 0.062l-10.003-13.851-1.416 1.016-1.416 1.022 10.003 13.859c-0.31 0.572-0.485 1.226-0.485 1.92 0 1.113 0.45 2.118 1.179 2.849h0.002c0.727 0.727 1.734 1.179 2.845 1.179 1.113 0 2.118-0.452 2.847-1.179v0h0.002c0.729-0.729 1.179-1.736 1.179-2.849 0-0.39-0.056-0.768-0.159-1.127l10.314-9.255-2.329-2.599-10.318 9.257c-0.473-0.196-0.991-0.303-1.536-0.303v0zM50.911 13.091c-4.839-4.839-11.524-7.831-18.911-7.831-7.385 0-14.070 2.992-18.907 7.831-4.839 4.839-7.835 11.526-7.835 18.911s2.994 14.072 7.835 18.909c4.837 4.839 11.524 7.835 18.907 7.835 7.387 0 14.072-2.996 18.911-7.835 4.837-4.837 7.833-11.524 7.833-18.909s-2.996-14.072-7.833-18.911z"></path>
</svg>
