<!-- Generated by IcoMoon.io -->
<svg version="1.1" xmlns="http://www.w3.org/2000/svg" width="64" height="64" viewBox="0 0 64 64">
<title>laptop-text</title>
<path d="M17.366 36.965h29.428v-19.459c0-0.002 0-0.003 0-0.005 0-0.208-0.084-0.396-0.219-0.533l0 0c-0.137-0.136-0.325-0.219-0.533-0.219-0.002 0-0.004 0-0.005 0h-27.514c-0.634 0.011-1.145 0.522-1.156 1.155v19.062zM36.087 28.611h3.988l-1.336 2.971-2.692-2.951zM40.633 29.647l2.971 1.475-0.797 1.635-2.851-1.436-0.558 1.256-0.279 0.638-0.478-0.518-3.848-4.227-0.817-0.738h7.457l-0.279 0.638-0.598 1.336zM20.994 28.012h8.793v1.994h-8.793v-1.994zM20.994 23.746h13.956v1.894h-13.956v-1.814zM20.994 19.758h13.956v1.894h-13.956v-1.774zM11.026 41.211h42.886v4.147c0.004 0.054 0.007 0.116 0.007 0.179 0 1.332-1.080 2.412-2.412 2.412-0.002 0-0.005 0-0.007 0h-38.998c-0.671-0.001-1.277-0.275-1.714-0.718l-0-0c-0.455-0.439-0.738-1.055-0.738-1.737 0-0.013 0-0.026 0-0.040v-4.145h0.957zM52.017 43.105h-39.975v2.253c0.001 0.148 0.062 0.282 0.159 0.379l0 0c0.095 0.098 0.227 0.16 0.374 0.16 0.002 0 0.003 0 0.005 0h38.918c0.044 0.014 0.094 0.022 0.145 0.022 0.102 0 0.196-0.030 0.275-0.083 0.093-0.090 0.153-0.216 0.158-0.357v-2.274zM48.209 39.696h-33.675v-21.931c0-2.202 1.785-3.988 3.988-3.988h27.514c0.99 0.003 1.885 0.406 2.532 1.057l0 0c0.652 0.646 1.056 1.542 1.057 2.532v22.45h-1.416z"></path>
<path d="M31.98 64c-17.665-0.011-31.98-14.334-31.98-32 0-17.673 14.327-32 32-32s32 14.327 32 32c-0.023 17.671-14.347 31.989-32.019 32zM31.98 2.193c-16.517 0-29.906 13.39-29.906 29.907s13.39 29.907 29.907 29.907c16.517 0 29.907-13.39 29.907-29.907 0-0.035-0-0.070-0-0.105-0.057-16.469-13.425-29.801-29.906-29.801-0 0-0 0-0 0z"></path>
</svg>
