<!-- Generated by IcoMoon.io -->
<svg version="1.1" xmlns="http://www.w3.org/2000/svg" width="64" height="64" viewBox="0 0 64 64">
<title>laptop-images</title>
<path d="M17.246 36.965h29.428v-19.459c0-0.002 0-0.003 0-0.005 0-0.208-0.084-0.396-0.219-0.533l0 0c-0.129-0.128-0.303-0.21-0.497-0.219l-27.536-0c-0.634 0.011-1.145 0.522-1.156 1.155v19.061zM10.906 41.311h42.906v4.147c0.001 0.018 0.001 0.039 0.001 0.060 0 1.332-1.080 2.412-2.412 2.412-0 0-0.001 0-0.001 0h-38.998c-0.671-0.001-1.277-0.275-1.714-0.718l-0-0c-0.386-0.426-0.622-0.994-0.622-1.617 0-0.048 0.001-0.096 0.004-0.144l-0-4.14h0.957zM51.938 43.205h-40.075v2.253c-0.002 0.017-0.003 0.037-0.003 0.058 0 0.17 0.079 0.321 0.201 0.42l0.001 0.001c0.095 0.098 0.227 0.16 0.374 0.16 0.002 0 0.003 0 0.005 0h38.958c0.142-0.002 0.269-0.063 0.359-0.159 0.113-0.096 0.184-0.238 0.184-0.396 0-0.022-0.001-0.044-0.004-0.066l0-2.27zM48.13 39.796h-33.715v-21.931c0-2.202 1.785-3.988 3.988-3.988h27.554c0.99 0.003 1.885 0.406 2.532 1.057l0 0c0.652 0.646 1.056 1.542 1.057 2.532v22.35h-1.435z"></path>
<path d="M19.439 18.024h6.579v5.423h-7.337v-5.423h0.758zM24.384 19.639h-4.187v2.373h4.187v-2.273zM40.334 29.966h5.044v5.423h-5.742v-5.403h0.778zM43.963 31.681v2.173h-2.791v-2.173h2.791zM27.215 29.986h11.604v5.423h-12.361v-5.423h0.758zM37.184 31.621v2.173h-9.171v-2.113h9.291zM38.26 24.005h2.273v-5.981h4.905v11.404h-7.975v-5.423h0.778zM41.311 25.64h0.778v-5.981h1.874v8.154h-4.925v-2.093h2.273zM31.103 24.005h5.722v5.423h-6.48v-5.423h0.778zM35.29 25.64v2.173h-3.409v-2.093h3.429zM24.184 24.005h5.822v5.423h-6.599v-5.423h0.778zM28.371 25.64v2.173h-3.429v-2.093h3.429zM34.692 18.024h4.925v5.423h-5.622v-5.423h0.778zM37.981 19.738v2.273h-2.532v-2.273h2.532zM27.873 18.024h4.925v5.423h-5.682v-5.423h0.778zM31.242 19.639v2.373h-2.592v-2.273h2.612zM19.439 29.986h5.862v5.423h-6.619v-5.423h0.758zM23.766 31.621v2.173h-3.549v-2.113h3.549zM19.439 24.005h3.629v5.423h-4.386v-5.423h0.758zM21.433 25.64v2.173h-1.216v-2.093h1.316z"></path>
<path d="M32 64c-17.575-0.057-31.8-14.317-31.8-31.9 0-17.618 14.282-31.9 31.9-31.9 17.576 0 31.832 14.214 31.9 31.774-0.011 17.679-14.329 32.004-31.998 32.026zM32 2.193c-16.517 0-29.906 13.39-29.906 29.907s13.39 29.907 29.907 29.907 29.907-13.39 29.907-29.907c0-0.042-0-0.084-0-0.126-0.068-16.459-13.431-29.78-29.906-29.78-0 0-0 0-0 0z"></path>
</svg>
