<!-- Generated by IcoMoon.io -->
<svg version="1.1" xmlns="http://www.w3.org/2000/svg" width="64" height="64" viewBox="0 0 64 64">
<title>laptop-content</title>
<path d="M17.246 36.965h29.448v-19.459c0-0.002 0-0.003 0-0.005 0-0.208-0.084-0.396-0.219-0.533l0 0c-0.133-0.132-0.316-0.215-0.518-0.219h-27.535c-0.634 0.011-1.145 0.522-1.156 1.155v19.062zM10.906 41.311h42.906v4.147c0.001 0.018 0.001 0.039 0.001 0.060 0 1.332-1.080 2.412-2.412 2.412-0 0-0.001 0-0.001 0h-38.998c-0.671-0.001-1.277-0.275-1.714-0.718l-0-0c-0.386-0.426-0.622-0.994-0.622-1.617 0-0.048 0.001-0.096 0.004-0.144l-0-4.14h0.957zM51.938 43.205h-40.075v2.253c-0.002 0.017-0.003 0.037-0.003 0.058 0 0.17 0.079 0.321 0.201 0.42l0.001 0.001c0.095 0.098 0.227 0.16 0.374 0.16 0.002 0 0.003 0 0.005 0h38.958c0.142-0.002 0.269-0.063 0.359-0.159 0.113-0.096 0.184-0.238 0.184-0.396 0-0.022-0.001-0.044-0.004-0.066l0-2.27zM48.13 39.796h-33.715v-21.931c0-2.202 1.785-3.988 3.988-3.988h27.554c0.99 0.003 1.885 0.406 2.532 1.057l0 0c0.652 0.646 1.056 1.542 1.057 2.532v22.35h-1.435z"></path>
<path d="M37.662 25.999l0.877 3.33 2.392-2.512-3.27-0.817zM28.611 22.829c-0.574 0.001-1.106 0.18-1.544 0.484l-3.042-1.84s0 0 0 0c0-0.007 0-0.015 0-0.023 0-0.492-0.19-0.94-0.5-1.274-0.306-0.328-0.741-0.533-1.225-0.533s-0.919 0.205-1.225 0.533c-0.313 0.338-0.504 0.79-0.504 1.287s0.191 0.949 0.505 1.287c0.308 0.33 0.747 0.536 1.235 0.537 0 0 0 0 0 0 0.317 0 0.613-0.089 0.864-0.243l2.844 1.659c-0.148 0.351-0.233 0.759-0.233 1.186s0.086 0.835 0.241 1.207l-2.36 1.734c-0.465-0.292-1.028-0.468-1.632-0.478-0.939 0.005-1.781 0.402-2.374 1.035l-0.002 0.002c-0.611 0.654-0.986 1.534-0.986 2.502s0.375 1.849 0.988 2.504l-0.002-0.002c0.595 0.64 1.442 1.040 2.383 1.040s1.787-0.399 2.381-1.038c0.616-0.659 0.993-1.544 0.993-2.518 0-0.649-0.168-1.26-0.462-1.79l2.302-1.696c0.394 0.234 0.869 0.372 1.376 0.372s0.982-0.138 1.388-0.379l1.981 3.596c-0.006 0.057-0.009 0.123-0.009 0.189s0.003 0.133 0.010 0.198c-0.001-0.001-0.001 0.007-0.001 0.015 0 0.492 0.19 0.94 0.5 1.274 0.306 0.328 0.741 0.533 1.225 0.533s0.919-0.205 1.225-0.533c0.313-0.338 0.504-0.79 0.504-1.287s-0.191-0.949-0.505-1.287c-0.308-0.33-0.748-0.536-1.235-0.537-0.078-0.013-0.168-0.021-0.259-0.021s-0.181 0.008-0.269 0.022l-1.984-3.53c0.18-0.383 0.285-0.832 0.285-1.306s-0.105-0.923-0.294-1.325l3.258-2.872c0.228 0.123 0.498 0.196 0.786 0.196 0.474 0 0.903-0.197 1.208-0.514 0.313-0.337 0.504-0.79 0.504-1.287s-0.191-0.949-0.505-1.287c-0.306-0.328-0.741-0.533-1.225-0.533s-0.919 0.205-1.225 0.533c-0.31 0.331-0.5 0.777-0.5 1.266 0 0.011 0 0.022 0 0.032v0.118l-3.489 3.19c-0.397-0.249-0.879-0.397-1.395-0.399h-0zM29.727 24.643c-0.277-0.296-0.67-0.48-1.107-0.48s-0.829 0.184-1.106 0.479c-0.284 0.302-0.459 0.709-0.459 1.157 0 0.002 0 0.003 0 0.005 0 0.446 0.175 0.852 0.459 1.152 0.277 0.295 0.67 0.479 1.106 0.479s0.829-0.184 1.106-0.479c0.285-0.306 0.459-0.716 0.459-1.167s-0.174-0.861-0.459-1.167l0.001 0.001zM22.649 21.054c-0.083-0.086-0.2-0.139-0.329-0.139s-0.246 0.053-0.329 0.139c-0.085 0.088-0.138 0.207-0.14 0.339 0.002 0.132 0.055 0.251 0.14 0.339 0.083 0.086 0.2 0.139 0.329 0.139s0.246-0.053 0.329-0.139c0.088-0.090 0.143-0.213 0.143-0.349s-0.054-0.259-0.143-0.349l0 0zM35.549 19.659c-0.083-0.086-0.2-0.139-0.329-0.139s-0.246 0.053-0.329 0.139c-0.084 0.092-0.135 0.214-0.135 0.349s0.051 0.257 0.135 0.349c0.083 0.085 0.2 0.139 0.329 0.139s0.246-0.053 0.329-0.139c0.084-0.092 0.135-0.214 0.135-0.349s-0.051-0.257-0.135-0.349l0 0zM33.994 31.98c-0.083-0.086-0.2-0.139-0.329-0.139s-0.246 0.053-0.329 0.139c-0.085 0.088-0.138 0.207-0.14 0.339 0.002 0.132 0.055 0.251 0.14 0.339 0.083 0.086 0.2 0.139 0.329 0.139s0.246-0.053 0.329-0.139c0.085-0.088 0.138-0.207 0.14-0.339-0.004-0.132-0.056-0.251-0.14-0.34l0 0zM23.407 30.245c-0.367-0.408-0.896-0.664-1.485-0.664s-1.119 0.256-1.484 0.662l-0.002 0.002c-0.378 0.41-0.61 0.961-0.61 1.565s0.232 1.155 0.611 1.567l-0.001-0.002c0.367 0.408 0.896 0.664 1.485 0.664s1.119-0.256 1.484-0.662c0.384-0.41 0.619-0.961 0.619-1.567s-0.235-1.157-0.618-1.566l0.001 0.001zM41.231 28.252l3.19 3.17-1.156 1.296-3.21-3.19-1.455 1.535-0.618 0.917-0.279-1.116-1.435-5.523-0.279-1.077 6.44 1.615 0.997 0.12-0.797 0.837z"></path>
<path d="M32 64c-17.575-0.057-31.8-14.317-31.8-31.9 0-17.618 14.282-31.9 31.9-31.9 17.576 0 31.832 14.214 31.9 31.774-0.011 17.679-14.329 32.004-31.998 32.026zM32 2.193c-16.517 0-29.906 13.39-29.906 29.907s13.39 29.907 29.907 29.907 29.907-13.39 29.907-29.907c0-0.042-0-0.084-0-0.126-0.068-16.459-13.431-29.78-29.906-29.78-0 0-0 0-0 0z"></path>
</svg>
