<!-- Generated by IcoMoon.io -->
<svg version="1.1" xmlns="http://www.w3.org/2000/svg" width="64" height="64" viewBox="0 0 64 64">
<title>lesmateriaal</title>
<path d="M62.555 28.903c-0.206 0.619-0.619 1.239-1.239 1.652 0.413 0.206 0.619 0.826 0.619 1.239v6.194c0 0.619-0.413 1.032-1.032 1.239l-23.742 5.987c-0.206 0-0.619 0.206-1.032 0.206v0c-0.619 0-1.445 0-1.858-0.206l-31.174-11.355c-0.619-0.206-1.032-0.826-1.032-1.445v-6.194c0-0.413 0.206-0.826 0.619-1.032-0.619-0.413-1.032-1.032-1.032-1.858-1.032 0.619-1.652 1.652-1.652 2.89v6.194c0 1.445 1.032 2.89 2.271 3.51l31.174 11.148c0.619 0.206 1.652 0.413 2.477 0.413v0c0.619 0 1.032 0 1.652-0.206l23.742-5.987c1.445-0.413 2.477-1.858 2.477-3.303v-6.194c0.206-1.032-0.413-2.064-1.239-2.89z"></path>
<path d="M62.555 39.639c-0.206 0.619-0.619 1.239-1.239 1.652 0.413 0.206 0.619 0.826 0.619 1.239v6.194c0 0.619-0.413 1.032-1.032 1.239l-23.742 5.781c-0.206 0-0.619 0.206-1.032 0.206v0c-0.619 0-1.445 0-1.858-0.206l-31.174-11.148c-0.619-0.206-1.032-1.032-1.032-1.445v-6.194c0-0.413 0.206-0.826 0.619-1.032-0.619-0.413-1.032-1.032-1.032-1.858-1.032 0.619-1.652 1.652-1.652 2.89v6.194c0 1.445 1.032 2.89 2.271 3.51l31.174 11.148c0.619 0.206 1.652 0.413 2.477 0.413v0c0.619 0 1.032 0 1.652-0.206l23.742-5.781c1.445-0.413 2.477-1.858 2.477-3.303v-6.194c0.206-1.239-0.413-2.477-1.239-3.097z"></path>
<path d="M61.729 17.755l-31.381-11.148c-0.619-0.206-1.445-0.413-2.477-0.413-0.619 0-1.032 0-1.652 0.206l-23.535 5.781c-1.445 0.413-2.477 1.652-2.684 3.303v6.194c0 1.445 1.032 2.89 2.271 3.51l31.174 11.148c0.619 0.206 1.652 0.413 2.477 0.413v0c0.619 0 1.032 0 1.652-0.206l23.742-5.781c1.445-0.413 2.477-1.858 2.477-3.303v-6.194c0.206-1.652-0.826-3.097-2.065-3.51zM11.148 12.181l15.69-3.923c1.239-0.206 3.097-0.206 4.335 0.206l7.019 2.477c1.239 0.413 1.032 1.032 0 1.239l-15.69 3.923c-1.445 0.413-3.303 0.206-4.335-0.206l-7.019-2.477c-1.239-0.413-1.239-0.826 0-1.239zM61.935 27.458c0 0.619-0.413 1.032-1.032 1.239l-23.742 5.781c-0.206 0-0.619 0.206-1.032 0.206v0c-0.619 0-1.445 0-1.858-0.206l-31.174-11.355c-0.619-0.206-1.032-0.826-1.032-1.445v-6.194c0-0.413 0.413-1.032 0.826-1.239l31.174 11.148c1.032 0.413 2.477 0.413 3.51 0.206l23.535-5.781c0.413 0.206 0.826 0.826 0.826 1.239v6.4z"></path>
</svg>
