<!-- Generated by IcoMoon.io -->
<svg version="1.1" xmlns="http://www.w3.org/2000/svg" width="64" height="64" viewBox="0 0 64 64">
<title>lock</title>
<path d="M52.693 27.947h-0.853v-8.533c0-10.667-8.533-19.2-19.2-19.2s-19.2 8.533-19.2 19.2v8.533h-0.427c-1.707 0-3.2 1.493-3.2 3.2v29.227c0 1.707 1.493 3.2 3.2 3.2h39.68c1.707 0 3.2-1.493 3.2-3.2v-29.013c0-1.92-1.28-3.413-3.2-3.413zM37.76 52.907c0 0.64 0 1.067-0.427 1.493s-0.853 0.64-1.493 0.64h-5.973c-0.64 0-1.067-0.213-1.493-0.64s-0.427-1.067-0.427-1.493l1.493-9.387c-1.067-0.853-1.92-2.347-1.92-4.053 0-2.987 2.347-5.12 5.12-5.12s5.12 2.347 5.12 5.12c0 1.707-0.853 2.987-1.92 4.053l1.92 9.387zM44.8 27.947v0h-24.32v-8.533c0-6.827 5.547-12.16 12.16-12.16 6.827 0 12.16 5.547 12.16 12.16v8.533z"></path>
</svg>
