<!-- Generated by IcoMoon.io -->
<svg version="1.1" xmlns="http://www.w3.org/2000/svg" width="45" height="64" viewBox="0 0 45 64">
<title>marker</title>
<path d="M44.862 20.046v0c-0.537-10.983-10.323-19.778-22.421-20.046-12.098 0.268-21.884 9.063-22.421 20.046v0c0 0.31 0 0.619 0 0.929 0 8.423 7.556 13.461 13.378 20.377 6.751 8.010 9.063 22.71 9.063 22.71s2.333-14.637 9.063-22.71c5.801-6.895 13.378-11.933 13.378-20.377-0.021-0.31-0.021-0.619-0.041-0.929zM22.421 26.343c-0.082 0.004-0.179 0.006-0.276 0.006-3.489 0-6.338-2.739-6.515-6.184 0.342-3.5 3.257-6.2 6.802-6.2s6.46 2.7 6.8 6.155c-0.175 3.489-3.024 6.229-6.514 6.229-0.105 0-0.208-0.002-0.312-0.007z"></path>
</svg>
