<!-- Generated by IcoMoon.io -->
<svg version="1.1" xmlns="http://www.w3.org/2000/svg" width="64" height="64" viewBox="0 0 64 64">
<title>media</title>
<path d="M42.467 32.811c0.169-0.116 0.401-0.072 0.506 0.103 1.363 2.248 10.378 15.069 10.531 15.071 0.493 0.772-0.064 1.776-0.977 1.835-1.067 0.070-40.95 0.037-41.806 0-2.579-0.111-3.134-0.745-2.306-3.029 1.094-3.020 2.24-6.022 3.384-9.026 2.137-5.605 4.267-11.212 6.45-16.799 0.611-1.567 1.707-1.701 2.845-0.31 3.388 4.15 6.703 8.357 10.067 12.527 0.941 1.166 1.916 2.308 2.921 3.419 0.659 0.729 1.511 0.789 2.302 0.268 2.019-1.33 3.933-2.599 6.084-4.061z"></path>
<path d="M54.966 20.199c-0.155 2.93-3.010 5.5-6.022 5.421-3.043-0.078-5.791-2.777-5.783-5.677 0.008-3.291 2.876-5.83 6.392-5.661 3.111 0.151 5.576 2.843 5.413 5.917z"></path>
<path d="M64 52.352v-41.375c0-3.376-2.746-6.121-6.119-6.121h-51.762c-3.373-0.002-6.119 2.744-6.119 6.121v41.375c0 3.373 2.746 6.119 6.119 6.119h51.762c3.373 0 6.119-2.746 6.119-6.119zM6.119 55.878c-1.945 0-3.526-1.579-3.526-3.526v-41.375c0-1.945 1.581-3.528 3.526-3.528h51.762c1.945 0 3.526 1.584 3.526 3.528v41.375c0 1.945-1.581 3.526-3.526 3.526h-51.762z"></path>
</svg>
