<!-- Generated by IcoMoon.io -->
<svg version="1.1" xmlns="http://www.w3.org/2000/svg" width="64" height="64" viewBox="0 0 64 64">
<title>music</title>
<path d="M61.849-0.056l-42.544 7.884 0.045 37.944c-0.968-0.223-2.044-0.343-3.099-0.343-6.427 0-14.187 5.172-14.187 11.592 0 4.544 4.191 6.922 8.328 6.922 7.333 0 14.922-5.213 14.922-13.933v-31.86l30.571-5.665v26.808c-0.968-0.219-2.040-0.341-3.099-0.341-6.427 0-14.187 5.172-14.187 11.592 0 4.544 4.189 6.922 8.326 6.922 7.337 0 14.924-5.213 14.924-13.933l-0.002-43.59z"></path>
</svg>
