<!-- Generated by IcoMoon.io -->
<svg version="1.1" xmlns="http://www.w3.org/2000/svg" width="64" height="64" viewBox="0 0 64 64">
<title>open</title>
<path d="M32 64c-17.673 0-32-14.327-32-32s14.327-32 32-32c17.673 0 32 14.327 32 32-0.023 17.664-14.336 31.977-31.998 32zM32 2.193c-16.517 0-29.906 13.39-29.906 29.907s13.39 29.907 29.907 29.907c16.517 0 29.907-13.39 29.907-29.907 0-0.035-0-0.070-0-0.105-0.057-16.469-13.425-29.801-29.906-29.801-0 0-0 0-0 0z"></path>
<path d="M48.648 33.176v3.23c0 3.090 0 6.181 0 9.251 0.029 0.139 0.045 0.3 0.045 0.464 0 1.332-1.080 2.412-2.412 2.412-0.164 0-0.324-0.016-0.479-0.048l-27.040 0.003c-0.114 0.019-0.245 0.030-0.378 0.030-1.31 0-2.373-1.062-2.373-2.373 0-0.152 0.014-0.3 0.041-0.444q-0.002-13.702-0.002-27.4c-0.025-0.128-0.039-0.276-0.039-0.426 0-1.288 1.044-2.333 2.333-2.333 0.127 0 0.251 0.010 0.372 0.029 5.968-0.002 12.089-0.002 18.15-0.002 1.136 0 1.276 0.498 1.296 1.436 0.025 0.086 0.040 0.185 0.040 0.287 0 0.584-0.473 1.057-1.057 1.057-0.085 0-0.167-0.010-0.246-0.029-5.615 0.001-11.218 0.001-16.84 0.001-0.957 0-1.296 0.219-1.296 1.236q0 12.581 0 25.161c-0.025 0.081-0.040 0.174-0.040 0.27 0 0.517 0.42 0.937 0.937 0.937 0.085 0 0.167-0.011 0.246-0.033q12.454 0.002 24.916 0.002c0.937 0 1.117-0.359 1.117-1.196 0-2.412 0-4.825 0-7.237-0.029-0.156-0.045-0.336-0.045-0.52 0-1.134 0.623-2.123 1.545-2.642 0.447-0.371 0.837-0.736 1.207-1.12z"></path>
<path d="M41.171 34.512v-5.762c-7.636 2.831-14.275 6.32-17.306 14.614-0.095-0.693-0.149-1.493-0.149-2.306 0-1.969 0.317-3.864 0.903-5.636 2.237-6.672 7.44-10.321 13.92-12.653 2.712-0.997 2.712-0.957 2.712-3.868v-3.25l13.159 8.633-12.76 10.328z"></path>
</svg>
