<!-- Generated by IcoMoon.io -->
<svg version="1.1" xmlns="http://www.w3.org/2000/svg" width="66" height="64" viewBox="0 0 66 64">
<title>phone</title>
<path d="M58.439 63.936h-51.025c-1.924-0.438-3.338-2.134-3.338-4.16 0-0.126 0.005-0.25 0.016-0.373-0.001-2.264-0.001-4.565-0.001-6.844-0.003-0.123-0.005-0.267-0.005-0.413 0-2.154 0.425-4.209 1.195-6.086 2.982-7.153 6.395-13.383 10.377-19.191 0.448-0.639 1.578-1.286 2.859-1.286 0.052 0 0.104 0.001 0.155 0.003l1.974-0c0-1.704 0-3.345 0-4.985-0.005-0.063-0.008-0.137-0.008-0.212 0-1.132 0.635-2.115 1.568-2.614 0.758-0.498 1.668-0.79 2.647-0.79s1.889 0.292 2.649 0.794c0.845 0.501 1.414 1.428 1.414 2.488 0 0.058-0.002 0.115-0.005 0.171 0 1.143 0 2.293 0 3.465v1.683h8.245c0.002-0.029 0.003-0.062 0.003-0.096s-0.001-0.067-0.003-0.1c0-1.593 0-3.191 0-4.789-0.002-0.044-0.004-0.094-0.004-0.146 0-1.082 0.576-2.030 1.439-2.553 0.761-0.5 1.678-0.794 2.663-0.794 0.577 0 1.131 0.101 1.645 0.286 1.406 0.357 2.454 1.643 2.454 3.173 0 0.117-0.006 0.232-0.018 0.346q0.001 2.116 0.001 4.055c0 0.213 0 0.426 0 0.682h1.981c0.029-0.001 0.063-0.001 0.097-0.001 1.34 0 2.521 0.68 3.218 1.713 3.278 4.542 6.274 9.691 8.747 15.127 1.298 2.627 2.051 5.025 2.352 7.563 0.18 3.401 0.18 6.704 0.116 10.027-0.023 1.557-0.949 2.891-2.277 3.505-0.303 0.117-0.673 0.234-1.050 0.333zM32.98 34.109c-0.127-0.005-0.276-0.007-0.426-0.007-7.060 0-12.783 5.723-12.783 12.783s5.723 12.783 12.783 12.783c7.057 0 12.779-5.719 12.783-12.775 0.001-0.052 0.001-0.113 0.001-0.173 0-6.876-5.503-12.467-12.345-12.61z"></path>
<path d="M66.045 22.008c0 0.17-0.106 0.32-0.149 0.49-0.41 1.772-1.968 3.074-3.833 3.089q-4.263 0-8.311 0c-2.206-0.1-3.969-1.863-4.069-4.060-0-0.021-0-0.034-0-0.047 0-4.761-2.793-8.869-6.83-10.775-2.35-1.229-5.045-1.942-7.904-1.97-0.648-0.058-1.391-0.091-2.142-0.091-2.787 0-5.468 0.454-7.972 1.293-2.841 1.027-5.293 3.072-6.862 5.704-0.938 1.538-1.476 3.325-1.482 5.236 0.016 0.141 0.025 0.302 0.025 0.465 0 2.353-1.908 4.261-4.261 4.261-0.129 0-0.256-0.006-0.382-0.017l-6.759 0.001c-0.268 0.060-0.575 0.094-0.89 0.094-2.154 0-3.934-1.598-4.221-3.672l-0.003-6.265c0.333-1.925 1.239-3.598 2.534-4.878 1.954-1.966 4.101-3.734 6.412-5.275 4.335-2.706 9.309-4.465 14.643-5.004 3.024-0.397 6.352-0.617 9.732-0.617s6.708 0.22 9.972 0.646c7.532 0.876 14.484 4.425 19.704 9.693 1.216 1.077 2.141 2.45 2.668 4.006 0.147 0.534 0.232 1.003 0.339 1.472v6.136z"></path>
<path d="M32.98 38.37c0.089-0.003 0.193-0.005 0.298-0.005 4.707 0 8.522 3.815 8.522 8.522s-3.815 8.522-8.522 8.522c-4.705 0-8.519-3.812-8.522-8.516-0.001-0.039-0.001-0.084-0.001-0.13 0-4.576 3.662-8.297 8.216-8.392z"></path>
</svg>
