<!-- Generated by IcoMoon.io -->
<svg version="1.1" xmlns="http://www.w3.org/2000/svg" width="64" height="64" viewBox="0 0 64 64">
<title>pinterest</title>
<path d="M29.305 40.023v0l0.165 0.248c0.732 0.95 1.676 1.702 2.763 2.191 1.219 0.54 2.588 0.844 4.028 0.844 0.785 0 1.548-0.090 2.281-0.261 3.338-0.658 6.218-2.539 8.168-5.155 1.605-2.103 2.787-4.563 3.408-7.238 0.348-1.414 0.584-2.925 0.682-4.473 0.092-0.739 0.143-1.506 0.143-2.285s-0.050-1.546-0.148-2.299c-0.571-3.052-2.040-5.782-4.123-7.906-2.064-2.105-4.675-3.673-7.603-4.472-1.762-0.489-3.65-0.754-5.599-0.754-0.586 0-1.166 0.024-1.74 0.071-2.049 0.128-4.034 0.541-5.903 1.199-4.921 1.614-8.907 5.364-10.852 10.16-0.796 1.863-1.234 3.893-1.234 6.026 0 1.875 0.338 3.67 0.957 5.329 0.712 2.241 2.393 4.104 4.559 5.078 0.211 0.128 0.406 0.192 0.616 0.192 0.524 0 0.956-0.399 1.007-0.91 0.186-0.665 0.31-1.347 0.517-2.069 0.057-0.159 0.090-0.343 0.090-0.535 0-0.453-0.185-0.863-0.483-1.158-1.118-1.312-1.798-3.027-1.798-4.901 0-0.041 0-0.083 0.001-0.124-0-0.023-0-0.058-0-0.092 0-0.987 0.090-1.953 0.263-2.89 0.509-2.848 1.995-5.38 4.101-7.221 2.411-2.132 5.581-3.427 9.053-3.427 0.148 0 0.295 0.002 0.441 0.007 0.016-0.001 0.060-0.001 0.104-0.001 1.428 0 2.806 0.211 4.105 0.605 1.661 0.468 3.172 1.371 4.382 2.576 1.563 1.655 2.558 3.861 2.663 6.299 0.031 0.48 0.048 1.018 0.048 1.559s-0.017 1.079-0.051 1.611c-0.126 2.233-0.622 4.387-1.428 6.382-0.639 1.772-1.752 3.384-3.182 4.645-1.051 0.961-2.44 1.543-3.966 1.543-0.31 0-0.615-0.024-0.912-0.071-1.631-0.178-2.986-1.324-3.47-2.858-0.15-0.452-0.232-0.938-0.232-1.444s0.082-0.992 0.233-1.447c0.569-2.033 1.188-3.974 1.746-5.998 0.341-0.96 0.538-2.067 0.538-3.22 0-0.321-0.015-0.638-0.045-0.95-0.126-1.816-1.664-3.272-3.541-3.272-0.083 0-0.165 0.003-0.246 0.008l-0.588-0.001c-1.849 0.393-3.308 1.743-3.852 3.495-0.497 1.193-0.78 2.539-0.78 3.95s0.283 2.756 0.796 3.982c0.006 0.043 0.023 0.171 0.023 0.304s-0.018 0.26-0.051 0.382c-0.431 1.89-0.886 3.769-1.319 5.669-0.62 2.602-1.218 5.204-1.859 7.806-0.486 1.814-0.765 3.898-0.765 6.046 0 0.053 0 0.105 0 0.158l-0 1.458c0.051 1.368 0.176 2.657 0.375 3.922 0.013 0.008 0.126 0.169 0.283 0.268 0.044 0.016 0.090 0.025 0.139 0.025 0.169 0 0.315-0.102 0.379-0.248l1.054-1.448c1.369-1.821 2.514-3.919 3.333-6.172 0.714-2.233 1.189-4.299 1.726-6.364zM53.178 64h-42.357c-5.977 0-10.822-4.845-10.822-10.822v0-42.357c0-0.006 0-0.013 0-0.021 0-5.977 4.845-10.822 10.822-10.822 0 0 0 0 0 0h42.357c0.006 0 0.013 0 0.021 0 5.977 0 10.822 4.845 10.822 10.822 0 0.007 0 0.015 0 0.022v-0.001 42.357c0 0 0 0 0 0 0 5.977-4.845 10.822-10.822 10.822-0.007 0-0.014 0-0.022 0h0.001z"></path>
</svg>
