<!-- Generated by IcoMoon.io -->
<svg version="1.1" xmlns="http://www.w3.org/2000/svg" width="64" height="64" viewBox="0 0 64 64">
<title>play</title>
<path d="M32 64c-17.673 0-32-14.327-32-32s14.327-32 32-32c17.666 0 31.989 14.316 32 31.979-0.011 17.674-14.329 31.998-31.998 32.021zM32 2.27c-16.419 0-29.73 13.311-29.73 29.73s13.311 29.73 29.73 29.73c16.419 0 29.73-13.311 29.73-29.73 0-0.007 0-0.014 0-0.021-0.034-16.401-13.327-29.686-29.728-29.709z"></path>
<path d="M50.419 29.989c0.873 0.295 1.49 1.106 1.49 2.061s-0.617 1.766-1.474 2.056l-26.499 15.298c-0.379 0.33-0.877 0.531-1.423 0.531-1.199 0-2.171-0.972-2.171-2.17 0-0.124 0.010-0.246 0.030-0.365l-0.002-30.693c-0.018-0.106-0.029-0.228-0.029-0.352 0-1.199 0.972-2.171 2.171-2.171 0.545 0 1.044 0.201 1.425 0.533z"></path>
</svg>
