<!-- Generated by IcoMoon.io -->
<svg version="1.1" xmlns="http://www.w3.org/2000/svg" width="64" height="64" viewBox="0 0 64 64">
<title>polpo-small</title>
<path d="M64 37.042v-0.582c0 0-0.388 0-4.267-1.939-4.461-2.327-6.4-3.491-10.085-5.818s-5.236-4.267-8.145-5.042c-1.358-0.388-2.715-0.194-3.491 0h-0.194c-1.164 0.388-1.939 0.97-2.715 1.939 0 0-0.194 0.194-0.194 0.194-0.776 0.776-1.551 0.97-2.521 0.776-1.552-0.582-2.133-2.327-1.358-3.491 0-0.194 0.194-0.194 0.194-0.388 0.194-0.388 0.582-0.582 0.776-0.97 0.97-0.97 2.133-1.939 3.491-2.521 0.194 0 0.194-0.194 0.388-0.194 0 0 0 0 0-0.194 0 0 0-0.194 0-0.194 0-0.582-0.194-0.97-0.582-1.552-0.388-0.388-0.776-0.776-1.358-0.97-0.388-0.194-0.776-0.388-1.358-0.388-0.776 0-1.552 0-2.521-0.194-0.194 0-0.582-0.194-0.776-0.194 0 0 0 0 0 0s0 0.194 0 0.194c-0.194 0.776-0.194 1.551-0.388 2.327s-0.388 1.552-0.388 2.327c-0.194 0.97-0.388 1.745-0.582 2.715-0.194 0.776-0.388 1.552-0.388 2.327-0.194 0.97-0.388 1.745-0.582 2.715s-0.388 1.939-0.582 2.715c0 0.388-0.194 0.776-0.194 0.97s0 0.194 0.194 0.388c0.194 0 0.388 0.194 0.776 0.194 0.582 0.194 1.358 0.194 1.939 0.388 0.388 0 0.776 0.194 1.358 0.194 0.388 0 0.776 0 0.97 0 0.776-0.194 1.358-0.388 1.745-0.97 0.194-0.194 0.388-0.582 0.582-0.776 0.194-0.388 0.388-0.776 0.388-1.164 0-0.194 0.194-0.194 0.194-0.194 0.388-0.194 0.582-0.388 0.776-0.776 0.388-0.582 0.776-0.97 1.358-1.358 0.388-0.388 0.97-0.776 1.358-0.97s0.776-0.194 1.164-0.388c0.388 0 0.776 0 0.97 0.194 0.194 0 0.388 0.194 0.582 0.194 0.388 0.194 0.582 0.388 0.776 0.582 0.388 0.388 0.582 0.776 0.97 0.97 0 0 0 0.194 0 0.194-0.194 0.582-0.194 1.358-0.388 1.939-0.194 0.97-0.582 1.939-0.97 2.909s-0.97 1.939-1.551 2.909c-0.97 1.358-2.327 2.327-3.685 2.909-0.582 0.194-1.358 0.388-1.939 0.582-0.582 0-1.164 0.194-1.745 0.194s-0.97 0-1.552 0c-0.388 0-0.776 0-1.164-0.194-0.776-0.194-1.552-0.194-2.133-0.388s-1.164-0.194-1.745-0.388c-0.194 0-0.194 0-0.388 0 0 0-0.194 0-0.194 0s0 0 0 0c0 0.388-0.194 0.97-0.194 1.358-0.194 0.776-0.388 1.551-0.388 2.327-0.194 0.776-0.388 1.551-0.388 2.327-0.194 0.97-0.388 1.939-0.582 2.715-0.194 0.97-0.388 1.745-0.582 2.715s-0.388 1.745-0.582 2.715c-0.194 0.97-0.388 1.939-0.582 2.909 0 0.388-0.194 0.776-0.194 1.164 0 0 0 0.194-0.194 0.194 0 0-0.194 0-0.194 0-0.388 0-0.776-0.194-0.97-0.194-0.582-0.194-1.164-0.194-1.939-0.388-0.97-0.194-1.745-0.388-2.521-0.582-0.582-0.194-1.164-0.194-1.745-0.388 0 0-0.194 0-0.194 0s0 0 0 0 0-0.194 0-0.194c0.194-0.97 0.388-1.745 0.582-2.715 0.194-0.776 0.388-1.551 0.388-2.327 0.194-0.97 0.388-1.745 0.582-2.715s0.388-1.745 0.582-2.715c0.194-0.776 0.388-1.551 0.388-2.327 0.194-0.97 0.388-1.745 0.582-2.715 0.194-0.776 0.388-1.551 0.388-2.327s0.194-1.745 0.388-2.521c0.194-0.97 0.388-1.939 0.582-2.715 0.194-0.97 0.388-1.745 0.582-2.715s0.388-1.745 0.582-2.715c0.194-0.97 0.388-1.745 0.582-2.715s0.388-1.939 0.582-2.715c0.194-0.97 0.388-1.745 0.582-2.715s0.388-1.939 0.582-2.715c-0.194-0.97 0-1.745 0.194-2.521s0.388-1.552 0.388-2.327c0.194-0.776 0.388-1.552 0.388-2.327 0.194-0.582 0.194-1.164 0.388-1.939 0-0.388 0-0.388 0.388-0.194 0 0 0.194 0 0.194 0 0.388 0 0.97 0.194 1.358 0.388 0.582 0.194 1.164 0.194 1.939 0.388s1.552 0.388 2.327 0.388c0.776 0.194 1.552 0.388 2.327 0.388 0.97 0.194 1.745 0.388 2.715 0.582 0.776 0.194 1.551 0.388 2.327 0.776 0.97 0.388 1.939 0.776 2.909 1.552 1.358 0.97 2.327 2.133 3.103 3.685 0.582 1.164 0.776 2.327 0.97 3.685 0 0.194 0 0.194 0 0.388 0 0 0 0.194 0.194 0.194 0 0 0.194 0 0.194 0 0.582 0.194 1.164 0.388 1.551 0.582 0 0 3.685 1.745 5.042 2.521 1.551 0.97 3.297 1.745 4.849 2.715 1.551 0.776 3.103 1.745 4.849 2.327 1.164 0.388 2.133 0.97 3.297 1.358 0.194 0 0.194 0 0.388 0.194 0 0 0.194 0 0.194 0 0-0.194 0-0.388 0-0.388z"></path>
</svg>
