<!-- Generated by IcoMoon.io -->
<svg version="1.1" xmlns="http://www.w3.org/2000/svg" width="160" height="64" viewBox="0 0 160 64">
<title>polpo</title>
<path d="M6.539 13.13c-2.461 1.050-4.498 2.69-5.996 4.748-0.372 0.542-0.577 1.163-0.577 1.831 0 1.060 0.517 2 1.312 2.58 0.518 0.405 1.167 0.645 1.873 0.645 1.009 0 1.903-0.492 2.455-1.248 1.468-1.941 3.763-3.177 6.347-3.177 1.456 0 2.821 0.393 3.994 1.078 2.612 1.346 4.784 2.628 6.882 4.014l1.885 1.166c-0.681 1.225-1.082 2.687-1.082 4.242 0 0.047 0 0.094 0.001 0.141-0.035 0.318-0.055 0.695-0.055 1.076 0 4.498 2.787 8.346 6.728 9.91 2.834 1.223 6.050 1.92 9.429 1.92 1.645 0 3.251-0.165 4.802-0.48-2.42 5.999-1.596 10.581-4.119 13.104-3.656 3.759 3.604 6.951 7.157-0.669 1.31 0.402 2.816 0.633 4.377 0.633s3.066-0.231 4.486-0.661l3.598-1.001c-0.755 3.422-2.59 6.33-5.123 8.424-2.342 2.389 6.874 7.074 11.199-6.725 0.412-1.339 0.875-2.626 1.287-3.759 2.986-0.875 6.282-1.957 9.731-3.295-0.045 0.452-0.071 0.977-0.071 1.509 0 4.234 1.632 8.086 4.302 10.962 5.654 6.941 17.136 4.624 14.922-5.416-1.133-5.149-7.723-2.214-7.723 0.412s-3.553-1.957-3.553-6.282c0.055-2.39 1.027-4.543 2.576-6.129 2.219-1.232 4.069-2.408 5.848-3.677l0.123 0.126c1.567 2.33 3.523 4.269 5.793 5.77 13 7.977 60.061 4.527 60.061-14.112 0-20.956-58.491-37.844-68.531-27.598-1.024 1.064-1.872 2.307-2.49 3.677-2.247 1.266-5.851 3.171-9.97 5.54-5.664 1.648-14.623 3.347-19.102-0.566-7.363-6.487-14.52-11.636-21.007-5.149-8.753 8.908 4.891 18.433 8.341 14.932 2.317-2.368 0-4.016-1.957-5.149-4.737-2.471 0-8.701 4.531-4.068l5.509 5.612c1.965 1.859 4.243 3.413 6.743 4.569l-2.882 2.227-6.385 0.927c-1.28 0.2-2.756 0.314-4.259 0.314-4.634 0-9.014-1.085-12.901-3.016 0.214-0.097 0.24-0.296 0.24-0.501 0-0.772-0.369-1.458-0.941-1.89-0.733-0.481-1.623-0.765-2.58-0.765-0.689 0-1.344 0.147-1.935 0.412l-4.141-2.535c-1.992-1.317-4.368-2.703-6.818-3.964-1.088-0.524-1.873-0.838-2.681-1.098-1.365-0.438-2.787-0.669-4.262-0.669-1.948 0-3.801 0.403-5.481 1.132zM48.553 34.291c-2.309 0.752-4.965 1.186-7.723 1.186s-5.415-0.434-7.905-1.237c-1.814-1.068-3.141-3.17-3.141-5.582 0-0.356 0.029-0.706 0.085-1.046 5.155 2.982 11.314 4.763 17.879 4.877l2.196 0zM63.382 44.023c-2.831 1.49-6.122 2.759-9.568 3.638l-3.51 0.892c2.837-5.698 7.051-10.341 12.219-13.614 2.609-1.163 6.625-2.295 11.002-3.737-4.017 3.625-7.397 7.858-10.017 12.572zM103.646 21.677c-0.031 0-0.067 0.001-0.103 0.001-3.64 0-6.591-2.951-6.591-6.59s2.951-6.59 6.591-6.59c3.64 0 6.59 2.95 6.591 6.59 0 0.015 0 0.034 0 0.052 0 3.593-2.898 6.51-6.485 6.539z"></path>
</svg>
