<!-- Generated by IcoMoon.io -->
<svg version="1.1" xmlns="http://www.w3.org/2000/svg" width="64" height="64" viewBox="0 0 64 64">
<title>power-on</title>
<path d="M30.285 30.405h3.489v-19.2h-3.489v19.2z"></path>
<path d="M21.672 20.037c-3.901 3.094-6.38 7.834-6.38 13.153 0 9.249 7.498 16.748 16.748 16.748s16.748-7.498 16.748-16.748c0-5.319-2.479-10.059-6.346-13.126l-2.288 2.924c3.030 2.417 4.955 6.108 4.955 10.25 0 7.223-5.856 13.079-13.079 13.079s-13.079-5.856-13.079-13.079c0-4.141 1.925-7.833 4.928-10.229z"></path>
<path d="M31.98 64c-17.665-0.011-31.98-14.334-31.98-32 0-17.673 14.327-32 32-32s32 14.327 32 32c-0.023 17.671-14.347 31.989-32.019 32zM31.98 2.193c-16.517 0-29.906 13.39-29.906 29.907s13.39 29.907 29.907 29.907c16.517 0 29.907-13.39 29.907-29.907 0-0.035-0-0.070-0-0.105-0.057-16.469-13.425-29.801-29.906-29.801-0 0-0 0-0 0z"></path>
</svg>
