<!-- Generated by IcoMoon.io -->
<svg version="1.1" xmlns="http://www.w3.org/2000/svg" width="64" height="64" viewBox="0 0 64 64">
<title>presentation</title>
<path d="M32.020 64c-0.012 0-0.026 0-0.040 0-17.673 0-32-14.327-32-32s14.327-32 32-32c17.666 0 31.989 14.316 32 31.979-0.011 17.66-14.306 31.976-31.956 32.021zM32.020 2.27c-0.006 0-0.013 0-0.020 0-16.419 0-29.73 13.311-29.73 29.73s13.311 29.73 29.73 29.73c16.419 0 29.73-13.311 29.73-29.73 0-0.007 0-0.014 0-0.021-0.034-16.394-13.315-29.675-29.707-29.709z"></path>
<path d="M14.536 14.696h10.952l0.319-1.991 2.628 0.438-0.239 1.533h2.768v-1.732h2.668v1.752h2.629l-0.259-1.533 2.629-0.438 0.319 1.991h10.474v2.668h-9.956v0.378h8.901v20.072h1.075v2.668h-6.273l1.832 11.39-2.629 0.438-1.991-11.769h-6.75v11.569h-2.668v-11.629h-6.91l-1.991 11.788-2.628-0.398 1.852-11.35h-6.75v-2.708h1.553v-20.072h8.961v-0.378h-10.514v-2.688zM36.759 17.742v-0.378h-3.126v0.378h3.126zM30.945 17.742v-0.358h-3.186v0.378h3.266zM46.576 19.535h-28.774v17.623h28.794v-17.623z"></path>
</svg>
