<!-- Generated by IcoMoon.io -->
<svg version="1.1" xmlns="http://www.w3.org/2000/svg" width="64" height="64" viewBox="0 0 64 64">
<title>school</title>
<path d="M32 64c-17.675 0-32-14.325-32-32s14.325-32 32-32 32 14.325 32 32c-0.025 17.663-14.337 31.975-32 32v0zM32 2.194c-16.519 0-29.906 13.387-29.906 29.906s13.387 29.906 29.906 29.906 29.906-13.387 29.906-29.906c0-0.038 0-0.069 0-0.106-0.056-16.469-13.425-29.8-29.906-29.8 0 0 0 0 0 0v0z"></path>
<path d="M37.7 41.75v-0.938c0-5.063 0-10.131 0-15.194 0-0.581-0.138-0.8-0.756-0.775-0.431 0.025-0.931 0.038-1.438 0.038s-1.006-0.012-1.506-0.044c-0.587 0-0.706 0.225-0.706 0.819 0 5.081 0 10.169 0 15.275v0.8h-2.613v-0.9c0-5.044 0-10.087 0-15.131 0-0.637-0.119-0.9-0.819-0.856-0.419 0.031-0.906 0.044-1.394 0.044s-0.981-0.019-1.462-0.050c-0.594 0.006-0.731 0.181-0.731 0.8 0 5.081 0 10.169 0 15.275v0.8h-2.794v-16.788h-4.269v16.825h-0.637c-1.813 0-2.175 0.419-2.212 2.194 0 0.675 0.238 0.775 0.837 0.756h29.188c1.375 0 1.194 0.219 1.194-1.219 0.006-0.050 0.006-0.106 0.006-0.163 0-0.85-0.688-1.538-1.538-1.538-0.038 0-0.075 0-0.112 0.006h-1.212v-16.887h-4.306v16.85h-2.719z"></path>
<path d="M50.362 22.031h-2.712c-0.131 0.863-0.869 1.512-1.756 1.512-0.163 0-0.319-0.025-0.469-0.063-9.019 0-18.031 0-27.063 0-0.106 0.025-0.225 0.038-0.35 0.038-0.85 0-1.55-0.637-1.644-1.462l-2.731-0.006v-1.512c0.637-0.256 1.275-0.5 1.894-0.775l10.787-4.963c1.813-0.838 3.587-1.713 5.381-2.575h0.581c0.2 0.119 0.4 0.256 0.619 0.356l12.975 5.981c1.475 0.675 2.987 1.319 4.469 1.994 0.013 0.506 0.019 0.994 0.019 1.475v0z"></path>
<path d="M13.637 46.913c0.356-0.581 0.988-0.969 1.706-0.969 0.063 0 0.131 0 0.194 0.006 10.975 0 21.95 0 32.931 0 0.069-0.006 0.15-0.013 0.231-0.013 0.688 0 1.3 0.35 1.656 0.881l0.006 2h-36.725c0-0.575 0-1.212 0-1.906v0z"></path>
</svg>
