<!-- Generated by IcoMoon.io -->
<svg version="1.1" xmlns="http://www.w3.org/2000/svg" width="64" height="64" viewBox="0 0 64 64">
<title>send</title>
<path d="M0 25.387c14.933 2.133 29.867 4.267 45.013 6.4 0 0 0 0.213 0 0.213-14.933 2.133-29.867 4.267-45.013 6.4 0 7.68 0 15.36 0 23.040 0.213-0.213 0.427-0.213 0.64-0.427 16.64-7.68 33.28-15.36 49.707-22.827 4.48-2.133 8.96-4.053 13.653-6.187-0.427-0.213-0.853-0.427-1.28-0.64-10.667-4.907-21.333-9.813-31.787-14.72-10.24-4.693-20.693-9.387-30.933-14.080 0 7.467 0 15.147 0 22.827z"></path>
</svg>
