<!-- Generated by IcoMoon.io -->
<svg version="1.1" xmlns="http://www.w3.org/2000/svg" width="64" height="64" viewBox="0 0 64 64">
<title>share</title>
<path d="M40.040 40.28c-4.197 0-7.6 3.403-7.6 7.6s3.403 7.6 7.6 7.6c4.197 0 7.6-3.403 7.6-7.6s-3.403-7.6-7.6-7.6c0 0 0 0 0 0zM35.42 51.8c0.334-1.422 1.538-2.484 3.008-2.599 0.23-0.056 0.389-0.249 0.392-0.48v-0.080c-0.696-0.443-1.19-1.153-1.337-1.982l-0.103-0.018c-0.273-0.168-0.453-0.465-0.453-0.804 0-0.055 0.005-0.109 0.014-0.162-0.001-0.534-0.001-0.994 0.339-0.994h0.14s-0.14 0-0.14-0.66c0.133-0.987 0.97-1.74 1.983-1.74 0.006 0 0.012 0 0.018 0 0.086-0.016 0.187-0.026 0.289-0.026s0.203 0.009 0.3 0.027c0.199-0.103 0.444-0.163 0.704-0.163 0.023 0 0.046 0.001 0.069 0.001 0.047-0.005 0.106-0.007 0.166-0.007 1.037 0 1.889 0.789 1.99 1.799 0.001 0.668-0.139 0.668-0.139 0.668h0.14c0.34 0 0.34 0.46 0.34 1 0.008 0.047 0.013 0.101 0.013 0.156 0 0.339-0.18 0.636-0.449 0.802l-0.004 0.002c-0.151 0.847-0.644 1.557-1.328 1.993l-0.012 0.067c0.003 0.231 0.162 0.425 0.377 0.479l0.003 0.001c1.458 0.184 2.613 1.285 2.877 2.699 0.003 1.741-9.197 1.741-9.197 0.021z"></path>
<path d="M40.040 9.4c-4.197 0-7.6 3.403-7.6 7.6s3.403 7.6 7.6 7.6c4.197 0 7.6-3.403 7.6-7.6s-3.403-7.6-7.6-7.6zM35.44 21.26c0.262-1.492 1.478-2.634 2.986-2.779 0.234-0.057 0.394-0.253 0.394-0.486 0-0.005-0-0.010-0-0.015v-0.179c-0.696-0.443-1.19-1.153-1.337-1.982l-0.103-0.018c-0.273-0.168-0.453-0.465-0.453-0.804 0-0.055 0.005-0.109 0.014-0.162-0.001-0.534-0.001-0.994 0.339-0.994h0.14v-0.16s-0.14 0-0.14-0.66c0.133-0.987 0.97-1.74 1.983-1.74 0.006 0 0.012 0 0.018 0 0.086-0.016 0.187-0.026 0.289-0.026s0.203 0.009 0.3 0.027c0.199-0.103 0.444-0.163 0.704-0.163 0.023 0 0.046 0.001 0.069 0.001 0.047-0.005 0.106-0.007 0.166-0.007 1.037 0 1.889 0.789 1.99 1.799 0.001 0.668-0.139 0.668-0.139 0.668h0.14c0.34 0 0.34 0.46 0.34 1 0.008 0.047 0.013 0.101 0.013 0.156 0 0.339-0.18 0.636-0.449 0.802l-0.004 0.002c-0.151 0.847-0.644 1.557-1.328 1.993l-0.012 0.167c-0 0.004-0 0.009-0 0.015 0 0.234 0.16 0.43 0.377 0.485 1.61 0.165 2.872 1.447 3.003 3.049-0.099 1.652-9.299 1.652-9.299 0.012z"></path>
<path d="M15.92 24.86c0 0 0 0 0 0-4.197 0-7.6 3.403-7.6 7.6s3.403 7.6 7.6 7.6c4.197 0 7.6-3.403 7.6-7.6s-3.403-7.6-7.6-7.6zM11.32 36.72c0.262-1.492 1.478-2.634 2.986-2.779 0.234-0.057 0.394-0.253 0.394-0.486 0-0.005-0-0.010-0-0.015v-0.159c-0.696-0.443-1.19-1.153-1.337-1.982l-0.003-0.018c-0.273-0.168-0.453-0.465-0.453-0.804 0-0.055 0.005-0.109 0.014-0.162-0.001-0.534-0.001-0.994 0.339-0.994h0.040v-0.18s-0.14 0-0.14-0.66c0.133-0.987 0.97-1.74 1.983-1.74 0.006 0 0.012 0 0.018 0 0.086-0.016 0.187-0.026 0.289-0.026s0.203 0.009 0.3 0.027c0.199-0.103 0.444-0.163 0.704-0.163 0.023 0 0.046 0 0.069 0.001 0.047-0.005 0.106-0.007 0.166-0.007 1.037 0 1.889 0.789 1.99 1.799 0.001 0.668-0.139 0.668-0.139 0.668h0.14c0.34 0 0.34 0.46 0.34 1 0.008 0.047 0.013 0.101 0.013 0.156 0 0.339-0.18 0.636-0.449 0.802l-0.004 0.002c-0.151 0.847-0.644 1.557-1.328 1.993l-0.012 0.167c-0 0.004-0 0.009-0 0.015 0 0.234 0.16 0.43 0.377 0.485 1.607 0.173 2.864 1.45 3.003 3.048-0.099 1.653-9.299 1.653-9.299 0.013z"></path>
<path d="M23.8 38.76l7.080 4.8c0.292-0.764 0.649-1.423 1.079-2.028l-6.819-4.532c-0.393 0.668-0.837 1.245-1.342 1.762z"></path>
<path d="M23.8 26.1c0.502 0.516 0.946 1.093 1.317 1.718l6.683-4.518c-0.412-0.577-0.769-1.236-1.039-1.939z"></path>
<path d="M32.12 0c-0.035-0-0.077-0-0.119-0-17.673 0-32 14.327-32 32s14.327 32 32 32c17.673 0 32-14.327 32-32 0-0.070-0-0.14-0.001-0.211-0.113-17.534-14.328-31.722-31.873-31.789zM31.8 62c-16.568-0-29.999-13.432-29.999-30s13.431-30 30-30c16.498 0 29.886 13.318 29.999 29.789l0 0.211c0 16.569-13.431 30-30 30z"></path>
</svg>
