<!-- Generated by IcoMoon.io -->
<svg version="1.1" xmlns="http://www.w3.org/2000/svg" width="64" height="64" viewBox="0 0 64 64">
<title>split-arrow</title>
<path d="M32.040 0c-0.041-0-0.090-0-0.139-0-17.673 0-32 14.327-32 32s14.327 32 32 32c17.673 0 32-14.327 32-32 0-0.049-0-0.098-0-0.147-0.079-17.557-14.296-31.774-31.853-31.853zM32.239 61.73c-0.056 0-0.123 0.001-0.189 0.001-16.42 0-29.731-13.311-29.731-29.731 0-16.353 13.203-29.623 29.531-29.73l0.010-0c0.056-0 0.123-0.001 0.189-0.001 16.42 0 29.731 13.311 29.731 29.731 0 16.353-13.203 29.623-29.531 29.73z"></path>
<path d="M41.817 25.050l0.956 3.325-7.766 3.823v-8.523h3.306l-6.452-13.123-6.392 13.182h2.409c0.061-0.016 0.132-0.025 0.205-0.025 0.462 0 0.836 0.374 0.836 0.836 0 0.073-0.009 0.143-0.027 0.21l0.001 7.203-7.965-3.644 0.976-3.286-14.297 2.409 10.773 9.956c0.299-0.936 0.558-1.673 0.737-2.409 0.008-0.346 0.29-0.623 0.637-0.623 0.117 0 0.227 0.032 0.322 0.087 2.604 0.698 4.824 2.091 6.518 3.969 1.504 1.697 2.462 3.887 2.598 6.297 0.18 2.636 0.001 5.264 0.001 7.873-0.014 0.051-0.023 0.11-0.023 0.171 0 0.363 0.294 0.657 0.657 0.657 0.043 0 0.085-0.004 0.126-0.012l4.496 0.001c0.329-0.105 0.582-0.364 0.675-0.69l0.002-3.791c-0.062-0.713-0.097-1.542-0.097-2.38s0.035-1.667 0.104-2.487c0.869-5.23 4.334-8.236 9.511-9.71l0.936 3.106 10.753-9.956z"></path>
</svg>
