<!-- Generated by IcoMoon.io -->
<svg version="1.1" xmlns="http://www.w3.org/2000/svg" width="64" height="64" viewBox="0 0 64 64">
<title>student</title>
<path d="M32.020 64c-17.618-0-31.9-14.282-31.9-31.9s14.282-31.9 31.9-31.9c17.576 0 31.832 14.214 31.9 31.774-0.011 17.644-14.272 31.947-31.893 32.026zM32.020 2.193c-16.517 0-29.907 13.39-29.907 29.907s13.39 29.907 29.907 29.907c16.517 0 29.907-13.39 29.907-29.907s-13.39-29.907-29.907-29.907z"></path>
<path d="M19.12 30.804v0.259l0.738 0.299c3.589 1.316 7.178 2.592 10.746 3.988 0.413 0.17 0.893 0.27 1.396 0.27s0.982-0.099 1.421-0.279c7.252-2.682 14.549-5.334 21.907-7.966 0.242-0.081 0.449-0.211 0.618-0.379 0.277-0.259 0.476-0.6 0.556-0.985-0.080-0.412-0.287-0.755-0.574-1.007-0.211-0.154-0.459-0.265-0.728-0.319-7.19-2.634-14.347-5.226-21.505-7.977-0.487-0.199-1.053-0.314-1.645-0.314s-1.158 0.115-1.675 0.325l-21.403 7.905c-0.38 0.129-0.71 0.298-1.010 0.507-0.271 0.179-0.456 0.497-0.456 0.859s0.185 0.679 0.465 0.865c0.273 0.195 0.583 0.357 0.915 0.473l3.714 1.364 0.718 0.319c0.005 0.048 0.008 0.103 0.008 0.16s-0.003 0.112-0.009 0.166c-1.076 1.848-1.475 0.831-1.694 3.004-0.095 0.53-0.336 0.992-0.679 1.357-0.534 0.521-0.866 1.249-0.866 2.055 0 0.68 0.237 1.306 0.632 1.798 0.833 0.812 1.989 1.988-1.998 6.713-0.598 0.638-0.558 0.797 0.14 1.256s1.475 0.837 2.213 1.296c0.301 0.192 0.668 0.306 1.061 0.306 0.551 0 1.050-0.224 1.411-0.585 2.971-4.765 0.738-8.573 1.117-9.072 0.318-0.423 0.508-0.957 0.508-1.535s-0.191-1.112-0.513-1.542c-0.41-0.522-0.661-1.196-0.661-1.929 0-0.261 0.032-0.515 0.092-0.757 0.354-2.889 1.491-1.972 3.983-3.029 1.794-0.797 3.589-1.635 5.383-2.393q3.988-1.675 7.975-3.29c0.152-0.088 0.335-0.14 0.53-0.14 0.538 0 0.984 0.395 1.064 0.911 0.020 0.090 0.031 0.186 0.031 0.285 0 0.646-0.465 1.183-1.079 1.295l-8.82 3.67c-1.316 0.578-2.672 1.196-4.027 1.794zM47.671 32.997c-0.399 0.12-0.698 0.179-0.997 0.279-4.327 1.575-8.673 3.15-12.979 4.765-0.49 0.199-1.059 0.315-1.655 0.315s-1.165-0.116-1.685-0.326q-6.071-2.262-12.192-4.475c-1.675-0.618-1.436-0.797-1.655 1.236-0.030 0.144-0.048 0.308-0.048 0.477 0 0.432 0.114 0.838 0.313 1.189 0.897 0.831 1.46 2.029 1.46 3.358 0 0.828-0.218 1.604-0.601 2.276-0.116 0.156-0.192 0.38-0.192 0.621 0 0.445 0.26 0.829 0.636 1.008 1.371 0.872 2.946 1.682 4.595 2.345 2.96 0.956 6.14 1.467 9.438 1.467 2.427 0 4.79-0.277 7.059-0.8 2.54-0.432 4.974-1.528 7.026-3.098 0.922-0.683 1.539-1.814 1.539-3.088 0-0.054-0.001-0.107-0.003-0.16 0-2.146 0-4.299 0-6.452 0-0.259-0.040-0.558-0.060-0.937z"></path>
</svg>
