<!-- Generated by IcoMoon.io -->
<svg version="1.1" xmlns="http://www.w3.org/2000/svg" width="64" height="64" viewBox="0 0 64 64">
<title>student2</title>
<path d="M57.621 58.845c-1.928-2.217-4.028-4.243-6.532-5.83-3.477-2.205-7.189-3.784-11.014-5.198-2.504-0.925-3.316-3.070-1.78-5.205 2.093-2.909 2.921-6.509 5.145-9.28 1.224-1.526 1.524-3.247 1.212-5.027-0.417-2.37-0.301-4.736-0.421-7.106-0.033-0.628-0.13-1.23-0.219-1.835l3.999-1.953v11.411c-0.702 0.462-1.191 1.218-1.191 2.12 0 0.863 0.45 1.588 1.098 2.058l-0.367 8.118h3.702l-0.367-8.118c0.648-0.469 1.1-1.195 1.1-2.058 0-0.902-0.491-1.658-1.193-2.12v-12.769l6.955-3.398-25.899-12.653-25.899 12.653 13.675 6.681c-0.033 0.264-0.105 0.514-0.122 0.785-0.178 2.96 0.041 5.936-0.477 8.894-0.239 1.367 0.047 2.756 0.968 3.927 2.31 2.94 3.020 6.807 5.459 9.736 1.373 1.65 0.531 3.933-1.468 4.947-1.377 0.7-2.874 1.142-4.309 1.728-4.899 1.996-9.363 4.701-12.918 8.774-0.888 1.016-1.6 2.215-2.265 3.409-0.473 0.851 0.223 2.205 1.119 2.296 1.15 0.118 2.31 0.161 3.464 0.163 7.529 0.014 15.059 0.006 22.586 0.008 7.529 0 15.059 0.010 22.588-0.010 1.344-0.004 2.707-0.025 4.026-0.248 0.838-0.142 1.286-0.989 0.977-1.815-0.405-1.090-0.89-2.232-1.631-3.082z"></path>
</svg>
