<!-- Generated by IcoMoon.io -->
<svg version="1.1" xmlns="http://www.w3.org/2000/svg" width="64" height="64" viewBox="0 0 64 64">
<title>taak</title>
<path d="M39.284 6.578h-4.342c-0.19-3.667-3.022-6.578-6.487-6.578-3.466 0-6.297 2.911-6.487 6.578h-4.342c-1.065 0-1.93 0.727-1.93 1.623v5.896c0 0.896 0.863 1.623 1.93 1.623h21.657c1.065 0 1.93-0.727 1.93-1.623v-5.896c-0.002-0.898-0.865-1.623-1.93-1.623zM28.455 6.074c-1.098 0-1.988-0.855-1.988-1.912s0.89-1.912 1.988-1.912c1.098 0 1.988 0.855 1.988 1.912s-0.89 1.912-1.988 1.912z"></path>
<path d="M17.538 27.514h-4.148c-0.279 0-0.504-0.217-0.504-0.485v-3.985c0-0.268 0.225-0.485 0.504-0.485h4.148c0.279 0 0.504 0.217 0.504 0.485v3.985c0 0.268-0.225 0.485-0.504 0.485z"></path>
<path d="M17.538 39.829h-4.148c-0.279 0-0.504-0.217-0.504-0.485v-3.984c0-0.268 0.225-0.485 0.504-0.485h4.148c0.279 0 0.504 0.217 0.504 0.485v3.984c0 0.268-0.225 0.485-0.504 0.485z"></path>
<path d="M18.042 52.426h-5.155v-4.47c0-0.268 0.225-0.485 0.504-0.485h4.148c0.279 0 0.504 0.217 0.504 0.485v4.47z"></path>
<path d="M23.443 23.315h20.67v3.303h-20.67v-3.303z"></path>
<path d="M23.443 35.724h20.67v3.303h-20.67v-3.303z"></path>
<path d="M40.091 60.259h-31.418v-47.969h4.99v-2.5h-4.92c-1.476 0-2.674 1.15-2.674 2.568v47.833c0 1.418 1.197 2.568 2.674 2.568h33.961c-1.010-0.688-1.893-1.534-2.614-2.5z"></path>
<path d="M48.237 43.427c0.291-0.023 0.582-0.037 0.88-0.037 0.586 0 1.16 0.045 1.722 0.13v-31.162c0-1.418-1.197-2.568-2.674-2.568h-4.92v2.5h4.99v31.137z"></path>
<path d="M39.796 48.275h-16.353v3.303h14.879c0.297-1.191 0.801-2.304 1.474-3.303z"></path>
<path d="M49.117 44.119c-5.712 0-10.345 4.451-10.345 9.941s4.633 9.941 10.345 9.941c5.712 0 10.345-4.451 10.345-9.941-0.002-5.49-4.633-9.941-10.345-9.941zM49.561 57.338l-1.996 1.92-4.835-4.649 1.996-1.92 2.841 2.729 5.946-5.715 1.996 1.918-5.948 5.717z"></path>
</svg>
