<!-- Generated by IcoMoon.io -->
<svg version="1.1" xmlns="http://www.w3.org/2000/svg" width="64" height="64" viewBox="0 0 64 64">
<title>tasks</title>
<path d="M22.448 26.482h-3.627c-1.348 0-2.444 1.096-2.444 2.444v3.627c0 1.348 1.096 2.444 2.444 2.444h3.627c1.348 0 2.444-1.096 2.444-2.444v-3.627c0-1.348-1.096-2.444-2.444-2.444zM23.672 32.553c0 0.673-0.551 1.224-1.224 1.224h-3.627c-0.673 0-1.224-0.551-1.224-1.224v-3.627c0-0.673 0.551-1.224 1.224-1.224h3.627c0.673 0 1.224 0.551 1.224 1.224v3.627z"></path>
<path d="M22.448 16.355h-3.627c-1.348 0-2.444 1.096-2.444 2.444v3.627c0 1.348 1.096 2.444 2.444 2.444h3.627c1.348 0 2.444-1.096 2.444-2.444v-3.627c0-1.348-1.096-2.444-2.444-2.444zM23.672 22.427c0 0.673-0.551 1.224-1.224 1.224h-3.627c-0.673 0-1.224-0.551-1.224-1.224v-3.627c0-0.673 0.551-1.224 1.224-1.224h3.627c0.673 0 1.224 0.551 1.224 1.224v3.627z"></path>
<path d="M26.554 19.745h19.035v1.422h-19.035v-1.422z"></path>
<path d="M26.554 29.96h19.035v1.422h-19.035v-1.422z"></path>
<path d="M22.448 36.783h-3.627c-1.348 0-2.444 1.096-2.444 2.444v3.627c0 1.348 1.096 2.444 2.444 2.444h3.627c1.348 0 2.444-1.096 2.444-2.444v-3.627c0-1.348-1.096-2.444-2.444-2.444zM23.672 42.857c0 0.673-0.551 1.224-1.224 1.224h-3.627c-0.673 0-1.224-0.551-1.224-1.224v-3.627c0-0.673 0.551-1.224 1.224-1.224h3.627c0.673 0 1.224 0.551 1.224 1.224v3.627z"></path>
<path d="M26.554 40.175h19.035v1.42h-19.035v-1.42z"></path>
<path d="M22.448 46.999h-3.627c-1.348 0-2.444 1.096-2.444 2.444v3.627c0 1.348 1.096 2.444 2.444 2.444h3.627c1.348 0 2.444-1.096 2.444-2.444v-3.627c0-1.348-1.096-2.444-2.444-2.444zM23.672 53.070c0 0.673-0.551 1.224-1.224 1.224h-3.627c-0.673 0-1.224-0.551-1.224-1.224v-3.627c0-0.673 0.551-1.224 1.224-1.224h3.627c0.673 0 1.224 0.551 1.224 1.224v3.627z"></path>
<path d="M26.554 50.389h19.035v1.422h-19.035v-1.422z"></path>
<path d="M49.503 7.926h-8.972v-1.87c0-0.667-0.619-1.21-1.381-1.21h-3.109c-0.136-2.733-2.164-4.901-4.647-4.901-2.482 0-4.509 2.17-4.645 4.901h-3.109c-0.764 0-1.381 0.541-1.381 1.21v1.873h-8.97c-2.954 0-5.357 2.403-5.357 5.355v45.306c0 2.952 2.403 5.355 5.357 5.355h36.216c2.952 0 5.355-2.403 5.355-5.355v-45.308c0-2.952-2.403-5.355-5.355-5.355zM31.393 1.621c0.787 0 1.425 0.638 1.425 1.425s-0.638 1.425-1.425 1.425c-0.787 0-1.425-0.638-1.425-1.425s0.638-1.425 1.425-1.425zM52.587 58.589c0 1.701-1.383 3.086-3.086 3.086h-36.214c-1.703 0-3.088-1.385-3.088-3.086v-45.308c0-1.701 1.385-3.086 3.088-3.086h8.968v0.252c0 0.667 0.619 1.21 1.381 1.21h15.511c0.764 0 1.381-0.541 1.381-1.21v-0.25h8.972c1.703 0 3.086 1.385 3.086 3.086v45.306z"></path>
</svg>
