<!-- Generated by IcoMoon.io -->
<svg version="1.1" xmlns="http://www.w3.org/2000/svg" width="64" height="64" viewBox="0 0 64 64">
<title>task</title>
<path d="M31.98 64c-17.665-0.011-31.98-14.334-31.98-32 0-17.673 14.327-32 32-32 17.666 0 31.989 14.316 32 31.979-0.011 17.681-14.34 32.010-32.019 32.021zM31.98 2.27c-16.411 0.011-29.71 13.318-29.71 29.73 0 16.419 13.311 29.73 29.73 29.73s29.73-13.311 29.73-29.73c0-0.007 0-0.014 0-0.021-0.034-16.408-13.338-29.698-29.749-29.709z"></path>
<path d="M38.392 13.401h-2.828c0.006-0.087 0.010-0.188 0.010-0.29 0-2.332-1.89-4.221-4.221-4.221s-4.221 1.89-4.221 4.221c0 0.102 0.004 0.203 0.011 0.303l-2.828-0.013c-0.025-0.002-0.053-0.003-0.082-0.003-0.622 0-1.131 0.483-1.172 1.095l-0 3.986c0.041 0.615 0.55 1.098 1.172 1.098 0.029 0 0.058-0.001 0.086-0.003l14.055 0c0.025 0.002 0.053 0.003 0.082 0.003 0.622 0 1.131-0.483 1.172-1.095l0-3.986c-0.042-0.614-0.551-1.097-1.172-1.097-0.022 0-0.044 0.001-0.065 0.002zM31.363 13.063c0 0 0 0 0 0-0.715 0-1.294-0.579-1.294-1.294s0.579-1.294 1.294-1.294c0.715 0 1.294 0.579 1.294 1.294 0 0 0 0 0 0s0 0 0 0c0 0.715-0.58 1.294-1.294 1.294-0.007 0-0.014-0-0.021-0z"></path>
<path d="M24.274 27.54h-2.708c0 0 0 0 0 0-0.176 0-0.319-0.143-0.319-0.319 0 0 0 0 0 0v-2.688c0-0.176 0.143-0.319 0.319-0.319 0 0 0 0 0 0h2.688c0 0 0 0 0 0 0.176 0 0.319 0.143 0.319 0.319 0 0 0 0 0 0v2.688c0 0 0 0 0 0.001 0 0.169-0.131 0.307-0.298 0.318z"></path>
<path d="M24.274 35.963h-2.708c0 0 0 0 0 0-0.176 0-0.319-0.143-0.319-0.319 0 0 0 0 0 0v-2.788c0-0.176 0.143-0.319 0.319-0.319 0 0 0 0 0 0h2.688c0 0 0 0 0 0 0.176 0 0.319 0.143 0.319 0.319 0 0 0 0 0 0v2.688c0.010 0.030 0.016 0.064 0.016 0.1 0 0.175-0.14 0.316-0.314 0.319z"></path>
<path d="M24.592 44.386h-3.345v-3.027c0-0.176 0.143-0.319 0.319-0.319h2.688c0 0 0 0 0 0 0.176 0 0.319 0.143 0.319 0.319v3.027z"></path>
<path d="M28.097 24.692h13.421v2.23h-13.421v-2.23z"></path>
<path d="M28.097 33.075h13.421v2.23h-13.421v-2.23z"></path>
<path d="M38.91 49.663h-20.391v-32.398h3.246v-1.693h-3.186c0 0 0 0 0 0-0.957 0-1.732 0.776-1.732 1.732 0 0 0 0 0 0v32.319c0 0.957 0.776 1.732 1.732 1.732h22.024c-0.66-0.473-1.22-1.033-1.678-1.671z"></path>
<path d="M44.187 38.292h0.578c0.167-0.014 0.361-0.022 0.558-0.022s0.391 0.008 0.583 0.023l-0.025-20.99c0-0.957-0.776-1.732-1.732-1.732h-3.186v1.693h3.246v21.028z"></path>
<path d="M38.711 41.578h-10.713v2.23h9.757c0.207-0.846 0.536-1.59 0.973-2.258z"></path>
<path d="M44.764 38.77c0 0 0 0 0 0-3.706 0-6.711 3.004-6.711 6.711s3.004 6.711 6.711 6.711c3.706 0 6.711-3.004 6.711-6.711s-3.004-6.711-6.711-6.711zM45.063 47.711l-1.294 1.294-1.294-1.294-1.852-1.792 1.314-1.374 1.852 1.852 3.863-3.863 1.274 1.394z"></path>
</svg>
