<!-- Generated by IcoMoon.io -->
<svg version="1.1" xmlns="http://www.w3.org/2000/svg" width="64" height="64" viewBox="0 0 64 64">
<title>tasks-complete</title>
<path d="M45.448 41.189c-6.282 0-11.378 5.093-11.378 11.378s5.093 11.378 11.378 11.378c6.282 0 11.378-5.093 11.378-11.378s-5.093-11.378-11.378-11.378zM45.938 56.32l-2.197 2.197-5.32-5.32 2.195-2.197 3.124 3.124 6.54-6.54 2.197 2.195-6.538 6.542z"></path>
<path d="M23.461 17.466h16.842v1.257h-16.842v-1.257z"></path>
<path d="M23.461 26.504h16.842v1.257h-16.842v-1.257z"></path>
<path d="M23.461 35.543h16.842v1.257h-16.842v-1.257z"></path>
<path d="M23.461 45.838h8.661c0.215-0.427 0.452-0.846 0.708-1.257h-9.369v1.257z"></path>
<path d="M11.72 54.565c-1.507 0-2.731-1.224-2.731-2.731v-40.087c0-1.505 1.226-2.731 2.731-2.731h7.936v0.223c0 0.59 0.547 1.069 1.222 1.069h13.725c0.675 0 1.222-0.479 1.222-1.069v-0.223h7.938c1.507 0 2.731 1.224 2.731 2.731v25.678c0.673 0.031 1.344 0.097 2.009 0.219v-25.897c0-2.614-2.126-4.738-4.738-4.738h-7.938v-1.658c0-0.59-0.547-1.069-1.222-1.069h-2.752c-0.12-2.418-1.916-4.338-4.11-4.338-2.197 0-3.991 1.92-4.11 4.338h-2.752c-0.675 0-1.222 0.479-1.222 1.069v1.656h-7.938c-2.614 0-4.74 2.126-4.74 4.738v40.089c0 2.614 2.126 4.738 4.74 4.738h19.305c-0.175-0.663-0.306-1.332-0.39-2.009h-18.915zM27.743 1.429c0.696 0 1.259 0.564 1.259 1.259s-0.564 1.259-1.259 1.259c-0.696 0-1.259-0.564-1.259-1.259-0.002-0.696 0.564-1.259 1.259-1.259z"></path>
<path d="M16.617 21.997h3.21c1.193 0 2.162-0.97 2.162-2.164v-3.175l2.327-2.327-1.786-1.786-2.032 2.031c-0.213-0.070-0.434-0.118-0.669-0.118h-3.212c-0.44 0-0.846 0.134-1.189 0.359l-0.229-0.229-1.788 1.786 1.045 1.045v2.413c0 1.193 0.97 2.164 2.162 2.164zM16.617 15.542h2.917l-1.693 1.693-1.614-1.617c0.122-0.047 0.252-0.076 0.39-0.076zM15.536 18.5l2.306 2.306 3.068-3.068v2.098c0 0.597-0.487 1.084-1.082 1.084h-3.21c-0.595 0-1.082-0.487-1.082-1.084v-1.336z"></path>
<path d="M14.456 26.38v2.413c0 1.193 0.97 2.164 2.162 2.164h3.21c1.193 0 2.162-0.97 2.162-2.164v-3.177l2.327-2.327-1.786-1.786-2.034 2.034c-0.213-0.070-0.434-0.118-0.669-0.118h-3.21c-0.44 0-0.846 0.134-1.189 0.359l-0.231-0.231-1.786 1.786 1.045 1.047zM16.617 24.502h2.917l-1.693 1.693-1.614-1.616c0.122-0.047 0.252-0.076 0.39-0.076zM15.536 27.46l2.306 2.306 3.068-3.068v2.098c0 0.595-0.487 1.084-1.082 1.084h-3.21c-0.595 0-1.082-0.487-1.082-1.084v-1.336z"></path>
<path d="M14.456 35.497v2.413c0 1.193 0.97 2.164 2.162 2.164h3.21c1.193 0 2.162-0.97 2.162-2.164v-3.177l2.327-2.327-1.786-1.786-2.034 2.034c-0.213-0.070-0.434-0.118-0.669-0.118h-3.21c-0.44 0-0.846 0.134-1.189 0.359l-0.231-0.231-1.786 1.786 1.045 1.047zM16.617 33.617h2.917l-1.693 1.693-1.614-1.614c0.122-0.050 0.252-0.078 0.39-0.078zM15.536 36.577l2.306 2.306 3.068-3.068v2.098c0 0.597-0.487 1.084-1.082 1.084h-3.21c-0.595 0-1.082-0.487-1.082-1.084v-1.336z"></path>
<path d="M16.617 49.111h3.21c1.193 0 2.162-0.97 2.162-2.162v-3.177l2.327-2.327-1.786-1.786-2.034 2.034c-0.213-0.070-0.434-0.118-0.669-0.118h-3.21c-0.44 0-0.846 0.134-1.189 0.359l-0.229-0.231-1.786 1.786 1.045 1.045v2.413c-0.002 1.193 0.968 2.164 2.16 2.164zM16.617 42.655h2.917l-1.693 1.693-1.614-1.617c0.122-0.047 0.252-0.076 0.39-0.076zM15.536 45.613l2.306 2.306 3.068-3.068v2.098c0 0.595-0.487 1.082-1.082 1.082h-3.21c-0.595 0-1.082-0.487-1.082-1.082v-1.336z"></path>
</svg>
