<!-- Generated by IcoMoon.io -->
<svg version="1.1" xmlns="http://www.w3.org/2000/svg" width="64" height="64" viewBox="0 0 64 64">
<title>timeline</title>
<path d="M60.697 52.026h-21.677c-1.445-2.89-4.335-4.955-7.432-4.955-3.51 0-6.4 2.065-7.639 5.161h-11.148c-3.716 0-6.813-5.574-6.813-9.29v-0.826c0-3.716 3.097-6.813 6.813-6.813h10.942c1.239 3.097 4.335 5.161 7.845 5.161 3.303 0 6.4-2.065 7.639-5.161h11.561c7.432 0 13.213-7.019 13.213-14.452 0-7.226-3.716-15.897-13.419-15.69h-11.355c-1.239-3.097-4.336-5.161-7.845-5.161-3.303 0-6.4 2.064-7.639 5.161h-21.058c-1.858 0-3.303 1.445-3.303 3.303s1.445 3.303 3.303 3.303h21.265c1.445 2.89 4.335 4.955 7.432 4.955 3.303 0 6.4-2.064 7.639-4.955h11.561c5.161-0.206 7.019 5.574 7.019 9.29s-3.097 8.052-6.813 8.052h-11.561c-1.239-3.303-4.129-5.368-7.845-5.368-3.51 0-6.4 2.064-7.639 5.161h-10.942c-7.432 0-13.213 5.781-13.213 13.213v0.826c0 7.432 5.781 15.69 13.213 15.69h10.942c1.239 3.097 4.335 5.368 7.845 5.368 3.303 0 6.4-2.065 7.639-5.161h21.677c1.858 0 3.303-1.445 3.303-3.303s-1.652-3.51-3.51-3.51z"></path>
</svg>
