<!-- Generated by IcoMoon.io -->
<svg version="1.1" xmlns="http://www.w3.org/2000/svg" width="64" height="64" viewBox="0 0 64 64">
<title>twitter</title>
<path d="M32 0h20.129c6.529 0.058 11.804 5.341 11.85 11.867q0 20.133 0 40.283c-0.058 6.529-5.341 11.804-11.867 11.85h-40.242c-6.529-0.058-11.804-5.341-11.85-11.867q0-20.133 0-40.283c0.047-6.533 5.336-11.816 11.868-11.85h20.112zM32.124 26.735c-6.488-0.424-12.174-3.534-16.010-8.218-0.651 1.072-1.015 2.399-1.015 3.811 0 2.646 1.279 4.993 3.254 6.456l-0.102 0.18-3.262-0.888c0.082 3.663 2.612 6.714 6.014 7.585l0.055 0.198h-3.283c1.098 3.088 3.927 5.29 7.29 5.45-1.489 1.225-3.274 2.174-5.222 2.741-1.431 0.418-2.953 0.644-4.527 0.644-0.566 0-1.126-0.029-1.677-0.086 0.399 0.233 0.523 0.357 0.688 0.439 3.228 1.923 7.117 3.059 11.273 3.059 12.265 0 22.217-9.903 22.296-22.149-0.001-0.026-0.001-0.048-0.001-0.070 0-0.726 0.337-1.372 0.863-1.792 1.057-0.912 1.966-2.068 2.936-2.956l-0.165-0.165c-0.64 0.206-1.28 0.434-1.941 0.599s-1.342 0.289-2.065 0.434c1.366-1.049 2.413-2.449 3.014-4.066l-4.108 1.403c-0.118 0.049-0.255 0.078-0.398 0.078-0.319 0-0.605-0.142-0.798-0.366-1.384-1.27-3.236-2.048-5.269-2.048-3.584 0-6.603 2.416-7.519 5.708-0.197 1.193-0.303 2.504-0.303 3.84 0 0.063 0 0.125 0.001 0.188z"></path>
</svg>
