<!-- Generated by IcoMoon.io -->
<svg version="1.1" xmlns="http://www.w3.org/2000/svg" width="64" height="64" viewBox="0 0 64 64">
<title>user-exception</title>
<path d="M32.012 0c-0.007 0-0.016 0-0.024 0-17.68 0-32.012 14.332-32.012 32.012s14.332 32.012 32.012 32.012c17.68 0 32.012-14.332 32.012-32.012-0.014-17.666-14.324-31.984-31.985-32.012zM32.012 61.551c-16.314 0-29.538-13.225-29.538-29.538s13.225-29.538 29.538-29.538c16.314 0 29.538 13.225 29.538 29.538-0.028 16.302-13.236 29.511-29.536 29.538z"></path>
<path d="M40.634 18.909s-0.22-8.964-9.013-8.768c-4.588 0.115-8.288 3.756-8.498 8.308-0.001 0.215-0.001 0.387-0.001 0.582 0 0.058 0 0.126 0 0.194 0 2.175-0.125 4.321-0.367 6.431-0.016-0.059-0.039 0.169-0.039 0.403 0 0.818 0.282 1.57 0.755 2.163 1.66 2.099 2.15 4.891 3.913 6.973 0.242 0.373 0.386 0.83 0.386 1.32 0 0.987-0.583 1.837-1.424 2.225-0.995 0.496-2.073 0.815-3.101 1.255-3.661 1.404-6.762 3.552-9.241 6.275-0.609 0.735-1.145 1.537-1.597 2.392-0.1 0.217-0.136 0.381-0.136 0.554 0 0.559 0.382 1.028 0.899 1.162 0.841 0.002 1.674 0.002 2.458 0.002h32.282c0.12 0.003 0.26 0.005 0.401 0.005 0.878 0 1.741-0.064 2.585-0.188 0.307-0.096 0.599-0.459 0.599-0.889 0-0.116-0.021-0.228-0.060-0.331-0.277-0.838-0.677-1.57-1.185-2.213-1.336-1.585-2.876-2.961-4.587-4.099-2.337-1.452-4.941-2.709-7.679-3.683-1.337-0.306-2.116-1.223-2.116-2.322 0-0.571 0.21-1.093 0.557-1.493 1.492-2.079 2.080-4.651 3.672-6.635 0.593-0.732 0.952-1.675 0.952-2.702 0-0.318-0.035-0.628-0.1-0.927-0.182-1.44-0.289-3.14-0.289-4.864 0-0.071 0-0.142 0.001-0.213-0-0.43-0-0.871-0.147-1.312z"></path>
<path d="M44.455 10.14h4.066v14.941h-4.066v-14.941z"></path>
<path d="M44.455 27.628h4.066v4.482h-4.066v-4.482z"></path>
</svg>
