<!-- Generated by IcoMoon.io -->
<svg version="1.1" xmlns="http://www.w3.org/2000/svg" width="64" height="64" viewBox="0 0 64 64">
<title>user-del</title>
<path d="M49.586 60.16l-45.746-45.746c-3.84-3.84-5.51-8.403-1.67-12.243v0c3.84-3.84 8.403-2.17 12.243 1.67l45.746 45.746c3.84 3.84 5.565 8.404 1.67 12.243v0c-3.84 3.84-8.404 2.17-12.243-1.67z"></path>
<path d="M60.16 14.414l-45.746 45.746c-3.84 3.84-8.403 5.565-12.243 1.67v0c-3.84-3.84-2.17-8.404 1.67-12.243l45.746-45.746c3.84-3.84 8.404-5.565 12.243-1.67v0c3.84 3.84 2.17 8.403-1.67 12.243z"></path>
</svg>
