<!-- Generated by IcoMoon.io -->
<svg version="1.1" xmlns="http://www.w3.org/2000/svg" width="90" height="64" viewBox="0 0 90 64">
<title>user-add</title>
<path d="M83.621 53.945c-3.474-1.59-7.095-2.862-10.716-4.135-4.355-1.517-6.116-4.722-3.939-8.856 3.16-6.037 5.036-13.179 5.089-20.754 0.011-0.206 0.017-0.427 0.017-0.649 0-6.282-4.903-11.42-11.091-11.795-7.886-0.711-14.467 3.644-14.712 10.249-0.063 0.848-0.1 1.838-0.1 2.835 0 7.136 1.85 13.839 5.098 19.657 0.639 0.791 1.086 2.046 1.086 3.406 0 2.898-2.031 5.321-4.747 5.923-4.612 1.507-8.272 2.949-11.837 4.564-4.571 2.147-5.011 3.199-4.522 9.633h56.269c0.122-6.581-0.269-7.486-5.896-10.079zM84.379 48.269h-4.404l-0.294-5.529h-5.578v-4.697l5.651-0.269v-5.431h4.599l0.294 5.578h5.505v4.575l-5.505 0.245z"></path>
<path d="M20.648 0h0.391v11.596c12.339 0.41 22.186 10.511 22.186 22.912 0 3.351-0.719 6.535-2.012 9.404l-0.333-0.145c-0.269-0.44-0.563-0.856-0.807-1.321-2.102-4.027-5.238-7.265-9.061-9.433-2.971-1.715-6.37-2.756-9.999-2.92l-0.047 11.497-20.966-20.991z"></path>
</svg>
