<!-- Generated by IcoMoon.io -->
<svg version="1.1" xmlns="http://www.w3.org/2000/svg" width="64" height="64" viewBox="0 0 64 64">
<title>video</title>
<path d="M47.313 39.403c0.485-0.349 0.78-0.543 1.057-0.762 3.588-2.826 7.184-5.642 10.756-8.489 0.892-0.712 1.751-1.394 2.952-0.801 1.239 0.611 1.724 1.732 1.893 3.031 0.043 0.326 0.025 0.663 0.025 0.993 0.002 7.922 0.021 15.843-0.025 23.765-0.006 0.919-0.213 1.922-0.621 2.738-0.838 1.672-2.36 1.922-3.828 0.768-3.541-2.787-7.067-5.589-10.601-8.384-0.452-0.357-0.906-0.71-1.606-1.257 0 0.642 0 1.020 0 1.396 0 1.437 0.004 2.874-0.002 4.311-0.014 4.098-3.020 7.248-7.102 7.263-11.031 0.039-22.064 0.035-33.094 0.004-4.080-0.012-7.102-3.132-7.108-7.238-0.012-7.663-0.012-15.327-0.002-22.99 0.006-4.125 3.022-7.224 7.104-7.232 11.031-0.023 22.064-0.023 33.094-0.006 4.032 0.006 7.114 3.179 7.108 7.238-0.002 1.798 0 3.6 0 5.655z"></path>
<path d="M46.2 12.389c-0.010 6.726-5.539 12.255-12.245 12.249-6.677-0.006-12.177-5.578-12.17-12.325 0.008-6.743 5.514-12.305 12.191-12.313 6.736-0.008 12.236 5.566 12.224 12.389z"></path>
<path d="M17.311 16.458c-0.076 4.678-3.726 8.289-8.268 8.18-4.482-0.107-7.984-3.836-7.924-8.438 0.056-4.472 3.813-8.012 8.398-7.915 4.354 0.093 7.864 3.776 7.794 8.173z"></path>
</svg>
