<!-- Generated by IcoMoon.io -->
<svg version="1.1" xmlns="http://www.w3.org/2000/svg" width="64" height="64" viewBox="0 0 64 64">
<title>website</title>
<path d="M17.998 58.401c-9.325-5.002-15.668-14.836-15.668-26.164 0-2.89 0.431-5.68 1.202-8.324 0.477 0.246 0.648 0.605 0.917 1.336 0.231 0.621 0.512 1.394 1.175 2.124l0.553 0.32c2.777 0.597 6.639 2.735 8.246 5.075-0.124 0.522-0.264 1.028-0.405 1.526-0.551 2.007-1.123 4.075-0.491 7.308l0.070 0.227c0.665 1.437 1.637 2.409 2.558 3.344 0.96 0.95 1.866 1.85 2.337 3.216 0.081 1.813-0.072 3.788-0.254 5.874-0.103 1.383-0.202 2.773-0.239 4.137zM24.801 11.974c0.415 0 0.861-0.111 1.379-0.33 0.297-0.157 0.543-0.442 0.582-0.784 0.306-1.771-0.855-2.8-1.765-3.627-0.378-0.318-0.696-0.619-0.96-0.948-0.194-0.237-0.417-0.623-0.69-1.065-0.217-0.351-0.477-0.741-0.733-1.127 2.952-0.985 6.105-1.54 9.387-1.54 4.552 0 8.853 1.057 12.707 2.89l-0.436 0.291c-0.429 0.184-0.772 0.254-1.076 0.254-0.491 0-0.871-0.186-1.334-0.37-0.46-0.184-0.999-0.37-1.802-0.37-0.060 0-0.122 0.002-0.184 0.004-0.413 0.673-1.792 1.016-1.873 2.463-0.035 0.244 0.192 0.322 0.529 0.322 0.314 0 0.725-0.068 1.113-0.138 0.388-0.068 0.752-0.136 0.97-0.136 0.136 0 0.217 0.027 0.213 0.097-0.118 1.2-0.093 1.292 0.766 2.89-0.029 0.14-0.182 0.188-0.401 0.188-0.217 0-0.5-0.047-0.793-0.093-0.293-0.047-0.595-0.093-0.851-0.093-0.32 0-0.564 0.072-0.63 0.308-0.353 1.296-0.97 1.963-0.297 3.46 0.068 0.384 1.809 0.727 3.056 0.727 0.568 0 1.030-0.072 1.191-0.239 0.339-0.332 2.081-3.115 3.776-3.115 1.46 0.262 2.182 1.846 3.225 2.612 0.941 0.692 1.8 0.88 2.552 0.88 0.448 0 0.857-0.066 1.226-0.132s0.7-0.132 0.983-0.132c0.14 0 0.27 0.017 0.39 0.058 0.595 0.202 1.352 0.803 2.118 1.354 0.444 0.714 0.863 1.437 1.249 2.186-0.242 0.18-0.588 0.237-0.97 0.237-0.374 0-0.778-0.056-1.148-0.114s-0.704-0.114-0.935-0.114c-0.014 0-0.029 0-0.041 0-0.359 0.006-0.816 0.014-1.305 0.014-0.999 0-2.143-0.035-2.909-0.206-2.263-0.51-3.976-2.147-6.2-2.149-0.33 0-0.673 0.037-1.030 0.118-1.321 0.303-3.132 0.832-3.972 1.371-3.745 2.308-4.994 11.425 1.656 12.967 0.194 0.021 0.376 0.031 0.547 0.031 0.721 0 1.268-0.171 1.815-0.341s1.094-0.341 1.817-0.341c0.394 0 0.84 0.050 1.369 0.18 0.696 0.124 3.186 4.992 4.082 7.969 0.301 1.034-0.609 2.504-0.431 3.524 0.512 3.157 2.845 6.767 4.798 7.99l0.252 0.074c-5.409 7.265-14.032 11.987-23.783 11.987-2.773 0-5.444-0.409-7.988-1.119 0.38-0.816 0.749-1.645 0.921-2.473 1.526-0.198 2.16-1.309 2.585-2.081 0.454-0.772 0.615-1.045 1.218-1.069 0.423-0.012 0.793-0.295 0.923-0.708l0.118-0.316c0.772-2.438 1.451-4.548 3.59-5.178 0.44-0.138 0.764-0.559 0.718-1.036-0.041-1.286 0.275-2.174 0.667-3.21 0.495-1.365 1.061-2.915 0.626-5.349l-0.072-0.221c-0.559-1.301-4.678-1.842-6.167-2.005-2.909-4.728-8.262-6.059-12.767-6.635-0.851-1.266-1.123-2.331-1.674-4.439l-0.337-1.286c-0.083-0.365-0.372-0.646-0.723-0.733-0.347-0.091-0.65-0.132-0.912-0.132-1.034 0-1.472 0.609-1.753 1.074l-0.31-0.438c-0.407-0.526-0.712-0.917-0.78-1.627 0.225-0.669 0.605-1.131 1.193-1.425 0.477-0.066 0.929-0.101 1.35-0.101 1.48 0 2.626 0.415 3.47 1.266 0.182 0.18 0.403 0.279 0.648 0.291 0.012 0.002 0.025 0.002 0.039 0.002 0.595 0 1.439-1.2 1.365-1.749-0.483-3.437 0.2-5.43 0.485-5.77 0.694-0.84 1.164-1.398 2.496-1.705 0.529-0.114 0.871-0.617 0.778-1.154l-0.087-0.592c-0.229-1.46-0.229-1.46 0.675-1.775l0.211-0.054 0.244 0.4c0.303 0.491 0.758 1.323 1.858 1.4 0.064 0.006 0.128 0.008 0.192 0.008zM32.002 0c-17.662 0-32.002 14.319-32.002 32.002 0 17.678 14.34 31.998 32.002 31.998 17.664 0 31.998-14.319 31.998-31.998 0-17.683-14.334-32.002-31.998-32.002z"></path>
</svg>
