<!-- Generated by IcoMoon.io -->
<svg version="1.1" xmlns="http://www.w3.org/2000/svg" width="67" height="64" viewBox="0 0 67 64">
<title>ww-lg</title>
<path d="M60.294 38.718c4.288-4.016 6.96-9.713 6.96-16.034s-2.672-12.018-6.948-16.022c-4.416-4.131-10.351-6.661-16.878-6.661s-12.462 2.53-16.88 6.663c-4.266 3.995-6.933 9.68-6.933 15.989 0 4.807 1.549 9.252 4.174 12.864l-3.052 2.817-1.856-1.728-18.882 17.986 9.921 9.409 18.882-17.986-1.856-1.728 3.008-2.88c3.796 2.494 8.45 3.978 13.45 3.978 6.537 0 12.481-2.537 16.902-6.679zM30.403 10.299c3.389-3.182 7.963-5.136 12.993-5.136s9.604 1.954 13.003 5.145c3.302 3.093 5.365 7.493 5.365 12.376s-2.064 9.283-5.366 12.377c-3.399 3.19-7.972 5.145-13.003 5.145s-9.604-1.954-13.003-5.145c-3.302-3.093-5.366-7.493-5.366-12.376s2.064-9.283 5.366-12.377z"></path>
<path d="M51.973 9.467c-2.449-1.447-5.397-2.303-8.545-2.303-3.766 0-7.246 1.224-10.064 3.296-0.207 0.157-0.371 0.457-0.371 0.795 0 0.244 0.085 0.469 0.227 0.646-0.002 0.062 0.062 0.062 0.062 0.126 0.193 0.183 0.454 0.296 0.741 0.296 0.253 0 0.486-0.087 0.669-0.234 2.407-1.742 5.421-2.787 8.68-2.787 2.716 0 5.262 0.726 7.455 1.995 0.089 0.059 0.284 0.116 0.492 0.116 0.375 0 0.706-0.186 0.906-0.471 0.162-0.17 0.26-0.396 0.26-0.645 0-0.361-0.207-0.675-0.508-0.828z"></path>
</svg>
