<!-- Generated by IcoMoon.io -->
<svg version="1.1" xmlns="http://www.w3.org/2000/svg" width="64" height="64" viewBox="0 0 64 64">
<title>youtube</title>
<path d="M32 0h19.78c0.094-0.003 0.206-0.004 0.317-0.004 1.916 0 3.724 0.464 5.318 1.287l-0.065-0.030c3.056 1.544 5.325 4.269 6.228 7.56l0.020 0.084c0.257 0.947 0.404 2.034 0.404 3.155 0 0.059-0 0.118-0.001 0.176l0-0.009q0 19.782 0 39.559c0.003 0.099 0.005 0.216 0.005 0.333 0 2.335-0.693 4.508-1.884 6.325l0.027-0.044c-1.861 2.975-4.946 5.036-8.532 5.481l-0.057 0.006c-0.549 0.071-1.184 0.112-1.829 0.113h-0.001q-19.729 0.007-39.454 0.007c-0.082 0.002-0.178 0.003-0.275 0.003-1.931 0-3.755-0.455-5.372-1.264l0.069 0.032c-2.358-1.204-4.231-3.069-5.413-5.351l-0.032-0.069c-0.791-1.54-1.254-3.359-1.254-5.288 0-0.081 0.001-0.163 0.003-0.244l-0 0.012q0-19.832 0-39.663c-0.002-0.083-0.003-0.181-0.003-0.28 0-4.52 2.537-8.448 6.264-10.438l0.064-0.031c1.592-0.898 3.496-1.427 5.523-1.427 0.131 0 0.261 0.002 0.391 0.007l-0.019-0.001q9.89 0 19.78 0zM31.991 59.394c6.577 0 12.371-0.175 16.928-0.595 2.354-0.235 4.282-1.826 5.008-3.972l0.012-0.041c0.456-1.595 0.749-3.439 0.812-5.34l0.001-0.038q0.166-2.824 0.167-5.662c0.009-0.41 0.015-0.893 0.015-1.378 0-3.239-0.239-6.423-0.699-9.534l0.043 0.352c-0.354-2.677-2.458-4.771-5.11-5.106l-0.029-0.003c-2.298-0.205-4.601-0.388-6.906-0.465-3.268-0.109-6.539-0.149-9.809-0.156-5.683-0.013-11.364 0.060-17.035 0.542-2.698 0.098-4.919 2.022-5.471 4.568l-0.007 0.038c-0.304 1.359-0.533 2.976-0.639 4.626l-0.005 0.095c-0.134 1.791-0.211 3.879-0.211 5.986 0 2.541 0.111 5.056 0.33 7.541l-0.023-0.322c0.113 1.589 0.38 3.065 0.79 4.481l-0.037-0.151c0.569 1.985 2.212 3.474 4.244 3.809l0.031 0.004c0.899 0.158 1.974 0.275 3.067 0.325l0.057 0.002c4.821 0.341 9.647 0.393 14.473 0.395zM20.352 20.329c0 1.295 0.013 2.588 0 3.883 0 0.377 0.12 0.486 0.48 0.473 0.681-0.023 1.365 0 2.046 0 0.608 0 0.61 0 0.612-0.599 0-2.413 0-4.828 0-7.241 0.002-0.403 0.061-0.792 0.169-1.159l-0.007 0.030c0.414-1.425 0.86-2.842 1.293-4.263q1.069-3.509 2.137-7.019c0.139-0.457 0.128-0.476-0.346-0.482-0.717 0-1.434 0.013-2.151 0-0.034-0.008-0.073-0.012-0.113-0.012-0.282 0-0.513 0.216-0.536 0.492l-0 0.002c-0.576 2.287-1.184 4.567-1.786 6.846-0.065 0.208-0.129 0.375-0.201 0.539l0.013-0.032c-0.065-0.136-0.135-0.309-0.195-0.486l-0.011-0.036c-0.623-2.276-1.25-4.55-1.85-6.829-0.027-0.28-0.261-0.497-0.545-0.497-0.039 0-0.077 0.004-0.113 0.012l0.004-0.001c-0.753 0.026-1.506 0-2.259 0-0.514 0-0.51 0-0.346 0.497 0.966 2.895 1.963 5.785 2.874 8.702 0.525 1.303 0.835 2.813 0.845 4.395v0.004c-0.055 0.924-0.011 1.854-0.011 2.782zM45.86 16.994q0-3.62 0-7.238c0-0.525 0-0.527-0.51-0.531-0.576 0-1.154 0-1.73 0s-0.595 0-0.595 0.604c0 3.479-0.030 6.965 0.021 10.438 0 0.015 0.001 0.032 0.001 0.049 0 0.728-0.391 1.364-0.974 1.711l-0.009 0.005c-0.183 0.164-0.426 0.265-0.692 0.265-0.141 0-0.275-0.028-0.397-0.079l0.007 0.003c-0.377-0.188-0.346-0.565-0.348-0.922q-0.013-3.462-0.021-6.923c0-1.538 0-3.078 0-4.615 0-0.535 0-0.537-0.565-0.538h-1.679c-0.6 0-0.602 0-0.602 0.597 0 3.793-0.011 7.588 0 11.381 0.015 0.803 0.088 1.577 0.214 2.332l-0.013-0.092c0.104 0.774 0.74 1.372 1.524 1.413l0.004 0c0.088 0.009 0.191 0.015 0.294 0.015 0.653 0 1.256-0.213 1.743-0.574l-0.008 0.006c0.414-0.288 0.785-0.638 1.178-0.954 0.073-0.051 0.156-0.101 0.243-0.144l0.011-0.005c0.021 0.084 0.038 0.184 0.048 0.287l0.001 0.009c0 0.262 0.015 0.525 0 0.787-0.017 0.296 0.103 0.405 0.397 0.399 0.629-0.013 1.259 0 1.882 0 0.55 0 0.553 0 0.553-0.55q0.023-3.567 0.021-7.134zM35.484 16.994h0.026c0-0.838 0.017-1.677 0-2.515-0.014-0.696-0.064-1.364-0.149-2.021l0.010 0.092c-0.208-1.988-1.875-3.524-3.901-3.524-0.239 0-0.474 0.021-0.701 0.063l0.024-0.004c-1.509 0.127-2.747 1.161-3.172 2.549l-0.007 0.026c-0.233 0.698-0.367 1.502-0.367 2.337 0 0.105 0.002 0.209 0.006 0.313l-0-0.015c0 1.764-0.011 3.529 0 5.293 0.006 0.648 0.056 1.28 0.148 1.898l-0.009-0.074c0.296 1.97 1.976 3.463 4.005 3.463 1.518 0 2.84-0.836 3.533-2.072l0.011-0.020c0.337-0.649 0.535-1.417 0.535-2.232 0-0.015-0-0.031-0-0.046v0.002c0.036-1.171 0.009-2.342 0.009-3.512z"></path>
<path d="M32.941 43.068q0-4.825 0-9.647c0-0.614 0-0.615 0.597-0.619q0.787 0 1.574 0c0.582 0 0.585 0 0.587 0.578 0 1.818 0 3.635 0 5.459 0.010 0.189 0.030 0.363 0.058 0.534l-0.004-0.028c0.162-0.104 0.302-0.21 0.433-0.325l-0.004 0.003c0.591-0.701 1.47-1.144 2.452-1.144 0.106 0 0.212 0.005 0.315 0.015l-0.013-0.001c0.727 0.066 1.33 0.534 1.59 1.177l0.005 0.013c0.282 0.613 0.447 1.33 0.45 2.085v0.001c0.017 3.012 0.028 6.012 0 9.017-0.024 0.682-0.16 1.326-0.39 1.923l0.014-0.040c-0.269 0.863-1.061 1.479-1.997 1.479-0.373 0-0.722-0.098-1.025-0.269l0.010 0.005c-0.573-0.343-1.068-0.703-1.528-1.103l0.013 0.011c-0.094-0.070-0.188-0.141-0.279-0.213-0.037 0.095-0.068 0.205-0.085 0.32l-0.001 0.009c-0.045 1.003-0.043 1.003-1.054 1.003-0.454 0-0.909 0-1.363 0-0.241 0-0.356-0.098-0.344-0.343 0-0.139 0-0.281 0-0.42q-0.009-4.738-0.009-9.481zM35.699 45.639c0 1.431 0 2.863 0 4.294-0.003 0.024-0.005 0.052-0.005 0.080 0 0.264 0.143 0.494 0.355 0.618l0.003 0.002c0.202 0.132 0.434 0.245 0.68 0.33l0.022 0.007c0.103 0.038 0.222 0.060 0.345 0.060 0.467 0 0.862-0.312 0.985-0.74l0.002-0.007c0.106-0.253 0.173-0.547 0.188-0.854l0-0.006q0.023-3.742 0-7.486c-0.022-0.35-0.105-0.676-0.239-0.974l0.007 0.018c-0.141-0.392-0.51-0.668-0.943-0.668-0.122 0-0.239 0.022-0.348 0.062l0.007-0.002c-0.67 0.132-1.056 0.521-1.058 1.079q-0.011 2.093-0.009 4.188z"></path>
<path d="M43.257 45.673c0-1.118-0.030-2.24 0.013-3.356 0.028-0.635 0.129-1.235 0.294-1.807l-0.013 0.054c0.367-1.37 1.5-2.4 2.902-2.608l0.019-0.002c0.285-0.071 0.612-0.111 0.948-0.111 0.735 0 1.425 0.193 2.022 0.532l-0.020-0.011c0.958 0.55 1.642 1.486 1.843 2.59l0.003 0.023c0.114 0.535 0.191 1.16 0.214 1.798l0.001 0.020c0.036 0.977 0 1.958 0.023 2.937 0 0.329-0.105 0.42-0.42 0.416-1.506-0.011-3.012 0-4.518 0-0.621 0-0.627 0-0.623 0.64 0 0.856 0.013 1.713 0.038 2.569 0.010 0.26 0.058 0.505 0.137 0.735l-0.005-0.018c0.157 0.546 0.651 0.938 1.238 0.938 0.679 0 1.235-0.527 1.282-1.194l0-0.004c0.029-0.31 0.046-0.671 0.046-1.035 0-0.115-0.002-0.23-0.005-0.344l0 0.017c0-0.299 0.115-0.397 0.403-0.392 0.681 0.013 1.365 0 2.046 0 0.177 0 0.377-0.017 0.361 0.25 0.006 0.117 0.009 0.253 0.009 0.39 0 0.857-0.127 1.685-0.363 2.465l0.016-0.060c-0.391 1.074-1.256 1.89-2.336 2.206l-0.025 0.006c-0.407 0.146-0.877 0.23-1.367 0.23-1.52 0-2.85-0.812-3.581-2.026l-0.011-0.019c-0.356-0.673-0.565-1.471-0.565-2.318 0-0.001 0-0.002 0-0.003v0c-0.028-1.171 0-2.343 0-3.514zM47.311 43.883c0.365 0 0.732 0 1.097 0 0.209 0 0.337-0.062 0.324-0.295-0.007-0.761-0.053-1.502-0.137-2.232l0.009 0.097c-0.054-0.639-0.586-1.138-1.234-1.138-0.13 0-0.256 0.020-0.374 0.058l0.009-0.002c-0.568 0.159-0.979 0.671-0.981 1.28v0c-0.064 0.623-0.047 1.252-0.079 1.882-0.013 0.281 0.113 0.367 0.377 0.356 0.328-0.015 0.659-0.006 0.99-0.006z"></path>
<path d="M30.52 45.741q0 3.514 0 7.029c0 0.551 0 0.553-0.544 0.565-0.612 0-1.224 0-1.835 0-0.267 0-0.377-0.096-0.377-0.365s0.009-0.525 0-0.787c-0.019-0.146-0.048-0.277-0.087-0.403l0.005 0.017c-0.103 0.073-0.193 0.146-0.279 0.224l0.002-0.002c-0.488 0.532-1.075 0.965-1.734 1.27l-0.034 0.014c-0.322 0.142-0.697 0.225-1.092 0.225-0.158 0-0.313-0.013-0.464-0.039l0.016 0.002c-0.7-0.112-1.239-0.68-1.306-1.385l-0-0.006c-0.104-0.605-0.168-1.307-0.177-2.023l-0-0.009c-0.017-3.829-0.009-7.657 0-11.482 0-0.499 0-0.503 0.491-0.508q0.84 0 1.679 0c0.535 0 0.54 0 0.54 0.565q0 4.695 0 9.389c0 0.698 0.019 1.399 0.041 2.097 0.028 0.858 0.495 1.158 1.224 0.712 0.418-0.293 0.777-0.636 1.078-1.024l0.008-0.011c0.066-0.132 0.105-0.287 0.105-0.452 0-0.053-0.004-0.104-0.012-0.154l0.001 0.006q0-5.141 0-10.281c0.004-0.063 0.006-0.136 0.006-0.21s-0.002-0.147-0.006-0.22l0 0.010c-0.038-0.354 0.134-0.448 0.459-0.439 0.612 0.017 1.225 0.025 1.835 0 0.377-0.017 0.465 0.149 0.463 0.495-0.013 2.385-0.008 4.781-0.008 7.181z"></path>
<path d="M15.755 44.489q0-4.119 0-8.237c0-0.553 0-0.565-0.537-0.565-0.753 0-1.506-0.019-2.259 0-0.377 0.011-0.48-0.128-0.465-0.486 0.024-0.629 0-1.259 0-1.882 0-0.518 0-0.523 0.506-0.523h6.086c0.857 0 1.715 0.013 2.571 0 0.361 0 0.495 0.111 0.482 0.48-0.024 0.664-0.019 1.329 0 1.993 0 0.316-0.096 0.437-0.42 0.429-0.77-0.017-1.54 0-2.308 0-0.597 0-0.601 0-0.601 0.61q0 8.028 0 16.055c0 1.096 0.126 0.941-0.941 0.962-0.525 0-1.049 0-1.574 0s-0.55 0-0.55-0.542q0.006-4.149 0.008-8.294z"></path>
<path d="M32.631 16.941c0 1.291 0.011 2.583-0.009 3.874-0.027 0.295-0.099 0.567-0.21 0.819l0.007-0.017c-0.138 0.4-0.511 0.682-0.95 0.682-0.024 0-0.048-0.001-0.071-0.003l0.003 0c-0.039 0.006-0.084 0.009-0.13 0.009-0.437 0-0.807-0.289-0.928-0.687l-0.002-0.007c-0.15-0.483-0.249-1.042-0.274-1.62l-0-0.014c-0.032-2.025-0.024-4.051 0-6.076 0.004-0.533 0.076-1.047 0.209-1.537l-0.010 0.042c0.137-0.497 0.584-0.856 1.116-0.856s0.98 0.359 1.114 0.848l0.002 0.008c0.118 0.479 0.19 1.030 0.198 1.597l0 0.005c0.030 0.977 0 1.956 0 2.933z"></path>
</svg>
